<svg width="62" height="40" viewBox="0 0 62 40" fill="none" xmlns="http://www.w3.org/2000/svg">
<mask id="mask0_325_57" style="mask-type:luminance" maskUnits="userSpaceOnUse" x="0" y="0" width="44" height="40">
<path d="M0.0184326 0H43.4478V39.9759H0.0184326V0Z" fill="white"/>
</mask>
<g mask="url(#mask0_325_57)">
<path d="M42.6945 21.9443C42.6073 21.2904 41.8664 20.6803 41.2998 20.5061C39.4258 19.9395 37.508 19.678 35.5904 19.5908C35.9391 18.7627 36.3313 17.9347 36.68 17.1501C37.9439 14.4478 39.2513 11.8329 40.4718 9.17432C41.5613 6.82087 43.4353 3.98784 42.3458 1.37294C42.1279 0.849843 41.2126 -0.021729 40.5153 0.239724C36.5492 1.85233 33.1061 4.77239 29.8811 7.60523C26.7866 10.351 23.8228 13.3148 21.1207 16.4528C19.8132 17.9347 18.5928 19.4601 17.4161 21.029C11.7067 22.1187 6.08434 23.8183 0.723613 26.0847C-0.4096 26.5641 1.42095 28.7433 2.37973 28.351C6.52022 26.6076 10.7914 25.1695 15.1497 24.1235C12.2296 28.351 9.65821 32.8401 7.479 37.5472C7.04312 38.4625 9.17882 40.2928 9.70173 39.1598C12.3603 33.5375 15.542 28.2202 19.2901 23.2517C20.0747 23.0775 20.8592 22.9467 21.6873 22.816C24.956 22.2929 28.312 21.988 31.6244 21.9007C30.7526 24.167 29.9246 26.4769 29.358 28.8306C28.7914 31.1403 28.7041 33.6247 31.3627 34.5835C31.973 34.8014 32.2345 34.2785 32.1473 33.7554C32.0601 33.276 31.6679 32.8838 31.2757 32.6222C31.2757 32.5352 31.232 32.4915 31.232 32.4042C31.3192 32.1865 31.2757 31.8376 31.3192 31.6199C31.45 30.9226 31.6679 30.2687 31.8421 29.6149C32.2345 28.1767 32.6704 26.7821 33.1498 25.4309C33.5855 24.2107 34.065 23.034 34.588 21.8135C37.0723 21.8135 39.5565 21.988 41.9099 22.7288C42.5203 22.9467 42.8252 22.4673 42.6945 21.9443ZM32.6267 19.5036C32.1473 19.5471 31.6679 19.5471 31.232 19.5471C28.0068 19.6343 24.7818 19.8958 21.5566 20.3316C22.0795 19.7215 22.6026 19.0677 23.1255 18.4576C25.7406 15.4068 28.5734 12.5738 31.5807 9.91517C34.1958 7.60523 36.8979 5.25178 39.9487 3.55196C39.8616 3.7699 39.7744 3.94433 39.7309 4.11857C39.3823 4.90311 39.0334 5.68766 38.6847 6.4285C38.0746 7.86687 37.421 9.26154 36.7672 10.6562C35.329 13.6198 33.8906 16.5398 32.6267 19.5036Z" fill="white"/>
</g>
<path d="M52.2368 21.5522C50.1883 23.2519 46.0043 25.5183 44.261 25.8234C44.3045 25.649 44.3917 25.4311 44.4789 25.2568C45.0018 23.8622 45.6121 22.5982 46.3965 21.3343C46.8759 20.4625 44.7404 18.5885 44.1302 19.6782C43.1713 21.2906 41.7331 23.5135 41.7766 25.4311C41.8203 27.1309 43.4329 28.6998 45.1325 28.3511C46.6144 28.0462 48.0528 27.0437 49.273 26.2156C50.7984 25.1696 52.2803 24.0364 53.7185 22.8162C54.503 22.1624 53.1084 20.8112 52.2368 21.5522ZM48.3142 16.9759C48.9679 15.7119 49.0551 15.4505 49.0551 15.4505C49.5782 14.5789 47.4425 12.7484 46.8324 13.8379C46.8324 13.8379 46.5709 14.2738 46.0915 15.3198C45.6556 16.2785 47.7911 18.0219 48.3142 16.9759Z" fill="white"/>
<path d="M60.6479 21.2038C59.1223 18.6759 57.0303 19.1118 55.0256 20.6372C54.7204 19.6784 53.1515 18.6324 52.8028 19.5475C51.844 22.1191 50.798 24.6468 49.8391 27.2183C49.4904 28.1771 51.5824 30.0077 52.1055 28.8745C52.8463 27.2618 53.8488 25.78 55.0691 24.516C55.5922 23.9059 56.2023 23.3393 56.8561 22.8599C57.1611 22.642 58.425 21.6832 58.9916 21.6832C59.3403 22.0319 59.7762 22.3805 60.212 22.337C60.8657 22.2933 60.9529 21.6832 60.6479 21.2038Z" fill="white"/>
</svg>
