<svg width="184" height="40" viewBox="0 0 184 40" fill="none" xmlns="http://www.w3.org/2000/svg">
<g clip-path="url(#clip0_247_2)">
<path d="M24.6791 29.9918H17.9362V27.5595H17.8543C16.7176 29.7462 13.9241 30.7576 11.2896 30.7576C4.1758 30.7576 0 25.1658 0 18.7215C0 11.3476 5.29801 6.74316 11.3088 6.74316C14.9934 6.74316 17.0596 8.52522 17.8736 9.90271H17.9554V7.49452H24.6984L24.6791 29.9918ZM12.3203 24.4771C16.5346 24.4771 17.9554 20.9129 17.9554 18.6974C17.9554 16.0099 16.0867 13.0045 12.2818 13.0045C8.47682 13.0045 6.74293 16.2507 6.74293 18.7841C6.74293 20.9129 8.26972 24.4771 12.3203 24.4771Z" fill="white"/>
<path d="M36.3107 5.10536H29.5677V0H36.3107V5.10536ZM36.3107 29.9916H29.5677V7.4991H36.3107V29.9916Z" fill="white"/>
<path d="M41.1318 7.49891H47.4557V9.9071H47.5376C48.1059 8.81378 49.2811 6.74756 53.168 6.74756V13.4857C50.0469 13.5675 47.8699 14.2129 47.8699 17.6181V29.9914H41.127L41.1318 7.49891Z" fill="white"/>
<path d="M79.2294 27.2752C79.2294 30.6467 78.9838 32.7851 77.8904 34.6924C76.1469 37.5293 72.053 39.9904 66.4997 39.9904C58.6827 39.9904 55.7207 35.2897 55.2776 32.0868H63.056C64.0193 34.3168 66.5431 34.3168 66.9862 34.3168C67.8387 34.3168 72.4576 34.2349 72.4576 28.1951V27.516H72.3805C71.687 28.8165 69.746 30.7189 66.2204 30.7189C60.0988 30.7189 54.873 26.1 54.873 18.8851C54.873 11.1789 60.3829 6.76709 66.2204 6.76709C68.7297 6.76709 71.2005 7.65812 72.419 9.60394H72.5009V7.49918H79.2438L79.2294 27.2752ZM66.9862 24.4384C70.2324 24.4384 72.5009 22.088 72.5009 18.8466C72.5009 15.2391 70.0301 13.0669 67.0295 13.0669C66.3036 13.0718 65.5859 13.2212 64.9183 13.5062C64.2506 13.7912 63.6464 14.2063 63.1407 14.7272C62.6351 15.2481 62.2382 15.8644 61.9731 16.5402C61.708 17.216 61.58 17.9378 61.5966 18.6635C61.5966 22.2469 64.1927 24.4384 66.9862 24.4384Z" fill="white"/>
<path d="M95.0705 6.76709C103.258 6.76709 107.188 13.2114 107.188 18.7213C107.188 24.2313 103.258 30.6804 95.0705 30.6804C86.8826 30.6804 82.9573 24.2361 82.9573 18.7213C82.9573 13.2066 86.8874 6.76709 95.0705 6.76709ZM95.0705 24.395C97.9892 24.395 100.465 21.9868 100.465 18.7213C100.465 15.4558 97.9892 13.0476 95.0705 13.0476C92.1517 13.0476 89.6809 15.4558 89.6809 18.7213C89.6809 21.9868 92.1565 24.395 95.0705 24.395Z" fill="white"/>
<path d="M122.061 6.76709C130.249 6.76709 134.179 13.2114 134.179 18.7213C134.179 24.2313 130.249 30.6804 122.061 30.6804C113.874 30.6804 109.943 24.2361 109.943 18.7213C109.943 13.2066 113.874 6.76709 122.061 6.76709ZM122.061 24.395C124.98 24.395 127.451 21.9868 127.451 18.7213C127.451 15.4558 124.98 13.0476 122.061 13.0476C119.143 13.0476 116.672 15.4558 116.672 18.7213C116.672 21.9868 119.143 24.395 122.061 24.395Z" fill="white"/>
<path d="M161.411 29.9916H155.01V27.5593H154.928C154.36 28.4889 152.742 30.7188 148.185 30.7188C141.38 30.7188 136.92 25.4497 136.92 18.6779C136.934 11.0777 142.367 6.74293 148.079 6.74293C152.053 6.74293 153.955 8.66948 154.683 9.41601V0H161.426L161.411 29.9916ZM149.308 24.4383C153.522 24.4383 155.063 20.9946 155.063 18.6586C155.063 17.1488 154.463 15.7007 153.396 14.6331C152.328 13.5655 150.88 12.9657 149.37 12.9657C147.86 12.9657 146.412 13.5655 145.345 14.6331C144.277 15.7007 143.677 17.1488 143.677 18.6586C143.663 22.1264 146.134 24.4383 149.308 24.4383Z" fill="white"/>
<path d="M175.841 13.8182C175.798 13.3366 175.716 12.118 173.731 12.118C172.315 12.118 171.829 13.0091 171.829 13.6159C171.829 14.8345 173.491 15.5425 175.273 16.0482C179.082 17.103 183.133 18.2348 183.133 23.0994C183.133 27.8435 178.962 30.7574 173.982 30.7574C170.577 30.7574 165.428 29.221 164.831 23.3017H171.516C171.8 25.3679 173.784 25.3679 174.069 25.3679C175.205 25.3679 176.419 24.7225 176.419 23.6244C176.419 21.8856 174.757 21.6978 170.466 20.0217C167.547 19.0873 165.115 17.1849 165.115 14.1457C165.115 9.68577 169.166 6.72852 173.828 6.72852C176.785 6.72852 181.89 7.90371 182.459 13.8182H175.841Z" fill="white"/>
</g>
<defs>
<clipPath id="clip0_247_2">
<rect width="183.133" height="40" fill="white"/>
</clipPath>
</defs>
</svg>
