<svg width="40" height="38" viewBox="0 0 40 38" fill="none" xmlns="http://www.w3.org/2000/svg">
<path d="M0 36.1996C2.78608 35.6815 5.17329 34.6656 6.38082 31.9047C7.11261 30.2316 7.75223 28.5174 8.40775 26.8118C10.7219 20.7907 13.0231 14.7645 15.3335 8.7419C16.2299 6.40508 17.2079 4.09651 18.0128 1.72884C18.464 0.401589 19.4586 0.0946723 20.588 0.00135436C20.9219 -0.0262402 21.4933 0.373226 21.6245 0.707185C23.4728 5.41184 25.2551 10.1423 27.0708 14.8598C29.336 20.7453 31.5894 26.6355 33.9076 32.5001C34.6576 34.3972 35.9194 35.7504 38.1992 35.7863C38.6096 35.7927 39.0123 36.2851 39.4424 36.5689C39.4424 37.3809 39.4424 37.8438 39.4424 37.8438C33.9015 37.8318 28.3548 37.8058 22.7956 37.7492C22.3712 35.9205 22.4345 35.8293 24.069 35.7486C25.8933 35.6585 26.8491 34.8311 26.4219 33.559C25.7016 31.4141 24.8821 29.2995 24.0101 27.2116C23.859 26.8499 23.2466 26.4668 22.8406 26.4594C19.536 26.3988 16.2292 26.3941 12.925 26.4654C12.5183 26.4741 11.9301 26.9469 11.7581 27.3473C11.1694 28.718 10.7075 30.1453 10.2363 31.5639C9.45526 33.9151 10.333 35.6147 12.7617 35.6615C14.5795 35.6965 14.8909 36.3889 14.7368 37.8539C9.82456 37.8539 4.91227 37.8539 0 37.8539C0 37.3431 0 36.8465 0 36.1996ZM15.9398 14.5474C14.9107 17.641 13.8817 20.7347 12.8284 23.901C16.1614 23.901 19.3453 23.901 22.7255 23.901C21.0034 19.4831 19.3481 15.2364 17.6927 10.9897C17.5349 11.0001 17.3771 11.0104 17.2192 11.0208C16.7964 12.1141 16.3737 13.2075 15.9398 14.5474Z" fill="white"/>
</svg>
