<svg width="269" height="40" viewBox="0 0 269 40" fill="none" xmlns="http://www.w3.org/2000/svg">
<path d="M33 33.8107C35.0933 33.4214 36.887 32.6581 37.7942 30.5837C38.3441 29.3266 38.8246 28.0386 39.3172 26.7571C41.0559 22.2331 42.7849 17.7054 44.5208 13.1803C45.1943 11.4245 45.9292 9.68997 46.5339 7.91101C46.8729 6.91379 47.6202 6.68318 48.4688 6.61307C48.7197 6.59234 49.149 6.89248 49.2476 7.1434C50.6363 10.6782 51.9754 14.2325 53.3396 17.777C55.0416 22.199 56.7347 26.6247 58.4765 31.031C59.04 32.4564 59.9881 33.4732 61.701 33.5001C62.0093 33.505 62.3119 33.8749 62.6351 34.0881C62.8563 33.9212 63.0978 33.6315 63.4029 33.5263C65.3077 32.8695 65.5179 32.6266 65.5356 30.6298C65.554 28.5597 65.5397 26.4892 65.5397 24.4189C65.5397 19.7137 65.5397 15.0085 65.5397 10.3033C65.5397 10.1151 65.5461 9.92665 65.5387 9.73874C65.4667 7.91771 65.0374 7.58509 63.2452 7.92623C62.9961 7.97365 62.7301 7.93277 62.4332 7.93277C62.2779 6.97267 62.453 6.48322 63.5462 6.31621C65.1804 6.06652 66.7751 5.5577 68.319 5.07934C68.8615 4.99957 69.4716 4.99957 70.1116 5.07946C70.2646 5.68808 70.4937 6.21651 70.4952 6.74557C70.5179 14.9543 70.5167 23.163 70.5046 31.3718C70.5029 32.5256 70.8746 33.4399 72.1018 33.5661C73.14 33.6728 73.2883 34.2283 73.2227 35.0536C65.535 35.0536 57.8473 35.0536 50.1275 34.9749C49.8086 33.6009 49.8562 33.5325 51.0843 33.4718C52.4549 33.4041 53.1731 32.7824 52.8521 31.8266C52.3109 30.2151 51.6952 28.6263 51.04 27.0575C50.9265 26.7857 50.4664 26.4979 50.1613 26.4923C47.6784 26.4468 45.1938 26.4433 42.7112 26.4968C42.4056 26.5034 41.9637 26.8586 41.8345 27.1595C41.3921 28.1894 41.0451 29.2617 40.691 30.3276C40.1042 32.0942 40.7637 33.3712 42.5885 33.4063C43.9543 33.4326 44.1883 33.9529 44.0725 35.0536C40.3817 35.0536 36.6908 35.0536 33 35.0536C33 34.6699 33 34.2967 33 33.8107ZM44.9764 17.5422C44.2032 19.8667 43.43 22.1911 42.6386 24.5701C45.1429 24.5701 47.5351 24.5701 50.0748 24.5701C48.7809 21.2507 47.5372 18.0599 46.2935 14.8692C46.1749 14.877 46.0563 14.8847 45.9377 14.8925C45.62 15.714 45.3024 16.5355 44.9764 17.5422Z" fill="white"/>
<path d="M196.256 35.0536C196.061 34.0372 196.246 33.4068 197.546 33.4238C198.496 33.4362 198.828 32.4609 198.839 31.6593C198.89 27.7499 198.885 23.8393 198.847 19.9297C198.837 18.8563 198.098 18.4129 197.049 18.6757C196.73 18.7555 196.395 18.7691 196.019 18.8196C195.792 17.857 195.846 17.3091 197.053 17.1575C198.851 16.9318 200.613 16.4318 202.395 16.0776C203.501 15.8578 204.034 16.2863 203.84 17.4643C203.798 17.7189 203.834 17.9863 203.834 18.4848C204.338 18.1461 204.738 17.9342 205.071 17.6457C207.39 15.6363 210.828 15.0722 213.555 16.9795C215.039 18.0177 215.515 19.6041 215.559 21.2702C215.645 24.4636 215.563 27.6611 215.603 30.8563C215.61 31.4541 215.753 32.1047 216.03 32.6263C216.228 32.9987 216.736 33.3932 217.14 33.4331C218.157 33.5337 218.575 33.8792 218.222 34.9752C215.052 35.0536 211.808 35.0536 208.458 34.9675C207.935 34.141 208.353 33.5382 208.97 33.537C210.543 33.5339 210.569 32.4256 210.589 31.4345C210.653 28.3485 210.697 25.2571 210.58 22.1742C210.513 20.4225 209.846 18.7067 207.373 18.9974C206.217 19.1333 203.867 20.7491 203.854 21.6644C203.806 24.9769 203.768 28.293 203.884 31.6021C203.914 32.4553 204.02 33.604 205.549 33.572C206.449 33.5532 206.359 34.384 206.093 35.0536C202.85 35.0536 199.606 35.0536 196.256 35.0536Z" fill="white"/>
<path d="M92.762 35.0538C92.5875 34.9053 92.5549 34.6645 92.4451 34.6216C89.696 33.5473 87.909 31.5826 87.1503 28.7516C85.8256 23.8083 87.9423 17.839 93.5445 16.2247C98.406 14.8238 103.912 16.9306 105.401 21.9572C106.618 26.0683 105.938 29.8888 102.726 32.9564C101.883 33.7619 100.753 34.2675 99.8209 34.9823C97.5474 35.0538 95.2076 35.0538 92.762 35.0538ZM92.6561 21.8764C92.6561 23.6077 92.4395 25.3745 92.7164 27.0603C92.9985 28.7775 93.7045 30.4388 94.3426 32.0788C94.7643 33.1625 95.8005 33.7231 96.8756 33.6476C98.1485 33.5582 98.9438 32.6755 99.4637 31.4487C100.485 29.0393 100.237 26.5139 100.023 24.0806C99.8703 22.3478 99.0957 20.5845 98.2563 19.0184C97.1637 16.9799 94.5119 17.152 93.4854 19.2188C93.1046 19.9858 92.9268 20.8536 92.6561 21.8764Z" fill="white"/>
<path d="M180.664 35.0538C180.361 34.8307 180.208 34.5125 179.96 34.3987C176.422 32.7699 174.986 29.9081 174.89 26.1355C174.813 23.0991 175.712 20.5382 177.89 18.3791C180.157 16.1306 182.956 15.5628 185.923 15.8928C188.732 16.2052 191.044 17.639 192.564 20.0828C193.921 22.2651 194.144 24.6847 193.753 27.1951C193.454 29.1173 192.767 30.866 191.395 32.2522C190.616 33.0398 189.67 33.6649 188.787 34.3471C188.507 34.5634 188.187 34.7276 187.95 34.9847C185.6 35.0538 183.185 35.0538 180.664 35.0538ZM186.421 32.9263C186.803 32.357 187.274 31.8274 187.552 31.2109C188.468 29.1817 188.415 26.9825 188.18 24.8733C187.982 23.1045 187.397 21.3325 186.701 19.6814C186.186 18.4598 185.197 17.4131 183.598 17.6652C182.248 17.878 181.592 18.8295 181.173 20.0621C180.249 22.7768 180.398 25.5155 180.895 28.2647C181.201 29.9622 181.706 31.5942 182.99 32.8465C184.011 33.8413 185.197 33.895 186.421 32.9263Z" fill="white"/>
<path d="M131.177 35.0537C130.874 34.8307 130.72 34.5268 130.475 34.3975C128.756 33.4942 127.879 32.1147 127.902 30.1539C127.924 28.3317 129.16 27.4624 130.525 26.6528C132.716 25.3539 135.152 24.7816 137.59 24.2066C137.946 24.1226 138.299 24.0286 138.837 23.8931C138.735 22.4665 138.735 20.9763 138.49 19.5279C138.315 18.4954 137.663 17.597 136.501 17.4544C135.377 17.3165 134.646 18.0931 134.066 18.912C133.72 19.4009 133.499 20.0121 133.35 20.6008C133.004 21.975 130.473 23.3157 129.358 22.5165C128.907 22.1937 128.633 21.2105 128.736 20.6056C129.08 18.585 130.722 17.5643 132.374 16.7948C134.986 15.5791 137.67 15.2625 140.475 16.4758C142.472 17.3396 143.667 19.0777 143.71 21.2205C143.771 24.2314 143.722 27.2444 143.727 30.2565C143.73 32.0865 144.555 32.6878 146.309 32.1526C146.905 32.8599 146.579 33.3339 145.885 33.6485C144.906 34.0924 143.905 34.4886 142.981 34.9795C142.363 35.0537 141.678 35.0537 140.955 34.9872C140.254 34.1814 139.59 33.4421 139.133 32.9325C138.398 33.5024 137.506 34.1951 136.619 34.8946C136.614 34.8985 136.685 34.9986 136.72 35.0537C134.908 35.0537 133.095 35.0537 131.177 35.0537ZM136.275 27.0228C135.64 27.369 134.865 27.589 134.409 28.096C133.934 28.6241 133.443 29.4743 133.531 30.1038C133.726 31.4968 134.511 32.0774 135.594 32.1161C136.897 32.1627 138.207 31.3422 138.492 30.0358C138.757 28.8251 138.741 27.5531 138.873 26.0242C137.882 26.3888 137.153 26.657 136.275 27.0228Z" fill="white"/>
<path d="M223.147 35.0537C223.006 34.9119 222.987 34.6522 222.935 34.6452C220.546 34.3291 220.259 32.5354 220.106 30.6485C220.085 30.3868 220.141 30.1152 220.097 29.8595C219.931 28.9089 220.3 28.3798 221.222 28.3177C221.885 29.3068 222.567 30.2826 223.205 31.2872C224.063 32.6401 225.365 33.4371 226.853 33.6146C227.563 33.6992 228.563 33.1459 229.083 32.5679C229.695 31.8864 229.591 30.8299 228.853 30.1659C227.904 29.3118 226.848 28.57 225.8 27.8351C224.55 26.959 223.143 26.2732 222.009 25.2726C219.206 22.799 220.087 18.7766 223.274 17.0765C226.244 15.4928 229.3 15.5642 232.417 16.5607C233.417 16.8803 233.517 17.7445 233.648 18.5568C233.782 19.3898 233.868 20.2412 233.852 21.0821C233.846 21.3715 233.518 21.7376 233.239 21.9036C233.1 21.9865 232.668 21.7622 232.49 21.5662C231.443 20.4086 230.513 19.1325 229.382 18.0678C228.533 17.2688 226.551 17.5128 225.918 18.2803C225.184 19.1694 225.316 20.6302 226.4 21.538C227.485 22.4457 228.664 23.2714 229.897 23.9644C231.65 24.9504 233.213 26.1207 234.5 27.6615C234.565 29.0326 234.565 30.4685 234.483 32.0106C233.397 33.1679 232.47 34.3192 230.972 34.7262C230.937 34.7356 230.956 34.9402 230.95 35.0537C228.384 35.0537 225.818 35.0537 223.147 35.0537Z" fill="white"/>
<path d="M74.4584 35.054C74.318 34.0908 74.4607 33.445 75.739 33.4212C76.8107 33.4013 77.0092 32.339 77.0505 31.444C77.1057 30.2447 77.0642 29.0409 77.0642 27.839C77.0642 21.9049 77.0642 15.9707 77.0641 10.0366C77.0641 7.91323 76.8357 7.70579 74.7665 7.93468C74.5878 7.95446 74.405 7.9373 74.199 7.9373C74.0167 7.02389 74.0528 6.45148 75.1985 6.3198C76.6723 6.1504 78.1202 5.75095 79.5756 5.43375C79.7014 5.40633 79.7999 5.25321 79.8434 5.07924C80.3859 5 80.996 5 81.7078 5C81.8849 5.84397 82.0237 6.6878 82.0256 7.53194C82.0425 15.1948 82.0289 22.8578 82.0473 30.5206C82.0489 31.1716 82.1549 31.839 82.324 32.4687C82.5543 33.3269 83.2823 33.6566 84.0823 33.6806C85.0721 33.7103 85.1353 34.1389 84.7478 34.9651C81.3529 35.054 77.9586 35.054 74.4584 35.054Z" fill="white"/>
<path d="M114.003 35.0537C113.763 34.8781 113.666 34.6252 113.488 34.5382C109.345 32.5113 107.888 28.3424 108.673 23.9678C109.185 21.11 110.474 18.7836 112.904 17.2088C116.207 15.0689 121.364 15.315 124.044 18.2359C124.666 18.9136 125.28 19.748 125.505 20.6125C126.089 22.8581 125.276 23.5749 123.125 23.2471C121.86 23.0542 120.731 22.566 120.603 20.8204C120.517 19.6537 119.887 18.4102 118.627 17.9001C116.671 17.1079 115.226 18.0716 114.422 19.8478C112.956 23.085 112.971 26.3967 115.048 29.4285C116.708 31.8512 119.956 33.2485 122.636 30.9797C123.145 30.549 123.482 29.9219 123.95 29.4351C124.21 29.1654 124.739 28.7477 124.866 28.8299C125.368 29.1557 125.911 29.531 125.512 30.3601C124.679 32.0914 123.632 33.5841 121.8 34.3847C121.511 34.5113 121.264 34.7358 121.063 34.9844C118.789 35.0537 116.449 35.0537 114.003 35.0537Z" fill="white"/>
<path d="M153.322 35.0534C153.183 34.9159 153.196 34.7024 153.111 34.652C150.824 33.2907 150.39 31.0045 150.308 28.6721C150.191 25.3372 150.279 21.9952 150.279 18.5576C149.689 18.5576 149.141 18.667 148.67 18.5246C148.258 18.4001 147.623 17.9791 147.635 17.7125C147.655 17.2321 147.973 16.5999 148.37 16.3374C149.015 15.9107 149.875 15.8214 150.551 15.4286C152.263 14.4343 153.028 12.7305 153.668 10.9626C153.857 10.4387 154.02 9.76419 154.734 10.0237C155.008 10.1233 155.214 10.765 155.227 11.1668C155.281 12.847 155.25 14.53 155.25 16.2934C157.016 16.2934 158.693 16.2934 160.36 16.2934C160.54 18.099 160.127 18.5565 158.399 18.5575C157.39 18.5581 156.38 18.5576 155.25 18.5576C155.25 21.5323 155.21 24.452 155.27 27.3696C155.293 28.5337 155.419 29.7231 155.706 30.848C156.143 32.5571 157.423 32.9666 158.894 31.9584C159.525 31.5258 160.093 31.0024 160.688 30.5218C161.583 31.5225 161.605 32.1302 160.611 33.1667C159.984 33.8209 159.215 34.3396 158.574 34.9863C156.902 35.0534 155.165 35.0534 153.322 35.0534Z" fill="white"/>
<path d="M162.587 35.0536C162.386 34.0333 162.585 33.444 163.872 33.4032C164.92 33.37 165.151 32.2344 165.165 31.3872C165.227 27.5922 165.222 23.7952 165.177 19.9996C165.16 18.542 164.385 18.0449 162.978 18.4126C162.704 18.484 162.425 18.5349 162.116 18.6025C161.901 17.6541 162.084 17.1177 163.065 16.9225C165.021 16.5333 166.949 16.0002 168.911 15.6515C169.674 15.5159 170.187 15.9315 170.18 16.8876C170.145 21.5478 170.164 26.2085 170.164 30.869C170.164 32.8335 170.391 33.1467 172.313 33.6937C173.068 33.9086 172.957 34.3731 172.803 34.9778C169.481 35.0536 166.087 35.0536 162.587 35.0536Z" fill="white"/>
<path d="M136.826 35.0539C136.685 34.9987 136.614 34.8986 136.619 34.8948C137.506 34.1952 138.399 33.5026 139.133 32.9326C139.59 33.4423 140.254 34.1816 140.853 34.9874C139.502 35.0539 138.217 35.0539 136.826 35.0539Z" fill="black"/>
<path d="M164.292 10.5751C164.363 8.10681 165.742 7.24673 167.264 7.04745C168.824 6.84303 170.021 7.65423 170.373 9.02681C170.73 10.4224 169.817 12.1831 168.477 12.6821C166.561 13.3955 165.13 12.7068 164.292 10.5751Z" fill="white"/>
</svg>
