<svg width="158" height="40" viewBox="0 0 158 40" fill="none" xmlns="http://www.w3.org/2000/svg">
<g clip-path="url(#clip0_382_2)">
<path d="M86.8591 30.3845C87.736 30.3814 88.5759 30.0305 89.1945 29.4089C89.813 28.7874 90.1598 27.9458 90.1588 27.0689C88.6171 27.7956 86.8811 28.0022 85.2119 27.6576C83.5427 27.3129 82.0305 26.4357 80.9026 25.1578C79.7748 23.8799 79.0924 22.2704 78.9579 20.5713C78.8234 18.8722 79.2442 17.1753 80.157 15.7359C81.0697 14.2965 82.4251 13.1923 84.0193 12.5894C85.6136 11.9865 87.3604 11.9174 88.9972 12.3926C90.6341 12.8678 92.0724 13.8616 93.0959 15.2245C94.1194 16.5874 94.6728 18.2457 94.6729 19.9501V27.0808C94.675 29.1603 93.8524 31.1558 92.3853 32.6296C90.9182 34.1034 88.9266 34.9352 86.8471 34.9426L86.8591 30.3845ZM83.5553 19.9381C83.5593 20.5897 83.7561 21.2255 84.1209 21.7655C84.4857 22.3054 85.0021 22.7252 85.6052 22.972C86.2082 23.2188 86.8708 23.2815 87.5095 23.1523C88.1481 23.0231 88.7342 22.7076 89.1939 22.2458C89.6535 21.7839 89.9661 21.1963 90.0923 20.557C90.2184 19.9178 90.1525 19.2555 89.9028 18.6536C89.6531 18.0518 89.2308 17.5373 88.6891 17.1751C88.1474 16.8129 87.5107 16.6192 86.8591 16.6184C85.9811 16.6216 85.1402 16.9729 84.5208 17.5952C83.9015 18.2176 83.5543 19.0601 83.5553 19.9381ZM111.096 19.9381C111.096 18.9104 111.298 17.8928 111.691 16.9433C112.085 15.9938 112.661 15.1311 113.388 14.4044C114.114 13.6777 114.977 13.1013 115.927 12.708C116.876 12.3147 117.894 12.1123 118.921 12.1123C119.949 12.1123 120.967 12.3147 121.916 12.708C122.866 13.1013 123.728 13.6777 124.455 14.4044C125.182 15.1311 125.758 15.9938 126.152 16.9433C126.545 17.8928 126.747 18.9104 126.747 19.9381V27.6401H122.237V19.9501C122.234 19.2984 122.038 18.6621 121.674 18.1217C121.309 17.5812 120.793 17.1608 120.19 16.9134C119.587 16.666 118.924 16.6027 118.285 16.7314C117.646 16.8602 117.06 17.1754 116.6 17.6371C116.14 18.0988 115.827 18.6864 115.7 19.3258C115.574 19.9651 115.64 20.6276 115.889 21.2297C116.139 21.8318 116.561 22.3465 117.103 22.7089C117.645 23.0712 118.282 23.265 118.933 23.2658C119.657 23.2654 120.36 23.0236 120.931 22.5787V27.5482C120.28 27.724 119.608 27.8126 118.933 27.8119C116.855 27.8034 114.864 26.9712 113.398 25.4975C111.932 24.0238 111.109 22.0289 111.112 19.9501L111.096 19.9381ZM46.887 19.9381C46.887 17.8626 47.7115 15.8721 49.1792 14.4044C50.6468 12.9368 52.6373 12.1123 54.7128 12.1123C56.7884 12.1123 58.7789 12.9368 60.2465 14.4044C61.7142 15.8721 62.5387 17.8626 62.5387 19.9381V27.6401H58.0166V19.9501C58.0134 19.2982 57.8172 18.6618 57.4527 18.1213C57.0882 17.5807 56.5718 17.1603 55.9686 16.913C55.3653 16.6657 54.7024 16.6026 54.0634 16.7317C53.4243 16.8609 52.8379 17.1764 52.378 17.6385C51.9181 18.1006 51.6054 18.6886 51.4794 19.3282C51.3534 19.9678 51.4197 20.6305 51.6699 21.2325C51.9201 21.8345 52.343 22.3489 52.8853 22.7108C53.4276 23.0727 54.0649 23.2658 54.7168 23.2658C55.4405 23.2648 56.1432 23.0231 56.7143 22.5787V27.5482C56.0629 27.7236 55.3913 27.8123 54.7168 27.8119C52.6377 27.8034 50.6466 26.9713 49.1798 25.4977C47.713 24.0241 46.89 22.0293 46.891 19.9501L46.887 19.9381ZM146.09 27.6481V18.7477C146.09 18.4707 146.036 18.1964 145.93 17.9405C145.824 17.6846 145.668 17.4521 145.472 17.2562C145.276 17.0603 145.044 16.905 144.788 16.799C144.532 16.693 144.258 16.6384 143.981 16.6384C143.704 16.6384 143.43 16.693 143.174 16.799C142.918 16.905 142.685 17.0603 142.489 17.2562C142.293 17.4521 142.138 17.6846 142.032 17.9405C141.926 18.1964 141.872 18.4707 141.872 18.7477V27.6601H137.349V18.7477C137.349 18.4707 137.295 18.1964 137.189 17.9405C137.083 17.6846 136.928 17.4521 136.732 17.2562C136.536 17.0603 136.303 16.905 136.047 16.799C135.791 16.693 135.517 16.6384 135.24 16.6384C134.963 16.6384 134.689 16.693 134.433 16.799C134.177 16.905 133.945 17.0603 133.749 17.2562C133.553 17.4521 133.397 17.6846 133.291 17.9405C133.185 18.1964 133.131 18.4707 133.131 18.7477V27.6601H128.609V18.7477C128.608 16.985 129.306 15.2937 130.549 14.0447C131.793 12.7956 133.481 12.0907 135.244 12.0843C136.855 12.0838 138.41 12.6736 139.614 13.7422C140.573 12.9028 141.754 12.3579 143.015 12.1729C144.276 11.9878 145.563 12.1704 146.723 12.6988C147.883 13.2272 148.865 14.079 149.553 15.1519C150.241 16.2248 150.604 17.4733 150.6 18.7477V27.6601L146.09 27.6481ZM105.019 27.6481V18.7477C105.019 18.4707 104.965 18.1964 104.859 17.9405C104.753 17.6846 104.598 17.4521 104.402 17.2562C104.206 17.0603 103.973 16.905 103.717 16.799C103.461 16.693 103.187 16.6384 102.91 16.6384C102.633 16.6384 102.359 16.693 102.103 16.799C101.847 16.905 101.615 17.0603 101.419 17.2562C101.223 17.4521 101.068 17.6846 100.962 17.9405C100.856 18.1964 100.801 18.4707 100.801 18.7477V27.6601H96.2708V7.78592H100.797V12.4319C101.476 12.2013 102.189 12.0839 102.906 12.0843C104.668 12.0917 106.355 12.7972 107.598 14.0461C108.841 15.295 109.539 16.9856 109.538 18.7477V27.6601L105.019 27.6481ZM73.1169 27.6481V18.7477C73.1293 18.4632 73.084 18.1792 72.9837 17.9127C72.8834 17.6463 72.7301 17.4029 72.5332 17.1972C72.3363 16.9916 72.0998 16.8279 71.838 16.7161C71.5762 16.6043 71.2944 16.5466 71.0097 16.5466C70.725 16.5466 70.4432 16.6043 70.1813 16.7161C69.9195 16.8279 69.683 16.9916 69.4861 17.1972C69.2892 17.4029 69.136 17.6463 69.0357 17.9127C68.9353 18.1792 68.89 18.4632 68.9024 18.7477V27.6601H64.3843V18.7477C64.3626 17.8629 64.5181 16.9827 64.8417 16.1589C65.1653 15.3351 65.6504 14.5843 66.2685 13.9509C66.8866 13.3174 67.6252 12.814 68.4409 12.4703C69.2565 12.1266 70.1326 11.9495 71.0177 11.9495C71.9027 11.9495 72.7789 12.1266 73.5945 12.4703C74.4101 12.814 75.1487 13.3174 75.7668 13.9509C76.3849 14.5843 76.87 15.3351 77.1936 16.1589C77.5172 16.9827 77.6728 17.8629 77.651 18.7477V27.6601L73.1169 27.6481ZM152.394 27.6481V12.8354H156.92V27.6601L152.394 27.6481ZM151.934 8.98836C151.933 8.26436 152.22 7.56953 152.731 7.05646C153.241 6.54339 153.935 6.25403 154.659 6.25192C155.201 6.24954 155.731 6.40802 156.182 6.70726C156.634 7.0065 156.987 7.43303 157.196 7.93284C157.405 8.43264 157.46 8.98322 157.356 9.51483C157.252 10.0464 156.992 10.5351 156.61 10.919C156.228 11.3029 155.74 11.5648 155.209 11.6713C154.678 11.7779 154.127 11.7244 153.627 11.5176C153.126 11.3109 152.698 10.9601 152.396 10.5099C152.095 10.0596 151.934 9.53009 151.934 8.98836ZM-0.00402026 19.998C-0.00402026 14.6937 2.10312 9.60664 5.85384 5.85591C9.60457 2.10518 14.6917 -0.00195312 19.996 -0.00195312C25.3003 -0.00195312 30.3874 2.10518 34.1381 5.85591C37.8888 9.60664 39.996 14.6937 39.996 19.998V38.1904L37.5991 37.747V19.998C37.5925 16.2834 36.4108 12.6661 34.2232 9.66389C32.0356 6.66171 28.9542 4.42863 25.4202 3.28429C21.8862 2.13995 18.0807 2.14304 14.5486 3.29312C11.0165 4.44319 7.93875 6.68129 5.75602 9.68701C3.57329 12.6927 2.39747 16.312 2.39689 20.0266C2.3963 23.7413 3.57098 27.3609 5.75277 30.3673C7.93455 33.3737 11.0116 35.6128 14.5433 36.764C18.0751 37.9152 21.8806 37.9195 25.4149 36.7762L29.6015 37.5752C26.5528 39.2412 23.1229 40.0848 19.6492 40.0228C16.1756 39.9609 12.7779 38.9956 9.79057 37.222C6.80322 35.4483 4.32911 32.9275 2.61173 29.9074C0.89435 26.8874 -0.00713771 23.4722 -0.00402026 19.998ZM33.9518 37.0679V19.998C33.9524 16.994 32.9855 14.0696 31.1942 11.658C29.4028 9.24642 26.8824 7.4759 24.0063 6.60869C21.1301 5.74148 18.0511 5.82368 15.2252 6.84313C12.3994 7.86257 9.97708 9.76504 8.317 12.2688C6.65691 14.7725 5.84737 17.7443 6.00826 20.7441C6.16915 23.7438 7.29192 26.612 9.21028 28.9238C11.1286 31.2356 13.7406 32.8681 16.6592 33.5794C19.5779 34.2908 22.648 34.0432 25.4149 32.8733V35.426C22.1407 36.5763 18.5854 36.6553 15.2633 35.6514C11.9413 34.6476 9.02461 32.613 6.93527 29.842C4.84594 27.071 3.69223 23.7072 3.64102 20.2371C3.58981 16.7671 4.64377 13.3707 6.65043 10.5392C8.65709 7.70775 11.5124 5.58801 14.8034 4.48658C18.0944 3.38516 21.6505 3.35918 24.9573 4.41238C28.264 5.46557 31.15 7.54334 33.1979 10.3452C35.2457 13.147 36.3492 16.5276 36.3487 19.998V37.5113L33.9518 37.0679ZM30.3565 36.3768V19.998C30.3546 17.7151 29.5954 15.4972 28.1978 13.692C26.8002 11.8869 24.8432 10.5964 22.6334 10.0228C20.4237 9.44918 18.0861 9.6249 15.9869 10.5224C13.8878 11.4199 12.1457 12.9885 11.0337 14.9823C9.92165 16.9762 9.50253 19.2826 9.84199 21.5402C10.1815 23.7978 11.2603 25.879 12.9095 27.4576C14.5587 29.0363 16.6851 30.0232 18.9553 30.2637C21.2256 30.5042 23.5115 29.9847 25.4549 28.7866V31.4911C22.9642 32.6736 20.1567 33.0151 17.4552 32.464C14.7536 31.913 12.3042 30.4994 10.4755 28.4359C8.64691 26.3724 7.53805 23.7707 7.31588 21.0225C7.09372 18.2743 7.77029 15.5283 9.24372 13.1978C10.7172 10.8674 12.9077 9.07862 15.4857 8.10081C18.0636 7.123 20.8895 7.00904 23.5378 7.77612C26.1861 8.54319 28.5136 10.1498 30.1699 12.354C31.8262 14.5583 32.7216 17.2409 32.7214 19.998V36.8362L30.3565 36.3768ZM26.7173 35.7016V19.998C26.7164 18.4038 26.1465 16.8623 25.11 15.651C24.0735 14.4397 22.6386 13.6383 21.0636 13.3911C19.4887 13.1438 17.8772 13.467 16.5195 14.3025C15.1617 15.1379 14.1468 16.4306 13.6575 17.9479C13.1683 19.4652 13.2368 21.1073 13.8508 22.5786C14.4649 24.0498 15.584 25.2535 17.0067 25.9728C18.4294 26.6922 20.0621 26.8799 21.611 26.5023C23.1598 26.1246 24.523 25.2064 25.4549 23.913V27.2726C23.8196 28.5027 21.8169 29.1447 19.7712 29.0945C17.7255 29.0443 15.7567 28.3049 14.1837 26.9961C12.6107 25.6872 11.5257 23.8856 11.1044 21.8832C10.6831 19.8807 10.9503 17.7946 11.8626 15.963C12.7749 14.1313 14.279 12.6613 16.131 11.7911C17.9831 10.9209 20.0747 10.7016 22.067 11.1685C24.0593 11.6355 25.8356 12.7615 27.1081 14.364C28.3806 15.9665 29.0748 17.9517 29.0782 19.998V36.157L26.7173 35.7016Z" fill="white"/>
</g>
<defs>
<clipPath id="clip0_382_2">
<rect width="157.387" height="40" fill="white"/>
</clipPath>
</defs>
</svg>
