<svg width="40" height="40" viewBox="0 0 40 40" fill="none" xmlns="http://www.w3.org/2000/svg">
<g clip-path="url(#clip0_382_40)">
<path d="M86.8631 30.3865C87.74 30.3833 88.5799 30.0325 89.1985 29.4109C89.8171 28.7893 90.1639 27.9478 90.1628 27.0708C88.6211 27.7976 86.8851 28.0042 85.2159 27.6595C83.5467 27.3149 82.0345 26.4377 80.9067 25.1597C79.7789 23.8818 79.0964 22.2723 78.9619 20.5732C78.8274 18.8741 79.2482 17.1773 80.161 15.7379C81.0737 14.2984 82.4292 13.1943 84.0234 12.5914C85.6176 11.9885 87.3644 11.9194 89.0013 12.3946C90.6381 12.8698 92.0764 13.8636 93.1 15.2264C94.1235 16.5893 94.6769 18.2476 94.6769 19.9521V27.0828C94.6791 29.1623 93.8564 31.1578 92.3893 32.6316C90.9223 34.1054 88.9306 34.9372 86.8511 34.9446L86.8631 30.3865ZM83.5594 19.9401C83.5633 20.5917 83.7601 21.2275 84.1249 21.7674C84.4897 22.3073 85.0062 22.7272 85.6092 22.974C86.2122 23.2208 86.8749 23.2835 87.5135 23.1543C88.1522 23.025 88.7383 22.7096 89.1979 22.2477C89.6575 21.7859 89.9702 21.1983 90.0963 20.559C90.2225 19.9197 90.1565 19.2574 89.9068 18.6556C89.6571 18.0537 89.2348 17.5393 88.6931 17.1771C88.1515 16.8149 87.5147 16.6212 86.8631 16.6204C85.9851 16.6236 85.1442 16.9748 84.5249 17.5972C83.9055 18.2195 83.5583 19.0621 83.5594 19.9401ZM111.1 19.9401C111.1 18.9124 111.302 17.8947 111.695 16.9453C112.089 15.9958 112.665 15.1331 113.392 14.4064C114.118 13.6797 114.981 13.1032 115.931 12.71C116.88 12.3167 117.898 12.1143 118.925 12.1143C119.953 12.1143 120.971 12.3167 121.92 12.71C122.87 13.1032 123.732 13.6797 124.459 14.4064C125.186 15.1331 125.762 15.9958 126.156 16.9453C126.549 17.8947 126.751 18.9124 126.751 19.9401V27.6421H122.241V19.9521C122.238 19.3003 122.042 18.6641 121.678 18.1236C121.313 17.5832 120.797 17.1627 120.194 16.9153C119.591 16.6679 118.928 16.6046 118.289 16.7334C117.65 16.8622 117.064 17.1773 116.604 17.639C116.144 18.1007 115.831 18.6883 115.704 19.3277C115.578 19.9671 115.644 20.6296 115.893 21.2317C116.143 21.8338 116.565 22.3485 117.107 22.7108C117.649 23.0732 118.286 23.267 118.937 23.2678C119.661 23.2674 120.364 23.0256 120.935 22.5807V27.5502C120.284 27.7259 119.612 27.8146 118.937 27.8138C116.859 27.8054 114.868 26.9731 113.402 25.4994C111.936 24.0257 111.113 22.0309 111.116 19.9521L111.1 19.9401ZM46.8911 19.9401C46.8911 17.8645 47.7156 15.874 49.1832 14.4064C50.6508 12.9388 52.6413 12.1143 54.7169 12.1143C56.7924 12.1143 58.783 12.9388 60.2506 14.4064C61.7182 15.874 62.5427 17.8645 62.5427 19.9401V27.6421H58.0206V19.9521C58.0174 19.3001 57.8212 18.6637 57.4567 18.1232C57.0922 17.5827 56.5758 17.1622 55.9726 16.9149C55.3694 16.6677 54.7064 16.6046 54.0674 16.7337C53.4284 16.8628 52.8419 17.1783 52.382 17.6404C51.9222 18.1025 51.6095 18.6905 51.4834 19.3302C51.3574 19.9698 51.4237 20.6324 51.6739 21.2345C51.9241 21.8365 52.347 22.3509 52.8893 22.7127C53.4316 23.0746 54.0689 23.2677 54.7209 23.2678C55.4445 23.2668 56.1472 23.025 56.7183 22.5807V27.5502C56.067 27.7256 55.3954 27.8142 54.7209 27.8138C52.6417 27.8054 50.6506 26.9732 49.1838 25.4997C47.717 24.0261 46.894 22.0312 46.8951 19.9521L46.8911 19.9401ZM146.094 27.6501V18.7496C146.094 18.4726 146.04 18.1984 145.934 17.9424C145.828 17.6865 145.672 17.454 145.476 17.2582C145.28 17.0623 145.048 16.9069 144.792 16.8009C144.536 16.6949 144.262 16.6404 143.985 16.6404C143.708 16.6404 143.434 16.6949 143.178 16.8009C142.922 16.9069 142.689 17.0623 142.493 17.2582C142.297 17.454 142.142 17.6865 142.036 17.9424C141.93 18.1984 141.876 18.4726 141.876 18.7496V27.662H137.353V18.7496C137.353 18.4726 137.299 18.1984 137.193 17.9424C137.087 17.6865 136.932 17.454 136.736 17.2582C136.54 17.0623 136.307 16.9069 136.051 16.8009C135.795 16.6949 135.521 16.6404 135.244 16.6404C134.967 16.6404 134.693 16.6949 134.437 16.8009C134.181 16.9069 133.949 17.0623 133.753 17.2582C133.557 17.454 133.402 17.6865 133.296 17.9424C133.19 18.1984 133.135 18.4726 133.135 18.7496V27.662H128.613V18.7496C128.612 16.9869 129.31 15.2957 130.553 14.0466C131.797 12.7976 133.485 12.0926 135.248 12.0863C136.859 12.0857 138.414 12.6756 139.619 13.7441C140.577 12.9048 141.758 12.3599 143.019 12.1748C144.28 11.9898 145.567 12.1724 146.727 12.7008C147.887 13.2292 148.869 14.0809 149.557 15.1538C150.245 16.2267 150.608 17.4752 150.604 18.7496V27.662L146.094 27.6501ZM105.023 27.6501V18.7496C105.023 18.4726 104.969 18.1984 104.863 17.9424C104.757 17.6865 104.602 17.454 104.406 17.2582C104.21 17.0623 103.977 16.9069 103.721 16.8009C103.465 16.6949 103.191 16.6404 102.914 16.6404C102.637 16.6404 102.363 16.6949 102.107 16.8009C101.851 16.9069 101.619 17.0623 101.423 17.2582C101.227 17.454 101.072 17.6865 100.966 17.9424C100.86 18.1984 100.805 18.4726 100.805 18.7496V27.662H96.2749V7.78787H100.801V12.4338C101.48 12.2032 102.193 12.0858 102.91 12.0863C104.672 12.0937 106.36 12.7991 107.602 14.048C108.845 15.297 109.543 16.9876 109.542 18.7496V27.662L105.023 27.6501ZM73.121 27.6501V18.7496C73.1333 18.4652 73.088 18.1812 72.9877 17.9147C72.8874 17.6482 72.7342 17.4048 72.5373 17.1992C72.3404 16.9935 72.1039 16.8299 71.842 16.7181C71.5802 16.6062 71.2984 16.5486 71.0137 16.5486C70.729 16.5486 70.4472 16.6062 70.1854 16.7181C69.9235 16.8299 69.687 16.9935 69.4901 17.1992C69.2932 17.4048 69.14 17.6482 69.0397 17.9147C68.9394 18.1812 68.894 18.4652 68.9064 18.7496V27.662H64.3883V18.7496C64.3666 17.8648 64.5221 16.9846 64.8457 16.1608C65.1693 15.337 65.6544 14.5863 66.2726 13.9528C66.8907 13.3194 67.6293 12.816 68.4449 12.4722C69.2605 12.1285 70.1366 11.9515 71.0217 11.9515C71.9068 11.9515 72.7829 12.1285 73.5985 12.4722C74.4141 12.816 75.1527 13.3194 75.7708 13.9528C76.3889 14.5863 76.8741 15.337 77.1977 16.1608C77.5213 16.9846 77.6768 17.8648 77.6551 18.7496V27.662L73.121 27.6501ZM152.398 27.6501V12.8373H156.924V27.662L152.398 27.6501ZM151.939 8.99032C151.937 8.26632 152.224 7.57148 152.735 7.05841C153.245 6.54535 153.939 6.25599 154.663 6.25387C155.205 6.2515 155.735 6.40997 156.187 6.70921C156.638 7.00845 156.991 7.43498 157.2 7.93479C157.409 8.4346 157.464 8.98517 157.36 9.51678C157.256 10.0484 156.996 10.5371 156.614 10.921C156.232 11.3049 155.744 11.5667 155.213 11.6733C154.682 11.7798 154.131 11.7263 153.631 11.5196C153.13 11.3128 152.702 10.9621 152.401 10.5118C152.099 10.0616 151.939 9.53204 151.939 8.99032ZM8.05796e-06 20C8.05796e-06 14.6957 2.10714 9.60859 5.85787 5.85786C9.6086 2.10714 14.6957 0 20 0C25.3043 0 30.3914 2.10714 34.1422 5.85786C37.8929 9.60859 40 14.6957 40 20V38.1923L37.6031 37.7489V20C37.5965 16.2853 36.4148 12.668 34.2272 9.66584C32.0396 6.66367 28.9582 4.43058 25.4242 3.28624C21.8902 2.14191 18.0848 2.14499 14.5526 3.29507C11.0205 4.44515 7.94278 6.68324 5.76005 9.68897C3.57732 12.6947 2.4015 16.3139 2.40092 20.0286C2.40033 23.7433 3.57501 27.3629 5.75679 30.3693C7.93858 33.3757 11.0156 35.6148 14.5474 36.766C18.0791 37.9171 21.8846 37.9214 25.419 36.7782L29.6055 37.5772C26.5568 39.2432 23.1269 40.0867 19.6533 40.0248C16.1796 39.9628 12.782 38.9976 9.7946 37.2239C6.80724 35.4503 4.33314 32.9294 2.61576 29.9094C0.898378 26.8893 -0.00310939 23.4742 8.05796e-06 20ZM33.9559 37.0698V20C33.9565 16.9959 32.9895 14.0715 31.1982 11.66C29.4069 9.24838 26.8865 7.47786 24.0103 6.61064C21.1341 5.74343 18.0551 5.82564 15.2293 6.84508C12.4035 7.86453 9.98111 9.767 8.32103 12.2707C6.66094 14.7744 5.8514 17.7463 6.01229 20.746C6.17317 23.7458 7.29595 26.614 9.21431 28.9258C11.1327 31.2376 13.7446 32.87 16.6632 33.5814C19.5819 34.2927 22.652 34.0451 25.419 32.8753V35.4279C22.1447 36.5783 18.5894 36.6572 15.2674 35.6534C11.9453 34.6496 9.02864 32.615 6.9393 29.844C4.84997 27.0729 3.69626 23.7091 3.64505 20.2391C3.59384 16.769 4.6478 13.3726 6.65446 10.5412C8.66112 7.7097 11.5164 5.58996 14.8075 4.48854C18.0985 3.38712 21.6545 3.36114 24.9613 4.41433C28.2681 5.46752 31.1541 7.54529 33.2019 10.3471C35.2497 13.1489 36.3532 16.5296 36.3528 20V37.5132L33.9559 37.0698ZM30.3605 36.3787V20C30.3587 17.717 29.5994 15.4992 28.2018 13.694C26.8042 11.8888 24.8472 10.5983 22.6375 10.0247C20.4277 9.45113 18.0901 9.62686 15.991 10.5244C13.8918 11.4219 12.1497 12.9905 11.0377 14.9843C9.92568 16.9781 9.50656 19.2846 9.84602 21.5422C10.1855 23.7998 11.2644 25.8809 12.9136 27.4596C14.5628 29.0382 16.6891 30.0251 18.9594 30.2656C21.2296 30.5061 23.5156 29.9867 25.4589 28.7886V31.4931C22.9682 32.6756 20.1608 33.017 17.4592 32.466C14.7577 31.915 12.3082 30.5013 10.4796 28.4378C8.65094 26.3743 7.54207 23.7726 7.31991 21.0244C7.09775 18.2762 7.77432 15.5302 9.24775 13.1998C10.7212 10.8693 12.9118 9.08057 15.4897 8.10276C18.0677 7.12495 20.8935 7.011 23.5418 7.77807C26.1901 8.54515 28.5176 10.1517 30.1739 12.356C31.8302 14.5602 32.7256 17.2428 32.7255 20V36.8381L30.3605 36.3787ZM26.7213 35.7036V20C26.7205 18.4058 26.1505 16.8642 25.114 15.653C24.0775 14.4417 22.6426 13.6403 21.0677 13.393C19.4927 13.1458 17.8813 13.469 16.5235 14.3044C15.1657 15.1398 14.1508 16.4326 13.6616 17.9499C13.1723 19.4672 13.2409 21.1093 13.8549 22.5805C14.4689 24.0517 15.588 25.2554 17.0107 25.9748C18.4334 26.6941 20.0662 26.8819 21.615 26.5042C23.1639 26.1266 24.527 25.2084 25.4589 23.9149V27.2746C23.8236 28.5047 21.8209 29.1466 19.7752 29.0965C17.7295 29.0463 15.7607 28.3068 14.1877 26.998C12.6147 25.6892 11.5297 23.8876 11.1084 21.8851C10.6872 19.8827 10.9543 17.7966 11.8666 15.9649C12.779 14.1332 14.283 12.6632 16.1351 11.7931C17.9871 10.9229 20.0787 10.7035 22.071 11.1705C24.0634 11.6375 25.8396 12.7634 27.1122 14.3659C28.3847 15.9685 29.0788 17.9537 29.0822 20V36.159L26.7213 35.7036Z" fill="black"/>
</g>
<defs>
<clipPath id="clip0_382_40">
<rect width="40" height="40" fill="white"/>
</clipPath>
</defs>
</svg>
