<svg width="40" height="40" viewBox="0 0 40 40" fill="none" xmlns="http://www.w3.org/2000/svg">
<path d="M32.0178 4.0232C36.4447 7.50637 39.2179 12.2846 39.9023 17.9093C39.9814 18.7498 39.9788 19.5869 39.975 20.4306C39.975 20.6238 39.9751 20.817 39.9751 21.016C39.9749 21.6485 39.9732 22.2809 39.9714 22.9133C39.971 23.3543 39.9707 23.7952 39.9705 24.2361C39.9696 25.3921 39.9674 26.548 39.9649 27.7039C39.9626 28.8853 39.9616 30.0667 39.9605 31.2481C39.958 33.5627 39.9542 35.8773 39.9495 38.1919C39.1335 38.0436 38.3175 37.8952 37.4768 37.7424C37.475 37.5251 37.4732 37.3078 37.4713 37.0839C37.4538 35.0208 37.434 32.9577 37.4122 30.8946C37.401 29.8343 37.3906 28.7741 37.382 27.7138C37.3736 26.6877 37.3631 25.6616 37.3514 24.6355C37.3472 24.247 37.3438 23.8585 37.3412 23.4699C37.2986 17.43 36.3746 12.2115 32.0819 7.6207C28.5433 4.21615 23.8931 2.75902 19.0635 2.83955C15.0062 2.99524 11.2414 4.67069 8.25429 7.39591C8.04913 7.5702 8.04913 7.5702 7.83983 7.74802C4.77412 10.5281 3.02328 14.9284 2.78736 18.9839C2.6106 23.9729 4.27425 28.3725 7.67827 32.0384C7.86835 32.2145 8.05844 32.3907 8.25429 32.5722C8.37773 32.6916 8.50117 32.811 8.62835 32.934C11.7798 35.865 15.9083 37.245 20.1681 37.2928C21.5255 37.2292 22.92 37.0868 24.2274 36.7097C25.9351 36.3524 27.9466 36.8701 29.6092 37.2928C27.9937 39.164 24.435 39.7618 22.0665 39.9613C16.4552 40.2571 11.1618 38.8781 6.82126 35.1432C4.1906 32.7005 2.23685 29.909 1.06105 26.5029C0.972676 26.2485 0.884297 25.9941 0.79324 25.732C-0.697648 20.7346 -0.00500887 15.4312 2.185 10.7677C4.57291 6.36413 8.32025 3.0334 13.0029 1.24232C13.1424 1.18866 13.2818 1.135 13.4255 1.07971C19.6137 -1.14446 26.7901 0.17954 32.0178 4.0232Z" fill="white"/>
<path d="M29.7757 6.78478C30.6078 7.45572 31.3493 8.19231 32.0819 8.96977C32.3344 9.23665 32.3344 9.23665 32.5921 9.50891C35.3706 12.7071 36.3987 16.8551 36.3784 21.007C36.3784 21.1871 36.3785 21.3671 36.3785 21.5527C36.3783 22.1401 36.3766 22.7275 36.3748 23.315C36.3744 23.7253 36.3741 24.1357 36.3739 24.5461C36.373 25.6203 36.3708 26.6946 36.3683 27.7689C36.366 28.8674 36.365 29.9659 36.3638 31.0645C36.3614 33.2156 36.3576 35.3668 36.3529 37.5179C35.4627 37.3696 34.5725 37.2212 33.6554 37.0683C33.6542 36.7155 33.6542 36.7155 33.6529 36.3556C33.6446 34.1269 33.6315 31.8983 33.6141 29.6697C33.6052 28.5243 33.598 27.3789 33.5945 26.2334C33.5911 25.1256 33.5833 24.018 33.5726 22.9102C33.5693 22.49 33.5675 22.0697 33.5673 21.6494C33.5632 17.1637 32.6739 13.5183 29.4836 10.1499C26.674 7.56057 23.0426 6.36645 19.2786 6.42685C15.5975 6.64186 12.6421 8.18776 10.0526 10.7681C9.92569 10.8898 9.79877 11.0115 9.66801 11.1369C7.4167 13.4954 6.46338 16.8932 6.35764 20.0687C6.4479 23.7241 7.82432 27.1466 10.3573 29.7961C13.7021 32.7703 17.2845 33.635 21.6549 33.5073C22.5449 33.4483 23.3548 33.2388 24.1932 32.9449C24.6639 32.7974 24.6639 32.7974 25.563 32.7974C25.563 33.6875 25.563 34.5777 25.563 35.4948C21.2165 36.7444 17.1612 36.7175 12.9749 34.8205C12.6593 34.6788 12.6593 34.6788 12.3374 34.5342C8.30818 32.5369 5.6895 28.7931 4.16947 24.6637C2.9826 20.3585 3.67328 15.6492 5.75879 11.7533C8.15227 7.90058 11.7864 5.1417 16.2213 4.05444C20.8755 3.07446 25.9096 3.9424 29.7757 6.78478Z" fill="white"/>
<path d="M28.1762 10.121C30.964 12.3993 32.3264 15.5797 32.7562 19.0845C32.834 20.458 32.8088 21.8355 32.8001 23.2106C32.7993 23.6052 32.7987 23.9998 32.7982 24.3944C32.7965 25.425 32.7921 26.4557 32.7871 27.4863C32.7825 28.5412 32.7804 29.5961 32.7782 30.651C32.7734 32.7149 32.7657 34.7788 32.7562 36.8428C31.421 36.6202 31.421 36.6202 30.0588 36.3932C30.0585 36.1687 30.0581 35.9443 30.0578 35.7131C30.054 33.5869 30.0444 31.4608 30.0291 29.3346C30.0214 28.2418 30.0157 27.1491 30.0148 26.0563C30.0138 24.9995 30.0074 23.9429 29.9973 22.8862C29.9944 22.4852 29.9934 22.0841 29.9945 21.6831C30.0016 18.0513 29.378 15.3309 26.7651 12.6314C24.6851 10.6983 22.0971 9.96331 19.3084 10.0235C16.7417 10.273 14.2361 11.3903 12.455 13.2821C10.5867 15.6865 9.80588 18.3301 10.0526 21.3323C10.573 24.1854 11.8552 26.5099 14.2094 28.2701C14.76 28.6157 15.3125 28.9161 15.8971 29.1999C16.0455 29.2762 16.1938 29.3524 16.3467 29.4309C18.4143 30.3072 21.3103 30.2102 23.3854 29.4388C23.6553 29.3175 23.6553 29.3175 23.9306 29.1938C24.4391 28.9752 24.4391 28.9752 25.563 28.7504C25.563 29.6405 25.563 30.5307 25.563 31.4478C22.3951 33.0318 18.9426 33.1989 15.588 32.0941C13.6912 31.3458 12.095 30.2663 10.727 28.7504C10.5444 28.5691 10.5444 28.5691 10.3582 28.3842C7.95747 25.8844 7.27117 22.814 7.28751 19.4732C7.32035 18.0595 7.50248 16.8094 8.02949 15.4878C8.11468 15.272 8.19988 15.0561 8.28765 14.8337C9.62631 11.8352 11.9674 9.53275 14.9892 8.23314C19.597 6.49132 24.1952 7.29222 28.1762 10.121Z" fill="white"/>
<path d="M25.2961 12.5233C27.3867 14.0177 28.5793 16.0818 29.0651 18.5904C29.2667 20.1228 29.2138 21.6737 29.2035 23.2165C29.2027 23.5913 29.2021 23.9661 29.2016 24.3409C29.1999 25.3202 29.1955 26.2994 29.1905 27.2787C29.1859 28.2808 29.1838 29.283 29.1816 30.2851C29.1768 32.2462 29.1691 34.2072 29.1596 36.1682C27.8244 35.9457 27.8244 35.9457 26.4622 35.7187C26.4609 35.4051 26.4609 35.4051 26.4597 35.0852C26.4511 33.1077 26.4383 31.1302 26.4208 29.1527C26.412 28.1363 26.4047 27.1198 26.4012 26.1033C26.3978 25.1209 26.3901 24.1386 26.3794 23.1563C26.3761 22.7829 26.3743 22.4096 26.3741 22.0363C26.3716 19.5978 26.3192 17.4183 24.6077 15.5158C23.1041 14.1448 21.4409 13.6004 19.4314 13.627C17.706 13.8028 16.1303 14.6263 14.9979 15.9373C13.7655 17.778 13.3892 19.4244 13.7291 21.6246C14.1867 23.3537 15.386 24.7586 16.8762 25.72C18.5864 26.5095 20.4922 26.6366 22.2711 26.0132C23.5179 25.4255 24.2652 24.8944 25.1134 23.8049C25.2618 23.8049 25.4102 23.8049 25.563 23.8049C25.563 24.9917 25.563 26.1786 25.563 27.4015C22.7234 28.9203 20.4675 29.6084 17.2704 28.8134C14.8222 28.0201 12.9796 26.4596 11.8017 24.1719C10.7551 21.8916 10.5027 19.2455 11.317 16.8364C12.3706 14.3805 14.3023 12.3812 16.7866 11.3721C19.7121 10.382 22.7157 10.9245 25.2961 12.5233Z" fill="white"/>
</svg>
