<svg width="107" height="32" viewBox="0 0 107 32" fill="none" xmlns="http://www.w3.org/2000/svg">
<path d="M17.0293 13.5846H23.9998V15.2153H17.4756L20.1973 25.1773L18.5893 25.6L15.7516 15.2153H9.048L6.21038 25.6L4.60228 25.1773L7.32397 15.2153H0.799805V13.5846H7.7703L10.608 3.19995L12.2138 3.62263L9.49214 13.5846H15.3075L12.5836 3.62263L14.1917 3.19995L17.0293 13.5846Z" fill="white"/>
<path fill-rule="evenodd" clip-rule="evenodd" d="M44.1401 17.9513H37.5856L35.9792 22.198H33.5998L39.4345 7.19995H42.3064L48.1412 22.198H45.7315L44.1401 17.9513ZM38.26 16.1271H43.4582L40.8818 9.21865H40.8364L38.26 16.1271Z" fill="white"/>
<path d="M59.0441 15.2898V22.1982H56.8543V15.6412C56.8543 13.7945 56.1495 12.8673 54.6416 12.8673C53.0655 12.8673 51.785 13.8093 51.785 16.5608V22.1907H49.595V11.3271H51.7698V13.4729H51.8152C52.1107 12.2318 53.217 11.0579 55.0736 11.0579C57.9379 11.0654 59.0441 12.9345 59.0441 15.2898Z" fill="white"/>
<path d="M62.6675 11.3345C63.235 12.8732 63.8045 14.3729 64.3739 15.8723C64.8918 17.2363 65.4097 18.5999 65.9258 19.9925H65.9486C66.4863 18.3659 67.0656 16.675 67.6515 14.9651L67.6518 14.9643L67.6523 14.963C68.0651 13.758 68.4816 12.5426 68.8887 11.3345H71.2074C70.1063 14.291 69.4326 16.0476 68.7456 17.8389L68.745 17.8403C68.0753 19.5863 67.3928 21.3658 66.2897 24.3214C65.797 25.6224 64.9711 26.4 63.4784 26.4H61.7961V24.6355H63.0085C63.9633 24.6355 64.1982 24.1345 64.5013 23.3719L64.8423 22.4672C63.8987 20.0918 62.9858 17.8434 62.085 15.6247C61.503 14.1912 60.9258 12.7695 60.3488 11.3345H62.6675Z" fill="white"/>
<path fill-rule="evenodd" clip-rule="evenodd" d="M71.547 16.7782C71.547 13.4811 73.843 11.0661 77.1468 11.0661C80.4278 11.0661 82.7238 13.4811 82.7238 16.7782C82.7238 20.0754 80.4278 22.468 77.1468 22.468C73.843 22.4755 71.547 20.0754 71.547 16.7782ZM80.5264 16.7782C80.5264 14.5502 79.1246 12.8531 77.1392 12.8531C75.1387 12.8531 73.7293 14.5577 73.7293 16.7782C73.7293 18.9839 75.1312 20.6885 77.1392 20.6885C79.1246 20.6885 80.5264 18.9839 80.5264 16.7782Z" fill="white"/>
<path d="M94.0105 15.2898V22.1982H91.8206V15.6412C91.8206 13.7945 91.1159 12.8673 89.608 12.8673C88.0318 12.8673 86.7587 13.8093 86.7587 16.5608V22.1907H84.5689V11.3271H86.7437V13.4729H86.7891C87.0846 12.2318 88.1909 11.0579 90.0475 11.0579C92.9042 11.0654 94.0105 12.9345 94.0105 15.2898Z" fill="white"/>
<path fill-rule="evenodd" clip-rule="evenodd" d="M106.38 17.3465H97.8402C97.9918 19.4698 99.3103 20.711 101.182 20.711C102.546 20.711 103.675 20.1876 104.054 18.9914H106.229C105.592 21.2418 103.713 22.4755 101.182 22.4755C97.9009 22.4755 95.7109 20.1428 95.7109 16.7185C95.7109 13.4437 98.0069 11.0661 101.159 11.0661C104.993 11.0661 106.357 14.0268 106.395 16.9727C106.403 17.0549 106.403 17.2194 106.38 17.3465ZM104.183 15.7316C104.016 13.9222 102.993 12.7932 101.159 12.7932C99.3103 12.7932 98.113 13.9671 97.8554 15.7316H104.183Z" fill="white"/>
</svg>
