<svg width="214" height="40" viewBox="0 0 214 40" fill="none" xmlns="http://www.w3.org/2000/svg">
<path d="M77.8604 8.37941C78.4665 8.37941 78.9645 8.57411 79.3543 8.96309C79.7441 9.35247 79.9388 9.86472 79.9388 10.499V29.2721C79.9388 29.8488 79.7441 30.3394 79.3543 30.7431C78.9645 31.1468 78.4665 31.3484 77.8604 31.3484C77.2543 31.3484 76.7636 31.1537 76.3885 30.7647C76.013 30.3753 75.8257 29.8778 75.8257 29.2721V28.1476C75.0751 29.157 74.0506 30.0149 72.7514 30.7215C71.4526 31.4276 70.0526 31.781 68.5518 31.781C66.589 31.781 64.8065 31.2766 63.2045 30.2668C61.6024 29.2578 60.3469 27.8521 59.4375 26.0496C58.5285 24.2472 58.0739 22.221 58.0739 19.9721C58.0739 17.7231 58.5285 15.697 59.4375 13.8945C60.3469 12.0921 61.5951 10.6864 63.1828 9.67696C64.7702 8.66758 66.5167 8.16309 68.4216 8.16309C69.9514 8.16309 71.373 8.48023 72.6865 9.11451C74 9.74921 75.0461 10.5566 75.8257 11.537V10.499C75.8257 9.89329 76.013 9.3888 76.3885 8.98472C76.7636 8.58105 77.2543 8.37941 77.8604 8.37941ZM69.0277 27.9745C70.3845 27.9745 71.5898 27.6284 72.6432 26.9366C73.6967 26.2443 74.5196 25.2925 75.111 24.0815C75.7028 22.8704 75.9988 21.5006 75.9988 19.9721C75.9988 18.4725 75.7028 17.117 75.111 15.9059C74.5196 14.6949 73.6967 13.7361 72.6432 13.0296C71.5898 12.3231 70.3845 11.9696 69.0277 11.9696C67.6714 11.9696 66.4661 12.3157 65.4126 13.008C64.3592 13.6998 63.5363 14.6517 62.9449 15.8627C62.353 17.0741 62.0571 18.4439 62.0571 19.9721C62.0571 21.5006 62.353 22.87 62.9449 24.0815C63.5363 25.2925 64.3592 26.2443 65.4126 26.9366C66.4661 27.6284 67.6714 27.9745 69.0277 27.9745ZM97.3441 8.16309C98.0947 8.16309 98.7441 8.35778 99.2926 8.74676C99.8412 9.13615 100.115 9.61941 100.115 10.1961C100.115 10.8884 99.9347 11.4145 99.5738 11.7749C99.213 12.1353 98.773 12.3157 98.2534 12.3157C97.9938 12.3157 97.6041 12.2292 97.0845 12.0561C96.4783 11.8545 96.002 11.7533 95.6555 11.7533C94.7608 11.7533 93.8877 12.0635 93.0363 12.6835C92.1845 13.3035 91.4918 14.1541 90.9579 15.2353C90.4241 16.317 90.1567 17.521 90.1567 18.8476V29.2721C90.1567 29.8488 89.962 30.3394 89.5722 30.7431C89.1828 31.1468 88.6849 31.3484 88.0787 31.3484C87.4726 31.3484 86.9816 31.1537 86.6065 30.7647C86.2314 30.3753 86.0436 29.8778 86.0436 29.2721V10.759C86.0436 10.1823 86.2383 9.69207 86.6281 9.28798C87.0179 8.88431 87.5012 8.68268 88.0787 8.68268C88.6849 8.68268 89.1828 8.88431 89.5722 9.28798C89.962 9.69207 90.1567 10.1819 90.1567 10.759V12.9651C90.7918 11.5521 91.7445 10.4059 93.0147 9.52594C94.2845 8.64635 95.7277 8.19207 97.3441 8.16309ZM122.24 8.37941C122.846 8.37941 123.344 8.57411 123.734 8.96309C124.124 9.35247 124.318 9.86472 124.318 10.499V29.5317C124.318 31.8676 123.82 33.8215 122.824 35.3929C121.829 36.9643 120.479 38.1255 118.776 38.8753C117.073 39.6251 115.154 39.9998 113.018 39.9998C111.863 39.9998 110.514 39.7978 108.969 39.3941C107.425 38.9904 106.437 38.5725 106.004 38.1398C105.109 37.6786 104.662 37.1019 104.662 36.4092C104.662 36.2366 104.719 36.0059 104.835 35.7174C105.152 34.9966 105.686 34.6357 106.437 34.6357C106.812 34.6357 107.216 34.7227 107.649 34.8957C109.958 35.7896 111.762 36.2366 113.061 36.2366C115.37 36.2366 117.138 35.6815 118.365 34.5712C119.592 33.461 120.205 31.9398 120.205 30.0076V27.6717C119.599 28.7966 118.582 29.7623 117.153 30.5696C115.724 31.3774 114.215 31.781 112.628 31.781C110.636 31.781 108.818 31.2766 107.173 30.2668C105.527 29.2578 104.235 27.8521 103.298 26.0496C102.36 24.2472 101.891 22.221 101.891 19.9721C101.891 17.7231 102.36 15.697 103.298 13.8945C104.235 12.0921 105.52 10.6864 107.151 9.67696C108.782 8.66758 110.579 8.16309 112.542 8.16309C114.129 8.16309 115.609 8.52349 116.98 9.24472C118.351 9.96553 119.426 10.8447 120.205 11.8831V10.499C120.205 9.89329 120.393 9.3888 120.768 8.98472C121.143 8.58105 121.634 8.37941 122.24 8.37941ZM113.104 27.9745C114.519 27.9745 115.774 27.6357 116.871 26.9582C117.968 26.2806 118.827 25.3288 119.447 24.1031C120.068 22.8774 120.378 21.5006 120.378 19.9725C120.378 18.4439 120.068 17.0737 119.447 15.8627C118.827 14.6517 117.968 13.6998 116.871 13.008C115.774 12.3157 114.519 11.9696 113.104 11.9696C111.719 11.9696 110.478 12.3157 109.381 13.008C108.284 13.6998 107.425 14.6586 106.804 15.8843C106.184 17.11 105.874 18.4725 105.874 19.9721C105.874 21.4717 106.184 22.8341 106.804 24.0598C107.425 25.2855 108.284 26.2443 109.381 26.9366C110.478 27.6284 111.719 27.9745 113.104 27.9745ZM151.033 20.0153C151.033 22.2643 150.527 24.2835 149.517 26.0712C148.507 27.859 147.129 29.2578 145.382 30.2672C143.636 31.2766 141.709 31.7815 139.602 31.7815C137.495 31.7815 135.568 31.2766 133.822 30.2672C132.076 29.2578 130.698 27.859 129.687 26.0712C128.677 24.2835 128.172 22.2647 128.172 20.0153C128.172 17.7664 128.677 15.7329 129.687 13.9161C130.698 12.0994 132.076 10.6864 133.822 9.67696C135.568 8.66758 137.495 8.16309 139.602 8.16309C141.709 8.16309 143.636 8.66758 145.382 9.67737C147.129 10.6864 148.507 12.0994 149.517 13.9161C150.527 15.7329 151.033 17.7659 151.033 20.0153ZM146.92 20.0153C146.92 18.4582 146.595 17.0668 145.945 15.841C145.296 14.6153 144.415 13.6639 143.304 12.9864C142.193 12.3088 140.959 11.97 139.602 11.97C138.246 11.97 137.011 12.3088 135.9 12.9864C134.789 13.6639 133.909 14.6153 133.259 15.841C132.61 17.0668 132.285 18.4582 132.285 20.0153C132.285 21.5439 132.61 22.9133 133.259 24.1247C133.909 25.3357 134.789 26.2802 135.9 26.9582C137.011 27.6357 138.246 27.9745 139.602 27.9745C140.959 27.9745 142.193 27.6357 143.304 26.9582C144.415 26.2806 145.296 25.3357 145.945 24.1247C146.595 22.9137 146.92 21.5439 146.92 20.0153ZM154.496 27.8015C154.237 27.3978 154.107 27.0084 154.107 26.6337C154.107 26.057 154.41 25.5668 155.016 25.1631C155.304 24.961 155.637 24.8602 156.012 24.8602C156.531 24.8602 157.008 25.0766 157.441 25.5092C158.307 26.4896 159.238 27.2247 160.233 27.7149C161.229 28.2051 162.42 28.4504 163.805 28.4504C164.902 28.4219 165.869 28.1688 166.706 27.6933C167.543 27.2174 167.962 26.4459 167.962 25.379C167.962 24.3986 167.536 23.6488 166.684 23.13C165.833 22.6108 164.584 22.1349 162.939 21.7023C161.323 21.2696 159.981 20.8157 158.913 20.3398C157.858 19.8739 156.93 19.1619 156.207 18.2635C155.471 17.3549 155.102 16.1655 155.102 14.6949C155.102 13.397 155.471 12.2582 156.207 11.2774C156.943 10.297 157.924 9.53288 159.151 8.98513C160.378 8.43696 161.713 8.16309 163.156 8.16309C164.541 8.16309 165.92 8.42268 167.291 8.94186C168.662 9.46064 169.78 10.2537 170.646 11.3206C170.993 11.7247 171.166 12.1427 171.166 12.5753C171.166 13.0366 170.935 13.4835 170.473 13.9161C170.184 14.1757 169.824 14.3055 169.391 14.3055C168.871 14.3055 168.453 14.1325 168.135 13.7864C167.529 13.0941 166.786 12.5606 165.905 12.1859C165.025 11.8108 164.051 11.6235 162.982 11.6235C161.886 11.6235 160.955 11.8472 160.19 12.2941C159.425 12.741 159.042 13.4982 159.042 14.5651C159.071 15.5745 159.512 16.3243 160.363 16.8141C161.215 17.3047 162.521 17.7802 164.282 18.2419C165.811 18.6459 167.082 19.0782 168.092 19.5398C169.102 20.001 169.953 20.6859 170.646 21.5941C171.339 22.5027 171.685 23.6921 171.685 25.1631C171.685 26.5182 171.295 27.6937 170.516 28.6884C169.737 29.6831 168.72 30.4476 167.464 30.9806C166.208 31.5145 164.873 31.781 163.459 31.781C161.64 31.781 159.959 31.4639 158.415 30.8296C156.871 30.1949 155.564 29.1855 154.496 27.8015ZM194.086 31.8027C188.046 31.8027 184.928 27.5851 184.928 22.0374V17.95C184.928 12.4023 188.046 8.18472 194.086 8.18472C199.216 8.18472 202.464 11.6884 202.853 15.8737H201.327C200.872 12.4345 198.437 9.51451 194.053 9.51451C189.052 9.51451 186.52 13.0835 186.52 17.9174V22.07C186.52 26.9039 189.052 30.4725 194.053 30.4725C198.437 30.4725 200.872 27.5529 201.327 24.1141H202.853C202.464 28.299 199.216 31.8027 194.086 31.8027ZM208.438 31.8366V8.18472H210.03V31.8366H208.438Z" fill="white"/>
<path fill-rule="evenodd" clip-rule="evenodd" d="M0 19.9579C7.0898 10.4616 14.7331 5.71387 22.9306 5.71387C31.1286 5.71387 38.7371 10.4616 45.7571 19.9579C38.7371 29.5094 31.1286 34.2853 22.931 34.2853C14.7331 34.2853 7.08939 29.5098 0 19.9579Z" fill="white"/>
<path fill-rule="evenodd" clip-rule="evenodd" d="M23.0428 31.8904C29.6608 31.8904 35.0265 26.5475 35.0265 19.9569C35.0265 13.3667 29.6608 8.02344 23.0428 8.02344C16.4245 8.02344 11.0592 13.3663 11.0592 19.9569C11.0592 21.8018 10.6796 30.0471 11.6796 27.8896C12.6796 25.732 12.8134 25.1822 13.4449 25.9369C15.6432 28.5634 19.3408 31.8904 23.0428 31.8904Z" fill="black"/>
<path d="M23.0506 28.1269C27.5784 28.1269 31.249 24.4693 31.249 19.9575C31.249 15.4456 27.5784 11.7881 23.0506 11.7881C18.5224 11.7881 14.8522 15.4456 14.8522 19.9575C14.8522 24.4693 18.5224 28.1269 23.0506 28.1269Z" fill="white"/>
<path fill-rule="evenodd" clip-rule="evenodd" d="M26.1551 27.529C30.3592 25.8372 32.3902 21.0702 30.6914 16.8825C30.6914 25.371 21.4637 27.1086 18.2926 23.9474C15.1212 20.7861 15.6061 14.1784 20.0045 12.3633C15.8004 14.0551 13.769 18.8221 15.4682 23.0098C17.1661 27.1976 21.9514 29.2212 26.1551 27.529Z" fill="#1B357A"/>
<path fill-rule="evenodd" clip-rule="evenodd" d="M26.1208 26.5424C29.6241 25.1734 32.1519 20.5444 30.4531 16.3566C30.4531 24.8448 23.46 25.6881 20.2886 22.5273C17.1172 19.366 18.5882 13.9966 20.9837 12.4521C16.7796 14.1444 14.7462 18.3395 16.4445 22.5268C18.1429 26.715 22.6176 27.9109 26.1208 26.5424Z" fill="white"/>
</svg>
