<svg width="266" height="40" viewBox="0 0 266 40" fill="none" xmlns="http://www.w3.org/2000/svg">
<g clip-path="url(#clip0_335_231)">
<mask id="mask0_335_231" style="mask-type:luminance" maskUnits="userSpaceOnUse" x="0" y="0" width="266" height="40">
<path d="M265.235 0H0V40H265.235V0Z" fill="white"/>
</mask>
<g mask="url(#mask0_335_231)">
<path d="M76.7232 19.7988C80.0002 21.6868 81.6389 24.5365 81.6389 28.3478C81.6389 31.5182 80.5168 34.1185 78.2727 36.1488C76.0287 38.1792 73.2679 39.1945 69.9908 39.1945H54.1216V1.79241H68.8687C72.0746 1.79241 74.764 2.78978 76.9369 4.78457C79.1455 6.74371 80.2496 9.25501 80.2496 12.3184C80.2496 15.4175 79.0741 17.911 76.7232 19.7988ZM68.8687 8.68508H61.4953V16.9134H68.8687C70.0086 16.9134 70.9525 16.5217 71.7006 15.7381C72.4843 14.9544 72.8762 13.9748 72.8762 12.7993C72.8762 11.6238 72.502 10.6442 71.7541 9.86057C71.0061 9.07689 70.0443 8.68508 68.8687 8.68508ZM69.9908 32.3019C71.2376 32.3019 72.2706 31.8922 73.0899 31.0729C73.9092 30.2181 74.3189 29.1494 74.3189 27.867C74.3189 26.6202 73.9092 25.5872 73.0899 24.7679C72.2706 23.9131 71.2376 23.4855 69.9908 23.4855H61.4953V32.3019H69.9908ZM106.874 12.4787H113.766V39.1945H106.874V36.042C104.807 38.6423 101.904 39.9424 98.1643 39.9424C94.6021 39.9424 91.5388 38.5888 88.9739 35.8817C86.4451 33.1389 85.1804 29.7904 85.1804 25.8366C85.1804 21.8825 86.4451 18.5521 88.9739 15.8449C91.5388 13.1021 94.6021 11.7307 98.1643 11.7307C101.904 11.7307 104.807 13.0308 106.874 15.6313V12.4787ZM94.157 31.2866C95.546 32.6758 97.3092 33.3703 99.4467 33.3703C101.584 33.3703 103.347 32.6758 104.736 31.2866C106.161 29.8619 106.874 28.0452 106.874 25.8366C106.874 23.628 106.161 21.8291 104.736 20.4401C103.347 19.0151 101.584 18.3027 99.4467 18.3027C97.3092 18.3027 95.546 19.0151 94.157 20.4401C92.7678 21.8291 92.073 23.628 92.073 25.8366C92.073 28.0452 92.7678 29.8619 94.157 31.2866ZM126.166 20.0659C126.166 20.7784 126.629 21.366 127.555 21.8291C128.517 22.2568 129.675 22.6484 131.028 23.0047C132.382 23.3252 133.736 23.7529 135.089 24.2871C136.443 24.7859 137.583 25.6406 138.509 26.8519C139.471 28.0629 139.951 29.5768 139.951 31.3934C139.951 34.1362 138.918 36.2557 136.852 37.7518C134.822 39.2122 132.275 39.9424 129.212 39.9424C123.726 39.9424 119.986 37.8232 117.991 33.5843L123.976 30.2181C124.759 32.5333 126.505 33.6911 129.212 33.6911C131.669 33.6911 132.898 32.9252 132.898 31.3934C132.898 30.6809 132.418 30.111 131.456 29.6836C130.53 29.2205 129.39 28.8108 128.036 28.4546C126.683 28.0986 125.329 27.6533 123.976 27.119C122.622 26.5845 121.464 25.7475 120.503 24.6076C119.576 23.4321 119.113 21.9717 119.113 20.2262C119.113 17.5904 120.075 15.5243 121.998 14.0282C123.958 12.4965 126.38 11.7307 129.265 11.7307C131.438 11.7307 133.415 12.2294 135.196 13.2267C136.977 14.1885 138.384 15.5778 139.417 17.3945L133.54 20.6004C132.685 18.7837 131.26 17.8753 129.265 17.8753C128.375 17.8753 127.627 18.0713 127.021 18.4629C126.451 18.8549 126.166 19.3891 126.166 20.0659ZM149.843 28.6686C150.769 32.0168 153.281 33.6911 157.377 33.6911C160.013 33.6911 162.007 32.8004 163.361 31.0194L168.918 34.2253C166.282 38.0369 162.399 39.9424 157.27 39.9424C152.853 39.9424 149.309 38.6068 146.637 35.9351C143.966 33.2635 142.63 29.8973 142.63 25.8366C142.63 21.8114 143.948 18.4629 146.584 15.7915C149.22 13.0843 152.604 11.7307 156.736 11.7307C160.654 11.7307 163.878 13.0843 166.407 15.7915C168.972 18.4986 170.254 21.8471 170.254 25.8366C170.254 26.7271 170.165 27.671 169.987 28.6686H149.843ZM149.736 23.3252H163.361C162.969 21.5086 162.15 20.155 160.903 19.2645C159.692 18.3741 158.303 17.9287 156.736 17.9287C154.883 17.9287 153.352 18.4095 152.141 19.3714C150.929 20.2976 150.128 21.6154 149.736 23.3252ZM204.104 12.4787H211.424L202.929 39.1945H196.356L191.441 23.0047L186.525 39.1945H179.953L171.457 12.4787H178.777L183.319 28.8823L188.181 12.4787H194.7L199.562 28.9357L204.104 12.4787ZM219.92 28.6686C220.846 32.0168 223.357 33.6911 227.454 33.6911C230.089 33.6911 232.084 32.8004 233.438 31.0194L238.995 34.2253C236.359 38.0369 232.476 39.9424 227.347 39.9424C222.93 39.9424 219.385 38.6068 216.714 35.9351C214.042 33.2635 212.707 29.8973 212.707 25.8366C212.707 21.8114 214.024 18.4629 216.66 15.7915C219.296 13.0843 222.68 11.7307 226.812 11.7307C230.731 11.7307 233.954 13.0843 236.483 15.7915C239.048 18.4986 240.33 21.8471 240.33 25.8366C240.33 26.7271 240.242 27.671 240.063 28.6686H219.92ZM219.813 23.3252H233.438C233.046 21.5086 232.227 20.155 230.98 19.2645C229.769 18.3741 228.38 17.9287 226.812 17.9287C224.96 17.9287 223.428 18.4095 222.217 19.3714C221.006 20.2976 220.205 21.6154 219.813 23.3252ZM245.142 39.1945V0.189453H252.035V39.1945H245.142ZM258.344 39.1945V0.189453H265.236V39.1945H258.344Z" fill="white"/>
<path fill-rule="evenodd" clip-rule="evenodd" d="M22.1359 2.14746C16.4034 2.14746 11.7563 6.79452 11.7563 12.527V17.1104H10.3795C4.64709 17.1104 0 21.7577 0 27.49V39.3386H20.0245C26.1626 39.3386 31.1385 34.3628 31.1385 28.2245C31.1385 26.8715 30.8969 25.5748 30.454 24.3757H31.7809C37.9189 24.3757 42.895 19.3995 42.895 13.2616C42.895 7.12341 37.9189 2.14746 31.7809 2.14746H22.1359ZM30.454 24.3757C28.8883 20.1346 24.8096 17.1104 20.0245 17.1104H11.7563V24.3757H30.454Z" fill="white"/>
</g>
</g>
<defs>
<clipPath id="clip0_335_231">
<rect width="265.235" height="40" fill="white"/>
</clipPath>
</defs>
</svg>
