<svg width="283" height="40" viewBox="0 0 283 40" fill="none" xmlns="http://www.w3.org/2000/svg">
<g clip-path="url(#clip0_414_19)">
<path d="M9.355 15.0863V0H0V39.1838H9.11V32.13C10.0413 37.225 13.225 39.7713 18.6612 39.7713C27.82 39.7713 29.8775 37.5675 29.8775 26.645V22.3825C29.8775 11.4125 27.8688 9.2575 19.1513 9.2575C13.2737 9.2575 10.4325 10.53 9.355 15.0863ZM9.405 28.8488V21.2575C9.64875 18.6125 11.3638 17.3388 14.6938 17.3388C19.2 17.3388 20.0325 18.3188 20.0325 22.6775V26.4488C20.0325 30.7113 19.2 31.69 14.695 31.69C11.4125 31.69 9.6975 30.71 9.40375 28.8488H9.405ZM33.0125 30.7113C33.0125 38.645 34.775 40.065 44.375 39.7713C48.98 39.7225 52.2612 37.91 53.535 33.9925V39.1838H62.8412V19.3963C62.8412 10.825 60.7837 9.2575 49.8612 9.2575H47.6075C36.1475 9.2575 33.9925 10.775 33.9925 18.8575V20.0325H43.2975C43.2 16.6525 44.0325 16.065 48.6363 16.065C52.7513 16.065 53.535 16.6525 53.535 20.0325V21.6975L44.2287 21.7475C34.775 21.7475 33.0125 23.1688 33.0125 30.7113ZM42.8075 30.8088C42.8075 28.9963 43.2975 28.6538 45.845 28.6538L53.535 28.6038V29.8775C53.535 32.18 51.9675 33.0613 47.8525 33.1588H47.3637C43.5425 33.1588 42.8075 32.7675 42.8075 30.8088ZM65.975 30.025C65.975 38.2038 68.0325 39.7713 78.8088 39.7713H81.0612C93.4037 39.7713 95.6575 38.4 95.6575 31.3463C95.6575 26.8413 94.5313 24.1463 89.8775 22.775C87.3313 22.0413 85.0775 21.4538 80.2775 20.67C77.0938 20.18 76.2125 19.5913 76.2125 18.3675C76.2125 16.555 77.1925 16.065 80.8162 16.065C84.5875 16.065 85.6162 16.7513 85.6162 19.1513V20.0325H94.9225V19.1513C94.9225 10.7763 92.865 9.2575 81.9425 9.2575H79.69C68.5712 9.2575 66.4162 10.58 66.4162 18.0738C66.4162 21.9913 67.445 24.1963 71.4612 25.7638C74.4 26.8888 78.8575 27.5763 80.5713 27.9188C84.8813 28.7025 85.91 29.4863 85.91 30.6613C85.91 32.4238 84.7838 32.9138 80.5725 32.9138C76.0163 32.9138 74.7925 32.2775 74.7925 30.025V29.3875H65.975V30.025ZM98.4975 24.5388C98.4975 37.3713 100.751 39.7713 112.751 39.7713H115.004C126.906 39.7713 129.11 38.2038 129.11 29.8775H119.314C119.314 32.375 118.481 32.915 113.926 32.915C109.176 32.915 108.294 32.0813 108.294 27.82V27.6738H129.355V23.07C129.355 11.4125 127.102 9.2575 115.005 9.2575H112.75C100.75 9.2575 98.4975 11.6075 98.4975 24.5388ZM108.294 20.7675V20.62C108.294 16.8 109.175 16.065 113.926 16.065C118.53 16.065 119.51 16.8 119.559 20.7675H108.294ZM133.47 39.1838H142.775V22.1875C142.775 18.7588 144.391 17.045 147.625 17.045C151.347 17.045 152.081 17.78 152.081 21.6V39.1838H161.339L161.29 21.8938C161.387 18.6613 163.004 17.0438 166.139 17.0438C169.861 17.0438 170.497 17.78 170.497 21.6V39.1838H179.804L179.755 20.18C179.755 10.9712 178.09 9.2575 169.126 9.2575C164.18 9.2575 161.191 11.3638 160.114 16.0163C159.723 10.4325 158.106 9.2575 150.661 9.2575C146.302 9.2575 143.804 11.02 142.775 15.4288V9.845H133.47V39.1838ZM183.429 24.5388C183.429 37.3713 185.681 39.7713 197.731 39.7713H199.984C211.787 39.7713 213.991 38.2038 213.991 29.8775H204.245C204.245 32.375 203.413 32.915 198.906 32.915C194.058 32.915 193.175 32.0813 193.175 27.82V27.6738H214.236V23.07C214.236 11.4125 211.984 9.2575 199.984 9.2575H197.731C185.681 9.2575 183.429 11.6075 183.429 24.5388ZM193.175 20.7675V20.62C193.175 16.8 194.058 16.065 198.906 16.065C203.461 16.065 204.441 16.8 204.49 20.7675H193.175ZM218.302 39.1838H227.609V21.6975C227.658 18.5638 229.371 17.045 232.751 17.045C237.061 17.045 237.845 17.8775 237.845 22.3825V39.1825H247.151L247.103 20.18C247.103 10.9712 245.486 9.2575 236.964 9.2575C231.575 9.2575 228.735 11.02 227.609 15.7713V9.845H218.302V39.1838ZM249.551 17.6338H252.441V29.3388C252.441 37.6163 254.351 39.1838 264.196 39.1838H270.564V30.8575H265.175C262.286 30.8575 261.747 30.3675 261.747 27.9188V17.6325H270.123V9.845H261.747V3.525H252.931V9.84375H249.551V17.6313V17.6338ZM274.09 39.1838H282.465V30.8575H274.09V39.1838Z" fill="white"/>
</g>
<defs>
<clipPath id="clip0_414_19">
<rect width="282.5" height="40" fill="white"/>
</clipPath>
</defs>
</svg>
