<svg width="260" height="40" viewBox="0 0 260 40" fill="none" xmlns="http://www.w3.org/2000/svg">
<path d="M0 1.91253H14.886C17.607 1.75247 20.3282 2.5528 22.409 4.3135C24.1697 6.07421 25.1301 8.63522 24.9699 11.1962C24.9699 12.7969 24.6499 14.3975 24.0095 15.678C23.3693 16.9585 22.249 17.9189 20.9684 18.7193C22.0888 18.8793 23.3693 19.3596 24.3297 19.8398C25.2901 20.32 25.9303 20.9602 26.5707 21.7605C27.2109 22.5607 27.531 23.3611 27.8512 24.3215C28.1712 25.2819 28.1712 26.4022 28.1712 27.3626C28.1712 28.9634 27.8512 30.404 27.2109 31.8445C26.5707 33.1251 25.7703 34.2455 24.6499 35.2059C23.5293 36.1662 22.249 36.8064 20.8084 37.1266C19.0476 37.6068 17.447 37.7668 15.6863 37.7668H0.160062L0 1.91253ZM9.44377 16.1582H12.1649C15.046 16.1582 16.6466 15.0378 16.6466 12.6368C16.6466 10.2359 15.2061 9.11543 12.1649 9.11543H9.44377V16.1582ZM9.44377 30.724H12.485C14.2457 30.8841 16.0064 30.564 17.607 29.7636C19.2076 28.6432 19.6878 26.4022 18.4074 24.8017C18.2473 24.4815 17.9272 24.1615 17.607 24.0013C16.0064 23.2011 14.2457 23.0409 12.485 23.0409H9.44377V30.724ZM67.387 9.91573H51.5406V15.9982H66.9067V24.0013H51.5406V30.244H67.387V38.247H42.0968V1.91253H67.387V9.91573ZM91.7168 23.5211L78.5914 1.91253H89.796L96.5187 13.5972L103.241 1.91253H114.446L101 23.5211V37.927H91.7168V23.5211ZM120.208 19.9998C120.208 17.4387 120.688 14.8777 121.649 12.4768C123.57 7.83489 127.411 4.15343 132.053 2.39272C137.175 0.471958 142.937 0.471958 148.219 2.39272C150.62 3.3531 152.861 4.63362 154.622 6.39432C156.382 8.15503 157.823 10.2359 158.623 12.4768C160.544 17.2787 160.544 22.7209 158.623 27.5228C157.663 29.7636 156.222 31.8445 154.462 33.6053C152.701 35.3659 150.46 36.8064 148.059 37.6068C142.937 39.5276 137.175 39.5276 131.893 37.6068C129.492 36.6464 127.411 35.3659 125.65 33.6053C123.89 31.8445 122.449 29.7636 121.489 27.5228C120.688 25.1219 120.208 22.5607 120.208 19.9998ZM129.972 19.9998C129.972 21.4403 130.292 22.7209 130.772 24.0013C131.733 26.4022 133.814 28.3232 136.214 29.2836C140.056 30.8841 144.378 29.9238 147.259 27.2026C148.219 26.2422 149.02 25.2819 149.5 24.0013C150.62 21.4403 150.62 18.5592 149.5 15.9982C149.02 14.7177 148.219 13.7573 147.259 12.7969C144.218 10.0758 140.056 9.27548 136.214 10.7161C133.814 11.6764 131.893 13.5972 130.772 16.1582C130.292 17.2787 129.972 18.5592 129.972 19.9998ZM172.389 38.087V1.91253H181.833L199.12 24.0013V1.91253H208.404V37.927H199.12L181.833 15.9982V38.087H172.389ZM233.373 16.7985L244.737 1.91253H256.263L242.017 19.0394L257.703 38.087H245.539L233.373 22.4007V38.087H223.93V1.91253H233.373V16.7985Z" fill="white"/>
</svg>
