<svg width="133" height="40" viewBox="0 0 133 40" fill="none" xmlns="http://www.w3.org/2000/svg">
<g clip-path="url(#clip0_2_292)">
<path d="M50.1115 22.7V27.0067H54.2329C54.4874 27.0067 54.7454 26.9595 55.007 26.865C55.2687 26.7632 55.5049 26.6215 55.7158 26.4398C55.9265 26.2508 56.0973 26.0254 56.2282 25.7638C56.359 25.4948 56.4244 25.1896 56.4244 24.848C56.4244 24.5354 56.3663 24.2483 56.25 23.9866C56.1337 23.7249 55.9774 23.4996 55.7811 23.3106C55.5849 23.1143 55.3523 22.9653 55.0833 22.8636C54.8217 22.7545 54.5418 22.7 54.2438 22.7H50.1115ZM53.7205 16.7033C53.7205 16.7033 52.5175 16.7033 50.1115 16.7033V20.6175H53.7205C53.9676 20.6175 54.2038 20.5702 54.4291 20.4758C54.6618 20.374 54.8653 20.2396 55.0398 20.0724C55.2215 19.8979 55.3632 19.6907 55.465 19.4509C55.574 19.2111 55.6285 18.9494 55.6285 18.6658C55.6285 18.3897 55.574 18.1316 55.465 17.8917C55.3632 17.6519 55.2215 17.4447 55.0398 17.2702C54.8653 17.0958 54.6618 16.9578 54.4291 16.856C54.2038 16.7542 53.9676 16.7033 53.7205 16.7033ZM54.4946 29.2746H47.4076V14.4464H53.8731C54.5491 14.4464 55.1634 14.5409 55.7158 14.7298C56.2754 14.9116 56.7515 15.1769 57.144 15.5258C57.5438 15.8747 57.8527 16.2963 58.0708 16.7906C58.2889 17.2848 58.3979 17.8445 58.3979 18.4696C58.3979 18.7967 58.347 19.1129 58.2452 19.4182C58.1508 19.7235 58.0162 20.007 57.8418 20.2686C57.6747 20.5303 57.4748 20.7629 57.2422 20.9664C57.0168 21.1627 56.7733 21.3153 56.5117 21.4244C56.8824 21.5406 57.2313 21.7151 57.5584 21.9477C57.8927 22.173 58.1834 22.4383 58.4306 22.7436C58.6777 23.0489 58.874 23.3906 59.0193 23.7685C59.1647 24.1465 59.2375 24.5427 59.2375 24.9569C59.2375 25.6983 59.1029 26.3417 58.834 26.8868C58.5651 27.4247 58.2089 27.8717 57.7656 28.2279C57.3221 28.5768 56.8133 28.8385 56.2391 29.0129C55.6721 29.1874 55.0906 29.2746 54.4946 29.2746Z" fill="white"/>
<path d="M60.2414 23.6704C60.2414 22.849 60.394 22.0786 60.6994 21.3589C61.0046 20.6321 61.4298 19.9997 61.9749 19.4618C62.5274 18.9239 63.1816 18.4987 63.9376 18.1862C64.6935 17.8736 65.5185 17.7173 66.4126 17.7173C67.3139 17.7173 68.1425 17.8736 68.8985 18.1862C69.6616 18.4987 70.3158 18.9239 70.861 19.4618C71.4134 19.9997 71.8423 20.6321 72.1476 21.3589C72.4601 22.0786 72.6164 22.849 72.6164 23.6704C72.6164 24.4991 72.4638 25.2731 72.1585 25.9928C71.8531 26.7124 71.4243 27.3411 70.8719 27.879C70.3195 28.4169 69.6616 28.8421 68.8985 29.1547C68.1425 29.46 67.3102 29.6126 66.4016 29.6126C65.5076 29.6126 64.6826 29.46 63.9266 29.1547C63.178 28.8421 62.531 28.4169 61.9859 27.879C61.4407 27.3411 61.0118 26.7124 60.6994 25.9928C60.394 25.2659 60.2414 24.4917 60.2414 23.6704ZM62.8909 23.6595C62.8909 24.1974 62.9817 24.6917 63.1634 25.1423C63.3524 25.5857 63.6068 25.971 63.9266 26.298C64.2465 26.6179 64.6208 26.8686 65.0496 27.0503C65.4858 27.2321 65.9474 27.3229 66.4344 27.3229C66.9287 27.3229 67.3902 27.2357 67.819 27.0613C68.2479 26.8796 68.6222 26.6288 68.942 26.309C69.2619 25.9819 69.5127 25.593 69.6944 25.1423C69.8834 24.6917 69.9779 24.1974 69.9779 23.6595C69.9779 23.1289 69.8834 22.6419 69.6944 22.1985C69.5127 21.7478 69.2619 21.3626 68.942 21.0428C68.6222 20.7229 68.2479 20.4721 67.819 20.2904C67.3902 20.1087 66.9287 20.0179 66.4344 20.0179C65.9401 20.0179 65.4785 20.1087 65.0496 20.2904C64.6208 20.4649 64.2465 20.7157 63.9266 21.0428C63.6068 21.3626 63.3524 21.7442 63.1634 22.1876C62.9817 22.631 62.8909 23.1216 62.8909 23.6595Z" fill="white"/>
<path d="M73.9148 23.6704C73.9148 22.849 74.0674 22.0786 74.3727 21.3589C74.678 20.6321 75.1032 19.9997 75.6483 19.4618C76.2008 18.9239 76.855 18.4987 77.6109 18.1862C78.3669 17.8736 79.1919 17.7173 80.0859 17.7173C80.9872 17.7173 81.8155 17.8736 82.5714 18.1862C83.3347 18.4987 83.9894 18.9239 84.5347 19.4618C85.0865 19.9997 85.5159 20.6321 85.8212 21.3589C86.1331 22.0786 86.2898 22.849 86.2898 23.6704C86.2898 24.4991 86.1372 25.2731 85.8319 25.9928C85.5265 26.7124 85.098 27.3411 84.5453 27.879C83.9927 28.4169 83.3347 28.8421 82.5714 29.1547C81.8155 29.46 80.9836 29.6126 80.075 29.6126C79.1809 29.6126 78.3559 29.46 77.6 29.1547C76.8513 28.8421 76.2044 28.4169 75.6593 27.879C75.1141 27.3411 74.6852 26.7124 74.3727 25.9928C74.0674 25.2659 73.9148 24.4917 73.9148 23.6704ZM76.5642 23.6595C76.5642 24.1974 76.655 24.6917 76.8368 25.1423C77.0257 25.5857 77.2802 25.971 77.6 26.298C77.9199 26.6179 78.2941 26.8686 78.723 27.0503C79.1591 27.2321 79.6207 27.3229 80.1077 27.3229C80.602 27.3229 81.0635 27.2357 81.4924 27.0613C81.9217 26.8796 82.2955 26.6288 82.6155 26.309C82.9355 25.9819 83.1861 25.593 83.3674 25.1423C83.5568 24.6917 83.6514 24.1974 83.6514 23.6595C83.6514 23.1289 83.5568 22.6419 83.3674 22.1985C83.1861 21.7478 82.9355 21.3626 82.6155 21.0428C82.2955 20.7229 81.9217 20.4721 81.4924 20.2904C81.0635 20.1087 80.602 20.0179 80.1077 20.0179C79.6134 20.0179 79.1519 20.1087 78.723 20.2904C78.2941 20.4649 77.9199 20.7157 77.6 21.0428C77.2802 21.3626 77.0257 21.7442 76.8368 22.1876C76.655 22.631 76.5642 23.1216 76.5642 23.6595Z" fill="white"/>
<path d="M88.0179 14.8715L90.6677 14.8606V18.0552H94.2433V20.3448H90.6563V24.935C90.6563 25.3857 90.7077 25.76 90.809 26.0581C90.9184 26.3488 91.0637 26.5814 91.2449 26.7559C91.4269 26.923 91.6343 27.043 91.8669 27.1157C92.1069 27.1811 92.3608 27.2138 92.6302 27.2138C92.6302 27.2138 93.2694 27.2138 94.5486 27.2138L94.5273 29.3944H92.3796C91.7755 29.3944 91.209 29.3326 90.6784 29.2091C90.1477 29.0855 89.6865 28.8602 89.2939 28.5331C88.9012 28.1987 88.5886 27.7444 88.3559 27.1701C88.1306 26.5959 88.0179 25.8581 88.0179 24.9568V20.3448V14.8715Z" fill="white"/>
<path d="M107.699 23.1906C107.699 23.1906 107.699 25.2186 107.699 29.2746H105.028V23.2342C105.028 22.6237 104.962 22.1149 104.831 21.7078C104.7 21.2935 104.508 20.9628 104.254 20.7156C104.007 20.4613 103.701 20.2831 103.338 20.1814C102.981 20.0724 102.571 20.0178 102.105 20.0178C101.677 20.0178 101.273 20.0942 100.896 20.2468C100.525 20.3995 100.201 20.6175 99.9249 20.901C99.6563 21.1844 99.4416 21.5261 99.2816 21.9259C99.129 22.3184 99.0531 22.7545 99.0531 23.2342V29.2855H96.4033V13.9121H99.0416L99.031 19.0802C99.4669 18.695 99.9943 18.3715 100.612 18.1098C101.229 17.8481 101.899 17.7173 102.618 17.7173C103.491 17.7173 104.247 17.8373 104.886 18.0771C105.526 18.3169 106.052 18.6695 106.467 19.1347C106.888 19.5999 107.198 20.1742 107.393 20.8574C107.598 21.5333 107.699 22.3111 107.699 23.1906Z" fill="white"/>
<path d="M109.576 28.0751C109.576 27.8716 109.611 27.679 109.684 27.4973C109.757 27.3155 109.862 27.1593 110 27.0284C110.139 26.8903 110.302 26.7813 110.491 26.7013C110.68 26.6214 110.891 26.5814 111.123 26.5814C111.356 26.5814 111.567 26.6214 111.756 26.7013C111.944 26.7813 112.109 26.8903 112.247 27.0284C112.384 27.1593 112.49 27.3155 112.562 27.4973C112.635 27.679 112.672 27.8716 112.672 28.0751C112.672 28.2786 112.635 28.4713 112.562 28.653C112.49 28.8275 112.384 28.9837 112.247 29.1218C112.109 29.2527 111.944 29.3545 111.756 29.4271C111.567 29.5071 111.356 29.5471 111.123 29.5471C110.891 29.5471 110.68 29.5071 110.491 29.4271C110.302 29.3471 110.139 29.2417 110 29.111C109.862 28.9728 109.757 28.8165 109.684 28.6421C109.611 28.4604 109.576 28.2714 109.576 28.0751Z" fill="white"/>
<path d="M116.892 23.6595C116.892 24.1974 116.986 24.6917 117.175 25.1423C117.364 25.593 117.623 25.9819 117.949 26.309C118.277 26.6288 118.658 26.8796 119.095 27.0613C119.531 27.2357 119.999 27.3229 120.501 27.3229C120.995 27.3229 121.46 27.2357 121.896 27.0613C122.332 26.8796 122.71 26.6288 123.03 26.309C123.358 25.9819 123.615 25.5966 123.805 25.1532C123.993 24.7026 124.088 24.2046 124.088 23.6595C124.088 23.1289 123.993 22.6419 123.805 22.1985C123.615 21.7478 123.358 21.3626 123.03 21.0428C122.704 20.7229 122.322 20.4721 121.886 20.2904C121.45 20.1087 120.98 20.0179 120.479 20.0179C119.977 20.0179 119.509 20.1087 119.073 20.2904C118.637 20.4649 118.255 20.7157 117.927 21.0428C117.608 21.3626 117.353 21.7442 117.165 22.1876C116.983 22.631 116.892 23.1216 116.892 23.6595ZM114.242 23.6704C114.242 22.849 114.384 22.0786 114.668 21.3589C114.958 20.6321 115.366 19.9997 115.889 19.4618C116.42 18.9239 117.052 18.4987 117.786 18.1862C118.527 17.8736 119.349 17.7173 120.25 17.7173C120.679 17.7173 121.082 17.761 121.46 17.8481C121.838 17.9281 122.194 18.0408 122.529 18.1862C122.863 18.3242 123.168 18.4914 123.445 18.6877C123.728 18.8767 123.979 19.0766 124.197 19.2873L124.349 18.0553H126.617V29.2746H124.349L124.197 28.0425C123.971 28.2606 123.718 28.4641 123.433 28.6531C123.15 28.8421 122.842 29.0093 122.507 29.1547C122.18 29.2928 121.824 29.4018 121.438 29.4818C121.06 29.569 120.66 29.6126 120.239 29.6126C119.345 29.6126 118.527 29.46 117.786 29.1547C117.052 28.8421 116.423 28.4169 115.9 27.879C115.376 27.3411 114.969 26.7124 114.678 25.9928C114.388 25.2659 114.242 24.4917 114.242 23.6704Z" fill="white"/>
<path d="M129.225 29.2745V18.0553H131.896V29.2745H129.225ZM128.93 14.8824C128.93 14.6789 128.97 14.4899 129.05 14.3155C129.13 14.1338 129.238 13.9775 129.377 13.8467C129.522 13.7086 129.696 13.5995 129.9 13.5196C130.104 13.4396 130.329 13.3997 130.576 13.3997C130.831 13.3997 131.06 13.4396 131.263 13.5196C131.467 13.5995 131.641 13.7086 131.786 13.8467C131.931 13.9775 132.045 14.1338 132.124 14.3155C132.204 14.4899 132.244 14.6789 132.244 14.8824C132.244 15.0859 132.204 15.2786 132.124 15.4603C132.045 15.6348 131.931 15.791 131.786 15.9291C131.641 16.06 131.467 16.1654 131.263 16.2453C131.06 16.318 130.831 16.3544 130.576 16.3544C130.329 16.3544 130.104 16.318 129.9 16.2453C129.704 16.1654 129.533 16.06 129.388 15.9291C129.242 15.791 129.13 15.6348 129.05 15.4603C128.97 15.2786 128.93 15.0859 128.93 14.8824Z" fill="white"/>
<path fill-rule="evenodd" clip-rule="evenodd" d="M34.8736 16.4341H30.6328C26.4033 16.4341 22.9746 13.0054 22.9746 8.77588V4.5987C22.9746 3.58091 22.1556 2.75441 21.1407 2.74231H6.94007C3.10718 2.74231 0 5.84948 0 9.68241V32.5267C0 36.3596 3.10717 39.4668 6.94007 39.4668H29.7844C33.6173 39.4668 36.7245 36.3596 36.7245 32.5267V18.1458C36.6506 17.1881 35.8501 16.4341 34.8736 16.4341ZM29.7566 27.1194C28.6018 29.1195 26.9409 30.7804 24.9407 31.9352C22.9406 33.09 20.6717 33.698 18.3621 33.698C16.0526 33.698 13.7837 33.09 11.7835 31.9352C9.78335 30.7804 8.12242 29.1195 6.96763 27.1194L10.8027 24.9052C11.5688 26.2321 12.6707 27.3341 13.9977 28.1002C15.3247 28.8663 16.8299 29.2697 18.3621 29.2697C19.8944 29.2697 21.3996 28.8663 22.7265 28.1002C24.0536 27.3341 25.1554 26.2321 25.9216 24.9052L29.7566 27.1194Z" fill="white"/>
<path fill-rule="evenodd" clip-rule="evenodd" d="M32.0254 2.74231C31.7691 2.74231 31.5647 2.95129 31.5286 3.20506C31.3255 4.62905 30.1991 5.75545 28.7751 5.95852C28.5213 5.9947 28.3123 6.19902 28.3123 6.45535V7.38362C28.3123 7.63995 28.5213 7.84427 28.7751 7.88046C30.1991 8.08353 31.3255 9.20992 31.5286 10.6339C31.5647 10.8877 31.7691 11.0967 32.0254 11.0967H32.9536C33.2099 11.0967 33.4143 10.8877 33.4505 10.6339C33.6535 9.20992 34.78 8.08353 36.204 7.88046C36.4577 7.84427 36.6667 7.63995 36.6667 7.38362V6.45535C36.6667 6.19902 36.4577 5.9947 36.204 5.95852C34.78 5.75545 33.6535 4.62905 33.4505 3.20506C33.4143 2.9513 33.21 2.74231 32.9536 2.74231H32.0254Z" fill="white"/>
</g>
<defs>
<clipPath id="clip0_2_292">
<rect width="132.245" height="40" fill="white"/>
</clipPath>
</defs>
</svg>
