<svg width="151" height="40" viewBox="0 0 151 40" fill="none" xmlns="http://www.w3.org/2000/svg">
<path d="M40.0017 9.50779V30.499C40.0017 35.7459 35.7476 40 30.5007 40H9.49932C4.25406 40 0 35.7476 0 30.5007V9.5044C0 4.25575 4.25575 0 9.5044 0H30.4939C35.7443 0.00169148 40.0017 4.25745 40.0017 9.50779Z" fill="white"/>
<path d="M30.9202 23.2506C30.7054 26.1142 28.9378 28.7563 26.5054 30.2769C25.6157 30.8334 24.6448 31.2478 23.635 31.5252L23.1276 25.6457C23.904 25.0723 24.4588 24.1724 24.5146 23.21C26.6492 23.2235 28.7839 23.2353 30.9202 23.2506Z" fill="black"/>
<path d="M30.9269 17.0803C28.7889 17.082 26.6543 17.082 24.5179 17.082C24.5348 16.0215 23.9733 14.988 23.1309 14.3469C22.2852 13.7041 21.1874 13.4369 20.1302 13.5181C19.6702 13.5519 19.2118 13.6551 18.7804 13.8192L15.5599 8.97646C17.4746 8.17301 19.6363 7.91253 21.7168 8.11382C23.8549 8.32018 25.9912 9.0086 27.6438 10.3787C29.611 12.0127 30.7459 14.5296 30.9269 17.0803Z" fill="black"/>
<path d="M23.635 31.5252C21.8826 32.0038 20.0101 32.0715 18.2155 31.7637C16.1536 31.4084 14.1492 30.5559 12.6083 29.1419C8.82611 25.6608 8.2544 19.3059 10.071 14.7068C10.7087 13.0948 11.6982 11.6131 13.0362 10.4984C13.7957 9.86413 14.6482 9.36177 15.5582 8.97949L18.7788 13.8222C18.3711 13.9795 17.9922 14.1943 17.6488 14.4616C16.0216 15.7555 15.6225 18.0593 15.6411 20.1432C15.658 22.1459 16.0724 24.3618 17.6675 25.5729C18.3863 26.1192 19.2845 26.3983 20.1878 26.4507C21.1857 26.5066 22.2175 26.2799 23.0413 25.7082C23.07 25.6879 23.1005 25.6659 23.1275 25.6473L23.635 31.5252Z" fill="black"/>
<path d="M66.7862 18.0596H64.386C64.293 17.5319 64.1221 17.0684 63.8701 16.6675C63.618 16.2666 63.3102 15.9267 62.9465 15.6459C62.5829 15.3668 62.1752 15.1553 61.727 15.0133C61.2787 14.8712 60.8017 14.8001 60.2994 14.8001C59.3911 14.8001 58.5791 15.0353 57.8637 15.5038C57.1482 15.974 56.5832 16.6624 56.1705 17.5691C55.7578 18.4774 55.5514 19.5853 55.5514 20.8928C55.5514 22.2122 55.7578 23.3252 56.1705 24.2335C56.5832 25.1418 57.1482 25.8269 57.867 26.292C58.5842 26.7572 59.3927 26.9889 60.2909 26.9889C60.7882 26.9889 61.2618 26.9196 61.7101 26.7792C62.1583 26.6388 62.5659 26.4324 62.9296 26.1584C63.2933 25.8844 63.6028 25.5478 63.8566 25.1486C64.1103 24.7494 64.2862 24.2927 64.3843 23.7751L66.7845 23.7836C66.6559 24.5802 66.409 25.3127 66.0419 25.9791C65.6749 26.6472 65.2063 27.2223 64.6346 27.7044C64.0629 28.1865 63.41 28.5603 62.6759 28.8242C61.9418 29.088 61.1417 29.22 60.2757 29.22C58.9107 29.22 57.6962 28.8867 56.6289 28.2186C55.5615 27.5505 54.7226 26.5948 54.1086 25.3499C53.4963 24.1049 53.1884 22.6198 53.1884 20.8945C53.1884 19.1641 53.4963 17.6773 54.112 16.4341C54.7277 15.1909 55.5683 14.2369 56.6356 13.5687C57.703 12.9006 58.9158 12.5674 60.274 12.5674C61.1096 12.5674 61.8911 12.6892 62.6167 12.9361C63.3423 13.1814 63.9953 13.54 64.5754 14.0119C65.1556 14.4838 65.6343 15.0589 66.0149 15.7372C66.3955 16.4138 66.6526 17.1885 66.7862 18.0596Z" fill="white"/>
<path d="M71.7489 21.779V28.9965H69.4485V12.7871H71.7185V18.8189H71.864C72.1414 18.1643 72.5642 17.645 73.1326 17.2594C73.7026 16.8737 74.4452 16.6809 75.3636 16.6809C76.1738 16.6809 76.8826 16.8517 77.4915 17.1951C78.0987 17.5385 78.5707 18.0493 78.9073 18.7259C79.2439 19.4042 79.4113 20.2499 79.4113 21.2631V28.9965H77.1109V21.549C77.1109 20.6576 76.8876 19.964 76.4411 19.4718C75.9946 18.9779 75.3738 18.731 74.5788 18.731C74.0358 18.731 73.5487 18.8494 73.1207 19.0879C72.6928 19.3247 72.3562 19.6731 72.1126 20.1281C71.8707 20.5848 71.7489 21.1362 71.7489 21.779Z" fill="white"/>
<path d="M85.9286 29.2672C85.1793 29.2672 84.5027 29.1234 83.8972 28.8359C83.2916 28.5483 82.8129 28.1305 82.4628 27.5808C82.111 27.0328 81.9351 26.3595 81.9351 25.5629C81.9351 24.8778 82.0636 24.3129 82.319 23.8697C82.5761 23.4265 82.9212 23.0764 83.3576 22.8176C83.794 22.5588 84.2811 22.3643 84.819 22.2323C85.3569 22.1004 85.9066 22.0006 86.4648 21.9313C87.1719 21.8467 87.747 21.7773 88.1884 21.7215C88.6299 21.6657 88.9496 21.5744 89.1509 21.4492C89.3505 21.3223 89.4503 21.116 89.4503 20.8318V20.776C89.4503 20.0842 89.2625 19.5497 88.8853 19.1691C88.5081 18.7885 87.9482 18.5991 87.204 18.5991C86.4293 18.5991 85.8204 18.775 85.3772 19.1251C84.934 19.4769 84.6279 19.866 84.457 20.2922L82.2953 19.7865C82.5524 19.0473 82.928 18.4502 83.4219 17.9935C83.9175 17.5368 84.4875 17.2053 85.1336 16.9955C85.7798 16.7875 86.4597 16.6826 87.1719 16.6826C87.6438 16.6826 88.1445 16.7401 88.6756 16.8535C89.2067 16.9668 89.704 17.1748 90.1675 17.4742C90.6309 17.7753 91.0132 18.2033 91.3092 18.7598C91.6069 19.3162 91.7558 20.0385 91.7558 20.9248V28.9982H89.5095V27.3355H89.4165C89.2676 27.6417 89.0443 27.9428 88.7466 28.2371C88.4489 28.5331 88.0667 28.7784 87.5998 28.9729C87.138 29.1691 86.5798 29.2672 85.9286 29.2672ZM86.4276 27.3677C87.0636 27.3677 87.6083 27.2391 88.0633 26.9803C88.5166 26.7215 88.8633 26.3832 89.1018 25.9637C89.3403 25.5443 89.4604 25.0943 89.4604 24.6139V23.0476C89.3775 23.1322 89.2202 23.21 88.9868 23.2811C88.7534 23.3521 88.4878 23.413 88.1901 23.4637C87.8924 23.5145 87.6032 23.5585 87.3207 23.5991C87.0382 23.638 86.8031 23.6718 86.612 23.6972C86.1654 23.7547 85.7595 23.8528 85.3924 23.9898C85.0254 24.1268 84.7328 24.323 84.5146 24.5801C84.2964 24.8355 84.1881 25.1755 84.1881 25.5967C84.1881 26.1819 84.3978 26.6251 84.819 26.9228C85.2402 27.2171 85.7764 27.3677 86.4276 27.3677Z" fill="white"/>
<path d="M100.338 16.8404V18.74H93.8836V16.8404H100.338ZM95.614 13.9277H97.9144V25.4281C97.9144 25.8865 97.9804 26.2315 98.114 26.4616C98.2476 26.6916 98.4201 26.8472 98.6333 26.9284C98.8464 27.0096 99.0781 27.0502 99.3302 27.0502C99.5145 27.0502 99.6769 27.0367 99.8156 27.0113C99.9543 26.9842 100.063 26.9639 100.139 26.9487L100.555 28.9041C100.421 28.9565 100.232 29.0106 99.9848 29.0664C99.7378 29.1223 99.4317 29.1527 99.0612 29.1578C98.4557 29.1679 97.8924 29.058 97.3681 28.8246C96.8454 28.5928 96.4208 28.2342 96.0994 27.7488C95.7764 27.2633 95.614 26.6544 95.614 25.9203V13.9277Z" fill="white"/>
<path d="M103.309 28.9985V12.7891H105.609V18.8124H105.748C105.881 18.5587 106.074 18.2661 106.324 17.9345C106.576 17.6013 106.925 17.3104 107.371 17.06C107.818 16.8097 108.407 16.6845 109.141 16.6845C110.095 16.6845 110.946 16.9332 111.695 17.4288C112.444 17.9244 113.033 18.6399 113.461 19.5736C113.889 20.5073 114.104 21.6321 114.104 22.9447C114.104 24.2573 113.89 25.3838 113.464 26.3209C113.038 27.2579 112.454 27.9785 111.71 28.4809C110.966 28.9849 110.117 29.237 109.163 29.237C108.444 29.237 107.859 29.1135 107.405 28.8648C106.952 28.6162 106.597 28.327 106.34 27.9937C106.083 27.6605 105.886 27.3662 105.748 27.1074H105.555V28.9985H103.309ZM105.562 22.9193C105.562 23.7735 105.682 24.5228 105.924 25.1673C106.165 25.8117 106.514 26.3141 106.971 26.6744C107.427 27.0364 107.985 27.2174 108.649 27.2174C109.335 27.2174 109.91 27.0296 110.372 26.6507C110.834 26.2735 111.184 25.761 111.423 25.1115C111.661 24.4619 111.781 23.7312 111.781 22.9193C111.781 22.1176 111.664 21.397 111.431 20.7593C111.198 20.1216 110.849 19.6175 110.384 19.2471C109.919 18.8784 109.342 18.6923 108.649 18.6923C107.982 18.6923 107.419 18.8699 106.96 19.2234C106.502 19.577 106.154 20.0709 105.918 20.7035C105.68 21.3361 105.562 22.0753 105.562 22.9193Z" fill="white"/>
<path d="M120.118 29.2672C119.369 29.2672 118.692 29.1234 118.087 28.8359C117.481 28.5483 117.003 28.1305 116.653 27.5808C116.301 27.0328 116.125 26.3595 116.125 25.5629C116.125 24.8778 116.253 24.3129 116.509 23.8697C116.766 23.4265 117.111 23.0764 117.547 22.8176C117.984 22.5588 118.471 22.3643 119.009 22.2323C119.547 22.1004 120.096 22.0006 120.655 21.9313C121.362 21.8467 121.937 21.7773 122.378 21.7215C122.82 21.6657 123.139 21.5744 123.341 21.4492C123.54 21.3223 123.64 21.116 123.64 20.8318V20.776C123.64 20.0842 123.452 19.5497 123.075 19.1691C122.698 18.7885 122.138 18.5991 121.394 18.5991C120.619 18.5991 120.01 18.775 119.567 19.1251C119.124 19.4769 118.818 19.866 118.647 20.2922L116.485 19.7865C116.742 19.0473 117.118 18.4502 117.612 17.9935C118.107 17.5368 118.677 17.2053 119.323 16.9955C119.97 16.7875 120.65 16.6826 121.362 16.6826C121.834 16.6826 122.334 16.7401 122.865 16.8535C123.396 16.9668 123.894 17.1748 124.357 17.4742C124.821 17.7753 125.203 18.2033 125.501 18.7598C125.798 19.3162 125.947 20.0385 125.947 20.9248V28.9982H123.701V27.3355H123.608C123.459 27.6417 123.236 27.9428 122.938 28.2371C122.64 28.5331 122.258 28.7784 121.791 28.9729C121.329 29.1691 120.77 29.2672 120.118 29.2672ZM120.619 27.3677C121.255 27.3677 121.8 27.2391 122.255 26.9803C122.708 26.7215 123.055 26.3832 123.293 25.9637C123.532 25.5443 123.652 25.0943 123.652 24.6139V23.0476C123.569 23.1322 123.412 23.21 123.178 23.2811C122.945 23.3521 122.679 23.413 122.382 23.4637C122.084 23.5145 121.795 23.5585 121.512 23.5991C121.23 23.6397 120.995 23.6718 120.805 23.6972C120.359 23.7547 119.953 23.8528 119.586 23.9898C119.219 24.1268 118.926 24.323 118.708 24.5801C118.489 24.8355 118.381 25.1755 118.381 25.5967C118.381 26.1819 118.591 26.6251 119.012 26.9228C119.432 27.2171 119.968 27.3677 120.619 27.3677Z" fill="white"/>
<path d="M137.869 19.8085L135.783 20.189C135.695 19.915 135.558 19.6528 135.372 19.4059C135.184 19.1572 134.932 18.9543 134.614 18.797C134.296 18.638 133.899 18.5602 133.422 18.5602C132.771 18.5602 132.226 18.709 131.791 19.0067C131.355 19.3044 131.137 19.6884 131.137 20.1586C131.137 20.5646 131.282 20.8927 131.575 21.1396C131.867 21.3883 132.339 21.5913 132.99 21.7486L134.868 22.1918C135.956 22.4505 136.766 22.848 137.299 23.3876C137.831 23.9255 138.099 24.6258 138.099 25.485C138.099 26.2124 137.894 26.8602 137.486 27.4286C137.079 27.9952 136.512 28.4401 135.787 28.7614C135.061 29.0828 134.22 29.2435 133.266 29.2435C131.943 29.2435 130.863 28.9526 130.027 28.369C129.191 27.7855 128.677 26.9566 128.488 25.8792L130.712 25.5307C130.851 26.1278 131.135 26.5761 131.566 26.8805C131.998 27.1833 132.559 27.3355 133.251 27.3355C134.005 27.3355 134.608 27.1731 135.059 26.8484C135.511 26.5236 135.736 26.1261 135.736 25.6576C135.736 25.277 135.599 24.959 135.325 24.7002C135.051 24.4414 134.631 24.2469 134.066 24.115L132.065 23.6633C130.962 23.4045 130.149 22.9935 129.623 22.4286C129.097 21.8636 128.835 21.1498 128.835 20.2838C128.835 19.5666 129.029 18.939 129.42 18.3995C129.809 17.8616 130.348 17.4404 131.035 17.1376C131.722 16.8349 132.51 16.6826 133.396 16.6826C134.674 16.6826 135.678 16.9668 136.412 17.5334C137.148 18.1001 137.632 18.8595 137.869 19.8085Z" fill="white"/>
<path d="M145.715 29.2433C144.552 29.2433 143.55 28.9861 142.711 28.4719C141.872 27.9577 141.226 27.2321 140.773 26.295C140.32 25.3579 140.091 24.2602 140.091 22.9983C140.091 21.7534 140.318 20.6556 140.773 19.705C141.226 18.7561 141.862 18.0135 142.681 17.4807C143.5 16.9479 144.457 16.6807 145.555 16.6807C146.221 16.6807 146.867 16.794 147.493 17.0207C148.119 17.2473 148.681 17.6042 149.178 18.0897C149.675 18.5751 150.068 19.2043 150.355 19.9773C150.643 20.7504 150.787 21.6891 150.787 22.7903V23.6292H141.392V21.8566H148.532C148.532 21.2341 148.408 20.681 148.163 20.1989C147.916 19.7169 147.571 19.3346 147.128 19.0555C146.685 18.7764 146.165 18.636 145.57 18.636C144.924 18.636 144.361 18.7984 143.882 19.1232C143.402 19.4479 143.033 19.8691 142.774 20.3901C142.515 20.9094 142.385 21.4726 142.385 22.0798V23.4652C142.385 24.2771 142.525 24.9689 142.804 25.5389C143.084 26.1089 143.474 26.542 143.978 26.8414C144.482 27.1407 145.068 27.2879 145.741 27.2879C146.177 27.2879 146.575 27.2236 146.933 27.0934C147.292 26.9648 147.603 26.7703 147.864 26.5115C148.126 26.2527 148.325 25.933 148.464 25.5541L150.641 25.9584C150.467 26.6181 150.156 27.1949 149.706 27.6871C149.257 28.181 148.696 28.5633 148.021 28.8339C147.346 29.1062 146.578 29.2433 145.715 29.2433Z" fill="white"/>
</svg>
