<svg width="324" height="40" viewBox="0 0 324 40" fill="none" xmlns="http://www.w3.org/2000/svg">
<path d="M0 19.9818C0 4.36447 13.46 0 26.1032 0C40.5444 0 50.244 4.93829 51.4433 14.6415H41.6887C40.8171 10.7946 36.1848 7.35018 26.2666 7.35018C16.7847 7.35018 9.37331 10.3916 9.37331 19.9823C9.37331 29.573 16.7847 32.6145 26.2666 32.6145C36.1848 32.6145 40.8175 29.1675 41.6887 25.2643H51.444C50.2444 35.0253 40.5451 39.9647 26.1037 39.9647C13.46 39.9636 0 35.5997 0 19.9818Z" fill="white"/>
<path d="M65.9378 0.458984H56.5647V39.5041H65.9378V0.458984Z" fill="white"/>
<path d="M112.749 7.80912H95.8556V39.5042H86.4273V7.80912H69.5342V0.459961H112.749V7.80912Z" fill="white"/>
<path d="M145.69 39.5041H136.317V24.0581L113.974 0.458984H125.855L141.004 17.7446L156.153 0.458984H168.033L145.69 24.0581L145.69 39.5041Z" fill="white"/>
<path d="M169.995 0.459961H196.697C207.215 0.459961 214.626 2.58442 214.626 10.221C214.626 15.1593 210.975 17.3978 205.471 18.3173C211.847 19.2368 216.043 21.6472 216.043 28.1929C216.043 36.8611 208.301 39.5047 197.406 39.5047H169.995V0.459961ZM196.916 16.3647C202.093 16.3647 205.907 15.7909 205.907 11.8862C205.907 8.03874 202.093 7.46492 196.916 7.46492H179.368V16.3647H196.916ZM197.242 32.5001C202.855 32.5001 206.616 31.8685 206.616 27.5618C206.616 23.2551 202.855 22.6808 197.242 22.6808H179.368V32.4996L197.242 32.5001Z" fill="white"/>
<path d="M220.29 19.9818C220.29 4.76495 233.75 0 246.392 0C259.033 0 272.551 4.76495 272.551 19.9818C272.551 35.1987 259.037 39.9633 246.392 39.9633C233.747 39.9633 220.289 35.1982 220.289 19.9818M246.392 32.614C255.711 32.614 263.122 29.167 263.122 19.9818C263.122 10.7967 255.712 7.35018 246.392 7.35018C237.071 7.35018 229.661 10.7972 229.661 19.9828C229.661 29.1685 237.075 32.614 246.392 32.614Z" fill="white"/>
<path d="M323.288 0.459961L303.887 19.4082L323.833 39.5042H311.625L297.457 24.4611L283.231 39.5045H271.027L290.972 19.4087L271.572 0.459961H283.449L297.455 14.6423L311.407 0.459961H323.288Z" fill="white"/>
</svg>
