<svg width="107" height="40" viewBox="0 0 107 40" fill="none" xmlns="http://www.w3.org/2000/svg">
<path d="M40.1689 0.315598C38.7956 0.515598 37.5333 1.32004 36.3778 2.73338C35.5733 3.72004 34.9956 4.66671 34.2978 6.1556C32.16 10.72 30.7556 16.3156 30.1245 22.8C30.0311 23.7689 30.0222 24.0578 30.0222 26.7112C30.0222 29.1912 30.0356 29.6489 30.1022 30.12C30.1422 30.4178 30.1778 30.76 30.1778 30.8845C30.1778 31.2534 30.12 31.2889 28.7111 31.8134C25.84 32.88 23.6622 33.4356 21.2222 33.72C20.4 33.8178 18.1111 33.8312 17.3556 33.7423C14.4667 33.4089 12.3689 32.5023 10.8667 30.9245C10.2533 30.2845 9.88001 29.7467 9.47112 28.9112C8.61335 27.1734 8.30668 25.5289 8.3689 22.9556C8.41779 20.9778 8.68001 19.1112 9.13335 17.5334C9.62223 15.8312 10.6933 13.68 11.68 12.4223C12.0267 11.9823 13.1111 10.9112 13.5333 10.5912C14.7156 9.70226 16.0845 9.05338 17.3111 8.80449C18.6311 8.53782 19.7022 8.56893 20.7022 8.89782C21.8489 9.28004 22.5422 10.0578 22.7778 11.24C22.8933 11.8 22.8489 12.9867 22.6711 14.2C22.3689 16.2534 22.5422 16.8845 23.5333 17.3734C24.2933 17.7467 25.5111 17.76 26.1778 17.3956C27.0489 16.92 27.8267 15.6978 28.1067 14.3689C28.2889 13.5156 28.3111 11.4356 28.1556 10.4C28.0178 9.49338 27.5111 8.24004 26.9111 7.32893C25.8178 5.65782 23.6933 4.42671 21.3511 4.10671C20.6222 4.00893 18.0711 3.99115 17.3111 4.08004C15.4489 4.29782 13.2133 5.06226 11.5467 6.04893C10.2933 6.79115 9.34223 7.53782 8.17779 8.70671C6.63557 10.2489 5.70668 11.5245 4.80001 13.3334C3.22223 16.48 2.47557 19.6445 2.37335 23.5778C2.2889 26.8134 2.86223 29.4178 4.1689 31.7112C6.13779 35.16 9.45335 37.4178 13.8667 38.3112C17.16 38.9778 21.64 38.7823 25.5956 37.8C28.0711 37.1823 30.4267 36.2623 31.3822 35.5334L31.5867 35.3823L31.9867 35.9912C32.4711 36.72 32.8133 37.1023 33.3422 37.5112C34.04 38.0489 34.7645 38.3867 35.6445 38.5867C36.0533 38.6756 36.2267 38.6889 37.0222 38.6889C37.8267 38.6845 38.0045 38.6712 38.5467 38.5645C40.0889 38.2623 40.9467 37.8445 42.6133 36.5912C43.1111 36.2178 43.5378 35.9112 43.56 35.9112C43.5822 35.9112 43.6622 36.0356 43.7378 36.1867C44.2711 37.2489 44.8045 37.8045 45.6978 38.2178C47.4933 39.0578 49.5422 38.7912 51.6222 37.4445C52.1245 37.1156 52.5956 36.7467 53.2311 36.1734L53.7822 35.68L54.4356 36.32C55.1689 37.0312 55.7511 37.4578 56.5022 37.8223C58.6267 38.8489 61.2533 38.9912 63.8756 38.2223C65.2222 37.8312 66.7467 37.0756 67.9511 36.2089C68.2533 35.9956 68.5156 35.8312 68.5333 35.8534C68.5511 35.8712 68.6267 36.1334 68.7022 36.4267C68.9556 37.4267 69.2445 38.0089 69.6222 38.2667C70.12 38.6089 70.6222 38.7378 71.28 38.6978C71.9289 38.6578 72.3867 38.4889 72.7467 38.1645C73.2045 37.7423 73.4578 37.1778 73.9556 35.4667C75.0267 31.7823 76.0845 29.2978 77.4267 27.3112C78.5867 25.5912 79.7156 24.6667 80.6533 24.6667C80.9556 24.6667 81.1556 24.76 81.36 24.9956C81.5867 25.2534 81.6489 25.4267 81.6756 25.8845C81.7467 27.0756 81.2667 28.0534 80.2489 28.8089C79.84 29.1112 79.5289 29.2978 78.7333 29.7112C78.0089 30.0889 77.4845 30.4312 77.2667 30.6712C77.1778 30.7734 77.04 30.9867 76.96 31.1512C76.8267 31.4356 76.8222 31.4667 76.8089 32.16C76.7645 34.0534 77.3289 35.56 78.5245 36.7467C79.5245 37.7423 80.6711 38.32 82.1556 38.5823C82.84 38.7023 84.0711 38.7423 84.7111 38.6712C86.3733 38.4756 87.9333 37.7112 89.3778 36.3778C89.7645 36.0223 89.9778 35.8667 90.0133 35.9156C90.0222 35.9245 90.1333 36.1334 90.2622 36.3778C90.7511 37.3023 91.2 37.7512 92.0667 38.1823C92.8667 38.5734 93.3067 38.68 94.2222 38.6845C95.0356 38.6889 95.3822 38.6356 96.1333 38.3867C96.7067 38.2 97.7556 37.6623 98.24 37.3156C98.8356 36.8889 99.7422 36.0667 100.689 35.1023C101.689 34.0889 102.04 33.6623 102.271 33.1778C102.56 32.5778 102.636 32.2134 102.64 31.4223C102.644 30.6889 102.609 30.4712 102.409 30.0667C102.191 29.6134 101.809 29.3778 101.409 29.4445C100.947 29.5156 100.684 29.7512 99.2978 31.3334C98.6622 32.0578 97.3156 33.3778 96.8711 33.7112C95.8978 34.4356 95.0222 34.3778 94.5867 33.5645C94.3511 33.1245 94.2889 32.7289 94.2933 31.7112C94.2978 30.5067 94.3911 29.8889 95.3289 25.0667C96.0756 21.2045 96.12 20.7467 95.7822 20.2134C95.4756 19.7289 95.1378 19.6223 93.9111 19.6267C92.9689 19.6267 92.6667 19.6667 92.2622 19.8489C91.7511 20.08 91.3911 20.6445 91.0045 21.8223C90.3245 23.8889 89.5422 28.0667 89.3689 30.5289L89.3156 31.2889L88.4045 32.1912C87.1956 33.3823 86.7822 33.7067 86.1333 33.9689C85.9733 34.0312 85.7111 34.1067 85.5556 34.1289C85.1867 34.1912 84.2178 34.1912 83.96 34.1289C83.6533 34.0623 83.0756 33.76 82.7867 33.5245C82.3422 33.1556 81.9156 32.4178 81.8978 31.9823L81.8889 31.8089L82.4845 31.4356C84.6933 30.0578 85.84 28.7289 86.48 26.8178C86.76 25.9867 86.8178 25.5734 86.8222 24.3334V23.2667L86.6711 22.8223C86.1333 21.2267 85.0222 20.0623 83.7289 19.7378C82.8045 19.5023 81.7467 19.52 80.9778 19.7778C80.2356 20.0223 79.3556 20.5112 78.5245 21.1378C77.9067 21.6 76.6489 22.8667 76.1689 23.5112C75.3022 24.6712 74.32 26.4578 73.56 28.2623C73.2933 28.8889 73.2222 29.0178 73.1867 28.9512C73.1378 28.8623 73.1778 26.3023 73.24 25.5334C73.2933 24.88 73.32 24.84 74.7111 23.2445C79.5778 17.6534 82.04 13.6089 83.0889 9.46226C83.3511 8.42671 83.3867 8.09338 83.4089 6.3956C83.4356 4.59115 83.4089 4.26671 83.1733 3.5956C82.6267 2.02226 81.8445 1.0356 80.7778 0.564487C80.3511 0.37782 80.0133 0.306709 79.4622 0.280042C78.3333 0.226709 77.3156 0.528931 76.3156 1.21338C75.8578 1.52449 74.7956 2.58671 74.3911 3.13338C72.0667 6.28449 70.1778 11.7823 69.1378 18.4223C68.5333 22.2712 68.32 24.7823 68.2222 29.0889L68.1822 31L67.7467 31.4134C66.2489 32.84 64.4045 33.9467 62.9111 34.3156C62.1511 34.5023 60.9467 34.4712 60.0889 34.24C58.9422 33.9334 58.0489 32.9512 57.7111 31.6223C57.4045 30.4089 57.48 28.4489 57.8889 27.0223C58.4445 25.0889 59.5333 23.7867 60.7511 23.5956C61.2978 23.5112 61.68 23.6312 61.8711 23.9423C61.9689 24.0978 61.9778 24.1556 61.9778 24.7334C61.9733 25.28 61.96 25.4134 61.8445 25.8223C61.7378 26.2134 61.7156 26.3734 61.7156 26.8C61.7156 27.3912 61.7822 27.6 62.0711 27.8756C62.3511 28.1423 62.6133 28.2312 63.1867 28.2578C63.7778 28.28 64.1333 28.1956 64.56 27.92C65.5111 27.3067 66.1556 25.6445 66.0711 24.0223C65.9822 22.2223 65.0978 20.7556 63.6667 20.0445C62.7733 19.6 61.6845 19.4578 60.4133 19.6223C59.0222 19.8045 57.7733 20.32 56.56 21.2178C54.6578 22.6267 53.1911 24.9378 52.6533 27.3823C52.4489 28.2978 52.3556 29.4267 52.3556 30.9823V31.9423L51.6356 32.6489C50.8356 33.4312 50.3022 33.8534 49.8667 34.0623C49.6178 34.1778 49.5245 34.2 49.2222 34.2C48.8178 34.2 48.6133 34.1156 48.3733 33.8578C48.0578 33.5245 47.9289 33.0845 47.8667 32.1334C47.7956 31.0623 47.9245 30.08 48.5556 26.8889C49.3156 23.0223 49.5556 21.6178 49.5556 20.9734C49.5556 20.64 49.5422 20.56 49.4356 20.3689C49.1956 19.9378 49.0311 19.8 48.64 19.7067C47.9956 19.5512 46.4845 19.5912 45.9822 19.7823C45.1689 20.0845 44.8045 20.8089 44.1333 23.4445C43.7733 24.8756 43.3467 27.1156 43.1333 28.7334C43.04 29.4623 42.8889 30.9912 42.8889 31.2445C42.8889 31.3467 41.3822 32.7867 40.8845 33.1556C39.88 33.8978 39.0133 34.2178 37.9822 34.2223C37.1511 34.2223 36.6489 34.0267 36.1556 33.5067C35.7245 33.0445 35.3245 32.1245 35.2578 31.4178C35.2267 31.1067 35.2178 31.1245 36.0045 29.9956C39.7289 24.6445 42.6933 18.7556 44.0889 13.9512C44.8311 11.3956 45.2089 8.78226 45.1422 6.64449C45.1111 5.66226 45.0578 5.16004 44.9111 4.42226C44.6489 3.11115 44.1245 2.04449 43.3378 1.22671C42.7778 0.644487 42.3333 0.413376 41.5867 0.311154C41.1867 0.25782 40.5378 0.262265 40.1689 0.315598ZM40.3689 4.32893C40.6711 4.45338 40.9867 5.04449 41.0711 5.64449C41.1422 6.16449 41.1467 8.6756 41.0756 9.3556C40.8178 11.7734 40.2578 14.0534 39.2845 16.6534C38.6133 18.4445 38.2667 19.2312 37.1067 21.5556C36.1822 23.4178 35.5245 24.6489 35.1867 25.1689C34.9778 25.4845 34.9556 25.5067 34.92 25.4134C34.8311 25.1734 35.1111 21.3512 35.3556 19.4223C36.0133 14.2712 37.32 8.88449 38.6 6.04893C39.2356 4.63115 39.7956 4.08893 40.3689 4.32893ZM78.68 4.32893C79.0089 4.46226 79.3111 4.96004 79.4356 5.5556C79.5067 5.90671 79.5022 8.00449 79.4267 8.53338C79.3022 9.44893 78.8311 11.0578 78.3778 12.1334C77.88 13.3112 76.8445 15.2978 76.0756 16.5512C75.56 17.3912 74.4356 18.9423 73.9645 19.4667L73.7822 19.6667L73.7778 19.4889C73.7778 19.0978 74.3111 15.7423 74.6267 14.1556C75.3511 10.5423 76.2622 7.50226 77.1556 5.70226C77.5067 4.99115 77.7956 4.61338 78.1333 4.40893C78.4 4.24893 78.4711 4.24004 78.68 4.32893Z" fill="white"/>
<path d="M48.0533 10.5779C46.4444 10.8046 45.3022 11.7335 44.9511 13.1113C44.8355 13.5601 44.88 14.489 45.04 14.9335C45.2889 15.6313 45.7289 16.1513 46.3333 16.449C46.7911 16.6757 47.16 16.7513 47.9555 16.7868C49.3066 16.8401 50.0889 16.6357 50.9022 16.0135C51.3689 15.6535 51.8222 15.0135 51.9733 14.4979C52.1511 13.8801 52.1555 12.9468 51.9733 12.3246C51.88 12.009 51.6178 11.6179 51.3066 11.3424C51.0089 11.0713 50.2933 10.7024 49.9111 10.6224C49.6 10.5557 48.4222 10.529 48.0533 10.5779Z" fill="white"/>
<path d="M94.3156 10.582C93.7156 10.6754 93.0089 10.9865 92.5245 11.3732C91.9867 11.7998 91.64 12.2932 91.4356 12.9109C91.3378 13.2176 91.32 13.3465 91.3156 13.8443C91.3111 14.4932 91.4045 14.9198 91.6489 15.3776C91.9422 15.9287 92.5422 16.4265 93.1334 16.6087C93.9111 16.8487 95.4445 16.862 96.1556 16.6354C96.4934 16.5287 97.1022 16.2043 97.3867 15.9776C97.6978 15.7287 98.0089 15.3243 98.2045 14.9109C98.6356 14.0132 98.6667 12.8443 98.2845 12.0576C97.9511 11.3643 97.2 10.822 96.3334 10.6443C95.9111 10.5554 94.7245 10.5198 94.3156 10.582Z" fill="white"/>
</svg>
