<svg width="168" height="40" viewBox="0 0 168 40" fill="none" xmlns="http://www.w3.org/2000/svg">
<g clip-path="url(#clip0_212_226)">
<path d="M15.4946 40C10.733 40 6.96015 38.6724 4.17609 36.0173C1.39203 33.3622 0 29.5617 0 24.6159V15.3841C0 10.4402 1.39203 6.64025 4.17609 3.98415C6.96015 1.32805 10.733 0 15.4946 0C20.2203 0 23.8768 1.29121 26.4641 3.87364C29.0513 6.45607 30.3426 10.0001 30.3377 14.5058V14.8315H23.1866V14.2862C23.1866 12.015 22.5565 10.147 21.2963 8.68225C20.0361 7.21752 18.1022 6.48467 15.4946 6.4837C12.9296 6.4837 10.9152 7.27132 9.45145 8.84656C7.98769 10.4218 7.25484 12.5646 7.2529 15.275V24.7265C7.2529 27.4019 7.98575 29.5346 9.45145 31.1244C10.9172 32.7141 12.9315 33.511 15.4946 33.5149C18.0944 33.5149 20.0269 32.7728 21.2919 31.2887C22.557 29.8045 23.1871 27.9458 23.1822 25.7123V24.7192H30.3261V25.4898C30.3261 29.9945 29.0349 33.5381 26.4524 36.1205C23.87 38.703 20.2174 39.9961 15.4946 40Z" fill="white"/>
<path d="M51.2094 40C46.3751 40 42.5286 38.6724 39.6699 36.0173C36.8112 33.3622 35.3828 29.5617 35.3848 24.6159V15.3841C35.3848 10.4402 36.8131 6.64025 39.6699 3.98415C42.5267 1.32805 46.3732 0 51.2094 0C56.0447 0 59.8907 1.32805 62.7474 3.98415C65.6042 6.64025 67.0326 10.4402 67.0326 15.3841V24.6159C67.0326 29.5598 65.6037 33.3602 62.746 36.0173C59.8883 38.6744 56.0427 40.0019 51.2094 40ZM51.2094 33.5178C53.9237 33.5178 56.0296 32.7297 57.5273 31.1534C59.025 29.5772 59.7763 27.4713 59.7811 24.8355V15.1645C59.7811 12.5278 59.0299 10.4218 57.5273 8.84656C56.0248 7.27132 53.9188 6.4837 51.2094 6.4837C48.5359 6.4837 46.4386 7.27132 44.9176 8.84656C43.3967 10.4218 42.6367 12.5278 42.6377 15.1645V24.8355C42.6377 27.4732 43.3977 29.5792 44.9176 31.1534C46.4376 32.7277 48.5349 33.5158 51.2094 33.5178Z" fill="white"/>
<path d="M121.269 40C118.301 40 115.684 39.4668 113.417 38.4005C111.151 37.3342 109.375 35.8142 108.088 33.8406C106.805 31.863 106.164 29.4822 106.165 26.6982V25.1656H113.307V26.704C113.307 29.0121 114.021 30.7429 115.45 31.8965C116.879 33.05 118.819 33.6268 121.269 33.6268C123.759 33.6268 125.618 33.1324 126.846 32.1437C128.074 31.1549 128.687 29.8918 128.685 28.3544C128.685 27.288 128.383 26.4267 127.778 25.7705C127.173 25.1142 126.293 24.5738 125.137 24.1492C123.763 23.6674 122.36 23.275 120.935 22.9743L119.67 22.6922C117.032 22.1106 114.77 21.369 112.884 20.4675C110.997 19.566 109.551 18.3848 108.543 16.9239C107.534 15.4582 107.03 13.5534 107.031 11.2094C107.032 8.86546 107.591 6.85982 108.708 5.19248C109.824 3.52612 111.4 2.24411 113.433 1.34647C115.467 0.448823 117.858 0 120.605 0C123.352 0 125.797 0.466756 127.941 1.40027C130.084 2.33378 131.769 3.7263 132.995 5.57781C134.222 7.42739 134.836 9.74421 134.836 12.5283V14.1757H127.694V12.5283C127.694 11.0626 127.409 9.88089 126.841 8.98324C126.262 8.07668 125.404 7.38274 124.396 7.00571C123.329 6.585 122.066 6.37464 120.605 6.37464C118.408 6.37464 116.787 6.78663 115.743 7.6106C114.698 8.43457 114.176 9.56099 114.176 10.9899C114.176 11.9428 114.424 12.7483 114.918 13.4065C115.412 14.0647 116.154 14.6144 117.143 15.0554C118.365 15.5668 119.635 15.9531 120.935 16.2085L122.199 16.4833C124.945 17.0708 127.335 17.822 129.369 18.7371C131.402 19.6522 132.987 20.8606 134.122 22.3621C135.256 23.8656 135.824 25.7889 135.825 28.1319C135.826 30.4749 135.23 32.5363 134.039 34.316C132.848 36.091 131.163 37.4825 128.985 38.4907C126.807 39.4988 124.235 40.0019 121.269 40Z" fill="white"/>
<path d="M148.897 39.2306V7.36179H137.7V0.769043H167.363V7.36179H156.154V39.2306H148.897Z" fill="white"/>
<path d="M93.1884 0.769043H80.5497L70.4395 39.2321H77.912L80 30.7694L81.7042 24.0661L86.3747 5.32901H87.3634L92.0339 24.0661L93.7366 30.7694L95.8247 39.2321H103.297L93.1884 0.769043Z" fill="white"/>
<path d="M80.4667 28.936L86.869 39.2323L93.2713 28.936H80.4667Z" fill="white"/>
</g>
<defs>
<clipPath id="clip0_212_226">
<rect width="167.363" height="40" fill="white"/>
</clipPath>
</defs>
</svg>
