<svg width="91" height="40" viewBox="0 0 91 40" fill="none" xmlns="http://www.w3.org/2000/svg">
<path d="M27.6918 21.8787H21.2385C20.3318 19.212 17.7185 17.1853 14.2518 17.1853C9.39849 17.1853 6.35849 20.812 6.35849 25.292C6.35849 29.7187 9.39849 33.3987 14.2518 33.3987C17.6118 33.3987 20.3318 31.4253 21.2385 28.5987H27.6918C26.5185 34.732 21.2918 39.2653 14.1985 39.2653C5.71849 39.2653 0.225159 33.0787 0.225159 25.2387C0.225159 17.3987 5.71849 11.2653 14.1985 11.2653C21.2918 11.2653 26.5185 15.7453 27.6918 21.8787ZM45.1437 39.2653C36.5037 39.2653 30.797 33.0787 30.797 25.2387C30.797 17.3987 36.4503 11.2653 45.1437 11.2653C53.677 11.2653 59.277 17.3987 59.277 25.2387C59.277 33.0787 53.6237 39.2653 45.1437 39.2653ZM45.1437 33.3987C49.9437 33.3987 53.1437 29.7187 53.1437 25.292C53.1437 20.7587 49.9437 17.1853 45.1437 17.1853C40.1837 17.1853 36.9837 20.7587 36.9837 25.292C36.9837 29.772 40.237 33.3987 45.1437 33.3987ZM64.2726 0.118652H70.4059V8.22532H64.2726V0.118652ZM64.2726 12.012H70.4059V38.5187H64.2726V12.012ZM76.8192 31.2653V0.118652H82.9526V30.252C82.9526 31.7453 83.8592 32.5987 85.3526 32.5987H89.2459V38.5187H84.2859C79.4859 38.5187 76.8192 35.852 76.8192 31.2653Z" fill="white"/>
</svg>
