<svg width="86" height="40" viewBox="0 0 86 40" fill="none" xmlns="http://www.w3.org/2000/svg">
<g clip-path="url(#clip0_331_154)">
<path d="M8.9871 13.9484C8.80903 12.6736 7.60129 11.6955 6.22452 11.6955C3.72516 11.6955 2.79226 13.8517 2.79226 16.1046C2.79226 18.2517 3.73419 20.4091 6.22452 20.4091C7.92258 20.4091 8.88387 19.2207 9.09161 17.5239H11.7884C11.5045 20.7252 9.32774 22.7858 6.22452 22.7858C2.30968 22.7871 0 19.8142 0 16.1046C0 12.2904 2.30065 9.31746 6.22452 9.31746C9.00645 9.31746 11.3458 10.9768 11.6852 13.9484H8.9871ZM17.4 20.8117C19.1161 20.8117 19.6348 19.3149 19.6348 17.84C19.6348 16.3433 19.1252 14.8491 17.4 14.8491C15.7019 14.8491 15.1832 16.3446 15.1832 17.84C15.1832 19.3162 15.7019 20.8117 17.4 20.8117ZM17.4 12.9226C20.2852 12.9226 22.1432 14.8684 22.1432 17.8387C22.1432 20.7923 20.2852 22.7381 17.4 22.7381C14.5329 22.7381 12.6645 20.7923 12.6645 17.84C12.6748 14.8684 14.5329 12.9226 17.4 12.9226ZM23.4258 13.1704H25.8219V14.4646H25.8787C26.1725 13.9869 26.5846 13.593 27.0751 13.3211C27.5656 13.0492 28.1179 12.9084 28.6787 12.9123C31.3574 12.9123 32.0271 14.4452 32.0271 16.7458V22.4878H29.5097V17.2258C29.5097 15.6917 29.0658 14.9342 27.8968 14.9342C26.529 14.9342 25.9445 15.711 25.9445 17.5987V22.4878H23.4258V13.1717V13.1704ZM35.5252 19.4607C35.5445 20.582 36.4684 21.0323 37.4594 21.0323C38.1845 21.0323 39.1097 20.7446 39.1097 19.8439C39.1097 19.0671 38.0619 18.7987 36.2606 18.4052C34.809 18.08 33.3574 17.5626 33.3574 15.9226C33.3574 13.5458 35.3742 12.9329 37.3445 12.9329C39.3445 12.9329 41.1935 13.6129 41.3832 15.9033H38.9871C38.92 14.9162 38.1755 14.6478 37.271 14.6478C36.7032 14.6478 35.8748 14.7536 35.8748 15.511C35.8748 16.431 37.289 16.5562 38.7316 16.9007C40.2026 17.2452 41.6374 17.782 41.6374 19.5071C41.6374 21.9613 39.5432 22.7484 37.4594 22.7484C35.3277 22.7484 33.2619 21.9329 33.1497 19.4697H35.5252V19.4607ZM48.9084 16.4491C48.7484 15.4039 48.0968 14.8491 47.0503 14.8491C45.4374 14.8491 44.9097 16.5071 44.9097 17.8775C44.9097 19.2104 45.4284 20.8117 47.0039 20.8117C48.1729 20.8117 48.8426 20.0542 49.0039 18.9226H51.4258C51.1058 21.3871 49.4271 22.7381 47.0129 22.7381C44.249 22.7381 42.391 20.7536 42.391 17.9639C42.391 15.0697 44.089 12.9226 47.0697 12.9226C49.2297 12.9226 51.2194 14.0723 51.3794 16.4491H48.9084ZM52.5768 13.1717H55.0968V22.4878H52.5781L52.5768 13.1717ZM55.0968 11.7329H52.5781V9.62585H55.0968V11.7329ZM61.1226 20.8117C62.8387 20.8117 63.3561 19.3149 63.3561 17.84C63.3561 16.3433 62.8374 14.8491 61.1213 14.8491C59.4245 14.8491 58.9058 16.3446 58.9058 17.84C58.9058 19.3162 59.4155 20.8117 61.1226 20.8117ZM61.1226 12.9226C64.0077 12.9226 65.8658 14.8684 65.8658 17.8387C65.8658 20.7923 64.0077 22.7381 61.1213 22.7381C58.2542 22.7381 56.3871 20.7923 56.3871 17.84C56.3871 14.8684 58.2452 12.9226 61.1226 12.9226ZM75.6645 22.4891H73.2684V21.1949H73.2116C72.9178 21.6726 72.5057 22.0664 72.0152 22.3383C71.5248 22.6102 70.9724 22.751 70.4116 22.7471C67.7329 22.7471 67.0632 21.2142 67.0632 18.9136V13.191H69.5806V18.4517C69.5806 19.9858 70.0245 20.7433 71.1936 20.7433C72.5613 20.7433 73.1458 19.9665 73.1458 18.0775V13.2H75.6632V22.4878L75.6645 22.4891ZM79.0684 19.4607C79.0865 20.582 80.0103 21.0323 81.0013 21.0323C81.7277 21.0323 82.6529 20.7446 82.6529 19.8439C82.6529 19.0671 81.6052 18.7987 79.8039 18.4052C78.351 18.08 76.8994 17.5626 76.8994 15.9226C76.8994 13.5458 78.9174 12.9329 80.8877 12.9329C82.8877 12.9329 84.7368 13.6129 84.9252 15.9033H82.52C82.4439 14.9162 81.7084 14.6478 80.8039 14.6478C80.2374 14.6478 79.4077 14.7536 79.4077 15.511C79.4077 16.431 80.8219 16.5562 82.2555 16.9007C83.7265 17.2452 85.1613 17.782 85.1613 19.5071C85.1613 21.9613 83.0671 22.7484 80.9832 22.7484C78.8607 22.7484 76.7858 21.9329 76.6826 19.4697H79.0684V19.4607ZM1.58452 26.831H4.36645V31.7678H9.48645V26.831H12.271V39.6955H9.48645V34.1446H4.36645V39.6942H1.58452V26.8297V26.831ZM18.4761 38.0168C20.1923 38.0168 20.711 36.5226 20.711 35.0465C20.711 33.5497 20.2013 32.0555 18.4761 32.0555C16.7781 32.0555 16.2594 33.551 16.2594 35.0465C16.2594 36.5226 16.769 38.0168 18.4748 38.0168H18.4761ZM18.4761 30.1291C21.3613 30.1291 23.2194 32.0749 23.2194 35.0452C23.2194 37.9987 21.3613 39.9446 18.4748 39.9446C15.609 39.9446 13.7406 37.9987 13.7406 35.0465C13.7406 32.0749 15.5987 30.1291 18.4761 30.1291ZM27.529 30.3781H29.3677V32.0942H27.529V36.7046C27.529 37.5665 27.7458 37.7884 28.5948 37.7884C28.8594 37.7884 29.1135 37.7678 29.3781 37.711V39.7136C28.9523 39.791 28.4065 39.8 27.9071 39.8C26.369 39.8 25.0206 39.4362 25.0206 37.5858V32.0929H23.4929V30.3768H25.0206V27.5884H27.5394V30.3781H27.529ZM36.3355 34.0387C36.1097 32.7458 35.5536 32.0555 34.3368 32.0555C32.7432 32.0555 32.2813 33.32 32.2439 34.04H36.3368L36.3355 34.0387ZM32.2439 35.6594C32.3187 37.28 33.0916 38.0181 34.4968 38.0181C35.5058 38.0181 36.3265 37.3858 36.4774 36.8104H38.6942C37.9871 39.0039 36.4774 39.9446 34.4026 39.9446C31.5174 39.9446 29.7252 37.9213 29.7252 35.0465C29.7252 32.2568 31.6219 30.1291 34.4026 30.1291C37.5252 30.1291 39.0245 32.7936 38.8542 35.6594H32.2439ZM42.5523 26.831H40.0335V39.6852H42.5523V26.831ZM46.1368 36.6658C46.1548 37.7871 47.0787 38.2375 48.0697 38.2375C48.7961 38.2375 49.7213 37.9497 49.7213 37.0491C49.7213 36.2723 48.6736 36.0039 46.8723 35.6104C45.4194 35.2852 43.9677 34.7678 43.9677 33.1278C43.9677 30.751 45.9858 30.1368 47.9574 30.1368C49.9574 30.1368 51.8052 30.8181 51.9935 33.1084H49.5974C49.5226 32.1213 48.7871 31.8529 47.8813 31.8529C47.3161 31.8529 46.4852 31.9587 46.4852 32.7162C46.4852 33.6362 47.9006 33.7613 49.3432 34.1058C50.8142 34.4504 52.2477 34.9871 52.2477 36.7123C52.2477 39.1665 50.1548 39.9536 48.0697 39.9536C45.9381 39.9536 43.8736 39.1381 43.76 36.6749H46.1368V36.6658ZM32.0181 0.0581055H1.58452V4.25681H32.0181V0.0581055Z" fill="white"/>
</g>
<defs>
<clipPath id="clip0_331_154">
<rect width="85.1613" height="40" fill="white"/>
</clipPath>
</defs>
</svg>
