<svg width="266" height="40" viewBox="0 0 266 40" fill="none" xmlns="http://www.w3.org/2000/svg">
<g clip-path="url(#clip0_203_122)">
<path fill-rule="evenodd" clip-rule="evenodd" d="M41.6327 29.9874H12.0249V20.0208L23.2968 13.5108L41.6327 23.6647V10.1624L23.2796 0L0 13.4404V41.6327H41.6327V29.9874Z" fill="white"/>
<path d="M159.701 35.2719V30.7896C159.339 30.9861 158.971 31.1495 158.599 31.2835C158.06 31.4772 157.397 31.5659 156.63 31.5659H156.517L156.51 31.5594C155.467 31.5398 154.634 31.2504 154.06 30.6481C153.467 30.026 153.194 29.1175 153.194 27.9744V19.4216H159.549V14.4758H153.194V6.91797L146.965 8.58948V28.8602C146.965 30.4397 147.257 31.8083 147.836 32.969C148.413 34.1305 149.264 35.025 150.393 35.6666C151.52 36.3015 152.908 36.6312 154.57 36.6312C155.767 36.6312 156.753 36.5078 157.532 36.2736C158.276 36.0451 158.997 35.7131 159.701 35.2719Z" fill="white"/>
<path d="M143.382 19.4109H137.262V35.8597H131.033V19.4109H127.199V14.4651H131.033V12.5101C131.033 9.79795 131.74 7.73411 133.126 6.2786C134.505 4.82856 136.559 4.08154 139.337 4.08154C140.306 4.08154 141.196 4.17754 142.009 4.36268C142.747 4.53175 143.339 4.75069 143.785 5.00554V9.46856C142.985 9.10015 142.021 8.92407 140.904 8.92407C139.694 8.92407 138.756 9.19681 138.145 9.80881C137.538 10.4172 137.262 11.3047 137.262 12.4232V14.4651H143.382V19.4109Z" fill="white"/>
<path d="M76.6199 36.033C78.2334 35.5821 79.6508 34.9575 80.8653 34.1666V28.3666C79.8231 29.0504 78.6613 29.6093 77.3886 30.0446L77.3889 30.0463C75.9286 30.5451 74.4184 30.7945 72.8649 30.7945C70.7515 30.7945 68.8895 30.3741 67.2927 29.5293C65.698 28.6856 64.4659 27.5085 63.6036 26.0047C62.7473 24.5016 62.3196 22.7678 62.3196 20.8562C62.3196 18.9444 62.7415 17.2434 63.6038 15.7506C64.4611 14.2573 65.6882 13.0966 67.272 12.2694C68.8581 11.4356 70.7036 11.0264 72.7998 11.0264C74.4077 11.0264 75.9197 11.2867 77.3287 11.7981C78.548 12.2424 79.6726 12.8184 80.6972 13.526V7.49403C79.5362 6.81011 78.1982 6.24261 76.6713 5.79803C75.0944 5.33893 73.358 5.10791 71.4604 5.10791C68.2521 5.10791 65.4527 5.79461 63.0486 7.15379C60.6419 8.51428 58.7866 10.4004 57.4776 12.816C56.1681 15.2323 55.5102 17.9844 55.5102 21.0681C55.5102 23.9988 56.1407 26.6439 57.3873 29.0248C58.631 31.4002 60.4481 33.2753 62.8395 34.6577C65.2306 36.0421 68.0718 36.7348 71.3791 36.7348C73.2045 36.7348 74.953 36.4988 76.6199 36.033Z" fill="white"/>
<path fill-rule="evenodd" clip-rule="evenodd" d="M105.692 15.3564C104.206 16.3865 103.066 17.7652 102.273 19.4992C101.477 21.2376 101.078 23.0672 101.078 25.2086C101.078 27.3548 101.451 29.2833 102.198 30.9987L102.199 30.9994C102.94 32.7111 104.014 34.0553 105.418 35.0457C106.815 36.0256 108.466 36.5226 110.396 36.5226C112.031 36.5226 113.442 36.1268 114.633 35.3448L114.633 35.3445C115.84 34.5557 116.745 33.5389 117.356 32.2814H117.878V35.8651H123.998V14.4705H117.769V17.6725H117.25C116.609 16.4093 115.748 15.4554 114.673 14.8C113.598 14.1446 112.353 13.813 110.927 13.813C108.916 13.813 107.177 14.3317 105.692 15.3564ZM117.262 21.9601L117.263 21.9614C117.671 22.893 117.878 23.959 117.878 25.1487C117.878 26.3394 117.665 27.4069 117.239 28.34C116.812 29.2751 116.194 30.0125 115.393 30.5376C114.59 31.0643 113.637 31.3269 112.63 31.3269C111.624 31.3269 110.716 31.0813 109.92 30.5843C109.123 30.0865 108.509 29.3754 108.081 28.4499C107.654 27.5321 107.442 26.491 107.442 25.2575C107.442 24.0248 107.654 22.9294 108.091 21.9785C108.528 21.0289 109.146 20.2857 109.948 19.76C110.749 19.2337 111.67 18.9707 112.711 18.9707C113.752 18.9707 114.668 19.2337 115.46 19.761L115.461 19.7616C116.246 20.2876 116.847 21.0258 117.262 21.9601Z" fill="white"/>
<path d="M185.52 29.0748L181.475 14.4707H175.069L171.033 28.9451L167.446 14.4707H161.246L167.314 35.8652H173.595L178.052 20.9968L182.624 35.8652H189.04L195.606 14.4707H189.474L185.52 29.0748Z" fill="white"/>
<path fill-rule="evenodd" clip-rule="evenodd" d="M214.16 15.231C215.815 16.1275 217.122 17.3675 218.09 18.9633L218.249 19.2436C219.231 20.9733 219.726 22.9734 219.726 25.2521C219.726 27.529 219.226 29.4517 218.229 31.1484C217.23 32.8537 215.858 34.1715 214.113 35.1097C212.361 36.0483 210.394 36.5227 208.206 36.5227C206.018 36.5227 204.079 36.0537 202.344 35.1105L202.344 35.1102C200.609 34.1722 199.247 32.855 198.26 31.1498L198.259 31.1489C197.268 29.4528 196.773 27.4866 196.773 25.2521C196.773 23.0159 197.263 20.9724 198.239 19.243C199.217 17.5111 200.567 16.1786 202.307 15.2306C204.042 14.2874 206.007 13.8076 208.211 13.8076C210.416 13.8076 212.41 14.2824 214.16 15.231ZM210.954 30.2185L210.953 30.5537C210.171 31.0712 209.243 31.3215 208.206 31.3215C207.168 31.3215 206.262 31.0706 205.489 30.5524C204.72 30.0367 204.135 29.3143 203.725 28.3857C203.322 27.4645 203.122 26.4303 203.122 25.2087C203.122 23.9904 203.31 22.9131 203.713 21.979C204.117 21.0455 204.701 20.3062 205.477 19.779C206.254 19.2501 207.16 18.9871 208.206 18.9871C209.251 18.9871 210.179 19.2495 210.962 19.7785C211.749 20.3059 212.338 21.0509 212.747 21.9892L212.748 21.9905C213.119 22.8554 213.318 23.8387 213.347 24.9319H213.356V25.2087C213.356 26.3973 213.155 27.459 212.74 28.387C212.326 29.3155 211.729 30.0435 210.953 30.5537L210.954 30.5535V30.2185Z" fill="white"/>
<path d="M252.371 23.8915L260.719 14.4653H253.375L246.276 23.4698V5.10791H240.09V35.8653H246.276V24.7825L254.04 35.8653H261.224L252.371 24.0954V23.8915Z" fill="white"/>
<path d="M99.4555 19.8327H91.2881V35.8598H85.173V14.5522H99.4555V19.8327Z" fill="white"/>
<path d="M229.166 19.8326H237.333V14.5522H223.051V35.8598H229.166V19.8326Z" fill="white"/>
</g>
<defs>
<clipPath id="clip0_203_122">
<rect width="265.306" height="40" fill="white"/>
</clipPath>
</defs>
</svg>
