<svg width="82" height="24" viewBox="0 0 82 24" fill="none" xmlns="http://www.w3.org/2000/svg">
<mask id="mask0_391_271" style="mask-type:luminance" maskUnits="userSpaceOnUse" x="0" y="4" width="16" height="16">
<path d="M16 4H0V20H16V4Z" fill="white"/>
</mask>
<g mask="url(#mask0_391_271)">
<path d="M15.8676 7.323L12.6764 4.13234C12.5004 3.95589 12.2151 3.95589 12.0382 4.13234L1.50889 14.6617C1.33244 14.8382 1.33244 15.123 1.50889 15.3004C1.82889 15.6199 0.113333 18.8377 0 19.0764L0.919111 19.9999C1.15733 19.8866 4.37911 18.171 4.69956 18.491C4.876 18.6675 5.16133 18.6675 5.33778 18.491L15.8676 7.96123C16.044 7.78523 16.044 7.49945 15.8676 7.323Z" fill="#CCCCCC"/>
<path d="M1.83984 14.3285L11.7367 4.43164L15.5678 8.26275L5.67095 18.1596L1.83984 14.3285Z" fill="#CCCCCC"/>
<path d="M10.4598 5.70951L11.0985 5.07129L14.9296 8.9024L14.291 9.54062L10.4598 5.70951ZM2.47852 13.6904L3.11674 13.0517L6.94785 16.8829L6.30918 17.5215L2.47852 13.6904Z" fill="black"/>
<path d="M11.9495 8.1563C11.2735 7.4803 9.29085 8.36786 7.51974 10.1381C5.74951 11.9087 4.8624 13.8918 5.53796 14.5678C6.21351 15.2438 8.19707 14.3563 9.96774 12.5861C11.738 10.8154 12.6251 8.83186 11.9495 8.1563Z" fill="#CCCCCC"/>
</g>
<path d="M27.712 17.1596C26.6987 17.1596 25.8293 16.9943 25.104 16.6636C24.3893 16.3329 23.8293 15.8476 23.424 15.2076C23.0293 14.5676 22.8107 13.7729 22.768 12.8236C22.7573 12.3863 22.752 11.9169 22.752 11.4156C22.752 10.9143 22.7573 10.4343 22.768 9.97565C22.8107 9.04765 23.0347 8.26365 23.44 7.62365C23.8453 6.97298 24.4107 6.48232 25.136 6.15165C25.8613 5.81032 26.72 5.63965 27.712 5.63965C28.416 5.63965 29.0667 5.73032 29.664 5.91165C30.2613 6.08232 30.784 6.33832 31.232 6.67965C31.68 7.01032 32.0267 7.41565 32.272 7.89565C32.528 8.36498 32.6613 8.89832 32.672 9.49565C32.6827 9.59165 32.6507 9.67165 32.576 9.73565C32.512 9.79965 32.432 9.83165 32.336 9.83165H30.176C30.0373 9.83165 29.9307 9.80498 29.856 9.75165C29.7813 9.68765 29.7173 9.57565 29.664 9.41565C29.5147 8.85032 29.2693 8.46632 28.928 8.26365C28.5973 8.05032 28.1867 7.94365 27.696 7.94365C27.1093 7.94365 26.6453 8.10898 26.304 8.43965C25.9627 8.75965 25.776 9.29832 25.744 10.0556C25.712 10.9303 25.712 11.8263 25.744 12.7436C25.776 13.5009 25.9627 14.0449 26.304 14.3756C26.6453 14.6956 27.1093 14.8556 27.696 14.8556C28.1867 14.8556 28.6027 14.7489 28.944 14.5356C29.2853 14.3223 29.5253 13.9383 29.664 13.3836C29.7067 13.2236 29.7653 13.1169 29.84 13.0636C29.9253 12.9996 30.0373 12.9676 30.176 12.9676H32.336C32.432 12.9676 32.512 12.9996 32.576 13.0636C32.6507 13.1276 32.6827 13.2076 32.672 13.3036C32.6613 13.9009 32.528 14.4396 32.272 14.9196C32.0267 15.3889 31.68 15.7943 31.232 16.1356C30.784 16.4663 30.2613 16.7223 29.664 16.9036C29.0667 17.0743 28.416 17.1596 27.712 17.1596ZM34.2584 16.9996C34.141 16.9996 34.045 16.9623 33.9704 16.8876C33.8957 16.8129 33.8584 16.7169 33.8584 16.5996V9.07965C33.8584 8.97298 33.8957 8.88232 33.9704 8.80765C34.045 8.72232 34.141 8.67965 34.2584 8.67965H36.0984C36.2157 8.67965 36.3117 8.72232 36.3864 8.80765C36.461 8.88232 36.4984 8.97298 36.4984 9.07965V9.71965C36.7864 9.38898 37.1277 9.13298 37.5224 8.95165C37.9277 8.77032 38.381 8.67965 38.8824 8.67965H39.5864C39.693 8.67965 39.7837 8.71698 39.8584 8.79165C39.9437 8.86632 39.9864 8.96232 39.9864 9.07965V10.7276C39.9864 10.8343 39.9437 10.9303 39.8584 11.0156C39.7837 11.0903 39.693 11.1276 39.5864 11.1276H38.0344C37.597 11.1276 37.2557 11.2503 37.0104 11.4956C36.7757 11.7303 36.6584 12.0663 36.6584 12.5036V16.5996C36.6584 16.7169 36.6157 16.8129 36.5304 16.8876C36.4557 16.9623 36.3597 16.9996 36.2424 16.9996H34.2584ZM55.716 20.0396C55.62 20.0396 55.54 20.0076 55.476 19.9436C55.412 19.8796 55.38 19.7996 55.38 19.7036C55.38 19.6823 55.38 19.6503 55.38 19.6076C55.3907 19.5756 55.4067 19.5383 55.428 19.4956L56.676 16.4876L53.604 9.22365C53.572 9.14898 53.556 9.08498 53.556 9.03165C53.5773 8.93565 53.62 8.85565 53.684 8.79165C53.748 8.71698 53.828 8.67965 53.924 8.67965H55.748C55.8867 8.67965 55.988 8.71698 56.052 8.79165C56.1267 8.85565 56.1747 8.93032 56.196 9.01565L58.036 13.6716L59.908 9.01565C59.9507 8.93032 60.004 8.85565 60.068 8.79165C60.1427 8.71698 60.2493 8.67965 60.388 8.67965H62.18C62.276 8.67965 62.356 8.71698 62.42 8.79165C62.4947 8.85565 62.532 8.93032 62.532 9.01565C62.532 9.06898 62.516 9.13832 62.484 9.22365L57.956 19.7036C57.924 19.7889 57.8707 19.8636 57.796 19.9276C57.7213 20.0023 57.6147 20.0396 57.476 20.0396H55.716ZM67.0144 17.1596C66.1184 17.1596 65.361 17.0156 64.7424 16.7276C64.1344 16.4396 63.665 16.0289 63.3344 15.4956C63.0144 14.9516 62.833 14.3063 62.7904 13.5596C62.7797 13.3463 62.7744 13.1063 62.7744 12.8396C62.7744 12.5623 62.7797 12.3223 62.7904 12.1196C62.833 11.3623 63.025 10.7169 63.3664 10.1836C63.7077 9.65032 64.1824 9.23965 64.7904 8.95165C65.409 8.66365 66.1504 8.51965 67.0144 8.51965C67.889 8.51965 68.6304 8.66365 69.2384 8.95165C69.857 9.23965 70.337 9.65032 70.6784 10.1836C71.0197 10.7169 71.2117 11.3623 71.2544 12.1196C71.265 12.3223 71.2704 12.5623 71.2704 12.8396C71.2704 13.1063 71.265 13.3463 71.2544 13.5596C71.2117 14.3063 71.025 14.9516 70.6944 15.4956C70.3744 16.0289 69.905 16.4396 69.2864 16.7276C68.6784 17.0156 67.921 17.1596 67.0144 17.1596ZM67.0144 15.2076C67.4944 15.2076 67.841 15.0636 68.0544 14.7756C68.2784 14.4876 68.4064 14.0556 68.4384 13.4796C68.449 13.3196 68.4544 13.1063 68.4544 12.8396C68.4544 12.5729 68.449 12.3596 68.4384 12.1996C68.4064 11.6343 68.2784 11.2076 68.0544 10.9196C67.841 10.6209 67.4944 10.4716 67.0144 10.4716C66.545 10.4716 66.1984 10.6209 65.9744 10.9196C65.7504 11.2076 65.6277 11.6343 65.6064 12.1996C65.5957 12.3596 65.5904 12.5729 65.5904 12.8396C65.5904 13.1063 65.5957 13.3196 65.6064 13.4796C65.6277 14.0556 65.7504 14.4876 65.9744 14.7756C66.1984 15.0636 66.545 15.2076 67.0144 15.2076ZM72.924 16.9996C72.8067 16.9996 72.7107 16.9623 72.636 16.8876C72.5613 16.8129 72.524 16.7169 72.524 16.5996V9.07965C72.524 8.96232 72.5613 8.86632 72.636 8.79165C72.7107 8.71698 72.8067 8.67965 72.924 8.67965H74.764C74.8813 8.67965 74.9773 8.71698 75.052 8.79165C75.1267 8.86632 75.164 8.96232 75.164 9.07965V9.68765C75.4413 9.35698 75.804 9.07965 76.252 8.85565C76.7 8.63165 77.228 8.51965 77.836 8.51965C78.4547 8.51965 78.9987 8.65832 79.468 8.93565C79.948 9.21298 80.3213 9.62365 80.588 10.1676C80.8653 10.7009 81.004 11.3569 81.004 12.1356V16.5996C81.004 16.7169 80.9613 16.8129 80.876 16.8876C80.8013 16.9623 80.7107 16.9996 80.604 16.9996H78.588C78.4813 16.9996 78.3853 16.9623 78.3 16.8876C78.2253 16.8129 78.188 16.7169 78.188 16.5996V12.2316C78.188 11.7303 78.0653 11.3463 77.82 11.0796C77.5853 10.8023 77.2333 10.6636 76.764 10.6636C76.3267 10.6636 75.9747 10.8023 75.708 11.0796C75.452 11.3463 75.324 11.7303 75.324 12.2316V16.5996C75.324 16.7169 75.2813 16.8129 75.196 16.8876C75.1213 16.9623 75.0307 16.9996 74.924 16.9996H72.924Z" fill="#F2F2F2"/>
<path d="M43.3 17.1602C42.724 17.1602 42.2067 17.0535 41.748 16.8402C41.3 16.6162 40.9427 16.3175 40.676 15.9442C40.4093 15.5709 40.276 15.1495 40.276 14.6802C40.276 13.9229 40.5853 13.3255 41.204 12.8882C41.8227 12.4402 42.644 12.1362 43.668 11.9762L45.668 11.6722V11.4482C45.668 11.0642 45.588 10.7709 45.428 10.5682C45.268 10.3655 44.9747 10.2642 44.548 10.2642C44.2493 10.2642 44.004 10.3229 43.812 10.4402C43.6307 10.5575 43.4867 10.7175 43.38 10.9202C43.284 11.0589 43.1507 11.1282 42.98 11.1282H41.188C41.0707 11.1282 40.98 11.0962 40.916 11.0322C40.852 10.9575 40.8253 10.8722 40.836 10.7762C40.836 10.5842 40.9053 10.3655 41.044 10.1202C41.1933 9.86423 41.4173 9.61356 41.716 9.36823C42.0147 9.1229 42.3987 8.92023 42.868 8.76023C43.3373 8.60023 43.9027 8.52024 44.564 8.52024C45.2573 8.52024 45.8493 8.60023 46.34 8.76023C46.8307 8.92023 47.2253 9.14423 47.524 9.43223C47.8333 9.72023 48.0627 10.0615 48.212 10.4562C48.3613 10.8402 48.436 11.2669 48.436 11.7362V16.6002C48.436 16.7175 48.3933 16.8135 48.308 16.8882C48.2333 16.9629 48.1427 17.0002 48.036 17.0002H46.18C46.0627 17.0002 45.9667 16.9629 45.892 16.8882C45.8173 16.8135 45.78 16.7175 45.78 16.6002V16.0402C45.6413 16.2429 45.4547 16.4295 45.22 16.6002C44.9853 16.7709 44.708 16.9042 44.388 17.0002C44.0787 17.1069 43.716 17.1602 43.3 17.1602ZM44.052 15.3362C44.3613 15.3362 44.6387 15.2722 44.884 15.1442C45.14 15.0055 45.3373 14.7975 45.476 14.5202C45.6253 14.2322 45.7 13.8749 45.7 13.4482V13.2242L44.34 13.4642C43.8387 13.5495 43.4707 13.6829 43.236 13.8642C43.012 14.0349 42.9 14.2375 42.9 14.4722C42.9 14.6535 42.9533 14.8082 43.06 14.9362C43.1667 15.0642 43.3053 15.1655 43.476 15.2402C43.6467 15.3042 43.8387 15.3362 44.052 15.3362ZM50.3215 17.0002C50.2042 17.0002 50.1082 16.9629 50.0335 16.8882C49.9588 16.8135 49.9215 16.7175 49.9215 16.6002V9.08023C49.9215 8.9629 49.9588 8.8669 50.0335 8.79223C50.1082 8.71756 50.2042 8.68023 50.3215 8.68023H52.2095C52.3162 8.68023 52.4068 8.71756 52.4815 8.79223C52.5668 8.8669 52.6095 8.9629 52.6095 9.08023V16.6002C52.6095 16.7175 52.5668 16.8135 52.4815 16.8882C52.4068 16.9629 52.3162 17.0002 52.2095 17.0002H50.3215ZM50.3055 7.48023C50.1882 7.48023 50.0922 7.4429 50.0175 7.36823C49.9428 7.29356 49.9055 7.19756 49.9055 7.08023V5.65623C49.9055 5.5389 49.9428 5.4429 50.0175 5.36823C50.0922 5.2829 50.1882 5.24023 50.3055 5.24023H52.2095C52.3268 5.24023 52.4228 5.2829 52.4975 5.36823C52.5828 5.4429 52.6255 5.5389 52.6255 5.65623V7.08023C52.6255 7.19756 52.5828 7.29356 52.4975 7.36823C52.4228 7.4429 52.3268 7.48023 52.2095 7.48023H50.3055Z" fill="#CCCCCC"/>
</svg>
