<svg width="135" height="40" viewBox="0 0 135 40" fill="none" xmlns="http://www.w3.org/2000/svg">
<path d="M48.2346 32V27.584H53.8347C55.2 27.584 56.3947 27.3173 57.4187 26.784C58.4427 26.2293 59.232 25.4293 59.7867 24.384C60.3413 23.3386 60.6187 22.1013 60.6187 20.672C60.6187 19.2426 60.3307 18.016 59.7547 16.992C59.2 15.968 58.4107 15.1786 57.3867 14.624C56.384 14.0693 55.2 13.792 53.8347 13.792H48.0747V9.40796H53.8987C55.6053 9.40796 57.1733 9.68529 58.6027 10.24C60.0533 10.7733 61.312 11.552 62.3787 12.576C63.4667 13.5786 64.2986 14.7733 64.8746 16.16C65.472 17.5253 65.7707 19.04 65.7707 20.704C65.7707 22.3466 65.472 23.8613 64.8746 25.248C64.2986 26.6346 63.4773 27.8293 62.4107 28.832C61.344 29.8346 60.0853 30.6133 58.6347 31.168C57.2053 31.7226 55.648 32 53.9627 32H48.2346ZM44.8427 32V9.40796H49.8667V32H44.8427ZM76.1993 32.352C74.5147 32.352 73.0107 32.0106 71.688 31.328C70.3867 30.624 69.3627 29.6533 68.616 28.416C67.8693 27.1786 67.496 25.7813 67.496 24.224C67.496 22.6666 67.8587 21.28 68.584 20.064C69.3307 18.8266 70.3333 17.856 71.592 17.152C72.8507 16.448 74.2693 16.096 75.848 16.096C77.384 16.096 78.7386 16.4266 79.912 17.088C81.0853 17.7493 82.0027 18.6666 82.664 19.84C83.3467 21.0133 83.6873 22.3573 83.6873 23.872C83.6873 24.1493 83.6667 24.448 83.624 24.768C83.6027 25.0666 83.5493 25.4186 83.464 25.824L70.056 25.856V22.496L81.384 22.464L79.272 23.872C79.2507 22.976 79.112 22.24 78.856 21.664C78.6 21.0666 78.216 20.6186 77.704 20.32C77.2133 20 76.6053 19.84 75.88 19.84C75.112 19.84 74.44 20.0213 73.864 20.384C73.3093 20.7253 72.872 21.216 72.552 21.856C72.2533 22.496 72.104 23.2746 72.104 24.192C72.104 25.1093 72.264 25.8986 72.584 26.56C72.9253 27.2 73.3947 27.7013 73.992 28.064C74.6107 28.4053 75.336 28.576 76.168 28.576C76.936 28.576 77.6293 28.448 78.248 28.192C78.8667 27.9146 79.4107 27.5093 79.88 26.976L82.568 29.664C81.8 30.56 80.872 31.232 79.784 31.68C78.696 32.128 77.5013 32.352 76.1993 32.352ZM95.0107 32.32C93.9653 32.32 93.0053 32.1173 92.1307 31.712C91.256 31.3066 90.5413 30.752 89.9866 30.048C89.432 29.3226 89.112 28.5013 89.0266 27.584V21.024C89.112 20.1066 89.432 19.2746 89.9866 18.528C90.5413 17.7813 91.256 17.1946 92.1307 16.768C93.0053 16.3413 93.9653 16.128 95.0107 16.128C96.4827 16.128 97.784 16.48 98.9146 17.184C100.067 17.888 100.963 18.848 101.603 20.064C102.264 21.28 102.595 22.6666 102.595 24.224C102.595 25.7813 102.264 27.168 101.603 28.384C100.963 29.6 100.067 30.56 98.9146 31.264C97.784 31.968 96.4827 32.32 95.0107 32.32ZM94.1147 27.904C94.8187 27.904 95.4267 27.744 95.9387 27.424C96.472 27.104 96.888 26.6666 97.1867 26.112C97.4853 25.5573 97.6347 24.928 97.6347 24.224C97.6347 23.4986 97.4853 22.8586 97.1867 22.304C96.888 21.7493 96.472 21.3226 95.9387 21.024C95.4267 20.704 94.8293 20.544 94.1467 20.544C93.464 20.544 92.856 20.704 92.3226 21.024C91.8106 21.3226 91.4053 21.7493 91.1067 22.304C90.808 22.8586 90.6587 23.4986 90.6587 24.224C90.6587 24.928 90.7973 25.5573 91.0747 26.112C91.3733 26.6666 91.7893 27.104 92.3226 27.424C92.856 27.744 93.4533 27.904 94.1147 27.904ZM86.0507 38.56V16.448H90.9467V20.448L90.1467 24.224L90.8827 28V38.56H86.0507ZM112.57 32.352C110.97 32.352 109.519 32 108.218 31.296C106.938 30.5706 105.925 29.5893 105.178 28.352C104.431 27.1146 104.058 25.728 104.058 24.192C104.058 22.656 104.431 21.28 105.178 20.064C105.925 18.848 106.938 17.888 108.218 17.184C109.498 16.4586 110.949 16.096 112.57 16.096C114.191 16.096 115.642 16.448 116.922 17.152C118.202 17.856 119.215 18.8266 119.962 20.064C120.709 21.28 121.082 22.656 121.082 24.192C121.082 25.728 120.709 27.1146 119.962 28.352C119.215 29.5893 118.202 30.5706 116.922 31.296C115.642 32 114.191 32.352 112.57 32.352ZM112.57 27.904C113.274 27.904 113.893 27.7546 114.426 27.456C114.959 27.136 115.365 26.6986 115.642 26.144C115.941 25.568 116.09 24.9173 116.09 24.192C116.09 23.4666 115.941 22.8373 115.642 22.304C115.343 21.7493 114.927 21.3226 114.394 21.024C113.882 20.704 113.274 20.544 112.57 20.544C111.887 20.544 111.279 20.704 110.746 21.024C110.213 21.3226 109.797 21.7493 109.498 22.304C109.199 22.8586 109.05 23.4986 109.05 24.224C109.05 24.928 109.199 25.568 109.498 26.144C109.797 26.6986 110.213 27.136 110.746 27.456C111.279 27.7546 111.887 27.904 112.57 27.904ZM125.415 32V10.016H130.311V32H125.415ZM121.895 20.608V16.448H133.831V20.608H121.895Z" fill="white"/>
<path d="M25.6667 15.9554L11.6667 7.88208" stroke="white" stroke-width="2.33333" stroke-linecap="round" stroke-linejoin="round"/>
<path d="M32.6667 26.2223V13.7779C32.6662 13.2323 32.5221 12.6965 32.2491 12.2241C31.976 11.7518 31.5836 11.3596 31.1112 11.0868L20.2222 4.86456C19.7493 4.59151 19.2128 4.44775 18.6667 4.44775C18.1206 4.44775 17.5841 4.59151 17.1112 4.86456L6.22224 11.0868C5.74976 11.3596 5.35732 11.7518 5.08429 12.2241C4.81127 12.6965 4.66725 13.2323 4.66669 13.7779V26.2223C4.66725 26.7679 4.81127 27.3037 5.08429 27.7761C5.35732 28.2485 5.74976 28.6407 6.22224 28.9135L17.1112 35.1357C17.5841 35.4087 18.1206 35.5525 18.6667 35.5525C19.2128 35.5525 19.7493 35.4087 20.2222 35.1357L31.1112 28.9135C31.5836 28.6407 31.976 28.2485 32.2491 27.7761C32.5221 27.3037 32.6662 26.7679 32.6667 26.2223Z" stroke="white" stroke-width="2.33333" stroke-linecap="round" stroke-linejoin="round"/>
<path d="M5.08667 12.1599L18.6667 20.0154L32.2467 12.1599" stroke="white" stroke-width="2.33333" stroke-linecap="round" stroke-linejoin="round"/>
<path d="M18.6667 35.68V20" stroke="white" stroke-width="2.33333" stroke-linecap="round" stroke-linejoin="round"/>
</svg>
