<svg width="156" height="40" viewBox="0 0 156 40" fill="none" xmlns="http://www.w3.org/2000/svg">
<g clip-path="url(#clip0_42_19)">
<mask id="mask0_42_19" style="mask-type:luminance" maskUnits="userSpaceOnUse" x="48" y="8" width="108" height="24">
<path d="M155.039 8.83716H48.6822V31.1627H155.039V8.83716Z" fill="white"/>
</mask>
<g mask="url(#mask0_42_19)">
<path d="M48.6822 8.83716H58.9422C66.5913 8.83716 70.776 13.7186 70.776 19.6089C70.776 26.7542 65.431 31.1601 58.8267 31.1601H48.6822V8.83716ZM54.2044 26.9629H58.1123C62.552 26.9629 64.953 24.501 64.953 19.7544C64.953 15.6257 62.756 13.0635 58.1847 13.008H54.2044V26.9629Z" fill="white"/>
<path d="M96.373 21.7407H83.7067V26.8334H97.7912L97.1788 31.1601H78.2195V8.83716H97.0794V13.1744H83.7281V17.4007H96.373V21.7407Z" fill="white"/>
<path d="M120.295 31.1601L114.502 23.3519H114.434L108.813 31.1601H102.662L111.413 19.7517L102.923 8.83716H109.42L114.792 16.0483H114.824L120.238 8.83981H126.185L117.695 19.506L126.671 31.1627L120.295 31.1601Z" fill="white"/>
<path d="M136.869 26.0937L134.887 31.1601H129.222L138.354 8.83716H145.418L155.028 31.1601H149.071L146.96 26.0937H136.869ZM145.432 21.7513C143.32 16.6347 142.292 14.0276 141.746 12.3239H141.714C141.207 13.9933 140.001 17.3875 138.295 21.7513H145.432Z" fill="white"/>
</g>
<mask id="mask1_42_19" style="mask-type:luminance" maskUnits="userSpaceOnUse" x="0" y="0" width="40" height="40">
<path d="M40 0H0V40H40V0Z" fill="white"/>
</mask>
<g mask="url(#mask1_42_19)">
<path fill-rule="evenodd" clip-rule="evenodd" d="M40 0H0V10.5889H0.000706753C5.19868 10.5889 9.41247 14.8027 9.41247 20.0008C9.41247 25.1986 5.19868 29.4124 0.000706753 29.4124H0V40H40V0Z" fill="white"/>
</g>
</g>
<defs>
<clipPath id="clip0_42_19">
<rect width="155.039" height="40" fill="white"/>
</clipPath>
</defs>
</svg>
