<svg width="113" height="26" viewBox="0 0 113 26" fill="none" xmlns="http://www.w3.org/2000/svg">
<mask id="mask0_326_106" style="mask-type:luminance" maskUnits="userSpaceOnUse" x="0" y="19" width="15" height="2">
<path d="M14.1407 19.1636H0.725165C0.324667 19.1636 0 19.4882 0 19.8887C0 20.2892 0.324667 20.6139 0.725165 20.6139H14.1407C14.5412 20.6139 14.8659 20.2892 14.8659 19.8887C14.8659 19.4882 14.5412 19.1636 14.1407 19.1636Z" fill="white"/>
</mask>
<g mask="url(#mask0_326_106)">
<path d="M0.479545 19.1636H14.8659L14.3863 20.6139H0L0.479545 19.1636Z" fill="#CCCCCC"/>
</g>
<mask id="mask1_326_106" style="mask-type:luminance" maskUnits="userSpaceOnUse" x="0" y="14" width="15" height="3">
<path d="M14.1407 14.9189H0.725165C0.324667 14.9189 0 15.2436 0 15.6441C0 16.0446 0.324667 16.3693 0.725165 16.3693H14.1407C14.5412 16.3693 14.8659 16.0446 14.8659 15.6441C14.8659 15.2436 14.5412 14.9189 14.1407 14.9189Z" fill="white"/>
</mask>
<g mask="url(#mask1_326_106)">
<path d="M0.479545 14.9189H14.8659L14.3863 16.3692H0L0.479545 14.9189Z" fill="#CCCCCC"/>
</g>
<mask id="mask2_326_106" style="mask-type:luminance" maskUnits="userSpaceOnUse" x="0" y="10" width="15" height="2">
<path d="M14.1407 10.1797H0.725165C0.324667 10.1797 0 10.5044 0 10.9049C0 11.3054 0.324667 11.63 0.725165 11.63H14.1407C14.5412 11.63 14.8659 11.3054 14.8659 10.9049C14.8659 10.5044 14.5412 10.1797 14.1407 10.1797Z" fill="white"/>
</mask>
<g mask="url(#mask2_326_106)">
<path d="M0.479545 10.1797H14.8659L14.3863 11.6301H0L0.479545 10.1797Z" fill="#CCCCCC"/>
</g>
<mask id="mask3_326_106" style="mask-type:luminance" maskUnits="userSpaceOnUse" x="5" y="5" width="16" height="7">
<path d="M19.68 8.27806L7.63223 5.66529C6.84943 5.49553 6.07722 5.99249 5.90746 6.77529C5.7377 7.55809 6.23466 8.33029 7.01746 8.50006L19.0652 11.1128C19.848 11.2826 20.6202 10.7856 20.79 10.0028C20.9598 9.22003 20.4628 8.44783 19.68 8.27806Z" fill="white"/>
</mask>
<g mask="url(#mask3_326_106)">
<path d="M7.53955 5.55566L21.4919 8.58147L20.0238 10.8602L6.07147 7.83436L7.53955 5.55566Z" fill="white"/>
</g>
<mask id="mask4_326_106" style="mask-type:luminance" maskUnits="userSpaceOnUse" x="4" y="10" width="16" height="6">
<path d="M18.6683 13.0535L6.62051 10.4407C5.83771 10.2709 5.0655 10.7679 4.89574 11.5507C4.72598 12.3335 5.22294 13.1057 6.00574 13.2754L18.0535 15.8882C18.8363 16.058 19.6085 15.561 19.7783 14.7782C19.9481 13.9954 19.4511 13.2232 18.6683 13.0535Z" fill="white"/>
</mask>
<g mask="url(#mask4_326_106)">
<path d="M6.52783 10.3311L20.4802 13.3569L19.0121 15.6356L5.05975 12.6098L6.52783 10.3311Z" fill="white"/>
</g>
<mask id="mask5_326_106" style="mask-type:luminance" maskUnits="userSpaceOnUse" x="3" y="15" width="16" height="6">
<path d="M17.6683 17.6897L5.62051 15.0769C4.83771 14.9072 4.0655 15.4041 3.89574 16.1869C3.72598 16.9697 4.22294 17.7419 5.00574 17.9117L17.0535 20.5244C17.8363 20.6942 18.6085 20.1972 18.7783 19.4145C18.9481 18.6317 18.4511 17.8594 17.6683 17.6897Z" fill="white"/>
</mask>
<g mask="url(#mask5_326_106)">
<path d="M5.52783 14.9673L19.4802 17.9931L18.0121 20.2718L4.05975 17.246L5.52783 14.9673Z" fill="white"/>
</g>
<path d="M36.6034 19.8257C35.5721 19.8257 34.6292 19.5679 33.7747 19.0523C32.9275 18.5366 32.2535 17.8257 31.7526 16.9197C31.259 16.0136 31.0122 14.9786 31.0122 13.8147C31.0122 12.6582 31.2553 11.6305 31.7415 10.7318C32.2351 9.82572 32.9054 9.11117 33.7526 8.58815C34.6071 8.06513 35.5794 7.80362 36.6697 7.80362C37.5389 7.80362 38.3382 7.98778 39.0675 8.35611C39.7968 8.72443 40.3861 9.2364 40.8354 9.89202V0.455566H43.5868V19.4722H40.8354V17.66C40.3419 18.3377 39.7268 18.8681 38.9901 19.2512C38.2608 19.6342 37.4653 19.8257 36.6034 19.8257ZM37.399 17.4722C38.084 17.4722 38.6881 17.3175 39.2111 17.0081C39.7415 16.6913 40.1577 16.2604 40.4597 15.7153C40.7618 15.1628 40.9128 14.5329 40.9128 13.8258C40.9128 13.1186 40.7618 12.4887 40.4597 11.9363C40.1577 11.3764 39.7415 10.9418 39.2111 10.6324C38.6881 10.3156 38.084 10.1572 37.399 10.1572C36.7286 10.1572 36.1282 10.3156 35.5979 10.6324C35.0675 10.9418 34.6513 11.3764 34.3492 11.9363C34.0472 12.4887 33.8962 13.1223 33.8962 13.8368C33.8962 14.5366 34.0435 15.1628 34.3382 15.7153C34.6402 16.2604 35.0564 16.6913 35.5868 17.0081C36.1172 17.3175 36.7212 17.4722 37.399 17.4722ZM46.7389 19.4722V8.15721H49.4903V19.4722H46.7389ZM48.1201 5.83677C47.8181 5.83677 47.5382 5.76311 47.2803 5.61578C47.0299 5.46108 46.8273 5.25851 46.6726 5.00805C46.5253 4.75022 46.4516 4.46661 46.4516 4.15722C46.4516 3.85519 46.5253 3.57895 46.6726 3.32849C46.8273 3.07803 47.0299 2.87914 47.2803 2.73181C47.5382 2.57711 47.8181 2.49976 48.1201 2.49976C48.4295 2.49976 48.7057 2.57711 48.9488 2.73181C49.1993 2.87914 49.3982 3.07803 49.5455 3.32849C49.7002 3.57895 49.7776 3.85519 49.7776 4.15722C49.7776 4.46661 49.7002 4.75022 49.5455 5.00805C49.3982 5.25851 49.1993 5.46108 48.9488 5.61578C48.7057 5.76311 48.4295 5.83677 48.1201 5.83677ZM57.9407 19.8257C57.0862 19.8257 56.2796 19.6747 55.5208 19.3727C54.7694 19.0633 54.1065 18.6361 53.5319 18.0909C52.9573 17.5458 52.5043 16.9086 52.1728 16.1793C51.8486 15.4501 51.6866 14.6618 51.6866 13.8147C51.6866 12.997 51.8413 12.2272 52.1507 11.5053C52.4674 10.776 52.9057 10.1352 53.4656 9.58263C54.0328 9.03014 54.6958 8.59552 55.4545 8.27876C56.2206 7.962 57.0457 7.80362 57.9297 7.80362C58.6663 7.80362 59.3698 7.91044 60.0402 8.12406C60.7179 8.33769 61.2777 8.61762 61.7197 8.96384L60.7363 10.8202C60.088 10.3267 59.2888 10.0799 58.3385 10.0799C57.5577 10.0799 56.8836 10.253 56.3164 10.5992C55.7492 10.9381 55.3146 11.3948 55.0125 11.9694C54.7105 12.5366 54.5595 13.1517 54.5595 13.8147C54.5595 14.5145 54.7179 15.148 55.0346 15.7153C55.3514 16.2751 55.7971 16.7208 56.3717 17.0523C56.9462 17.3838 57.6092 17.5495 58.3606 17.5495C58.8247 17.5495 59.2593 17.4832 59.6645 17.3506C60.077 17.218 60.4306 17.0375 60.7252 16.8092L61.7197 18.6655C61.2704 19.0044 60.7142 19.2806 60.0512 19.4943C59.3882 19.7152 58.6847 19.8257 57.9407 19.8257ZM69.0103 19.8257C67.8022 19.8257 66.7193 19.5642 65.7617 19.0412C64.8114 18.5182 64.0563 17.8036 63.4965 16.8976C62.944 15.9915 62.6677 14.9712 62.6677 13.8368C62.6677 12.997 62.8261 12.2125 63.1429 11.4832C63.4596 10.7539 63.8979 10.1131 64.4578 9.56053C65.0176 9.00804 65.6696 8.5771 66.4136 8.26771C67.1576 7.95832 67.9605 7.80362 68.8224 7.80362C70.0011 7.80362 71.0324 8.04672 71.9163 8.5329C72.8077 9.01909 73.5001 9.69681 73.9937 10.5661C74.4946 11.4353 74.7451 12.4482 74.7451 13.6048C74.7451 13.7005 74.7414 13.7816 74.734 13.8479C74.7267 13.9068 74.7119 14.0099 74.6898 14.1572H65.4744C65.4744 14.8423 65.6291 15.4464 65.9385 15.9694C66.2478 16.485 66.6788 16.8902 67.2313 17.1849C67.7911 17.4722 68.432 17.6158 69.1539 17.6158C69.839 17.6158 70.4467 17.4795 70.9771 17.207C71.5149 16.927 72.0011 16.5035 72.4357 15.9362L74.4357 16.9639C73.8979 17.8626 73.1502 18.5661 72.1926 19.0744C71.2423 19.5753 70.1815 19.8257 69.0103 19.8257ZM65.5959 12.4335H72.0158C71.92 11.9178 71.7248 11.4722 71.4302 11.0965C71.1355 10.7208 70.7635 10.4298 70.3141 10.2235C69.8648 10.0099 69.3639 9.90307 68.8114 9.90307C68.2294 9.90307 67.7101 10.0062 67.2534 10.2125C66.7966 10.4188 66.4246 10.7097 66.1373 11.0854C65.8501 11.4611 65.6696 11.9105 65.5959 12.4335ZM76.9295 19.4722V8.15721H79.6808V9.80362C80.0786 9.15537 80.5759 8.66182 81.1725 8.32296C81.7692 7.97673 82.4248 7.80362 83.1394 7.80362C83.5151 7.80362 83.8981 7.85519 84.2886 7.95832C84.6863 8.05408 85.0252 8.183 85.3051 8.34506L84.167 10.6766C83.9239 10.5293 83.6403 10.4114 83.3162 10.323C82.9994 10.2346 82.7048 10.1904 82.4322 10.1904C81.9608 10.1904 81.5151 10.3119 81.0952 10.555C80.6753 10.7981 80.3328 11.1112 80.0676 11.4943C79.8097 11.8773 79.6808 12.2898 79.6808 12.7318V19.4722H76.9295ZM88.6625 19.8257C88.39 19.8257 88.1432 19.7594 87.9222 19.6268C87.7012 19.4943 87.5244 19.3175 87.3918 19.0965C87.2592 18.8755 87.1929 18.6324 87.1929 18.3672C87.1929 18.102 87.2592 17.8589 87.3918 17.6379C87.5244 17.4169 87.7012 17.2438 87.9222 17.1186C88.1432 16.986 88.3863 16.9197 88.6515 16.9197C88.924 16.9197 89.1671 16.986 89.3807 17.1186C89.6017 17.2438 89.7749 17.4169 89.9001 17.6379C90.0327 17.8589 90.099 18.102 90.099 18.3672C90.099 18.6324 90.0327 18.8755 89.9001 19.0965C89.7749 19.3175 89.6017 19.4943 89.3807 19.6268C89.1671 19.7594 88.9277 19.8257 88.6625 19.8257ZM99.1851 19.8257C98.117 19.8257 97.1556 19.5679 96.3011 19.0523C95.454 18.5292 94.78 17.8147 94.279 16.9086C93.7855 16.0025 93.5387 14.9712 93.5387 13.8147C93.5387 12.6508 93.7855 11.6195 94.279 10.7208C94.7726 9.81467 95.4429 9.1038 96.2901 8.58815C97.1446 8.06513 98.1096 7.80362 99.1851 7.80362C100.261 7.80362 101.233 8.06513 102.102 8.58815C102.971 9.11117 103.62 9.83309 104.047 10.7539V8.15721H105.218V19.4722H104.047V16.8534C103.568 17.7815 102.901 18.5108 102.047 19.0412C101.2 19.5642 100.246 19.8257 99.1851 19.8257ZM99.4282 18.7871C100.342 18.7871 101.148 18.5771 101.848 18.1572C102.555 17.73 103.108 17.1407 103.506 16.3893C103.911 15.6379 104.113 14.7797 104.113 13.8147C104.113 12.8423 103.911 11.9841 103.506 11.2401C103.108 10.4887 102.555 9.90307 101.848 9.48318C101.148 9.05592 100.342 8.84229 99.4282 8.84229C98.5148 8.84229 97.7045 9.05592 96.9973 9.48318C96.2975 9.90307 95.745 10.4887 95.3398 11.2401C94.9347 11.9841 94.7321 12.8423 94.7321 13.8147C94.7321 14.7797 94.9347 15.6379 95.3398 16.3893C95.745 17.1333 96.2975 17.7189 96.9973 18.1462C97.7045 18.5734 98.5148 18.7871 99.4282 18.7871ZM109.059 19.4722V8.15721H110.23V19.4722H109.059ZM109.645 5.91412C109.497 5.91412 109.361 5.87729 109.236 5.80363C109.111 5.72996 109.011 5.63051 108.938 5.50528C108.864 5.38005 108.827 5.24377 108.827 5.09644C108.827 4.94175 108.864 4.80547 108.938 4.68761C109.011 4.56238 109.111 4.46293 109.236 4.38926C109.361 4.3156 109.497 4.27877 109.645 4.27877C109.799 4.27877 109.936 4.3156 110.054 4.38926C110.179 4.46293 110.278 4.56238 110.352 4.68761C110.426 4.80547 110.462 4.93807 110.462 5.0854C110.462 5.24009 110.426 5.38005 110.352 5.50528C110.278 5.63051 110.179 5.72996 110.054 5.80363C109.936 5.87729 109.799 5.91412 109.645 5.91412Z" fill="white"/>
</svg>
