<svg width="185" height="40" viewBox="0 0 185 40" fill="none" xmlns="http://www.w3.org/2000/svg">
<g clip-path="url(#clip0_488_2)">
<path d="M58.7132 32.3014H50.9745V8.30268H58.9583C61.3005 8.30268 63.3119 8.78312 64.9927 9.744C66.6736 10.6971 67.9613 12.0681 68.8563 13.857C69.7587 15.6382 70.2101 17.7748 70.2101 20.2668C70.2101 22.7666 69.7549 24.9151 68.8445 26.7119C67.9418 28.5087 66.6347 29.8913 64.9228 30.8601C63.2107 31.821 61.141 32.3014 58.7132 32.3014ZM54.5812 29.1375H58.5147C60.3356 29.1375 61.849 28.7938 63.0552 28.1063C64.2612 27.4109 65.1638 26.4071 65.763 25.0948C66.3621 23.7745 66.6618 22.1651 66.6618 20.2668C66.6618 18.3842 66.3621 16.7866 65.763 15.4742C65.1718 14.1617 64.2886 13.1657 63.1136 12.486C61.9386 11.8064 60.4796 11.4666 58.7365 11.4666H54.5812V29.1375ZM73.4289 32.3014V14.3023H76.9189V32.3014H73.4289ZM75.1914 11.5252C74.5844 11.5252 74.0631 11.322 73.6274 10.9158C73.1994 10.5018 72.9855 10.0096 72.9855 9.43934C72.9855 8.86124 73.1994 8.36907 73.6274 7.96285C74.0631 7.54881 74.5844 7.3418 75.1914 7.3418C75.7983 7.3418 76.3157 7.54881 76.7437 7.96285C77.1795 8.36907 77.3974 8.86124 77.3974 9.43934C77.3974 10.0096 77.1795 10.5018 76.7437 10.9158C76.3157 11.322 75.7983 11.5252 75.1914 11.5252ZM88.9968 14.3023V17.1147H79.2039V14.3023H88.9968ZM81.8302 9.99008H85.32V27.0165C85.32 27.696 85.4212 28.2079 85.6235 28.5514C85.8259 28.8875 86.0864 29.1179 86.4056 29.243C86.7324 29.36 87.0864 29.4186 87.4678 29.4186C87.7478 29.4186 87.9929 29.3991 88.203 29.36C88.4131 29.3211 88.5765 29.2898 88.6933 29.2663L89.3236 32.1606C89.1213 32.2389 88.8334 32.317 88.4599 32.3951C88.0864 32.4811 87.6195 32.5279 87.0593 32.5356C86.141 32.5512 85.2851 32.3872 84.4913 32.0436C83.6975 31.6999 83.0556 31.1686 82.5654 30.4498C82.0753 29.7311 81.8302 28.8289 81.8302 27.7429V9.99008ZM100.24 14.3023V17.1147H90.4473V14.3023H100.24ZM93.0734 9.99008H96.5634V27.0165C96.5634 27.696 96.6646 28.2079 96.867 28.5514C97.0691 28.8875 97.3298 29.1179 97.649 29.243C97.9756 29.36 98.3298 29.4186 98.711 29.4186C98.9912 29.4186 99.2364 29.3991 99.4464 29.36C99.6565 29.3211 99.8199 29.2898 99.9367 29.2663L100.567 32.1606C100.364 32.2389 100.077 32.317 99.7031 32.3951C99.3296 32.4811 98.8629 32.5279 98.3025 32.5356C97.3844 32.5512 96.5283 32.3872 95.7348 32.0436C94.941 31.6999 94.299 31.1686 93.8088 30.4498C93.3185 29.7311 93.0734 28.8289 93.0734 27.7429V9.99008ZM110.474 32.6646C108.793 32.6646 107.326 32.2779 106.073 31.5046C104.821 30.7311 103.848 29.6492 103.156 28.2586C102.463 26.868 102.117 25.2432 102.117 23.384C102.117 21.5168 102.463 19.8841 103.156 18.4857C103.848 17.0873 104.821 16.0015 106.073 15.2281C107.326 14.4547 108.793 14.068 110.474 14.068C112.155 14.068 113.621 14.4547 114.874 15.2281C116.127 16.0015 117.1 17.0873 117.792 18.4857C118.485 19.8841 118.831 21.5168 118.831 23.384C118.831 25.2432 118.485 26.868 117.792 28.2586C117.1 29.6492 116.127 30.7311 114.874 31.5046C113.621 32.2779 112.155 32.6646 110.474 32.6646ZM110.486 29.7234C111.575 29.7234 112.477 29.4342 113.193 28.8563C113.909 28.2781 114.438 27.5087 114.781 26.5478C115.131 25.587 115.306 24.5283 115.306 23.3722C115.306 22.2237 115.131 21.1691 114.781 20.2083C114.438 19.2396 113.909 18.4623 113.193 17.8764C112.477 17.2905 111.575 16.9975 110.486 16.9975C109.388 16.9975 108.478 17.2905 107.754 17.8764C107.038 18.4623 106.505 19.2396 106.155 20.2083C105.813 21.1691 105.641 22.2237 105.641 23.3722C105.641 24.5283 105.813 25.587 106.155 26.5478C106.505 27.5087 107.038 28.2781 107.754 28.8563C108.478 29.4342 109.388 29.7234 110.486 29.7234ZM130.273 14.3023V17.1147H120.141V14.3023H130.273ZM122.919 32.3014V12.2165C122.919 11.0916 123.164 10.158 123.655 9.41589C124.145 8.66595 124.795 8.10738 125.604 7.74022C126.413 7.36522 127.292 7.17773 128.242 7.17773C128.942 7.17773 129.541 7.23632 130.039 7.35352C130.537 7.46289 130.907 7.56443 131.148 7.65818L130.331 10.494C130.168 10.4471 129.958 10.3924 129.701 10.3299C129.444 10.2596 129.133 10.2245 128.767 10.2245C127.919 10.2245 127.312 10.4354 126.946 10.8572C126.588 11.2791 126.409 11.8884 126.409 12.6852V32.3014H122.919ZM139.908 32.6646C138.142 32.6646 136.621 32.2858 135.344 31.5279C134.076 30.7624 133.096 29.6881 132.403 28.3055C131.718 26.9149 131.376 25.2862 131.376 23.419C131.376 21.5754 131.718 19.9505 132.403 18.5443C133.096 17.1381 134.061 16.0405 135.298 15.2515C136.543 14.4625 137.998 14.068 139.663 14.068C140.675 14.068 141.655 14.2359 142.604 14.5719C143.554 14.9078 144.406 15.4351 145.161 16.1538C145.916 16.8725 146.511 17.8061 146.947 18.9544C147.382 20.095 147.6 21.4817 147.6 23.1144V24.3564H133.348V21.7316H144.18C144.18 20.8098 143.993 19.9934 143.62 19.2825C143.246 18.5638 142.721 17.9975 142.044 17.5834C141.375 17.1694 140.589 16.9624 139.686 16.9624C138.706 16.9624 137.85 17.2045 137.119 17.6889C136.395 18.1654 135.835 18.7904 135.438 19.5638C135.049 20.3293 134.854 21.1613 134.854 22.0597V24.1104C134.854 25.3134 135.064 26.3369 135.484 27.1805C135.913 28.0242 136.508 28.6687 137.27 29.114C138.033 29.5514 138.924 29.7703 139.943 29.7703C140.605 29.7703 141.208 29.6766 141.753 29.489C142.297 29.2937 142.768 29.0047 143.165 28.6218C143.562 28.2391 143.865 27.7664 144.075 27.2041L147.378 27.8015C147.114 28.7782 146.639 29.6336 145.954 30.3679C145.277 31.0943 144.425 31.6608 143.398 32.067C142.379 32.4655 141.216 32.6646 139.908 32.6646ZM158.213 32.6646C156.447 32.6646 154.926 32.2858 153.649 31.5279C152.381 30.7624 151.401 29.6881 150.708 28.3055C150.023 26.9149 149.681 25.2862 149.681 23.419C149.681 21.5754 150.023 19.9505 150.708 18.5443C151.401 17.1381 152.366 16.0405 153.603 15.2515C154.848 14.4625 156.303 14.068 157.968 14.068C158.98 14.068 159.96 14.2359 160.91 14.5719C161.859 14.9078 162.711 15.4351 163.466 16.1538C164.22 16.8725 164.816 17.8061 165.251 18.9544C165.687 20.095 165.905 21.4817 165.905 23.1144V24.3564H151.653V21.7316H162.485C162.485 20.8098 162.298 19.9934 161.925 19.2825C161.551 18.5638 161.026 17.9975 160.349 17.5834C159.68 17.1694 158.894 16.9624 157.991 16.9624C157.011 16.9624 156.155 17.2045 155.424 17.6889C154.7 18.1654 154.14 18.7904 153.743 19.5638C153.354 20.3293 153.159 21.1613 153.159 22.0597V24.1104C153.159 25.3134 153.369 26.3369 153.79 27.1805C154.218 28.0242 154.813 28.6687 155.575 29.114C156.338 29.5514 157.229 29.7703 158.248 29.7703C158.91 29.7703 159.513 29.6766 160.057 29.489C160.602 29.2937 161.073 29.0047 161.47 28.6218C161.867 28.2391 162.17 27.7664 162.38 27.2041L165.683 27.8015C165.419 28.7782 164.944 29.6336 164.259 30.3679C163.582 31.0943 162.73 31.6608 161.703 32.067C160.684 32.4655 159.52 32.6646 158.213 32.6646ZM175.503 32.6528C174.055 32.6528 172.764 32.2817 171.628 31.5397C170.499 30.7897 169.612 29.7234 168.966 28.3405C168.328 26.9502 168.009 25.2821 168.009 23.3369C168.009 21.3919 168.332 19.7278 168.978 18.3451C169.632 16.9624 170.526 15.9038 171.662 15.1695C172.799 14.4351 174.086 14.068 175.526 14.068C176.639 14.068 177.533 14.2555 178.21 14.6304C178.895 14.9976 179.424 15.4273 179.798 15.9194C180.179 16.4116 180.475 16.8452 180.685 17.2202H180.895V8.30268H184.385V32.3014H180.977V29.5007H180.685C180.475 29.8834 180.172 30.3211 179.775 30.813C179.385 31.3052 178.849 31.735 178.164 32.102C177.479 32.4693 176.592 32.6528 175.503 32.6528ZM176.273 29.6648C177.277 29.6648 178.125 29.3991 178.818 28.868C179.518 28.329 180.047 27.5829 180.405 26.6297C180.771 25.6768 180.954 24.5675 180.954 23.3018C180.954 22.052 180.775 20.9582 180.416 20.0208C180.059 19.0833 179.533 18.3529 178.841 17.8295C178.148 17.3061 177.292 17.0444 176.273 17.0444C175.222 17.0444 174.347 17.3178 173.647 17.8646C172.947 18.4115 172.417 19.1575 172.059 20.1028C171.709 21.0481 171.534 22.1144 171.534 23.3018C171.534 24.5048 171.713 25.587 172.071 26.5478C172.429 27.5087 172.958 28.2704 173.658 28.8327C174.367 29.3874 175.238 29.6648 176.273 29.6648Z" fill="white"/>
<path fill-rule="evenodd" clip-rule="evenodd" d="M26.5376 34.3121C28.1759 28.1976 25.4385 22.1516 20.4236 20.8079C15.4086 19.4642 10.015 23.3315 8.37665 29.4457C6.88527 35.0117 10.2648 35.8744 14.6661 36.998C15.0997 37.1088 15.5433 37.222 15.9931 37.3426C16.4429 37.4631 16.8837 37.5869 17.3146 37.7078C21.6879 38.9354 25.0462 39.8778 26.5376 34.3121ZM22.4492 31.6699C23.2713 28.6025 21.8854 25.566 19.3539 24.8877C16.8224 24.2094 14.104 26.1461 13.282 29.2137C12.5096 32.0964 14.3246 32.5732 16.6472 33.1833C16.7959 33.2222 16.9467 33.2618 17.0991 33.3026C17.2515 33.3435 17.4019 33.3846 17.5502 33.4252C19.8667 34.0581 21.6768 34.5529 22.4492 31.6699ZM14.8223 5.48416C13.184 11.5985 15.9213 17.6444 20.9363 18.9882C25.9515 20.332 31.3451 16.4647 32.9833 10.3504C34.4747 4.78448 31.095 3.92166 26.6939 2.798C26.2601 2.6873 25.8167 2.57404 25.3669 2.45353C24.917 2.33299 24.4762 2.20927 24.0454 2.08833C19.6719 0.860818 16.3137 -0.0817509 14.8223 5.48416ZM18.9104 8.12613C18.0885 11.1937 19.4743 14.2302 22.0058 14.9085C24.5374 15.5869 27.2559 13.65 28.0777 10.5825C28.8501 7.69958 27.0351 7.22292 24.7125 6.61293C24.5639 6.57387 24.4131 6.53426 24.2606 6.49342C24.1083 6.45261 23.9579 6.4115 23.8094 6.37096C21.4931 5.73791 19.6829 5.24322 18.9104 8.12613ZM3.46082 24.2695C7.31952 25.3035 11.4534 22.3882 12.694 17.7582C13.9346 13.1281 11.8122 8.53652 7.95351 7.50258C4.44091 6.56138 3.63267 9.67843 2.58009 13.7378C2.47639 14.1377 2.37032 14.5469 2.25902 14.9621C2.14775 15.3774 2.03507 15.7848 1.9249 16.183C0.806781 20.2248 -0.051785 23.3283 3.46082 24.2695ZM5.8023 19.7335C7.42439 20.1681 9.16762 18.9221 9.69592 16.9505C10.2242 14.9789 9.33753 13.0282 7.71543 12.5936C6.19096 12.1851 5.81746 13.5981 5.33947 15.4063C5.30886 15.5221 5.27783 15.6395 5.24604 15.7582C5.21425 15.8768 5.18243 15.994 5.15102 16.1096C4.66086 17.9146 4.27783 19.325 5.8023 19.7335ZM37.8764 15.5263C34.0176 14.4923 29.8839 17.4076 28.6432 22.0376C27.4026 26.6678 29.5249 31.2592 33.3836 32.2932C36.8963 33.2344 37.7044 30.1174 38.757 26.0581C38.8608 25.6581 38.9669 25.249 39.0781 24.8338C39.1893 24.4184 39.3021 24.0111 39.4122 23.6128C40.5303 19.571 41.3889 16.4675 37.8764 15.5263ZM35.5348 20.0623C33.9128 19.6277 32.1694 20.8737 31.6413 22.8453C31.113 24.8169 31.9996 26.7677 33.6216 27.2023C35.1461 27.6107 35.5196 26.1978 35.9977 24.3895C36.0283 24.2738 36.0593 24.1563 36.0911 24.0376C36.1228 23.9189 36.1547 23.8019 36.1861 23.6862C36.6762 21.8813 37.0593 20.4708 35.5348 20.0623Z" fill="white"/>
</g>
<defs>
<clipPath id="clip0_488_2">
<rect width="184.385" height="40" fill="white"/>
</clipPath>
</defs>
</svg>
