<svg width="40" height="40" viewBox="0 0 40 40" fill="none" xmlns="http://www.w3.org/2000/svg">
<path d="M39.0848 20.2543C39.0848 30.7852 30.5479 39.3221 20.017 39.3221C9.48617 39.3221 0.949219 30.7852 0.949219 20.2543C0.949219 9.72347 9.48617 1.18652 20.017 1.18652C30.5479 1.18652 39.0848 9.72347 39.0848 20.2543Z" fill="white"/>
<mask id="mask0_355_52" style="mask-type:alpha" maskUnits="userSpaceOnUse" x="0" y="1" width="40" height="39">
<path d="M39.0848 20.2543C39.0848 30.7852 30.5479 39.3221 20.017 39.3221C9.48617 39.3221 0.949219 30.7852 0.949219 20.2543C0.949219 9.72347 9.48617 1.18652 20.017 1.18652C30.5479 1.18652 39.0848 9.72347 39.0848 20.2543Z" fill="black"/>
</mask>
<g mask="url(#mask0_355_52)">
<path d="M19.9323 30.8475C25.3615 30.8475 29.7628 26.4842 29.7628 21.1017C29.7628 15.7193 25.3615 11.356 19.9323 11.356C14.503 11.356 10.1017 15.7193 10.1017 21.1017C10.1017 26.4842 14.503 30.8475 19.9323 30.8475Z" fill="#07070A"/>
<path d="M25.356 -1.69482H29.7627V30.6781H25.356V-1.69482Z" fill="#07070A"/>
</g>
</svg>
