<svg width="130" height="40" viewBox="0 0 130 40" fill="none" xmlns="http://www.w3.org/2000/svg">
<g clip-path="url(#clip0_391_261)">
<path fill-rule="evenodd" clip-rule="evenodd" d="M29.7649 0.461914H22.8961V28.7005H29.7649V0.461914ZM11.4481 5.95701H18.3169V34.1955H11.4481V5.95701ZM0 11.2994H6.86883V39.5379H0V11.2994Z" fill="#F5F5F5"/>
<path d="M60.9371 26.4894V24.2769H52.201V18.9623H59.8421V16.8638H52.201V12.0738H60.9371V9.86133H49.7149V26.4894H60.9371Z" fill="#F5F5F5"/>
<path d="M65.7018 26.489H68.5527L72.7725 14.4912H70.1953L68.279 20.5357L67.1844 24.208H67.0473L65.9299 20.5129L64.0135 14.4912H61.4135L65.7018 26.489Z" fill="#F5F5F5"/>
<path d="M73.1423 20.4678C73.1423 24.2998 75.2862 26.7176 78.8447 26.7176C81.6732 26.7176 83.8171 25.1894 84.2961 22.84H81.9693C81.6047 24.0489 80.4416 24.8473 78.8675 24.8473C76.8831 24.8473 75.56 23.5699 75.56 21.6768V21.0153H84.1595C84.2275 20.4906 84.2504 20.0573 84.2504 19.7152C84.2504 18.0273 83.7486 16.7043 82.7678 15.7235C81.787 14.7427 80.4639 14.2637 78.8218 14.2637C75.3319 14.2637 73.1423 16.5674 73.1423 20.4678ZM75.56 19.0536C75.56 17.3201 76.8831 16.1341 78.799 16.1341C80.6468 16.1341 81.8784 17.2745 81.8784 18.9396V19.3274H75.56V19.0536Z" fill="#F5F5F5"/>
<path d="M88.7049 14.4912C87.0629 14.4912 86.6291 15.358 86.6291 16.544V26.489H88.9787V16.4528H92.8561V14.4912H88.7049Z" fill="#F5F5F5"/>
<path d="M93.2114 22.8172C93.2114 25.1666 95.1273 26.7176 98.2291 26.7176C101.217 26.7176 103.133 25.2807 103.133 22.9769C103.133 21.1521 102.061 20.0573 99.9174 19.6695L97.6364 19.2589C96.4275 19.0765 95.8114 18.5518 95.8114 17.7079C95.8114 16.6815 96.6327 16.0428 98.0925 16.0428C99.6208 16.0428 100.419 16.6815 100.464 17.9588H102.791C102.768 15.7463 100.989 14.2637 98.0925 14.2637C95.2639 14.2637 93.4395 15.6322 93.4395 17.936C93.4395 19.6923 94.534 20.7872 96.7236 21.1749L99.1647 21.6311C100.191 21.8136 100.692 22.3154 100.692 23.1366C100.692 24.2542 99.7803 24.9385 98.2291 24.9385C96.587 24.9385 95.5605 24.1173 95.5605 22.8172H93.2114Z" fill="#F5F5F5"/>
<path d="M107.712 12.5305V9.70215H105.385V12.5305H107.712ZM107.712 26.4899V14.4921H105.385V26.4899H107.712Z" fill="#F5F5F5"/>
<path d="M117.125 11.6181V9.70215H113.863C112.426 9.70215 111.719 10.3408 111.719 11.6181V14.4921H109.393V16.4537H111.719V26.4899H114.046V16.4537H116.578V14.4921H114.046V11.6181H117.125Z" fill="#F5F5F5"/>
<path d="M122.075 25.0064V28.3822H119.315V30.2981H122.394C123.284 30.2981 123.853 30.0244 124.104 29.5454C124.355 29.0892 124.401 28.7471 124.401 28.2225V25.0292L129.351 14.4912H126.819L125.154 18.346L123.284 22.7254H123.146L121.322 18.346L119.679 14.4912H117.125L122.075 25.0064Z" fill="#F5F5F5"/>
</g>
<defs>
<clipPath id="clip0_391_261">
<rect width="129.351" height="40" fill="white"/>
</clipPath>
</defs>
</svg>
