<svg width="192" height="40" viewBox="0 0 192 40" fill="none" xmlns="http://www.w3.org/2000/svg">
<path d="M0 19.6286V39.2571H12.8173H25.6347V35.9134V32.5698H16.5325H7.43034V27.6781V22.7865H15.5418H23.6533V19.4428V16.0992H15.5418H7.43034V11.3933V6.68742H16.3467H25.2632V3.34377V0.000115231H12.6316H0V19.6286Z" fill="white"/>
<path d="M59.0712 3.28185V6.56358H61.6099H64.1486V19.6905V32.8175H61.6099H59.0712V36.0373V39.2571H67.8638C76.8421 39.2571 77.9938 39.2075 80.1982 38.7617C85.4737 37.6719 89.0527 34.4893 90.4644 29.6348C91.2075 27.1085 91.2694 26.2911 91.2694 19.7153C91.2694 15.0466 91.2322 13.4119 91.0836 12.4831C90.5263 8.79268 89.4242 6.35306 87.3684 4.27256C84.8917 1.75863 81.9071 0.520239 77.3994 0.123954C76.6192 0.0620347 72.1734 0.000115231 67.5294 0.000115231H59.0712V3.28185ZM77.9567 6.99702C80.8917 7.59145 82.7121 9.37473 83.5666 12.4707L83.901 13.6843V19.6286V25.5729L83.5666 26.7865C82.9226 29.1394 81.7462 30.6998 79.9505 31.5791C78.4892 32.3097 77.6471 32.4459 74.4025 32.5326L71.579 32.6069V19.6286V6.65027L74.2787 6.72457C76 6.77411 77.3251 6.8608 77.9567 6.99702Z" fill="white"/>
<path d="M132.26 19.6285V39.257H135.728H139.195V37.5851V35.9133H139.728C140.186 35.9133 140.297 35.9628 140.446 36.2353C140.718 36.7554 142.427 38.2786 143.294 38.7988C144.731 39.6409 146.39 40 148.892 40C152.396 40 155.22 38.8731 157.523 36.5449C160.359 33.6842 161.486 30.5015 161.486 25.3746C161.486 22.031 161.115 19.9752 160.124 17.87C157.796 12.904 153.127 10.2663 147.529 10.7616C145.82 10.9102 144.867 11.1579 143.591 11.7523C142.551 12.2353 141.251 13.3127 140.669 14.1796C140.409 14.5635 140.31 14.613 139.851 14.613H139.319V7.3065V1.11759e-06H135.789H132.26V19.6285ZM149.226 17.1641C151.418 17.8081 153.238 19.4923 153.92 21.4985C154.341 22.774 154.452 23.7895 154.39 25.8576C154.303 28.805 153.82 30.1796 152.347 31.678C150.873 33.1641 149.176 33.8328 146.873 33.8328C144.495 33.8452 142.935 33.226 141.412 31.7152C139.765 30.0681 139.257 28.582 139.269 25.387C139.269 23.1703 139.43 22.2043 140.012 20.9288C140.879 19.0464 142.786 17.5108 144.793 17.1022C145.152 17.0279 145.56 16.9412 145.697 16.9164C146.192 16.7926 148.557 16.9659 149.226 17.1641Z" fill="white"/>
<path d="M176.656 10.774C174.514 10.9598 172.272 11.6904 170.824 12.6811C169.87 13.3251 168.793 14.5263 168.347 15.418C167.728 16.7059 167.517 17.6718 167.529 19.257C167.542 21.6223 168.124 22.9969 169.771 24.5449C171.467 26.13 174.019 27.1331 178.824 28.1115C181.697 28.6935 182.601 28.9659 183.368 29.4861C184.718 30.4272 184.743 32.3839 183.393 33.4365C182.502 34.1548 181.709 34.3529 179.752 34.3653C177.87 34.3653 177.065 34.2291 176.037 33.709C174.625 33.0031 173.746 31.9381 173.238 30.2786C173.077 29.7709 172.904 29.3498 172.842 29.3498C172.78 29.3498 171.344 29.709 169.635 30.1548C167.926 30.6006 166.514 30.9598 166.489 30.9598C166.341 30.9598 166.96 32.8916 167.43 33.87C168.136 35.3684 168.755 36.161 170.006 37.1641C172.347 39.0464 175.542 40 179.567 40C183.827 40 186.774 39.0093 188.929 36.8545C190.638 35.1455 191.282 33.3498 191.183 30.6006C191.096 28.1486 190.477 26.7492 188.879 25.4365C187.009 23.9009 184.632 23.0464 179.368 22.0433C175.282 21.2755 174.266 20.6068 174.39 18.7616C174.452 17.7957 174.836 17.2384 175.765 16.7926C177.015 16.1734 179.418 16.1362 180.954 16.7183C182.192 17.1765 183.306 18.4644 183.591 19.7895C183.653 20.0867 183.728 20.1734 183.876 20.1362C184 20.0991 185.449 19.6532 187.108 19.1455C188.768 18.6254 190.155 18.1796 190.192 18.1548C190.303 18.031 189.709 16.6687 189.152 15.7523C187.616 13.2879 184.879 11.5542 181.622 10.9598C180.322 10.7368 178.068 10.6502 176.656 10.774Z" fill="white"/>
<path d="M30.8607 14.3902L30.8979 17.2757L38.2415 17.3128L45.5852 17.3376L45.548 17.7958C45.5109 18.2168 45.2013 18.4893 37.9567 24.5202L30.4025 30.7865L30.3653 35.0218L30.3406 39.2571H42.0434H53.7461V36.3469V33.4366H45.8824H38.0186V33.0032C38.0186 32.5822 38.2044 32.4088 45.6347 26.2292L53.2508 19.901V15.7153V11.5171H42.0434H30.8359L30.8607 14.3902Z" fill="white"/>
<path d="M97.4613 20.161C97.4613 29.2632 97.4985 30.0805 98.031 31.9134C99.1579 35.8514 101.845 38.5016 105.585 39.3932C107.628 39.8762 110.873 39.7028 112.731 39.0093C113.882 38.5759 115.74 36.966 116.272 35.9381C116.384 35.7152 116.52 35.6657 116.966 35.6657H117.523V37.4614V39.257H120.991H124.458V25.387V11.5171H120.929H117.399V18.7245C117.399 25.87 117.337 27.3561 116.966 28.7926C116.359 31.1827 114.551 33.0527 112.372 33.5728C111.418 33.7957 109.288 33.7586 108.421 33.5109C106.861 33.0527 105.697 32.0744 105.115 30.7245C104.57 29.449 104.52 28.5697 104.52 19.8019V11.5171H100.991H97.4613V20.161Z" fill="white"/>
</svg>
