<svg width="40" height="40" viewBox="0 0 40 40" fill="none" xmlns="http://www.w3.org/2000/svg">
<path fill-rule="evenodd" clip-rule="evenodd" d="M26.5391 7.40992C26.5391 6.63434 26.2299 5.89047 25.6795 5.34173L23.5663 3.24158L11.2634 15.4932C10.6532 16.0997 10.169 16.8202 9.83873 17.6133C9.5084 18.4064 9.33838 19.2566 9.33838 20.1152C9.33838 20.9738 9.5084 21.824 9.83873 22.6171C10.169 23.4102 10.6532 24.1306 11.2634 24.7372L13.3296 26.799C13.0621 25.5257 13.1176 24.206 13.491 22.9594C13.8645 21.7128 14.5441 20.5786 15.4685 19.6594L25.6795 9.47812C26.2299 8.92938 26.5391 8.18551 26.5391 7.40992ZM25.6764 15.4744C26.2287 16.0278 26.5389 16.7778 26.5389 17.5599C26.5389 18.3419 26.2287 19.092 25.6764 19.6454L20.508 24.8161C19.7701 25.5497 19.1853 26.4226 18.7875 27.3842C18.3897 28.3459 18.1869 29.377 18.1908 30.4177C18.1921 30.9606 18.2484 31.502 18.3588 32.0335L16.3216 29.9394C15.0823 28.6977 14.3863 27.0146 14.3863 25.2599C14.3863 23.5052 15.0823 21.8221 16.3216 20.5804L23.566 13.3371L25.6764 15.4744ZM25.6236 30.7811C25.9134 31.0584 26.1437 31.3893 26.3009 31.7546C26.4581 32.1198 26.5391 32.512 26.5391 32.9082C26.5391 33.3044 26.4581 33.6966 26.3009 34.0618C26.1437 34.4271 25.9134 34.758 25.6236 35.0353L23.5234 37.0815L21.3883 34.9927C20.2164 33.8461 19.5229 32.3151 19.4423 30.6972C19.3618 29.0792 19.9001 27.4898 20.9526 26.2376L25.6236 30.7811Z" fill="black"/>
</svg>
