<svg width="99" height="40" viewBox="0 0 99 40" fill="none" xmlns="http://www.w3.org/2000/svg">
<g clip-path="url(#clip0_1_118)">
<path d="M84.6028 22.9671L76.1549 8.96228H82.7141L87.364 18.4812L91.9656 8.96228H98.573L90.047 22.9671V30.7396C90.0457 31.2032 89.8609 31.6476 89.533 31.9755C89.2052 32.3034 88.7609 32.4882 88.2972 32.4895H84.6028V22.9671Z" fill="white"/>
<path d="M59.4734 8.96231H73.5779V11.9425C73.5779 12.4066 73.3936 12.8516 73.0655 13.1798C72.7372 13.5079 72.2922 13.6923 71.8282 13.6923H62.9183V18.5024H72.1647V21.2172C72.1634 21.681 71.9786 22.1252 71.6507 22.4531C71.3228 22.781 70.8786 22.9658 70.4148 22.9671H62.9183V27.7494H73.9612V30.7396C73.9618 30.9696 73.917 31.1975 73.8294 31.41C73.7416 31.6226 73.6127 31.8158 73.4502 31.9784C73.2875 32.141 73.0943 32.2699 72.8818 32.3576C72.6691 32.4454 72.4414 32.4902 72.2114 32.4895H57.7136V10.7121C57.7136 10.4815 57.7591 10.2532 57.8478 10.0402C57.9363 9.82725 58.066 9.63392 58.2296 9.47129C58.3931 9.30868 58.5872 9.18 58.8007 9.09264C59.0142 9.00529 59.2427 8.961 59.4734 8.96231Z" fill="white"/>
<path d="M41.4171 32.4897H37.972V10.7124C37.972 10.2483 38.1564 9.8032 38.4845 9.47504C38.8127 9.14688 39.2577 8.96252 39.7219 8.96252H54.0533V11.9427C54.052 12.4064 53.8672 12.8507 53.5393 13.1786C53.2114 13.5065 52.7672 13.6912 52.3035 13.6925H43.152V19.0016H52.2121V21.7162C52.2121 22.1804 52.0277 22.6254 51.6996 22.9536C51.3715 23.2818 50.9262 23.4661 50.4622 23.4661H43.152V30.7448C43.152 31.2058 42.9695 31.6482 42.6444 31.9752C42.3193 32.3021 41.878 32.487 41.4171 32.4897Z" fill="white"/>
<path d="M20.1153 32.4067C20.4438 32.7287 20.7049 33.113 20.883 33.5371C21.0613 33.9611 21.153 34.4166 21.153 34.8766C21.153 35.3366 21.0613 35.792 20.883 36.216C20.7049 36.6402 20.4438 37.0244 20.1153 37.3464L17.7344 39.7223L15.314 37.297C13.9854 35.9656 13.1992 34.1879 13.1079 32.3094C13.0166 30.4307 13.6268 28.5851 14.82 27.1312L20.1153 32.4067Z" fill="white"/>
<path d="M20.1796 14.8016C20.8131 15.436 21.169 16.2959 21.169 17.1924C21.169 18.0889 20.8131 18.9488 20.1796 19.5832L14.2522 25.5108C13.4059 26.3517 12.7351 27.3524 12.2789 28.4548C11.8227 29.5572 11.5901 30.7392 11.5946 31.9323C11.596 32.5547 11.6606 33.1753 11.7872 33.7847L9.45078 31.384C8.02945 29.9605 7.23114 28.0312 7.23114 26.0196C7.23114 24.008 8.02945 22.0785 9.45078 20.6551L17.7592 12.3516L20.1796 14.8016Z" fill="white"/>
<path d="M20.1696 3.00104C20.8052 3.63733 21.1621 4.49989 21.1621 5.39923C21.1621 6.29857 20.8052 7.16113 20.1696 7.79743L8.37867 19.6031C7.3113 20.6691 6.52651 21.9843 6.09527 23.4298C5.66403 24.8752 5.59995 26.4055 5.90885 27.882L3.52301 25.4912C2.81835 24.7879 2.2593 23.9524 1.87787 23.0328C1.49645 22.1131 1.30011 21.1274 1.30011 20.1318C1.30011 19.136 1.49645 18.1503 1.87787 17.2306C2.2593 16.311 2.81835 15.4755 3.52301 14.7722L17.7294 0.565796L20.1696 3.00104Z" fill="white"/>
</g>
<defs>
<clipPath id="clip0_1_118">
<rect width="98.6667" height="40" fill="white"/>
</clipPath>
</defs>
</svg>
