<svg width="264" height="25" viewBox="0 0 264 25" fill="none" xmlns="http://www.w3.org/2000/svg">
<g clip-path="url(#clip0_391_82)">
<path d="M30.6109 0.624023H35.0858L23.9671 24.0144H19.4922L30.6109 0.624023Z" fill="#CCCCCC"/>
<path d="M15.5936 0.467773C15.5936 2.51556 15.1903 4.54329 14.4066 6.43519C13.623 8.3271 12.4744 10.0461 11.0264 11.4941C9.57835 12.9421 7.85933 14.0907 5.96742 14.8744C4.07552 15.6581 2.04778 16.0614 0 16.0614L3.40696e-07 8.26718C1.02423 8.26718 2.03844 8.06545 2.98471 7.67349C3.93097 7.28153 4.79077 6.70703 5.51502 5.98279C6.23926 5.25855 6.81376 4.39875 7.20572 3.45248C7.59767 2.50621 7.79941 1.49201 7.79941 0.467773H15.5936Z" fill="#CCCCCC"/>
<path d="M248.406 0.467773C248.406 2.51556 248.81 4.54329 249.593 6.43519C250.377 8.3271 251.526 10.0461 252.974 11.4941C254.422 12.9421 256.141 14.0907 258.032 14.8744C259.924 15.6581 261.952 16.0614 264 16.0614V8.26718C262.976 8.26718 261.961 8.06545 261.015 7.67349C260.069 7.28153 259.209 6.70703 258.485 5.98279C257.761 5.25855 257.186 4.39875 256.794 3.45248C256.402 2.50621 256.2 1.49201 256.2 0.467773H248.406Z" fill="white"/>
<path d="M248.406 23.8582C248.406 21.8105 248.81 19.7827 249.593 17.8908C250.377 15.9989 251.526 14.2799 252.974 12.8319C254.422 11.3839 256.141 10.2353 258.032 9.45164C259.924 8.66799 261.952 8.26465 264 8.26465V16.0588C262.976 16.0588 261.961 16.2606 261.015 16.6525C260.069 17.0445 259.209 17.619 258.485 18.3432C257.761 19.0675 257.186 19.9273 256.794 20.8735C256.402 21.8198 256.2 22.834 256.2 23.8582H248.406Z" fill="#CCCCCC"/>
<path fill-rule="evenodd" clip-rule="evenodd" d="M0.162272 8.26549C0.108197 8.26493 0.0541054 8.26465 0 8.26465V8.26718C0.0541215 8.26718 0.108215 8.26662 0.162272 8.26549ZM0.162273 16.0605C1.13123 16.0807 2.08844 16.2813 2.98471 16.6526C3.93097 17.0445 4.79077 17.619 5.51502 18.3433C6.23926 19.0675 6.81376 19.9273 7.20572 20.8736C7.59767 21.8198 7.79941 22.834 7.79941 23.8583H15.5936C15.5936 21.8105 15.1903 19.7828 14.4066 17.8908C13.623 15.9989 12.4744 14.2799 11.0264 12.8319C10.7957 12.6013 10.5582 12.3782 10.3142 12.163C9.02633 13.2988 7.55797 14.2156 5.96742 14.8744C4.1255 15.6373 2.15484 16.0398 0.162273 16.0605Z" fill="white"/>
<path d="M39.0615 23.8258V0.483398H53.8248V4.4516H43.4037V10.5373H52.806V14.3721H43.4037V23.8258H39.0615Z" fill="#F3F6F9"/>
<path d="M58.6324 23.8258V0.483398H62.9745V23.8258H58.6324Z" fill="#F3F6F9"/>
<path d="M68.8745 23.8258V0.483398H73.083L84.1555 16.5563V0.483398H88.3807V23.8258H84.1722L73.0997 7.55279V23.8258H68.8745Z" fill="#F3F6F9"/>
<path d="M91.612 23.8258L100.58 0.483398H105.423L114.575 23.8258H109.682L107.695 18.5404H98.2922L96.3716 23.8258H91.612ZM99.361 14.8556H106.592L102.918 5.38529L99.361 14.8556Z" fill="#F3F6F9"/>
<path d="M117.802 23.8258V0.483398H126.853C128.512 0.483398 129.954 0.766841 131.179 1.33373C132.404 1.8895 133.35 2.68981 134.018 3.73465C134.686 4.7795 135.02 6.02443 135.02 7.46943C135.02 8.62543 134.781 9.64249 134.302 10.5206C133.823 11.3987 133.161 12.1268 132.314 12.7048C131.479 13.2828 130.511 13.6885 129.409 13.9219L136.206 23.8258H130.995L124.95 14.6889H122.144V23.8258H117.802ZM122.144 11.1375H126.219C127.61 11.1375 128.696 10.8485 129.475 10.2705C130.255 9.68139 130.644 8.82551 130.644 7.70285C130.644 6.53573 130.288 5.6465 129.576 5.03515C128.863 4.42381 127.816 4.11813 126.436 4.11813H122.144V11.1375Z" fill="#F3F6F9"/>
<path d="M144.968 23.8258V13.8552L136.735 0.483398H141.662L147.239 9.68695L152.767 0.483398H157.56L149.327 13.8886V23.8258H144.968Z" fill="#F3F6F9"/>
<path d="M160.597 23.8258V0.483398H164.939V19.8576H174.859V23.8258H160.597Z" fill="#F3F6F9"/>
<path d="M176.289 23.8258L185.257 0.483398H190.1L199.252 23.8258H194.359L192.371 18.5404H182.969L181.048 23.8258H176.289ZM184.038 14.8556H191.269L187.595 5.38529L184.038 14.8556Z" fill="#F3F6F9"/>
<path d="M202.478 23.8258V0.483398H210.845C213.128 0.483398 214.965 0.983591 216.357 1.98398C217.759 2.97325 218.461 4.44048 218.461 6.38568C218.461 7.10818 218.294 7.79177 217.96 8.43647C217.626 9.08116 217.192 9.64805 216.657 10.1371C216.123 10.6151 215.555 10.9819 214.954 11.2376C216.223 11.6377 217.27 12.3547 218.093 13.3884C218.917 14.4221 219.329 15.6837 219.329 17.1732C219.329 18.4848 218.995 19.6408 218.327 20.6412C217.67 21.6416 216.73 22.4252 215.505 22.9921C214.28 23.5479 212.833 23.8258 211.163 23.8258H202.478ZM206.821 20.5078H210.478C211.936 20.5078 213.028 20.2188 213.751 19.6408C214.475 19.0517 214.837 18.1736 214.837 17.0065C214.837 15.8616 214.475 14.9835 213.751 14.3721C213.039 13.7608 211.953 13.4551 210.495 13.4551H206.821V20.5078ZM206.821 10.3205H210.211C211.024 10.3205 211.731 10.1872 212.332 9.92037C212.933 9.6536 213.401 9.27012 213.735 8.76993C214.069 8.25862 214.236 7.65283 214.236 6.95256C214.236 5.92994 213.879 5.15187 213.167 4.61833C212.465 4.07367 211.458 3.80134 210.144 3.80134H206.821V10.3205Z" fill="#F3F6F9"/>
<path d="M231.708 24.326C230.038 24.326 228.407 24.0871 226.814 23.6091C225.233 23.12 223.897 22.4253 222.806 21.525L224.911 18.2404C225.445 18.7294 226.085 19.1518 226.831 19.5075C227.577 19.8632 228.368 20.1411 229.203 20.3412C230.049 20.5301 230.889 20.6246 231.724 20.6246C233.116 20.6246 234.246 20.369 235.115 19.8577C235.983 19.3352 236.417 18.5849 236.417 17.6068C236.417 16.8398 236.117 16.2007 235.515 15.6894C234.914 15.167 233.806 14.6779 232.192 14.2222L229.921 13.5719C227.638 12.9272 225.985 12.0658 224.961 10.9876C223.948 9.89826 223.441 8.56441 223.441 6.98603C223.441 5.9523 223.652 5.00749 224.076 4.1516C224.499 3.29571 225.094 2.55654 225.863 1.93408C226.642 1.31162 227.56 0.833654 228.618 0.500192C229.676 0.166731 230.828 0 232.075 0C233.712 0 235.232 0.238981 236.634 0.716943C238.037 1.18379 239.184 1.82292 240.075 2.63435L237.92 5.81891C237.453 5.38541 236.902 5.00749 236.267 4.68514C235.632 4.36279 234.948 4.11825 234.213 3.95152C233.478 3.77368 232.738 3.68475 231.992 3.68475C231.112 3.68475 230.344 3.80702 229.687 4.05156C229.03 4.2961 228.518 4.64624 228.15 5.10197C227.783 5.5577 227.599 6.11347 227.599 6.76928C227.599 7.24724 227.722 7.66407 227.967 8.01976C228.223 8.37545 228.657 8.70336 229.269 9.00347C229.882 9.29247 230.728 9.59815 231.808 9.92049L234.179 10.6208C236.417 11.2766 238.048 12.1213 239.073 13.1551C240.097 14.1777 240.609 15.5115 240.609 17.1566C240.609 18.5683 240.253 19.8132 239.54 20.8914C238.828 21.9696 237.803 22.8144 236.467 23.4257C235.142 24.0259 233.556 24.326 231.708 24.326Z" fill="#F3F6F9"/>
</g>
<defs>
<clipPath id="clip0_391_82">
<rect width="264" height="25" fill="white"/>
</clipPath>
</defs>
</svg>
