<svg width="107" height="40" viewBox="0 0 107 40" fill="none" xmlns="http://www.w3.org/2000/svg">
<path d="M15.567 0C18.7973 0 21.8212 0.687187 24.6391 2.06186L22.3711 7.26804C20.3437 6.4433 18.3849 6.03093 16.4948 6.03093C14.914 6.03093 13.8144 6.30574 13.1958 6.85567C12.6118 7.40559 12.3196 8.35051 12.3196 9.69072V11.7526H27.5257V39.1237H19.3814V17.4227H12.3196V39.1237H4.17526V17.4227H0V11.7526H4.17526V9.38144C4.17526 6.56347 5.10309 4.29543 6.95876 2.57732C8.81443 0.859205 11.6839 0 15.567 0ZM49.9296 10.8763C52.3007 10.8763 54.1564 11.5979 55.4966 13.0412C56.8368 14.4845 57.5069 16.5119 57.5069 19.1237V39.1237H49.3626V20.5155C49.3626 19.1408 49.139 18.1959 48.6925 17.6804C48.2801 17.1305 47.6442 16.8557 46.7852 16.8557C45.1358 16.8557 43.5549 18.0412 42.043 20.4124V39.1237H33.8986V11.7526H41.012L41.5791 15C42.7472 13.6253 44.0017 12.5944 45.3419 11.9072C46.7163 11.22 48.2456 10.8763 49.9296 10.8763ZM80.8135 37.8351C79.8168 38.5222 78.6486 39.0551 77.3084 39.433C76.0023 39.8109 74.6966 40 73.3908 40C67.4115 39.9655 64.4218 36.6666 64.4218 30.1031V17.4227H60.5558V11.7526H64.4218V5.82474L72.5661 4.89691V11.7526H78.8548L77.9785 17.4227H72.5661V30C72.5661 31.2716 72.7723 32.182 73.1846 32.732C73.597 33.2819 74.2498 33.5567 75.1434 33.5567C76.0713 33.5567 77.0506 33.2645 78.0816 32.6804L80.8135 37.8351ZM104.681 31.1856C104.681 32.2165 104.818 32.9726 105.093 33.4536C105.402 33.9346 105.883 34.2954 106.536 34.5361L104.835 39.8454C103.151 39.7078 101.777 39.347 100.712 38.7629C99.6462 38.1443 98.8215 37.182 98.2374 35.8763C96.4503 38.6253 93.7013 40 89.99 40C87.2751 40 85.1101 39.2097 83.4951 37.6289C81.8801 36.048 81.0724 33.9862 81.0724 31.4433C81.0724 28.4536 82.172 26.1685 84.3714 24.5876C86.5708 23.0068 89.7493 22.2165 93.9075 22.2165H96.691V21.0309C96.691 19.4159 96.3472 18.3161 95.6601 17.732C94.9729 17.1134 93.7699 16.8041 92.0518 16.8041C91.1584 16.8041 90.076 16.9417 88.8044 17.2165C87.5328 17.4571 86.2271 17.8006 84.8869 18.2474L83.0312 12.8866C84.7493 12.2336 86.5019 11.7355 88.2889 11.3918C90.1101 11.048 91.7941 10.8763 93.3405 10.8763C97.258 10.8763 100.128 11.6839 101.949 13.299C103.77 14.914 104.681 17.3367 104.681 20.567V31.1856ZM92.3611 34.1753C94.2168 34.1753 95.6601 33.299 96.691 31.5464V26.701H94.6807C92.825 26.701 91.4333 27.0274 90.5054 27.6804C89.612 28.3334 89.1652 29.347 89.1652 30.7216C89.1652 31.8212 89.44 32.6804 89.99 33.299C90.574 33.8831 91.3646 34.1753 92.3611 34.1753Z" fill="white"/>
</svg>
