<svg width="219" height="40" viewBox="0 0 219 40" fill="none" xmlns="http://www.w3.org/2000/svg">
<path d="M84.6702 23.0371V18.9664H69.4862V24.4606H77.328L77.3029 25.035C77.1531 29.5053 73.7317 32.5272 68.8117 32.5272C62.8182 32.5272 59.0222 27.7572 59.0222 19.9404C59.0222 12.2735 62.5935 7.7532 68.5371 7.7532C72.6077 7.7532 75.6797 10.0008 76.7786 13.7719H84.3455C83.2717 6.47953 76.9284 1.50977 68.512 1.50977C57.9233 1.50977 51.3302 8.5024 51.3302 20.0403C51.3302 31.7529 57.9233 38.7955 68.6869 38.7955C78.7262 38.7955 84.6702 32.8518 84.6702 23.0371Z" fill="white"/>
<path d="M105.923 1.50977C95.2342 1.50977 88.5411 8.67724 88.5411 20.1652C88.5411 31.6281 95.2342 38.7955 105.923 38.7955C116.587 38.7955 123.304 31.6281 123.304 20.1652C123.304 8.67724 116.587 1.50977 105.923 1.50977ZM105.923 7.80313C111.817 7.80313 115.588 12.5981 115.588 20.1652C115.588 27.7072 111.817 32.4772 105.923 32.4772C100.004 32.4772 96.2331 27.7072 96.2331 20.1652C96.2331 12.5981 100.029 7.80313 105.923 7.80313Z" fill="white"/>
<path d="M128.174 2.13379V38.1708H141.935C152.748 38.1708 159.117 31.453 159.117 20.015C159.117 8.57703 152.748 2.13379 141.935 2.13379H128.174ZM135.716 8.35226H141.036C147.679 8.35226 151.425 12.4979 151.425 20.04C151.425 27.8318 147.779 31.9275 141.036 31.9275H135.716V8.35226Z" fill="white"/>
<path d="M187.287 31.9275H171.529V2.13379H163.987V38.1708H187.287V31.9275Z" fill="white"/>
<path d="M203.795 38.1708V24.71L216.357 2.13379H208.265L200.174 17.5176H199.999L191.932 2.13379H183.716L196.253 24.71V38.1708H203.795Z" fill="white"/>
<path fill-rule="evenodd" clip-rule="evenodd" d="M23.0157 4.12118C23.7137 2.89971 25.475 2.89971 26.173 4.12118L44.644 36.4451C45.3364 37.6575 44.4611 39.1655 43.0651 39.1655H6.12349C4.72745 39.1655 3.85221 37.6575 4.54487 36.4451L23.0157 4.12118ZM16.1428 29.7147C15.4501 30.9268 16.3253 32.4349 17.7214 32.4349H31.4673C32.8634 32.4349 33.7386 30.9268 33.046 29.7147L26.173 17.687C25.475 16.4655 23.7137 16.4655 23.0157 17.687L16.1428 29.7147Z" fill="white"/>
</svg>
