<svg width="408" height="40" viewBox="0 0 408 40" fill="none" xmlns="http://www.w3.org/2000/svg">
<path d="M24.7619 1.42871H12.381V18.5716H24.7619V1.42871Z" fill="white"/>
<path d="M118.571 1.42871H106.19V18.5716H118.571V1.42871Z" fill="white"/>
<path d="M49.5238 1.42871H37.1429V18.5716H49.5238V1.42871Z" fill="white"/>
<path d="M61.4286 18.5716H72.8572V11.4287H93.8095V1.42871H61.4286V18.5716Z" fill="white"/>
<path d="M179.048 18.5716H190.476V11.4287H211.429V1.42871H179.048V18.5716Z" fill="white"/>
<path d="M163.029 4.56665C161.344 3.21562 159.413 2.20482 157.343 1.59046C154.617 0.790722 151.783 0.414903 148.943 0.476173C143.299 0.476173 138.865 1.64284 135.643 3.97617C132.42 6.30952 130.81 9.76981 130.81 14.3571C130.808 15.7754 130.967 17.1893 131.286 18.5714H155.857V18.5381C155.433 18.4857 150.043 17.8429 148.081 17.5857C146.63 17.4512 145.235 16.9605 144.019 16.1571C143.634 15.8717 143.324 15.4975 143.115 15.0663C142.906 14.6351 142.805 14.1599 142.819 13.681C142.805 13.1333 142.933 12.5914 143.19 12.1076C143.447 11.6238 143.824 11.2145 144.286 10.919C145.271 10.2381 146.8 9.89524 148.862 9.89524C151.138 9.89524 152.813 10.3286 153.886 11.1952C154.959 12.0619 155.68 13.3635 156.048 15.1L167.476 12.0238C167.216 10.9388 166.848 9.88262 166.376 8.87143C165.591 7.20728 164.448 5.73728 163.029 4.56665Z" fill="white"/>
<path d="M260 1.42871H248.571V18.5716H260V1.42871Z" fill="white"/>
<path d="M222.857 1.42871V18.5716H243.81L233.205 1.42871H222.857Z" fill="white"/>
<path d="M291.676 1.42854H271.429V18.5714H282.857V10.4762H289.914C292.186 10.4762 293.767 10.8 294.648 11.4286C295.529 12.0571 295.976 13.1 295.976 14.5095C295.976 15.8397 295.597 16.846 294.838 17.5286C294.081 18.2143 292.648 18.5571 290.552 18.5571H307.648C307.648 18.5571 312.514 1.09521 291.676 1.42854Z" fill="white"/>
<path d="M357.143 1.42871H345.714V18.5716H357.143V1.42871Z" fill="white"/>
<path d="M402.762 4.85716C401.102 3.45571 399.197 2.37397 397.143 1.66666C394.627 0.826576 391.985 0.423919 389.333 0.476187C386.199 0.417372 383.083 0.972233 380.162 2.10952C377.606 3.11365 375.321 4.70586 373.495 6.75716C371.658 8.89897 370.303 11.4115 369.524 14.1238C369.078 15.5759 368.759 17.0641 368.571 18.5714H380.843C381.076 16.8974 381.651 15.2894 382.533 13.8476C383.959 11.6667 386.219 10.5762 389.314 10.5762C391.295 10.5762 392.827 11.0191 393.91 11.9048C394.986 12.781 395.752 14.1572 396.224 16.0191L407.619 12.9095C407.29 11.7231 406.853 10.5691 406.314 9.46192C405.455 7.70192 404.246 6.1352 402.762 4.85716Z" fill="white"/>
<path d="M331.429 17.3049V1.42871H320V18.5716H333.333C332.932 18.5468 332.545 18.4167 332.21 18.1943C331.876 17.9719 331.606 17.6651 331.429 17.3049Z" fill="white"/>
<path d="M239.314 37.6189H248.571V18.5713H227.143L239.314 37.6189Z" fill="white"/>
<path d="M12.381 18.5713H0V37.6189H12.381V18.5713Z" fill="white"/>
<path d="M131.29 18.5713C132.173 18.8189 133.106 19.0395 134.09 19.2332L140 20.4189C141.863 20.8157 143.148 21.3761 143.852 22.0999C144.202 22.4617 144.476 22.8901 144.658 23.3595C144.839 23.829 144.925 24.3301 144.91 24.8332C144.941 25.4813 144.813 26.1273 144.537 26.7143C144.26 27.3013 143.844 27.8115 143.324 28.1999C142.267 28.9903 140.68 29.3856 138.562 29.3856C136.076 29.3856 134.186 28.8475 132.905 27.7713C131.624 26.6951 130.852 25.057 130.6 22.857H118.729C119.363 33.8888 125.832 39.4443 138.133 39.5237C140.952 39.5761 143.762 39.1987 146.467 38.4046C148.61 37.7762 150.6 36.7092 152.31 35.2713C153.818 33.9588 154.986 32.3004 155.714 30.438C156.483 28.4179 156.862 26.2706 156.833 24.1094C156.864 22.2189 156.536 20.3397 155.867 18.5713H131.29Z" fill="white"/>
<path d="M222.857 18.5713H211.429V37.6189H222.857V18.5713Z" fill="white"/>
<path d="M279.767 18.5713C279.767 18.5713 282.686 18.5713 283.867 19.657C284.89 20.6094 285.257 21.6713 285.257 23.1761C285.245 23.8574 285.092 24.5289 284.81 25.149C284.527 25.7691 284.12 26.3245 283.614 26.7808C282.7 27.657 280.976 28.0951 278.443 28.0951H271.429V18.5713H260V37.6189H279.524C282.262 37.6821 284.993 37.3174 287.619 36.538C289.586 35.955 291.405 34.9599 292.957 33.6189C294.263 32.4508 295.26 30.9788 295.862 29.3332C296.452 27.6947 296.75 25.9653 296.743 24.2237C296.792 22.272 296.383 20.3358 295.548 18.5713H279.767Z" fill="white"/>
<path d="M333.333 19.2951C333.333 22.4697 332.829 24.8205 331.819 26.3475C330.81 27.8745 329.092 28.6427 326.667 28.6522C324.244 28.6522 322.527 27.884 321.514 26.3475C320.501 24.811 319.997 22.4602 320 19.2951V18.5713H307.619V18.8332C307.552 22.0097 307.978 25.1774 308.881 28.2237C309.595 30.6226 310.859 32.8221 312.571 34.6475C314.229 36.3421 316.273 37.6086 318.529 38.338C321.117 39.1638 323.822 39.5642 326.538 39.5237C329.265 39.5627 331.981 39.1623 334.581 38.338C336.857 37.6105 338.923 36.3445 340.605 34.6475C342.346 32.8236 343.649 30.6266 344.414 28.2237C345.351 25.184 345.79 22.013 345.714 18.8332V18.5713H333.333V19.2951Z" fill="white"/>
<path d="M106.19 18.5713H93.8095V37.6189H106.19V18.5713Z" fill="white"/>
<path d="M37.1429 18.5713H24.7619V37.6189H37.1429V18.5713Z" fill="white"/>
<path d="M61.4286 18.5713H49.5238V37.6189H82.0857L83.0952 27.1427H61.4286V18.5713Z" fill="white"/>
<path d="M179.048 18.5713H167.143V37.6189H199.705L200.714 27.1427H179.048V18.5713Z" fill="white"/>
<path d="M385.714 18.5713V27.1427C383.598 28.32 381.207 28.9117 378.786 28.857C375.027 28.857 372.356 27.6808 370.771 25.3284C369.648 23.6808 368.922 21.4284 368.595 18.5713H357.143C357.39 22.857 359.395 39.6284 379.271 39.5237C382.43 39.4115 385.549 38.7759 388.5 37.6427C391.474 36.5326 394.236 34.9221 396.667 32.8808V18.5713H385.714Z" fill="white"/>
</svg>
