<svg width="278" height="40" viewBox="0 0 278 40" fill="none" xmlns="http://www.w3.org/2000/svg">
<path d="M16.4218 7.10742C18.5736 7.10742 20.5366 7.41885 22.3109 8.04178C24.1041 8.66464 25.718 9.47633 27.1525 10.4767C28.6059 11.4582 29.8801 12.4775 30.9748 13.5346C31.5788 14.1008 32.1262 14.6577 32.617 15.2051C33.1077 15.7525 33.5796 16.2999 34.0325 16.8472C34.4478 16.2999 34.8724 15.7713 35.3066 15.2617C35.7596 14.7332 36.3258 14.1574 37.0057 13.5346C38.6477 11.9301 40.6862 10.4578 43.1212 9.11765C45.5751 7.77748 48.4158 7.10742 51.6438 7.10742C54.6638 7.10742 57.4102 7.84358 59.8829 9.31585C62.3745 10.7693 64.3468 12.7229 65.8002 15.1767C67.2725 17.6305 68.0084 20.3487 68.0084 23.3309C68.0084 25.5963 67.5839 27.7194 66.7344 29.7013C65.8853 31.6644 64.7147 33.3915 63.2235 34.8827C61.7324 36.355 59.9961 37.516 58.0141 38.3655C56.0322 39.1957 53.9085 39.611 51.6438 39.611C49.4916 39.611 47.5096 39.3094 45.6979 38.7049C43.9045 38.0822 42.2814 37.2897 40.8279 36.327C39.3933 35.3643 38.1289 34.3731 37.0337 33.3538C36.4109 32.7311 35.8539 32.146 35.3631 31.5987C34.8918 31.0325 34.4478 30.4754 34.0325 29.9281C33.5608 30.4754 33.0794 31.0325 32.5887 31.5987C32.0979 32.1649 31.5505 32.7499 30.9465 33.3538C29.8706 34.3731 28.6059 35.3643 27.1525 36.327C25.718 37.2708 24.1041 38.0541 22.3109 38.6769C20.5366 39.2997 18.5736 39.611 16.4218 39.611C13.3639 39.611 10.5987 38.8843 8.12593 37.4308C5.65321 35.9774 3.68074 34.024 2.20842 31.5701C0.736159 29.0974 0 26.351 0 23.3309C0 21.0848 0.415245 18.9896 1.24579 17.0454C2.09519 15.0824 3.2655 13.3552 4.75662 11.864C6.2667 10.3729 8.01269 9.21203 9.99464 8.38154C11.9954 7.53215 14.1378 7.10742 16.4218 7.10742ZM7.8145 23.3309C7.8145 24.8975 8.20146 26.323 8.97533 27.6062C9.74925 28.89 10.7874 29.9092 12.0898 30.664C13.3922 31.4193 14.8362 31.7969 16.4218 31.7969C18.196 31.7969 19.8288 31.4004 21.32 30.6074C22.8111 29.815 24.1985 28.8146 25.482 27.6062C26.2937 26.8326 26.9921 26.087 27.5772 25.3695C28.1623 24.6524 28.672 23.9726 29.1061 23.3309C28.6531 22.727 28.1152 22.0569 27.4923 21.3207C26.8883 20.5657 26.2182 19.8484 25.482 19.1689C24.274 17.9797 22.9055 16.9793 21.3766 16.1677C19.8476 15.3372 18.196 14.9219 16.4218 14.9219C14.8362 14.9219 13.3922 15.3089 12.0898 16.0828C10.7874 16.8378 9.74925 17.8571 8.97533 19.1406C8.20146 20.4053 7.8145 21.8021 7.8145 23.3309ZM60.1377 23.3309C60.1377 21.8021 59.7504 20.4053 58.9768 19.1406C58.2215 17.8571 57.2023 16.8378 55.919 16.0828C54.6353 15.3089 53.2104 14.9219 51.6438 14.9219C50.4354 14.9219 49.2842 15.1107 48.1895 15.4882C47.0948 15.8657 46.0659 16.3753 45.1032 17.0171C44.1593 17.6589 43.2909 18.3761 42.4985 19.1689C41.6489 19.9617 40.9033 20.7733 40.2617 21.6039C39.6201 22.4155 39.1573 22.9912 38.8745 23.3309C39.3459 23.9914 39.8749 24.6804 40.46 25.398C41.045 26.0962 41.7243 26.8326 42.4985 27.6062C43.7628 28.8146 45.1409 29.815 46.6321 30.6074C48.1421 31.4004 49.8127 31.7969 51.6438 31.7969C53.2104 31.7969 54.6353 31.4193 55.919 30.664C57.2023 29.9092 58.2215 28.89 58.9768 27.6062C59.7504 26.323 60.1377 24.8975 60.1377 23.3309Z" fill="white"/>
<path d="M98.3345 1.81818V39.4306H91.5208V1.81818H98.3345ZM112.068 22.9017V39.4306H105.419V11.2213H111.773V16.0147H112.104C112.753 14.4352 113.788 13.1802 115.208 12.2498C116.64 11.3192 118.409 10.8539 120.515 10.8539C122.462 10.8539 124.158 11.2703 125.603 12.1028C127.06 12.9354 128.186 14.1414 128.982 15.7208C129.79 17.3003 130.188 19.2164 130.176 21.4692V39.4306H123.527V22.4977C123.527 20.6121 123.038 19.1368 122.058 18.0716C121.091 17.0064 119.75 16.4738 118.036 16.4738C116.873 16.4738 115.839 16.7309 114.932 17.2452C114.039 17.7471 113.335 18.4756 112.82 19.4306C112.318 20.3856 112.068 21.5427 112.068 22.9017ZM151.222 11.2213V16.3636H134.547V11.2213H151.222ZM138.715 39.4306V8.55831C138.715 6.66056 139.107 5.08109 139.891 3.82C140.687 2.55892 141.752 1.61616 143.086 0.991728C144.421 0.367299 145.902 0.0551103 147.531 0.0551103C148.682 0.0551103 149.704 0.146909 150.598 0.330612C151.492 0.514262 152.153 0.67954 152.581 0.826449L151.259 5.96879C150.978 5.88308 150.623 5.79737 150.194 5.71166C149.766 5.61372 149.288 5.56475 148.761 5.56475C147.525 5.56475 146.65 5.86471 146.135 6.46463C145.633 7.05232 145.382 7.89714 145.382 8.99909V39.4306H138.715ZM156.429 39.4306V11.2213H163.077V39.4306H156.429ZM159.772 7.21759C158.718 7.21759 157.812 6.86867 157.053 6.17081C156.294 5.46067 155.915 4.60971 155.915 3.61798C155.915 2.61403 156.294 1.76307 157.053 1.06521C157.812 0.355069 158.718 0 159.772 0C160.837 0 161.743 0.355069 162.49 1.06521C163.249 1.76307 163.628 2.61403 163.628 3.61798C163.628 4.60971 163.249 5.46067 162.49 6.17081C161.743 6.86867 160.837 7.21759 159.772 7.21759ZM192.21 18.6777L186.149 19.3388C185.978 18.7266 185.678 18.1512 185.249 17.6124C184.833 17.0737 184.269 16.6391 183.559 16.3085C182.849 15.9779 181.98 15.8126 180.951 15.8126C179.568 15.8126 178.405 16.1126 177.462 16.7125C176.532 17.3125 176.072 18.09 176.085 19.045C176.072 19.8653 176.372 20.5326 176.984 21.0468C177.609 21.561 178.638 21.9834 180.07 22.314L184.882 23.3423C187.551 23.9182 189.534 24.8302 190.832 26.079C192.142 27.3277 192.803 28.9622 192.816 30.9824C192.803 32.758 192.283 34.3251 191.254 35.6838C190.238 37.0306 188.824 38.0838 187.012 38.8428C185.2 39.6019 183.119 39.9817 180.768 39.9817C177.315 39.9817 174.536 39.2593 172.43 37.8144C170.324 36.3572 169.069 34.3311 168.665 31.7355L175.148 31.1111C175.442 32.3841 176.066 33.3457 177.021 33.9944C177.976 34.6435 179.219 34.9678 180.749 34.9678C182.329 34.9678 183.596 34.6435 184.551 33.9944C185.518 33.3457 186.002 32.5436 186.002 31.5884C186.002 30.7804 185.69 30.1134 185.065 29.5866C184.453 29.0602 183.498 28.6562 182.2 28.3744L177.388 27.3643C174.683 26.8014 172.681 25.8522 171.383 24.5178C170.085 23.1711 169.442 21.4692 169.455 19.4123C169.442 17.6736 169.914 16.1677 170.869 14.8943C171.836 13.6088 173.177 12.6171 174.891 11.9192C176.617 11.209 178.607 10.8539 180.86 10.8539C184.165 10.8539 186.767 11.558 188.665 12.966C190.575 14.374 191.757 16.2779 192.21 18.6777ZM198.298 39.4306V11.2213H204.946V39.4306H198.298ZM201.64 7.21759C200.587 7.21759 199.681 6.86867 198.922 6.17081C198.163 5.46067 197.783 4.60971 197.783 3.61798C197.783 2.61403 198.163 1.76307 198.922 1.06521C199.681 0.355069 200.587 0 201.64 0C202.705 0 203.612 0.355069 204.358 1.06521C205.117 1.76307 205.497 2.61403 205.497 3.61798C205.497 4.60971 205.117 5.46067 204.358 6.17081C203.612 6.86867 202.705 7.21759 201.64 7.21759ZM224.087 39.9817C221.271 39.9817 218.853 39.3632 216.833 38.1269C214.825 36.89 213.276 35.1822 212.186 33.0026C211.109 30.8111 210.57 28.2888 210.57 25.4363C210.57 22.5711 211.121 20.0428 212.223 17.8512C213.325 15.6474 214.88 13.9333 216.888 12.7089C218.908 11.4723 221.296 10.8539 224.051 10.8539C226.34 10.8539 228.366 11.2764 230.129 12.1212C231.905 12.9538 233.319 14.1353 234.372 15.6657C235.425 17.1839 236.025 18.9592 236.172 20.9917H229.817C229.56 19.6326 228.948 18.5001 227.981 17.5941C227.026 16.6758 225.746 16.2167 224.142 16.2167C222.783 16.2167 221.59 16.584 220.561 17.3186C219.533 18.041 218.731 19.0817 218.155 20.4407C217.592 21.7998 217.311 23.4279 217.311 25.3258C217.311 27.248 217.592 28.9013 218.155 30.2847C218.718 31.6558 219.508 32.7149 220.524 33.4616C221.553 34.1964 222.759 34.5638 224.142 34.5638C225.122 34.5638 225.997 34.3801 226.768 34.0127C227.552 33.6334 228.207 33.0882 228.734 32.3782C229.26 31.6682 229.621 30.8051 229.817 29.7886H236.172C236.012 31.7845 235.425 33.5537 234.409 35.0966C233.392 36.6265 232.009 37.8268 230.258 38.6958C228.507 39.5529 226.45 39.9817 224.087 39.9817ZM249.749 40C247.961 40 246.351 39.6816 244.918 39.0448C243.498 38.3962 242.371 37.4411 241.539 36.1799C240.719 34.9188 240.309 33.3641 240.309 31.5152C240.309 29.9233 240.602 28.6072 241.19 27.5664C241.778 26.5256 242.58 25.6932 243.596 25.0689C244.612 24.4445 245.757 23.9731 247.03 23.6547C248.316 23.324 249.644 23.0853 251.016 22.9384C252.668 22.767 254.009 22.614 255.038 22.4793C256.066 22.3324 256.813 22.112 257.278 21.8181C257.756 21.512 257.994 21.0406 257.994 20.404V20.2938C257.994 18.9103 257.584 17.839 256.764 17.0799C255.944 16.3208 254.762 15.9412 253.219 15.9412C251.591 15.9412 250.299 16.2963 249.344 17.0064C248.402 17.7165 247.765 18.5552 247.434 19.5225L241.227 18.6409C241.717 16.9268 242.525 15.4943 243.651 14.3434C244.777 13.1802 246.155 12.311 247.783 11.7355C249.412 11.1478 251.212 10.8539 253.183 10.8539C254.542 10.8539 255.895 11.0131 257.242 11.3315C258.588 11.6498 259.819 12.1763 260.933 12.9109C262.047 13.6333 262.941 14.6189 263.614 15.8678C264.3 17.1166 264.643 18.6777 264.643 20.5509V39.4306H258.252V35.5556H258.031C257.627 36.3389 257.058 37.0737 256.323 37.7595C255.601 38.4329 254.689 38.9775 253.587 39.3939C252.497 39.798 251.218 40 249.749 40ZM251.475 35.1149C252.809 35.1149 253.966 34.8515 254.946 34.3251C255.925 33.7864 256.678 33.0764 257.205 32.1945C257.744 31.3132 258.013 30.3521 258.013 29.3113V25.9868C257.805 26.1587 257.45 26.3176 256.947 26.4647C256.458 26.6118 255.907 26.74 255.295 26.8504C254.683 26.9603 254.077 27.0583 253.476 27.144C252.876 27.2297 252.356 27.3035 251.915 27.3643C250.923 27.499 250.036 27.7194 249.252 28.0259C248.469 28.3319 247.851 28.7602 247.398 29.3113C246.944 29.85 246.718 30.5476 246.718 31.4047C246.718 32.6292 247.165 33.5537 248.059 34.1781C248.952 34.8024 250.091 35.1149 251.475 35.1149ZM277.976 1.81818V39.4306H271.327V1.81818H277.976Z" fill="white"/>
</svg>
