<svg width="189" height="40" viewBox="0 0 189 40" fill="none" xmlns="http://www.w3.org/2000/svg">
<g clip-path="url(#clip0_416_2)">
<mask id="mask0_416_2" style="mask-type:luminance" maskUnits="userSpaceOnUse" x="0" y="0" width="189" height="40">
<path d="M188.197 0H0V40H188.197V0Z" fill="white"/>
</mask>
<g mask="url(#mask0_416_2)">
<path d="M37.7166 38.5342L36.8332 37.7778H9.25619C9.06278 37.7782 8.87562 37.7081 8.72878 37.5802L1.17692 31.1328H0.820917C0.65297 31.1324 0.488972 31.1845 0.351222 31.2821C0.213473 31.3797 0.108658 31.518 0.0510323 31.6782C-0.00659358 31.8384 -0.0142341 32.0127 0.0291497 32.1775C0.0725337 32.3422 0.164836 32.4895 0.293506 32.5991L8.72878 39.8231C8.87668 39.9487 9.06339 40.0175 9.25619 40.0172H37.1859C37.3582 40.0228 37.5277 39.9731 37.6703 39.875C37.813 39.777 37.9216 39.6355 37.9804 39.4711C38.0393 39.3067 38.0454 39.1275 37.998 38.9592C37.9507 38.7911 37.8522 38.6422 37.7166 38.5342Z" fill="white"/>
<path d="M37.7166 34.0882L36.8332 33.3316H9.25619C9.06278 33.3321 8.87562 33.2619 8.72878 33.1341L1.17692 26.6699H0.820917C0.65297 26.6696 0.488972 26.7216 0.351222 26.8192C0.213473 26.9168 0.108658 27.0551 0.0510323 27.2154C-0.00659358 27.3755 -0.0142341 27.5499 0.0291497 27.7146C0.0725337 27.8794 0.164836 28.0266 0.293506 28.1362L8.72878 35.3569C8.87562 35.4848 9.06278 35.5549 9.25619 35.5545H37.1859C37.3542 35.5555 37.5186 35.5039 37.6569 35.4066C37.7952 35.3094 37.9004 35.1711 37.9586 35.0106C38.0166 34.8504 38.0244 34.6756 37.9812 34.5106C37.9379 34.3455 37.8454 34.1979 37.7166 34.0882Z" fill="white"/>
<path d="M37.7164 16.3087L36.833 15.5522H9.25596C9.0629 15.5538 8.8757 15.4849 8.72854 15.3581L1.17668 8.89387H0.820679C0.648756 8.88903 0.479706 8.93936 0.337583 9.03772C0.195459 9.13609 0.0875047 9.27746 0.0290806 9.44175C-0.0293434 9.60602 -0.0352604 9.78482 0.0121715 9.95272C0.0596036 10.1206 0.157969 10.269 0.293267 10.3768L8.95598 17.7749L19.1087 26.4787C19.2574 26.6049 19.4454 26.6738 19.6394 26.6728H26.4529L27.3363 27.4294C27.4643 27.5395 27.5561 27.6869 27.5991 27.8517C27.6421 28.0164 27.6344 28.1907 27.5769 28.3508C27.5194 28.5109 27.415 28.6494 27.2777 28.7474C27.1403 28.8454 26.9767 28.8982 26.8089 28.8989H19.6394C19.4477 28.8945 19.2634 28.8222 19.1186 28.6947L11.537 22.2238H0.820679C0.652733 22.2234 0.488733 22.2755 0.350984 22.3731C0.213234 22.4707 0.10842 22.6089 0.0507943 22.7692C-0.0068316 22.9294 -0.0144722 23.1038 0.0289117 23.2685C0.0722957 23.4332 0.164599 23.5805 0.293267 23.6901L8.72854 30.9108C8.87539 31.0387 9.06253 31.1087 9.25596 31.1082H37.1857C37.3539 31.1084 37.5179 31.0559 37.6557 30.9582C37.7936 30.8604 37.8986 30.7221 37.9564 30.5618C38.0143 30.4015 38.0224 30.2269 37.9794 30.0618C37.9364 29.8968 37.8447 29.7491 37.7164 29.6387L26.4529 19.9978H19.6394C19.449 19.9949 19.2654 19.9265 19.1186 19.8035L16.7451 17.7749H37.1824C37.3509 17.7768 37.5159 17.7257 37.6546 17.6287C37.7934 17.5315 37.8993 17.3934 37.9577 17.2328C38.0163 17.0722 38.0244 16.8974 37.9811 16.7319C37.938 16.5665 37.8454 16.4187 37.7164 16.3087ZM19.1186 22.0264C19.2673 22.1527 19.4553 22.2215 19.6493 22.2205H26.4561L27.3363 22.9737C27.4637 23.0837 27.5549 23.2307 27.5974 23.3948C27.64 23.5589 27.6321 23.7324 27.5746 23.8918C27.5171 24.0512 27.4129 24.1889 27.276 24.2864C27.139 24.3838 26.976 24.4362 26.8089 24.4367H19.6394C19.4496 24.4371 19.2656 24.3709 19.1186 24.2491L11.537 17.7749H14.1345L19.1186 22.0264Z" fill="white"/>
<path d="M37.7165 11.8635L36.8331 11.107H9.25609C9.06329 11.1072 8.87657 11.0384 8.72869 10.9128L1.17681 4.44531H0.820811C0.65296 4.44594 0.489335 4.49884 0.351998 4.59684C0.214661 4.69484 0.110213 4.83326 0.0527348 4.99341C-0.00474331 5.15357 -0.012488 5.32777 0.0305447 5.49254C0.0735774 5.65731 0.165318 5.80471 0.293401 5.91488L8.72869 13.1356C8.87585 13.2625 9.06305 13.3314 9.25609 13.3297H37.1858C37.354 13.3308 37.5185 13.2792 37.6568 13.1819C37.7951 13.0846 37.9004 12.9463 37.9584 12.786C38.0165 12.6256 38.0244 12.451 37.9811 12.2859C37.9378 12.1208 37.8454 11.9733 37.7165 11.8635Z" fill="white"/>
<path d="M0.293872 1.46623L8.72916 8.70366C8.87704 8.82927 9.06375 8.89801 9.25657 8.89781H37.1863C37.3545 8.89893 37.519 8.84731 37.6573 8.75C37.7955 8.65269 37.9009 8.51443 37.9589 8.35407C38.0169 8.19371 38.0249 8.01907 37.9816 7.85399C37.9383 7.68889 37.8459 7.54139 37.717 7.43159L29.2817 0.194161C29.1332 0.069775 28.9469 0.00120419 28.7543 2.55058e-06H0.821283C0.653338 -0.000420119 0.489338 0.0516987 0.351589 0.149271C0.213839 0.246844 0.109024 0.385136 0.0513986 0.545339C-0.00622739 0.705541 -0.0138679 0.879881 0.029516 1.04465C0.0728999 1.20942 0.165203 1.35662 0.293872 1.46623Z" fill="white"/>
<path d="M37.7166 38.5342L36.8332 37.7778H9.25619C9.06278 37.7782 8.87562 37.7081 8.72878 37.5802L1.17692 31.1328H0.820917C0.65297 31.1324 0.488972 31.1845 0.351223 31.2821C0.213473 31.3797 0.108658 31.518 0.0510323 31.6782C-0.00659358 31.8384 -0.0142341 32.0127 0.0291497 32.1775C0.0725337 32.3422 0.164836 32.4895 0.293506 32.5991L8.72878 39.8231C8.87668 39.9487 9.06339 40.0175 9.25619 40.0172H37.1859C37.3582 40.0228 37.5277 39.9731 37.6703 39.875C37.813 39.777 37.9216 39.6355 37.9804 39.4711C38.0393 39.3067 38.0454 39.1275 37.998 38.9592C37.9507 38.7911 37.8522 38.6422 37.7166 38.5342Z" fill="white"/>
<path d="M37.7166 34.0882L36.8332 33.3316H9.25619C9.06278 33.3321 8.87562 33.2619 8.72878 33.1341L1.17692 26.6699H0.820917C0.65297 26.6696 0.488972 26.7216 0.351222 26.8192C0.213473 26.9168 0.108658 27.0551 0.0510323 27.2154C-0.00659358 27.3755 -0.0142341 27.5499 0.0291497 27.7146C0.0725337 27.8794 0.164836 28.0266 0.293506 28.1362L8.72878 35.3569C8.87562 35.4848 9.06278 35.5549 9.25619 35.5545H37.1859C37.3542 35.5555 37.5186 35.5039 37.6569 35.4066C37.7952 35.3094 37.9004 35.1711 37.9586 35.0106C38.0166 34.8504 38.0244 34.6756 37.9812 34.5106C37.9379 34.3455 37.8454 34.1979 37.7166 34.0882Z" fill="white"/>
<path d="M37.7164 16.3087L36.833 15.5522H9.25596C9.0629 15.5538 8.8757 15.4849 8.72854 15.3581L1.17668 8.89387H0.820679C0.648756 8.88903 0.479706 8.93936 0.337583 9.03772C0.195459 9.13609 0.0875047 9.27746 0.0290806 9.44175C-0.0293434 9.60602 -0.0352604 9.78482 0.0121715 9.95272C0.0596036 10.1206 0.157969 10.269 0.293267 10.3768L8.95598 17.7749L19.1087 26.4787C19.2574 26.6049 19.4454 26.6738 19.6394 26.6728H26.4529L27.3363 27.4294C27.4643 27.5395 27.5561 27.6869 27.5991 27.8517C27.6421 28.0164 27.6344 28.1907 27.5769 28.3508C27.5194 28.5109 27.415 28.6494 27.2777 28.7474C27.1403 28.8454 26.9767 28.8982 26.8089 28.8989H19.6394C19.4477 28.8945 19.2634 28.8222 19.1186 28.6947L11.537 22.2238H0.820679C0.652733 22.2234 0.488733 22.2755 0.350984 22.3731C0.213234 22.4707 0.10842 22.6089 0.0507943 22.7692C-0.0068316 22.9294 -0.0144722 23.1038 0.0289117 23.2685C0.0722957 23.4332 0.164599 23.5805 0.293267 23.6901L8.72854 30.9108C8.87539 31.0387 9.06253 31.1087 9.25596 31.1082H37.1857C37.3539 31.1084 37.5179 31.0559 37.6557 30.9582C37.7936 30.8604 37.8986 30.7221 37.9564 30.5618C38.0143 30.4015 38.0224 30.2269 37.9794 30.0618C37.9364 29.8968 37.8447 29.7491 37.7164 29.6387L26.4529 19.9978H19.6394C19.449 19.9949 19.2654 19.9265 19.1186 19.8035L16.7451 17.7749H37.1824C37.3509 17.7768 37.5159 17.7257 37.6546 17.6287C37.7934 17.5315 37.8993 17.3934 37.9577 17.2328C38.0163 17.0722 38.0244 16.8974 37.9811 16.7319C37.938 16.5665 37.8454 16.4187 37.7164 16.3087ZM19.1186 22.0264C19.2673 22.1527 19.4553 22.2215 19.6493 22.2205H26.4561L27.3363 22.9737C27.4637 23.0837 27.5549 23.2307 27.5974 23.3948C27.64 23.5589 27.6321 23.7324 27.5746 23.8918C27.5171 24.0512 27.4129 24.1889 27.276 24.2864C27.139 24.3838 26.976 24.4362 26.8089 24.4367H19.6394C19.4496 24.4371 19.2656 24.3709 19.1186 24.2491L11.537 17.7749H14.1345L19.1186 22.0264Z" fill="white"/>
<path d="M37.7165 11.8635L36.8331 11.107H9.25609C9.06329 11.1072 8.87657 11.0384 8.72869 10.9128L1.17681 4.44531H0.820812C0.65296 4.44594 0.489335 4.49884 0.351998 4.59684C0.214661 4.69484 0.110213 4.83326 0.0527348 4.99341C-0.00474331 5.15357 -0.012488 5.32777 0.0305447 5.49254C0.0735774 5.65731 0.165318 5.80471 0.293401 5.91488L8.72869 13.1356C8.87585 13.2625 9.06305 13.3314 9.25609 13.3297H37.1858C37.354 13.3308 37.5185 13.2792 37.6568 13.1819C37.7951 13.0846 37.9004 12.9463 37.9584 12.786C38.0165 12.6256 38.0244 12.451 37.9811 12.2859C37.9378 12.1208 37.8454 11.9733 37.7165 11.8635Z" fill="white"/>
<path d="M0.293872 1.46623L8.72916 8.70366C8.87704 8.82927 9.06375 8.89801 9.25657 8.89781H37.1863C37.3545 8.89893 37.519 8.84731 37.6573 8.75C37.7955 8.65269 37.9009 8.51443 37.9589 8.35407C38.0169 8.19371 38.0249 8.01907 37.9816 7.85399C37.9383 7.68889 37.8459 7.54139 37.717 7.43159L29.2817 0.194161C29.1332 0.069775 28.9469 0.00120419 28.7543 2.55058e-06H0.821283C0.653338 -0.000420119 0.489338 0.0516987 0.351589 0.149271C0.213839 0.246844 0.109024 0.385136 0.0513986 0.545339C-0.00622739 0.705541 -0.0138679 0.879881 0.029516 1.04465C0.0728999 1.20942 0.165203 1.35662 0.293872 1.46623Z" fill="white"/>
<path d="M54.6264 15.5632V31.1126H60.2928V15.5632H54.6264ZM54.6264 10.4883V13.7756H60.2928V10.4883H54.6264Z" fill="white"/>
<path d="M64.5783 15.5624V31.1119H70.2447V23.5564C70.2447 20.8182 71.8666 19.141 73.8707 19.141C75.921 19.141 77.0253 20.48 77.0253 23.215V31.1119H82.6883V22.4083C82.6883 17.5877 80.4237 15.1006 76.0957 15.1006C73.3696 15.1006 71.5039 16.1249 70.2777 18.6154V15.5624H64.5783Z" fill="white"/>
<path d="M83.7266 15.5625L90.2797 31.1119H97.169L103.692 15.5625H97.2811L94.4034 24.1758C94.1326 24.8996 93.8981 25.6371 93.7013 26.3852H93.5464C93.394 25.6349 93.1891 24.8965 92.9333 24.1758L89.8413 15.5625H83.7266Z" fill="white"/>
<path d="M113.463 27.7848C111.135 27.7848 109.636 26.1981 109.636 23.3058C109.636 20.4135 111.135 18.8904 113.463 18.8904C115.79 18.8904 117.293 20.4202 117.293 23.3058C117.293 26.1914 115.79 27.7848 113.463 27.7848ZM113.463 31.5777C119.099 31.5777 123.141 28.5648 123.141 23.3058C123.141 18.0468 119.099 15.0977 113.463 15.0977C107.826 15.0977 103.834 18.0501 103.834 23.3058C103.834 28.5615 107.829 31.5777 113.463 31.5777Z" fill="white"/>
<path d="M135.037 27.4735C132.709 27.4735 131.15 25.9805 131.15 23.6808V23.0279C131.15 20.4771 132.709 19.0109 135.07 19.0109C137.43 19.0109 138.775 20.5708 138.775 23.2757C138.775 25.8567 137.364 27.4735 135.037 27.4735ZM125.606 15.5629V37.1781H131.272V29.0904C132.495 30.7408 134.394 31.5777 136.813 31.5777C141.59 31.5777 144.837 28.2837 144.837 23.2757C144.837 18.3314 141.745 15.0977 137.028 15.0977C134.486 15.0977 132.344 16.1554 131.117 18.1774V15.5629H125.606Z" fill="white"/>
<path d="M156.823 27.7848C154.496 27.7848 152.996 26.1981 152.996 23.3058C152.996 20.4135 154.496 18.8904 156.823 18.8904C159.15 18.8904 160.653 20.4202 160.653 23.3058C160.653 26.1914 159.15 27.7848 156.823 27.7848ZM156.823 31.5777C162.46 31.5777 166.501 28.5648 166.501 23.3058C166.501 18.0468 162.46 15.0977 156.823 15.0977C151.186 15.0977 147.177 18.0501 147.177 23.3058C147.177 28.5615 151.19 31.5777 156.823 31.5777Z" fill="white"/>
<path d="M178.397 27.4735C176.07 27.4735 174.51 25.9805 174.51 23.6808V23.0279C174.51 20.4771 176.07 19.0109 178.43 19.0109C180.79 19.0109 182.134 20.5675 182.134 23.2724C182.134 25.8567 180.724 27.4735 178.397 27.4735ZM168.966 15.5629V37.1781H174.633V29.0904C175.856 30.7408 177.754 31.5777 180.173 31.5777C184.95 31.5777 188.197 28.2837 188.197 23.2757C188.197 18.3314 185.104 15.0977 180.387 15.0977C177.846 15.0977 175.703 16.1554 174.477 18.1774V15.5629H168.966Z" fill="white"/>
</g>
</g>
<defs>
<clipPath id="clip0_416_2">
<rect width="188.571" height="40" fill="white"/>
</clipPath>
</defs>
</svg>
