<svg width="116" height="32" viewBox="0 0 116 32" fill="none" xmlns="http://www.w3.org/2000/svg">
<g clip-path="url(#clip0_108_25)">
<path d="M22 2.2C22 0.986 21.014 0 19.8 0H2.2C0.986 0 0 0.986 0 2.2V29.8C0 31.014 0.986 32 2.2 32H19.8C21.014 32 22 31.014 22 29.8V2.2Z" fill="white"/>
<path d="M14.967 11.9878C16.0715 11.9878 16.967 11.0924 16.967 9.98779C16.967 8.88322 16.0715 7.98779 14.967 7.98779C13.8624 7.98779 12.967 8.88322 12.967 9.98779C12.967 11.0924 13.8624 11.9878 14.967 11.9878Z" fill="black"/>
<path d="M15.021 24.0117C16.1256 24.0117 17.021 23.1163 17.021 22.0117C17.021 20.9071 16.1256 20.0117 15.021 20.0117C13.9164 20.0117 13.021 20.9071 13.021 22.0117C13.021 23.1163 13.9164 24.0117 15.021 24.0117Z" fill="black"/>
<path d="M7 24.0117C8.10457 24.0117 9 23.1163 9 22.0117C9 20.9071 8.10457 20.0117 7 20.0117C5.89543 20.0117 5 20.9071 5 22.0117C5 23.1163 5.89543 24.0117 7 24.0117Z" fill="black"/>
<path d="M36.496 28.25C35.003 28.25 33.696 27.846 32.576 27.038C31.456 26.229 30.597 25.091 30 23.625L32.016 22.655C32.336 23.69 32.896 24.504 33.696 25.097C34.496 25.69 35.387 25.986 36.368 25.986C37.733 25.986 38.768 25.56 39.472 24.709C40.176 23.857 40.528 22.655 40.528 21.102V4.25H42.928V21.102C42.928 23.345 42.352 25.097 41.2 26.358C40.048 27.62 38.48 28.25 36.496 28.25Z" fill="white"/>
<path d="M53.552 28.2501C52.123 28.2501 50.843 27.9051 49.712 27.2151C48.581 26.5251 47.696 25.5601 47.056 24.3211C46.416 23.0811 46.096 21.6841 46.096 20.1321C46.096 18.5791 46.411 17.1941 47.04 15.9761C47.669 14.7571 48.544 13.8031 49.664 13.1131C50.784 12.4231 52.059 12.0781 53.488 12.0781C54.917 12.0781 56.197 12.4231 57.328 13.1131C58.459 13.8031 59.344 14.7631 59.984 15.9921C60.624 17.2211 60.944 18.6121 60.944 20.1641C60.944 21.7171 60.629 23.1081 60 24.3371C59.371 25.5661 58.496 26.5251 57.376 27.2151C56.256 27.9051 54.981 28.2501 53.552 28.2501ZM53.488 26.2451C54.512 26.2451 55.424 25.9861 56.224 25.4691C57.024 24.9511 57.648 24.2291 58.096 23.3021C58.544 22.3741 58.768 21.3291 58.768 20.1641C58.768 19.0001 58.544 17.9541 58.096 17.0271C57.648 16.1001 57.024 15.3771 56.224 14.8601C55.424 14.3421 54.512 14.0831 53.488 14.0831C52.485 14.0831 51.589 14.3421 50.8 14.8601C50.011 15.3771 49.392 16.0941 48.944 17.0111C48.496 17.9271 48.272 18.9671 48.272 20.1321C48.272 21.3181 48.496 22.3741 48.944 23.3021C49.392 24.2291 50.011 24.9511 50.8 25.4691C51.589 25.9861 52.485 26.2451 53.488 26.2451Z" fill="white"/>
<path d="M72.592 12.5952H74.8L69.36 28.2502H66.96L61.552 12.5952H63.824L68.24 25.3722L72.592 12.5952Z" fill="white"/>
<path d="M78.16 28.2502V12.5952H80.336V28.2502H78.16ZM79.248 9.65218C78.757 9.65218 78.347 9.48018 78.016 9.13518C77.685 8.79018 77.52 8.36918 77.52 7.87318C77.52 7.39918 77.685 6.99418 78.016 6.66018C78.347 6.32618 78.757 6.15918 79.248 6.15918C79.717 6.15918 80.123 6.32618 80.464 6.66018C80.805 6.99418 80.976 7.41018 80.976 7.90518C80.976 8.38018 80.805 8.79018 80.464 9.13518C80.123 9.48018 79.717 9.65218 79.248 9.65218Z" fill="white"/>
<path d="M98.992 12.5951V28.2501H96.816V25.5011C96.197 26.3641 95.44 27.0381 94.544 27.5231C93.648 28.0081 92.667 28.2501 91.6 28.2501C90.171 28.2501 88.891 27.9051 87.76 27.2151C86.629 26.5251 85.744 25.5661 85.104 24.3371C84.464 23.1081 84.144 21.7061 84.144 20.1321C84.144 18.5791 84.459 17.1941 85.088 15.9761C85.717 14.7571 86.592 13.8031 87.712 13.1131C88.832 12.4231 90.107 12.0781 91.536 12.0781C92.624 12.0781 93.621 12.3211 94.528 12.8061C95.435 13.2911 96.197 13.9761 96.816 14.8601V12.5951H98.992ZM91.536 26.2451C92.56 26.2451 93.472 25.9861 94.272 25.4691C95.072 24.9511 95.696 24.2291 96.144 23.3021C96.592 22.3741 96.816 21.3291 96.816 20.1641C96.816 19.0001 96.592 17.9541 96.144 17.0271C95.696 16.1001 95.072 15.3771 94.272 14.8601C93.472 14.3421 92.56 14.0831 91.536 14.0831C90.533 14.0831 89.637 14.3421 88.848 14.8601C88.059 15.3771 87.44 16.0941 86.992 17.0111C86.544 17.9271 86.32 18.9671 86.32 20.1321C86.32 21.3181 86.544 22.3741 86.992 23.3021C87.44 24.2291 88.059 24.9511 88.848 25.4691C89.637 25.9861 90.533 26.2451 91.536 26.2451Z" fill="white"/>
<path d="M109.68 12.0781C110.725 12.0781 111.691 12.2941 112.576 12.7251C113.461 13.1561 114.165 13.7921 114.688 14.6331C115.211 15.4741 115.472 16.4661 115.472 17.6091V28.2501H113.296V18.5791C113.296 15.5821 111.973 14.0831 109.328 14.0831C107.792 14.0831 106.64 14.6331 105.872 15.7331C105.104 16.8331 104.72 18.3101 104.72 20.1641V28.2501H102.544V12.5951H104.72V15.1181C105.232 14.1481 105.909 13.3991 106.752 12.8701C107.595 12.3421 108.571 12.0781 109.68 12.0781Z" fill="white"/>
</g>
<defs>
<clipPath id="clip0_108_25">
<rect width="115.472" height="32" fill="white"/>
</clipPath>
</defs>
</svg>
