<svg width="148" height="40" viewBox="0 0 148 40" fill="none" xmlns="http://www.w3.org/2000/svg">
<path d="M45.7092 11.715C45.4397 11.4455 45.1574 11.1889 44.8636 10.9468L37.4286 0.424549C37.2382 0.155038 36.9251 -0.00473457 36.5959 0.000106973C36.2683 0.00333466 35.9584 0.171175 35.7744 0.443915L30.5294 8.26784H24.3404L19.0937 0.443915C18.9114 0.171175 18.6015 0.00333466 18.2723 0.000106973C17.943 -0.00473457 17.63 0.155038 17.4395 0.424549L11.825 8.37113L10.0046 10.9468C9.71085 11.1889 9.42842 11.4455 9.15891 11.715C7.03186 13.842 5.71173 16.7906 5.71173 20.0376V27.3968C5.71173 30.6438 7.03186 33.5924 9.15891 35.7194C11.286 37.8464 14.2345 39.1666 17.4815 39.1666H37.3867C40.6338 39.1666 43.5822 37.8464 45.7092 35.7194C47.328 34.1023 48.4802 32.0075 48.9369 29.669C49.0822 28.9331 49.1565 28.173 49.1565 27.3968V20.0376C49.1581 16.7906 47.838 13.842 45.7092 11.715ZM36.6298 2.7743L40.8855 8.79718C39.78 8.45343 38.6036 8.26784 37.3867 8.26784H32.947L36.6298 2.7743ZM18.2384 2.7743L21.9228 8.26784H17.4815C16.2647 8.26784 15.0898 8.45343 13.9827 8.79718L18.2384 2.7743ZM44.2891 34.2992C42.5203 36.0679 40.085 37.1574 37.3867 37.1589H17.4815C14.7831 37.1574 12.3495 36.0679 10.5791 34.2992C8.81032 32.5288 7.72097 30.0952 7.71936 27.3968V20.0376C7.72097 17.3392 8.81032 14.904 10.5791 13.1352C11.683 12.033 13.0434 11.1937 14.5654 10.7193V10.7177C15.4852 10.4304 16.4648 10.2755 17.4815 10.2755H37.3867C40.085 10.2755 42.5203 11.3664 44.2891 13.1352C46.0579 14.904 47.1489 17.3392 47.1489 20.0376V27.3968C47.1489 27.7663 47.1279 28.1311 47.0875 28.491C46.8374 30.7503 45.8159 32.7709 44.2891 34.2992Z" fill="white"/>
<path d="M39.5586 17.8668C38.1238 16.429 36.1307 15.5381 33.9391 15.5381C32.2527 15.5381 30.6808 16.0658 29.3962 16.9647C28.6457 17.4876 27.9921 18.1364 27.4628 18.8803C26.9335 18.1364 26.2799 17.4876 25.531 16.9647C24.2448 16.0658 22.673 15.5381 20.9881 15.5381C18.7964 15.5381 16.8033 16.429 15.367 17.8668C13.9307 19.3015 13.0382 21.2946 13.0382 23.4863C13.0382 25.6779 13.9307 27.671 15.367 29.1073C16.8033 30.5436 18.7964 31.4361 20.9881 31.4361C22.673 31.4361 24.2448 30.9067 25.531 30.0094C26.2799 29.4865 26.9335 28.8361 27.4628 28.0921C27.9921 28.8361 28.6457 29.4865 29.3962 30.0094C30.6808 30.9067 32.2527 31.4361 33.9391 31.4361C36.1307 31.4361 38.1238 30.5436 39.5586 29.1073C40.9965 27.671 41.8874 25.6779 41.8874 23.4863C41.8874 21.2946 40.9965 19.3015 39.5586 17.8668ZM38.1401 27.6871C37.0603 28.7635 35.5821 29.4268 33.9391 29.4268C32.6722 29.4268 31.5087 29.0347 30.5452 28.3633C29.5834 27.6903 28.8281 26.7398 28.3988 25.6311C28.2504 25.2438 27.8792 24.9904 27.4628 24.9904C27.048 24.9904 26.6769 25.2438 26.5268 25.6311C26.0991 26.7398 25.3438 27.6903 24.382 28.3633C23.4185 29.0347 22.2533 29.4268 20.9881 29.4268C19.3435 29.4268 17.8653 28.7635 16.7872 27.6871C15.7108 26.609 15.0475 25.1291 15.0475 23.4863C15.0475 21.8434 15.7108 20.3635 16.7872 19.2854C17.8653 18.209 19.3435 17.5457 20.9881 17.5457C22.2533 17.5457 23.4185 17.9395 24.382 18.6108C25.3438 19.2822 26.0991 20.2328 26.5268 21.3414C26.6769 21.7288 27.048 21.9838 27.4628 21.9838C27.8792 21.9838 28.2504 21.7288 28.3988 21.3414C28.8281 20.2328 29.5834 19.2822 30.5452 18.6108C31.5087 17.9395 32.6722 17.5457 33.9391 17.5457C35.5821 17.5457 37.0603 18.209 38.1401 19.2854C39.2165 20.3635 39.8798 21.8434 39.8798 23.4863C39.8798 25.1291 39.2165 26.609 38.1401 27.6871Z" fill="white"/>
<path d="M38.1401 19.2857C37.0604 18.2092 35.5821 17.5459 33.9392 17.5459C32.6724 17.5459 31.5088 17.9397 30.5453 18.6111C29.5835 19.2824 28.8282 20.2329 28.3989 21.3417C28.2504 21.7291 27.8793 21.984 27.4629 21.984C27.0481 21.984 26.6769 21.7291 26.5268 21.3417C26.0992 20.2329 25.3439 19.2824 24.3821 18.6111C23.4187 17.9397 22.2534 17.5459 20.9882 17.5459C19.3437 17.5459 17.8653 18.2092 16.7874 19.2857C15.7108 20.3637 15.0475 21.8436 15.0475 23.4866C15.0475 25.1294 15.7108 26.6093 16.7874 27.6874C17.8653 28.7638 19.3437 29.4271 20.9882 29.4271C22.2534 29.4271 23.4187 29.0349 24.3821 28.3636C25.3439 27.6906 26.0992 26.74 26.5268 25.6313C26.6769 25.2439 27.0481 24.9906 27.4629 24.9906C27.8793 24.9906 28.2504 25.2439 28.3989 25.6313C28.8282 26.74 29.5835 27.6906 30.5453 28.3636C31.5088 29.0349 32.6724 29.4271 33.9392 29.4271C35.5821 29.4271 37.0604 28.7638 38.1401 27.6874C39.2165 26.6093 39.8798 25.1294 39.8798 23.4866C39.8798 21.8436 39.2165 20.3637 38.1401 19.2857ZM20.6702 26.3543C20.6702 26.3543 19.2614 25.0713 19.2614 23.4866C19.2614 21.9033 20.6702 20.6187 20.6702 20.6187C20.6702 20.6187 22.0807 21.9033 22.0807 23.4866C22.0807 25.0713 20.6702 26.3543 20.6702 26.3543ZM34.2555 26.3543C34.2555 26.3543 32.8467 25.0713 32.8467 23.4866C32.8467 21.9033 34.2555 20.6187 34.2555 20.6187C34.2555 20.6187 35.6661 21.9033 35.6661 23.4866C35.6661 25.0713 34.2555 26.3543 34.2555 26.3543Z" fill="white"/>
<path d="M27.4621 35.8875L30.1023 32.4951H24.8218L27.4621 35.8875Z" fill="white"/>
<path d="M0 23.2375C0 25.9794 1.66872 28.2598 3.87484 28.7569V17.7197C1.66872 18.2136 0 20.4956 0 23.2375Z" fill="white"/>
<path d="M51.0504 17.7188V28.7558C53.2565 28.2587 54.9253 25.9783 54.9253 23.2365C54.9253 20.4945 53.2565 18.2142 51.0504 17.7188Z" fill="white"/>
<path d="M69.5481 33.4847C68.1909 33.4847 66.9792 33.194 65.913 32.6124C64.8662 32.0114 64.0422 31.1874 63.4412 30.1406C62.8596 29.0743 62.5688 27.8626 62.5688 26.5055C62.5688 26.0597 62.7142 25.701 63.005 25.4296C63.2958 25.1388 63.6545 24.9934 64.081 24.9934C64.5268 24.9934 64.8855 25.1388 65.1569 25.4296C65.4478 25.701 65.5931 26.0597 65.5931 26.5055C65.5931 27.3392 65.7579 28.0759 66.0875 28.7157C66.4364 29.3554 66.9017 29.8594 67.4834 30.2278C68.0843 30.5768 68.7726 30.7512 69.5481 30.7512C70.3235 30.7512 71.0117 30.5768 71.6127 30.2278C72.2137 29.8594 72.6789 29.3554 73.0086 28.7157C73.3575 28.0759 73.532 27.3392 73.532 26.5055V11.9946C73.532 11.5487 73.6677 11.19 73.9391 10.9186C74.2299 10.6278 74.5885 10.4824 75.0151 10.4824C75.461 10.4824 75.8294 10.6278 76.1201 10.9186C76.4109 11.19 76.5563 11.5487 76.5563 11.9946V26.5055C76.5563 27.8626 76.2559 29.0743 75.6548 30.1406C75.0539 31.1874 74.2299 32.0114 73.1831 32.6124C72.1361 33.194 70.9244 33.4847 69.5481 33.4847ZM88.7693 33.3394C87.4317 33.3394 86.2296 33.0582 85.1634 32.4961C84.1164 31.9145 83.2829 31.0711 82.6625 29.9661C82.0615 28.8611 81.761 27.504 81.761 25.8949V18.7412C81.761 18.3147 81.8967 17.9657 82.1681 17.6943C82.4589 17.4035 82.8176 17.2581 83.2441 17.2581C83.6706 17.2581 84.0196 17.4035 84.291 17.6943C84.5817 17.9657 84.7272 18.3147 84.7272 18.7412V25.8949C84.7272 26.9805 84.9308 27.882 85.3378 28.5994C85.745 29.2973 86.2974 29.8207 86.9954 30.1696C87.6934 30.4992 88.4785 30.6641 89.3509 30.6641C90.1845 30.6641 90.9212 30.4992 91.561 30.1696C92.2201 29.8401 92.7435 29.3942 93.1314 28.832C93.5191 28.2698 93.713 27.6397 93.713 26.9418H95.545C95.545 28.1437 95.2444 29.2295 94.6435 30.1988C94.0619 31.1681 93.2573 31.9338 92.2299 32.4961C91.2217 33.0582 90.0682 33.3394 88.7693 33.3394ZM95.196 33.194C94.7694 33.194 94.4109 33.0582 94.12 32.7868C93.8486 32.4961 93.713 32.1374 93.713 31.7109V18.7412C93.713 18.2952 93.8486 17.9367 94.12 17.6652C94.4109 17.3938 94.7694 17.2581 95.196 17.2581C95.6419 17.2581 96.0005 17.3938 96.272 17.6652C96.5434 17.9367 96.6791 18.2952 96.6791 18.7412V31.7109C96.6791 32.1374 96.5434 32.4961 96.272 32.7868C96.0005 33.0582 95.6419 33.194 95.196 33.194ZM115.338 33.2231C114.912 33.2231 114.553 33.0874 114.262 32.816C113.991 32.5251 113.855 32.1665 113.855 31.74V24.5862C113.855 23.4813 113.651 22.5798 113.244 21.8819C112.837 21.184 112.285 20.6702 111.587 20.3406C110.908 19.9916 110.123 19.8172 109.231 19.8172C108.417 19.8172 107.68 19.9819 107.021 20.3115C106.362 20.641 105.839 21.087 105.451 21.6492C105.063 22.192 104.869 22.8221 104.869 23.5394H103.037C103.037 22.3181 103.328 21.2323 103.91 20.2825C104.511 19.313 105.325 18.5473 106.352 17.985C107.38 17.4229 108.533 17.1418 109.813 17.1418C111.151 17.1418 112.343 17.4326 113.39 18.0142C114.456 18.5764 115.29 19.41 115.891 20.5151C116.511 21.6201 116.821 22.9772 116.821 24.5862V31.74C116.821 32.1665 116.676 32.5251 116.385 32.816C116.114 33.0874 115.765 33.2231 115.338 33.2231ZM103.386 33.2231C102.96 33.2231 102.601 33.0874 102.31 32.816C102.039 32.5251 101.903 32.1665 101.903 31.74V18.7702C101.903 18.3244 102.039 17.9657 102.31 17.6943C102.601 17.4229 102.96 17.2871 103.386 17.2871C103.832 17.2871 104.191 17.4229 104.462 17.6943C104.734 17.9657 104.869 18.3244 104.869 18.7702V31.74C104.869 32.1665 104.734 32.5251 104.462 32.816C104.191 33.0874 103.832 33.2231 103.386 33.2231ZM123.499 33.194C123.072 33.194 122.714 33.0582 122.423 32.7868C122.152 32.4961 122.016 32.1374 122.016 31.7109V18.7702C122.016 18.3244 122.152 17.9657 122.423 17.6943C122.714 17.4229 123.072 17.2871 123.499 17.2871C123.945 17.2871 124.303 17.4229 124.576 17.6943C124.847 17.9657 124.983 18.3244 124.983 18.7702V31.7109C124.983 32.1374 124.847 32.4961 124.576 32.7868C124.303 33.0582 123.945 33.194 123.499 33.194ZM123.499 14.6991C122.976 14.6991 122.521 14.5148 122.133 14.1465C121.764 13.7588 121.58 13.3032 121.58 12.7798C121.58 12.2563 121.764 11.8104 122.133 11.4421C122.521 11.0543 122.976 10.8605 123.499 10.8605C124.023 10.8605 124.468 11.0543 124.837 11.4421C125.225 11.8104 125.419 12.2563 125.419 12.7798C125.419 13.3032 125.225 13.7588 124.837 14.1465C124.468 14.5148 124.023 14.6991 123.499 14.6991ZM137.131 33.3103C135.716 33.3103 134.445 32.9614 133.321 32.2635C132.197 31.5461 131.305 30.5865 130.646 29.3844C130.006 28.1632 129.686 26.7867 129.686 25.2551C129.686 23.7235 130.035 22.3471 130.733 21.1257C131.451 19.9044 132.41 18.9448 133.612 18.2468C134.833 17.5295 136.201 17.1708 137.712 17.1708C139.224 17.1708 140.582 17.5295 141.784 18.2468C142.985 18.9448 143.936 19.9044 144.633 21.1257C145.35 22.3471 145.71 23.7235 145.71 25.2551H144.576C144.576 26.7867 144.246 28.1632 143.587 29.3844C142.947 30.5865 142.064 31.5461 140.94 32.2635C139.816 32.9614 138.546 33.3103 137.131 33.3103ZM137.712 30.6931C138.701 30.6931 139.583 30.4605 140.358 29.9952C141.134 29.5105 141.744 28.8611 142.191 28.0468C142.636 27.2132 142.86 26.2826 142.86 25.2551C142.86 24.2082 142.636 23.2777 142.191 22.4635C141.744 21.6298 141.134 20.9804 140.358 20.5151C139.583 20.0304 138.701 19.788 137.712 19.788C136.743 19.788 135.86 20.0304 135.066 20.5151C134.29 20.9804 133.67 21.6298 133.205 22.4635C132.759 23.2777 132.536 24.2082 132.536 25.2551C132.536 26.2826 132.759 27.2132 133.205 28.0468C133.67 28.8611 134.29 29.5105 135.066 29.9952C135.86 30.4605 136.743 30.6931 137.712 30.6931ZM144.226 33.2231C143.799 33.2231 143.441 33.0874 143.15 32.816C142.879 32.5251 142.743 32.1665 142.743 31.74V27.2907L143.296 24.2082L145.71 25.2551V31.74C145.71 32.1665 145.564 32.5251 145.273 32.816C145.002 33.0874 144.653 33.2231 144.226 33.2231Z" fill="white"/>
</svg>
