<svg width="125" height="39" viewBox="0 0 125 39" fill="none" xmlns="http://www.w3.org/2000/svg">
<g clip-path="url(#clip0_1_27)">
<mask id="mask0_1_27" style="mask-type:luminance" maskUnits="userSpaceOnUse" x="0" y="0" width="125" height="39">
<path d="M124.691 0H0V38.2059H124.691V0Z" fill="white"/>
</mask>
<g mask="url(#mask0_1_27)">
<path d="M7.37092 20.7368H4.56997V30.2289H0V0H4.56997V16.5764H7.37092L13.3741 7.97697H18.8368L11.3021 18.6238L19.6066 30.2289H14.0129L7.37092 20.7368Z" fill="white"/>
<path d="M31.5721 30.7695C24.7745 30.7695 19.6558 25.79 19.6558 19.0989C19.6558 12.4077 24.7745 7.43643 31.5721 7.43643C38.3697 7.43643 43.472 12.3995 43.472 19.0989C43.472 25.7982 38.3697 30.7695 31.5721 30.7695ZM38.8201 19.0989C38.8602 18.1341 38.7005 17.1714 38.3511 16.2712C38.0017 15.371 37.4701 14.5527 36.7896 13.8675C36.1091 13.1824 35.2944 12.6453 34.3965 12.2898C33.4987 11.9343 32.5371 11.7681 31.5721 11.8017C30.6074 11.768 29.6461 11.9342 28.7487 12.2898C27.8513 12.6454 27.0371 13.1827 26.3573 13.8679C25.6774 14.5532 25.1466 15.3716 24.7981 16.2718C24.4496 17.1719 24.291 18.1345 24.3322 19.0989C24.291 20.0633 24.4496 21.0258 24.7981 21.926C25.1466 22.8261 25.6774 23.6446 26.3573 24.3298C27.0371 25.015 27.8513 25.5523 28.7487 25.9079C29.6461 26.2635 30.6074 26.4297 31.5721 26.3961C32.5371 26.4296 33.4987 26.2634 34.3965 25.9079C35.2944 25.5524 36.1091 25.0153 36.7896 24.3302C37.4701 23.6451 38.0017 22.8268 38.3511 21.9266C38.7005 21.0263 38.8602 20.0637 38.8201 19.0989Z" fill="white"/>
<path d="M67.6405 7.97696L57.4195 30.6302C54.8724 36.224 52.6939 38.2059 48.1567 38.2059H45.8635V34.111H47.7718C50.7119 34.111 51.621 33.292 53.2508 29.6966L53.7504 28.6483L44.0945 7.97696H49.0658L56.1336 23.4886L62.7757 7.97696H67.6405Z" fill="white"/>
<path d="M101.186 7.97696L93.7418 30.2289H90.0399L84.307 16.6746L78.6232 30.2289H74.8886L67.4358 7.97696H72.1532L77.1736 22.9317L83.5371 8.18989H85.0113L91.4895 23.0546L96.641 7.97696H101.186Z" fill="white"/>
<path d="M124.691 19.1562C124.691 19.6558 124.65 20.1554 124.601 20.6549H106.583C106.767 22.3081 107.572 23.8297 108.836 24.911C110.1 25.9924 111.728 26.5526 113.389 26.478C114.59 26.522 115.78 26.2408 116.834 25.6641C117.887 25.0875 118.766 24.2368 119.376 23.202H124.192C123.415 25.4372 121.952 27.3704 120.013 28.7261C118.073 30.0819 115.755 30.7912 113.389 30.7531C106.886 30.7531 101.923 25.7327 101.923 19.0825C101.923 12.4323 106.837 7.42004 113.389 7.42004C120.203 7.42004 124.732 12.6616 124.732 19.1398L124.691 19.1562ZM113.348 11.5641C111.773 11.5051 110.23 12.0158 109.001 13.0026C107.772 13.9894 106.94 15.3861 106.657 16.9367H120.105C119.802 15.3838 118.955 13.9899 117.717 13.0052C116.478 12.0205 114.929 11.5095 113.348 11.5641Z" fill="white"/>
<path d="M40.6823 11.9243L38.9602 15.1919L50.6831 21.3701L52.4052 18.1024L40.6823 11.9243Z" fill="white"/>
<path d="M102.517 17.2891L93.1301 22.0842L94.8105 25.3735L104.197 20.5785L102.517 17.2891Z" fill="white"/>
</g>
</g>
<defs>
<clipPath id="clip0_1_27">
<rect width="125" height="39" fill="white"/>
</clipPath>
</defs>
</svg>
