<svg width="188" height="40" viewBox="0 0 188 40" fill="none" xmlns="http://www.w3.org/2000/svg">
<g clip-path="url(#clip0_391_332)">
<path d="M14.9686 30.2308C12.1175 30.2308 9.76923 27.8825 9.76923 25.0314V4.6123L0 14.3815V25.0314C0 33.2911 6.70892 40 14.9686 40H25.5766L35.3877 30.2308H14.9686Z" fill="white"/>
<path d="M35.3877 19.6228V30.2308H29.2658C27.2535 30.2308 25.5766 28.5532 25.5766 26.5409V19.6228C25.5766 16.7298 23.2701 14.3815 20.3772 14.3815H13.4591C11.4043 14.3815 9.76923 12.7465 9.76923 10.7335V4.6123H20.3772C28.6369 4.6123 35.3877 11.3206 35.3877 19.6228Z" fill="#CCCCCC"/>
<path d="M42.0542 3.0825e-06V9.43385C42.0548 9.95159 41.9533 10.4644 41.7555 10.9428C41.5577 11.4213 41.2674 11.856 40.9014 12.2222C40.5353 12.5883 40.1006 12.8786 39.6222 13.0765C39.1437 13.2744 38.631 13.376 38.1132 13.3754H35.8068C34.4234 9.89539 31.9077 7.04431 28.6788 5.15693V3.94154C28.6781 3.42375 28.7796 2.91092 28.9775 2.43241C29.1753 1.95391 29.4656 1.51914 29.8318 1.15301C30.1979 0.786873 30.6327 0.496566 31.1112 0.298715C31.5897 0.100864 32.1025 -0.000644867 32.6203 3.0825e-06H42.0542Z" fill="#CCCCCC"/>
<path d="M49.9385 9.23086H54V27.0155H65.0769V30.7693H49.9385V9.23086ZM79.4708 17.6924L79.5939 15.6001H83.1939V30.7693H79.6554L79.4708 28.5539C78.6092 30.3386 76.24 31.2001 74.5477 31.2309C70.0554 31.2616 66.7323 28.4924 66.7323 23.1693C66.7323 17.9386 70.2092 15.2001 74.64 15.2309C76.6708 15.2309 78.6092 16.1847 79.4708 17.6924ZM74.9785 18.5847C72.4862 18.5847 70.4862 20.277 70.4862 23.1693C70.4862 26.0616 72.4862 27.7847 74.9785 27.7847C80.8862 27.7847 80.8862 18.5847 74.9785 18.5847ZM102.262 30.7693H98.5077V22.8309C98.5077 20.5232 97.2462 18.7693 94.8462 18.7693C92.5385 18.7693 90.9692 20.7078 90.9692 23.0155V30.7693H87.2462V15.5693H90.6L90.8462 17.6309C92.3846 16.1232 93.9231 15.3539 95.8308 15.3539C99.4 15.3539 102.262 18.0309 102.262 22.8001V30.7693ZM117.439 16.0616L119.132 13.9693L121.901 16.0616L119.993 18.277C121.316 19.8462 121.747 21.2309 121.747 22.8001C121.747 25.5078 120.486 27.3539 117.993 28.4924C121.224 29.6616 121.747 31.9386 121.747 33.4155C121.747 37.7232 117.532 39.8155 113.47 39.8155C108.209 39.8155 105.132 37.1693 105.286 32.8309H109.009C108.886 34.9539 111.101 36.1539 113.47 36.1847C115.562 36.1847 117.839 35.2924 117.839 33.4155C117.839 31.6001 116.362 30.4309 113.532 30.4309C108.516 30.4309 105.224 27.5386 105.224 22.8001C105.224 17.6924 109.286 15.1078 113.532 15.1078C114.732 15.1078 116.393 15.3539 117.439 16.0616ZM113.532 18.5847C111.07 18.5847 108.978 19.9693 108.978 22.8001C108.978 25.4462 111.07 26.9847 113.532 26.9847C115.993 26.9847 117.993 25.4155 117.993 22.8001C117.993 20.2155 115.993 18.5847 113.532 18.5847ZM126.799 11.7232L130.553 11.3232V15.6309H134.737V18.8616H130.522V25.4155C130.522 26.8616 131.322 27.5693 132.491 27.5693C133.076 27.5693 133.753 27.3847 134.306 27.1078L135.353 30.3078C134.276 30.7386 133.383 30.9232 132.245 30.9539C128.953 31.077 126.799 29.2001 126.799 25.4155V18.8616H123.968V15.6309H126.799V11.7232ZM149.723 17.6924L149.846 15.6001H153.446V30.7693H149.908L149.723 28.5539C148.862 30.3386 146.492 31.2001 144.8 31.2309C140.308 31.2616 136.985 28.4924 136.985 23.1693C136.985 17.9386 140.462 15.2001 144.892 15.2309C146.923 15.2309 148.862 16.1847 149.723 17.6924ZM145.231 18.5847C142.738 18.5847 140.738 20.277 140.738 23.1693C140.738 26.0616 142.738 27.7847 145.231 27.7847C151.138 27.7847 151.138 18.5847 145.231 18.5847ZM161.252 15.5386V30.7693H157.498V15.5386H161.252ZM157.16 11.3232C157.16 14.2462 161.591 14.2462 161.591 11.3232C161.591 8.40009 157.16 8.40009 157.16 11.3232ZM165.403 9.26163H169.126V30.7693H165.403V9.26163Z" fill="white"/>
</g>
<defs>
<clipPath id="clip0_391_332">
<rect width="187.077" height="40" fill="white"/>
</clipPath>
</defs>
</svg>
