<svg width="176" height="41" viewBox="0 0 176 41" fill="none" xmlns="http://www.w3.org/2000/svg">
<mask id="mask0_464_2" style="mask-type:luminance" maskUnits="userSpaceOnUse" x="0" y="0" width="176" height="41">
<path d="M0 0H175.33V41H0V0Z" fill="white"/>
</mask>
<g mask="url(#mask0_464_2)">
<path d="M42.1 10.5198V30.0198H51.97V31.9998H39.94V10.5198H42.1ZM56.99 31.9998H54.8L62.69 10.5198H65.36L73.34 31.9998H71.09L68.99 26.2998H59.09L56.99 31.9998ZM63.74 13.5498L59.75 24.4098H68.3L64.28 13.5498C64.19 13.2498 64.04 12.8898 64.01 12.6798C63.98 12.8598 63.86 13.2498 63.74 13.5498ZM79.686 31.9998H77.526V10.5198H79.716L91.536 28.3998V10.5198H93.666V31.9998H91.536L79.686 14.1198V31.9998ZM97.863 12.4998V10.5198H113.253V12.4998H106.623V31.9998H104.463V12.4998H97.863ZM130.296 31.9998H117.426V10.5198H130.266V12.4998H119.586V20.2398H129.276V22.1898H119.586V30.0198H130.296V31.9998ZM138.042 31.9998H135.882V10.5198H143.892C148.242 10.5198 150.882 12.9198 150.882 16.7298C150.882 19.8198 149.262 21.9798 146.502 22.7298L151.092 31.9998H148.692L144.312 23.0898H138.042V31.9998ZM138.042 12.4698V21.1398H143.952C146.922 21.1398 148.662 19.5198 148.662 16.7898C148.662 13.9998 146.832 12.4698 143.892 12.4698H138.042ZM158.431 31.9998H156.271V10.5198H158.461L170.281 28.3998V10.5198H172.411V31.9998H170.281L158.431 14.1198V31.9998ZM9.70997 11.3368L23.404 14.8118C23.719 14.8918 23.944 15.1718 23.944 15.4868L23.962 28.8748C23.962 29.1628 24.304 29.3248 24.538 29.1538L26.744 27.5598C26.8319 27.4954 26.9036 27.4115 26.9536 27.3147C27.0036 27.2179 27.0304 27.1108 27.032 27.0018L27.022 20.1148C27.014 15.7568 23.98 11.9578 19.613 10.8508L12.393 9.0228C12.2886 8.99615 12.1797 8.99282 12.0739 9.01304C11.9681 9.03326 11.8681 9.07654 11.781 9.1398L9.58397 10.7328C9.53113 10.7711 9.49048 10.8238 9.46694 10.8846C9.4434 10.9454 9.43796 11.0118 9.45128 11.0756C9.4646 11.1395 9.49611 11.1981 9.54201 11.2445C9.58791 11.2908 9.64624 11.3229 9.70997 11.3368Z" fill="white"/>
<path d="M20.955 22.2655C20.955 19.2315 18.83 16.5845 15.795 15.8105L9.16098 14.1265L6.33398 13.4065C6.22963 13.3799 6.12072 13.3766 6.01495 13.3968C5.90919 13.4171 5.80917 13.4603 5.72198 13.5235L2.92998 15.5495L0.319982 17.4395C0.232068 17.5039 0.160298 17.5878 0.110323 17.6846C0.0603467 17.7814 0.0335295 17.8886 0.0319824 17.9975L0.0409824 24.8855C0.0409824 29.2425 3.08398 33.0505 7.44098 34.1495L14.661 35.9775C14.7655 36.0043 14.8746 36.0077 14.9806 35.9875C15.0865 35.9673 15.1867 35.9239 15.274 35.8605L18.064 33.8345L20.675 31.9445C20.7632 31.8801 20.8353 31.7961 20.8854 31.6991C20.9356 31.6021 20.9625 31.4947 20.964 31.3855V28.6395L20.955 22.2655ZM17.885 19.8795L17.894 27.3075C17.894 27.5955 17.614 27.8025 17.326 27.7305L9.70998 25.8035C9.55815 25.7663 9.42288 25.6799 9.32522 25.5578C9.22756 25.4357 9.17298 25.2848 9.16998 25.1285L9.15998 17.6995C9.15998 17.4115 9.43998 17.2045 9.72798 17.2765L17.344 19.2035C17.66 19.2835 17.884 19.5635 17.884 19.8785L17.885 19.8795ZM17.335 33.6545L3.65098 30.1885C3.49898 30.1512 3.36359 30.0647 3.26591 29.9424C3.16824 29.8201 3.11376 29.669 3.11098 29.5125L3.09298 16.1525C3.09298 15.8645 3.37198 15.6575 3.65998 15.7295L5.68598 16.2425C5.91998 16.3055 6.09098 16.5125 6.09098 16.7465V20.4825C6.09998 24.8315 9.13398 28.6395 13.501 29.7465L17.497 30.7645C17.732 30.8275 17.903 31.0345 17.903 31.2685V33.2315C17.903 33.5195 17.623 33.7265 17.335 33.6545Z" fill="white"/>
</g>
</svg>
