<svg xmlns="http://www.w3.org/2000/svg" fill="none" viewBox="24 24 85 24.38">
  <path fill="#fff" d="M105.809 34.2v10.985H24v3.191h81.462A3.538 3.538 0 0 0 109 44.838V34.2h-3.191Zm-65.656 7.175c1.13.407 2.297.406 3.454.159 1.652-.353 2.756-1.371 3.373-2.931.02-.05.045-.1.057-.126l.18 2.85h2.97c-.044-.663-.116-1.312-.122-1.962-.023-2.446-.025-4.892-.036-7.338 0-.154-.003-.308-.011-.462-.037-.652-.176-1.281-.512-1.847-.647-1.09-1.652-1.686-2.85-1.985-.996-.248-2.011-.314-3.036-.256-2.087.12-5.123.87-5.615 4.144-.028.183-.03.37-.045.563h3.278c.012-.063.023-.108.03-.155.31-2.546 3.251-2.253 4.277-2.053.894.174 1.363.704 1.406 1.595.045.94-.618 1.285-1.209 1.403-1.149.23-2.306.42-3.46.62-1.207.21-4.117.553-4.549 3.352-.208 1.35-.036 3.545 2.42 4.43v-.001Zm2.631-5.824c.53-.166 1.08-.268 1.618-.403.877-.22 1.77-.397 2.549-.965.04 1.176-.037 2.295-.608 3.311-.556.989-1.408 1.578-2.536 1.75-1.093.168-2.764 0-2.822-1.646-.057-1.591 1.395-1.922 1.799-2.047Z"/>
  <path fill="#fff" d="M81.24 36.246c0-1.052.082-2.093.416-3.1.375-1.13 1.133-1.827 2.303-2.083.673-.147 1.353-.134 2.035-.134h.259v-3.207c-2.504-.247-4.148.865-5.073 3.151v-2.952h-3.263v13.411h3.323v-5.087Zm-45.275 2.352h-8.54V24H24v17.332h11.965v-2.734Zm58.655 3.169c4.87 0 7.202-3.194 7.202-7.135 0-3.94-2.252-7.135-7.203-7.135-4.95 0-7.202 3.195-7.202 7.135s2.332 7.135 7.202 7.135Zm0-11.683c3.226 0 3.833 2.036 3.833 4.548 0 2.511-.685 4.547-3.834 4.547s-3.833-2.036-3.833-4.547c0-2.512.607-4.548 3.833-4.548Zm-26.172 8.023c0 1.79 1.296 3.235 3.848 3.235l3.118-.01v-2.656h-3.745v-8.229h4.06V27.9h-4.074v-3.102h-1.671l-1.373 2.946-2.787 1.055v1.652h2.624v7.656Zm-9.629 1.43c-2.13 0-3.241-1.141-3.35-2.544h-3.137c.07 2.767 2.337 4.779 6.515 4.779 3.908 0 6.037-1.694 6.037-4.37 0-1.818-.946-3.2-2.78-3.75-.845-.254-1.675-.387-2.912-.5-1.03-.095-3.305-.187-3.305-1.594 0-1.062.736-1.83 2.623-1.83 2.252 0 2.827 1.079 2.957 2.185h3.164c-.093-1.42-.706-2.522-1.84-3.304-1.131-.783-2.606-1.175-4.422-1.175-1.104 0-2.092.182-2.962.546-.87.365-1.554.879-2.05 1.543-.496.665-.635 1.425-.635 2.28 0 .91.368 1.81.865 2.347.958 1.038 2.162 1.34 4.796 1.625 1.892.204 3.226.554 3.226 1.845 0 1.03-.352 1.917-2.79 1.917Z"/>
</svg>