<svg width="150" height="40" viewBox="0 0 150 40" fill="none" xmlns="http://www.w3.org/2000/svg">
<g clip-path="url(#clip0_414_12)">
<mask id="mask0_414_12" style="mask-type:luminance" maskUnits="userSpaceOnUse" x="0" y="1" width="150" height="39">
<path d="M0.015625 1.7041H149.551V39.9998H0.015625V1.7041Z" fill="white"/>
</mask>
<g mask="url(#mask0_414_12)">
<path fill-rule="evenodd" clip-rule="evenodd" d="M37.7252 22.596V2.57861C37.7252 2.32295 37.5791 2.11426 37.3982 2.11426H16.7391C16.7038 2.11493 16.669 2.12266 16.6367 2.13699C16.6045 2.15133 16.5754 2.17199 16.5513 2.19774L9.77909 9.05339C9.5217 9.31426 9.65213 9.89513 9.97039 9.89513H26.6469L36.946 3.00295L29.52 11.4725V30.5334C29.52 30.916 29.8226 31.1334 30.0365 30.9056L37.5913 22.9682C37.6816 22.8656 37.7295 22.7326 37.7252 22.596ZM21.1826 39.7386L27.96 32.8743C28.2174 32.6134 28.0869 32.0395 27.7704 32.0395H8.54431C8.36518 32.0395 8.21735 31.8395 8.21735 31.5821V11.4012C8.21735 11.0203 7.91126 10.8047 7.69561 11.0343L0.146047 18.9699C0.0593497 19.0716 0.0129428 19.2015 0.015612 19.3351V36.1595C0.015612 38.1838 1.18083 39.8256 2.62431 39.8256H20.9895C21.0628 39.8231 21.1322 39.7919 21.1826 39.7386Z" fill="white"/>
<path d="M74 32.6345H55.1739V1.7041H60.6278V27.6624H73.9965V32.6345H74ZM76.6243 21.3441C76.6243 17.7267 77.5808 14.8867 79.4939 12.8293C81.4208 10.758 84.033 9.72149 87.3269 9.72149C90.4156 9.72149 92.8904 10.6398 94.7478 12.4763C96.6348 14.3006 97.5791 16.8206 97.5791 20.038C97.5911 20.8911 97.5283 21.7437 97.3913 22.5858H81.953V23.8084C81.953 25.3563 82.4452 26.598 83.4295 27.5371C84.4261 28.4763 85.7391 28.9458 87.3652 28.9458C88.6643 28.9458 89.7652 28.6571 90.6661 28.0763C91.5826 27.4832 92.2052 26.6954 92.5322 25.7145H97.6991C97.2208 27.9389 96.0591 29.7198 94.2139 31.0606C92.3008 32.3858 90.0174 33.0485 87.3652 33.0485C84.0035 33.0485 81.3721 32.005 79.4713 29.9198C77.5721 27.7928 76.6208 24.9337 76.6208 21.3441H76.6243ZM81.9548 18.5476V18.9824H92.3704V18.3806C92.3704 16.9998 91.8991 15.8937 90.9565 15.0658C90.0261 14.2241 88.7895 13.8032 87.2452 13.8032C85.6591 13.8032 84.3808 14.238 83.4104 15.1076C82.44 15.9771 81.9548 17.125 81.9548 18.5476ZM100.612 26.1493C100.612 23.9684 101.33 22.2624 102.765 21.0328C104.214 19.8032 106.196 19.1893 108.713 19.1893H114.925V17.6971C114.925 15.1284 113.579 13.845 110.885 13.845C108.233 13.845 106.805 14.9754 106.6 17.2415H101.494C101.673 14.8658 102.616 13.0224 104.323 11.7111C106.033 10.3841 108.31 9.72149 111.151 9.72149C112.873 9.72149 114.363 9.98236 115.621 10.5093C116.88 11.0328 117.823 11.7441 118.45 12.6432C119.572 14.2589 120.132 15.9719 120.132 17.7806V28.9058H123.064V32.6345H118.779C117.631 32.6345 116.791 32.4258 116.257 32.0137C115.737 31.598 115.403 30.9424 115.252 30.045L115.212 29.1128H114.925C114.447 30.3006 113.551 31.2519 112.238 31.9719C110.939 32.6902 109.443 33.0502 107.748 33.0502C105.562 33.0502 103.826 32.4345 102.541 31.205C101.254 29.9615 100.612 28.2763 100.612 26.1493ZM105.863 25.2171V26.2328C105.863 27.1302 106.176 27.8154 106.805 28.285C107.449 28.7545 108.322 28.9876 109.43 28.9876C111.097 28.9876 112.43 28.4919 113.428 27.4971C114.426 26.4884 114.923 25.1632 114.923 23.5198V22.5458H109.553C108.391 22.5458 107.482 22.7945 106.826 23.2902C106.183 23.7737 105.863 24.4171 105.863 25.2171ZM132.25 39.7198H127.061V10.1563H131.635L132.249 14.1337H132.596C133.258 12.7626 134.325 11.6275 135.652 10.8815C136.991 10.1076 138.522 9.72149 140.243 9.72149C143.103 9.72149 145.33 10.7371 146.929 12.7667C148.543 14.7963 149.35 17.6276 149.35 21.2606C149.35 24.9076 148.543 27.7528 146.929 29.7963C145.316 31.8258 143.089 32.8398 140.245 32.8398C138.414 32.8398 136.835 32.4554 135.508 31.6815C134.211 30.9406 133.19 29.7995 132.596 28.4293H132.249L132.25 39.7198ZM138.381 28.5545C140.13 28.5545 141.497 28.0902 142.482 27.165C143.48 26.2258 143.977 24.9215 143.977 23.2502V19.3128C143.977 17.6554 143.494 16.3563 142.523 15.4171C141.567 14.478 140.205 14.0085 138.442 14.0085C136.57 14.0085 135.066 14.5685 133.932 15.6885C132.81 16.8067 132.25 18.2971 132.25 20.1632V22.3998C132.25 24.2641 132.81 25.7563 133.932 26.8745C135.052 27.9928 136.536 28.5528 138.381 28.5528V28.5545Z" fill="white"/>
</g>
</g>
<defs>
<clipPath id="clip0_414_12">
<rect width="149.565" height="40" fill="white"/>
</clipPath>
</defs>
</svg>
