<svg width="294" height="61" viewBox="0 0 294 61" fill="none" xmlns="http://www.w3.org/2000/svg">
<path fill-rule="evenodd" clip-rule="evenodd" d="M67.0504 11.3H60.4651L60.4666 50.3198H67.0504V11.3ZM79.2686 22.455H72.6852V50.3198H79.2686V22.455ZM79.2686 11H72.6852V18.1015H79.2686V11ZM88.9306 22.455H81.8554L91.8155 50.3198H99.1624L109.122 22.455H102.155L97.9922 35.6535C97.8841 35.9965 97.4938 37.3399 96.8225 39.6798L95.4887 44.1698C94.7007 41.3205 93.8756 38.4814 93.0139 35.6535L88.9306 22.455ZM136.089 31.1636C135.545 29.295 134.746 27.7066 133.693 26.4C132.513 24.9333 131.018 23.7984 129.204 23C127.408 22.1833 125.412 21.7767 123.218 21.7767C119.046 21.7767 115.707 23.0818 113.204 25.6934C111.955 27.0426 111.001 28.6368 110.401 30.3752C109.784 32.1698 109.476 34.1566 109.476 36.3333C109.476 40.995 110.719 44.5965 113.206 47.1368C115.726 49.7116 119.083 51 123.272 51C126.864 51 129.774 50.1934 132.008 48.5783C134.239 46.9636 135.718 44.5698 136.443 41.395L130.021 40.905C129.713 42.6283 129.004 43.9167 127.898 44.7682C126.791 45.6035 125.231 46.0217 123.218 46.0217C118.611 46.0217 116.253 43.4267 116.144 38.2384H136.878L136.906 37.3136C136.906 35.0818 136.633 33.0318 136.089 31.1636ZM117.612 29.205C118.774 27.5717 120.643 26.755 123.218 26.755C124.469 26.755 125.522 26.9267 126.374 27.2717C127.227 27.6167 127.963 28.1698 128.579 28.9318C129.059 29.5229 129.427 30.1961 129.668 30.9182C129.938 31.6721 130.103 32.4593 130.158 33.2581H116.197C116.361 31.6434 116.833 30.2919 117.612 29.205ZM162.485 23.545C160.617 22.3283 158.458 21.7217 156.01 21.7217H156.006C154.23 21.7217 152.606 22.0833 151.136 22.8101C149.69 23.5151 148.452 24.5837 147.543 25.9116V11.3H140.96V50.3198H147.545V46.4833C148.379 47.862 149.562 48.9973 150.973 49.7752C152.443 50.5919 154.066 51 155.843 51C158.311 51 160.496 50.4101 162.405 49.2318C164.308 48.0535 165.786 46.3651 166.838 44.1698C167.908 41.9566 168.445 39.3636 168.445 36.3884C168.445 33.4849 167.917 30.9283 166.867 28.7151C165.832 26.4833 164.371 24.7601 162.485 23.545ZM159.681 43.7616C158.63 45.3581 156.834 46.155 154.293 46.155C152.006 46.155 150.284 45.3298 149.125 43.6798C147.963 42.0298 147.383 39.6167 147.383 36.4419C147.383 33.3752 147.9 30.9818 148.933 29.2581C149.986 27.5167 151.755 26.6465 154.24 26.6465C156.78 26.6465 158.584 27.445 159.655 29.0399C160.726 30.6182 161.26 33.0682 161.26 36.3884C161.26 39.7066 160.735 42.1651 159.681 43.7616ZM179.14 11.3H172.555V50.3198H179.14V11.3ZM189.807 49.2581C191.948 50.4198 194.487 51 197.427 51C200.257 51 202.742 50.3919 204.882 49.1783C207.007 47.9969 208.739 46.2178 209.862 44.0616C211.04 41.8484 211.631 39.2899 211.631 36.3884C211.631 33.595 211.05 31.0899 209.889 28.8783C208.775 26.6965 207.056 24.8822 204.937 23.6535C202.795 22.4015 200.292 21.7752 197.427 21.7752C194.542 21.7752 192.02 22.4015 189.862 23.6535C187.748 24.8771 186.029 26.6802 184.909 28.85C183.767 31.045 183.195 33.5581 183.195 36.3884C183.195 39.4 183.757 42.0019 184.882 44.1965C185.976 46.3415 187.693 48.1058 189.807 49.2581ZM202.895 43.7899C201.789 45.35 199.965 46.1298 197.427 46.1298C195.703 46.1298 194.315 45.7849 193.264 45.095C192.21 44.3884 191.448 43.3267 190.977 41.9116C190.505 40.4783 190.27 38.6368 190.27 36.3868C190.27 33.0136 190.824 30.5465 191.93 28.9868C193.055 27.4267 194.887 26.6465 197.427 26.6465C199.948 26.6465 201.762 27.4267 202.869 28.9868C203.994 30.5465 204.555 33.0136 204.555 36.3884C204.555 39.7616 204.002 42.2283 202.895 43.7899ZM220.611 49.2581C222.734 50.4198 225.264 51 228.204 51C230.489 51 232.531 50.6019 234.326 49.8035C236.123 49.005 237.581 47.8899 238.707 46.4566C239.835 44.9957 240.574 43.2725 240.856 41.4484L234.516 40.7965C234.081 42.5368 233.356 43.8349 232.339 44.6868C231.324 45.5399 229.944 45.9667 228.204 45.9667C226.426 45.9667 225.029 45.6035 224.012 44.8767C222.997 44.1333 222.289 43.0732 221.891 41.6934C221.491 40.2965 221.292 38.5283 221.292 36.3884C221.292 34.2833 221.491 32.5419 221.891 31.1636C222.289 29.7667 222.987 28.6965 223.986 27.9519C225.002 27.1899 226.407 26.8101 228.204 26.8101C230.126 26.8101 231.551 27.345 232.476 28.4151C233.419 29.4667 234.091 30.9081 234.488 32.7419L240.721 31.6252C240.123 28.65 238.77 26.2651 236.665 24.4702C234.579 22.6733 231.759 21.7767 228.204 21.7767C225.301 21.7767 222.789 22.3934 220.665 23.6267C218.569 24.8333 216.875 26.6318 215.796 28.7965C214.671 30.9919 214.107 33.5217 214.107 36.3884C214.107 39.4167 214.66 42.0298 215.767 44.2252C216.892 46.4198 218.507 48.0984 220.611 49.2581ZM250.953 39.9798L254.028 37.0399L262.191 50.3198H269.784L258.491 32.8217L269.43 22.455H260.884L250.953 32.6333V11.3H244.367V50.3198H250.953V39.9798ZM275.553 49.993C277.405 50.6647 279.463 50.9996 281.73 50.9996C285.195 50.9996 288.051 50.3097 290.302 48.9333C292.57 47.5531 293.705 45.3031 293.705 42.1833C293.705 40.1512 293.177 38.5546 292.126 37.395C291.074 36.2147 289.821 35.3713 288.37 34.8632C286.937 34.338 284.986 33.8031 282.521 33.2581C281.086 32.9496 279.953 32.6597 279.119 32.388C278.284 32.1147 277.612 31.7612 277.105 31.3264C276.616 30.8895 276.37 30.3279 276.37 29.6395C276.37 28.6233 276.823 27.8531 277.73 27.3264C278.637 26.7996 279.763 26.5364 281.105 26.5364C282.881 26.5364 284.27 26.9632 285.27 27.8163C286.284 28.6698 286.828 29.9481 286.9 31.6531L292.995 30.6465C292.705 27.5264 291.481 25.2682 289.321 23.8698C287.181 22.4748 284.442 21.7748 281.105 21.7748C279.144 21.7748 277.333 22.0733 275.663 22.6733C274.012 23.2531 272.679 24.1698 271.663 25.4233C270.646 26.6733 270.14 28.2512 270.14 30.1566C270.14 31.9163 270.574 33.3395 271.444 34.4279C272.33 35.5279 273.47 36.3961 274.765 36.9581C276.107 37.5395 277.793 38.093 279.826 38.6182L281.514 39.0263C282.64 39.2934 283.756 39.6019 284.86 39.9512C285.621 40.188 286.246 40.5147 286.737 40.9314C287.228 41.3481 287.472 41.893 287.472 42.5647C287.472 43.743 286.981 44.6512 286.002 45.2849C285.042 45.9213 283.635 46.238 281.786 46.238C279.898 46.238 278.393 45.7663 277.267 44.8233C276.144 43.8798 275.572 42.5198 275.553 40.7415L269.351 41.4481C269.421 43.5895 270.012 45.3764 271.119 46.8097C272.244 48.243 273.721 49.3031 275.553 49.993Z" fill="white"/>
<path fill-rule="evenodd" clip-rule="evenodd" d="M31.3953 24.7441H0L9.30232 34.0465V46.8372L31.3953 24.7441Z" fill="white"/>
<path fill-rule="evenodd" clip-rule="evenodd" d="M15.1163 50.3264H46.5116L37.2093 41.0241V28.2334L15.1163 50.3264Z" fill="white"/>
</svg>
