<svg width="180" height="40" viewBox="0 0 180 40" fill="none" xmlns="http://www.w3.org/2000/svg">
<g clip-path="url(#clip0_421_11)">
<path d="M6.08295 9.21H36.4977C38.111 9.21 39.6582 9.8569 40.799 11.0084C41.9397 12.1598 42.5806 13.7215 42.5806 15.35V24.56C42.5806 26.1885 41.9397 27.7502 40.799 28.9016C39.6582 30.0531 38.111 30.7 36.4977 30.7H6.08295C4.46965 30.7 2.92243 30.0531 1.78165 28.9016C0.640881 27.7502 0 26.1885 0 24.56V15.35C0 13.7215 0.640881 12.1598 1.78165 11.0084C2.92243 9.8569 4.46965 9.21 6.08295 9.21ZM6.08295 12.28C5.2763 12.28 4.50269 12.6034 3.9323 13.1792C3.36192 13.7549 3.04148 14.5358 3.04148 15.35V24.56C3.04148 25.3742 3.36192 26.1551 3.9323 26.7308C4.50269 27.3066 5.2763 27.63 6.08295 27.63H36.4977C37.3043 27.63 38.0779 27.3066 38.6483 26.7308C39.2187 26.1551 39.5392 25.3742 39.5392 24.56V15.35C39.5392 14.5358 39.2187 13.7549 38.6483 13.1792C38.0779 12.6034 37.3043 12.28 36.4977 12.28H6.08295ZM0 1.535C0 1.12789 0.16022 0.737458 0.445414 0.449591C0.730606 0.161723 1.11741 0 1.52074 0H41.0599C41.4632 0 41.8501 0.161723 42.1352 0.449591C42.4205 0.737458 42.5806 1.12789 42.5806 1.535C42.5806 1.94211 42.4205 2.33254 42.1352 2.62041C41.8501 2.90828 41.4632 3.07 41.0599 3.07H1.52074C1.11741 3.07 0.730606 2.90828 0.445414 2.62041C0.16022 2.33254 0 1.94211 0 1.535ZM0 38.375C0 37.9679 0.16022 37.5775 0.445414 37.2896C0.730606 37.0017 1.11741 36.84 1.52074 36.84H41.0599C41.4632 36.84 41.8501 37.0017 42.1352 37.2896C42.4205 37.5775 42.5806 37.9679 42.5806 38.375C42.5806 38.7821 42.4205 39.1725 42.1352 39.4604C41.8501 39.7483 41.4632 39.91 41.0599 39.91H1.52074C1.11741 39.91 0.730606 39.7483 0.445414 39.4604C0.16022 39.1725 0 38.7821 0 38.375Z" fill="#FFF9F9"/>
<path d="M53.8087 31.6127V8.15234H56.6496V29.0926H67.5548V31.6127H53.8087Z" fill="#FFF9F9"/>
<path d="M78.7355 31.9791C77.1471 31.9791 75.7529 31.601 74.5542 30.845C73.3626 30.0889 72.431 29.0312 71.7593 27.6718C71.0948 26.3125 70.7626 24.724 70.7626 22.9065C70.7626 21.0736 71.0948 19.4737 71.7593 18.1067C72.431 16.7397 73.3626 15.6782 74.5542 14.9221C75.7529 14.1661 77.1471 13.7881 78.7355 13.7881C80.3239 13.7881 81.7135 14.1661 82.9052 14.9221C84.1039 15.6782 85.0355 16.7397 85.7 18.1067C86.3723 19.4737 86.7084 21.0736 86.7084 22.9065C86.7084 24.724 86.3723 26.3125 85.7 27.6718C85.0355 29.0312 84.1039 30.0889 82.9052 30.845C81.7135 31.601 80.3239 31.9791 78.7355 31.9791ZM78.7355 29.5505C79.9419 29.5505 80.9348 29.2412 81.7135 28.6227C82.4929 28.0041 83.069 27.1907 83.4432 26.1827C83.8174 25.1746 84.0045 24.0825 84.0045 22.9065C84.0045 21.7304 83.8174 20.6345 83.4432 19.6188C83.069 18.6031 82.4929 17.7822 81.7135 17.1559C80.9348 16.5297 79.9419 16.2166 78.7355 16.2166C77.529 16.2166 76.5361 16.5297 75.7568 17.1559C74.9781 17.7822 74.4013 18.6031 74.0271 19.6188C73.6529 20.6345 73.4658 21.7304 73.4658 22.9065C73.4658 24.0825 73.6529 25.1746 74.0271 26.1827C74.4013 27.1907 74.9781 28.0041 75.7568 28.6227C76.5361 29.2412 77.529 29.5505 78.7355 29.5505Z" fill="#FFF9F9"/>
<path d="M97.9374 38.5773C96.6316 38.5773 95.509 38.4092 94.5697 38.0732C93.6303 37.7449 92.8471 37.3096 92.2213 36.7674C91.6026 36.2328 91.1097 35.66 90.7432 35.0491L92.8968 33.537C93.1413 33.8577 93.4503 34.2243 93.8245 34.6367C94.1987 35.0567 94.711 35.4194 95.36 35.7249C96.0168 36.038 96.8755 36.1946 97.9374 36.1946C99.3574 36.1946 100.53 35.8509 101.454 35.1636C102.378 34.4763 102.84 33.3995 102.84 31.9332V28.3592H102.611C102.412 28.6799 102.13 29.0771 101.763 29.5505C101.405 30.0163 100.885 30.4326 100.205 30.7991C99.5335 31.1581 98.6245 31.3376 97.4793 31.3376C96.0587 31.3376 94.7832 31.0015 93.6529 30.3295C92.5303 29.6574 91.6406 28.6799 90.9839 27.3969C90.3348 26.114 90.0103 24.556 90.0103 22.7232C90.0103 20.9209 90.3271 19.3515 90.9613 18.0151C91.5948 16.671 92.4768 15.6323 93.6071 14.8992C94.7374 14.1585 96.0432 13.7881 97.5252 13.7881C98.6703 13.7881 99.5793 13.979 100.251 14.3608C100.931 14.7351 101.45 15.1627 101.809 15.6438C102.175 16.1173 102.458 16.5068 102.657 16.8123H102.932V14.0172H105.544V32.1165C105.544 33.6286 105.2 34.8581 104.512 35.8051C103.833 36.7597 102.917 37.4585 101.763 37.9014C100.618 38.352 99.3426 38.5773 97.9374 38.5773ZM97.8458 28.9091C98.9303 28.9091 99.8464 28.6609 100.595 28.1644C101.343 27.668 101.912 26.954 102.302 26.0223C102.691 25.0906 102.886 23.9756 102.886 22.6774C102.886 21.4096 102.695 20.2909 102.313 19.321C101.932 18.3511 101.366 17.5912 100.618 17.0414C99.8697 16.4915 98.9451 16.2166 97.8458 16.2166C96.7 16.2166 95.7451 16.5068 94.9819 17.0872C94.2258 17.6676 93.6568 18.4465 93.2748 19.4241C92.9006 20.4016 92.7135 21.486 92.7135 22.6774C92.7135 23.8992 92.9045 24.9799 93.2864 25.9192C93.6761 26.8509 94.2484 27.584 95.0045 28.1186C95.7684 28.6456 96.7155 28.9091 97.8458 28.9091Z" fill="#FFF9F9"/>
<path d="M118.099 31.6127H110.859V8.15234H118.419C120.695 8.15234 122.643 8.62196 124.261 9.56131C125.881 10.493 127.121 11.8333 127.985 13.5822C128.847 15.3233 129.279 17.4082 129.279 19.8367C129.279 22.2805 128.844 24.3845 127.973 26.1485C127.103 27.9051 125.835 29.2567 124.17 30.2038C122.505 31.1431 120.481 31.6127 118.099 31.6127ZM113.7 29.0926H117.915C119.855 29.0926 121.463 28.7183 122.738 27.97C124.014 27.2216 124.964 26.1562 125.59 24.774C126.217 23.3916 126.53 21.7459 126.53 19.8367C126.53 17.9428 126.221 16.3123 125.602 14.9453C124.983 13.5707 124.059 12.5168 122.83 11.7836C121.6 11.0429 120.069 10.6725 118.236 10.6725H113.7V29.0926Z" fill="#FFF9F9"/>
<path d="M133.677 31.6124V14.0172H136.29V16.6748H136.473C136.794 15.8042 137.374 15.0977 138.214 14.5555C139.054 14.0133 140.001 13.7422 141.055 13.7422C141.254 13.7422 141.502 13.7461 141.799 13.7537C142.097 13.7613 142.323 13.7728 142.475 13.7881V16.5373C142.384 16.5144 142.174 16.48 141.845 16.4342C141.525 16.3808 141.185 16.354 140.826 16.354C139.97 16.354 139.207 16.5335 138.535 16.8924C137.87 17.2437 137.343 17.7324 136.954 18.3587C136.572 18.9773 136.381 19.6837 136.381 20.4779V31.6124H133.677Z" fill="#FFF9F9"/>
<path d="M152.292 31.9791C150.704 31.9791 149.31 31.601 148.112 30.845C146.92 30.0889 145.988 29.0312 145.316 27.6718C144.652 26.3125 144.319 24.724 144.319 22.9065C144.319 21.0736 144.652 19.4737 145.316 18.1067C145.988 16.7397 146.92 15.6782 148.112 14.9221C149.31 14.1661 150.704 13.7881 152.292 13.7881C153.881 13.7881 155.271 14.1661 156.463 14.9221C157.661 15.6782 158.593 16.7397 159.257 18.1067C159.93 19.4737 160.265 21.0736 160.265 22.9065C160.265 24.724 159.93 26.3125 159.257 27.6718C158.593 29.0312 157.661 30.0889 156.463 30.845C155.271 31.601 153.881 31.9791 152.292 31.9791ZM152.292 29.5505C153.499 29.5505 154.492 29.2412 155.271 28.6227C156.05 28.0041 156.626 27.1907 157.001 26.1827C157.375 25.1746 157.562 24.0825 157.562 22.9065C157.562 21.7304 157.375 20.6345 157.001 19.6188C156.626 18.6031 156.05 17.7822 155.271 17.1559C154.492 16.5297 153.499 16.2166 152.292 16.2166C151.086 16.2166 150.093 16.5297 149.314 17.1559C148.535 17.7822 147.959 18.6031 147.584 19.6188C147.21 20.6345 147.023 21.7304 147.023 22.9065C147.023 24.0825 147.21 25.1746 147.584 26.1827C147.959 27.1907 148.535 28.0041 149.314 28.6227C150.093 29.2412 151.086 29.5505 152.292 29.5505Z" fill="#FFF9F9"/>
<path d="M164.392 38.2107V14.0172H167.004V16.8123H167.325C167.523 16.5068 167.798 16.1173 168.15 15.6438C168.508 15.1627 169.02 14.7351 169.685 14.3608C170.357 13.979 171.265 13.7881 172.411 13.7881C173.892 13.7881 175.198 14.1585 176.328 14.8992C177.459 15.64 178.341 16.6901 178.975 18.0494C179.608 19.4088 179.926 21.0125 179.926 22.8607C179.926 24.724 179.608 26.3392 178.975 27.7062C178.341 29.0656 177.463 30.1194 176.34 30.8679C175.217 31.6087 173.923 31.9791 172.457 31.9791C171.326 31.9791 170.421 31.792 169.742 31.4178C169.062 31.0359 168.539 30.6044 168.172 30.1233C167.806 29.6345 167.523 29.2298 167.325 28.9091H167.095V38.2107H164.392ZM167.05 22.8148C167.05 24.1436 167.245 25.3159 167.634 26.3316C168.023 27.3396 168.592 28.1301 169.341 28.7029C170.089 29.268 171.006 29.5505 172.09 29.5505C173.221 29.5505 174.163 29.2527 174.919 28.657C175.683 28.0537 176.256 27.2442 176.638 26.2285C177.027 25.2052 177.222 24.0672 177.222 22.8148C177.222 21.5776 177.031 20.4627 176.649 19.4699C176.275 18.4694 175.706 17.6791 174.943 17.0986C174.186 16.5106 173.235 16.2166 172.09 16.2166C170.99 16.2166 170.066 16.4953 169.318 17.0528C168.57 17.6027 168.005 18.374 167.623 19.3668C167.241 20.352 167.05 21.5013 167.05 22.8148Z" fill="#FFF9F9"/>
</g>
<defs>
<clipPath id="clip0_421_11">
<rect width="180" height="40" fill="white"/>
</clipPath>
</defs>
</svg>
