<svg width="149" height="33" viewBox="0 0 149 33" fill="none" xmlns="http://www.w3.org/2000/svg">
<g clip-path="url(#clip0_38_201)">
<path d="M9.59852 26.2869L5.0503 14.0599V26.2869H0V5.08154H6.58606L11.9317 19.4646L17.2478 5.08154H23.8339V26.2869H18.7836V13.9122L14.2058 26.2869H9.59852Z" fill="#F9F9F9"/>
<path d="M36.8662 26.2869V24.7511C36.3149 25.3812 35.675 25.8439 34.9465 26.1392C34.218 26.4346 33.3418 26.5823 32.318 26.5823C30.6641 26.5823 29.3252 26.1294 28.3013 25.2237C27.2972 24.2983 26.7951 23.0874 26.7951 21.591C26.7951 20.0356 27.4055 18.8542 28.6262 18.0469C29.8469 17.22 31.5895 16.8065 33.8537 16.8065C34.2869 16.8065 34.7004 16.8262 35.0941 16.8656C35.4879 16.8853 35.8522 16.9247 36.1869 16.9837V16.2158C36.1869 15.5267 35.99 14.9951 35.5962 14.621C35.2221 14.2469 34.6807 14.0599 33.9719 14.0599C33.2827 14.0599 32.7314 14.2469 32.318 14.621C31.9242 14.9951 31.6781 15.5267 31.5796 16.2158H27.0314C27.1298 14.9754 27.4842 13.9024 28.0946 12.9966C28.705 12.0713 29.5122 11.3624 30.5164 10.8702C31.5402 10.3583 32.7019 10.1023 34.0014 10.1023C36.1869 10.1023 37.89 10.6635 39.1108 11.7858C40.3315 12.908 40.9419 14.4733 40.9419 16.4817V26.2869H36.8662ZM31.5501 21.4434C31.5501 21.9553 31.7174 22.3589 32.0521 22.6542C32.4066 22.9496 32.8889 23.0972 33.4993 23.0972C34.3459 23.0972 35.0055 22.9102 35.4781 22.5361C35.9506 22.162 36.1869 21.6501 36.1869 21.0003V19.9962C35.8128 19.9174 35.4682 19.8682 35.1532 19.8485C34.8382 19.8091 34.5133 19.7895 34.1786 19.7895C33.332 19.7895 32.6822 19.9273 32.2294 20.2029C31.7765 20.4786 31.5501 20.8921 31.5501 21.4434Z" fill="#F9F9F9"/>
<path d="M51.1774 32.2823C49.7204 32.2823 48.4308 32.0263 47.3085 31.5144C46.1862 31.0222 45.3002 30.3134 44.6504 29.388C44.0007 28.4626 43.6463 27.3895 43.5872 26.1688H48.4898C48.5883 26.8776 48.8541 27.419 49.2873 27.7931C49.7401 28.1672 50.3603 28.3543 51.1479 28.3543C52.093 28.3543 52.8018 28.1082 53.2743 27.6159C53.7666 27.1237 54.0127 26.3952 54.0127 25.4304V23.5698C53.5992 24.1605 53.0381 24.6232 52.3293 24.9579C51.6204 25.2926 50.8329 25.46 49.9665 25.46C48.6867 25.46 47.5251 25.1252 46.4815 24.4558C45.438 23.7667 44.6111 22.8413 44.0007 21.6796C43.3903 20.518 43.0851 19.2185 43.0851 17.7811C43.0851 16.2848 43.3706 14.9656 43.9416 13.8236C44.5126 12.6619 45.3002 11.7562 46.3043 11.1065C47.3085 10.437 48.4603 10.1023 49.7598 10.1023C50.764 10.1023 51.6401 10.2598 52.3883 10.5749C53.1365 10.8702 53.8158 11.3526 54.4262 12.022V10.3977H59.063V25.3714C59.063 27.5175 58.3542 29.2009 56.9366 30.4217C55.5386 31.6621 53.6189 32.2823 51.1774 32.2823ZM48.1945 17.8107C48.1945 18.7951 48.4505 19.5827 48.9624 20.1734C49.4743 20.7641 50.1536 21.0594 51.0002 21.0594C51.5909 21.0594 52.1028 20.9216 52.536 20.6459C52.9888 20.3703 53.3334 19.9863 53.5697 19.4941C53.8256 19.0019 53.9536 18.4309 53.9536 17.7811C53.9536 16.7967 53.678 16.0091 53.1267 15.4184C52.5951 14.8081 51.8863 14.5029 51.0002 14.5029C50.1536 14.5029 49.4743 14.8081 48.9624 15.4184C48.4505 16.0091 48.1945 16.8065 48.1945 17.8107Z" fill="#F9F9F9"/>
<path d="M67.4252 26.2869H62.3749V10.3977H67.4252V26.2869Z" fill="#F9F9F9"/>
<path d="M77.7386 26.5823C76.1634 26.5823 74.7753 26.2377 73.5743 25.5486C72.3733 24.8398 71.4282 23.8651 70.739 22.6247C70.0696 21.3843 69.7349 19.9568 69.7349 18.3423C69.7349 16.7671 70.0795 15.3594 70.7686 14.1189C71.4774 12.8785 72.4323 11.9039 73.6334 11.1951C74.8541 10.4666 76.2225 10.1023 77.7386 10.1023C79.1956 10.1023 80.5049 10.4174 81.6666 11.0474C82.8283 11.6578 83.7734 12.5143 84.5019 13.6169C85.2304 14.7195 85.6635 16.0091 85.8013 17.4858H80.4262C80.3868 16.6195 80.121 15.9304 79.6288 15.4184C79.1562 14.9065 78.536 14.6505 77.7681 14.6505C77.1774 14.6505 76.6754 14.7982 76.2619 15.0936C75.8484 15.3889 75.5235 15.8122 75.2873 16.3635C75.0707 16.8951 74.9624 17.5547 74.9624 18.3423C74.9624 19.1299 75.0707 19.8091 75.2873 20.3801C75.5039 20.9314 75.8189 21.3547 76.2324 21.6501C76.6655 21.9257 77.1774 22.0636 77.7681 22.0636C78.5557 22.0636 79.1759 21.8174 79.6288 21.3252C80.1013 20.8133 80.3671 20.1045 80.4262 19.1988H85.8013C85.6635 20.7148 85.2402 22.0242 84.5314 23.1268C83.8226 24.2294 82.8873 25.0859 81.7257 25.6962C80.5837 26.2869 79.2547 26.5823 77.7386 26.5823Z" fill="#F9F9F9"/>
<path d="M94.5436 26.2868H89.4933V14.7981H86.5399V10.3976H89.4933V9.83642C89.4933 8.20221 89.9363 6.94209 90.8223 6.05608C91.7084 5.17006 93.0374 4.72705 94.8094 4.72705C95.3804 4.72705 95.9022 4.77627 96.3747 4.87472C96.8669 4.97317 97.3001 5.10115 97.6742 5.25866V9.24574C97.4773 9.14729 97.2312 9.07838 96.9359 9.039C96.6405 8.97993 96.355 8.9504 96.0794 8.9504C95.6462 8.9504 95.282 9.02916 94.9866 9.18667C94.6913 9.3245 94.5436 9.58046 94.5436 9.95455V10.3976H98.4421V14.7981H94.5436V26.2868ZM105.501 26.2868H100.391V5.08146H105.501V26.2868Z" fill="#F9F9F9"/>
<path d="M116.105 26.5823C114.924 26.5823 113.831 26.3755 112.827 25.962C111.823 25.5289 110.946 24.9382 110.198 24.19C109.45 23.4221 108.859 22.546 108.426 21.5615C108.013 20.5573 107.806 19.4843 107.806 18.3423C107.806 17.2003 108.013 16.1371 108.426 15.1526C108.859 14.1485 109.45 13.2723 110.198 12.5241C110.946 11.7562 111.823 11.1655 112.827 10.7521C113.831 10.3189 114.924 10.1023 116.105 10.1023C117.286 10.1023 118.379 10.3189 119.383 10.7521C120.387 11.1655 121.264 11.7562 122.012 12.5241C122.76 13.2723 123.341 14.1485 123.754 15.1526C124.187 16.1371 124.404 17.2003 124.404 18.3423C124.404 19.4843 124.187 20.5573 123.754 21.5615C123.341 22.546 122.76 23.4221 122.012 24.19C121.264 24.9382 120.387 25.5289 119.383 25.962C118.379 26.3755 117.286 26.5823 116.105 26.5823ZM116.105 22.0636C116.637 22.0636 117.129 21.9257 117.582 21.6501C118.054 21.3744 118.428 20.961 118.704 20.4097C118.999 19.8584 119.147 19.1692 119.147 18.3423C119.147 17.5153 118.999 16.8262 118.704 16.2749C118.428 15.7236 118.054 15.32 117.582 15.064C117.129 14.7884 116.637 14.6505 116.105 14.6505C115.593 14.6505 115.101 14.7884 114.628 15.064C114.156 15.32 113.772 15.7236 113.476 16.2749C113.201 16.8262 113.063 17.5153 113.063 18.3423C113.063 19.1692 113.201 19.8584 113.476 20.4097C113.772 20.961 114.156 21.3744 114.628 21.6501C115.101 21.9257 115.593 22.0636 116.105 22.0636Z" fill="#F9F9F9"/>
<path d="M139.195 26.2869L136.743 17.2791L134.292 26.2869H129.242L124.782 10.3977H129.714L131.929 19.1102L134.262 10.3977H139.313L141.528 19.1102L143.743 10.3977H148.704L144.215 26.2869H139.195Z" fill="#F9F9F9"/>
<path d="M67.4165 9.38209C67.132 9.20902 66.9475 9.1397 66.8024 9.00186C65.5806 7.84028 64.2053 7.68131 62.7401 7.82139C61.8191 7.90945 60.8606 7.91613 59.9602 7.68905C57.5529 7.08189 56.2284 4.89426 55.3975 2.11403C55.1514 1.29055 55.2755 0.945948 55.9671 0.892104C57.2636 0.791198 58.5852 0.676712 59.8637 0.8906C61.2793 1.12744 62.7263 1.51509 64.0374 2.21486C66.1204 3.32661 67.1061 5.63383 67.4128 8.44093C67.4409 8.69842 67.4165 8.96539 67.4165 9.38209Z" fill="#F9F9F9"/>
</g>
<defs>
<clipPath id="clip0_38_201">
<rect width="149" height="33" fill="white"/>
</clipPath>
</defs>
</svg>
