<svg width="220" height="40" viewBox="0 0 220 40" fill="none" xmlns="http://www.w3.org/2000/svg">
<g clip-path="url(#clip0_21_32)">
<mask id="mask0_21_32" style="mask-type:luminance" maskUnits="userSpaceOnUse" x="0" y="0" width="220" height="40">
<path d="M219.441 0H0V40H219.441V0Z" fill="white"/>
</mask>
<g mask="url(#mask0_21_32)">
<path d="M72.0402 11.1123C72.0402 10.742 72.3406 10.4419 72.7106 10.4419H75.9137C76.1859 10.4419 76.4308 10.6063 76.5341 10.8581L82.1099 24.4677C82.1361 24.5317 82.1984 24.5734 82.2675 24.5734C82.3368 24.5734 82.3989 24.5317 82.4252 24.4677L88.0011 10.8581C88.1041 10.6063 88.3493 10.4419 88.6214 10.4419H91.8244C92.1946 10.4419 92.4947 10.742 92.4947 11.1123V29.2738C92.4947 29.6441 92.1946 29.9442 91.8244 29.9442H89.7752C89.4049 29.9442 89.1048 29.6441 89.1048 29.2738V16.6539C89.1048 16.5943 89.0565 16.5459 88.9966 16.5459C88.9526 16.5459 88.9131 16.5726 88.8965 16.6134L83.7035 29.4678C83.6011 29.7212 83.3551 29.887 83.0818 29.887H81.4536C81.1801 29.887 80.9341 29.7209 80.832 29.4673L75.6384 16.5849C75.6221 16.5441 75.5823 16.5173 75.5383 16.5173C75.4787 16.5173 75.4304 16.5657 75.4304 16.6253V29.2738C75.4304 29.6441 75.1303 29.9442 74.76 29.9442H72.7106C72.3406 29.9442 72.0402 29.6441 72.0402 29.2738V11.1123Z" fill="white"/>
<path d="M99.326 30.2393C98.3991 30.2393 97.5642 30.0742 96.8214 29.7441C96.0851 29.4076 95.501 28.9126 95.0693 28.2585C94.644 27.6047 94.4313 26.7984 94.4313 25.84C94.4313 25.0145 94.5837 24.332 94.8885 23.7926C95.1931 23.2529 95.6089 22.8212 96.1359 22.4974C96.6628 22.1737 97.2563 21.9293 97.9166 21.7642C98.5832 21.5928 99.272 21.469 99.983 21.3928C100.84 21.304 101.535 21.2246 102.069 21.1548C102.602 21.0786 102.989 20.9643 103.23 20.8119C103.478 20.6532 103.602 20.4088 103.602 20.0787V20.0216C103.602 19.3042 103.389 18.7487 102.964 18.3551C102.538 17.9615 101.926 17.7647 101.126 17.7647C100.281 17.7647 99.6116 17.9488 99.1164 18.317C98.798 18.5569 98.547 18.825 98.3633 19.1214C98.1937 19.395 97.8956 19.5889 97.577 19.5436L95.6693 19.2727C95.2666 19.2155 95.0036 18.8134 95.1649 18.4401C95.4136 17.8642 95.7468 17.3629 96.1645 16.9362C96.7486 16.3331 97.4628 15.8824 98.307 15.584C99.1515 15.2793 100.085 15.127 101.107 15.127C101.811 15.127 102.513 15.2095 103.211 15.3746C103.909 15.5396 104.547 15.8126 105.125 16.1935C105.703 16.568 106.166 17.0791 106.516 17.7266C106.871 18.3742 107.049 19.1836 107.049 20.1549V29.2737C107.049 29.644 106.749 29.9441 106.378 29.9441H104.405C104.035 29.9441 103.735 29.644 103.735 29.2737V28.0058C103.735 27.9667 103.703 27.935 103.664 27.935C103.637 27.935 103.613 27.9497 103.601 27.9732C103.392 28.3651 103.104 28.7332 102.735 29.0775C102.36 29.4268 101.888 29.7093 101.316 29.9251C100.751 30.1345 100.088 30.2393 99.326 30.2393ZM100.221 27.7063C100.913 27.7063 101.513 27.5698 102.021 27.2967C102.529 27.0174 102.919 26.6494 103.192 26.1922C103.472 25.7352 103.611 25.2369 103.611 24.6972V23.5823C103.611 23.3396 103.292 23.1531 103.059 23.2212C102.805 23.2974 102.519 23.364 102.202 23.4212C101.884 23.4782 101.57 23.5291 101.259 23.5736C100.948 23.6179 100.678 23.6561 100.45 23.6878C99.9354 23.7575 99.4751 23.8719 99.0688 24.0306C98.6626 24.1893 98.3419 24.4114 98.107 24.6972C97.8722 24.9765 97.7549 25.3383 97.7549 25.7828C97.7549 26.4176 97.9864 26.897 98.4498 27.2208C98.9133 27.5443 99.5037 27.7063 100.221 27.7063Z" fill="white"/>
<path d="M110.113 29.9441C109.743 29.9441 109.442 29.644 109.442 29.2737V15.9878C109.442 15.6175 109.743 15.3174 110.113 15.3174H112.114C112.485 15.3174 112.785 15.6175 112.785 15.9878V17.6673C112.785 17.7158 112.824 17.7552 112.873 17.7552C112.911 17.7552 112.945 17.7302 112.957 17.6938C113.226 16.8793 113.677 16.249 114.308 15.8031C114.962 15.3396 115.708 15.1079 116.546 15.1079C116.737 15.1079 116.949 15.1174 117.184 15.1365C117.203 15.1374 117.221 15.1385 117.239 15.1396C117.558 15.1587 117.784 15.4332 117.784 15.7527V17.6652C117.784 18.012 117.433 18.2822 117.089 18.2408C116.778 18.1964 116.476 18.1742 116.184 18.1742C115.556 18.1742 114.991 18.3107 114.489 18.5836C113.994 18.8503 113.604 19.2217 113.318 19.6978C113.032 20.1739 112.89 20.7231 112.89 21.3452V29.2737C112.89 29.644 112.589 29.9441 112.219 29.9441H110.113Z" fill="white"/>
<path d="M122.003 25.4128C121.503 25.9319 120.648 25.4043 120.888 24.7245L122.022 21.512C122.09 21.3208 122.27 21.1929 122.473 21.1929C122.609 21.1929 122.739 21.1349 122.83 21.0335L127.744 15.5409C127.871 15.3987 128.052 15.3175 128.243 15.3175H130.468C131.048 15.3175 131.355 16.0042 130.967 16.4358L125.705 22.2941C125.578 22.4358 125.397 22.5165 125.207 22.5165H125.077C124.895 22.5165 124.72 22.5907 124.594 22.7221L122.003 25.4128ZM119.672 29.9442C119.302 29.9442 119.002 29.6441 119.002 29.2738V11.1123C119.002 10.742 119.302 10.4419 119.672 10.4419H121.779C122.149 10.4419 122.449 10.742 122.449 11.1123V29.2738C122.449 29.6441 122.149 29.9442 121.779 29.9442H119.672ZM128.526 29.9442C128.31 29.9442 128.107 29.8398 127.981 29.6637L123.743 23.7399C123.556 23.4778 123.582 23.1191 123.804 22.8863L125.187 21.4412C125.477 21.1386 125.97 21.1727 126.215 21.5122L131.537 28.8814C131.857 29.3247 131.541 29.9442 130.994 29.9442H128.526Z" fill="white"/>
<path d="M133.867 35.429C133.496 35.429 133.196 35.1289 133.196 34.7586V15.9878C133.196 15.6175 133.496 15.3174 133.867 15.3174H135.916C136.286 15.3174 136.586 15.6175 136.586 15.9878V17.6126C136.586 17.6808 136.642 17.7361 136.71 17.7361C136.757 17.7361 136.799 17.7096 136.821 17.6681C136.996 17.3326 137.235 16.9775 137.539 16.603C137.862 16.1967 138.3 15.8507 138.853 15.565C139.405 15.273 140.11 15.127 140.967 15.127C142.097 15.127 143.116 15.4158 144.023 15.9935C144.938 16.5649 145.661 17.4124 146.195 18.536C146.734 19.6534 147.004 21.0246 147.004 22.6498C147.004 24.2558 146.741 25.6208 146.214 26.7446C145.687 27.8681 144.969 28.7251 144.061 29.3157C143.154 29.9061 142.125 30.2013 140.976 30.2013C140.138 30.2013 139.443 30.0617 138.891 29.7823C138.339 29.503 137.894 29.1665 137.558 28.7729C137.242 28.3908 136.993 28.029 136.811 27.6874C136.796 27.6581 136.765 27.6398 136.732 27.6398C136.683 27.6398 136.643 27.6793 136.643 27.7285V34.7586C136.643 35.1289 136.343 35.429 135.973 35.429H133.867ZM136.577 22.6308C136.577 23.5767 136.71 24.4051 136.977 25.1162C137.25 25.8272 137.64 26.3828 138.148 26.7826C138.662 27.1763 139.284 27.3729 140.014 27.3729C140.776 27.3729 141.414 27.1698 141.928 26.7636C142.443 26.3508 142.83 25.789 143.09 25.078C143.357 24.3607 143.49 23.545 143.49 22.6308C143.49 21.723 143.36 20.9167 143.1 20.212C142.84 19.5074 142.452 18.955 141.938 18.5551C141.424 18.1551 140.783 17.9552 140.014 17.9552C139.278 17.9552 138.653 18.1488 138.139 18.536C137.624 18.9233 137.234 19.4661 136.967 20.1644C136.707 20.8627 136.577 21.6849 136.577 22.6308Z" fill="white"/>
<path d="M149.554 29.9441C149.183 29.9441 148.883 29.644 148.883 29.2737V15.9878C148.883 15.6175 149.183 15.3174 149.554 15.3174H151.556C151.926 15.3174 152.226 15.6175 152.226 15.9878V17.6673C152.226 17.7158 152.265 17.7552 152.314 17.7552C152.352 17.7552 152.386 17.7302 152.398 17.6938C152.667 16.8793 153.118 16.249 153.75 15.8031C154.403 15.3396 155.149 15.1079 155.987 15.1079C156.178 15.1079 156.39 15.1174 156.625 15.1365C156.644 15.1374 156.662 15.1385 156.68 15.1396C156.999 15.1587 157.225 15.4332 157.225 15.7527V17.6652C157.225 18.012 156.874 18.2822 156.53 18.2408C156.219 18.1964 155.918 18.1742 155.625 18.1742C154.997 18.1742 154.432 18.3107 153.93 18.5836C153.435 18.8503 153.045 19.2217 152.759 19.6978C152.474 20.1739 152.331 20.7231 152.331 21.3452V29.2737C152.331 29.644 152.03 29.9441 151.66 29.9441H149.554Z" fill="white"/>
<path d="M164.221 30.2297C162.792 30.2297 161.554 29.9155 160.507 29.2871C159.459 28.6585 158.647 27.7794 158.069 26.6494C157.498 25.5193 157.212 24.1989 157.212 22.6878C157.212 21.177 157.498 19.8533 158.069 18.717C158.647 17.5806 159.459 16.6982 160.507 16.0697C161.554 15.4412 162.792 15.127 164.221 15.127C165.649 15.127 166.887 15.4412 167.935 16.0697C168.982 16.6982 169.791 17.5806 170.363 18.717C170.94 19.8533 171.229 21.177 171.229 22.6878C171.229 24.1989 170.94 25.5193 170.363 26.6494C169.791 27.7794 168.982 28.6585 167.935 29.2871C166.887 29.9155 165.649 30.2297 164.221 30.2297ZM164.24 27.4681C165.014 27.4681 165.662 27.2556 166.182 26.8301C166.703 26.3986 167.09 25.8208 167.344 25.0972C167.604 24.3734 167.734 23.5671 167.734 22.6784C167.734 21.7832 167.604 20.9738 167.344 20.2501C167.09 19.52 166.703 18.9392 166.182 18.5075C165.662 18.0758 165.014 17.8599 164.24 17.8599C163.446 17.8599 162.786 18.0758 162.259 18.5075C161.738 18.9392 161.348 19.52 161.088 20.2501C160.834 20.9738 160.707 21.7832 160.707 22.6784C160.707 23.5671 160.834 24.3734 161.088 25.0972C161.348 25.8208 161.738 26.3986 162.259 26.8301C162.786 27.2556 163.446 27.4681 164.24 27.4681Z" fill="white"/>
<path d="M173.753 29.9441C173.383 29.9441 173.082 29.644 173.082 29.2737V15.9878C173.082 15.6175 173.383 15.3174 173.753 15.3174H175.707C176.077 15.3174 176.377 15.6175 176.377 15.9878V17.702C176.377 17.7577 176.422 17.8028 176.478 17.8028C176.52 17.8028 176.558 17.7762 176.573 17.7366C176.88 16.9303 177.377 16.2985 178.063 15.8411C178.767 15.365 179.608 15.127 180.586 15.127C181.577 15.127 182.411 15.3682 183.091 15.8507C183.756 16.3125 184.229 16.9385 184.512 17.7288C184.528 17.7729 184.57 17.8028 184.617 17.8028C184.661 17.8028 184.701 17.7755 184.718 17.7342C185.045 16.9537 185.582 16.329 186.328 15.8602C187.103 15.3714 188.02 15.127 189.08 15.127C190.426 15.127 191.524 15.5523 192.375 16.403C193.226 17.2537 193.651 18.4948 193.651 20.1263V29.2737C193.651 29.644 193.351 29.9441 192.981 29.9441H190.865C190.495 29.9441 190.195 29.644 190.195 29.2737V20.6596C190.195 19.7518 189.953 19.0884 189.471 18.6694C188.988 18.244 188.398 18.0314 187.7 18.0314C186.868 18.0314 186.217 18.2916 185.747 18.8122C185.284 19.3264 185.052 19.9962 185.052 20.8215V29.2737C185.052 29.644 184.752 29.9441 184.382 29.9441H182.342C181.972 29.9441 181.672 29.644 181.672 29.2737V20.5167C181.672 19.7613 181.443 19.1582 180.986 18.7074C180.535 18.2567 179.945 18.0314 179.215 18.0314C178.72 18.0314 178.269 18.1583 177.863 18.4122C177.457 18.6598 177.133 19.0122 176.891 19.4693C176.65 19.92 176.53 20.4469 176.53 21.05V29.2737C176.53 29.644 176.229 29.9441 175.859 29.9441H173.753Z" fill="white"/>
<path d="M196.746 35.429C196.376 35.429 196.076 35.1289 196.076 34.7586V15.9878C196.076 15.6175 196.376 15.3174 196.746 15.3174H198.796C199.166 15.3174 199.466 15.6175 199.466 15.9878V17.6126C199.466 17.6808 199.521 17.7361 199.589 17.7361C199.636 17.7361 199.679 17.7096 199.701 17.6681C199.876 17.3326 200.115 16.9775 200.418 16.603C200.742 16.1967 201.18 15.8507 201.732 15.565C202.284 15.273 202.989 15.127 203.846 15.127C204.976 15.127 205.995 15.4158 206.903 15.9935C207.817 16.5649 208.541 17.4124 209.074 18.536C209.614 19.6534 209.884 21.0246 209.884 22.6498C209.884 24.2558 209.62 25.6208 209.093 26.7446C208.566 27.8681 207.849 28.7251 206.941 29.3157C206.033 29.9061 205.005 30.2013 203.856 30.2013C203.018 30.2013 202.323 30.0617 201.77 29.7823C201.218 29.503 200.774 29.1665 200.437 28.7729C200.122 28.3908 199.873 28.029 199.691 27.6874C199.675 27.6581 199.645 27.6398 199.612 27.6398C199.563 27.6398 199.523 27.6793 199.523 27.7285V34.7586C199.523 35.1289 199.223 35.429 198.852 35.429H196.746ZM199.456 22.6308C199.456 23.5767 199.59 24.4051 199.856 25.1162C200.129 25.8272 200.52 26.3828 201.027 26.7826C201.542 27.1763 202.164 27.3729 202.894 27.3729C203.656 27.3729 204.294 27.1698 204.808 26.7636C205.322 26.3508 205.709 25.789 205.97 25.078C206.236 24.3607 206.37 23.545 206.37 22.6308C206.37 21.723 206.24 20.9167 205.979 20.212C205.719 19.5074 205.332 18.955 204.817 18.5551C204.303 18.1551 203.662 17.9552 202.894 17.9552C202.158 17.9552 201.532 18.1488 201.018 18.536C200.504 18.9233 200.113 19.4661 199.847 20.1644C199.586 20.8627 199.456 21.6849 199.456 22.6308Z" fill="white"/>
<path d="M218.396 15.3175C218.767 15.3175 219.067 15.6177 219.067 15.9879V17.3135C219.067 17.6837 218.767 17.9839 218.396 17.9839H211.329C210.958 17.9839 210.658 17.6837 210.658 17.3135V15.9879C210.658 15.6177 210.958 15.3175 211.329 15.3175H218.396ZM212.734 12.4836C212.734 12.1134 213.034 11.8132 213.405 11.8132H215.511C215.881 11.8132 216.181 12.1134 216.181 12.4836V25.5449C216.181 26.0082 216.251 26.3637 216.391 26.6113C216.537 26.8526 216.727 27.0175 216.962 27.1065C217.197 27.1954 217.457 27.2399 217.743 27.2399C217.959 27.2399 218.156 27.224 218.334 27.1923C218.563 27.1527 218.794 27.2971 218.843 27.5248L219.208 29.2202C219.28 29.5518 219.091 29.8821 218.761 29.9608C218.692 29.9771 218.62 29.9939 218.543 30.0108C218.206 30.087 217.794 30.1315 217.305 30.1442C216.442 30.1697 215.664 30.0394 214.972 29.7539C214.28 29.4618 213.731 29.0111 213.325 28.4017C212.925 27.7921 212.728 27.0303 212.734 26.1161V12.4836Z" fill="white"/>
</g>
<mask id="mask1_21_32" style="mask-type:luminance" maskUnits="userSpaceOnUse" x="0" y="0" width="57" height="40">
<path d="M56.4103 0H0V40H56.4103V0Z" fill="white"/>
</mask>
<g mask="url(#mask1_21_32)">
<path fill-rule="evenodd" clip-rule="evenodd" d="M15.9608 5.79404e-08H40.4495C43.031 -4.7412e-06 45.0318 -8.55862e-06 46.6346 0.131202C48.2592 0.264192 49.5659 0.5371 50.7367 1.1347C52.6918 2.13281 54.2815 3.72544 55.2777 5.68433C55.8741 6.85721 56.1467 8.16626 56.2792 9.79397C56.4103 11.3999 56.4103 13.4043 56.4103 15.9907V24.0093C56.4103 26.5956 56.4103 28.6 56.2792 30.2062C56.1467 31.8338 55.8741 33.1428 55.2777 34.3156C54.2815 36.2746 52.6918 37.8672 50.7367 38.8654C49.5659 39.4628 48.2592 39.7359 46.6346 39.8687C45.0318 40 43.031 40 40.4495 40H15.9607C13.3792 40 11.3785 40 9.77562 39.8687C8.15095 39.7359 6.84436 39.4628 5.67369 38.8654C3.71846 37.8672 2.12881 36.2746 1.13257 34.3156C0.536095 33.1428 0.263697 31.8338 0.130956 30.2062C-8.54333e-06 28.6 -4.73231e-06 26.5956 5.78316e-08 24.0093V15.9907C-4.73231e-06 13.4043 -8.54333e-06 11.3999 0.130956 9.79397C0.263697 8.16626 0.536095 6.85721 1.13257 5.68433C2.12881 3.72544 3.71846 2.13281 5.67369 1.1347C6.84436 0.5371 8.15095 0.264192 9.77562 0.131202C11.3785 -8.55862e-06 13.3792 -4.7412e-06 15.9608 5.79404e-08ZM9.94341 2.18886C8.44618 2.31142 7.44095 2.54961 6.6092 2.97421C5.04172 3.77438 3.76731 5.05118 2.96862 6.62162C2.54483 7.45492 2.30709 8.46205 2.18476 9.96208C2.06145 11.4742 2.06065 13.3945 2.06065 16.0378V23.9622C2.06065 26.6054 2.06145 28.5259 2.18476 30.038C2.30709 31.538 2.54483 32.5451 2.96862 33.3785C3.76731 34.9487 5.04172 36.2256 6.6092 37.0259C7.44095 37.4505 8.44618 37.6885 9.94341 37.811C11.4527 37.9346 13.3694 37.9354 16.0077 37.9354H40.4026C43.0408 37.9354 44.9577 37.9346 46.4669 37.811C47.9641 37.6885 48.9692 37.4505 49.801 37.0259C51.3685 36.2256 52.6431 34.9487 53.4415 33.3785C53.8654 32.5451 54.1031 31.538 54.2254 30.038C54.3487 28.5259 54.3495 26.6054 54.3495 23.9622V16.0378C54.3495 13.3945 54.3487 11.4742 54.2254 9.96208C54.1031 8.46205 53.8654 7.45492 53.4415 6.62162C52.6431 5.05118 51.3685 3.77438 49.801 2.97421C48.9692 2.54961 47.9641 2.31142 46.4669 2.18886C44.9577 2.06532 43.0408 2.06452 40.4026 2.06452H16.0077C13.3694 2.06452 11.4527 2.06532 9.94341 2.18886Z" fill="white"/>
<path d="M41.1923 10.5274C41.1923 9.6697 41.8877 8.97437 42.7454 8.97437H45.8516C46.7092 8.97437 47.4046 9.6697 47.4046 10.5274V18.2927C47.4046 19.1504 46.7092 19.8458 45.8516 19.8458H42.7454C41.8877 19.8458 41.1923 19.1504 41.1923 18.2927V10.5274Z" fill="white"/>
<path d="M48.0259 26.3683C48.0259 28.4271 46.3572 30.0958 44.2985 30.0958C42.24 30.0958 40.5713 28.4271 40.5713 26.3683C40.5713 24.3099 42.24 22.6411 44.2985 22.6411C46.3572 22.6411 48.0259 24.3099 48.0259 26.3683Z" fill="white"/>
<path d="M10.4419 30.0959C9.58419 30.0959 8.88885 29.4005 8.88885 28.5428V10.5274C8.88885 9.6697 9.58419 8.97437 10.4419 8.97437H14.3546C14.8264 8.97437 15.2726 9.18883 15.5674 9.55724L20.1006 15.2237C20.7223 16.0009 21.9043 16.0009 22.526 15.2237L27.0592 9.55724C27.3538 9.18883 27.8002 8.97437 28.272 8.97437H32.1846C33.0423 8.97437 33.7377 9.6697 33.7377 10.5274V28.5428C33.7377 29.4005 33.0423 30.0959 32.1846 30.0959H29.0784C28.2208 30.0959 27.5256 29.4005 27.5256 28.5428V22.4095C27.5256 20.9414 25.6769 20.2929 24.7597 21.4393L22.526 24.2314C21.9043 25.0086 20.7223 25.0086 20.1006 24.2314L17.8669 21.4393C16.9498 20.2929 15.1011 20.9414 15.1011 22.4095V28.5428C15.1011 29.4005 14.4058 30.0959 13.548 30.0959H10.4419Z" fill="white"/>
</g>
</g>
<defs>
<clipPath id="clip0_21_32">
<rect width="219.441" height="40" fill="white"/>
</clipPath>
</defs>
</svg>
