<svg fill="none" height="40" viewBox="0 0 107 40" width="107" xmlns="http://www.w3.org/2000/svg"><g fill="#fff"><path d="m28.0993 8.02494c-1.0912-.60973-2.4362-.91509-4.0351-.91607-.6111.00324-1.2202.07089-1.8173.20185-.6403.13803-1.2618.35326-1.851.64103-.6029.29096-1.1653.66034-1.6728 1.0987-.3618.31495-.684.67323-.9596 1.06695-.2693-.52999-.6202-1.01361-1.0396-1.43294-.5725-.56604-1.2703-.98673-2.0359-1.22735-.778-.23604-1.5867-.35342-2.3991-.34824-.5366.00333-1.0719.0528-1.6001.14787-.5648.10048-1.11454.27291-1.63611.51312-.54484.25193-1.05246.57862-1.50842.97079-.19377.16665-.37476.34782-.54144.54196l-.16728-1.76931h-6.83555v19.5999h7.37993v-11.651c-.00562-.315.05645-.6275.18195-.916.12201-.2701.28789-.5177.49082-.7327.21173-.2237.47329-.3932.76301-.4947.3213-.1131.65969-.1689.99999-.1649.4131-.0114.8214.0909 1.1812.2958.3286.1967.5889.4908.7454.8421.1697.3668.2546.8188.2546 1.356v11.4676h7.3799v-11.6532c-.0056-.315.0565-.6275.182-.916.122-.2701.2879-.5177.4908-.7327.2119-.2238.4737-.3934.7637-.4947.3211-.1131.6592-.1689.9993-.1649.4133-.0111.8218.0911 1.1819.2958.3284.1967.5884.4908.7447.8421.1692.3668.2541.8188.2546 1.356v11.4676h7.3799v-12.0931c0-1.6847-.2727-3.1196-.818-4.3046-.5454-1.18494-1.3642-2.08253-2.4564-2.69276z"/><path d="m78.1184 12.0517c-.7274-1.5389-1.7271-2.74798-2.9993-3.62734-1.2721-.87935-2.7324-1.31829-4.3807-1.31682-.7998-.00331-1.5956.11407-2.3609.34825-.7261.21971-1.4132.55358-2.0359.98927-.2685.1898-.5235.39832-.7631.62403v-9.06909h-7.4188v27.1119h6.6529l.2443-1.8196c.3551.3751.7559.7033 1.193.9767.6606.4091 1.3776.7178 2.1276.9161.83.2237 1.6859.3346 2.5451.3297 1.5994 0 3.0232-.4335 4.2714-1.3005s2.2286-2.0636 2.9412-3.5896c.7146-1.5281 1.0719-3.2927 1.0719-5.2939.001-1.9795-.3619-3.7392-1.0887-5.2791zm-6.526 7.5127c-.2548.6107-.6243 1.081-1.1086 1.4107-.4842.3298-1.078.4947-1.7813.4947s-1.3032-.1649-1.7997-.4947c-.5086-.3444-.9016-.8364-1.1269-1.4107-.2543-.6107-.3815-1.3557-.3815-2.2351 0-.8793.1272-1.6303.3815-2.2528.2548-.6236.6305-1.0938 1.1269-1.4108.4965-.3169 1.0964-.4756 1.7997-.4761.7028 0 1.2966.1587 1.7813.4761.4847.3175.8543.7877 1.1086 1.4108.2543.6225.3818 1.3735.3822 2.2528.0005.8794-.1269 1.6244-.3822 2.2351z"/><path d="m44.621 7.1087c-6.0036 0-10.8729 4.5782-10.8729 10.2255s4.8664 10.2254 10.8699 10.2254c6.0036 0 10.87-4.5781 10.87-10.2254s-4.8657-10.2255-10.867-10.2255zm0 14.3681c-2.4321 0-4.402-1.855-4.402-4.1404s1.9713-4.1405 4.402-4.1405c2.4306 0 4.4019 1.8551 4.4019 4.1405s-1.9698 4.1404-4.4019 4.1404z"/><path d="m104.55 32.4006c-1.687-1.736-3.793-2.5545-6.1625-2.6292-2.22-.0695-4.4431-.0222-6.6653-.0295-.208.0016-.4158-.0135-.6214-.0451-.7396-.125-1.1497-.63-1.0396-1.2651.0528-.338.2203-.6472.4739-.8747.0691-.0563.1495-.0969.2355-.1191.0861-.0222.176-.0255.2634-.0095.5679.0848 1.1412.1273 1.7153.1271 6.0036 0 10.8697-4.5781 10.8697-10.2254-.003-1.8763-.547-3.7112-1.567-5.2813-.047-.072-.076-.1545-.084-.2403-.009-.0859.003-.1725.035-.2525.032-.0799.083-.1509.148-.2067.066-.0559.143-.0949.227-.1138.145-.0294.292-.0448.44-.0459.562-.0066-2.61-.8036-2.046-.8036l-.52-.51946c-1.2777.08059 0 .51946-1.558-.51944-2.1173.38373 1.0389 0-2.5111-1.87797-.0158.03835-.045.06951-.0821.08752-.037.018-.0794.02159-.119.01008-1.053-.30802-2.1441-.46385-3.2406-.46284-6.0028 0-10.8699 4.57821-10.8699 10.22541 0 2.749 1.1533 5.2444 3.0293 7.0817.0156.0143.0278.0319.0358.0516s.0116.0409.0105.0621-.0069.042-.017.0607c-.01.0186-.024.0349-.0411.0474-.1467.1124-.2934.2263-.4262.349-1.507 1.3774-2.2744 3.1268-2.4028 5.1386-.1687 2.576.7337 4.6736 2.9398 6.1065 1.3081.8487 2.7718 1.2325 4.3081 1.2628 2.2443.0444 4.49.014 6.735.0266.3235-.0026.6461.0319.9619.1028.9677.2314 1.5539.865 1.7945 1.8587l8.2009-2.3179c-.409-1.8262-1.164-3.4365-2.45-4.7593zm-16.2071-15.0705c0-2.2876 1.9714-4.1405 4.402-4.1405s4.402 1.8551 4.402 4.1405-1.9714 4.1404-4.402 4.1404-4.402-1.8528-4.402-4.1404z"/><path d="m96.097 3.11334h8.311v8.31116h-8.311z"/></g></svg>