<svg width="318" height="40" viewBox="0 0 318 40" fill="none" xmlns="http://www.w3.org/2000/svg">
<g clip-path="url(#clip0_391_351)">
<path d="M60.5062 18.388C60.5062 13.8337 57.5568 11.5349 54.3906 11.5349C51.181 11.5349 48.2748 13.8337 48.2748 18.388C48.2748 22.8988 51.2242 25.241 54.3906 25.241C57.5568 25.241 60.5062 22.9422 60.5062 18.388ZM67.0122 18.388C67.0122 25.8048 61.5472 31.1832 54.3472 31.1832C47.1472 31.1832 41.6822 25.7614 41.6822 18.388C41.6822 10.9277 47.1472 5.59277 54.3472 5.59277C61.5906 5.59277 67.0122 10.9277 67.0122 18.388Z" fill="white"/>
<path d="M79.2432 6.28674H84.101V12.0988H79.2432V22.2048C79.2432 24.3302 80.2408 25.024 82.1058 25.024C82.8866 25.024 83.754 24.9374 84.101 24.8072V30.229C83.4938 30.4892 82.3228 30.8362 80.4142 30.8362C75.6866 30.8362 72.7372 28.0168 72.7372 23.376V12.1422H68.3564V6.33012H69.5708C72.13 6.33012 73.301 4.68194 73.301 2.51326V-1H79.1998V6.28674H79.2432Z" fill="white"/>
<path d="M105.701 18.388C105.701 13.8337 102.752 11.5349 99.5854 11.5349C96.3758 11.5349 93.4698 13.8337 93.4698 18.388C93.4698 22.8988 96.4192 25.241 99.5854 25.241C102.795 25.241 105.701 22.9422 105.701 18.388ZM112.251 18.388C112.251 25.8048 106.785 31.1832 99.5854 31.1832C92.3854 31.1832 86.9204 25.7614 86.9204 18.388C86.9204 10.9277 92.3854 5.59277 99.5854 5.59277C106.785 5.59277 112.251 10.9277 112.251 18.388Z" fill="white"/>
<path d="M130.294 12.7928C129.557 12.6627 128.906 12.5759 128.342 12.5759C125.002 12.5759 122.096 14.1808 122.096 19.3856V30.7928H115.547V6.28678H121.879V9.88678C123.354 6.67714 126.694 6.11328 128.732 6.11328C129.253 6.11328 129.773 6.15666 130.25 6.20004V12.7928H130.294Z" fill="white"/>
<path d="M138.361 22.508C138.491 24.4164 139.923 26.1948 142.785 26.1948C144.954 26.1948 145.995 25.067 145.995 23.8092C145.995 22.725 145.258 21.8574 143.393 21.467L140.183 20.7298C135.499 19.6888 133.417 16.9129 133.417 13.5297C133.417 9.19238 137.233 5.63574 142.438 5.63574C149.291 5.63574 151.634 10.0165 151.894 12.6189L146.429 13.8333C146.212 12.402 145.214 10.5803 142.438 10.5803C140.703 10.5803 139.359 11.6213 139.359 12.9659C139.359 14.137 140.226 14.8743 141.571 15.1345L144.997 15.8719C149.768 16.8695 152.154 19.7321 152.154 23.2888C152.154 27.2358 149.118 31.2262 142.785 31.2262C135.499 31.2262 133.026 26.4984 132.723 23.7658L138.361 22.508Z" fill="white"/>
<path d="M159.397 22.8115C161.653 22.8115 163.431 24.6331 163.431 26.8885C163.431 29.0573 161.653 30.8789 159.397 30.8789C157.185 30.8789 155.364 29.0573 155.364 26.8885C155.364 24.6331 157.185 22.8115 159.397 22.8115Z" fill="#CCCCCC"/>
<path d="M6.54924 14.5279C6.54924 14.1809 6.54924 13.834 6.59262 13.487C6.72274 12.8364 7.06972 12.2725 7.5902 11.9689C7.89382 11.7954 8.24082 11.7087 8.63118 11.7087C8.89142 11.7087 9.15166 11.752 9.4119 11.8388C10.2794 12.1424 10.7565 12.9665 10.7565 14.181V21.8146C10.7565 23.593 11.1468 25.1544 11.9276 26.5424C13.2288 28.8412 15.6577 30.4026 18.4336 30.7062C18.7372 30.7496 19.0408 30.7496 19.3444 30.7496C21.8168 30.7496 24.0722 29.752 25.6336 27.9738C27.1082 26.2388 27.8456 24.2436 27.8456 21.858V14.4412C27.8456 14.0942 27.8456 13.7472 27.9324 13.4002C28.0624 12.7496 28.4528 12.2291 28.9734 11.9255C29.4938 11.6219 30.1444 11.5785 30.795 11.7954C31.6626 12.099 32.1396 12.9231 32.1396 14.2243V30.7496H38.5588V26.0652C38.5588 22.3786 38.5588 19.9063 38.5588 13.7906C38.5588 12.2725 38.1686 10.7978 37.3878 9.40986C36.0866 7.11108 33.701 5.54962 30.9252 5.246C28.1492 4.9424 25.46 5.93998 23.7252 7.93516C22.207 9.6701 21.4698 11.6653 21.4698 14.0942V21.511C21.4698 21.8146 21.4698 22.1616 21.4264 22.4652C21.2962 23.1158 20.9492 23.6798 20.4288 23.9834C19.9083 24.287 19.2577 24.3304 18.6071 24.1568C17.6962 23.8532 17.2191 23.0292 17.2191 21.7714V14.1376C17.2191 12.3159 16.7854 10.7544 15.9613 9.27976C13.836 5.593 8.63118 4.1183 4.90106 6.11348C1.77816 7.80504 0.17334 10.4942 0.17334 14.1376C0.17334 19.6894 0.17334 21.4244 0.17334 23.8966V30.793H6.59262L6.54924 14.5279Z" fill="white"/>
<path d="M168.506 30.7928V6.76388H174.622V9.71328C175.923 7.37112 178.959 6.11328 181.561 6.11328C184.771 6.11328 187.373 7.54462 188.588 10.1036C190.453 7.15426 192.968 6.11328 196.091 6.11328C200.472 6.11328 204.68 8.80244 204.68 15.2651V30.8362H198.477V16.5663C198.477 13.9639 197.219 12.0121 194.27 12.0121C191.537 12.0121 189.889 14.1808 189.889 16.7398V30.7928H183.513V16.5229C183.513 13.9205 182.212 11.9687 179.306 11.9687C176.53 11.9687 174.882 14.0506 174.882 16.6964V30.7494H168.506V30.7928Z" fill="white"/>
<path d="M234.304 18.7782C234.304 26.1516 228.968 31.53 221.856 31.53C214.742 31.53 209.408 26.1516 209.408 18.7782C209.408 11.3613 214.742 6.02637 221.856 6.02637C228.968 6.02637 234.304 11.3613 234.304 18.7782ZM227.884 18.7782C227.884 14.224 224.978 11.9252 221.856 11.9252C218.732 11.9252 215.826 14.224 215.826 18.7782C215.826 23.289 218.732 25.6312 221.856 25.6312C224.978 25.6312 227.884 23.3324 227.884 18.7782Z" fill="white"/>
<path d="M245.754 30.7924H239.334V6.76349H245.538V9.75625C246.968 7.28397 249.832 6.15625 252.39 6.15625C258.29 6.15625 260.978 10.4069 260.978 15.6984V30.8358H254.602V16.7828C254.602 14.0936 253.302 12.0117 250.222 12.0117C247.446 12.0117 245.798 14.2237 245.798 16.9996V30.7924H245.754Z" fill="white"/>
<path d="M288.78 23.9396C287.566 28.06 283.792 31.53 277.98 31.53C271.474 31.53 265.75 26.8022 265.75 18.6914C265.75 11.0143 271.344 6.02637 277.416 6.02637C284.748 6.02637 289.128 10.7541 289.128 18.4746C289.128 19.3854 289.042 20.383 289.042 20.4698H272.082C272.212 23.636 274.858 25.9348 278.068 25.9348C281.06 25.9348 282.708 24.4168 283.446 22.2914L288.78 23.9396ZM282.796 16.0456C282.708 13.6601 281.148 11.3179 277.504 11.3179C274.164 11.3179 272.342 13.877 272.212 16.0456H282.796Z" fill="white"/>
<path d="M295.2 40.292L300.796 27.8004L290.732 6.80762H297.932L304.264 20.8606L310.078 6.80762H316.93L302.052 40.292H295.2Z" fill="white"/>
</g>
<defs>
<clipPath id="clip0_391_351">
<rect width="318" height="40" fill="white"/>
</clipPath>
</defs>
</svg>
