<svg width="118" height="40" viewBox="0 0 118 40" fill="none" xmlns="http://www.w3.org/2000/svg">
<g clip-path="url(#clip0_414_2)">
<path d="M3.09979 39.349H0V0.487008H5.85987L11.7792 24.1727V0.478516H15.2611V39.349H9.69002L3.09979 16.1473V39.349Z" fill="white"/>
<path d="M57.0531 0.478516V39.349H69.5372V35.4424C69.5372 35.4424 65.9363 36.402 62.8111 36.402V20.0454C64.5491 20.0551 66.2848 20.1714 68.0085 20.3936V16.1727C66.2852 16.3989 64.5492 16.5153 62.8111 16.5209V3.26408C65.9448 3.26408 69.5542 4.36811 69.5542 4.36811V0.478516H57.0531Z" fill="white"/>
<path d="M17.6221 0.478516V39.349H30.1061V35.4424C30.1061 35.4424 26.5053 36.402 23.38 36.402V20.0454C25.118 20.0551 26.8537 20.1714 28.5775 20.3936V16.1727C26.8542 16.3989 25.1181 16.5153 23.38 16.5209V3.26408C26.5138 3.26408 30.1231 4.36811 30.1231 4.36811V0.478516H17.6221Z" fill="white"/>
<path d="M32.569 39.3405V0.478516H40.1698L44.0594 25.4127L47.0063 0.478516H54.6496V39.3575H49.1295V9.52307L45.0191 39.3575H40.5944L35.6688 9.57402V39.3405H32.569Z" fill="white"/>
<path d="M79.38 3.06016C83.4395 3.06016 82.1996 12.2661 82.1996 12.2661L88.2378 11.23C87.6518 0.775663 82.7091 -0.167012 79.2272 0.019824C75.7452 0.206661 71.1847 2.61006 71.5839 9.87117C71.983 17.1323 76.4926 18.8988 80.4416 24.7586C82.5223 27.8414 82.5223 36.971 79.7877 36.971C75.6858 36.971 76.8238 27.1026 76.8238 27.1026L70.2845 26.9158C70.7855 35.9688 75.1677 40.2236 80.0509 39.9518C84.9342 39.6801 88.3652 35.8924 87.9915 29.2257C87.5838 21.8542 84.8323 19.3149 80.7643 15.3489C76.0085 10.6949 76.3142 3.06016 79.38 3.06016Z" fill="white"/>
<path d="M108.306 3.06016C112.365 3.06016 111.125 12.2661 111.125 12.2661L117.163 11.23C116.578 0.775663 111.635 -0.167012 108.153 0.019824C104.671 0.206661 100.11 2.61006 100.51 9.87117C100.909 17.1323 105.418 18.8988 109.367 24.7586C111.448 27.8414 111.456 36.971 108.713 36.971C104.611 36.971 105.749 27.1026 105.749 27.1026L99.2102 26.9158C99.7113 35.9688 104.093 40.2236 108.977 39.9518C113.86 39.6801 117.291 35.8924 116.917 29.2257C116.51 21.8542 113.758 19.3149 109.69 15.3489C104.934 10.6949 105.24 3.06016 108.306 3.06016Z" fill="white"/>
<path d="M96.7813 0.478516H90.6412V39.3405H96.7813V0.478516Z" fill="white"/>
</g>
<defs>
<clipPath id="clip0_414_2">
<rect width="117.197" height="40" fill="white"/>
</clipPath>
</defs>
</svg>
