<?xml version="1.0" encoding="utf-8"?>
<!-- Generator: Adobe Illustrator 26.5.1, SVG Export Plug-In . SVG Version: 6.00 Build 0)  -->
<svg version="1.1" id="Warstwa_1" xmlns="http://www.w3.org/2000/svg" xmlns:xlink="http://www.w3.org/1999/xlink" x="0px" y="0px"
	 viewBox="0 0 81.6 24.5" style="enable-background:new 0 0 81.6 24.5;" xml:space="preserve">
<style type="text/css">
	.st0{fill:#FAFAFA;}
</style>
<g>
	<path class="st0" d="M27.1,11.3c-0.4-0.4-0.8-0.6-1.3-0.8c-0.5-0.2-1-0.3-1.5-0.3c-0.8,0-1.6,0.2-2.2,0.6c-0.6,0.4-1.1,0.9-1.5,1.6
		c-0.3,0.7-0.5,1.4-0.5,2.3c0,0.9,0.2,1.7,0.5,2.3c0.3,0.7,0.8,1.2,1.5,1.5c0.6,0.4,1.4,0.5,2.3,0.5c0.7,0,1.3-0.1,1.8-0.3
		c0.5-0.2,1-0.5,1.3-0.9c0.3-0.4,0.6-0.8,0.7-1.3l-1.9-0.2c-0.1,0.2-0.2,0.4-0.4,0.6c-0.2,0.2-0.4,0.3-0.6,0.4
		c-0.2,0.1-0.5,0.1-0.8,0.1c-0.5,0-0.8-0.1-1.2-0.3c-0.3-0.2-0.6-0.5-0.8-0.8c-0.2-0.3-0.3-0.8-0.3-1.2h6.1v-0.6
		c0-0.8-0.1-1.4-0.3-1.9C27.8,12.1,27.5,11.7,27.1,11.3z M22.2,13.9c0-0.3,0.1-0.6,0.3-0.9c0.2-0.3,0.4-0.6,0.8-0.8
		c0.3-0.2,0.7-0.3,1.1-0.3c0.4,0,0.7,0.1,1,0.3c0.3,0.2,0.5,0.4,0.7,0.7c0.2,0.3,0.3,0.6,0.3,1H22.2z"/>
	<path class="st0" d="M33.7,17.4c-0.1,0-0.2,0-0.4,0c-0.2,0-0.3,0-0.5-0.1c-0.1-0.1-0.3-0.1-0.3-0.3c-0.1-0.1-0.1-0.4-0.1-0.6V12
		h1.7v-1.6h-1.7v-2h-2.1v2h-1.3V12h1.3v4.8c0,0.5,0.1,1,0.4,1.3c0.2,0.4,0.6,0.6,1,0.8c0.4,0.2,0.9,0.2,1.4,0.2c0.3,0,0.5,0,0.7-0.1
		c0.2,0,0.4-0.1,0.5-0.1L34,17.3C33.9,17.3,33.9,17.3,33.7,17.4z"/>
	<path class="st0" d="M45.3,10.3c-0.6,0-1.2,0.1-1.7,0.4c-0.5,0.3-0.8,0.7-1,1.1h-0.1c-0.2-0.5-0.5-0.9-0.9-1.1
		c-0.4-0.3-0.9-0.4-1.5-0.4c-0.6,0-1.1,0.1-1.5,0.4c-0.4,0.3-0.7,0.7-0.9,1.1h-0.1v-1.5h-2V19h2.1v-5.2c0-0.4,0.1-0.7,0.2-0.9
		c0.1-0.3,0.3-0.5,0.6-0.6c0.2-0.1,0.5-0.2,0.8-0.2c0.4,0,0.8,0.1,1.1,0.4c0.3,0.3,0.4,0.6,0.4,1.1V19h2v-5.3c0-0.5,0.1-0.9,0.4-1.2
		c0.3-0.3,0.7-0.5,1.2-0.5c0.4,0,0.8,0.1,1.1,0.4c0.3,0.2,0.4,0.6,0.4,1.2V19H48v-5.7c0-1-0.3-1.7-0.8-2.2
		C46.7,10.6,46.1,10.3,45.3,10.3z"/>
	<path class="st0" d="M55.8,10.9c-0.3-0.2-0.7-0.4-1.2-0.5c-0.4-0.1-0.8-0.1-1.3-0.1c-0.6,0-1.2,0.1-1.7,0.3
		c-0.5,0.2-0.9,0.4-1.3,0.8c-0.4,0.3-0.6,0.8-0.8,1.3l1.9,0.3c0.1-0.3,0.3-0.5,0.6-0.8c0.3-0.2,0.7-0.3,1.2-0.3
		c0.5,0,0.9,0.1,1.1,0.3c0.3,0.2,0.4,0.6,0.4,1v0c0,0.2-0.1,0.3-0.2,0.4c-0.1,0.1-0.4,0.2-0.7,0.2c-0.3,0-0.7,0.1-1.3,0.1
		c-0.4,0-0.8,0.1-1.2,0.2c-0.4,0.1-0.8,0.2-1.1,0.4c-0.3,0.2-0.6,0.4-0.8,0.8c-0.2,0.3-0.3,0.7-0.3,1.2c0,0.6,0.1,1,0.4,1.4
		c0.3,0.4,0.6,0.7,1.1,0.9c0.4,0.2,1,0.3,1.5,0.3c0.5,0,0.9-0.1,1.2-0.2c0.3-0.1,0.6-0.3,0.9-0.5c0.2-0.2,0.4-0.4,0.5-0.7H55V19h2
		v-5.7c0-0.6-0.1-1-0.3-1.4C56.5,11.4,56.2,11.1,55.8,10.9z M54.9,15.9c0,0.3-0.1,0.6-0.3,0.9c-0.2,0.3-0.4,0.5-0.7,0.6
		c-0.3,0.2-0.7,0.2-1.1,0.2c-0.4,0-0.8-0.1-1.1-0.3c-0.3-0.2-0.4-0.5-0.4-0.8c0-0.3,0.1-0.5,0.2-0.6c0.1-0.2,0.3-0.3,0.6-0.4
		c0.2-0.1,0.5-0.2,0.8-0.2c0.1,0,0.3,0,0.5-0.1c0.2,0,0.4-0.1,0.6-0.1c0.2,0,0.4-0.1,0.5-0.1c0.2,0,0.3-0.1,0.3-0.1V15.9z"/>
	<polygon class="st0" points="66.6,10.4 64.2,10.4 61,13.9 60.8,13.9 60.8,7.6 58.8,7.6 58.8,19 60.8,19 60.8,16.1 61.6,15.3 
		64.3,19 66.8,19 63.2,14.1 	"/>
	<path class="st0" d="M73.9,11.3c-0.4-0.4-0.8-0.6-1.3-0.8c-0.5-0.2-1-0.3-1.5-0.3c-0.8,0-1.6,0.2-2.2,0.6c-0.6,0.4-1.1,0.9-1.5,1.6
		c-0.3,0.7-0.5,1.4-0.5,2.3c0,0.9,0.2,1.7,0.5,2.3c0.3,0.7,0.8,1.2,1.5,1.5c0.6,0.4,1.4,0.5,2.3,0.5c0.7,0,1.3-0.1,1.8-0.3
		c0.5-0.2,1-0.5,1.3-0.9c0.3-0.4,0.6-0.8,0.7-1.3l-1.9-0.2c-0.1,0.2-0.2,0.4-0.4,0.6c-0.2,0.2-0.4,0.3-0.6,0.4
		c-0.2,0.1-0.5,0.1-0.8,0.1c-0.5,0-0.8-0.1-1.2-0.3c-0.3-0.2-0.6-0.5-0.8-0.8c-0.2-0.3-0.3-0.8-0.3-1.2h6.1v-0.6
		c0-0.8-0.1-1.4-0.3-1.9C74.6,12.1,74.3,11.7,73.9,11.3z M69,13.9c0-0.3,0.1-0.6,0.3-0.9c0.2-0.3,0.4-0.6,0.8-0.8
		c0.3-0.2,0.7-0.3,1.1-0.3c0.4,0,0.7,0.1,1,0.3c0.3,0.2,0.5,0.4,0.7,0.7c0.2,0.3,0.3,0.6,0.3,1H69z"/>
	<path class="st0" d="M81.2,10.3c-0.1,0-0.3,0-0.4,0c-0.5,0-1,0.1-1.4,0.4c-0.4,0.3-0.7,0.6-0.8,1.1h-0.1v-1.4h-2V19h2.1v-5
		c0-0.4,0.1-0.7,0.3-1c0.2-0.3,0.4-0.5,0.7-0.7c0.3-0.2,0.6-0.2,1-0.2c0.2,0,0.4,0,0.5,0c0.2,0,0.3,0,0.4,0.1v-1.9
		C81.5,10.3,81.4,10.3,81.2,10.3z"/>
	<path class="st0" d="M20.4,5.3l-3.2-4.9c-0.2-0.4-0.7-0.5-1.1-0.2c-0.1,0.1-0.2,0.1-0.2,0.2c-4,5.9-4.4,6.3-0.9,6.2v9.4L6.3,4.1
		c-0.4-0.5-1-0.9-1.7-0.8c-1.2,0-2.1,0.9-2.1,2V18c-0.5,0-1.1,0-1.7,0C0.4,18,0,18.3,0,18.8c0,0.2,0,0.3,0.1,0.4l3.2,4.9
		c0.2,0.4,0.7,0.5,1.1,0.2c0.1-0.1,0.2-0.1,0.2-0.2c4-5.9,4.4-6.2,1-6.2V8.2l8.9,12.2c0.4,0.5,0.9,0.8,1.6,0.8
		c1.1,0,1.9-0.9,1.9-1.9V6.5c0.5,0,1.1,0,1.7,0c0.4,0,0.8-0.4,0.8-0.8C20.5,5.5,20.5,5.4,20.4,5.3z"/>
</g>
</svg>
