<?xml version="1.0" encoding="utf-8"?>
<!-- Generator: Adobe Illustrator 24.2.3, SVG Export Plug-In . SVG Version: 6.00 Build 0)  -->
<svg version="1.1" id="Capa_1" xmlns="http://www.w3.org/2000/svg" xmlns:xlink="http://www.w3.org/1999/xlink" x="0px" y="0px"
	 viewBox="0 0 748 160" style="enable-background:new 0 0 748 160;" xml:space="preserve">
<style type="text/css">
	.st0{fill:#FFFFFF;}
</style>
<g>
	<g>
		<path class="st0" d="M115.3,139.62L65.21,81.73v57.89H30.03V20.38h33.45l50.09,58.75V20.38h35.18v119.24H115.3z"/>
		<path class="st0" d="M281.34,34.07C292.54,44.59,298.15,59.9,298.15,80c0,20.1-5.61,35.42-16.81,45.93
			c-11.21,10.52-27.1,15.77-47.66,15.77c-20.57,0-36.43-5.23-47.58-15.69c-11.15-10.46-16.72-25.79-16.72-46.02
			c0-20.22,5.57-35.56,16.72-46.02c11.15-10.46,27.01-15.69,47.58-15.69C254.24,18.3,270.13,23.56,281.34,34.07z M214.96,54.35
			c-4.28,4.97-6.41,11.67-6.41,20.1v11.09c0,8.44,2.14,15.14,6.41,20.1c4.27,4.97,10.51,7.45,18.72,7.45c8.2,0,14.47-2.48,18.8-7.45
			c4.33-4.97,6.5-11.67,6.5-20.1V74.45c0-8.43-2.17-15.14-6.5-20.1c-4.33-4.97-10.6-7.45-18.8-7.45
			C225.47,46.9,219.23,49.38,214.96,54.35z"/>
		<path class="st0" d="M414.7,24.11c5.03,2.49,9.01,5.98,11.96,10.49c2.95,4.51,4.42,9.53,4.42,15.08
			c0,14.68-6.65,23.92-19.93,27.73v0.69c15.14,3.47,22.7,13.4,22.7,29.81c0,6.24-1.53,11.76-4.59,16.55
			c-3.06,4.8-7.25,8.52-12.57,11.18c-5.32,2.66-11.15,3.99-17.5,3.99h-80.42V20.38h79.38C404.16,20.38,409.68,21.62,414.7,24.11z
			 M357.08,66.83h26.34c2.54,0,4.65-0.89,6.33-2.69c1.67-1.79,2.51-4.01,2.51-6.67v-1.73c0-2.54-0.87-4.71-2.6-6.5
			c-1.73-1.79-3.81-2.69-6.24-2.69h-26.34V66.83z M357.08,111.89h29.12c2.54,0,4.65-0.89,6.33-2.69c1.67-1.79,2.51-4.01,2.51-6.67
			v-1.73c0-2.66-0.84-4.88-2.51-6.67c-1.68-1.79-3.79-2.69-6.33-2.69h-29.12V111.89z"/>
		<path class="st0" d="M717.97,139.62h-46.45l-22.01-37.09h-0.69l-22.01,37.09h-42.98l42.64-63.09l-38.48-56.15h46.28l18.03,30.5
			h0.69l18.2-30.5h42.81l-38.65,56.33L717.97,139.62z"/>
	</g>
	<path class="st0" d="M598.02,80.12l-42.46,42.46c-23.33,23.33-61.15,23.33-84.48,0l-0.22-0.22c-23.33-23.33-23.33-61.15,0-84.48
		l0.22-0.22c23.33-23.33,61.15-23.33,84.48,0L598.02,80.12z"/>
</g>
</svg>
