<svg width="217" height="40" viewBox="0 0 217 40" fill="none" xmlns="http://www.w3.org/2000/svg">
<g clip-path="url(#clip0_203_92)">
<path d="M5.02476 32.4549C8.14517 28.9662 9.87034 24.4498 9.87034 19.7692C9.87034 15.0886 8.14517 10.5722 5.02476 7.0835C1.91664 10.5782 0.199707 15.0923 0.199707 19.7692C0.199707 24.4461 1.91664 28.9603 5.02476 32.4549Z" fill="white"/>
<path d="M33.8157 32.4549C36.9361 28.9662 38.6613 24.4498 38.6613 19.7692C38.6613 15.0886 36.9361 10.5722 33.8157 7.0835C30.7076 10.5782 28.9907 15.0923 28.9907 19.7692C28.9907 24.4461 30.7076 28.9603 33.8157 32.4549Z" fill="white"/>
<path d="M6.74475 5.36363C10.2335 8.48403 14.7499 10.2092 19.4305 10.2092C24.1111 10.2092 28.6275 8.48403 32.1162 5.36363C28.6215 2.25551 24.1074 0.538574 19.4305 0.538574C14.7536 0.538573 10.2395 2.25551 6.74475 5.36363Z" fill="white"/>
<path d="M6.74481 34.1546C10.2335 37.275 14.7499 39.0002 19.4305 39.0002C24.1112 39.0002 28.6276 37.275 32.1163 34.1546C28.6216 31.0465 24.1074 29.3296 19.4305 29.3296C14.7537 29.3296 10.2395 31.0465 6.74481 34.1546Z" fill="white"/>
<g clip-path="url(#clip1_203_92)">
<path d="M5.02476 32.4549C8.14517 28.9662 9.87034 24.4498 9.87034 19.7692C9.87034 15.0886 8.14517 10.5722 5.02476 7.0835C1.91664 10.5782 0.199707 15.0923 0.199707 19.7692C0.199707 24.4461 1.91664 28.9603 5.02476 32.4549Z" fill="white"/>
<path d="M33.8157 32.4549C36.9361 28.9662 38.6613 24.4498 38.6613 19.7692C38.6613 15.0886 36.9361 10.5722 33.8157 7.0835C30.7076 10.5782 28.9907 15.0923 28.9907 19.7692C28.9907 24.4461 30.7076 28.9603 33.8157 32.4549Z" fill="white"/>
<path d="M6.74475 5.36363C10.2335 8.48403 14.7499 10.2092 19.4305 10.2092C24.1111 10.2092 28.6275 8.48403 32.1162 5.36363C28.6215 2.25551 24.1074 0.538574 19.4305 0.538574C14.7536 0.538573 10.2395 2.25551 6.74475 5.36363Z" fill="white"/>
<path d="M6.74481 34.1546C10.2335 37.275 14.7499 39.0002 19.4305 39.0002C24.1112 39.0002 28.6276 37.275 32.1163 34.1546C28.6216 31.0465 24.1074 29.3296 19.4305 29.3296C14.7537 29.3296 10.2395 31.0465 6.74481 34.1546Z" fill="white"/>
</g>
</g>
<path d="M61.1177 31.6895V19.6588C61.1177 16.8254 62.9921 14.7767 65.651 14.7767C68.1792 14.7767 69.8792 16.6947 69.8792 19.3536V31.6895H75.9818V18.0024C75.9818 12.946 72.7562 9.37158 67.7869 9.37158C64.7792 9.37158 62.3382 10.6357 61.1177 12.7716V9.7203H55.0151V31.6895H61.1177Z" fill="white"/>
<path d="M95.0796 9.7207V21.7515C95.0796 24.5412 93.2052 26.6335 90.5462 26.6335C88.0616 26.6335 86.318 24.7156 86.318 22.0566V9.7207H80.259V23.4079C80.259 28.4207 83.4847 32.0387 88.4103 32.0387C91.418 32.0387 93.859 30.731 95.0796 28.6387V31.6899H101.182V9.7207H95.0796Z" fill="white"/>
<path d="M111.731 31.6895V19.2229C111.731 16.3895 113.344 14.5152 115.872 14.5152C118.226 14.5152 119.708 16.3895 119.708 19.2229V31.6895H125.811V19.2229C125.811 16.3895 127.423 14.5152 129.952 14.5152C132.305 14.5152 133.831 16.3895 133.831 19.2229V31.6895H139.89V17.3049C139.89 12.9024 136.795 9.37158 132 9.37158C128.47 9.37158 125.723 11.246 124.677 13.3819C123.631 10.7665 121.408 9.37158 117.965 9.37158C115 9.37158 112.908 10.8101 111.731 12.8152V9.7203H105.629V31.6895H111.731Z" fill="white"/>
<path d="M159.013 24.2357C158.533 26.1101 156.92 27.069 154.479 27.069C151.428 27.069 149.467 25.1511 149.031 22.0562H164.81C164.854 21.5767 164.897 20.9229 164.897 20.0947C164.897 15.0819 161.803 9.37158 154.044 9.37158C146.59 9.37158 143.19 15.0819 143.19 20.6613C143.19 26.1972 147.026 32.0383 154.479 32.0383C159.885 32.0383 164.069 28.987 164.941 24.2357H159.013ZM154.044 13.8177C156.964 13.8177 158.664 15.7793 158.838 18.2203H149.118C149.641 15.169 151.297 13.8177 154.044 13.8177Z" fill="white"/>
<path d="M182.326 9.7207H179.841C177.182 9.7207 175.526 10.6361 174.349 13.3823V9.7207H168.246V31.6899H174.349V21.0105C174.349 17.2617 175.7 14.7771 178.708 14.7771H182.326V9.7207Z" fill="white"/>
<path d="M184.884 6.45128H191.554V0H184.884V6.45128ZM191.248 31.6897V9.72052H185.146V31.6897H191.248Z" fill="white"/>
<path d="M205.903 32.0383C211.613 32.0383 216.146 28.3767 216.8 23.4947H210.61C210.175 25.4562 208.387 26.8075 206.164 26.8075C202.851 26.8075 200.89 24.2793 200.89 20.7049C200.89 17.1306 202.808 14.5588 206.077 14.5588C208.3 14.5588 210.175 15.9972 210.523 17.9588H216.626C216.234 12.8588 211.657 9.37158 205.903 9.37158C199.103 9.37158 194.569 14.2972 194.569 20.7049C194.569 27.1126 199.103 32.0383 205.903 32.0383Z" fill="white"/>
<defs>
<clipPath id="clip0_203_92">
<rect width="39" height="39" fill="white"/>
</clipPath>
<clipPath id="clip1_203_92">
<rect width="39" height="39" fill="white"/>
</clipPath>
</defs>
</svg>
