<svg width="225" height="40" viewBox="0 0 225 40" fill="none" xmlns="http://www.w3.org/2000/svg">
<g clip-path="url(#clip0_415_21)">
<path d="M29.8378 2.59375H5.18919C2.32328 2.59375 0 4.91703 0 7.78294V32.4316C0 35.2975 2.32328 37.6208 5.18919 37.6208H29.8378C32.7038 37.6208 35.027 35.2975 35.027 32.4316V7.78294C35.027 4.91703 32.7038 2.59375 29.8378 2.59375Z" fill="white"/>
<path d="M12.4439 21.0293L13.3277 22.7968C13.6267 23.3951 13.7763 23.6941 13.9761 23.9534C14.1534 24.1832 14.3596 24.3895 14.5896 24.5668C14.8487 24.7666 15.1479 24.9162 15.746 25.2152L17.5136 26.0991L15.746 26.9828C15.1479 27.2818 14.8487 27.4314 14.5896 27.6312C14.3596 27.8085 14.1534 28.0148 13.9761 28.2446C13.7763 28.5038 13.6267 28.8029 13.3277 29.4011L12.4439 31.1687L11.5601 29.4011C11.261 28.8029 11.1115 28.5038 10.9117 28.2446C10.7344 28.0148 10.5282 27.8085 10.2982 27.6312C10.0391 27.4314 9.73994 27.2818 9.14173 26.9828L7.37421 26.0991L9.14173 25.2152C9.73994 24.9162 10.0391 24.7666 10.2982 24.5668C10.5282 24.3895 10.7344 24.1832 10.9117 23.9534C11.1115 23.6941 11.261 23.3951 11.5601 22.7968L12.4439 21.0293Z" stroke="black" stroke-width="1.5157" stroke-linecap="round" stroke-linejoin="round"/>
<path d="M21.6614 9.04688L22.9805 12.4768C23.2962 13.2975 23.454 13.7079 23.6996 14.053C23.9172 14.359 24.1844 14.6262 24.4904 14.8437C24.8354 15.0892 25.2458 15.247 26.0664 15.5627L29.4964 16.8819L26.0664 18.2011C25.2458 18.5167 24.8354 18.6746 24.4904 18.92C24.1844 19.1375 23.9172 19.4048 23.6996 19.7107C23.454 20.0559 23.2962 20.4662 22.9807 21.2869L21.6614 24.7169L20.3422 21.2869C20.0265 20.4662 19.8687 20.0559 19.6233 19.7107C19.4057 19.4048 19.1385 19.1375 18.8326 18.92C18.4874 18.6746 18.0771 18.5167 17.2564 18.2011L13.8264 16.8819L17.2564 15.5627C18.0771 15.247 18.4874 15.0892 18.8326 14.8437C19.1385 14.6262 19.4057 14.359 19.6233 14.053C19.8687 13.7079 20.0265 13.2975 20.3422 12.4768L21.6614 9.04688Z" stroke="black" stroke-width="1.5157" stroke-linecap="round" stroke-linejoin="round"/>
<path d="M65.0556 19.9697C65.0556 22.5385 64.5857 24.7471 63.6458 26.5953C62.7062 28.4358 61.4177 29.8533 59.781 30.8479C58.152 31.8347 56.2997 32.3281 54.2244 32.3281C52.1412 32.3281 50.2811 31.8347 48.6443 30.8479C47.0154 29.8533 45.7308 28.4319 44.7911 26.5837C43.8512 24.7352 43.3814 22.5307 43.3814 19.9697C43.3814 17.401 43.8512 15.1963 44.7911 13.3559C45.7308 11.5076 47.0154 10.0901 48.6443 9.10326C50.2811 8.10863 52.1412 7.61133 54.2244 7.61133C56.2997 7.61133 58.152 8.10863 59.781 9.10326C61.4177 10.0901 62.7062 11.5076 63.6458 13.3559C64.5857 15.1963 65.0556 17.401 65.0556 19.9697ZM61.4608 19.9697C61.4608 18.0118 61.1436 16.3632 60.5092 15.024C59.8828 13.677 59.0212 12.6589 57.9248 11.9697C56.8363 11.2726 55.6028 10.9241 54.2244 10.9241C52.8381 10.9241 51.6007 11.2726 50.5122 11.9697C49.4236 12.6589 48.5619 13.677 47.9276 15.024C47.3012 16.3632 46.9879 18.0118 46.9879 19.9697C46.9879 21.9277 47.3012 23.5802 47.9276 24.9272C48.5619 26.2665 49.4236 27.2846 50.5122 27.9815C51.6007 28.6708 52.8381 29.0154 54.2244 29.0154C55.6028 29.0154 56.8363 28.6708 57.9248 27.9815C59.0212 27.2846 59.8828 26.2665 60.5092 24.9272C61.1436 23.5802 61.4608 21.9277 61.4608 19.9697ZM76.9001 32.3633C75.1535 32.3633 73.65 31.9679 72.389 31.177C71.136 30.378 70.1725 29.2777 69.499 27.8758C68.8255 26.474 68.4889 24.8684 68.4889 23.0593C68.4889 21.2267 68.8333 19.6095 69.5226 18.2076C70.2117 16.7979 71.1829 15.6976 72.4359 14.9066C73.6891 14.1155 75.1654 13.72 76.8649 13.72C78.2355 13.72 79.4571 13.9746 80.5299 14.4836C81.603 14.9849 82.4683 15.6897 83.1263 16.5982C83.792 17.5067 84.1875 18.5679 84.3127 19.7818H80.8943C80.7062 18.936 80.2755 18.2076 79.6019 17.5967C78.9362 16.9859 78.0435 16.6804 76.9235 16.6804C75.9447 16.6804 75.0869 16.9389 74.3509 17.4558C73.6225 17.9648 73.0547 18.6932 72.6474 19.6408C72.2402 20.5806 72.0365 21.6926 72.0365 22.9772C72.0365 24.2928 72.2363 25.4284 72.6357 26.3839C73.035 27.3393 73.5989 28.0794 74.3274 28.6042C75.0636 29.129 75.9289 29.3912 76.9235 29.3912C77.5892 29.3912 78.1922 29.2699 78.7328 29.0271C79.2809 28.7765 79.739 28.4202 80.107 27.9581C80.483 27.4961 80.7455 26.94 80.8943 26.2898H84.3127C84.1875 27.4567 83.8076 28.4985 83.1732 29.4148C82.5388 30.3311 81.6891 31.0515 80.624 31.5763C79.5667 32.1011 78.3254 32.3633 76.9001 32.3633ZM96.4921 13.955V16.7744H86.6359V13.955H96.4921ZM89.2789 9.63189H92.7916V26.7011C92.7916 27.3824 92.8934 27.8954 93.0971 28.2401C93.3005 28.5767 93.563 28.8079 93.8841 28.9331C94.213 29.0507 94.5693 29.1093 94.9531 29.1093C95.235 29.1093 95.4817 29.0898 95.6932 29.0507C95.9047 29.0113 96.0692 28.9802 96.1866 28.9566L96.821 31.8582C96.6173 31.9365 96.3276 32.0148 95.9516 32.0933C95.5758 32.1793 95.1057 32.2262 94.5418 32.2342C93.6177 32.2498 92.7563 32.0853 91.9574 31.7408C91.1587 31.3962 90.5124 30.8637 90.019 30.143C89.5256 29.4226 89.2789 28.5181 89.2789 27.4295V9.63189ZM107.784 32.3633C106.093 32.3633 104.616 31.9757 103.355 31.2003C102.095 30.4249 101.116 29.3404 100.419 27.9462C99.7215 26.5523 99.3732 24.9233 99.3732 23.0593C99.3732 21.1876 99.7215 19.5507 100.419 18.1489C101.116 16.747 102.095 15.6584 103.355 14.883C104.616 14.1077 106.093 13.72 107.784 13.72C109.476 13.72 110.952 14.1077 112.213 14.883C113.474 15.6584 114.453 16.747 115.15 18.1489C115.847 19.5507 116.196 21.1876 116.196 23.0593C116.196 24.9233 115.847 26.5523 115.15 27.9462C114.453 29.3404 113.474 30.4249 112.213 31.2003C110.952 31.9757 109.476 32.3633 107.784 32.3633ZM107.796 29.4148C108.893 29.4148 109.801 29.1251 110.522 28.5454C111.242 27.9659 111.774 27.1945 112.119 26.2312C112.472 25.268 112.648 24.2068 112.648 23.0477C112.648 21.8963 112.472 20.839 112.119 19.8758C111.774 18.9046 111.242 18.1254 110.522 17.538C109.801 16.9506 108.893 16.6569 107.796 16.6569C106.692 16.6569 105.776 16.9506 105.047 17.538C104.327 18.1254 103.79 18.9046 103.438 19.8758C103.093 20.839 102.921 21.8963 102.921 23.0477C102.921 24.2068 103.093 25.268 103.438 26.2312C103.79 27.1945 104.327 27.9659 105.047 28.5454C105.776 29.1251 106.692 29.4148 107.796 29.4148ZM123.629 7.94026V31.9992H120.116V7.94026H123.629ZM133.605 32.3986C132.462 32.3986 131.428 32.1871 130.504 31.7642C129.58 31.3335 128.848 30.711 128.307 29.8965C127.775 29.0818 127.509 28.0833 127.509 26.9008C127.509 25.8827 127.704 25.0446 128.096 24.3869C128.487 23.7289 129.016 23.2081 129.682 22.8243C130.347 22.4407 131.091 22.1508 131.914 21.9551C132.736 21.7592 133.574 21.6105 134.428 21.5087C135.509 21.3834 136.386 21.2816 137.059 21.2032C137.733 21.1171 138.222 20.98 138.528 20.7921C138.833 20.6041 138.986 20.2987 138.986 19.8758V19.7935C138.986 18.7676 138.696 17.9726 138.117 17.4088C137.545 16.8449 136.691 16.5629 135.555 16.5629C134.373 16.5629 133.441 16.8253 132.76 17.35C132.086 17.8669 131.62 18.4425 131.362 19.0769L128.061 18.3251C128.452 17.2286 129.024 16.3437 129.776 15.6701C130.535 14.9888 131.409 14.4954 132.395 14.1899C133.382 13.8767 134.42 13.72 135.509 13.72C136.229 13.72 136.993 13.8062 137.799 13.9785C138.614 14.143 139.373 14.4484 140.078 14.8948C140.791 15.3412 141.374 15.9795 141.829 16.8096C142.283 17.632 142.51 18.701 142.51 20.0167V31.9992H139.08V29.5322H138.939C138.712 29.9865 138.371 30.4329 137.917 30.8714C137.462 31.3099 136.879 31.6742 136.166 31.964C135.454 32.2537 134.6 32.3986 133.605 32.3986ZM134.369 29.5793C135.34 29.5793 136.17 29.3873 136.859 29.0035C137.557 28.6198 138.085 28.1186 138.445 27.5C138.814 26.8734 138.998 26.2038 138.998 25.4911V23.1651C138.872 23.2905 138.629 23.4079 138.269 23.5175C137.917 23.6193 137.514 23.7093 137.059 23.7878C136.605 23.8582 136.163 23.9248 135.732 23.9873C135.301 24.0422 134.941 24.0892 134.651 24.1283C133.97 24.2146 133.347 24.3594 132.783 24.5631C132.227 24.7666 131.781 25.0604 131.444 25.4442C131.115 25.82 130.95 26.3212 130.95 26.9478C130.95 27.8172 131.272 28.4749 131.914 28.9214C132.556 29.3599 133.374 29.5793 134.369 29.5793ZM150.701 21.2855V31.9992H147.189V13.955H150.56V16.8919H150.783C151.198 15.9364 151.848 15.1689 152.733 14.5894C153.626 14.0098 154.75 13.72 156.105 13.72C157.334 13.72 158.411 13.9785 159.336 14.4954C160.26 15.0044 160.976 15.7641 161.485 16.7744C161.994 17.7847 162.249 19.0339 162.249 20.5219V31.9992H158.736V20.9448C158.736 19.6369 158.396 18.6149 157.714 17.8787C157.033 17.1347 156.097 16.7627 154.907 16.7627C154.092 16.7627 153.368 16.9389 152.733 17.2913C152.107 17.6437 151.61 18.1606 151.242 18.842C150.881 19.5155 150.701 20.33 150.701 21.2855ZM174.736 32.3633C172.959 32.3633 171.428 31.9837 170.143 31.2239C168.867 30.4563 167.88 29.3795 167.183 27.9934C166.494 26.5992 166.149 24.9664 166.149 23.0946C166.149 21.2463 166.494 19.6173 167.183 18.2076C167.88 16.7979 168.851 15.6976 170.096 14.9066C171.349 14.1155 172.814 13.72 174.49 13.72C175.508 13.72 176.495 13.8884 177.45 14.2252C178.406 14.5619 179.263 15.0906 180.023 15.8111C180.783 16.5316 181.382 17.4675 181.82 18.6188C182.259 19.7622 182.478 21.1523 182.478 22.7891V24.0345H168.134V21.4029H179.036C179.036 20.4788 178.848 19.6604 178.472 18.9477C178.096 18.2272 177.568 17.6594 176.886 17.2443C176.213 16.8292 175.422 16.6217 174.513 16.6217C173.526 16.6217 172.665 16.8645 171.929 17.35C171.2 17.8278 170.637 18.4543 170.237 19.2296C169.846 19.9971 169.65 20.8312 169.65 21.7318V23.7878C169.65 24.9938 169.861 26.0198 170.284 26.8656C170.715 27.7114 171.314 28.3575 172.082 28.804C172.849 29.2425 173.746 29.4617 174.772 29.4617C175.437 29.4617 176.044 29.3679 176.593 29.1798C177.141 28.9841 177.615 28.6941 178.014 28.3106C178.413 27.9268 178.719 27.4528 178.93 26.8889L182.255 27.4881C181.989 28.4671 181.511 29.3246 180.822 30.0608C180.14 30.7893 179.283 31.3571 178.249 31.7642C177.223 32.1638 176.052 32.3633 174.736 32.3633ZM197.445 31.9992H193.591L202.249 7.94026H206.443L215.101 31.9992H211.248L204.446 12.3103H204.258L197.445 31.9992ZM198.091 22.5776H210.59V25.6321H198.091V22.5776ZM222.205 7.94026V31.9992H218.575V7.94026H222.205Z" fill="white"/>
</g>
<defs>
<clipPath id="clip0_415_21">
<rect width="224.865" height="40" fill="white"/>
</clipPath>
</defs>
</svg>
