<svg width="295" height="40" viewBox="0 0 295 40" fill="none" xmlns="http://www.w3.org/2000/svg">
<path d="M38.16 38.7238C44.6029 38.7238 50.4172 33.8 50.4172 25.2619C50.4172 16.6714 44.6029 11.7476 38.16 11.7476C31.7695 11.7476 25.9553 16.6714 25.9553 25.2619C25.9553 33.8 31.7695 38.7238 38.16 38.7238ZM38.16 33.8C34.3886 33.8 32.1362 30.3952 32.1362 25.2619C32.1362 20.0762 34.3886 16.6714 38.16 16.6714C41.9315 16.6714 44.2362 20.0762 44.2362 25.2619C44.2362 30.3952 41.9315 33.8 38.16 33.8ZM53.7606 38.0952H59.7844V20.1285C61.932 18.0333 63.3987 16.9333 65.6511 16.9333C68.4796 16.9333 69.6844 18.5047 69.6844 22.7476V38.0952H75.7082V21.9619C75.7082 15.4666 73.2987 11.7476 67.7987 11.7476C64.2892 11.7476 61.6701 13.5809 59.3654 15.8333H59.1558L58.7368 12.3762H53.7606V38.0952ZM92.9191 38.7238C98.6286 38.7238 103.919 33.6428 103.919 24.7904C103.919 16.8809 100.2 11.7476 93.7572 11.7476C91.1381 11.7476 88.4667 13.0571 86.3191 14.9428L86.4762 10.6476V1.11426H80.4524V38.0952H85.2191L85.7429 35.3714H85.9C88.0476 37.519 90.5619 38.7238 92.9191 38.7238ZM91.6619 33.7476C90.1429 33.7476 88.3096 33.1714 86.4762 31.6V19.6047C88.4667 17.6666 90.2476 16.7238 92.1334 16.7238C96.0095 16.7238 97.6857 19.7619 97.6857 24.8952C97.6857 30.7095 95.0667 33.7476 91.6619 33.7476ZM117.877 38.7238C124.32 38.7238 130.134 33.8 130.134 25.2619C130.134 16.6714 124.32 11.7476 117.877 11.7476C111.487 11.7476 105.672 16.6714 105.672 25.2619C105.672 33.8 111.487 38.7238 117.877 38.7238ZM117.877 33.8C114.106 33.8 111.853 30.3952 111.853 25.2619C111.853 20.0762 114.106 16.6714 117.877 16.6714C121.649 16.6714 123.953 20.0762 123.953 25.2619C123.953 30.3952 121.649 33.8 117.877 33.8ZM139.097 38.7238C142.135 38.7238 144.754 37.2047 147.059 35.2666H147.269L147.688 38.0952H152.664V22.8524C152.664 15.6762 149.469 11.7476 143.078 11.7476C138.992 11.7476 135.326 13.319 132.497 15.1L134.697 19.1333C137.002 17.7714 139.411 16.619 141.926 16.619C145.435 16.619 146.535 18.9238 146.64 21.6476C136.059 22.8 131.502 25.6809 131.502 31.1809C131.502 35.6857 134.592 38.7238 139.097 38.7238ZM141.035 34.0095C138.888 34.0095 137.316 33.0143 137.316 30.7095C137.316 28.1428 139.621 26.3095 146.64 25.419V31.1809C144.702 32.9619 143.131 34.0095 141.035 34.0095ZM157.254 38.0952H163.278V22.3809C164.85 18.5047 167.311 17.0904 169.354 17.0904C170.454 17.0904 171.135 17.2476 172.026 17.5095L173.073 12.2714C172.288 11.9047 171.45 11.7476 170.14 11.7476C167.416 11.7476 164.692 13.5809 162.859 16.9333H162.65L162.23 12.3762H157.254V38.0952ZM182.673 38.7238C185.45 38.7238 188.069 37.2047 189.954 35.319H190.164L190.583 38.0952H195.559V1.11426H189.535V10.4381L189.745 14.5762C187.754 12.8476 185.921 11.7476 182.988 11.7476C177.383 11.7476 172.092 16.8809 172.092 25.2619C172.092 33.7476 176.231 38.7238 182.673 38.7238ZM184.14 33.7476C180.421 33.7476 178.326 30.7619 178.326 25.2095C178.326 19.8143 180.997 16.7238 184.297 16.7238C186.026 16.7238 187.754 17.3 189.535 18.8714V30.8666C187.807 32.8571 186.13 33.7476 184.14 33.7476ZM213.078 38.7238C218.788 38.7238 224.078 33.6428 224.078 24.7904C224.078 16.8809 220.359 11.7476 213.916 11.7476C211.297 11.7476 208.626 13.0571 206.478 14.9428L206.635 10.6476V1.11426H200.611V38.0952H205.378L205.902 35.3714H206.059C208.207 37.519 210.721 38.7238 213.078 38.7238ZM211.821 33.7476C210.302 33.7476 208.469 33.1714 206.635 31.6V19.6047C208.626 17.6666 210.407 16.7238 212.292 16.7238C216.169 16.7238 217.845 19.7619 217.845 24.8952C217.845 30.7095 215.226 33.7476 211.821 33.7476ZM233.128 38.7238C236.166 38.7238 238.785 37.2047 241.09 35.2666H241.299L241.718 38.0952H246.694V22.8524C246.694 15.6762 243.499 11.7476 237.109 11.7476C233.023 11.7476 229.356 13.319 226.528 15.1L228.728 19.1333C231.032 17.7714 233.442 16.619 235.956 16.619C239.466 16.619 240.566 18.9238 240.67 21.6476C230.09 22.8 225.532 25.6809 225.532 31.1809C225.532 35.6857 228.623 38.7238 233.128 38.7238ZM235.066 34.0095C232.918 34.0095 231.347 33.0143 231.347 30.7095C231.347 28.1428 233.651 26.3095 240.67 25.419V31.1809C238.732 32.9619 237.161 34.0095 235.066 34.0095ZM258.46 38.7238C264.955 38.7238 268.465 35.1619 268.465 30.7619C268.465 25.9428 264.589 24.2666 261.079 22.9571C258.303 21.9619 255.736 21.1762 255.736 19.1333C255.736 17.5095 256.941 16.3047 259.508 16.3047C261.55 16.3047 263.384 17.1952 265.165 18.5047L267.941 14.8381C265.846 13.2143 262.965 11.7476 259.403 11.7476C253.641 11.7476 250.027 14.9428 250.027 19.4476C250.027 23.7428 253.851 25.6809 257.255 26.9381C259.979 27.9857 262.755 28.9285 262.755 31.0762C262.755 32.8571 261.446 34.1666 258.67 34.1666C256.05 34.1666 253.85 33.0666 251.546 31.2857L248.717 35.1619C251.231 37.2047 254.95 38.7238 258.46 38.7238ZM282.224 38.7238C285.471 38.7238 288.562 37.5714 291.024 35.9476L288.981 32.1762C287.095 33.3809 285.21 34.0619 283.01 34.0619C278.871 34.0619 275.938 31.4428 275.414 26.8857H291.757C291.914 26.2571 292.019 25.1047 292.019 23.9524C292.019 16.7762 288.352 11.7476 281.386 11.7476C275.362 11.7476 269.548 16.8809 269.548 25.2619C269.548 33.7476 275.1 38.7238 282.224 38.7238ZM275.362 22.8C275.886 18.6619 278.505 16.4095 281.543 16.4095C285.052 16.4095 286.781 18.819 286.781 22.8H275.362Z" fill="white"/>
<path d="M11.6527 9.50192L6.09558 8.57141L0.000398622 37.4394L5.55754 38.37L11.6527 9.50192Z" fill="white"/>
<path d="M22.9613 10.3415L17.4042 9.41101L11.309 38.279L16.8661 39.2096L22.9613 10.3415Z" fill="#C0C0C0"/>
</svg>
