<svg width="228" height="40" viewBox="0 0 228 40" fill="none" xmlns="http://www.w3.org/2000/svg">
<path d="M16.64 31.2211C13.7386 31.2211 11.0933 30.5385 8.70398 29.1731C6.34309 27.7794 4.47998 25.9021 3.11465 23.5411C1.74932 21.1802 1.06665 18.5918 1.06665 15.7758C1.06665 12.9598 1.74932 10.3713 3.11465 8.01045C4.47998 5.62112 6.34309 3.72956 8.70398 2.33579C11.0933 0.942006 13.7386 0.245117 16.64 0.245117C19.5413 0.245117 22.1724 0.942006 24.5333 2.33579C26.8943 3.72956 28.7431 5.62112 30.08 8.01045C31.4453 10.3713 32.128 12.9598 32.128 15.7758C32.128 18.5918 31.4453 21.1802 30.08 23.5411C28.7431 25.9021 26.8943 27.7794 24.5333 29.1731C22.1724 30.5385 19.5413 31.2211 16.64 31.2211ZM7.25332 15.7758C7.25332 17.5962 7.63732 19.2602 8.40532 20.7678C9.17332 22.2754 10.2684 23.4701 11.6906 24.3518C13.1129 25.2335 14.7626 25.6745 16.64 25.6745C18.5173 25.6745 20.1529 25.2335 21.5467 24.3518C22.9689 23.4701 24.0497 22.2754 24.7893 20.7678C25.5573 19.2602 25.9413 17.5962 25.9413 15.7758C25.9413 13.9554 25.5573 12.2913 24.7893 10.7838C24.0497 9.24779 22.9689 8.03889 21.5467 7.15712C20.1529 6.24689 18.5173 5.79179 16.64 5.79179C14.7626 5.79179 13.1129 6.24689 11.6906 7.15712C10.2684 8.03889 9.17332 9.24779 8.40532 10.7838C7.63732 12.2913 7.25332 13.9554 7.25332 15.7758ZM35.1233 8.47979H40.798V12.0638C41.4523 10.7553 42.334 9.75979 43.4433 9.07712C44.5527 8.36601 46.0317 8.01045 47.8807 8.01045C49.8717 8.01045 51.7064 8.53668 53.3847 9.58912C55.0629 10.6416 56.3856 12.0638 57.3527 13.8558C58.3483 15.6194 58.846 17.5535 58.846 19.6585C58.846 21.7634 58.3483 23.6975 57.3527 25.4611C56.3856 27.2247 55.0629 28.6327 53.3847 29.6851C51.7064 30.7091 49.8717 31.2211 47.8807 31.2211C46.0887 31.2211 44.6237 30.8941 43.486 30.2398C42.3767 29.5571 41.5091 28.6042 40.8833 27.3811V39.1998H35.1233V8.47979ZM40.7127 19.6585C40.7127 20.8247 40.9687 21.8914 41.4807 22.8585C41.9927 23.8255 42.718 24.5935 43.6567 25.1625C44.6237 25.7314 45.7189 26.0158 46.942 26.0158C48.1367 26.0158 49.1891 25.7314 50.0993 25.1625C51.038 24.5651 51.7633 23.7829 52.2753 22.8158C52.8157 21.8202 53.086 20.7535 53.086 19.6158C53.086 18.4495 52.83 17.3829 52.318 16.4158C51.806 15.4487 51.0807 14.6807 50.142 14.1118C49.2033 13.5145 48.1367 13.2158 46.942 13.2158C45.7189 13.2158 44.6237 13.5145 43.6567 14.1118C42.718 14.6807 41.9927 15.4629 41.4807 16.4585C40.9687 17.4255 40.7127 18.4922 40.7127 19.6585ZM71.8307 31.2211C69.5836 31.2211 67.5924 30.7091 65.8573 29.6851C64.1223 28.6327 62.7711 27.2247 61.804 25.4611C60.8369 23.6975 60.3533 21.7491 60.3533 19.6158C60.3533 17.5109 60.8511 15.5625 61.8467 13.7705C62.8423 11.9785 64.2076 10.5562 65.9427 9.50379C67.7063 8.45135 69.6689 7.92512 71.8307 7.92512C73.9924 7.92512 75.9267 8.45135 77.6333 9.50379C79.3684 10.5562 80.7053 11.9785 81.644 13.7705C82.6111 15.5341 83.0947 17.4825 83.0947 19.6158C83.0947 20.3269 83.0377 21.0095 82.924 21.6638H66.3267C66.668 23.0007 67.308 24.0815 68.2467 24.9065C69.2137 25.7029 70.4084 26.1011 71.8307 26.1011C73.0253 26.1011 74.092 25.8309 75.0307 25.2905C75.9693 24.7215 76.7089 23.9962 77.2493 23.1145L81.7293 26.4851C80.8191 27.9074 79.4823 29.0594 77.7187 29.9411C75.9551 30.7945 73.9924 31.2211 71.8307 31.2211ZM77.292 17.3545C76.9507 16.0745 76.2823 15.0078 75.2867 14.1545C74.2911 13.3011 73.1107 12.8745 71.7453 12.8745C70.4084 12.8745 69.2423 13.2869 68.2467 14.1118C67.2796 14.9367 66.6396 16.0175 66.3267 17.3545H77.292ZM85.6233 8.47979H91.298V11.7225C92.4643 9.21935 94.7256 7.96779 98.082 7.96779C99.6749 7.96779 101.111 8.35179 102.391 9.11979C103.671 9.85935 104.681 10.926 105.421 12.3198C106.16 13.6851 106.53 15.2781 106.53 17.0985V30.6665H100.77V18.5065C100.77 16.6575 100.343 15.2781 99.49 14.3678C98.6366 13.4575 97.4704 13.0025 95.9913 13.0025C94.6829 13.0025 93.5877 13.4718 92.706 14.4105C91.8243 15.3207 91.3833 16.6861 91.3833 18.5065V30.6665H85.6233V8.47979ZM119.903 31.2211C117.428 31.2211 115.21 30.7091 113.247 29.6851C111.313 28.6327 109.72 26.9971 108.468 24.7785L113.631 21.4931C114.371 22.9722 115.309 24.0815 116.447 24.8211C117.613 25.5322 118.879 25.8878 120.244 25.8878C121.61 25.8878 122.691 25.5749 123.487 24.9491C124.312 24.3234 124.724 23.4985 124.724 22.4745C124.724 21.5358 124.426 20.7678 123.828 20.1705C123.231 19.5731 122.463 19.1038 121.524 18.7625C120.614 18.3927 119.405 18.0087 117.898 17.6105C115.508 16.9847 113.645 15.9749 112.308 14.5811C111 13.1873 110.346 11.3953 110.346 9.20512C110.346 7.44156 110.787 5.89135 111.668 4.55445C112.55 3.18912 113.787 2.13668 115.38 1.39712C116.973 0.657564 118.808 0.287787 120.884 0.287787C123.131 0.287787 125.037 0.75712 126.602 1.69579C128.195 2.63445 129.574 4.01401 130.74 5.83445L125.62 8.99179C124.881 7.79712 124.127 6.94379 123.359 6.43179C122.591 5.89135 121.667 5.62112 120.586 5.62112C119.363 5.62112 118.367 5.91979 117.599 6.51712C116.831 7.11445 116.447 7.91089 116.447 8.90645C116.447 9.90201 116.831 10.6558 117.599 11.1678C118.367 11.6513 119.562 12.1491 121.183 12.6611C123.174 13.2869 124.767 13.8701 125.962 14.4105C127.156 14.9509 128.266 15.8611 129.29 17.1411C130.314 18.3927 130.826 20.0567 130.826 22.1331C130.826 23.9251 130.385 25.5181 129.503 26.9118C128.621 28.2771 127.355 29.3438 125.706 30.1118C124.056 30.8514 122.122 31.2211 119.903 31.2211ZM141.445 30.6665C139.199 30.6665 137.505 30.1118 136.368 29.0025C135.231 27.8931 134.661 26.1581 134.661 23.7971V13.3865H131.547V8.47979H134.661V3.99979L140.421 3.40245V8.47979H145.115V13.3865H140.421V23.4985C140.421 24.8638 141.019 25.5465 142.213 25.5465H144.603V30.6665H141.445ZM156.569 31.2211C154.577 31.2211 152.743 30.7091 151.065 29.6851C149.387 28.6327 148.049 27.2247 147.055 25.4611C146.087 23.6975 145.604 21.7634 145.604 19.6585C145.604 17.5535 146.087 15.6194 147.055 13.8558C148.049 12.0638 149.387 10.6416 151.065 9.58912C152.743 8.53668 154.577 8.01045 156.569 8.01045C158.389 8.01045 159.855 8.35179 160.964 9.03445C162.101 9.71712 162.983 10.6985 163.609 11.9785V8.47979H169.327V30.6665H163.737V27.0398C163.083 28.3767 162.187 29.4149 161.049 30.1545C159.94 30.8655 158.447 31.2211 156.569 31.2211ZM151.364 19.6158C151.364 20.7535 151.62 21.8202 152.132 22.8158C152.672 23.7829 153.397 24.5651 154.308 25.1625C155.247 25.7314 156.313 26.0158 157.508 26.0158C158.731 26.0158 159.812 25.7314 160.751 25.1625C161.717 24.5935 162.457 23.8255 162.969 22.8585C163.481 21.8914 163.737 20.8247 163.737 19.6585C163.737 18.4922 163.481 17.4255 162.969 16.4585C162.457 15.4629 161.717 14.6807 160.751 14.1118C159.812 13.5145 158.731 13.2158 157.508 13.2158C156.313 13.2158 155.247 13.5145 154.308 14.1118C153.369 14.6807 152.644 15.4487 152.132 16.4158C151.62 17.3829 151.364 18.4495 151.364 19.6158ZM181.153 30.6665C178.907 30.6665 177.215 30.1118 176.076 29.0025C174.939 27.8931 174.369 26.1581 174.369 23.7971V13.3865H171.255V8.47979H174.369V3.99979L180.129 3.40245V8.47979H184.823V13.3865H180.129V23.4985C180.129 24.8638 180.727 25.5465 181.921 25.5465H184.311V30.6665H181.153ZM194.983 31.1785C193.391 31.1785 191.953 30.8087 190.673 30.0691C189.393 29.3011 188.384 28.2345 187.644 26.8691C186.905 25.4754 186.535 23.8682 186.535 22.0478V8.47979H192.295V20.6398C192.295 24.3091 193.775 26.1438 196.732 26.1438C198.041 26.1438 199.136 25.6887 200.017 24.7785C200.9 23.8398 201.34 22.4602 201.34 20.6398V8.47979H207.1V30.6665H201.511V27.3385C200.971 28.6469 200.175 29.6141 199.121 30.2398C198.069 30.8655 196.689 31.1785 194.983 31.1785ZM218.093 31.2211C214.367 31.2211 211.295 29.9269 208.877 27.3385L212.76 23.7971C214.381 25.6175 216.116 26.5278 217.965 26.5278C218.932 26.5278 219.685 26.3145 220.227 25.8878C220.767 25.4611 221.037 24.9065 221.037 24.2238C221.037 23.5981 220.767 23.1145 220.227 22.7731C219.715 22.4034 218.633 22.0194 216.984 21.6211C214.281 20.9669 212.461 20.0709 211.523 18.9331C210.612 17.7954 210.157 16.3874 210.157 14.7091C210.157 12.718 210.896 11.0967 212.376 9.84512C213.855 8.56512 215.875 7.92512 218.435 7.92512C220.283 7.92512 221.833 8.20956 223.085 8.77845C224.365 9.34735 225.56 10.3429 226.669 11.7651L222.488 14.9651C221.492 13.3722 220.184 12.5758 218.563 12.5758C217.737 12.5758 217.069 12.7465 216.557 13.0878C216.045 13.4007 215.789 13.8842 215.789 14.5385C215.789 14.9935 215.973 15.3918 216.344 15.7331C216.741 16.0461 217.552 16.3589 218.776 16.6718C221.819 17.4682 223.896 18.4495 225.005 19.6158C226.143 20.7821 226.712 22.2611 226.712 24.0531C226.712 25.3901 226.328 26.6131 225.56 27.7225C224.82 28.8034 223.796 29.6567 222.488 30.2825C221.179 30.9082 219.715 31.2211 218.093 31.2211Z" fill="white"/>
</svg>
