<svg width="234" height="40" viewBox="0 0 234 40" fill="none" xmlns="http://www.w3.org/2000/svg">
<g clip-path="url(#clip0_38_153)">
<path d="M31.8025 23.6461C31.8397 24.4333 32.1814 29.5732 32.1713 30.3738C32.1611 31.1744 32.1713 31.9144 32.1509 32.6849C32.1204 33.6759 32.0322 34.6642 31.887 35.645C31.8463 35.8972 31.799 36.1462 31.745 36.3951C31.6068 36.9983 31.2441 37.5271 30.73 37.8752C30.144 38.2916 29.4954 38.6128 28.8083 38.8273C22.8073 40.5991 9.32489 39.8724 7.18575 39.7435C7.01118 39.7329 6.84066 39.7175 6.66714 39.696C5.51676 39.5537 2.93306 39.2809 2.09461 38.8862C1.39678 38.5578 0.772293 38.0605 0.40205 37.3893C0.285877 37.1788 0.190546 36.9563 0.118169 36.7249C0.00727213 36.2854 -0.0258826 35.8301 0.0200239 35.3792C0.116146 34.4522 0.314195 33.5387 0.610389 32.6553C0.681974 32.4417 0.764641 32.2325 0.849507 32.0238C2.05539 29.0584 11.5399 5.64921 15.6711 1.70146C15.7698 1.60704 16.2481 1.11206 16.6483 0.8818C17.4683 0.410054 18.1698 0.213297 19.1084 0.0753674H19.1423L19.2843 0.0484776C20.3148 -0.0801408 21.3612 0.0481296 22.3293 0.421889C23.818 1.0072 26.1963 1.89865 26.6159 2.08366C27.38 2.41251 28.0363 2.94736 28.5106 3.62769C28.561 3.69965 28.6109 3.77206 28.6604 3.84481C29.2676 4.73965 29.6737 5.74833 29.8912 6.80451C30.3338 8.95256 31.0473 13.6527 31.8025 23.6461Z" fill="white"/>
<path d="M64.193 20.2575C64.193 22.8065 63.7066 24.9751 62.7339 26.7632C61.761 28.5513 60.4386 29.9153 58.766 30.855C57.0936 31.7949 55.2154 32.2644 53.1317 32.2644C51.0324 32.2644 49.1483 31.7928 47.4798 30.8492C45.8111 29.9059 44.4923 28.5399 43.5235 26.7517C42.5546 24.9638 42.0702 22.7989 42.0702 20.2575C42.0702 17.716 42.5547 15.54 43.5235 13.7518C44.4924 11.9638 45.8112 10.5999 47.4798 9.65998C49.1483 8.72032 51.0323 8.25049 53.1317 8.25049C55.2154 8.25049 57.0936 8.72032 58.766 9.65998C60.4387 10.5999 61.761 11.9638 62.7339 13.7518C63.7066 15.54 64.193 17.7085 64.193 20.2575ZM59.1294 20.2575C59.1294 18.6064 58.8814 17.2139 58.3855 16.0801C57.8894 14.9465 57.1917 14.0867 56.292 13.5006C55.3924 12.9149 54.3387 12.6218 53.1316 12.6218C51.9243 12.6218 50.8708 12.9148 49.9712 13.5006C49.0714 14.0866 48.3736 14.9464 47.8776 16.0801C47.3815 17.2139 47.1336 18.6064 47.1336 20.2575C47.1336 21.9084 47.3815 23.3012 47.8776 24.4349C48.3736 25.5687 49.0713 26.4284 49.9712 27.0143C50.8707 27.6003 51.9242 27.8932 53.1316 27.8932C54.3389 27.8932 55.3923 27.6004 56.292 27.0143C57.1916 26.4285 57.8894 25.5688 58.3855 24.4349C58.8814 23.3012 59.1294 21.9087 59.1294 20.2575Z" fill="white"/>
<path d="M66.0376 38.5188V14.4135H70.882V17.3582H71.1011C71.3162 16.8865 71.6298 16.4051 72.0411 15.9144C72.4524 15.4236 72.9908 15.0127 73.6559 14.6818C74.3209 14.3507 75.1496 14.1853 76.1416 14.1853C77.4334 14.1853 78.6252 14.5182 79.7173 15.184C80.809 15.8499 81.6819 16.8503 82.3355 18.1857C82.989 19.5211 83.3158 21.1932 83.3158 23.202C83.3158 25.1576 82.9987 26.8069 82.3643 28.1497C81.7298 29.4927 80.8686 30.5085 79.7806 31.1971C78.6924 31.8858 77.4755 32.23 76.1299 32.23C75.1764 32.23 74.367 32.0739 73.702 31.7621C73.0368 31.4502 72.4927 31.0564 72.0698 30.5807C71.6468 30.1053 71.324 29.624 71.101 29.1369H70.951V38.5189H66.0374L66.0376 38.5188ZM70.8473 23.1791C70.8473 24.2216 70.9933 25.1308 71.2856 25.9069C71.5777 26.6831 72.0008 27.2863 72.5544 27.7159C73.108 28.1459 73.7808 28.3607 74.5729 28.3607C75.3725 28.3607 76.0492 28.1422 76.603 27.7046C77.1565 27.2671 77.5776 26.6584 77.8659 25.8784C78.1543 25.0986 78.2985 24.1989 78.2985 23.1791C78.2985 22.1672 78.1561 21.2771 77.8716 20.5084C77.5871 19.74 77.1681 19.1389 76.6143 18.705C76.0608 18.2713 75.3803 18.0545 74.5728 18.0545C73.7729 18.0545 73.0981 18.2638 72.5485 18.6822C71.9987 19.1008 71.5776 19.6942 71.2855 20.4626C70.9933 21.2312 70.8473 22.1367 70.8473 23.1791Z" fill="white"/>
<path d="M93.9068 32.2871C92.0843 32.2871 90.5175 31.92 89.2066 31.1857C87.8955 30.4514 86.8862 29.409 86.1787 28.0583C85.4712 26.7078 85.1177 25.108 85.1177 23.259C85.1177 21.4556 85.4712 19.8731 86.1787 18.5109C86.8862 17.1491 87.8839 16.0875 89.1719 15.3266C90.4599 14.5658 91.9728 14.1853 93.7107 14.1853C94.8794 14.1853 95.9694 14.3699 96.9807 14.7388C97.9917 15.1079 98.8761 15.6615 99.6336 16.3994C100.391 17.1375 100.981 18.064 101.404 19.1787C101.827 20.2934 102.038 21.5965 102.038 23.0878V24.4232H87.0785V21.41H97.4133C97.4133 20.7101 97.2594 20.09 96.9519 19.5496C96.6443 19.0094 96.2196 18.5852 95.6774 18.2771C95.1353 17.9689 94.5067 17.8148 93.7916 17.8148C93.0457 17.8148 92.3863 17.9842 91.8135 18.3227C91.2404 18.6614 90.7928 19.1142 90.4697 19.6809C90.1468 20.2478 89.9813 20.8775 89.9737 21.5698V24.4346C89.9737 25.302 90.1369 26.0516 90.464 26.6831C90.7907 27.3147 91.254 27.8016 91.8538 28.1441C92.4535 28.4865 93.1647 28.6575 93.9877 28.6575C94.5336 28.6575 95.0334 28.5816 95.4872 28.4293C95.9408 28.2772 96.3292 28.0489 96.6522 27.7445C96.9752 27.4402 97.2211 27.0673 97.3904 26.6259L101.935 26.9227C101.704 28.0032 101.233 28.9448 100.522 29.7475C99.8107 30.5504 98.8957 31.1743 97.7768 31.6194C96.6579 32.0645 95.3679 32.2871 93.907 32.2871H93.9068Z" fill="white"/>
<path d="M108.904 21.8095V31.9447H103.991V14.4135H108.674V17.5065H108.882C109.274 16.487 109.931 15.6786 110.854 15.0813C111.777 14.484 112.896 14.1853 114.211 14.1853C115.44 14.1853 116.514 14.4517 117.429 14.9842C118.344 15.5169 119.055 16.2758 119.562 17.2612C120.071 18.2467 120.324 19.4203 120.324 20.7822V31.9446H115.411V21.6497C115.418 20.5768 115.141 19.7378 114.58 19.133C114.018 18.528 113.246 18.2255 112.262 18.2255C111.6 18.2255 111.018 18.3664 110.514 18.6479C110.01 18.9294 109.618 19.3384 109.337 19.8748C109.057 20.4114 108.913 21.0562 108.905 21.8094L108.904 21.8095Z" fill="white"/>
<path d="M135.74 15.2924C135.648 14.3719 135.252 13.6566 134.552 13.1467C133.853 12.6371 132.902 12.3821 131.703 12.3821C130.888 12.3821 130.199 12.4944 129.639 12.7188C129.077 12.9432 128.649 13.2534 128.352 13.6488C128.056 14.0446 127.908 14.4935 127.908 14.9957C127.893 15.4142 127.984 15.7794 128.179 16.0915C128.375 16.4035 128.647 16.6717 128.992 16.8961C129.338 17.1206 129.738 17.3147 130.192 17.4781C130.646 17.6418 131.13 17.7806 131.645 17.8947L133.768 18.3969C134.798 18.6252 135.744 18.9296 136.606 19.31C137.466 19.6905 138.212 20.1585 138.843 20.7139C139.473 21.2694 139.963 21.9237 140.313 22.677C140.663 23.4303 140.842 24.294 140.85 25.2678C140.842 26.6984 140.475 27.9368 139.748 28.9829C139.022 30.0292 137.975 30.8395 136.611 31.414C135.246 31.9884 133.602 32.2757 131.68 32.2757C129.773 32.2757 128.114 31.9865 126.703 31.4082C125.292 30.83 124.192 29.9721 123.404 28.8345C122.616 27.6972 122.203 26.2875 122.164 24.6057H126.997C127.051 25.3896 127.28 26.0421 127.683 26.5632C128.087 27.0844 128.629 27.4763 129.309 27.7388C129.99 28.0013 130.761 28.1325 131.623 28.1325C132.469 28.1325 133.204 28.0109 133.831 27.7673C134.458 27.5239 134.944 27.1853 135.29 26.7515C135.637 26.3178 135.81 25.8195 135.81 25.2564C135.81 24.7313 135.653 24.29 135.342 23.9323C135.03 23.5748 134.577 23.2704 133.981 23.0192C133.385 22.7681 132.657 22.5398 131.795 22.3345L129.224 21.6953C127.232 21.216 125.659 20.4666 124.505 19.4468C123.352 18.4273 122.78 17.0539 122.787 15.3265C122.78 13.9112 123.162 12.6749 123.935 11.6171C124.707 10.5597 125.77 9.73389 127.124 9.14039C128.477 8.54699 130.015 8.25024 131.737 8.25024C133.491 8.25024 135.023 8.54699 136.334 9.14039C137.645 9.73389 138.666 10.5597 139.396 11.6171C140.127 12.6749 140.503 13.8998 140.527 15.2923H135.74V15.2924Z" fill="white"/>
<path d="M148.44 32.2758C147.309 32.2758 146.302 32.0798 145.418 31.688C144.533 31.2962 143.835 30.7141 143.324 29.9417C142.812 29.1696 142.558 28.2051 142.558 27.0484C142.558 26.0746 142.738 25.2565 143.099 24.5945C143.461 23.9326 143.953 23.4 144.576 22.9966C145.198 22.5934 145.908 22.2891 146.704 22.0837C147.5 21.8782 148.336 21.7337 149.212 21.65C150.242 21.5435 151.073 21.4427 151.703 21.3474C152.335 21.2524 152.792 21.1097 153.076 20.9195C153.361 20.7293 153.503 20.4477 153.503 20.0749V20.0064C153.503 19.2836 153.274 18.7244 152.816 18.3286C152.359 17.9331 151.712 17.7351 150.874 17.7351C149.989 17.7351 149.285 17.9273 148.762 18.3116C148.239 18.6958 147.894 19.1772 147.724 19.7554L143.18 19.3902C143.411 18.325 143.864 17.4023 144.541 16.6224C145.217 15.8425 146.092 15.2413 147.165 14.819C148.237 14.3966 149.481 14.1855 150.896 14.1855C151.88 14.1855 152.825 14.2997 153.728 14.5281C154.631 14.7563 155.435 15.11 156.138 15.5894C156.842 16.0688 157.397 16.6832 157.806 17.4327C158.213 18.1823 158.416 19.0782 158.416 20.1207V31.945H153.757V29.5139H153.618C153.334 30.0618 152.953 30.543 152.477 30.9577C152 31.3726 151.427 31.6958 150.758 31.9277C150.089 32.1598 149.316 32.276 148.44 32.276V32.2758ZM149.847 28.9202C150.57 28.9202 151.208 28.7775 151.762 28.4921C152.315 28.2068 152.749 27.8207 153.065 27.3338C153.38 26.8468 153.538 26.295 153.538 25.6787V23.8183C153.384 23.9173 153.174 24.0066 152.909 24.0865C152.643 24.1665 152.346 24.2388 152.015 24.3034C151.685 24.3682 151.353 24.4252 151.023 24.4747C150.693 24.5242 150.393 24.5678 150.124 24.6058C149.547 24.6897 149.043 24.8227 148.613 25.0054C148.182 25.188 147.848 25.4333 147.609 25.7416C147.371 26.0497 147.251 26.4321 147.251 26.8886C147.251 27.5506 147.496 28.0547 147.984 28.4009C148.473 28.7472 149.094 28.9203 149.847 28.9203V28.9202Z" fill="white"/>
<path d="M171.939 24.4803V14.4136H176.853V31.9446H172.135V28.7603H171.951C171.551 29.7875 170.887 30.6132 169.961 31.237C169.034 31.861 167.906 32.173 166.576 32.173C165.391 32.173 164.35 31.9067 163.45 31.374C162.55 30.8414 161.849 30.0843 161.344 29.1026C160.841 28.1211 160.585 26.9455 160.578 25.5758V14.4136H165.492V24.7085C165.499 25.7435 165.78 26.5614 166.334 27.1623C166.887 27.7635 167.629 28.064 168.56 28.064C169.151 28.064 169.705 27.9291 170.22 27.6589C170.736 27.3888 171.153 26.9875 171.472 26.4548C171.79 25.9222 171.947 25.264 171.939 24.4803Z" fill="white"/>
<path d="M187.409 32.2871C185.594 32.2871 184.035 31.9047 182.731 31.1399C181.428 30.3753 180.428 29.3121 179.732 27.9499C179.036 26.588 178.688 25.0205 178.688 23.2476C178.688 21.4519 179.04 19.8748 179.743 18.5167C180.447 17.1585 181.449 16.097 182.749 15.3323C184.048 14.5676 185.594 14.1853 187.385 14.1853C188.931 14.1853 190.284 14.4631 191.446 15.0184C192.607 15.5739 193.525 16.3538 194.202 17.3582C194.879 18.3626 195.252 19.542 195.321 20.8963H190.684C190.553 20.0214 190.21 19.3155 189.652 18.7792C189.095 18.2428 188.366 17.9746 187.466 17.9746C186.705 17.9746 186.042 18.1781 185.476 18.5852C184.911 18.9924 184.471 19.584 184.155 20.36C183.84 21.1361 183.683 22.0759 183.683 23.1792C183.683 24.2977 183.838 25.2489 184.15 26.0326C184.461 26.8163 184.901 27.4135 185.47 27.8245C186.04 28.2354 186.705 28.4408 187.466 28.4408C188.028 28.4408 188.533 28.3266 188.983 28.0983C189.432 27.8701 189.806 27.5373 190.101 27.0997C190.398 26.6622 190.591 26.1352 190.684 25.5189H195.321C195.244 26.8581 194.877 28.0356 194.22 29.0514C193.562 30.0672 192.657 30.8604 191.503 31.4311C190.35 32.0018 188.984 32.2871 187.409 32.2871Z" fill="white"/>
<path d="M205.743 32.2871C203.921 32.2871 202.354 31.92 201.043 31.1857C199.732 30.4514 198.722 29.409 198.015 28.0583C197.307 26.7078 196.954 25.108 196.954 23.259C196.954 21.4556 197.307 19.8731 198.015 18.5109C198.722 17.1491 199.721 16.0875 201.009 15.3266C202.297 14.5658 203.81 14.1853 205.547 14.1853C206.716 14.1853 207.806 14.3699 208.817 14.7388C209.828 15.1079 210.713 15.6615 211.47 16.3994C212.227 17.1375 212.817 18.064 213.241 19.1787C213.663 20.2934 213.875 21.5965 213.875 23.0878V24.4232H198.915V21.41H209.25C209.25 20.7101 209.096 20.09 208.789 19.5496C208.481 19.0094 208.056 18.5852 207.514 18.2771C206.972 17.9689 206.343 17.8148 205.628 17.8148C204.882 17.8148 204.223 17.9842 203.65 18.3227C203.077 18.6614 202.629 19.1142 202.306 19.6809C201.984 20.2478 201.818 20.8775 201.81 21.5698V24.4346C201.81 25.302 201.973 26.0516 202.301 26.6831C202.627 27.3147 203.091 27.8016 203.69 28.1441C204.291 28.4865 205.002 28.6575 205.824 28.6575C206.37 28.6575 206.87 28.5816 207.324 28.4293C207.777 28.2772 208.166 28.0489 208.489 27.7445C208.811 27.4402 209.058 27.0673 209.227 26.6259L213.772 26.9227C213.541 28.0032 213.07 28.9448 212.358 29.7475C211.647 30.5504 210.732 31.1743 209.613 31.6194C208.494 32.0645 207.204 32.2871 205.743 32.2871Z" fill="white"/>
<path d="M222.961 32.23C221.614 32.23 220.398 31.8858 219.309 31.1971C218.221 30.5086 217.361 29.4927 216.726 28.1497C216.091 26.8068 215.774 25.1575 215.774 23.202C215.774 21.1932 216.101 19.5211 216.755 18.1856C217.409 16.8503 218.279 15.8499 219.367 15.184C220.455 14.5183 221.649 14.1853 222.948 14.1853C223.941 14.1853 224.769 14.3507 225.434 14.6817C226.099 15.0127 226.637 15.4236 227.05 15.9144C227.461 16.4052 227.774 16.8865 227.989 17.3582H228.139V8.56982H233.041V31.9446H228.196V29.1368H227.989C227.759 29.6239 227.433 30.1052 227.015 30.5806C226.595 31.0563 226.053 31.4501 225.388 31.762C224.723 32.0738 223.914 32.2299 222.961 32.2299V32.23ZM224.518 28.3608C225.309 28.3608 225.981 28.1459 226.53 27.716C227.08 27.2863 227.503 26.6831 227.798 25.9069C228.095 25.1308 228.244 24.2217 228.244 23.1791C228.244 22.1365 228.097 21.2312 227.805 20.4627C227.512 19.6942 227.09 19.1008 226.536 18.6822C225.983 18.2638 225.309 18.0545 224.518 18.0545C223.71 18.0545 223.029 18.2713 222.476 18.705C221.922 19.1388 221.503 19.74 221.218 20.5084C220.934 21.2771 220.792 22.1672 220.792 23.1791C220.792 24.1989 220.936 25.0986 221.225 25.8784C221.513 26.6585 221.931 27.2672 222.482 27.7046C223.031 28.1422 223.71 28.3608 224.518 28.3608Z" fill="white"/>
</g>
<defs>
<clipPath id="clip0_38_153">
<rect width="233.043" height="40" fill="white"/>
</clipPath>
</defs>
</svg>
