<svg width="194" height="40" viewBox="0 0 194 40" fill="none" xmlns="http://www.w3.org/2000/svg">
<path d="M177.021 23.8501L177.036 16.3413H177.948L185.177 7.77449H192.363L182.65 19.1185H181.166L177.021 23.8501ZM171.349 30.345V0.250977H177.61V30.345H171.349ZM185.457 30.345L178.814 20.5145L182.988 16.0915L192.789 30.345H185.457Z" fill="white"/>
<path d="M157.728 30.345V7.77445H163.797V11.7125H164.032C164.443 10.3117 165.134 9.25368 166.103 8.53857C167.073 7.81364 168.19 7.45117 169.454 7.45117C169.768 7.45117 170.106 7.47077 170.468 7.50996C170.83 7.54914 171.149 7.60302 171.423 7.67159V13.2261C171.13 13.1379 170.723 13.0595 170.204 12.991C169.684 12.9224 169.21 12.8881 168.778 12.8881C167.858 12.8881 167.034 13.0889 166.309 13.4906C165.594 13.8824 165.026 14.431 164.606 15.1363C164.193 15.8417 163.988 16.6548 163.988 17.5756V30.345H157.728Z" fill="white"/>
<path d="M143.472 30.7711C142.032 30.7711 140.748 30.5213 139.622 30.0216C138.495 29.5122 137.603 28.7628 136.947 27.7734C136.301 26.7741 135.977 25.53 135.977 24.041C135.977 22.7871 136.207 21.734 136.668 20.8817C137.128 20.0294 137.755 19.3438 138.549 18.8245C139.342 18.3053 140.244 17.9134 141.252 17.649C142.272 17.3845 143.339 17.1984 144.455 17.0905C145.768 16.9534 146.826 16.8261 147.63 16.7085C148.433 16.5811 149.017 16.3951 149.378 16.1501C149.741 15.9053 149.923 15.5428 149.923 15.0628V14.9745C149.923 14.0439 149.628 13.3239 149.04 12.8145C148.462 12.3051 147.64 12.0504 146.572 12.0504C145.446 12.0504 144.549 12.3002 143.883 12.7998C143.217 13.2896 142.775 13.9068 142.56 14.6514L136.771 14.1811C137.065 12.8096 137.643 11.6243 138.505 10.6251C139.367 9.61604 140.479 8.84214 141.84 8.30335C143.212 7.75476 144.799 7.48047 146.601 7.48047C147.855 7.48047 149.055 7.62741 150.201 7.9213C151.357 8.21519 152.381 8.6707 153.273 9.28788C154.174 9.90503 154.884 10.6985 155.403 11.6684C155.923 12.6284 156.182 13.7794 156.182 15.1216V30.3449H150.246V27.2149H150.069C149.706 27.9203 149.222 28.5424 148.614 29.0811C148.007 29.6101 147.277 30.0265 146.425 30.3303C145.572 30.624 144.588 30.7711 143.472 30.7711ZM145.263 26.4509C146.185 26.4509 146.999 26.2697 147.703 25.9072C148.408 25.5349 148.963 25.0354 149.364 24.4083C149.766 23.7814 149.967 23.0712 149.967 22.2777V19.8825C149.77 20.0098 149.501 20.1274 149.159 20.2352C148.825 20.3331 148.448 20.4262 148.026 20.5144C147.606 20.5927 147.183 20.6662 146.763 20.7348C146.342 20.7936 145.96 20.8475 145.617 20.8965C144.881 21.0042 144.24 21.1756 143.692 21.4107C143.143 21.6458 142.717 21.9642 142.414 22.3658C142.11 22.7577 141.957 23.2475 141.957 23.8354C141.957 24.6876 142.266 25.3391 142.884 25.7897C143.51 26.2305 144.303 26.4509 145.263 26.4509Z" fill="white"/>
<path d="M102.603 30.3449V7.77436H108.569V11.7565H108.834C109.304 10.434 110.087 9.39073 111.185 8.62662C112.282 7.86252 113.594 7.48047 115.123 7.48047C116.67 7.48047 117.988 7.86742 119.075 8.64132C120.163 9.40542 120.888 10.4438 121.25 11.7565H121.485C121.946 10.4634 122.778 9.42992 123.983 8.65601C125.198 7.87232 126.633 7.48047 128.289 7.48047C130.395 7.48047 132.104 8.1515 133.417 9.4936C134.74 10.8259 135.401 12.7166 135.401 15.1656V30.3449H129.156V16.3999C129.156 15.146 128.823 14.2056 128.157 13.5786C127.49 12.9517 126.658 12.6382 125.658 12.6382C124.522 12.6382 123.636 13.0006 122.999 13.7256C122.362 14.4407 122.044 15.386 122.044 16.5616V30.3449H115.975V16.2676C115.975 15.1607 115.657 14.2791 115.02 13.6227C114.393 12.9664 113.565 12.6382 112.537 12.6382C111.841 12.6382 111.214 12.8145 110.656 13.1672C110.107 13.5101 109.671 13.9949 109.348 14.622C109.025 15.2391 108.863 15.964 108.863 16.7967V30.3449H102.603Z" fill="white"/>
<path d="M88.9819 30.345V7.77445H95.0506V11.7125H95.2858C95.6972 10.3117 96.3879 9.25368 97.3577 8.53857C98.3274 7.81364 99.4443 7.45117 100.708 7.45117C101.021 7.45117 101.359 7.47077 101.722 7.50996C102.084 7.54914 102.403 7.60302 102.677 7.67159V13.2261C102.383 13.1379 101.977 13.0595 101.457 12.991C100.938 12.9224 100.463 12.8881 100.032 12.8881C99.1112 12.8881 98.2883 13.0889 97.5633 13.4906C96.8483 13.8824 96.28 14.431 95.8589 15.1363C95.4475 15.8417 95.2417 16.6548 95.2417 17.5756V30.345H88.9819Z" fill="white"/>
<path d="M77.8477 30.7857C75.5259 30.7857 73.5275 30.3155 71.8524 29.3751C70.187 28.4249 68.9037 27.0828 68.0025 25.3489C67.1013 23.605 66.6506 21.5429 66.6506 19.1625C66.6506 16.8407 67.1013 14.8032 68.0025 13.0496C68.9037 11.2961 70.1723 9.92953 71.8083 8.9499C73.4541 7.97028 75.3839 7.48047 77.5978 7.48047C79.0869 7.48047 80.4731 7.72047 81.7564 8.2005C83.0495 8.6707 84.176 9.38094 85.136 10.3312C86.1059 11.2814 86.8602 12.4766 87.399 13.9166C87.9378 15.3468 88.2072 17.022 88.2072 18.9421V20.6613H69.1486V16.782H82.3148C82.3148 15.8807 82.1188 15.0824 81.727 14.3868C81.3352 13.6913 80.7915 13.1476 80.0959 12.7557C79.4102 12.3541 78.6117 12.1533 77.7007 12.1533C76.7505 12.1533 75.908 12.3737 75.1733 12.8145C74.4484 13.2455 73.8802 13.8285 73.4687 14.5632C73.0573 15.288 72.8466 16.0963 72.8368 16.9878V20.676C72.8368 21.7927 73.0426 22.7577 73.4541 23.5708C73.8753 24.3839 74.468 25.0108 75.232 25.4516C75.9962 25.8925 76.9024 26.1129 77.9505 26.1129C78.6461 26.1129 79.2828 26.0149 79.8608 25.8191C80.4388 25.6231 80.9335 25.3293 81.345 24.9374C81.7564 24.5456 82.0698 24.0656 82.2854 23.4973L88.0749 23.8794C87.7811 25.2704 87.1786 26.4851 86.2676 27.5236C85.3662 28.5522 84.2006 29.3555 82.7702 29.9334C81.3498 30.5016 79.709 30.7857 77.8477 30.7857Z" fill="white"/>
<path d="M44.6866 38.8089V7.77436H50.8582V11.5655H51.1374C51.4117 10.9581 51.8084 10.341 52.3277 9.71401C52.8567 9.07726 53.5425 8.54826 54.3849 8.12702C55.2371 7.69599 56.2952 7.48047 57.5589 7.48047C59.2047 7.48047 60.7231 7.9115 62.1141 8.77357C63.5053 9.62585 64.6171 10.914 65.4498 12.6382C66.2825 14.3526 66.6988 16.5028 66.6988 19.089C66.6988 21.6067 66.2923 23.7325 65.4792 25.4664C64.6759 27.1905 63.5786 28.4983 62.1876 29.3897C60.8064 30.2714 59.2585 30.7122 57.5442 30.7122C56.3294 30.7122 55.296 30.5115 54.4437 30.1098C53.6013 29.7082 52.9106 29.2036 52.3718 28.5963C51.833 27.9791 51.4215 27.357 51.1374 26.7301H50.9464V38.8089H44.6866ZM50.8142 19.0596C50.8142 20.4017 51.0003 21.5723 51.3726 22.5716C51.7448 23.5708 52.2836 24.3496 52.989 24.908C53.6942 25.4566 54.5515 25.7308 55.5604 25.7308C56.5793 25.7308 57.4414 25.4516 58.1466 24.8933C58.852 24.3251 59.386 23.5414 59.7483 22.5422C60.1206 21.5331 60.3068 20.3723 60.3068 19.0596C60.3068 17.7567 60.1255 16.6105 59.7631 15.6211C59.4006 14.6318 58.8666 13.8578 58.1614 13.2994C57.456 12.741 56.5891 12.4618 55.5604 12.4618C54.5417 12.4618 53.6796 12.7313 52.9742 13.27C52.2788 13.8089 51.7448 14.573 51.3726 15.5624C51.0003 16.5518 50.8142 17.7176 50.8142 19.0596Z" fill="white"/>
<path d="M30.4298 30.7711C28.9898 30.7711 27.7065 30.5213 26.5799 30.0216C25.4534 29.5122 24.5619 28.7628 23.9055 27.7734C23.259 26.7741 22.9357 25.53 22.9357 24.041C22.9357 22.7871 23.1659 21.734 23.6264 20.8817C24.0868 20.0294 24.7138 19.3438 25.5072 18.8245C26.3007 18.3053 27.2019 17.9134 28.211 17.649C29.2298 17.3845 30.2977 17.1984 31.4143 17.0905C32.727 16.9534 33.7851 16.8261 34.5884 16.7085C35.3916 16.5811 35.9745 16.3951 36.337 16.1501C36.6995 15.9053 36.8807 15.5428 36.8807 15.0628V14.9745C36.8807 14.0439 36.5868 13.3239 35.999 12.8145C35.421 12.3051 34.5982 12.0504 33.5303 12.0504C32.4037 12.0504 31.5075 12.3002 30.8412 12.7998C30.1752 13.2896 29.7343 13.9068 29.5188 14.6514L23.7292 14.1811C24.0232 12.8096 24.6011 11.6243 25.4632 10.6251C26.3252 9.61604 27.4371 8.84214 28.7988 8.30335C30.1702 7.75476 31.7572 7.48047 33.5597 7.48047C34.8137 7.48047 36.0137 7.62741 37.1599 7.9213C38.3159 8.21519 39.3396 8.6707 40.231 9.28788C41.1323 9.90503 41.8425 10.6985 42.3617 11.6684C42.8808 12.6284 43.1404 13.7794 43.1404 15.1216V30.3449H37.204V27.2149H37.0276C36.6651 27.9203 36.1803 28.5424 35.5728 29.0811C34.9655 29.6101 34.2357 30.0265 33.3835 30.3303C32.5312 30.624 31.5466 30.7711 30.4298 30.7711ZM32.2226 26.4509C33.1435 26.4509 33.9566 26.2697 34.6618 25.9072C35.3672 25.5349 35.9207 25.0354 36.3224 24.4083C36.724 23.7814 36.9247 23.0712 36.9247 22.2777V19.8825C36.7288 20.0098 36.4595 20.1274 36.1166 20.2352C35.7835 20.3331 35.4064 20.4262 34.9851 20.5144C34.5639 20.5927 34.1426 20.6662 33.7214 20.7348C33.3001 20.7936 32.9181 20.8475 32.5752 20.8965C31.8406 21.0042 31.1989 21.1756 30.6502 21.4107C30.1017 21.6458 29.6756 21.9642 29.3719 22.3658C29.0681 22.7577 28.9163 23.2475 28.9163 23.8354C28.9163 24.6876 29.225 25.3391 29.8421 25.7897C30.469 26.2305 31.2625 26.4509 32.2226 26.4509Z" fill="white"/>
<path d="M1.23627 30.345V0.250977H13.1093C15.3919 0.250977 17.3364 0.686909 18.943 1.55878C20.5495 2.42085 21.7741 3.62089 22.6165 5.15889C23.4688 6.68711 23.895 8.45043 23.895 10.4489C23.895 12.4473 23.464 14.2107 22.6019 15.7388C21.7399 17.2671 20.4907 18.4573 18.8547 19.3096C17.2287 20.1618 15.2596 20.5879 12.9477 20.5879H5.38007V15.489H11.9191C13.1436 15.489 14.1525 15.2784 14.9461 14.8572C15.7494 14.4261 16.347 13.8334 16.7387 13.0792C17.1404 12.315 17.3412 11.4383 17.3412 10.4489C17.3412 9.44965 17.1404 8.57777 16.7387 7.83326C16.347 7.07896 15.7494 6.49607 14.9461 6.08464C14.1427 5.6634 13.124 5.45278 11.8897 5.45278H7.59893V30.345H1.23627Z" fill="white"/>
</svg>
