<svg width="161" height="41" viewBox="0 0 161 41" fill="none" xmlns="http://www.w3.org/2000/svg">
<path d="M49.6344 32.7919H53.2487V23.2634H59.4258C63.8615 23.2634 67.1144 21.2262 67.1144 16.2976C67.1144 11.3691 63.8615 9.29907 59.4258 9.29907H49.6344V32.7919ZM53.2487 20.1419V12.4205H59.2615C61.9887 12.4205 63.3687 13.6362 63.3687 16.2976C63.3687 18.9262 61.9887 20.1419 59.2615 20.1419H53.2487ZM73.3788 33.2519C76.106 33.2519 78.0117 32.1676 79.096 30.4262H79.1617C79.3588 32.3319 80.2131 32.9562 81.8231 32.9562C82.3488 32.9562 82.9074 32.8905 83.466 32.7591V30.7876C83.2688 30.8205 83.1703 30.8205 83.0717 30.8205C82.4474 30.8205 82.2831 30.1962 82.2831 28.9805V21.2919C82.2831 16.9548 79.5231 15.5091 76.0731 15.5091C70.9474 15.5091 68.8445 18.0391 68.6803 21.2591H71.966C72.1303 19.0248 73.0174 18.1048 75.9417 18.1048C78.406 18.1048 79.1288 19.1234 79.1288 20.3391C79.1288 21.9819 77.5188 22.3105 74.8903 22.8034C70.7174 23.5919 67.8917 24.7091 67.8917 28.4548C67.8917 31.3134 70.0274 33.2519 73.3788 33.2519ZM71.2431 28.2248C71.2431 26.4834 72.4917 25.6619 75.4488 25.0705C77.1574 24.7091 78.6031 24.3476 79.1288 23.8548V26.2534C79.1288 29.1776 76.9931 30.6562 74.1017 30.6562C72.0974 30.6562 71.2431 29.8019 71.2431 28.2248ZM87.8565 38.6734C90.4523 38.6734 92.0623 37.3262 93.6723 33.1862L100.309 16.0348H96.9251L92.3251 28.8491H92.2594L87.3637 16.0348H83.848L90.6165 32.6276C89.9594 35.2562 88.448 35.9134 87.1665 35.9134C86.6408 35.9134 86.3451 35.8805 85.7865 35.8148V38.4434C86.6408 38.6076 87.1337 38.6734 87.8565 38.6734ZM102.277 32.7919H105.497V9.29907H102.277V32.7919ZM116.603 33.2848C121.827 33.2848 124.981 29.6376 124.981 24.3805C124.981 19.1562 121.827 15.5091 116.636 15.5091C111.379 15.5091 108.224 19.1891 108.224 24.4134C108.224 29.6705 111.379 33.2848 116.603 33.2848ZM111.576 24.4134C111.576 20.8976 113.153 18.2034 116.636 18.2034C120.053 18.2034 121.63 20.8976 121.63 24.4134C121.63 27.8962 120.053 30.6234 116.636 30.6234C113.153 30.6234 111.576 27.8962 111.576 24.4134ZM132.355 33.2519C135.082 33.2519 136.988 32.1676 138.072 30.4262H138.138C138.335 32.3319 139.189 32.9562 140.799 32.9562C141.325 32.9562 141.883 32.8905 142.442 32.7591V30.7876C142.245 30.8205 142.146 30.8205 142.048 30.8205C141.423 30.8205 141.259 30.1962 141.259 28.9805V21.2919C141.259 16.9548 138.499 15.5091 135.049 15.5091C129.923 15.5091 127.821 18.0391 127.656 21.2591H130.942C131.106 19.0248 131.993 18.1048 134.918 18.1048C137.382 18.1048 138.105 19.1234 138.105 20.3391C138.105 21.9819 136.495 22.3105 133.866 22.8034C129.693 23.5919 126.868 24.7091 126.868 28.4548C126.868 31.3134 129.003 33.2519 132.355 33.2519ZM130.219 28.2248C130.219 26.4834 131.468 25.6619 134.425 25.0705C136.133 24.7091 137.579 24.3476 138.105 23.8548V26.2534C138.105 29.1776 135.969 30.6562 133.078 30.6562C131.073 30.6562 130.219 29.8019 130.219 28.2248ZM151.687 33.2519C154.316 33.2519 155.926 32.0034 156.846 30.8205H156.911V32.7919H160.131V9.29907H156.911V18.0719H156.846C155.926 16.7576 154.316 15.5419 151.687 15.5419C147.416 15.5419 144.163 18.8934 144.163 24.4134C144.163 29.9334 147.416 33.2519 151.687 33.2519ZM147.514 24.4134C147.514 21.1276 149.059 18.2362 152.213 18.2362C155.104 18.2362 156.879 20.6019 156.879 24.4134C156.879 28.1919 155.104 30.5905 152.213 30.5905C149.059 30.5905 147.514 27.6991 147.514 24.4134Z" fill="white"/>
<mask id="mask0_15_31" style="mask-type:luminance" maskUnits="userSpaceOnUse" x="0" y="0" width="38" height="41">
<path d="M37.1429 0.914307H0V40.9143H37.1429V0.914307Z" fill="white"/>
</mask>
<g mask="url(#mask0_15_31)">
<mask id="mask1_15_31" style="mask-type:luminance" maskUnits="userSpaceOnUse" x="5" y="0" width="27" height="37">
<path d="M31.5713 0.914307H5.57129V36.9143H31.5713V0.914307Z" fill="white"/>
</mask>
<g mask="url(#mask1_15_31)">
<path d="M17.4946 3.27563L31.8385 12.561V30.1853L21.0376 36.9143V19.29L6.67657 10.0169L17.4946 3.27563Z" fill="white"/>
<path d="M16.395 35.9372V22.1843L5.57129 28.9256L16.395 35.9372Z" fill="white"/>
</g>
</g>
</svg>
