<svg width="243" height="40" viewBox="0 0 243 40" fill="none" xmlns="http://www.w3.org/2000/svg">
<path d="M127.41 12.3436C129.032 12.3436 130.468 12.7172 131.719 13.4645C132.969 14.2117 133.937 15.269 134.62 16.6362C135.304 18.0035 135.646 19.5881 135.646 21.3899C135.646 23.1494 135.309 24.7022 134.636 26.0482C133.963 27.3943 133.017 28.4357 131.798 29.1723C130.579 29.909 129.159 30.2773 127.537 30.2773C126.414 30.2773 125.394 30.06 124.477 29.6254C123.56 29.1909 122.789 28.5655 122.164 27.7494V36.3983H116.536V12.5344H122.164V14.8556C122.789 14.0501 123.547 13.43 124.437 12.9955C125.328 12.5609 126.319 12.3436 127.41 12.3436ZM126.043 25.8257C127.209 25.8257 128.155 25.3964 128.881 24.5379C129.607 23.6793 129.97 22.577 129.97 21.231C129.97 19.8849 129.607 18.7879 128.881 17.9399C128.155 17.092 127.209 16.668 126.043 16.668C124.919 16.668 123.992 17.092 123.261 17.9399C122.529 18.7879 122.164 19.8849 122.164 21.231C122.164 22.5982 122.521 23.7058 123.237 24.5538C123.952 25.4017 124.888 25.8257 126.043 25.8257ZM150.352 12.28C152.281 12.28 153.831 12.8921 155.002 14.1163C156.174 15.3405 156.759 16.9754 156.759 19.021V30.0865H151.131V20.5791C151.131 19.5616 150.853 18.7534 150.296 18.1546C149.74 17.5557 148.985 17.2563 148.031 17.2563C146.95 17.2563 146.083 17.6485 145.431 18.4328C144.78 19.2171 144.454 20.2134 144.454 21.4217V30.0865H138.825V5.92056H144.454V15.428C145.058 14.3892 145.861 13.6102 146.862 13.0909C147.864 12.5715 149.027 12.3012 150.352 12.28ZM166.33 30.0865H160.718V12.5344H166.33V30.0865ZM163.548 4.52148C164.417 4.52148 165.13 4.79971 165.686 5.35616C166.243 5.91262 166.521 6.6254 166.521 7.49453C166.521 8.36366 166.243 9.07909 165.686 9.64085C165.13 10.2026 164.417 10.4835 163.548 10.4835C162.679 10.4835 161.969 10.2026 161.417 9.64085C160.866 9.07909 160.591 8.36366 160.591 7.49453C160.591 6.6254 160.866 5.91262 161.417 5.35616C161.969 4.79971 162.679 4.52148 163.548 4.52148ZM188.509 5.92056V30.0865H182.881V27.7812C181.598 29.477 179.839 30.3197 177.602 30.3091C175.97 30.3091 174.536 29.9302 173.302 29.1723C172.067 28.4145 171.108 27.3519 170.424 25.9846C169.74 24.6174 169.399 23.0328 169.399 21.231C169.399 19.4503 169.735 17.8869 170.408 16.5409C171.081 15.1948 172.027 14.1534 173.246 13.4168C174.465 12.6801 175.875 12.3118 177.475 12.3118C178.63 12.3118 179.664 12.5291 180.575 12.9637C181.487 13.3982 182.255 14.0289 182.881 14.8556V5.92056H188.509ZM178.97 25.9529C180.146 25.9529 181.092 25.5289 181.807 24.681C182.523 23.833 182.881 22.7254 182.881 21.3581C182.881 20.0121 182.523 18.9151 181.807 18.0671C181.092 17.2192 180.146 16.7952 178.97 16.7952C177.793 16.7952 176.85 17.2139 176.14 18.0512C175.429 18.8886 175.064 19.9909 175.043 21.3581C175.064 22.7254 175.432 23.833 176.148 24.681C176.863 25.5289 177.804 25.9529 178.97 25.9529ZM201.037 12.28C203.443 12.28 205.314 12.8391 206.649 13.9573C207.985 15.0755 208.663 16.6309 208.684 18.6236V30.0865H203.183V28.0674C202.621 28.8093 201.885 29.3737 200.973 29.7606C200.062 30.1474 199.007 30.3409 197.809 30.3409C195.965 30.3409 194.5 29.8321 193.413 28.8146C192.327 27.7971 191.784 26.4722 191.784 24.8399C191.784 23.1653 192.364 21.8669 193.525 20.9448C194.685 20.0227 196.352 19.551 198.525 19.5298H203.151V19.2754C203.151 18.4063 202.865 17.728 202.293 17.2404C201.72 16.7528 200.867 16.5091 199.733 16.5091C198.991 16.5091 198.159 16.6336 197.237 16.8827C196.315 17.1318 195.398 17.4948 194.487 17.9717L192.897 14.2674C194.328 13.5996 195.69 13.1015 196.983 12.7729C198.276 12.4443 199.627 12.28 201.037 12.28ZM199.542 26.5411C200.433 26.5411 201.214 26.3185 201.887 25.8734C202.56 25.4282 202.982 24.8452 203.151 24.1245V22.5664H199.606C198.758 22.5664 198.122 22.7175 197.698 23.0196C197.274 23.3216 197.062 23.8012 197.062 24.4584C197.062 25.1049 197.279 25.6137 197.714 25.9846C198.149 26.3556 198.758 26.5411 199.542 26.5411ZM224.01 29.1485C223.385 29.5088 222.659 29.7977 221.832 30.015C221.006 30.2322 220.168 30.3409 219.32 30.3409C217.582 30.3409 216.178 29.8586 215.107 28.8941C214.037 27.9296 213.501 26.557 213.501 24.7764V17.0337H211.053V13.3452H213.501V8.46435H219.098V13.3134H223.692V17.0337H219.098V23.9019C219.098 25.1844 219.617 25.8257 220.656 25.8257C221.26 25.8257 222.007 25.6296 222.897 25.2374L224.01 29.1485ZM234.71 12.28C237.116 12.28 238.987 12.8391 240.322 13.9573C241.658 15.0755 242.336 16.6309 242.357 18.6236V30.0865H236.856V28.0674C236.295 28.8093 235.558 29.3737 234.647 29.7606C233.735 30.1474 232.68 30.3409 231.483 30.3409C229.639 30.3409 228.173 29.8321 227.087 28.8146C226 27.7971 225.457 26.4722 225.457 24.8399C225.457 23.1653 226.037 21.8669 227.198 20.9448C228.359 20.0227 230.025 19.551 232.198 19.5298H236.825V19.2754C236.825 18.4063 236.539 17.728 235.966 17.2404C235.394 16.7528 234.541 16.5091 233.406 16.5091C232.665 16.5091 231.833 16.6336 230.91 16.8827C229.988 17.1318 229.071 17.4948 228.16 17.9717L226.57 14.2674C228.001 13.5996 229.363 13.1015 230.656 12.7729C231.949 12.4443 233.3 12.28 234.71 12.28ZM233.216 26.5411C234.106 26.5411 234.888 26.3185 235.561 25.8734C236.234 25.4282 236.655 24.8452 236.825 24.1245V22.5664H233.279C232.431 22.5664 231.795 22.7175 231.371 23.0196C230.947 23.3216 230.736 23.8012 230.736 24.4584C230.736 25.1049 230.953 25.6137 231.387 25.9846C231.822 26.3556 232.431 26.5411 233.216 26.5411Z" fill="white"/>
<path d="M79.443 0.000403134L79.4385 0C68.2335 0 58.9872 5.95731 50.1611 12.2645C40.1595 5.45303 30.8684 0.000310378 20.2446 0.000310378C10.4304 0.000310378 0 6.9421 0 19.807C0 32.0737 8.28693 39.9999 21.1121 39.9999C26.2661 40.013 31.3705 38.9922 36.1231 36.9979C41.4444 34.7657 46.4986 31.9438 51.1909 28.5849C61.0011 34.8062 69.7216 39.9999 81.2072 39.9999C93.6078 39.9999 101.94 31.8849 101.94 19.807C101.94 7.77634 93.1092 0.00231097 79.443 0.000403134ZM62.3874 21.5849L62.294 21.5866C62.1666 21.5885 62.0406 21.5605 61.9261 21.5047C61.8116 21.4489 61.7119 21.367 61.6349 21.2655L61.7252 21.2042C61.9463 21.3317 62.167 21.4586 62.3874 21.5849ZM57.9959 23.9683C57.992 24.1969 57.8996 24.415 57.738 24.5767C57.5764 24.7385 57.3584 24.8311 57.1298 24.8352L56.5131 24.845C56.9992 24.4988 57.4839 24.1545 57.967 23.8122C57.9816 23.8632 57.9912 23.9154 57.9959 23.9683ZM37.1887 14.363C37.1956 14.1706 37.2751 13.9879 37.4112 13.8517C37.5474 13.7155 37.7301 13.636 37.9226 13.6292L38.5994 13.606C38.7023 13.6025 38.8048 13.6193 38.9011 13.6554C38.9975 13.6915 39.0857 13.7462 39.161 13.8164C39.2362 13.8866 39.2968 13.971 39.3394 14.0646C39.382 14.1583 39.4057 14.2594 39.4093 14.3622C39.4128 14.465 39.396 14.5675 39.3599 14.6639C39.3238 14.7602 39.2691 14.8485 39.1989 14.9237C39.1287 14.9989 39.0444 15.0596 38.9507 15.1022C38.8571 15.1448 38.7559 15.1685 38.6531 15.1721H38.5994L37.9226 15.1489C37.8228 15.1456 37.7246 15.1225 37.6337 15.0812C37.5428 15.0398 37.461 14.981 37.3928 14.908C37.3247 14.835 37.2716 14.7493 37.2366 14.6558C37.2015 14.5623 37.1853 14.4628 37.1887 14.363ZM37.63 17.5504C37.6328 17.6643 37.6104 17.7773 37.5643 17.8814C37.5182 17.9855 37.4497 18.0782 37.3635 18.1526C36.7617 17.8052 36.1617 17.4679 35.5637 17.1406C35.6293 17.0461 35.7156 16.9678 35.816 16.9118C35.9165 16.8558 36.0284 16.8235 36.1433 16.8175L36.8202 16.7943C37.0278 16.7873 37.2297 16.863 37.3816 17.0047C37.5335 17.1465 37.6228 17.3428 37.63 17.5504ZM40.2051 16.734L40.8819 16.7216C41.1078 16.7192 41.3255 16.8062 41.4875 16.9636C41.6495 17.1211 41.7427 17.3362 41.7468 17.5621C41.7508 17.788 41.6653 18.0063 41.5091 18.1695C41.3528 18.3326 41.1383 18.4273 40.9125 18.433H40.8819L40.2051 18.4214C39.9839 18.4175 39.773 18.3269 39.618 18.1691C39.4629 18.0113 39.3761 17.7989 39.3761 17.5777C39.3761 17.3564 39.4629 17.1441 39.618 16.9862C39.773 16.8284 39.9839 16.7379 40.2051 16.734ZM60.4858 23.1336H60.5147L61.1915 23.146C61.4035 23.1498 61.6055 23.2367 61.754 23.3879C61.9025 23.5392 61.9858 23.7427 61.9858 23.9547C61.9858 24.1666 61.9025 24.3701 61.754 24.5214C61.6055 24.6726 61.4035 24.7595 61.1915 24.7633L60.5147 24.7748C60.2971 24.7787 60.0868 24.6959 59.9302 24.5447C59.7736 24.3935 59.6835 24.1863 59.6797 23.9687C59.6758 23.751 59.7586 23.5408 59.9098 23.3842C60.061 23.2276 60.2682 23.1375 60.4858 23.1336ZM46.7229 13.4862C46.9146 13.4861 47.1013 13.5479 47.2551 13.6623C47.409 13.7767 47.5218 13.9378 47.5768 14.1214C47.0424 14.5073 46.5096 14.8914 45.9785 15.2737C45.7479 15.2564 45.533 15.1504 45.379 14.978C45.2249 14.8055 45.1438 14.5801 45.1525 14.349C45.1613 14.118 45.2593 13.8993 45.4259 13.739C45.5926 13.5787 45.8149 13.4893 46.0461 13.4895L46.7229 13.4862ZM44.214 10.3122C44.7476 10.6576 45.2825 11.0082 45.819 11.3641C45.7839 11.5688 45.6782 11.7548 45.5203 11.8898C45.3623 12.0247 45.1622 12.1001 44.9544 12.1028H44.9445L44.2669 12.0995C44.0344 12.0993 43.8111 12.0085 43.6444 11.8465C43.4777 11.6845 43.3806 11.4639 43.3737 11.2315C43.3669 10.9991 43.4507 10.7732 43.6076 10.6016C43.7645 10.43 43.982 10.3262 44.214 10.3122ZM42.6611 13.5333C42.8871 13.5309 43.1048 13.618 43.2668 13.7756C43.4288 13.9331 43.5219 14.1483 43.5258 14.3743C43.5297 14.6002 43.4442 14.8185 43.2877 14.9816C43.1313 15.1447 42.9168 15.2393 42.6909 15.2447H42.6611L41.9843 15.2324C41.7632 15.2284 41.5524 15.1378 41.3974 14.98C41.2424 14.8222 41.1555 14.6098 41.1555 14.3886C41.1555 14.1674 41.2424 13.9551 41.3974 13.7973C41.5524 13.6395 41.7632 13.5488 41.9843 13.5449L42.6611 13.5333ZM41.863 8.82851C41.6504 8.79455 41.4596 8.67838 41.3318 8.50505C41.5088 8.61177 41.6861 8.72019 41.863 8.82851ZM40.2051 10.3566L40.8819 10.3451C40.9942 10.3431 41.1059 10.3632 41.2104 10.4043C41.3149 10.4455 41.4104 10.5068 41.4912 10.5848C41.572 10.6628 41.6367 10.756 41.6816 10.859C41.7264 10.962 41.7505 11.0728 41.7525 11.1851C41.7545 11.2974 41.7344 11.4091 41.6933 11.5136C41.6521 11.6181 41.5908 11.7136 41.5128 11.7944C41.4348 11.8753 41.3416 11.9399 41.2386 11.9848C41.1356 12.0296 41.0248 12.0537 40.9125 12.0557H40.8819L40.2051 12.0442C39.9839 12.0402 39.7731 11.9496 39.6181 11.7918C39.4631 11.6339 39.3763 11.4216 39.3763 11.2004C39.3763 10.9792 39.4631 10.7669 39.6181 10.6091C39.7731 10.4513 39.9839 10.3606 40.2051 10.3566ZM37.9226 7.25188L38.5994 7.22873C38.7022 7.22521 38.8047 7.24197 38.9011 7.27806C38.9974 7.31416 39.0857 7.36887 39.1609 7.43909C39.2361 7.5093 39.2968 7.59365 39.3394 7.6873C39.382 7.78095 39.4057 7.88207 39.4093 7.9849C39.4128 8.08772 39.396 8.19023 39.3599 8.28658C39.3238 8.38293 39.2691 8.47123 39.1989 8.54643C39.1287 8.62163 39.0443 8.68227 38.9507 8.72487C38.857 8.76748 38.7559 8.79122 38.6531 8.79475C38.6357 8.7956 38.6159 8.7956 38.5994 8.79475L37.9226 8.77164C37.7256 8.76473 37.5391 8.68165 37.4022 8.5399C37.2654 8.39815 37.1889 8.20881 37.1889 8.01177C37.1889 7.81474 37.2654 7.6254 37.4022 7.48365C37.5391 7.34191 37.7256 7.25879 37.9226 7.25188ZM36.1433 10.4401L36.8202 10.417C36.9232 10.4132 37.0259 10.4297 37.1225 10.4657C37.2191 10.5016 37.3076 10.5563 37.3831 10.6265C37.4585 10.6968 37.5193 10.7812 37.5621 10.875C37.6048 10.9688 37.6287 11.0701 37.6322 11.1731C37.6357 11.2761 37.6189 11.3788 37.5827 11.4753C37.5464 11.5718 37.4915 11.6602 37.4211 11.7354C37.3506 11.8107 37.266 11.8712 37.1721 11.9137C37.0782 11.9562 36.9769 11.9798 36.8738 11.983C36.8565 11.9839 36.8375 11.9839 36.8202 11.983L36.1433 11.9599C35.9462 11.9533 35.7594 11.8703 35.6223 11.7285C35.4852 11.5867 35.4086 11.3972 35.4086 11.2C35.4086 11.0028 35.4852 10.8133 35.6223 10.6715C35.7594 10.5297 35.9462 10.4467 36.1433 10.4401ZM33.86 7.39067L34.5376 7.36756C34.7082 7.36215 34.874 7.42463 34.9986 7.5413C35.1232 7.65797 35.1964 7.8193 35.2022 7.98989C35.208 8.16048 35.1459 8.32641 35.0296 8.45128C34.9132 8.57614 34.752 8.64974 34.5814 8.65593H34.5376L33.86 8.63276C33.699 8.62711 33.5466 8.5592 33.4347 8.44335C33.3229 8.3275 33.2604 8.17275 33.2604 8.01172C33.2604 7.85068 33.3229 7.69594 33.4347 7.58008C33.5466 7.46423 33.699 7.39632 33.86 7.39067ZM35.2029 14.3671C35.2058 14.4516 35.1921 14.5359 35.1624 14.6151C35.1328 14.6943 35.0878 14.7669 35.0301 14.8286C34.9724 14.8904 34.903 14.9402 34.8261 14.9752C34.7491 15.0102 34.6659 15.0296 34.5814 15.0324C34.5668 15.0333 34.5522 15.0333 34.5376 15.0324L33.86 15.0093C33.6989 15.004 33.5462 14.9363 33.4341 14.8205C33.322 14.7047 33.2593 14.5498 33.2593 14.3886C33.2593 14.2275 33.322 14.0726 33.4341 13.9568C33.5462 13.841 33.6989 13.7733 33.86 13.768L34.5376 13.7449C34.6222 13.742 34.7065 13.7557 34.7857 13.7854C34.865 13.8151 34.9376 13.8602 34.9994 13.918C35.0612 13.9758 35.1109 14.0452 35.1459 14.1223C35.1808 14.1994 35.2002 14.2826 35.2029 14.3671ZM32.0816 4.20245L32.7584 4.1793C32.7637 4.1791 32.7682 4.18185 32.7736 4.1818C32.9428 4.17985 33.106 4.24473 33.2277 4.36238C33.3494 4.48002 33.4197 4.64092 33.4235 4.81013C33.4273 4.97935 33.3641 5.14322 33.2478 5.26617C33.1315 5.38911 32.9713 5.4612 32.8022 5.46678C32.7876 5.46764 32.773 5.46764 32.7584 5.46678L32.0816 5.44367C31.9206 5.43823 31.7681 5.37045 31.6561 5.25466C31.5442 5.13886 31.4816 4.9841 31.4816 4.82305C31.4816 4.66199 31.5442 4.50723 31.6561 4.39144C31.7681 4.27564 31.9206 4.2079 32.0816 4.20245ZM32.0816 10.5798L32.7584 10.5566C32.9291 10.5508 33.0952 10.6131 33.22 10.7297C33.3448 10.8463 33.4182 11.0077 33.424 11.1785C33.4298 11.3492 33.3676 11.5153 33.251 11.6401C33.1344 11.7649 32.9729 11.8383 32.8022 11.8441C32.7876 11.845 32.773 11.845 32.7584 11.8441L32.0816 11.821C31.9206 11.8156 31.7681 11.7478 31.6561 11.632C31.5442 11.5162 31.4816 11.3615 31.4816 11.2004C31.4816 11.0393 31.5442 10.8846 31.6561 10.7688C31.7681 10.653 31.9206 10.5852 32.0816 10.5798ZM29.7982 7.53036L30.4751 7.50721C30.609 7.50261 30.7392 7.5514 30.8372 7.64284C30.9351 7.73428 30.9927 7.86088 30.9973 7.9948C31.0019 8.12872 30.9532 8.25897 30.8617 8.35692C30.7703 8.45487 30.6437 8.51248 30.5097 8.51708H30.4751L29.7982 8.49312C29.6733 8.48904 29.5548 8.43653 29.4679 8.3467C29.3809 8.25687 29.3323 8.13676 29.3323 8.01175C29.3323 7.88673 29.3809 7.76662 29.4679 7.67679C29.5548 7.58696 29.6733 7.53444 29.7982 7.53036ZM30.9973 14.3713C30.9992 14.4523 30.9812 14.5325 30.9449 14.6049C30.9085 14.6774 30.855 14.7398 30.7889 14.7867C30.3155 14.5806 29.8434 14.3875 29.3723 14.202C29.4079 14.1175 29.4669 14.0448 29.5423 13.9925C29.6178 13.9402 29.7065 13.9105 29.7982 13.9068L30.4751 13.8837C30.5414 13.8814 30.6075 13.8922 30.6696 13.9155C30.7317 13.9388 30.7887 13.9741 30.8372 14.0193C30.8857 14.0646 30.9248 14.119 30.9523 14.1794C30.9797 14.2398 30.995 14.305 30.9973 14.3713ZM28.0198 4.34125L28.6966 4.31814C28.763 4.3157 28.8293 4.32637 28.8915 4.34957C28.9538 4.37276 29.0109 4.40801 29.0595 4.4533C29.1081 4.49858 29.1473 4.55302 29.1749 4.61348C29.2025 4.67395 29.2178 4.73926 29.2201 4.80567C29.2224 4.87207 29.2115 4.93828 29.1882 5.00049C29.1648 5.0627 29.1295 5.11971 29.0841 5.16822C29.0387 5.21674 28.9841 5.25582 28.9236 5.28323C28.8631 5.31064 28.7977 5.32584 28.7313 5.32796C28.7198 5.32881 28.7082 5.32881 28.6966 5.32796L28.0198 5.30485C27.8948 5.30059 27.7764 5.24796 27.6896 5.15807C27.6027 5.06818 27.5541 4.94806 27.5541 4.82305C27.5541 4.69804 27.6027 4.57792 27.6896 4.48803C27.7764 4.39814 27.8948 4.34551 28.0198 4.34125ZM28.0198 10.7186L28.6966 10.6955C28.7629 10.6932 28.829 10.704 28.8912 10.7273C28.9533 10.7505 29.0102 10.7858 29.0587 10.8311C29.1072 10.8764 29.1463 10.9308 29.1738 10.9912C29.2013 11.0515 29.2166 11.1168 29.2189 11.1831C29.2212 11.2494 29.2104 11.3155 29.1871 11.3776C29.1638 11.4397 29.1285 11.4967 29.0833 11.5452C29.038 11.5937 28.9836 11.6328 28.9232 11.6603C28.8628 11.6878 28.7976 11.7031 28.7313 11.7053H28.6966L28.0198 11.6822C27.8948 11.6779 27.7764 11.6253 27.6896 11.5354C27.6027 11.4455 27.5541 11.3254 27.5541 11.2004C27.5541 11.0754 27.6027 10.9553 27.6896 10.8654C27.7764 10.7755 27.8948 10.7228 28.0198 10.7186ZM25.7365 7.74685L26.4133 7.70886C26.4936 7.70437 26.5724 7.73197 26.6324 7.78559C26.6924 7.83921 26.7286 7.91447 26.7331 7.9948C26.7376 8.07513 26.71 8.15395 26.6564 8.21393C26.6027 8.27391 26.5275 8.31013 26.4472 8.31462H26.4133L25.7365 8.27658C25.6689 8.27268 25.6053 8.24308 25.5588 8.19384C25.5123 8.1446 25.4864 8.07944 25.4864 8.01172C25.4864 7.944 25.5123 7.87884 25.5588 7.8296C25.6053 7.78036 25.6689 7.75075 25.7365 7.74685ZM23.9572 4.55859L24.6349 4.5206C24.6746 4.51838 24.7144 4.524 24.7519 4.53714C24.7895 4.55029 24.8241 4.57069 24.8537 4.59721C24.8834 4.62372 24.9075 4.65582 24.9248 4.69166C24.942 4.7275 24.9521 4.7664 24.9543 4.80612C24.9565 4.84583 24.9509 4.8856 24.9377 4.92315C24.9246 4.96069 24.9042 4.99528 24.8777 5.02494C24.8512 5.0546 24.8191 5.07875 24.7832 5.096C24.7474 5.11326 24.7085 5.12328 24.6688 5.1255C24.6575 5.12636 24.6462 5.12636 24.6349 5.1255L23.9572 5.08751C23.8897 5.0837 23.8261 5.05417 23.7797 5.00499C23.7332 4.95581 23.7073 4.89071 23.7073 4.82305C23.7073 4.75538 23.7332 4.69028 23.7797 4.6411C23.8261 4.59192 23.8897 4.5624 23.9572 4.55859ZM23.9572 10.9359L24.6349 10.8979C24.7151 10.8934 24.7938 10.921 24.8537 10.9745C24.9136 11.0281 24.9498 11.1032 24.9543 11.1834C24.9588 11.2637 24.9312 11.3424 24.8777 11.4023C24.8241 11.4622 24.749 11.4983 24.6688 11.5028C24.6575 11.5037 24.6462 11.5037 24.6349 11.5028L23.9572 11.4648C23.8897 11.4611 23.8261 11.4315 23.7796 11.3824C23.7331 11.3332 23.7072 11.2681 23.7072 11.2004C23.7072 11.1327 23.7331 11.0676 23.7796 11.0184C23.8261 10.9692 23.8897 10.9397 23.9572 10.9359ZM22.3515 7.96089C22.365 7.9599 22.3783 7.96432 22.3886 7.97316C22.3988 7.982 22.4051 7.99453 22.4061 8.00801C22.4071 8.02149 22.4026 8.03481 22.3938 8.04504C22.385 8.05527 22.3724 8.06156 22.359 8.06255H22.3515L21.6747 8.01212L22.3515 7.96089ZM20.5723 4.77262C20.579 4.77205 20.5858 4.7728 20.5922 4.77483C20.5986 4.77687 20.6045 4.78016 20.6096 4.7845C20.6148 4.78883 20.619 4.79413 20.622 4.80011C20.6251 4.80608 20.627 4.81261 20.6275 4.8193C20.6281 4.826 20.6273 4.83273 20.6252 4.83912C20.6232 4.84551 20.6198 4.85143 20.6155 4.85654C20.6111 4.86165 20.6058 4.86585 20.5998 4.86889C20.5938 4.87193 20.5873 4.87377 20.5806 4.87428H20.5723L19.8955 4.82305L20.5723 4.77262ZM20.5723 11.1492C20.5859 11.1483 20.5992 11.1527 20.6096 11.1615C20.6199 11.1703 20.6264 11.1828 20.6277 11.1963C20.6287 11.2097 20.6243 11.2231 20.6154 11.2333C20.6066 11.2435 20.5941 11.2498 20.5806 11.2508H20.5723L19.8955 11.2004L20.5723 11.1492ZM13.9289 19.807C13.9289 15.7484 17.4514 13.9 20.7244 13.9C26.8391 13.9 31.8357 16.615 38.2491 20.5346C33.4306 23.5184 28.6108 25.7333 23.5459 26.1484C22.9997 26.1795 22.4548 26.2135 21.8973 26.2176C21.877 26.2176 21.8571 26.22 21.8367 26.22H21.8331C18.0112 26.219 13.9289 24.534 13.9289 19.807ZM54.8473 28.054L54.1697 28.0581C53.9284 28.0594 53.6965 27.9652 53.5243 27.7962C53.3522 27.6272 53.2538 27.397 53.2506 27.1558C53.6906 26.8467 54.1303 26.5382 54.5648 26.2301L54.8473 26.2318C55.0879 26.2333 55.3182 26.33 55.4878 26.5007C55.6574 26.6714 55.7526 26.9023 55.7526 27.1429C55.7526 27.3835 55.6574 27.6144 55.4878 27.7851C55.3182 27.9558 55.0879 28.0525 54.8473 28.054ZM57.7946 30.8708C57.1267 30.4914 56.4613 30.1047 55.7986 29.711C55.8799 29.6269 55.977 29.5596 56.0843 29.5131C56.1917 29.4666 56.3071 29.4417 56.4241 29.4399H56.453L57.1299 29.4515C57.2455 29.4532 57.3596 29.4777 57.4657 29.5236C57.5719 29.5695 57.6679 29.6359 57.7483 29.7189C57.8288 29.802 57.8921 29.9001 57.9345 30.0076C57.977 30.1151 57.9979 30.23 57.9959 30.3456C57.9894 30.5383 57.9185 30.7232 57.7946 30.8708ZM58.9091 28.0235L58.2323 28.0342C58.1147 28.0369 57.9977 28.0164 57.8882 27.9738C57.7786 27.9311 57.6785 27.8672 57.5937 27.7857C57.5089 27.7042 57.4411 27.6068 57.3941 27.4989C57.3472 27.3911 57.322 27.2751 57.3201 27.1575C57.3182 27.0399 57.3396 26.9231 57.383 26.8138C57.4265 26.7045 57.4911 26.6049 57.5732 26.5207C57.6553 26.4365 57.7532 26.3694 57.8614 26.3232C57.9695 26.2771 58.0857 26.2527 58.2033 26.2517H58.2323L58.9091 26.2624C59.1401 26.2662 59.3603 26.3607 59.5224 26.5254C59.6844 26.6901 59.7751 26.9119 59.7751 27.1429C59.7751 27.374 59.6844 27.5958 59.5224 27.7605C59.3603 27.9252 59.1401 28.0196 58.9091 28.0235ZM60.5148 31.1522C60.2971 31.156 60.0869 31.0732 59.9303 30.9221C59.7737 30.7709 59.6835 30.5637 59.6797 30.346C59.6759 30.1284 59.7586 29.9181 59.9098 29.7615C60.061 29.6049 60.2682 29.5148 60.4858 29.511H60.5148L61.1916 29.5234C61.4035 29.5271 61.6054 29.6139 61.7539 29.7651C61.9024 29.9162 61.9857 30.1197 61.9857 30.3316C61.9857 30.5435 61.9024 30.7469 61.7539 30.8981C61.6054 31.0492 61.4035 31.136 61.1916 31.1398L60.5148 31.1522ZM63.6482 33.9156C62.9905 33.6081 62.3351 33.2896 61.6822 32.9601C61.7569 32.8797 61.847 32.8152 61.9471 32.7703C62.0472 32.7255 62.1554 32.7013 62.2651 32.6992H62.294L62.9708 32.7116C63.077 32.7135 63.1818 32.7363 63.2792 32.7787C63.3766 32.8211 63.4647 32.8822 63.5384 32.9587C63.6122 33.0351 63.6702 33.1253 63.709 33.2241C63.7479 33.323 63.7669 33.4285 63.765 33.5347C63.7595 33.6696 63.7193 33.8008 63.6482 33.9156ZM62.9708 27.9515L62.294 27.964C62.1862 27.9659 62.0792 27.9465 61.9789 27.907C61.8786 27.8675 61.787 27.8087 61.7095 27.7338C61.6319 27.659 61.5699 27.5696 61.5269 27.4707C61.4839 27.3719 61.4608 27.2655 61.4589 27.1578C61.457 27.05 61.4763 26.9429 61.5158 26.8426C61.5553 26.7423 61.6142 26.6508 61.689 26.5732C61.7639 26.4957 61.8533 26.4337 61.9521 26.3907C62.051 26.3477 62.1573 26.3246 62.2651 26.3227H62.294L62.9708 26.3342C63.1828 26.338 63.3848 26.4249 63.5333 26.5762C63.6818 26.7274 63.765 26.9309 63.765 27.1429C63.765 27.3548 63.6818 27.5583 63.5333 27.7096C63.3848 27.8608 63.1828 27.9477 62.9708 27.9515ZM64.5766 31.0456C64.3876 31.0514 64.2041 30.982 64.0662 30.8528C63.9282 30.7235 63.8472 30.5448 63.8407 30.3559C63.8343 30.167 63.9029 29.9832 64.0317 29.8448C64.1605 29.7064 64.3389 29.6247 64.5278 29.6176H64.5766L65.2542 29.6407C65.4331 29.6471 65.6026 29.7227 65.7269 29.8516C65.8513 29.9804 65.9207 30.1525 65.9207 30.3316C65.9207 30.5106 65.8513 30.6827 65.7269 30.8116C65.6026 30.9404 65.4331 31.016 65.2542 31.0224L64.5766 31.0456ZM63.8385 23.979C63.832 23.7897 63.9009 23.6055 64.0302 23.4669C64.1594 23.3284 64.3384 23.2468 64.5278 23.2402H64.5765L65.2542 23.2642C65.4331 23.2705 65.6026 23.346 65.7269 23.4748C65.8512 23.6036 65.9207 23.7757 65.9207 23.9547C65.9207 24.1337 65.8512 24.3057 65.7269 24.4345C65.6026 24.5633 65.4331 24.6388 65.2542 24.6451L64.5765 24.6683C64.4828 24.6716 64.3893 24.6563 64.3015 24.6235C64.2137 24.5906 64.1331 24.5407 64.0646 24.4767C63.996 24.4127 63.9408 24.3358 63.902 24.2504C63.8632 24.165 63.8416 24.0728 63.8385 23.979ZM67.0325 34.2107L66.3558 34.2339C66.262 34.2371 66.1686 34.2219 66.0808 34.189C65.993 34.1562 65.9125 34.1063 65.8439 34.0424C65.7753 33.9784 65.72 33.9016 65.6812 33.8163C65.6423 33.7309 65.6206 33.6388 65.6173 33.5451C65.6141 33.4513 65.6293 33.3579 65.6622 33.2701C65.695 33.1823 65.7448 33.1018 65.8088 33.0332C65.8728 32.9646 65.9496 32.9093 66.0349 32.8705C66.1203 32.8316 66.2124 32.8099 66.3061 32.8066C66.3227 32.8058 66.3392 32.8058 66.3558 32.8066L67.0325 32.8298C67.2116 32.8359 67.3812 32.9113 67.5057 33.0401C67.6302 33.169 67.6998 33.3411 67.6998 33.5202C67.6998 33.6994 67.6302 33.8715 67.5057 34.0003C67.3812 34.1292 67.2116 34.2046 67.0325 34.2107ZM67.0325 27.8334L66.3557 27.8574C66.262 27.8606 66.1685 27.8454 66.0806 27.8125C65.9927 27.7796 65.9122 27.7298 65.8436 27.6658C65.775 27.6018 65.7196 27.5249 65.6808 27.4395C65.6419 27.3541 65.6202 27.2619 65.6169 27.1681C65.6137 27.0743 65.6289 26.9809 65.6618 26.893C65.6947 26.8051 65.7445 26.7246 65.8085 26.6559C65.8725 26.5873 65.9494 26.532 66.0348 26.4931C66.1202 26.4542 66.2124 26.4325 66.3062 26.4293C66.3227 26.4284 66.3393 26.4284 66.3558 26.4293L67.0326 26.4524C67.2116 26.4585 67.3813 26.5339 67.5058 26.6628C67.6303 26.7916 67.6999 26.9637 67.6999 27.1429C67.6999 27.322 67.6303 27.4942 67.5058 27.623C67.3813 27.7518 67.2116 27.8273 67.0325 27.8334ZM68.0449 30.3514C68.0423 30.276 68.0546 30.2009 68.081 30.1302C68.1075 30.0596 68.1476 29.9949 68.1991 29.9397C68.2506 29.8846 68.3125 29.8402 68.3812 29.809C68.4499 29.7778 68.524 29.7605 68.5994 29.758C68.6126 29.7572 68.6259 29.7572 68.6391 29.758L69.3159 29.7812C69.4585 29.7862 69.5937 29.8463 69.6928 29.949C69.7919 30.0517 69.8474 30.1888 69.8474 30.3315C69.8474 30.4743 69.7919 30.6114 69.6928 30.7141C69.5937 30.8168 69.4585 30.8769 69.3159 30.8819L68.6391 30.9059C68.5637 30.9085 68.4885 30.8963 68.4178 30.8698C68.3471 30.8434 68.2823 30.8033 68.2271 30.7518C68.172 30.7003 68.1275 30.6384 68.0962 30.5697C68.0649 30.501 68.0475 30.4268 68.0449 30.3514ZM69.1543 36.1522L69.3159 36.1577C69.3893 36.1604 69.4614 36.1777 69.5279 36.2088C69.5945 36.2399 69.6541 36.284 69.7033 36.3386C69.52 36.2783 69.3372 36.2148 69.1543 36.1522ZM71.0943 34.071L70.4175 34.0941C70.2656 34.0988 70.1181 34.0432 70.0072 33.9393C69.8963 33.8354 69.831 33.6918 69.8258 33.54C69.8206 33.3881 69.8757 33.2404 69.9792 33.1291C70.0827 33.0178 70.226 32.9521 70.3778 32.9463C70.3911 32.9455 70.4043 32.9455 70.4175 32.9463L71.0943 32.9694C71.2372 32.9743 71.3726 33.0345 71.4719 33.1372C71.5712 33.24 71.6268 33.3773 71.6268 33.5202C71.6268 33.6632 71.5712 33.8005 71.4719 33.9033C71.3726 34.006 71.2372 34.0662 71.0943 34.071ZM71.0943 27.6937L70.4175 27.7168C70.2656 27.7215 70.1181 27.6658 70.0072 27.562C69.8963 27.4581 69.831 27.3145 69.8258 27.1626C69.8206 27.0108 69.8757 26.863 69.9792 26.7518C70.0827 26.6405 70.226 26.5747 70.3778 26.569H70.4175L71.0943 26.5921C71.2372 26.5969 71.3727 26.657 71.472 26.7598C71.5714 26.8626 71.627 26.9999 71.627 27.1429C71.627 27.2858 71.5714 27.4232 71.472 27.526C71.3727 27.6288 71.2372 27.6889 71.0943 27.6937ZM73.3776 37.0849L72.7009 37.1229C72.591 37.1292 72.4833 37.0915 72.4012 37.0183C72.3191 36.9451 72.2695 36.8422 72.2633 36.7324C72.257 36.6226 72.2946 36.5148 72.3679 36.4328C72.4411 36.3507 72.5439 36.3011 72.6537 36.2948C72.6694 36.294 72.6852 36.294 72.7009 36.2948L73.3776 36.3329C73.4737 36.3384 73.5639 36.3804 73.63 36.4503C73.696 36.5202 73.7328 36.6127 73.7328 36.7089C73.7328 36.8051 73.696 36.8976 73.63 36.9675C73.5639 37.0374 73.4737 37.0794 73.3776 37.0849ZM73.3776 30.7076L72.7009 30.7456C72.6465 30.7487 72.592 30.741 72.5406 30.7231C72.4892 30.7051 72.4418 30.6772 72.4012 30.641C72.3606 30.6047 72.3275 30.5608 72.3038 30.5118C72.2801 30.4627 72.2664 30.4095 72.2633 30.3551C72.2602 30.3007 72.2678 30.2463 72.2858 30.1949C72.3037 30.1435 72.3316 30.0961 72.3679 30.0554C72.4041 30.0148 72.448 29.9817 72.4971 29.9581C72.5461 29.9344 72.5994 29.9206 72.6537 29.9175C72.6694 29.9167 72.6852 29.9167 72.7009 29.9175L73.3776 29.9556C73.4736 29.9611 73.5639 30.0031 73.6299 30.073C73.6959 30.1429 73.7327 30.2354 73.7327 30.3316C73.7327 30.4277 73.6959 30.5202 73.6299 30.5902C73.5639 30.6601 73.4736 30.7021 73.3776 30.7076ZM75.1569 33.8958L74.4792 33.9339C74.4247 33.9371 74.3701 33.9296 74.3185 33.9118C74.2669 33.8939 74.2193 33.866 74.1785 33.8297C74.1377 33.7934 74.1045 33.7494 74.0808 33.7002C74.057 33.651 74.0433 33.5976 74.0402 33.5431C74.0372 33.4885 74.0449 33.4339 74.063 33.3824C74.0811 33.3309 74.1093 33.2834 74.1457 33.2428C74.1822 33.2022 74.2264 33.1692 74.2757 33.1456C74.325 33.1221 74.3784 33.1086 74.433 33.1058C74.4484 33.105 74.4638 33.105 74.4792 33.1058L75.1569 33.1446C75.2529 33.15 75.3432 33.1919 75.4092 33.2617C75.4753 33.3316 75.5121 33.4241 75.5121 33.5202C75.5121 33.6164 75.4753 33.7088 75.4092 33.7787C75.3432 33.8485 75.2529 33.8905 75.1569 33.8958ZM74.0421 27.1664C74.0385 27.0747 74.0662 26.9844 74.1207 26.9104C74.5745 27.0359 75.0308 27.1497 75.4898 27.2518C75.4683 27.3251 75.4249 27.39 75.3654 27.4378C75.3059 27.4857 75.2331 27.5141 75.1569 27.5193L74.4793 27.5573C74.3696 27.5632 74.2619 27.5255 74.18 27.4522C74.098 27.3789 74.0485 27.2762 74.0421 27.1664ZM77.4395 36.8552L76.7626 36.894C76.7383 36.8954 76.714 36.8919 76.691 36.8839C76.668 36.8758 76.6468 36.8633 76.6287 36.8471C76.6105 36.8309 76.5958 36.8112 76.5852 36.7893C76.5747 36.7673 76.5685 36.7435 76.5672 36.7192C76.5658 36.6949 76.5693 36.6706 76.5773 36.6476C76.5854 36.6246 76.5979 36.6034 76.6141 36.5853C76.6303 36.5671 76.65 36.5524 76.6719 36.5418C76.6938 36.5313 76.7176 36.5251 76.742 36.5238C76.7488 36.523 76.7558 36.523 76.7626 36.5238L77.4395 36.5618C77.4784 36.5642 77.5148 36.5819 77.5408 36.611C77.5668 36.6401 77.5802 36.6782 77.5783 36.7171C77.5762 36.7532 77.5609 36.7873 77.5353 36.8127C77.5097 36.8382 77.4755 36.8533 77.4395 36.8552ZM77.4395 30.4787L76.7626 30.5167C76.7383 30.518 76.714 30.5146 76.691 30.5065C76.668 30.4985 76.6468 30.486 76.6287 30.4697C76.6105 30.4535 76.5958 30.4339 76.5852 30.4119C76.5747 30.39 76.5685 30.3662 76.5672 30.3419C76.5658 30.3176 76.5693 30.2932 76.5773 30.2703C76.5854 30.2473 76.5979 30.2261 76.6141 30.208C76.6303 30.1898 76.65 30.175 76.6719 30.1645C76.6938 30.1539 76.7176 30.1478 76.742 30.1464H76.7626L77.4395 30.1845C77.477 30.1866 77.5124 30.203 77.5382 30.2304C77.5641 30.2577 77.5785 30.2939 77.5785 30.3316C77.5785 30.3692 77.5641 30.4054 77.5382 30.4328C77.5124 30.4601 77.477 30.4765 77.4395 30.4787ZM79.2187 33.6669L78.5418 33.7049C78.5175 33.7065 78.493 33.7033 78.4699 33.6954C78.4468 33.6875 78.4255 33.6751 78.4072 33.659C78.3889 33.6428 78.374 33.6232 78.3633 33.6012C78.3527 33.5793 78.3464 33.5554 78.345 33.531C78.3436 33.5067 78.347 33.4823 78.3551 33.4592C78.3631 33.4362 78.3757 33.4149 78.392 33.3968C78.4083 33.3786 78.428 33.3638 78.45 33.3533C78.4721 33.3428 78.4959 33.3367 78.5203 33.3355C78.5275 33.3347 78.5347 33.3347 78.5418 33.3355L79.2187 33.3735C79.2561 33.3758 79.2912 33.3922 79.3169 33.4195C79.3425 33.4467 79.3569 33.4828 79.3569 33.5202C79.3569 33.5577 79.3425 33.5937 79.3169 33.621C79.2912 33.6483 79.2561 33.6647 79.2187 33.6669ZM80.7274 26.2201C74.4455 26.2201 68.9942 23.7976 62.9487 20.3918C68.5741 16.7047 74.0665 13.9172 79.6653 13.9137L79.6756 13.9135C84.8063 13.9135 87.9936 16.1717 87.9936 19.807C87.9936 24.5406 84.0794 26.2201 80.7274 26.2201Z" fill="white"/>
</svg>
