<svg width="283" height="102" viewBox="0 0 283 102" fill="none" xmlns="http://www.w3.org/2000/svg">
<g clip-path="url(#clip0_532_203)">
<path d="M210.212 35.1275C212.049 36.6417 213.726 38.2872 215.391 39.9856C215.73 40.3136 216.07 40.6417 216.42 40.9797C223.237 48.0119 224.644 58.0796 224.513 67.4352C224.192 77.7205 220.126 86.6977 212.649 93.8146C204.112 100.979 194.156 102.519 183.333 101.863C173.901 100.832 166.19 96.1341 160.119 89.0077C153.505 80.3907 151.828 69.9535 152.887 59.3496C154.192 49.88 158.87 41.5131 166.302 35.4945C178.531 26.6976 197.938 25.8234 210.212 35.1275ZM173.628 51.3381C169.889 58.7868 169.448 67.0673 171.778 75.0139C173.397 79.3759 176.125 83.3575 180.296 85.6452C185.234 87.6925 190.703 88.0818 195.73 86.0818C200.544 83.6754 203.786 79.9108 205.498 74.8852C207.568 67.5579 207.371 59.854 204.171 52.8722C201.744 48.6088 198.502 45.6269 193.852 43.9777C185.516 41.992 179.055 45.0771 173.628 51.3381Z" fill="white"/>
<path d="M240.936 9.54573C243.736 9.53543 246.535 9.52514 249.42 9.51454C250.305 9.51 251.189 9.50545 252.1 9.50077C252.798 9.49931 253.495 9.49804 254.192 9.49699C254.74 9.49317 254.74 9.49317 255.299 9.48926C256.188 9.4891 257.078 9.51465 257.967 9.54573C258.468 10.0447 258.468 10.0447 258.524 12.0253C258.524 12.9096 258.522 13.7939 258.517 14.6781C258.516 15.1426 258.515 15.6071 258.514 16.0857C258.512 17.5755 258.505 19.0653 258.499 20.5552C258.496 21.5626 258.494 22.5701 258.492 23.5775C258.487 26.0528 258.477 28.528 258.468 31.0032C263.757 31.0032 269.047 31.0032 274.497 31.0032C274.497 35.4494 274.497 39.8956 274.497 44.4766C269.207 44.4766 263.917 44.4766 258.468 44.4766C258.499 49.5257 258.537 54.5748 258.586 59.6238C258.608 61.9681 258.628 64.3125 258.641 66.6569C258.654 68.9186 258.674 71.1802 258.7 73.4418C258.708 74.3055 258.714 75.1692 258.717 76.0329C258.722 77.241 258.736 78.4486 258.752 79.6566C258.751 80.0151 258.75 80.3737 258.75 80.7432C258.784 82.674 258.784 82.674 259.667 84.3449C263.829 87.1992 269.302 85.7552 273.996 85.3956C274.657 89.8418 275.318 94.288 275.999 98.8689C267.463 101.38 257.061 103.547 248.71 99.2237C244.445 96.6314 242.765 93.585 241.357 88.8804C240.423 85.0047 240.693 80.9372 240.74 76.9806C240.744 76.0389 240.747 75.0972 240.749 74.1555C240.756 71.6984 240.776 69.2416 240.798 66.7847C240.819 64.269 240.828 61.7532 240.838 59.2374C240.859 54.317 240.895 49.3968 240.936 44.4766C236.803 44.4766 232.671 44.4766 228.413 44.4766C228.413 40.0304 228.413 35.5842 228.413 31.0032C232.546 31.0032 236.678 31.0032 240.936 31.0032C240.936 23.9223 240.936 16.8413 240.936 9.54573Z" fill="white"/>
<path d="M89.6631 31.0039C95.4486 31.0039 101.234 31.0039 107.195 31.0039C107.195 53.7289 107.195 76.4539 107.195 99.8676C101.409 99.8676 95.6239 99.8676 89.6631 99.8676C89.6631 77.1426 89.6631 54.4176 89.6631 31.0039Z" fill="white"/>
<path d="M123.224 4.05664C129.009 4.05664 134.795 4.05664 140.755 4.05664C140.755 35.6741 140.755 67.2915 140.755 99.867C134.97 99.867 129.184 99.867 123.224 99.867C123.224 68.2496 123.224 36.6322 123.224 4.05664Z" fill="white"/>
<path d="M91.7833 4C92.5014 4.00008 93.2194 4.00292 93.9375 4.00792C94.5034 4.00898 94.5034 4.00898 95.0808 4.01006C96.2905 4.01286 97.5001 4.01913 98.7098 4.02546C99.528 4.02796 100.346 4.03024 101.164 4.03228C103.174 4.03737 105.184 4.04714 107.194 4.05665C107.194 9.49089 107.194 14.9251 107.194 20.5241C101.408 20.5241 95.623 20.5241 89.6622 20.5241C89.6518 17.8996 89.6415 15.2751 89.6308 12.571C89.6263 11.7419 89.6217 10.9128 89.617 10.0586C89.6158 9.41141 89.6145 8.76425 89.6132 8.09748C89.6094 7.58413 89.6094 7.58413 89.6055 7.06041C89.6053 6.22528 89.631 5.39021 89.6622 4.55566C90.1631 4.05665 90.1631 4.05665 91.7833 4Z" fill="white"/>
<path d="M0 4.05664C60.4958 4.05664 60.4958 4.05664 69.5637 12.727C75.7352 19.3413 77.8485 27.0634 77.7426 36.0129C77.392 42.8237 74.898 50.6607 69.998 55.7005C59.1 65.0968 47.4525 64.6488 33.8113 64.5307C28.7697 64.4998 23.728 64.4689 18.5336 64.4371C18.5336 76.129 18.5336 87.8208 18.5336 99.867C12.4175 99.867 6.30143 99.867 0 99.867C0 68.2496 0 36.6322 0 4.05664ZM18.5336 20.025C18.4866 20.9285 18.4748 21.8338 18.4767 22.7385C18.4768 23.3179 18.4768 23.8974 18.4769 24.4943C18.4794 25.1248 18.482 25.7554 18.4847 26.405C18.4854 27.0467 18.4861 27.6884 18.4868 28.3495C18.4888 30.0584 18.4937 31.7672 18.4992 33.476C18.5043 35.2186 18.5066 36.9613 18.5092 38.7039C18.5145 42.1252 18.5231 45.5464 18.5336 48.9677C22.1239 49.006 25.7141 49.032 29.3045 49.05C30.5234 49.0575 31.7422 49.0676 32.961 49.0807C34.7231 49.099 36.485 49.1074 38.2471 49.1139C38.7832 49.1217 39.3194 49.1294 39.8718 49.1373C45.5276 49.1386 51.2848 48.4082 55.6008 44.4766C58.3415 41.5384 58.9223 37.9029 59.1072 33.9974C58.8685 29.4319 57.2969 25.9979 53.9729 22.8632C49.2233 19.1024 42.7137 19.4478 36.9557 19.4597C36.4414 19.4593 35.9271 19.4588 35.3973 19.4583C34.321 19.458 33.2446 19.4589 32.1683 19.461C30.5131 19.4637 28.8579 19.461 27.2027 19.4578C26.1542 19.4581 25.1058 19.4588 24.0573 19.4597C23.3123 19.4582 23.3123 19.4582 22.5522 19.4567C22.0971 19.4583 21.642 19.4598 21.173 19.4614C20.771 19.4618 20.369 19.4622 19.9548 19.4627C19.0255 19.4258 19.0255 19.4258 18.5336 20.025Z" fill="white"/>
</g>
<defs>
<clipPath id="clip0_532_203">
<rect width="283" height="102" fill="white"/>
</clipPath>
</defs>
</svg>
