<svg width="158" height="40" viewBox="0 0 158 40" fill="none" xmlns="http://www.w3.org/2000/svg">
<path d="M18.2031 34.2556C18.1548 34.2834 18.0953 34.2834 18.0469 34.2556L5.81842 27.1954C5.79467 27.1817 5.77495 27.162 5.76123 27.1382C5.74751 27.1145 5.7403 27.0875 5.7403 27.0601V12.9398C5.7403 12.9124 5.74751 12.8854 5.76123 12.8617C5.77495 12.8379 5.79467 12.8182 5.81842 12.8045L18.0469 5.74432C18.0706 5.7306 18.0975 5.72339 18.125 5.72339C18.1524 5.72339 18.1794 5.7306 18.2031 5.74432L23.1911 8.62401C23.2219 8.64179 23.2578 8.64854 23.2929 8.64314C23.3281 8.63773 23.3603 8.62051 23.3844 8.59432L24.8986 6.94276C24.9144 6.92551 24.9261 6.90495 24.9329 6.88254C24.9397 6.86017 24.9414 6.83654 24.9379 6.81342C24.9343 6.79029 24.9256 6.76826 24.9124 6.74895C24.8992 6.72964 24.8818 6.71351 24.8615 6.70182L18.2031 2.8576C18.1794 2.84389 18.1524 2.83667 18.125 2.83667C18.0975 2.83667 18.0706 2.84389 18.0469 2.8576L3.31842 11.3609C3.29467 11.3746 3.27495 11.3943 3.26123 11.4181C3.24751 11.4418 3.2403 11.4688 3.2403 11.4962V28.5032C3.2403 28.5592 3.26998 28.6107 3.31842 28.6385L18.0469 37.1421C18.0706 37.1559 18.0975 37.1631 18.125 37.1631C18.1524 37.1631 18.1794 37.1559 18.2031 37.1421L32.9315 28.6385C32.9553 28.6248 32.9753 28.6051 32.9887 28.5814C33.0025 28.5576 33.0097 28.5307 33.0097 28.5032V20.8148C33.0097 20.7914 33.0047 20.7683 32.9944 20.7472C32.9844 20.7261 32.9697 20.7076 32.9512 20.6929C32.9331 20.6783 32.9119 20.6679 32.889 20.6626C32.8662 20.6573 32.8425 20.6572 32.8197 20.6623L30.6322 21.1479C30.5975 21.1557 30.5665 21.175 30.5442 21.2027C30.522 21.2304 30.5099 21.2649 30.5098 21.3004V27.0599C30.5098 27.0874 30.5026 27.1143 30.4889 27.1381C30.4752 27.1618 30.4555 27.1815 30.4317 27.1953L18.2031 34.2556Z" fill="white"/>
<path d="M33.0188 16.5213C33.0188 16.4956 33.0125 16.4702 33.0003 16.4476C32.9882 16.4249 32.9703 16.4056 32.9491 16.3914C32.9275 16.3772 32.9028 16.3685 32.8772 16.3661C32.8519 16.3636 32.826 16.3676 32.8022 16.3775L19.1288 22.1039C18.953 22.1775 19.0369 22.4419 19.223 22.4007L32.9013 19.3638C32.936 19.3561 32.9672 19.3367 32.9894 19.3089C33.0116 19.2812 33.0238 19.2466 33.0235 19.211L33.0188 16.5213ZM16.5949 17.8486C16.4661 17.9891 16.653 18.1939 16.8047 18.0786L28.6007 9.1002C28.6211 9.0846 28.6374 9.06423 28.6481 9.04085C28.6587 9.01748 28.6635 8.99182 28.6619 8.96617C28.6602 8.94051 28.6523 8.91567 28.6388 8.89379C28.6253 8.87192 28.6066 8.85373 28.5844 8.84082L26.2575 7.49176C26.2267 7.47392 26.1907 7.4671 26.1555 7.47251C26.1203 7.47792 26.088 7.49517 26.0639 7.52145L16.5949 17.8486ZM29.8708 9.70457C29.8953 9.68592 29.9247 9.67489 29.9555 9.67292C29.9862 9.67095 30.0168 9.6781 30.0435 9.69348L32.9316 11.361C32.9557 11.3747 32.9753 11.3944 32.9888 11.4182C33.0025 11.4419 33.0097 11.4689 33.0097 11.4963V14.8314C33.0097 14.8622 33.0007 14.8924 32.9838 14.918C32.9666 14.9436 32.9422 14.9636 32.9138 14.9755L11.8791 23.7849C11.71 23.8558 11.5782 23.6275 11.7241 23.5164L29.8708 9.70457Z" fill="white"/>
<path fill-rule="evenodd" clip-rule="evenodd" d="M11.8791 23.785C11.71 23.8559 11.5782 23.6276 11.7241 23.5165L29.8708 9.70449C29.8953 9.68583 29.9247 9.67486 29.9555 9.67293C29.9862 9.67096 30.0168 9.67814 30.0435 9.69355L32.9316 11.3611C32.9557 11.3748 32.9753 11.3945 32.9888 11.4182C33.0025 11.442 33.0097 11.4689 33.0097 11.4964V14.8315C33.0097 14.8623 33.0007 14.8924 32.9838 14.9181C32.9666 14.9437 32.9422 14.9637 32.9138 14.9756L11.8791 23.785Z" fill="white"/>
<path d="M47.91 30V10H55.4103C56.9465 10 58.2356 10.2865 59.2775 10.8594C60.3256 11.4323 61.1165 12.2201 61.6503 13.2227C62.1906 14.2187 62.4609 15.3516 62.4609 16.6211C62.4609 17.9037 62.1906 19.043 61.6503 20.0391C61.11 21.0352 60.3125 21.8197 59.2578 22.3926C58.2031 22.959 56.9044 23.2422 55.3612 23.2422H50.3906V20.2637H54.8731C55.7715 20.2637 56.5072 20.1074 57.08 19.7949C57.6531 19.4824 58.0762 19.0527 58.3497 18.5059C58.6297 17.959 58.7697 17.3307 58.7697 16.6211C58.7697 15.9115 58.6297 15.2865 58.3497 14.7461C58.0762 14.2057 57.6497 13.7858 57.0703 13.4863C56.4975 13.1803 55.7584 13.0273 54.8534 13.0273H51.5331V30H47.91ZM67.6118 10V30H64.0765V10H67.6118ZM74.1884 30.3027C73.2378 30.3027 72.3819 30.1335 71.62 29.7949C70.865 29.4499 70.2659 28.9421 69.8231 28.2715C69.3872 27.6009 69.169 26.7741 69.169 25.791C69.169 24.9447 69.3253 24.2448 69.6378 23.6914C69.9503 23.138 70.3765 22.6953 70.9169 22.3633C71.4575 22.0312 72.0659 21.7806 72.7431 21.6113C73.4268 21.4355 74.1331 21.3086 74.8622 21.2305C75.7412 21.1393 76.454 21.0579 77.0009 20.9863C77.5478 20.9082 77.945 20.791 78.1925 20.6347C78.4462 20.472 78.5731 20.2213 78.5731 19.8828V19.8242C78.5731 19.0885 78.355 18.5189 77.919 18.1152C77.4828 17.7116 76.8544 17.5097 76.034 17.5097C75.1684 17.5097 74.4815 17.6986 73.9737 18.0762C73.4722 18.4538 73.1337 18.8997 72.9581 19.4141L69.6572 18.9453C69.9175 18.0338 70.3472 17.2721 70.9462 16.6602C71.5453 16.0417 72.2778 15.5794 73.1434 15.2734C74.0094 14.9609 74.9665 14.8047 76.0147 14.8047C76.7372 14.8047 77.4565 14.8893 78.1728 15.0586C78.889 15.2279 79.5434 15.5078 80.1356 15.8984C80.7281 16.2826 81.2034 16.8066 81.5615 17.4707C81.9262 18.1347 82.1084 18.9648 82.1084 19.9609V30H78.71V27.9395H78.5928C78.3778 28.3561 78.0753 28.7467 77.6847 29.1113C77.3003 29.4694 76.8153 29.7591 76.2294 29.9805C75.65 30.1953 74.9697 30.3027 74.1884 30.3027ZM75.1065 27.7051C75.8159 27.7051 76.4312 27.5651 76.9522 27.2852C77.4731 26.9987 77.8734 26.6211 78.1534 26.1523C78.4397 25.6836 78.5831 25.1725 78.5831 24.6191V22.8516C78.4722 22.9427 78.2834 23.0273 78.0165 23.1055C77.7562 23.1836 77.4631 23.2519 77.1378 23.3105C76.8122 23.3691 76.49 23.4212 76.1709 23.4668C75.8518 23.5124 75.5753 23.5514 75.3409 23.584C74.8134 23.6556 74.3415 23.7728 73.9247 23.9355C73.5081 24.0983 73.1793 24.3262 72.9384 24.6191C72.6975 24.9056 72.5772 25.2767 72.5772 25.7324C72.5772 26.3835 72.8147 26.875 73.29 27.207C73.7653 27.5391 74.3706 27.7051 75.1065 27.7051ZM87.8231 21.2109V30H84.2881V15H87.6668V17.5488H87.8428C88.1878 16.709 88.7378 16.0417 89.4931 15.5469C90.255 15.0521 91.1956 14.8047 92.3153 14.8047C93.3506 14.8047 94.2522 15.026 95.0206 15.4687C95.7953 15.9115 96.394 16.5527 96.8175 17.3926C97.2472 18.2324 97.4587 19.2513 97.4522 20.4492V30H93.9168V20.9961C93.9168 19.9935 93.6565 19.209 93.1356 18.6426C92.6215 18.0762 91.9084 17.793 90.9972 17.793C90.3784 17.793 89.8284 17.9297 89.3465 18.2031C88.8715 18.4701 88.4972 18.8574 88.2237 19.3652C87.9565 19.873 87.8231 20.4883 87.8231 21.2109ZM106.312 30.293C104.807 30.293 103.509 29.9805 102.415 29.3555C101.328 28.724 100.491 27.832 99.9053 26.6797C99.3193 25.5208 99.0262 24.1569 99.0262 22.5879C99.0262 21.0449 99.3193 19.6907 99.9053 18.5254C100.498 17.3535 101.325 16.4421 102.386 15.791C103.447 15.1335 104.694 14.8047 106.126 14.8047C107.05 14.8047 107.923 14.9544 108.743 15.2539C109.57 15.5469 110.299 16.0026 110.931 16.6211C111.569 17.2396 112.07 18.0273 112.435 18.9844C112.799 19.9349 112.982 21.0677 112.982 22.3828V23.4668H100.687V21.084H109.593C109.586 20.4069 109.44 19.8047 109.153 19.2773C108.867 18.7435 108.467 18.3236 107.952 18.0176C107.444 17.7116 106.852 17.5586 106.175 17.5586C105.452 17.5586 104.817 17.7344 104.271 18.0859C103.724 18.431 103.297 18.8867 102.991 19.4531C102.692 20.013 102.539 20.6282 102.532 21.2988V23.3789C102.532 24.2513 102.692 25 103.011 25.625C103.33 26.2435 103.776 26.7187 104.349 27.0508C104.922 27.3763 105.592 27.5391 106.36 27.5391C106.875 27.5391 107.34 27.4674 107.757 27.3242C108.173 27.1745 108.535 26.9564 108.841 26.6699C109.147 26.3835 109.378 26.0287 109.534 25.6055L112.835 25.9766C112.627 26.849 112.229 27.6107 111.643 28.2617C111.064 28.9062 110.322 29.4076 109.417 29.7656C108.512 30.1172 107.477 30.293 106.312 30.293ZM122.087 15V17.7344H113.464V15H122.087ZM115.593 11.4062H119.128V25.4883C119.128 25.9635 119.2 26.3281 119.343 26.582C119.493 26.8294 119.688 26.9987 119.929 27.0898C120.17 27.181 120.437 27.2266 120.73 27.2266C120.951 27.2266 121.153 27.2103 121.335 27.1777C121.524 27.1452 121.667 27.1159 121.765 27.0898L122.361 29.8535C122.172 29.9186 121.902 29.9902 121.55 30.0683C121.205 30.1465 120.782 30.1921 120.281 30.2051C119.395 30.2311 118.598 30.0977 117.888 29.8047C117.178 29.5052 116.615 29.043 116.199 28.418C115.788 27.793 115.587 27.0117 115.593 26.0742V11.4062ZM131.267 15V17.7344H122.399V15H131.267ZM124.616 30V13.584C124.616 12.5749 124.825 11.735 125.241 11.0644C125.664 10.3939 126.231 9.89256 126.94 9.56053C127.65 9.2285 128.438 9.0625 129.304 9.0625C129.916 9.0625 130.459 9.11131 130.935 9.20897C131.41 9.30663 131.761 9.39453 131.989 9.47266L131.286 12.207C131.136 12.1615 130.947 12.1159 130.72 12.0703C130.492 12.0182 130.238 11.9922 129.958 11.9922C129.3 11.9922 128.835 12.1517 128.562 12.4707C128.295 12.7832 128.161 13.2324 128.161 13.8183V30H124.616ZM136.466 30.3027C135.516 30.3027 134.66 30.1335 133.898 29.7949C133.143 29.4499 132.544 28.9421 132.101 28.2715C131.665 27.6009 131.447 26.7741 131.447 25.791C131.447 24.9447 131.603 24.2448 131.916 23.6914C132.228 23.138 132.654 22.6953 133.195 22.3633C133.735 22.0312 134.344 21.7806 135.021 21.6113C135.705 21.4355 136.411 21.3086 137.14 21.2305C138.019 21.1393 138.732 21.0579 139.279 20.9863C139.826 20.9082 140.223 20.791 140.47 20.6347C140.724 20.472 140.851 20.2213 140.851 19.8828V19.8242C140.851 19.0885 140.633 18.5189 140.197 18.1152C139.761 17.7116 139.132 17.5097 138.312 17.5097C137.446 17.5097 136.759 17.6986 136.252 18.0762C135.75 18.4538 135.412 18.8997 135.236 19.4141L131.935 18.9453C132.196 18.0338 132.625 17.2721 133.224 16.6602C133.823 16.0417 134.556 15.5794 135.421 15.2734C136.287 14.9609 137.244 14.8047 138.292 14.8047C139.015 14.8047 139.735 14.8893 140.451 15.0586C141.167 15.2279 141.821 15.5078 142.413 15.8984C143.006 16.2826 143.481 16.8066 143.839 17.4707C144.204 18.1347 144.386 18.9648 144.386 19.9609V30H140.988V27.9395H140.871C140.656 28.3561 140.353 28.7467 139.962 29.1113C139.578 29.4694 139.093 29.7591 138.507 29.9805C137.928 30.1953 137.247 30.3027 136.466 30.3027ZM137.384 27.7051C138.094 27.7051 138.709 27.5651 139.23 27.2852C139.751 26.9987 140.151 26.6211 140.431 26.1523C140.717 25.6836 140.861 25.1725 140.861 24.6191V22.8516C140.75 22.9427 140.561 23.0273 140.294 23.1055C140.034 23.1836 139.741 23.2519 139.416 23.3105C139.09 23.3691 138.768 23.4212 138.449 23.4668C138.13 23.5124 137.853 23.5514 137.619 23.584C137.091 23.6556 136.619 23.7728 136.202 23.9355C135.786 24.0983 135.457 24.3262 135.216 24.6191C134.975 24.9056 134.855 25.2767 134.855 25.7324C134.855 26.3835 135.092 26.875 135.568 27.207C136.043 27.5391 136.649 27.7051 137.384 27.7051ZM150.101 10V30H146.566V10H150.101ZM155.897 10V30H152.361V10H155.897Z" fill="white"/>
</svg>
