<svg width="230" height="40" viewBox="0 0 230 40" fill="none" xmlns="http://www.w3.org/2000/svg">
<path d="M46.6689 32.3081V8.99805H54.5451C56.3738 8.99805 57.8687 9.32812 59.0295 9.98828C60.1979 10.6408 61.063 11.5248 61.6246 12.6403C62.1861 13.7557 62.4669 15.0001 62.4669 16.3735C62.4669 17.7469 62.1861 18.9951 61.6246 20.1181C61.0707 21.2411 60.2133 22.1365 59.0523 22.8042C57.8913 23.4644 56.4041 23.7945 54.5905 23.7945H48.9451V21.2904H54.4995C55.7515 21.2904 56.7569 21.0742 57.5156 20.6417C58.2746 20.2092 58.8246 19.6249 59.1661 18.8889C59.5151 18.1453 59.6897 17.3068 59.6897 16.3735C59.6897 15.4402 59.5151 14.6055 59.1661 13.8695C58.8246 13.1335 58.2707 12.5568 57.5043 12.1394C56.7379 11.7145 55.7213 11.502 54.4541 11.502H49.4915V32.3081H46.6689ZM66.6497 32.3081V14.8256H69.2448V17.4662H69.4269C69.7456 16.6011 70.3223 15.8993 71.1569 15.3605C71.9915 14.8218 72.9325 14.5524 73.9795 14.5524C74.1769 14.5524 74.4236 14.5562 74.7195 14.5638C75.0154 14.5714 75.2392 14.5827 75.391 14.5979V17.3296C75.3 17.3068 75.0913 17.2727 74.7648 17.2271C74.4461 17.174 74.1084 17.1475 73.752 17.1475C72.902 17.1475 72.1433 17.3258 71.4756 17.6824C70.8154 18.0314 70.2918 18.5171 69.9048 19.1393C69.5254 19.7539 69.3359 20.4558 69.3359 21.2449V32.3081H66.6497ZM85.1451 32.6722C83.5669 32.6722 82.182 32.2968 80.9907 31.5455C79.8072 30.7942 78.8813 29.7435 78.2136 28.3927C77.5536 27.0422 77.2233 25.4638 77.2233 23.6579C77.2233 21.8368 77.5536 20.2471 78.2136 18.8889C78.8813 17.5306 79.8072 16.4759 80.9907 15.7247C82.182 14.9735 83.5669 14.5979 85.1451 14.5979C86.7236 14.5979 88.1043 14.9735 89.2882 15.7247C90.4795 16.4759 91.4051 17.5306 92.0654 18.8889C92.733 20.2471 93.0669 21.8368 93.0669 23.6579C93.0669 25.4638 92.733 27.0422 92.0654 28.3927C91.4051 29.7435 90.4795 30.7942 89.2882 31.5455C88.1043 32.2968 86.7236 32.6722 85.1451 32.6722ZM85.1451 30.2594C86.3441 30.2594 87.3305 29.9519 88.1043 29.3373C88.8784 28.7227 89.4513 27.9147 89.823 26.9132C90.1948 25.9114 90.3807 24.8264 90.3807 23.6579C90.3807 22.4893 90.1948 21.4005 89.823 20.3913C89.4513 19.3821 88.8784 18.5664 88.1043 17.9442C87.3305 17.322 86.3441 17.0109 85.1451 17.0109C83.9464 17.0109 82.96 17.322 82.1859 17.9442C81.412 18.5664 80.8389 19.3821 80.4671 20.3913C80.0954 21.4005 79.9095 22.4893 79.9095 23.6579C79.9095 24.8264 80.0954 25.9114 80.4671 26.9132C80.8389 27.9147 81.412 28.7227 82.1859 29.3373C82.96 29.9519 83.9464 30.2594 85.1451 30.2594ZM97.1672 32.3081V14.8256H99.7623V17.5572H99.99C100.354 16.6239 100.942 15.8993 101.754 15.3833C102.566 14.8597 103.541 14.5979 104.679 14.5979C105.833 14.5979 106.793 14.8597 107.559 15.3833C108.333 15.8993 108.936 16.6239 109.369 17.5572H109.551C109.998 16.6542 110.67 15.9372 111.565 15.406C112.461 14.8673 113.534 14.5979 114.786 14.5979C116.349 14.5979 117.628 15.0873 118.622 16.0662C119.616 17.0374 120.113 18.5512 120.113 20.6075V32.3081H117.427V20.6075C117.427 19.3176 117.074 18.3957 116.368 17.8417C115.663 17.2878 114.832 17.0109 113.876 17.0109C112.647 17.0109 111.694 17.3827 111.019 18.1263C110.344 18.8623 110.006 19.7956 110.006 20.9262V32.3081H107.274V20.3344C107.274 19.3404 106.952 18.5398 106.307 17.9328C105.662 17.3182 104.831 17.0109 103.814 17.0109C103.116 17.0109 102.464 17.1968 101.857 17.5686C101.257 17.9404 100.772 18.4564 100.4 19.1165C100.035 19.7691 99.8533 20.5241 99.8533 21.3815V32.3081H97.1672ZM125.024 38.864V14.8256H127.619V17.6027H127.938C128.135 17.2992 128.408 16.9122 128.758 16.4418C129.114 15.9637 129.623 15.5388 130.283 15.167C130.95 14.7876 131.853 14.5979 132.992 14.5979C134.464 14.5979 135.761 14.9659 136.884 15.7019C138.007 16.438 138.884 17.4813 139.513 18.832C140.143 20.1826 140.458 21.7761 140.458 23.6123C140.458 25.4638 140.143 27.0686 139.513 28.4268C138.884 29.7776 138.011 30.8247 136.896 31.5683C135.78 32.3042 134.494 32.6722 133.037 32.6722C131.914 32.6722 131.015 32.4863 130.34 32.1145C129.664 31.7353 129.145 31.3065 128.78 30.8283C128.416 30.3427 128.135 29.9406 127.938 29.6219H127.71V38.864H125.024ZM127.665 23.5668C127.665 24.8871 127.858 26.0519 128.245 27.0612C128.632 28.0627 129.198 28.8481 129.941 29.417C130.685 29.9786 131.595 30.2594 132.673 30.2594C133.796 30.2594 134.733 29.9635 135.484 29.3717C136.243 28.7722 136.812 27.9678 137.192 26.9586C137.578 25.9419 137.772 24.8112 137.772 23.5668C137.772 22.3376 137.582 21.2297 137.203 20.2433C136.831 19.2493 136.266 18.4639 135.507 17.8873C134.756 17.303 133.811 17.0109 132.673 17.0109C131.58 17.0109 130.662 17.2878 129.918 17.8417C129.175 18.3881 128.613 19.1545 128.234 20.1409C127.855 21.1197 127.665 22.2617 127.665 23.5668ZM152.159 14.8256V17.1019H143.099V14.8256H152.159ZM145.739 10.637H148.425V27.3001C148.425 28.0588 148.535 28.6278 148.755 29.0073C148.983 29.3791 149.272 29.6296 149.62 29.7586C149.977 29.8799 150.353 29.9406 150.747 29.9406C151.043 29.9406 151.286 29.9255 151.476 29.895C151.665 29.8573 151.817 29.8268 151.931 29.804L152.477 32.217C152.295 32.2853 152.041 32.3537 151.715 32.4219C151.388 32.4978 150.975 32.5358 150.474 32.5358C149.715 32.5358 148.972 32.3727 148.243 32.0463C147.523 31.7201 146.923 31.2229 146.445 30.5553C145.975 29.8876 145.739 29.0453 145.739 28.0286V10.637ZM156.939 32.3081V8.99805H159.762V29.804H170.597V32.3081H156.939ZM181.706 32.6722C180.128 32.6722 178.743 32.2968 177.552 31.5455C176.368 30.7942 175.442 29.7435 174.774 28.3927C174.114 27.0422 173.784 25.4638 173.784 23.6579C173.784 21.8368 174.114 20.2471 174.774 18.8889C175.442 17.5306 176.368 16.4759 177.552 15.7247C178.743 14.9735 180.128 14.5979 181.706 14.5979C183.284 14.5979 184.665 14.9735 185.849 15.7247C187.04 16.4759 187.966 17.5306 188.626 18.8889C189.294 20.2471 189.628 21.8368 189.628 23.6579C189.628 25.4638 189.294 27.0422 188.626 28.3927C187.966 29.7435 187.04 30.7942 185.849 31.5455C184.665 32.2968 183.284 32.6722 181.706 32.6722ZM181.706 30.2594C182.905 30.2594 183.891 29.9519 184.665 29.3373C185.439 28.7227 186.012 27.9147 186.384 26.9132C186.756 25.9114 186.942 24.8264 186.942 23.6579C186.942 22.4893 186.756 21.4005 186.384 20.3913C186.012 19.3821 185.439 18.5664 184.665 17.9442C183.891 17.322 182.905 17.0109 181.706 17.0109C180.507 17.0109 179.52 17.322 178.747 17.9442C177.973 18.5664 177.4 19.3821 177.028 20.3913C176.656 21.4005 176.47 22.4893 176.47 23.6579C176.47 24.8264 176.656 25.9114 177.028 26.9132C177.4 27.9147 177.973 28.7227 178.747 29.3373C179.52 29.9519 180.507 30.2594 181.706 30.2594ZM200.83 32.6722C199.252 32.6722 197.867 32.2968 196.676 31.5455C195.492 30.7942 194.566 29.7435 193.899 28.3927C193.239 27.0422 192.908 25.4638 192.908 23.6579C192.908 21.8368 193.239 20.2471 193.899 18.8889C194.566 17.5306 195.492 16.4759 196.676 15.7247C197.867 14.9735 199.252 14.5979 200.83 14.5979C202.408 14.5979 203.789 14.9735 204.973 15.7247C206.165 16.4759 207.09 17.5306 207.75 18.8889C208.418 20.2471 208.752 21.8368 208.752 23.6579C208.752 25.4638 208.418 27.0422 207.75 28.3927C207.09 29.7435 206.165 30.7942 204.973 31.5455C203.789 32.2968 202.408 32.6722 200.83 32.6722ZM200.83 30.2594C202.029 30.2594 203.016 29.9519 203.789 29.3373C204.564 28.7227 205.136 27.9147 205.508 26.9132C205.88 25.9114 206.066 24.8264 206.066 23.6579C206.066 22.4893 205.88 21.4005 205.508 20.3913C205.136 19.3821 204.564 18.5664 203.789 17.9442C203.016 17.322 202.029 17.0109 200.83 17.0109C199.631 17.0109 198.645 17.322 197.871 17.9442C197.097 18.5664 196.524 19.3821 196.152 20.3913C195.78 21.4005 195.595 22.4893 195.595 23.6579C195.595 24.8264 195.78 25.9114 196.152 26.9132C196.524 27.9147 197.097 28.7227 197.871 29.3373C198.645 29.9519 199.631 30.2594 200.83 30.2594ZM212.852 38.864V14.8256H215.447V17.6027H215.766C215.963 17.2992 216.237 16.9122 216.586 16.4418C216.942 15.9637 217.451 15.5388 218.111 15.167C218.778 14.7876 219.682 14.5979 220.82 14.5979C222.292 14.5979 223.589 14.9659 224.712 15.7019C225.835 16.438 226.712 17.4813 227.342 18.832C227.971 20.1826 228.286 21.7761 228.286 23.6123C228.286 25.4638 227.971 27.0686 227.342 28.4268C226.712 29.7776 225.839 30.8247 224.724 31.5683C223.608 32.3042 222.322 32.6722 220.865 32.6722C219.742 32.6722 218.843 32.4863 218.168 32.1145C217.492 31.7353 216.973 31.3065 216.608 30.8283C216.244 30.3427 215.963 29.9406 215.766 29.6219H215.538V38.864H212.852ZM215.493 23.5668C215.493 24.8871 215.686 26.0519 216.073 27.0612C216.46 28.0627 217.026 28.8481 217.769 29.417C218.513 29.9786 219.424 30.2594 220.501 30.2594C221.624 30.2594 222.561 29.9635 223.312 29.3717C224.071 28.7722 224.64 27.9678 225.019 26.9586C225.406 25.9419 225.6 24.8112 225.6 23.5668C225.6 22.3376 225.41 21.2297 225.031 20.2433C224.659 19.2493 224.094 18.4639 223.335 17.8873C222.584 17.303 221.639 17.0109 220.501 17.0109C219.408 17.0109 218.49 17.2878 217.747 17.8417C217.003 18.3881 216.442 19.1545 216.062 20.1409C215.683 21.1197 215.493 22.2617 215.493 23.5668Z" fill="white"/>
<path d="M19.2308 38.4615C29.8516 38.4615 38.4615 29.8516 38.4615 19.2308C38.4615 8.60991 29.8516 0 19.2308 0C8.60991 0 0 8.60991 0 19.2308C0 29.8516 8.60991 38.4615 19.2308 38.4615Z" fill="white"/>
<path d="M19.2308 38.4615C29.8516 38.4615 38.4615 29.8516 38.4615 19.2308C38.4615 8.60991 29.8516 0 19.2308 0C8.60991 0 0 8.60991 0 19.2308C0 29.8516 8.60991 38.4615 19.2308 38.4615Z" fill="url(#paint0_linear_408_2)" fill-opacity="0.7"/>
<defs>
<linearGradient id="paint0_linear_408_2" x1="10.4688" y1="3.43823" x2="25.3274" y2="35.6308" gradientUnits="userSpaceOnUse">
<stop stop-color="white" stop-opacity="0"/>
<stop offset="1" stop-color="#CCCCCC" stop-opacity="0.8"/>
</linearGradient>
</defs>
</svg>
