<svg width="155" height="40" viewBox="0 0 155 40" fill="none" xmlns="http://www.w3.org/2000/svg">
<path d="M151.687 6.17032C151.693 6.19545 151.373 6.56617 151.354 6.59131C151.04 7.03743 150.726 7.48355 150.412 7.92967C150.022 8.48889 149.632 9.04811 149.243 9.60733C149.117 9.78955 149.111 9.78955 148.91 9.72671C147.722 9.356 146.912 9.29944 145.85 10.0974C144.807 10.8829 144.116 12.0704 143.758 13.3208C143.054 15.7588 143.374 18.5674 143.362 21.0745C143.355 22.7899 143.362 24.4989 143.362 26.2143C143.362 26.541 143.387 26.5159 143.066 26.5159C141.364 26.5159 139.654 26.5159 137.952 26.5159C137.945 26.5159 137.933 26.5159 137.927 26.5159C137.656 26.5159 137.656 26.5159 137.656 26.2457C137.656 23.1606 137.656 20.0754 137.656 16.9903C137.656 12.3657 139.051 7.6909 143.355 5.2718C144.713 4.51151 146.327 3.946 147.942 3.99627C148.759 4.0214 149.563 4.20362 150.311 4.53664C151.423 5.0456 151.505 5.21525 151.687 6.17032Z" fill="white"/>
<path d="M86.2457 7.47677C86.0698 7.64642 85.9127 7.79722 85.7493 7.94802C84.6874 8.9408 83.6193 9.93357 82.5511 10.9263C82.5385 10.9389 82.5259 10.9515 82.5134 10.964C82.35 11.1148 82.35 11.1148 82.1804 10.9766C81.7217 10.587 81.2818 10.1849 80.8043 9.82675C80.1948 9.37435 79.5413 8.99106 78.7999 8.80256C78.3098 8.67689 77.8197 8.65804 77.3233 8.77114C76.9652 8.85911 76.6573 9.04133 76.3997 9.30523C76.0666 9.64453 76.0352 9.99012 76.3054 10.3797C76.5819 10.7818 76.9589 11.0771 77.3673 11.3285C78.1087 11.7935 78.9067 12.1642 79.6984 12.5349C80.93 13.113 82.1175 13.7539 83.1794 14.6147C84.4675 15.664 85.2781 17.0024 85.4854 18.6612C85.7305 20.5965 85.2278 22.3307 83.9523 23.8198C82.7899 25.1771 81.3133 26.019 79.5728 26.3835C78.5926 26.5908 77.6061 26.6222 76.607 26.528C75.1932 26.4023 73.8612 26.0065 72.6108 25.3467C71.5803 24.8 70.6943 24.0712 69.9529 23.1727C69.7707 22.9527 69.5822 22.7391 69.3937 22.5192C69.2617 22.3621 69.2555 22.3621 69.4 22.2113C69.9278 21.6709 70.4619 21.1368 70.9959 20.6028C71.6054 19.987 72.2086 19.3649 72.8181 18.7492C72.9689 18.5984 72.9689 18.5984 73.1197 18.7429C73.5344 19.1513 73.9303 19.5723 74.3576 19.9681C75.055 20.6153 75.8467 21.118 76.8081 21.2876C77.7506 21.451 78.6428 21.3316 79.4094 20.697C79.5539 20.5776 79.6796 20.4457 79.7864 20.2949C80.1194 19.8173 80.088 19.2267 79.7173 18.7869C79.4911 18.523 79.2083 18.3345 78.9193 18.1522C78.1716 17.6935 77.3861 17.3103 76.5882 16.9458C75.4132 16.4055 74.2633 15.8211 73.2454 15.0105C72.0704 14.0743 71.2096 12.9182 70.9017 11.429C70.399 8.98478 71.0462 6.89241 72.9626 5.24617C74.0937 4.27224 75.4194 3.75072 76.8898 3.55594C78.913 3.29204 80.7855 3.73187 82.5574 4.69323C83.6318 5.27758 84.5869 6.03159 85.5043 6.82958C85.7368 7.04321 85.9755 7.24428 86.2457 7.47677Z" fill="white"/>
<path d="M46.4216 5.75592C45.6991 7.06286 44.7063 8.34467 43.8643 9.55736C43.7072 9.78356 43.7072 9.78356 43.4433 9.70188C42.2369 9.31231 41.3447 9.33744 40.3205 10.2045C38.3161 11.9136 38.0836 14.2008 37.9831 16.6576C37.9328 17.82 37.9516 18.9761 37.9516 20.1386C37.9454 22.1304 37.9516 24.116 37.9516 26.1078C37.9516 26.1706 37.9516 26.2397 37.9516 26.3026C37.9454 26.5099 37.9454 26.5099 37.7317 26.5099C36.9652 26.5099 36.1986 26.5099 35.4383 26.5099C34.4581 26.5099 33.4842 26.5099 32.504 26.5099C32.2463 26.5099 32.2463 26.5099 32.2463 26.2586C32.2463 25.58 32.2463 24.8951 32.2463 24.2165C32.2463 17.6441 31.0713 9.17407 37.8888 5.30351C39.2083 4.54322 40.7163 3.99657 42.262 3.97772C43.6947 3.96515 44.9765 4.61234 46.2143 5.25953C46.34 5.32236 46.4782 5.66167 46.4216 5.75592Z" fill="white"/>
<path d="M30.2105 13.993C30.1665 13.3836 30.0974 12.7804 29.9592 12.1897C28.9413 7.83534 25.5922 4.45488 21.2756 3.29245C18.8753 2.64526 16.2489 2.7835 13.9743 3.79512C11.8379 4.74391 10.1226 6.37759 8.36949 7.8856C6.55988 9.44388 4.59318 10.6691 2.49453 11.8001C2.29346 11.907 2.08611 12.0138 1.88504 12.1269C1.60857 12.2777 1.59601 12.4348 1.82221 12.6358C1.83478 12.6484 1.85363 12.661 1.86619 12.6735C3.44332 14.0433 4.90735 15.5199 6.23314 17.1347C6.99971 18.0647 7.48353 19.1266 7.63434 20.3267C7.70974 20.9048 7.74115 21.4828 7.74115 22.0609C7.74115 27.3012 7.74115 32.5416 7.74115 37.7882C7.74115 37.8636 7.74744 37.939 7.74115 38.0081C7.72859 38.1401 7.79142 38.1841 7.91709 38.1841C8.21241 38.1778 8.50773 38.1715 8.79676 38.1275C10.0283 37.9516 11.109 37.4552 12.0264 36.6195C13.3711 35.388 14.0371 33.8548 14.0371 32.0326C14.0371 30.0722 14.0371 28.1055 14.0371 26.1451C14.0371 26.0446 14.0183 25.944 14.056 25.8435C14.0748 25.8372 14.0937 25.8309 14.1125 25.8372C14.1565 25.8498 14.2005 25.8624 14.2445 25.8749C15.3378 26.2959 16.4688 26.5284 17.6312 26.6038C18.8062 26.6855 19.9686 26.5849 21.1122 26.3085C23.0223 25.8498 24.7188 24.9827 26.1954 23.6883C27.6846 22.3876 28.7779 20.8168 29.4754 18.9758C30.0723 17.3735 30.3299 15.7147 30.2105 13.993ZM18.3412 19.7863C15.765 19.7612 13.3648 17.694 13.3836 14.7533C13.4025 11.8316 15.809 9.74548 18.4041 9.79575C21.1687 9.76433 23.4308 12.0829 23.3868 14.8476C23.3554 17.694 20.9802 19.8115 18.3412 19.7863Z" fill="white"/>
<path d="M110.883 13.4403C110.047 7.06266 103.739 2.65801 97.4866 3.72618C96.3682 3.91469 95.256 4.24771 94.2319 4.74409C90.1916 6.68566 88.049 10.8515 88.0616 15.2185C88.0741 21.0934 88.0679 26.9684 88.0741 32.8434C88.0741 34.4079 88.0741 35.9788 88.0741 37.5433C88.0741 37.757 88.0741 37.9643 88.0741 38.178C88.0804 38.3853 88.0804 38.3979 88.2941 38.3853C88.6271 38.3665 88.9538 38.3539 89.2806 38.2911C90.7949 38.0146 92.039 37.2794 92.994 36.0793C93.8926 34.9483 94.3198 33.6539 94.3198 32.215C94.3135 30.0347 94.3198 27.8481 94.3198 25.6677C94.3198 25.5672 94.3198 25.4667 94.3198 25.3159C94.722 25.5232 95.0864 25.6992 95.4571 25.85C97.2039 26.5537 99.0135 26.7548 100.88 26.5788C102.243 26.4532 103.538 26.0762 104.75 25.4415C106.202 24.6875 107.421 23.6445 108.451 22.3753C110.022 20.4463 110.826 18.2219 110.971 15.7526C111.015 14.9797 110.983 14.2069 110.883 13.4403ZM99.6796 19.7865C96.984 19.7865 94.6654 17.6062 94.6717 14.7787C94.678 11.8946 97.0531 9.75823 99.6733 9.79593C102.369 9.75195 104.675 11.9637 104.681 14.7661C104.681 17.7067 102.262 19.7865 99.6796 19.7865Z" fill="white"/>
<path d="M118.957 16.6699C124.405 16.6699 129.859 16.6636 135.306 16.6636C135.382 16.6636 135.451 16.6636 135.526 16.6636C135.721 16.6573 135.727 16.6573 135.721 16.4562C135.708 15.6394 135.746 14.8163 135.671 13.9994C135.595 13.1512 135.463 12.3218 135.218 11.5049C134.301 8.44493 132.41 6.17034 129.601 4.68118C128.005 3.83293 126.277 3.51247 124.486 3.48106C123.676 3.46849 122.865 3.53132 122.067 3.68212C120.917 3.89576 119.824 4.26648 118.806 4.85083C116.814 5.98812 115.363 7.62809 114.307 9.63877C113.541 11.0965 113.132 12.6485 113.032 14.2885C113 14.81 113.007 15.3378 113.025 15.8593C113.044 16.2615 113.088 16.6636 113.157 17.0657C113.396 18.5046 113.886 19.8618 114.64 21.1122C115.35 22.2998 116.205 23.368 117.279 24.2476C119.139 25.7619 121.301 26.4342 123.663 26.5599C124.518 26.6102 125.379 26.5788 126.227 26.4719C127.314 26.3274 128.357 26.0572 129.356 25.6048C131.492 24.6435 133.139 23.1418 134.339 21.1374C134.785 20.3959 135.149 19.6105 135.545 18.8251C135.463 18.7748 135.407 18.7874 135.357 18.7874C133.484 18.7874 131.612 18.7874 129.739 18.7811C129.57 18.7811 129.463 18.8439 129.375 18.9696C128.734 19.8744 127.873 20.5027 126.849 20.9174C125.561 21.439 124.222 21.6275 122.872 21.2819C120.622 20.7101 119.303 19.1895 118.681 17.0092C118.586 16.6699 118.605 16.6699 118.957 16.6699ZM119.479 11.4672C120.251 10.0849 121.439 9.22407 122.972 8.89733C124.876 8.48891 126.629 8.87848 128.2 10.0472C128.74 10.4493 129.293 11.1091 129.5 11.6369C126.126 11.6369 122.777 11.6369 119.428 11.6369C119.403 11.5489 119.447 11.5112 119.479 11.4672Z" fill="white"/>
<path d="M68.2438 12.3408C67.5463 9.41906 65.9378 7.10677 63.4873 5.39141C61.6086 4.0719 59.4848 3.51896 57.2165 3.48126C56.7138 3.47498 56.2048 3.5064 55.7022 3.56295C54.6654 3.66348 53.6601 3.89596 52.705 4.2981C50.1477 5.35999 48.2689 7.16332 46.9557 9.57614C46.0258 11.2852 45.6111 13.1263 45.6236 14.9736C45.6173 15.9852 45.7179 16.89 45.8875 17.6691C46.3399 19.7175 47.3201 21.4894 48.7276 23.0226C50.7572 25.2406 53.3082 26.3716 56.2865 26.5538C57.1159 26.6041 57.9453 26.579 58.7685 26.4659C59.8995 26.3151 60.9865 26.0197 62.0233 25.5422C63.5124 24.851 64.7502 23.8394 65.8059 22.5953C67.4521 20.6475 68.3632 18.398 68.5266 15.8532C68.602 14.672 68.5203 13.4907 68.2438 12.3408ZM57.0845 19.7866C54.3387 19.7804 52.0892 17.5183 52.0892 14.7976C52.0892 12.0078 54.3889 9.79606 57.072 9.78978C59.8995 9.78349 62.1364 12.1272 62.0861 14.7788C62.1301 17.5498 59.8052 19.7929 57.0845 19.7866Z" fill="white"/>
</svg>
