<svg width="134" height="40" viewBox="0 0 134 40" fill="none" xmlns="http://www.w3.org/2000/svg">
<g clip-path="url(#clip0_313_4)">
<path d="M1.3913 39.0119V1.11629H7.68521L8.45912 4.87281C9.34086 3.70933 10.5009 2.68672 11.9356 1.80324C13.4069 0.921505 15.3009 0.479766 17.6209 0.479766C20.1965 0.479766 22.4956 1.07977 24.52 2.27977C26.5478 3.48324 28.2052 5.18238 29.3217 7.20324C30.4991 9.28672 31.0869 11.6502 31.0869 14.2972C31.0869 16.9424 30.4991 19.3076 29.3217 21.3893C28.193 23.3876 26.5374 25.0659 24.52 26.2589C22.4956 27.4224 20.1948 28.0067 17.6191 28.0067C15.56 28.0067 13.7565 27.6363 12.2104 26.8937C10.6991 26.1824 9.40521 25.1059 8.45564 23.7702V39.0137H1.39477L1.3913 39.0119ZM16.1287 22.0763C18.3739 22.0763 20.2348 21.3511 21.7043 19.9059C23.1756 18.4589 23.913 16.5876 23.913 14.2937C23.913 11.9998 23.1756 10.1111 21.7043 8.63107C20.2348 7.14759 18.3739 6.40672 16.1287 6.40672C13.8487 6.40672 11.9704 7.14759 10.5009 8.62933C9.06434 10.078 8.34956 11.9476 8.34956 14.2415C8.34956 16.5372 9.06434 18.4224 10.5009 19.9059C11.9704 21.3511 13.8487 22.0728 16.1287 22.0728V22.0763ZM40.0661 39.0119L46.4156 25.6224H44.7582L34.1061 1.11107H41.7791L49.4504 19.5859L57.4504 1.11281H64.9583L47.5722 39.0119H40.0661ZM71.3061 27.3685V1.11629H77.5409L78.0939 5.55977C78.9235 4.02237 80.1861 2.7389 81.7374 1.85368C83.3548 0.937158 85.2504 0.478027 87.4209 0.478027C90.8069 0.478027 93.4365 1.50237 95.313 3.54933C97.1895 5.59629 98.1304 8.59629 98.1304 12.5476V27.3685H91.0609V13.1824C91.0609 10.9232 90.5826 9.19629 89.6278 7.99629C88.6695 6.79629 87.1791 6.19629 85.1548 6.19629C83.1687 6.19629 81.5339 6.86585 80.2417 8.20672C78.9913 9.54759 78.3669 11.4189 78.3669 13.8172V27.3685H71.3026H71.3061ZM119.911 28.0032C117.151 28.0032 114.706 27.4398 112.57 26.3093C110.463 25.205 108.722 23.5545 107.548 21.5459C106.334 19.4989 105.725 17.1337 105.725 14.4519C105.725 11.7372 106.317 9.31803 107.492 7.2015C108.706 5.08324 110.363 3.44151 112.461 2.27803C114.595 1.07803 117.097 0.478027 119.969 0.478027C122.654 0.478027 125.026 1.04324 127.089 2.17194C129.11 3.26585 130.774 4.87977 131.889 6.83107C133.068 8.7702 133.656 10.9406 133.656 13.3406C133.656 13.7302 133.636 14.1337 133.602 14.558C133.602 14.9824 133.581 15.4224 133.546 15.8815H112.736C112.883 17.9285 113.619 19.5337 114.944 20.6989C116.304 21.8624 117.943 22.4467 119.857 22.4467C121.292 22.4467 122.489 22.1459 123.443 21.5459C124.403 20.9476 125.169 20.1041 125.652 19.1111H132.828C132.304 20.7859 131.421 22.3354 130.233 23.6624C129.028 25.0241 127.52 26.1111 125.819 26.8398C124.089 27.6137 122.118 28.0032 119.911 28.0032ZM119.967 5.98237C118.238 5.98237 116.711 6.46064 115.386 7.41368C114.061 8.3302 113.214 9.74064 112.847 11.6467H126.48C126.37 9.91977 125.708 8.54237 124.492 7.51977C123.278 6.49368 121.77 5.98237 119.967 5.98237Z" fill="white"/>
</g>
<defs>
<clipPath id="clip0_313_4">
<rect width="133.913" height="40" fill="white"/>
</clipPath>
</defs>
</svg>
