<svg width="124" height="51" viewBox="0 0 124 51" fill="none" xmlns="http://www.w3.org/2000/svg">
<path d="M3.31179 15.4424C4.13937 15.4424 4.93305 15.1134 5.51824 14.5278C6.10342 13.9422 6.43218 13.1479 6.43218 12.3196C6.43218 11.4914 6.10342 10.6971 5.51824 10.1115C4.93305 9.52584 4.13937 9.19683 3.31179 9.19683C2.48421 9.19683 1.69053 9.52584 1.10535 10.1115C0.52016 10.6971 0.191406 11.4914 0.191406 12.3196C0.191406 13.1479 0.52016 13.9422 1.10535 14.5278C1.69053 15.1134 2.48421 15.4424 3.31179 15.4424ZM31.3588 15.4062C28.7104 15.4062 26.4789 16.3137 24.6288 18.1477C22.7962 19.9631 21.8713 22.2144 21.8713 24.8835C21.8713 27.5526 22.7962 29.8039 24.6283 31.6374C26.4613 33.4709 28.7104 34.3789 31.3593 34.3789C34.0083 34.3789 36.2392 33.4714 38.0899 31.6374C39.9401 29.8039 40.8654 27.5707 40.8654 24.8835C40.8654 22.1963 39.9406 19.9631 38.0899 18.1296C36.2392 16.3137 33.9897 15.4062 31.3588 15.4062ZM35.8951 29.4585C34.6608 30.6933 33.1553 31.2925 31.3588 31.2925C29.5815 31.2925 28.0754 30.6752 26.8602 29.4585C25.6264 28.2243 25.0276 26.6994 25.0276 24.8835C25.0276 23.0495 25.6445 21.5247 26.8602 20.308C28.0935 19.0733 29.5815 18.4745 31.3593 18.4745C33.1553 18.4745 34.6794 19.0919 35.8946 20.308C37.1284 21.5428 37.7272 23.0681 37.7272 24.8835C37.7272 26.717 37.1289 28.2424 35.8951 29.4585ZM10.2418 15.4062C7.59337 15.4062 5.3619 16.3137 3.51172 18.1477C1.67913 19.9631 0.753794 22.2144 0.753794 24.8835C0.753794 27.5526 1.67913 29.8039 3.51172 31.6374C5.34382 33.4709 7.59337 34.3789 10.2423 34.3789C12.8907 34.3789 15.1222 33.4714 16.9729 31.6374L17.0819 31.5283L15.1584 42.2041H19.7484V24.8835C19.7484 22.2144 18.823 19.9631 16.9729 18.1296C15.1222 16.3137 12.8912 15.4062 10.2418 15.4062ZM14.7781 29.4585C13.5438 30.6933 12.0382 31.2925 10.2418 31.2925C8.46445 31.2925 6.95839 30.6752 5.74318 29.4585C4.5094 28.2243 3.9106 26.6994 3.9106 24.8835C3.9106 23.0495 4.52749 21.5247 5.74318 20.308C6.97648 19.0733 8.46445 18.4745 10.2423 18.4745C12.0382 18.4745 13.5619 19.0919 14.7776 20.308C16.0113 21.5428 16.6097 23.0681 16.6097 24.8835C16.6282 26.717 16.0118 28.2424 14.7781 29.4585ZM52.4764 15.4062C49.8279 15.4062 47.5965 16.3137 45.7458 18.1477C43.9137 19.9812 42.9884 22.2144 42.9884 24.9016C42.9884 27.5888 43.9137 29.822 45.7458 31.6555C47.5784 33.4895 49.8279 34.397 52.4764 34.397C55.1253 34.397 57.3568 33.4895 59.2069 31.6555C61.0576 29.822 61.983 27.5888 61.983 24.9016C61.983 22.2144 61.0576 19.9812 59.2069 18.1477C57.3568 16.3137 55.1072 15.4062 52.4764 15.4062ZM57.0116 29.4585C55.7784 30.6933 54.2723 31.2925 52.4764 31.2925C50.6985 31.2925 49.193 30.6752 47.9773 29.4585C46.7435 28.2243 46.1447 26.6994 46.1447 24.8835C46.1447 23.0495 46.7616 21.5247 47.9773 20.308C49.2111 19.0733 50.6985 18.4745 52.4764 18.4745C54.2723 18.4745 55.7964 19.0919 57.0116 20.308C58.2454 21.5428 58.8442 23.0681 58.8442 24.8835C58.8442 26.717 58.2273 28.2424 57.0116 29.4585ZM73.7929 15.4062C71.1806 15.4062 69.2214 16.4228 67.9515 18.4745V8.90625H64.8127V33.9068H67.9515V24.3385C67.9515 22.323 68.4232 20.8163 69.3847 19.8541C70.3462 18.8737 71.598 18.4016 73.1764 18.4016C74.573 18.4016 75.6616 18.8013 76.4599 19.6183C77.2581 20.4171 77.6575 21.5609 77.6575 23.0314V33.9249H80.7957V22.8318C80.7957 20.5443 80.1607 18.747 78.8908 17.4032C77.6027 16.0598 75.9158 15.4062 73.7929 15.4062ZM92.7513 15.4062C90.1023 15.4062 87.8709 16.3137 86.0207 18.1477C84.1881 19.9812 83.2628 22.2144 83.2628 24.9016C83.2628 27.5888 84.1881 29.822 86.0207 31.6555C87.8528 33.4895 90.1023 34.397 92.7513 34.397C95.3997 34.397 97.6312 33.4895 99.4818 31.6555C101.332 29.822 102.257 27.5888 102.257 24.9016C102.257 22.2144 101.332 19.9812 99.4818 18.1477C97.6312 16.3137 95.3997 15.4062 92.7513 15.4062ZM97.2865 29.4585C96.0528 30.6933 94.5472 31.2925 92.7513 31.2925C90.9734 31.2925 89.4674 30.6752 88.2522 29.4585C87.0184 28.2243 86.4196 26.6994 86.4196 24.8835C86.4196 23.0495 87.0365 21.5247 88.2522 20.308C89.4855 19.0733 90.9734 18.4745 92.7513 18.4745C94.5472 18.4745 96.0708 19.0919 97.2865 20.308C98.5203 21.5428 99.1186 23.0681 99.1186 24.8835C99.1372 26.717 98.5203 28.2424 97.2865 29.4585ZM120.599 18.1472C118.748 16.3137 116.499 15.4062 113.868 15.4062C111.219 15.4062 108.988 16.3137 107.138 18.1477C105.305 19.9812 104.38 22.2144 104.38 24.9016C104.38 27.5888 105.305 29.822 107.138 31.6555C108.97 33.4895 111.219 34.397 113.868 34.397C116.517 34.397 118.748 33.4895 120.599 31.6555C122.45 29.822 123.374 27.5888 123.374 24.9016C123.374 22.2144 122.45 19.9627 120.599 18.1472ZM118.404 29.4585C117.17 30.6933 115.664 31.2925 113.868 31.2925C112.09 31.2925 110.584 30.6752 109.369 29.4585C108.135 28.2243 107.537 26.6994 107.537 24.8835C107.537 23.0495 108.154 21.5247 109.369 20.308C110.603 19.0733 112.09 18.4745 113.868 18.4745C115.664 18.4745 117.188 19.0919 118.404 20.308C119.637 21.5428 120.236 23.0681 120.236 24.8835C120.236 26.717 119.637 28.2424 118.404 29.4585Z" fill="white"/>
</svg>
