<svg width="173" height="23" viewBox="0 0 173 23" fill="none" xmlns="http://www.w3.org/2000/svg">
<g clip-path="url(#clip0_421_27)">
<mask id="mask0_421_27" style="mask-type:luminance" maskUnits="userSpaceOnUse" x="0" y="0" width="15" height="23">
<path d="M14.7613 0H0V22.0677H14.7613V0Z" fill="white"/>
</mask>
<g mask="url(#mask0_421_27)">
<path fill-rule="evenodd" clip-rule="evenodd" d="M13.9327 10.7928C14.4621 11.9185 14.7613 13.1523 14.7613 14.3789C14.7613 18.4551 11.4568 22.0424 7.38063 22.0424C3.30442 22.0424 0 18.4551 0 14.3789C0 13.1523 0.299187 11.9185 0.828563 10.7928C1.03976 14.0645 3.89249 17.3094 7.38063 17.3094C10.8612 17.3094 13.7091 14.0786 13.9313 10.8142L13.9327 10.7928ZM7.38063 0C10.8422 4.81885 12.573 8.30949 12.573 10.4719C12.573 13.1348 10.2705 15.9294 7.38063 15.9294C4.49074 15.9294 2.18823 13.1348 2.18823 10.4719C2.18823 8.30949 3.91903 4.81885 7.38063 0Z" fill="url(#paint0_linear_421_27)"/>
</g>
<path d="M171.079 15.163C170.703 14.64 170.251 14.1756 169.737 13.7849C169.613 13.6821 169.48 13.5899 169.341 13.5093C170.028 13.3562 170.66 13.021 171.171 12.5392C171.712 12.0432 172.014 11.3414 172.002 10.6099C172.014 9.98766 171.785 9.38466 171.362 8.92596C170.908 8.46263 170.331 8.13676 169.698 7.98613C168.859 7.78251 167.996 7.69532 167.133 7.72706H164.555V19.027H166.496V13.8125L166.773 13.829C169.643 13.829 171.184 18.3793 171.337 19.016H173.001C171.911 16.2709 171.079 15.163 171.079 15.163ZM156.109 7.85692V8.61803H151.273V12.8675H154.44V13.6093H151.273V18.4214H156.079V19.1632H149.298V7.85692H156.109ZM132.724 7.85692V13.204L138.534 7.86244H139.609L134.707 12.4677L141.261 19.1632H138.567L133.274 13.7307L132.724 14.2464V19.1632H130.772V7.85692H132.724ZM117.234 7.85692L122.054 19.1632H119.934C119.31 17.6162 119.066 17.0371 119.066 17.0371L118.271 15.1426H114.504L112.949 19.1632H111.974L116.685 7.85692H117.234ZM93.8938 7.85692L97.7456 16.6289L101.586 7.85692H103.392V19.1632H101.45V9.9803L97.431 19.1632H96.8127L92.8242 9.9803V19.1632H92.0856V7.85692H93.8938ZM75.9148 7.85692L81.8513 15.763V7.85692H82.6864V19.1632H82.1085L74.7148 9.46462V18.8902H73.9682V7.85692H75.9148ZM64.7052 7.85692V19.1632H62.7982V7.85692H64.7052ZM49.2602 7.85692L54.0801 19.1632H51.9625C51.3362 17.6162 51.0923 17.0371 51.0923 17.0371L50.2996 15.1426H46.5302L44.9753 19.1632H43.9997L48.6976 7.85692H49.2602ZM29.6717 7.86322C30.5332 7.83166 31.3948 7.91884 32.2323 8.12229C32.8642 8.27235 33.4403 8.59831 33.8932 9.06212C34.3164 9.52055 34.5464 10.1235 34.5354 10.7461C34.5457 11.4773 34.2439 12.1785 33.7049 12.6754C33.1941 13.1572 32.5618 13.4924 31.8752 13.6455C32.016 13.7254 32.1494 13.8176 32.2738 13.9211C32.7874 14.3107 33.2398 14.7742 33.6164 15.2964C33.6164 15.2964 34.4468 16.3988 35.5541 19.1549H33.8766C33.7243 18.5183 32.188 13.968 29.3229 13.968L29.0461 13.9514V19.1632H27.1084V7.86322H29.6717ZM116.375 10.4987L114.79 14.4118H118.008L116.375 10.4987ZM48.3761 10.4987L46.7907 14.4118H49.9975L48.3761 10.4987ZM29.0461 8.67351V13.2238H30.1119C30.2995 13.217 30.4856 13.1864 30.6655 13.1329C30.8482 13.0888 31.0143 13.0281 31.1665 12.9813H31.1693C31.6787 12.8003 32.0832 12.4066 32.2766 11.9037C32.382 11.576 32.4334 11.2335 32.4288 10.8894C32.4639 10.2861 32.2736 9.69119 31.8946 9.21922C31.5901 8.84163 30.8122 8.69005 29.5333 8.69005L29.0461 8.67351ZM166.496 8.53459L166.984 8.55113C168.268 8.55113 169.044 8.70271 169.349 9.0803C169.729 9.55226 169.919 10.1472 169.884 10.7505C169.889 11.0945 169.837 11.437 169.731 11.7647C169.538 12.2675 169.132 12.661 168.622 12.8423H168.639C168.487 12.8892 168.317 12.9498 168.134 12.9939C167.954 13.0475 167.768 13.0781 167.58 13.0849H166.496V8.53459Z" fill="white"/>
</g>
<defs>
<linearGradient id="paint0_linear_421_27" x1="7.45481" y1="-0.278164" x2="7.38063" y2="28.0946" gradientUnits="userSpaceOnUse">
<stop stop-color="white"/>
<stop offset="1" stop-color="#CCCCCC"/>
</linearGradient>
<clipPath id="clip0_421_27">
<rect width="173" height="23" fill="white"/>
</clipPath>
</defs>
</svg>
