<svg width="139" height="26" viewBox="0 0 139 26" fill="none" xmlns="http://www.w3.org/2000/svg">
<path d="M30.504 21C29.832 21 29.496 20.664 29.496 19.992V9.83998C29.496 9.16798 29.832 8.83198 30.504 8.83198C31.176 8.83198 31.512 9.16798 31.512 9.83998V10.776C31.984 10.136 32.584 9.65198 33.312 9.32398C34.048 8.99598 34.888 8.83198 35.832 8.83198C36.504 8.83198 36.84 9.16798 36.84 9.83998C36.84 10.512 36.504 10.848 35.832 10.848C34.448 10.848 33.392 11.104 32.664 11.616C31.936 12.128 31.552 12.804 31.512 13.644V19.992C31.512 20.664 31.176 21 30.504 21ZM42.9956 21C41.6516 21 40.6516 20.672 39.9956 20.016C39.3396 19.36 39.0116 18.36 39.0116 17.016C39.0116 15.672 39.3356 14.672 39.9836 14.016C40.6396 13.36 41.6436 13.032 42.9956 13.032H48.0716C48.0236 12.192 47.8036 11.62 47.4116 11.316C47.0196 11.004 46.3476 10.848 45.3956 10.848H44.0036C43.2036 10.848 42.6076 10.904 42.2156 11.016C41.8236 11.12 41.5476 11.312 41.3876 11.592C41.2436 11.928 41.0956 12.16 40.9436 12.288C40.7916 12.416 40.5636 12.48 40.2596 12.48C39.9236 12.48 39.6596 12.388 39.4676 12.204C39.2756 12.012 39.2196 11.76 39.2996 11.448C39.5396 10.544 40.0396 9.88398 40.7996 9.46798C41.5676 9.04398 42.6356 8.83198 44.0036 8.83198H45.3956C46.9956 8.83198 48.1796 9.21598 48.9476 9.98398C49.7156 10.752 50.0996 11.936 50.0996 13.536V19.992C50.0996 20.664 49.7636 21 49.0916 21C48.4196 21 48.0836 20.664 48.0836 19.992V19.452C47.2276 20.484 45.9796 21 44.3396 21H42.9956ZM42.9956 18.984H44.3396C44.9316 18.984 45.4876 18.932 46.0076 18.828C46.5276 18.716 46.9716 18.516 47.3396 18.228C47.7156 17.94 47.9636 17.528 48.0836 16.992V15.048H42.9956C42.2036 15.048 41.6756 15.18 41.4116 15.444C41.1556 15.708 41.0276 16.232 41.0276 17.016C41.0276 17.808 41.1556 18.336 41.4116 18.6C41.6756 18.856 42.2036 18.984 42.9956 18.984ZM55.773 6.86398C55.013 6.86398 54.633 6.47998 54.633 5.71198V5.00398C54.633 4.25198 55.013 3.87598 55.773 3.87598H56.469C57.197 3.87598 57.561 4.25198 57.561 5.00398V5.71198C57.561 6.47998 57.197 6.86398 56.469 6.86398H55.773ZM56.109 21C55.437 21 55.101 20.664 55.101 19.992V9.83998C55.101 9.16798 55.437 8.83198 56.109 8.83198C56.781 8.83198 57.117 9.16798 57.117 9.83998V19.992C57.117 20.664 56.781 21 56.109 21ZM65.2048 21C64.1888 21 63.3848 20.792 62.7928 20.376C62.2008 19.952 61.8208 19.32 61.6528 18.48C61.5968 18.144 61.6608 17.88 61.8448 17.688C62.0368 17.496 62.3008 17.4 62.6368 17.4C62.9648 17.4 63.2008 17.484 63.3448 17.652C63.4968 17.812 63.6208 18.056 63.7168 18.384C63.8128 18.624 63.9728 18.784 64.1968 18.864C64.4288 18.944 64.7648 18.984 65.2048 18.984H69.1408C69.7648 18.984 70.1848 18.884 70.4008 18.684C70.6168 18.476 70.7248 18.048 70.7248 17.4C70.7248 16.76 70.6168 16.336 70.4008 16.128C70.1848 15.92 69.7648 15.816 69.1408 15.816H65.2768C64.1248 15.816 63.2568 15.524 62.6728 14.94C62.0888 14.356 61.7968 13.488 61.7968 12.336C61.7968 11.16 62.0808 10.284 62.6488 9.70798C63.2248 9.12398 64.1008 8.83198 65.2768 8.83198H69.0208C70.9008 8.83198 72.0128 9.62398 72.3568 11.208C72.4208 11.544 72.3568 11.804 72.1648 11.988C71.9728 12.172 71.7088 12.264 71.3728 12.264C71.0608 12.264 70.8288 12.184 70.6768 12.024C70.5248 11.856 70.4048 11.624 70.3168 11.328C70.2208 11.136 70.0728 11.008 69.8728 10.944C69.6808 10.88 69.3968 10.848 69.0208 10.848H65.2768C64.6688 10.848 64.2728 10.94 64.0888 11.124C63.9048 11.308 63.8128 11.712 63.8128 12.336C63.8128 12.912 63.9088 13.3 64.1008 13.5C64.3008 13.7 64.6928 13.8 65.2768 13.8H69.1408C70.3408 13.8 71.2408 14.1 71.8408 14.7C72.4408 15.3 72.7408 16.2 72.7408 17.4C72.7408 18.608 72.4408 19.512 71.8408 20.112C71.2408 20.704 70.3408 21 69.1408 21H65.2048ZM78.7007 15.744V16.32C78.7007 17.352 78.8887 18.056 79.2647 18.432C79.6407 18.8 80.3487 18.984 81.3887 18.984H83.3567C84.1727 18.984 84.7767 18.908 85.1687 18.756C85.5607 18.604 85.8207 18.336 85.9487 17.952C86.0367 17.648 86.1567 17.416 86.3087 17.256C86.4687 17.096 86.7087 17.016 87.0287 17.016C87.3647 17.016 87.6207 17.104 87.7967 17.28C87.9727 17.456 88.0287 17.712 87.9647 18.048C87.7887 19.04 87.3167 19.78 86.5487 20.268C85.7807 20.756 84.7167 21 83.3567 21H81.3887C79.7967 21 78.6127 20.616 77.8367 19.848C77.0687 19.08 76.6847 17.904 76.6847 16.32V13.536C76.6847 11.912 77.0687 10.72 77.8367 9.95998C78.6127 9.19198 79.7967 8.81598 81.3887 8.83198H83.3567C84.9567 8.83198 86.1407 9.21598 86.9087 9.98398C87.6767 10.744 88.0607 11.928 88.0607 13.536V14.736C88.0607 15.408 87.7247 15.744 87.0527 15.744H78.7007ZM81.3887 10.848C80.3487 10.832 79.6407 11.012 79.2647 11.388C78.8887 11.764 78.7007 12.48 78.7007 13.536V13.728H86.0447V13.536C86.0447 12.488 85.8567 11.78 85.4807 11.412C85.1127 11.036 84.4047 10.848 83.3567 10.848H81.3887ZM93.7196 25.8C93.0476 25.8 92.7116 25.464 92.7116 24.792V9.83998C92.7116 9.16798 93.0476 8.83198 93.7196 8.83198C94.3916 8.83198 94.7276 9.16798 94.7276 9.83998V10.14C95.1596 9.70798 95.6916 9.38398 96.3236 9.16798C96.9636 8.94398 97.6796 8.83198 98.4716 8.83198H99.3836C100.984 8.83198 102.168 9.21598 102.936 9.98398C103.704 10.752 104.088 11.936 104.088 13.536V16.296C104.088 17.888 103.704 19.072 102.936 19.848C102.168 20.616 100.984 21 99.3836 21H94.7276V24.792C94.7276 25.464 94.3916 25.8 93.7196 25.8ZM94.7276 18.984H99.3836C100.432 18.984 101.14 18.796 101.508 18.42C101.884 18.044 102.072 17.336 102.072 16.296V13.536C102.072 12.488 101.884 11.78 101.508 11.412C101.14 11.036 100.432 10.848 99.3836 10.848H98.4716C97.4716 10.848 96.6076 10.968 95.8796 11.208C95.1516 11.448 94.7676 11.828 94.7276 12.348V18.984ZM112.493 21C111.149 21 110.149 20.672 109.493 20.016C108.837 19.36 108.509 18.36 108.509 17.016C108.509 15.672 108.833 14.672 109.481 14.016C110.137 13.36 111.141 13.032 112.493 13.032H117.569C117.521 12.192 117.301 11.62 116.909 11.316C116.517 11.004 115.845 10.848 114.893 10.848H113.501C112.701 10.848 112.105 10.904 111.713 11.016C111.321 11.12 111.045 11.312 110.885 11.592C110.741 11.928 110.593 12.16 110.441 12.288C110.289 12.416 110.061 12.48 109.757 12.48C109.421 12.48 109.157 12.388 108.965 12.204C108.773 12.012 108.717 11.76 108.797 11.448C109.037 10.544 109.537 9.88398 110.297 9.46798C111.065 9.04398 112.133 8.83198 113.501 8.83198H114.893C116.493 8.83198 117.677 9.21598 118.445 9.98398C119.213 10.752 119.597 11.936 119.597 13.536V19.992C119.597 20.664 119.261 21 118.589 21C117.917 21 117.581 20.664 117.581 19.992V19.452C116.725 20.484 115.477 21 113.837 21H112.493ZM112.493 18.984H113.837C114.429 18.984 114.985 18.932 115.505 18.828C116.025 18.716 116.469 18.516 116.837 18.228C117.213 17.94 117.461 17.528 117.581 16.992V15.048H112.493C111.701 15.048 111.173 15.18 110.909 15.444C110.653 15.708 110.525 16.232 110.525 17.016C110.525 17.808 110.653 18.336 110.909 18.6C111.173 18.856 111.701 18.984 112.493 18.984ZM127.814 25.8C126.654 25.8 125.786 25.508 125.21 24.924C124.642 24.348 124.358 23.48 124.358 22.32C124.358 21.648 124.694 21.312 125.366 21.312C126.038 21.312 126.374 21.648 126.374 22.32C126.374 22.92 126.462 23.312 126.638 23.496C126.822 23.688 127.214 23.784 127.814 23.784H132.47C133.062 23.784 133.45 23.688 133.634 23.496C133.818 23.312 133.91 22.92 133.91 22.32V19.272C133.43 19.992 132.87 20.46 132.23 20.676C131.598 20.892 130.91 21 130.166 21H128.99C127.406 21 126.238 20.624 125.486 19.872C124.734 19.12 124.358 17.96 124.358 16.392V9.83998C124.358 9.16798 124.694 8.83198 125.366 8.83198C126.038 8.83198 126.374 9.16798 126.374 9.83998V16.392C126.374 17.4 126.554 18.084 126.914 18.444C127.282 18.804 127.974 18.984 128.99 18.984H130.166C131.478 18.984 132.43 18.772 133.022 18.348C133.614 17.916 133.91 17.264 133.91 16.392V9.83998C133.91 9.16798 134.246 8.83198 134.918 8.83198C135.59 8.83198 135.926 9.16798 135.926 9.83998V22.32C135.926 23.48 135.638 24.348 135.062 24.924C134.486 25.508 133.622 25.8 132.47 25.8H127.814Z" fill="white"/>
<path d="M21.1006 16.7094C21.0657 15.3724 20.557 14.0911 19.6653 13.0942L14.1521 6.50447C13.6984 6.01284 13.1444 5.62429 12.5277 5.36511C11.911 5.10592 11.2458 4.98214 10.5772 5.00208H10.5134C9.82281 4.98861 9.13773 5.12776 8.50704 5.40948C7.87634 5.69121 7.31558 6.10852 6.86475 6.63187L1.52587 13.0942C0.553035 14.1317 0.00803684 15.4984 0 16.9207C0.0201214 18.9831 1.28441 20.9181 3.46423 22.2294C5.3657 23.373 7.84735 24 10.4598 24H10.6208C16.5364 23.9363 21.1275 20.7371 21.1006 16.7094ZM10.5369 7.01766H10.5772C11.8716 7.01766 12.9246 7.70509 12.9246 8.5636C12.9246 9.42212 11.8716 10.1464 10.557 10.1598H10.5168C9.2223 10.1598 8.16928 9.48916 8.16928 8.61388C8.16928 7.73859 9.22231 7.02765 10.5369 7.02765V7.01766ZM6.57299 10.1397C7.26718 11.3503 8.75616 12.172 10.5235 12.172H10.5872C12.3612 12.1518 13.8502 11.3168 14.5344 10.0961C14.8129 10.4303 14.9712 10.8484 14.9837 11.2833C14.9837 12.8159 13.0253 14.0769 10.5772 14.1037H10.5034C8.08881 14.1037 6.14373 12.8898 6.1169 11.3773C6.1224 10.9247 6.28344 10.4876 6.57299 10.1397ZM4.40994 12.8225C4.78169 13.6424 5.37821 14.34 6.13032 14.8347C7.42541 15.68 8.94356 16.1192 10.49 16.0957H10.5839C13.488 16.0689 15.8724 14.6839 16.6806 12.7421C16.8932 13.1217 17.0085 13.5481 17.016 13.983C17.0361 16.1763 14.1487 17.9838 10.5671 18.0073H10.4598C6.92847 18.0073 4.06788 16.27 4.0444 14.1003C4.05768 13.6547 4.18342 13.2198 4.40994 12.836V12.8225ZM10.6006 21.9712H10.4598C5.80838 21.9712 2.04232 19.7109 2.01214 16.8838C2.01062 16.4218 2.10661 15.9647 2.29384 15.5424C2.76161 16.797 3.64594 17.853 4.79895 18.5338C6.51456 19.558 8.48206 20.083 10.4799 20.0496H10.6107C14.6517 20.0093 17.9315 18.081 18.8135 15.4518C18.9878 15.8533 19.0813 16.2852 19.0885 16.7229C19.1153 19.5835 15.3157 21.9376 10.6006 21.9846V21.9712Z" fill="white"/>
</svg>
