<svg width="191" height="40" viewBox="0 0 191 40" fill="none" xmlns="http://www.w3.org/2000/svg">
<path fill-rule="evenodd" clip-rule="evenodd" d="M14.1538 3.86022C12.9227 4.48244 10.328 5.69311 8.92269 6.65933C7.51736 7.62555 7.69158 8.526 7.07647 9.14822C6.46136 9.77044 4.61425 11.3251 3.38402 12.2576C2.15291 13.1909 2.46047 15.6798 2.15291 16.6131C1.84536 17.5456 1.23025 19.7224 0.92269 20.6558C0.614245 21.5891 1.5378 22.8336 2.15291 24.078C2.76891 25.3216 4.30669 28.7429 4.92269 29.9864C5.5378 31.2309 7.38491 30.6087 8.92269 31.8531C10.4605 33.0976 12.6151 34.6531 14.1538 35.5856C15.6916 36.5189 16.3076 36.5189 17.8462 35.5856C19.384 34.6522 21.5387 33.0967 23.0774 31.8522C24.6151 30.6087 26.4622 31.2309 27.0774 29.9864C27.6925 28.742 29.2311 25.3216 29.8471 24.0771C30.4622 22.8327 31.3849 21.5882 31.0774 20.6558C30.7698 19.7224 30.1547 17.5447 29.8471 16.6122C29.5396 15.6789 29.8471 13.1909 28.616 12.2576C27.3849 11.3242 25.9565 10.1367 24.9236 9.14733C23.8907 8.158 24.3085 7.59178 23.0774 6.65844C21.8462 5.726 19.0774 4.48244 17.8462 3.86022C16.6151 3.238 15.384 3.238 14.1538 3.86022Z" fill="white"/>
<path fill-rule="evenodd" clip-rule="evenodd" d="M9.80798 9.25648L15.5671 13.2076C15.6966 13.2946 15.8484 13.3424 16.0044 13.3454C16.1607 13.3439 16.3129 13.296 16.4418 13.2076L22.2053 9.24315C22.3159 9.16344 22.404 9.05654 22.4612 8.93279C22.5184 8.80904 22.5426 8.67263 22.5316 8.53676C22.5206 8.40089 22.4748 8.27015 22.3984 8.1572C22.3221 8.04426 22.2179 7.95292 22.096 7.89203L16.3369 5.02626C16.2292 4.97364 16.1109 4.94629 15.9911 4.94629C15.8712 4.94629 15.753 4.97364 15.6453 5.02626L9.90309 7.89203C9.7788 7.95306 9.67271 8.04563 9.59541 8.1605C9.51811 8.27538 9.47232 8.40852 9.4626 8.54664C9.45288 8.68476 9.47958 8.82301 9.54003 8.94757C9.60049 9.07214 9.69257 9.17865 9.80709 9.25648H9.80798ZM17.9609 14.4476C17.9608 14.5763 17.9918 14.7032 18.0512 14.8174C18.1106 14.9316 18.1967 15.0298 18.3022 15.1036L22.9191 18.2751C23.0623 18.3746 23.235 18.4226 23.4091 18.4113C23.5831 18.4 23.7481 18.3301 23.8773 18.2129L27.7502 14.7311C27.8357 14.6542 27.9035 14.5595 27.9488 14.4537C27.994 14.3479 28.0157 14.2335 28.0124 14.1185C28.009 14.0034 27.9806 13.8905 27.9292 13.7876C27.8778 13.6846 27.8046 13.5941 27.7146 13.5223L24.0169 10.5498C23.8865 10.4455 23.726 10.3857 23.5592 10.3793C23.3923 10.3729 23.2278 10.4202 23.0898 10.5143L18.3022 13.8058C18.1985 13.8783 18.1136 13.9744 18.0542 14.0861C17.9949 14.1978 17.9629 14.3211 17.9609 14.4476ZM6.47731 18.7623C6.66398 18.9311 6.75998 19.18 6.73509 19.4316C6.72349 19.556 6.68204 19.6757 6.61426 19.7806C6.54647 19.8855 6.45436 19.9726 6.34576 20.0343L3.58931 21.6956C3.30931 21.8627 2.95642 21.8387 2.7022 21.6343C2.44798 21.4298 2.34398 21.0876 2.44264 20.7738L3.4622 17.5489C3.50096 17.4238 3.5705 17.3103 3.66446 17.219C3.75841 17.1277 3.87377 17.0614 3.99998 17.0263C4.12572 16.9894 4.25888 16.9859 4.38638 17.0162C4.51387 17.0464 4.63129 17.1093 4.72709 17.1987L6.47731 18.7623ZM21.4311 19.1L16.4462 15.6707C16.3171 15.5832 16.1648 15.5365 16.0089 15.5365C15.8529 15.5365 15.7006 15.5832 15.5715 15.6707L10.5866 19.0991C10.4885 19.1678 10.4069 19.2576 10.3478 19.3619C10.2887 19.4661 10.2537 19.5823 10.2453 19.7018C10.2387 19.8223 10.2588 19.9428 10.3041 20.0547C10.3495 20.1665 10.4189 20.267 10.5075 20.3489L15.488 24.8271C15.6309 24.956 15.8165 25.0273 16.0089 25.0273C16.2013 25.0273 16.3869 24.956 16.5298 24.8271L21.5093 20.348C21.5981 20.2666 21.6673 20.1662 21.7119 20.0543C21.7566 19.9425 21.7754 19.822 21.7671 19.7018C21.7606 19.5824 21.727 19.4661 21.6688 19.3616C21.6106 19.2572 21.5293 19.1674 21.4311 19.0991V19.1ZM8.13598 18.2129L4.26664 14.7311C4.18039 14.6523 4.11222 14.5556 4.06681 14.4479C4.02139 14.3402 3.99981 14.224 4.00353 14.1071C4.00537 13.992 4.03262 13.8787 4.08332 13.7752C4.13403 13.6718 4.20695 13.5809 4.29687 13.5089L7.99464 10.5187C8.12605 10.4143 8.28734 10.3546 8.45504 10.3482C8.62275 10.3418 8.78812 10.3891 8.92709 10.4831L13.7102 13.7747C13.9324 13.9214 14.0658 14.1711 14.0658 14.4396C14.0658 14.708 13.9324 14.9569 13.7102 15.1036L9.09776 18.2751C8.79998 18.4796 8.40531 18.4529 8.13598 18.2129ZM28 23.2147L24.0613 20.8449C23.919 20.7586 23.7526 20.7207 23.587 20.7367C23.4213 20.7527 23.2653 20.8219 23.1422 20.9338L18.328 25.252C18.2282 25.3422 18.1528 25.4561 18.1088 25.5832C18.0648 25.7103 18.0536 25.8465 18.0763 25.9791C18.099 26.1116 18.1549 26.2363 18.2386 26.3415C18.3224 26.4468 18.4314 26.5291 18.5555 26.5809L25.2338 29.3009C25.4222 29.3759 25.6324 29.3748 25.8201 29.2978C26.0078 29.2209 26.1583 29.0742 26.24 28.8885L28.3111 24.2289C28.3925 24.0511 28.4057 23.8496 28.3484 23.6627C28.291 23.4757 28.1671 23.3163 28 23.2147ZM28.5466 17.5489L29.5662 20.7738H29.5573C29.5945 20.8927 29.6034 21.0187 29.5833 21.1417C29.5633 21.2647 29.5148 21.3813 29.4418 21.4823C29.3277 21.6403 29.1585 21.7498 28.9677 21.7893C28.7768 21.8288 28.5781 21.7954 28.4106 21.6956L25.6498 20.0334C25.5433 19.9706 25.4536 19.8831 25.388 19.7784C25.3224 19.6737 25.2829 19.5547 25.2729 19.4316C25.2599 19.3076 25.2765 19.1823 25.3213 19.066C25.3661 18.9496 25.4379 18.8455 25.5306 18.7623L27.2818 17.1943C27.48 17.0165 27.7529 16.9516 28.008 17.0218C28.1343 17.0584 28.2496 17.1256 28.3436 17.2176C28.4376 17.3096 28.5074 17.4234 28.5466 17.5489ZM13.9378 25.9783C13.9611 25.846 13.9505 25.7101 13.9069 25.5831C13.8634 25.456 13.7884 25.3422 13.6889 25.252L8.87553 20.9329C8.75241 20.821 8.59639 20.7518 8.43074 20.7358C8.2651 20.7198 8.09872 20.7577 7.95642 20.844L4.01864 23.2147C3.85328 23.3168 3.73032 23.4752 3.67235 23.6607C3.61438 23.8462 3.6253 24.0464 3.70309 24.2245L5.77687 28.8849C5.85797 29.0713 6.00864 29.2186 6.19676 29.2954C6.38488 29.3723 6.59558 29.3727 6.78398 29.2965L13.4578 26.5765C13.582 26.5259 13.6913 26.4445 13.7754 26.34C13.8595 26.2355 13.9157 26.1113 13.9386 25.9791L13.9378 25.9783ZM16.3013 27.3071L21.6578 29.4867C21.7869 29.5428 21.8987 29.6324 21.9817 29.7461C22.0647 29.8599 22.1158 29.9937 22.1298 30.1338C22.1466 30.2756 22.1246 30.4194 22.066 30.5497C22.0075 30.6799 21.9146 30.7918 21.7973 30.8734L16.4373 34.6165C16.3091 34.7074 16.1562 34.757 15.9991 34.7587C15.8424 34.756 15.6901 34.7064 15.5618 34.6165L10.2053 30.8743C10.0875 30.7931 9.99384 30.6815 9.93434 30.5514C9.87484 30.4213 9.8517 30.2775 9.86738 30.1352C9.88306 29.993 9.93697 29.8577 10.0234 29.7437C10.1098 29.6296 10.2255 29.5411 10.3582 29.4876L15.7146 27.308C15.9029 27.2325 16.1131 27.2316 16.3013 27.3071Z" fill="black"/>
<mask id="mask0_335_248" style="mask-type:luminance" maskUnits="userSpaceOnUse" x="39" y="8" width="144" height="29">
<path d="M39.1111 8.86621H182.222V36.4218H39.1111V8.86621Z" fill="white"/>
</mask>
<g mask="url(#mask0_335_248)">
<path d="M43.4453 19.1142H44.8426C46.2133 19.1142 47.2249 18.8884 47.8764 18.4386C48.5289 17.988 48.8551 17.2795 48.8551 16.3142C48.8551 15.3578 48.52 14.6778 47.8489 14.2733C47.1866 13.868 46.1573 13.6662 44.7591 13.6662H43.4453V19.1142ZM43.4453 22.5898V30.3266H39.1111V10.1631H45.0666C47.8444 10.1631 49.8995 10.6644 51.232 11.6662C52.5653 12.6591 53.2311 14.172 53.2311 16.204C53.2311 17.3898 52.9004 18.4475 52.2382 19.3764C51.5769 20.2955 50.64 21.0173 49.4293 21.5418C52.5049 26.0751 54.5084 29.0031 55.44 30.3266H50.6311L45.7511 22.5898H43.4453Z" fill="white"/>
<path d="M61.7048 17.6111C60.8008 17.6111 60.0924 17.8955 59.5804 18.4662C59.0666 19.0262 58.7733 19.8262 58.6986 20.8662H64.6826C64.664 19.8262 64.3893 19.0262 63.8577 18.4662C63.3262 17.8955 62.6088 17.6111 61.7048 17.6111ZM62.3057 30.6031C59.7902 30.6031 57.8231 29.9187 56.4062 28.548C54.9893 27.1782 54.2817 25.2378 54.2817 22.7275C54.2817 20.1435 54.9333 18.1489 56.2382 16.7418C57.5528 15.3258 59.3653 14.6173 61.6764 14.6173C63.8853 14.6173 65.6053 15.2387 66.8355 16.4795C68.0657 17.7213 68.6808 19.436 68.6808 21.6244V23.6653H58.6009C58.648 24.8609 59.0062 25.7942 59.6773 26.4653C60.3484 27.1364 61.2897 27.4724 62.5013 27.4724C63.4435 27.4724 64.3324 27.3755 65.1715 27.1827C66.0772 26.9661 66.9581 26.6563 67.8 26.2582V29.5133C67.0542 29.8813 66.2577 30.1524 65.4088 30.3267C64.5617 30.5107 63.5271 30.6031 62.3057 30.6031ZM75.952 30.6031C74.1155 30.6031 72.672 29.9 71.6177 28.4929C70.5742 27.0858 70.0524 25.1364 70.0524 22.6449C70.0524 20.116 70.5831 18.1489 71.6462 16.7427C72.7173 15.3258 74.1902 14.6182 76.064 14.6182C78.0302 14.6182 79.5306 15.372 80.5653 16.8795H80.7048C80.4915 15.7302 80.384 14.7053 80.384 13.804V8.86621H84.6613V30.3267H81.3902L80.5653 28.3267H80.384C79.4151 29.844 77.9368 30.6031 75.952 30.6031ZM77.448 27.252C78.5377 27.252 79.3351 26.9391 79.8391 26.3133C80.3511 25.6884 80.6302 24.6262 80.6773 23.1275V22.6724C80.6773 21.0173 80.416 19.8315 79.8942 19.1142C79.3813 18.3969 78.5431 18.0387 77.3777 18.0387C76.4266 18.0387 75.6862 18.4387 75.1555 19.2387C74.6329 20.0298 74.3715 21.1827 74.3715 22.7C74.3715 24.2173 74.6382 25.3578 75.1689 26.1204C75.7004 26.8742 76.4595 27.252 77.448 27.252ZM100.824 30.3267L99.6213 24.9347L98 18.1213H97.9022L95.0497 30.3267H90.464L86.0186 14.9071H90.2684L92.072 21.7347C92.3609 22.9578 92.6542 24.6449 92.9528 26.796H93.0364C93.0737 26.0973 93.2373 24.9898 93.5262 23.4724L93.7493 22.3L95.6791 14.9071H100.376L102.208 22.3L102.375 23.1969C102.552 24.0506 102.697 24.9108 102.809 25.7755C102.874 26.1987 102.911 26.5391 102.921 26.796H103.004C103.089 26.1347 103.237 25.2289 103.452 24.0795C103.592 23.2952 103.746 22.5135 103.914 21.7347L105.787 14.908H109.967L105.465 30.3275L100.824 30.3267ZM114.749 22.5898C114.749 24.116 115.001 25.2698 115.504 26.0511C116.017 26.8333 116.846 27.2244 117.993 27.2244C119.13 27.2244 119.945 26.8378 120.439 26.0653C120.942 25.2831 121.194 24.1249 121.194 22.5898C121.194 21.0635 120.942 19.9187 120.439 19.1551C119.936 18.3924 119.111 18.0111 117.964 18.0111C116.828 18.0111 116.007 18.3924 115.504 19.1551C115.001 19.9098 114.749 21.0538 114.749 22.5898ZM125.556 22.5898C125.556 25.1 124.885 27.0627 123.543 28.4787C122.201 29.8947 120.332 30.6031 117.937 30.6031C116.436 30.6031 115.113 30.2813 113.966 29.6378C112.82 28.9844 111.94 28.0511 111.324 26.8378C110.709 25.6235 110.402 24.2075 110.402 22.5889C110.402 20.0707 111.068 18.1115 112.401 16.7142C113.733 15.3169 115.607 14.6182 118.02 14.6182C119.521 14.6182 120.844 14.94 121.991 15.5835C123.138 16.2271 124.018 17.1507 124.633 18.3551C125.248 19.5604 125.556 20.9711 125.556 22.5898ZM131.331 22.5898C131.331 24.116 131.582 25.2698 132.086 26.0511C132.598 26.8333 133.428 27.2244 134.574 27.2244C135.711 27.2244 136.527 26.8378 137.02 26.0653C137.524 25.2831 137.776 24.1249 137.776 22.5898C137.776 21.0635 137.524 19.9187 137.02 19.1551C136.517 18.3924 135.692 18.0111 134.547 18.0111C133.409 18.0111 132.589 18.3924 132.086 19.1551C131.582 19.9098 131.331 21.0538 131.331 22.5898ZM142.138 22.5898C142.138 25.1 141.467 27.0627 140.124 28.4787C138.782 29.8947 136.914 30.6031 134.518 30.6031C133.018 30.6031 131.694 30.2813 130.548 29.6378C129.402 28.9844 128.521 28.0511 127.906 26.8378C127.291 25.6235 126.983 24.2075 126.983 22.5889C126.983 20.0707 127.65 18.1115 128.982 16.7142C130.316 15.3169 132.188 14.6182 134.603 14.6182C136.103 14.6182 137.427 14.94 138.572 15.5835C139.719 16.2271 140.6 17.1507 141.215 18.3551C141.83 19.5604 142.138 20.9711 142.138 22.5898ZM149.464 30.6031C147.628 30.6031 146.184 29.9 145.131 28.4929C144.086 27.0858 143.564 25.1364 143.564 22.6449C143.564 20.116 144.096 18.1489 145.158 16.7427C146.23 15.3258 147.703 14.6182 149.576 14.6182C151.543 14.6182 153.044 15.372 154.077 16.8795H154.218C154.004 15.7302 153.896 14.7053 153.896 13.804V8.86621H158.174V30.3267H154.902L154.077 28.3267H153.896C152.927 29.844 151.45 30.6031 149.464 30.6031ZM150.96 27.252C152.051 27.252 152.848 26.9391 153.351 26.3133C153.863 25.6884 154.143 24.6262 154.189 23.1275V22.6724C154.189 21.0173 153.929 19.8315 153.407 19.1142C152.894 18.3969 152.055 18.0387 150.891 18.0387C149.94 18.0387 149.199 18.4387 148.668 19.2387C148.146 20.0298 147.884 21.1827 147.884 22.7C147.884 24.2173 148.15 25.3578 148.682 26.1204C149.212 26.8742 149.972 27.252 150.96 27.252Z" fill="white"/>
<path d="M159.685 36.257C158.707 36.257 157.853 36.1566 157.127 35.9548V32.3957C157.872 32.5797 158.553 32.6713 159.168 32.6713C160.118 32.6713 160.799 32.3779 161.209 31.7886C161.62 31.2099 161.824 30.2988 161.824 29.0579V10.1628H166.158V29.0304C166.158 31.3842 165.612 33.177 164.523 34.409C163.432 35.641 161.82 36.257 159.685 36.257ZM182.222 24.7273C182.222 26.5477 181.556 27.9824 180.223 29.0295C178.9 30.0784 177.054 30.6028 174.687 30.6028C172.506 30.6028 170.577 30.1975 168.899 29.3886V25.417C170.278 26.0233 171.444 26.4508 172.394 26.6997C173.354 26.9477 174.23 27.0722 175.022 27.0722C175.972 27.0722 176.7 26.8926 177.204 26.5335C177.716 26.1753 177.972 25.6419 177.972 24.9335C177.972 24.5388 177.86 24.1895 177.636 23.8855C177.412 23.5735 177.082 23.2739 176.644 22.9895C176.215 22.705 175.334 22.249 174.002 21.6242C172.753 21.0446 171.816 20.4882 171.192 19.9548C170.579 19.4357 170.071 18.8035 169.696 18.0926C169.323 17.385 169.137 16.5575 169.137 15.6108C169.137 13.8268 169.747 12.4242 170.968 11.4037C172.198 10.3833 173.894 9.87305 176.057 9.87305C177.119 9.87305 178.131 9.99749 179.091 10.2455C180.06 10.4944 181.071 10.8428 182.124 11.2944L180.726 14.617C179.636 14.1762 178.732 13.8677 178.014 13.6926C177.328 13.521 176.624 13.4332 175.917 13.4313C175.097 13.4313 174.468 13.6197 174.029 13.9966C173.592 14.3735 173.372 14.8659 173.372 15.4722C173.372 15.8499 173.461 16.1806 173.638 16.4659C173.815 16.7415 174.095 17.0126 174.477 17.2793C174.868 17.537 175.787 18.0055 177.231 18.6864C179.141 19.5868 180.452 20.4926 181.16 21.4028C181.868 22.3042 182.222 23.4117 182.222 24.7273Z" fill="white"/>
</g>
</svg>
