<svg width="160" height="40" viewBox="0 0 160 40" fill="none" xmlns="http://www.w3.org/2000/svg">
<path d="M10.256 2.65611C8.25598 3.20011 6.47998 4.72011 5.55198 6.67211L5.03998 7.76011V18.3201V28.8801L5.55198 29.9681C6.49598 31.9681 8.27198 33.4561 10.32 34.0001C11.632 34.3361 30.016 34.3521 31.28 34.0161C34 33.2961 36.144 31.0241 36.64 28.3361C36.736 27.8241 36.8 23.7761 36.8 18.2561C36.8 8.25611 36.768 7.92011 35.904 6.20811C35.28 4.97611 33.984 3.77611 32.528 3.07211L31.28 2.48011L21.2 2.44811C12.752 2.41611 10.976 2.44811 10.256 2.65611ZM24.08 5.02411C27.472 5.60011 29.68 6.88011 30.64 8.86411C31.392 10.4161 31.44 13.3121 30.736 14.6881C29.792 16.5441 27.792 17.7761 24.88 18.3201C24.272 18.4321 23.872 18.5601 24 18.5921C24.128 18.6401 24.64 18.8001 25.12 18.9441C26.288 19.2801 27.392 20.0001 27.968 20.7681C28.208 21.1201 29.2 23.1361 30.144 25.2481L31.872 29.0881L32.688 29.2961C33.424 29.4881 33.52 29.5841 33.568 29.9841L33.632 30.4321L30.368 30.3681C25.296 30.2721 25.344 30.3041 22.384 23.6641L20.352 19.1201L19.296 19.0721L18.24 19.0241V24.0481V29.0561L19.328 29.2801C20.768 29.5521 20.8 29.5681 20.8 30.0161V30.4001H15.28H9.75998V30.0001C9.75998 29.6001 10.032 29.4721 11.488 29.1841L12 29.0721L11.968 17.5521L11.92 6.01611L10.896 5.76011C9.85598 5.50411 9.64798 5.32811 9.82398 4.84811C9.91998 4.62411 10.528 4.60811 16.288 4.68811C20.896 4.75211 23.04 4.84811 24.08 5.02411Z" fill="white"/>
<path d="M18.352 5.85592C18.288 5.91992 18.24 8.65592 18.24 11.9519V17.9199H19.44C22.432 17.9199 24.352 16.1759 24.784 13.0239C24.96 11.7919 24.816 10.3839 24.384 9.07192C24 7.93592 22.624 6.54392 21.52 6.19192C20.592 5.90392 18.528 5.67992 18.352 5.85592Z" fill="white"/>
<path d="M126.704 4.96017C125.584 5.29617 124.96 6.16017 124.96 7.36017C124.96 9.66417 127.744 10.7682 129.264 9.04017C130.496 7.63217 129.856 5.42417 128.096 4.97617C127.296 4.78417 127.28 4.78417 126.704 4.96017Z" fill="white"/>
<path d="M145.04 4.97608C144.88 5.23208 145.056 5.34408 146.128 5.61608L147.12 5.85608L147.168 9.39208L147.2 12.9281L146.128 12.3841C144.736 11.6801 143.488 11.4721 141.824 11.6801C138.56 12.0801 136.128 14.4481 135.344 18.0001C135.024 19.4401 135.072 23.3441 135.424 24.6401C136.528 28.6881 139.2 30.8801 142.784 30.6881C143.616 30.6401 144.352 30.4961 144.832 30.2881C145.68 29.9041 146.88 28.8481 147.376 28.0481L147.712 27.5041L148.224 28.3521C148.624 29.0241 148.912 29.2961 149.664 29.6801C150.56 30.1281 150.72 30.1601 152.912 30.2241C154.912 30.2721 155.2 30.2401 155.2 30.0161C155.2 29.8561 154.96 29.7121 154.528 29.6001C154.144 29.5041 153.664 29.3601 153.44 29.2961L153.04 29.1681L152.96 17.9841C152.88 7.77608 152.848 6.75208 152.608 6.28808C152.208 5.56808 151.632 5.16808 150.704 4.97608C149.648 4.75208 145.168 4.73608 145.04 4.97608ZM145.648 12.9121C145.92 13.0561 146.4 13.3601 146.672 13.5841L147.2 14.0001V20.3201V26.6401L146.736 27.4561C146.144 28.4641 145.312 29.2001 144.496 29.4561C143.152 29.8561 142.032 28.6241 141.536 26.1921C141.168 24.4481 141.04 20.4801 141.264 18.1281C141.536 15.1521 142.112 13.6481 143.264 12.9441C143.872 12.5761 144.96 12.5441 145.648 12.9121Z" fill="white"/>
<path d="M45.5039 11.664C41.9359 12.224 39.4079 14.592 38.4639 18.24C38.0959 19.616 38.0959 22.56 38.4479 24.048C38.9759 26.208 40.3359 28.16 42.0959 29.296C43.8719 30.432 47.3439 31.024 49.6159 30.576C52.2879 30.048 54.4319 28.032 54.6879 25.824C54.7519 25.152 54.7359 25.12 54.3679 25.12C54.0159 25.12 53.9519 25.216 53.8559 25.776C53.5359 27.808 51.4079 29.664 49.1679 29.872C47.9199 29.984 47.0719 29.728 46.2079 28.976C45.0239 27.92 44.4959 26.384 44.2559 23.264L44.1599 22.112L46.2079 22C49.1199 21.856 52.8639 21.424 54.8959 21.024C55.2479 20.96 55.3599 20.816 55.5039 20.24C56.2239 17.376 54.6079 14.112 51.7279 12.672C50.0159 11.792 47.3759 11.376 45.5039 11.664ZM47.9999 12.624C48.5759 13.024 49.0879 13.84 49.3599 14.784C49.9679 16.784 49.7919 20.672 49.0879 20.896C48.6239 21.04 44.3039 21.216 44.2239 21.104C44.0959 20.88 44.4799 16.272 44.7199 15.264C45.3279 12.64 46.5759 11.632 47.9999 12.624Z" fill="white"/>
<path d="M64.48 11.6801C61.616 12.0161 59.584 13.2641 59.072 15.0081C58.544 16.7841 59.008 18.6401 60.336 19.9681C61.264 20.9121 61.904 21.3281 64.64 22.8001C68.832 25.0401 69.36 25.5681 69.248 27.2801C69.136 29.1041 68.24 29.8401 66.16 29.8401C65.088 29.8401 64.736 29.7761 63.968 29.3921C62.736 28.7841 61.456 27.3761 60.624 25.6801L59.952 24.3201H59.248H58.56V27.3601V30.4001H59.088C59.632 30.4001 60.56 29.8401 61.168 29.1521L61.472 28.8321L62.448 29.4561C63.776 30.3201 64.736 30.5761 66.8 30.6721C69.648 30.8001 72.336 30.1921 73.648 29.1041C74.64 28.2881 75.088 27.3441 75.168 25.9201C75.328 23.2001 74.288 22.0321 69.392 19.4241C65.648 17.4241 64.8 16.6081 64.8 14.9601C64.8 14.0801 65.088 13.4721 65.76 12.8961C66.16 12.5601 66.432 12.4801 67.104 12.4801C68.176 12.4801 68.848 12.7041 69.792 13.3921C70.656 14.0161 71.904 15.7761 72.464 17.1681L72.832 18.0801H73.536H74.24V15.0401V12.0001H73.76C73.12 12.0001 72.528 12.3201 71.856 13.0241L71.312 13.5841L70.736 13.1201C69.92 12.4641 68.512 11.8561 67.408 11.6801C66.384 11.5041 66 11.5041 64.48 11.6801Z" fill="white"/>
<path d="M89.28 11.6799C88.88 11.7439 88.224 11.9679 87.808 12.1599C87.008 12.5279 85.52 13.9039 85.36 14.4159C85.216 14.8639 85.088 14.7999 84.672 14.0799C84.24 13.3279 83.504 12.7359 82.576 12.3999C81.616 12.0639 77.76 12.0479 77.76 12.3839C77.76 12.5119 77.952 12.6559 78.208 12.7039C78.448 12.7679 78.912 12.8959 79.248 12.9759L79.84 13.1359V24.7839V36.4479L79.408 36.5439C78.032 36.8799 77.76 36.9919 77.76 37.1999C77.76 37.4079 78.48 37.4399 82.8 37.4399C87.008 37.4399 87.84 37.4079 87.84 37.2159C87.84 37.0719 87.44 36.8959 86.72 36.7199L85.6 36.4479V32.8639V29.2799L86.368 29.7759C87.376 30.4159 88.48 30.7199 89.776 30.7199C93.664 30.7199 96.336 28.5919 97.392 24.6399C97.792 23.1679 97.776 19.0719 97.376 17.5999C97.04 16.3359 96.176 14.6559 95.424 13.7919C94.048 12.1919 91.456 11.2959 89.28 11.6799ZM90.096 13.4399C90.88 14.2719 91.296 15.5839 91.536 18.0479C91.76 20.2879 91.632 24.7199 91.296 26.2879C90.56 29.6479 88.4 30.6719 86.128 28.7359L85.6 28.2879V21.9839C85.6 15.0559 85.568 15.3599 86.592 14.0319C87.184 13.2799 88.048 12.8159 88.864 12.7999C89.392 12.7999 89.584 12.8959 90.096 13.4399Z" fill="white"/>
<path d="M107.424 11.6799C105.76 11.8879 104.576 12.3999 103.68 13.2639C102.56 14.3359 102.304 15.4879 102.88 16.7519C103.376 17.8559 104.544 18.3839 106 18.1759L106.72 18.0639V15.3599C106.72 12.7359 106.736 12.6399 107.072 12.4639C107.536 12.2239 109.216 12.2079 109.952 12.4639C110.784 12.7359 111.76 13.8719 112.08 14.9119C112.352 15.8079 112.736 19.8399 112.592 20.2079C112.528 20.3679 111.936 20.4799 110.528 20.6239C108.336 20.8319 104.912 21.3439 103.44 21.6959C102.336 21.9359 102.08 22.1919 101.6 23.4719C100.112 27.4719 102.352 30.4319 107.056 30.6879C109.568 30.8159 111.152 30.1439 112.432 28.3999L113.104 27.5039L113.36 28.0799C113.68 28.7519 114.56 29.5519 115.344 29.8879C115.744 30.0639 116.608 30.1599 118.208 30.2079C120.368 30.2719 120.512 30.2559 120.448 29.9839C120.416 29.7759 120.112 29.6319 119.36 29.4399L118.32 29.1839L118.24 23.2799C118.16 18.1279 118.112 17.2639 117.872 16.6399C116.912 14.2239 115.056 12.6559 112.304 11.9359C111.088 11.6319 108.832 11.5039 107.424 11.6799ZM112.608 23.8719C112.64 26.3039 112.64 26.4159 112.24 27.1999C111.44 28.7839 109.984 29.7759 108.896 29.5039C108.352 29.3759 107.568 28.5599 107.328 27.8559C107.008 26.9439 107.088 23.8079 107.456 22.6399L107.776 21.6799L109.28 21.5039C110.112 21.3919 111.2 21.3279 111.68 21.3439L112.56 21.3599L112.608 23.8719Z" fill="white"/>
<path d="M122.72 12.3837C122.72 12.5277 123.12 12.7037 123.84 12.8797L124.96 13.1517L124.928 21.1677L124.88 29.1837L123.84 29.4397C123.12 29.6157 122.784 29.7757 122.752 29.9677C122.704 30.2237 123.088 30.2397 127.76 30.2397C132.48 30.2397 132.816 30.2237 132.768 29.9677C132.736 29.7597 132.416 29.6157 131.712 29.4557L130.72 29.2317V22.4957C130.72 18.7837 130.64 15.2957 130.56 14.7357C130.384 13.5037 130.064 13.0077 129.12 12.5117C128.464 12.1917 128.208 12.1597 125.568 12.1597C123.248 12.1597 122.72 12.2077 122.72 12.3837Z" fill="white"/>
</svg>
