<svg width="115" height="28" viewBox="0 0 115 28" fill="none" xmlns="http://www.w3.org/2000/svg">
<g clip-path="url(#clip0_212_151)">
<path d="M17.0876 26.0949C17.5204 25.7636 18.9758 25.8691 19.9272 24.6197C20.787 23.4139 20.2953 22.3196 20.2848 22.252C20.213 22.6288 19.7166 23.1334 18.5768 24.0562C17.3979 24.9551 17.0368 25.973 17.0584 25.987C16.8012 26.1911 16.527 26.3895 16.2354 26.5802C17.0847 26.4111 16.8292 26.2763 17.0876 26.0949Z" fill="white"/>
<path d="M21.6456 2.6533C22.3957 3.22262 23.0992 3.53003 23.658 3.71144C24.2099 3.88994 24.617 3.94244 24.6153 3.93836C24.9425 4.25744 25.2488 4.59401 25.5352 4.94576C25.2394 4.29069 24.9629 4.15302 24.6841 3.91852C24.4216 3.70153 24.3668 3.31653 24.1294 2.80963C23.8908 2.31088 23.4708 1.68906 22.4436 1.1909C21.4134 0.695082 20.2987 0.625666 19.4925 0.692165C18.7068 0.753997 18.2075 0.942411 18.1719 0.948827C18.8339 0.924328 20.1569 1.5304 21.6456 2.6533Z" fill="white"/>
<path d="M21.1501 26.5141C19.4421 26.2995 18.2066 26.8163 17.6186 26.6034C17.3171 26.4821 17.4705 26.4751 16.8965 26.3911C17.1339 26.5042 17.3754 26.6121 17.6198 26.7148C17.6128 26.6897 18.1827 27.7572 20.1806 27.84C22.1592 27.875 23.229 27.4416 23.705 27.5507C23.7074 27.5285 22.889 26.6967 21.1501 26.5141Z" fill="white"/>
<path d="M20.63 25.1892C20.9007 24.7715 22.1916 24.5399 22.6886 23.1137C23.1196 21.747 22.3683 20.8043 22.3415 20.7466C22.3829 21.1269 22.0609 21.7312 21.3212 22.8845C20.5466 24.0225 20.5524 25.083 20.5723 25.0918C20.4124 25.3473 20.238 25.6004 20.0479 25.8495C20.7193 25.4943 20.4632 25.4225 20.63 25.1892Z" fill="white"/>
<path d="M24.3329 24.6542C22.7276 24.8467 21.81 25.6278 21.2389 25.5572C20.9432 25.5094 21.0715 25.468 20.5547 25.5182C20.7915 25.573 21.0313 25.622 21.2728 25.6646C21.2634 25.6418 22.0567 26.5401 23.8476 26.1575C25.6162 25.7322 26.4871 25.0602 26.9532 25.0538C26.952 25.0317 25.9586 24.4232 24.3329 24.6542Z" fill="white"/>
<path d="M24.8037 21.0105C24.8469 19.5807 23.8932 18.8475 23.8587 18.8032C23.9976 19.1608 23.8407 19.824 23.4708 21.1137C23.0701 22.3953 23.3874 23.4149 23.4055 23.419C23.3343 23.7025 23.2498 23.9872 23.1523 24.2718C23.6511 23.7731 23.4026 23.7632 23.4854 23.4989C23.6091 23.0334 24.718 22.5073 24.8037 21.0105Z" fill="white"/>
<path d="M26.7529 22.1068C25.2963 22.6761 24.6791 23.645 24.1407 23.7109C23.859 23.7337 23.9628 23.6643 23.5107 23.8334C23.74 23.8311 23.9704 23.8218 24.202 23.8066C24.1909 23.7862 25.1516 24.4687 26.7033 23.6754C28.2298 22.8453 28.8919 21.9849 29.3317 21.8671C29.3271 21.8455 28.2211 21.4966 26.7529 22.108V22.1068Z" fill="white"/>
<path d="M26.2732 18.4664C25.9682 17.0665 24.8762 16.5858 24.8359 16.5537C25.0553 16.867 25.0547 17.5494 25.0244 18.8876C24.966 20.2246 25.5394 21.1346 25.5558 21.134C25.5633 21.425 25.5604 21.7202 25.5458 22.0189C25.8783 21.418 25.6444 21.4676 25.6514 21.1929C25.6433 20.7134 26.5537 19.9381 26.2732 18.4664Z" fill="white"/>
<path d="M28.41 19.0593C27.1465 19.9635 26.814 21.0485 26.3246 21.2404C26.0656 21.3296 26.1444 21.2375 25.7646 21.5087C25.9787 21.4515 26.1928 21.388 26.4069 21.3174C26.3941 21.2999 27.4662 21.7315 28.7466 20.59C29.9984 19.4181 30.4417 18.4223 30.8384 18.2013C30.8302 18.1814 29.6753 18.1114 28.41 19.0593Z" fill="white"/>
<path d="M27.0973 15.6412C26.486 14.3532 25.3193 14.1514 25.2744 14.1304C25.5573 14.3818 25.7043 15.0462 25.9826 16.3534C26.2357 17.6659 27.0104 18.4091 27.025 18.405C27.1026 18.6855 27.1714 18.9725 27.2309 19.2648C27.4024 18.6021 27.1912 18.7065 27.1317 18.4382C27.0075 17.9756 27.7005 17.0032 27.0973 15.6412Z" fill="white"/>
<path d="M29.3038 15.6989C28.2789 16.8842 28.2147 18.0176 27.7901 18.3227C27.5626 18.472 27.6157 18.3635 27.3164 18.7182C27.5083 18.6108 27.6985 18.4977 27.8881 18.3775C27.8729 18.3635 29.0022 18.5239 29.9775 17.1047C30.9225 15.6627 31.1378 14.5859 31.4738 14.2744C31.4621 14.2569 30.3211 14.4704 29.3038 15.6989Z" fill="white"/>
<path d="M27.2746 12.6932C26.4002 11.5878 25.2207 11.6759 25.1729 11.666C25.503 11.8416 25.7888 12.4529 26.3453 13.6569C26.8791 14.8719 27.8001 15.4062 27.8124 15.3987C27.9506 15.6524 28.0819 15.9143 28.2061 16.1844C28.2225 15.499 28.0416 15.6512 27.9232 15.4051C27.6986 14.9851 28.1571 13.8727 27.2746 12.6932Z" fill="white"/>
<path d="M28.5376 15.1331C28.3498 15.3338 28.3772 15.2154 28.166 15.6331C28.3282 15.4826 28.488 15.3256 28.6449 15.1635C28.628 15.1536 29.7579 15.0357 30.3966 13.4176C31.0021 11.7849 30.9794 10.6841 31.2384 10.2991C31.2232 10.2846 30.1586 10.7693 29.4353 12.213C28.6945 13.6159 28.8818 14.7336 28.5376 15.1331Z" fill="white"/>
<path d="M26.1134 10.9445C26.8968 11.9974 27.9083 12.2931 27.9194 12.2832C28.109 12.4967 28.2939 12.7195 28.473 12.9523C28.34 12.2814 28.1971 12.4734 28.0285 12.2628C27.7182 11.9093 27.9246 10.7135 26.807 9.78078C25.7127 8.91863 24.5822 9.29021 24.5332 9.29254C24.8943 9.38295 25.3102 9.90794 26.1134 10.9445Z" fill="white"/>
<path d="M28.5666 11.8486C28.4272 12.0895 28.4284 11.9676 28.3135 12.4255C28.4383 12.2394 28.5602 12.0481 28.6775 11.8515C28.6582 11.8457 29.7333 11.4566 30.0034 9.7265C30.2373 7.98995 29.9666 6.92538 30.1323 6.48789C30.1136 6.47797 29.189 7.20771 28.8041 8.78793C28.3922 10.3331 28.8151 11.3761 28.5666 11.8486Z" fill="white"/>
<path d="M25.6932 7.0617C24.4222 6.49063 23.4008 7.12703 23.3535 7.14162C23.7286 7.14162 24.2658 7.54936 25.2855 8.36135C26.2876 9.19492 27.3347 9.23692 27.344 9.22408C27.5756 9.38566 27.8043 9.55774 28.03 9.74032C27.7535 9.11967 27.6561 9.34191 27.4461 9.17742C27.0664 8.9085 27.0022 7.69577 25.6932 7.0617Z" fill="white"/>
<path d="M27.8782 8.64431C27.7959 8.91264 27.7697 8.79364 27.7592 9.26671C27.8397 9.05555 27.9161 8.83972 27.9867 8.61981C27.9657 8.61923 28.9305 7.97815 28.7987 6.23051C28.6283 4.48579 28.101 3.51864 28.1553 3.05373C28.1331 3.04848 27.4109 3.9818 27.4098 5.61044C27.3724 7.21225 28.0147 8.12456 27.8782 8.64431Z" fill="white"/>
<path d="M26.0877 6.39063C26.3519 6.49096 26.6156 6.60237 26.8781 6.72545C26.4639 6.18938 26.4202 6.42913 26.1763 6.32063C25.7418 6.15205 25.3912 4.9889 23.9346 4.6949C22.5282 4.45283 21.6766 5.32139 21.6357 5.34648C22.0091 5.25373 22.6589 5.51622 23.8635 6.05522C25.0534 6.61871 26.0807 6.40521 26.0877 6.39063Z" fill="white"/>
<path d="M26.4714 5.6973C26.4545 5.97788 26.4014 5.8688 26.5029 6.33079C26.5321 6.10563 26.5554 5.87755 26.5723 5.64713C26.549 5.6518 27.3481 4.79373 26.7829 3.13068C26.1757 1.48045 25.3818 0.675466 25.3088 0.212891C25.2832 0.213474 24.8264 1.29262 25.2546 2.86993C25.6367 4.43032 26.4807 5.15948 26.4726 5.6973H26.4714Z" fill="white"/>
<path d="M10.6653 26.686C8.89546 26.8773 8.05548 27.6969 8.05664 27.719C8.54255 27.6111 9.6252 28.0422 11.6441 27.9967C13.6851 27.9034 14.2795 26.8306 14.2708 26.8563C14.5975 26.7198 14.9183 26.574 15.2327 26.4194C14.3717 26.4643 14.5835 26.6177 14.2725 26.7449C13.6694 26.963 12.4053 26.462 10.6653 26.686Z" fill="white"/>
<path d="M6.70373 3.85227C6.91314 3.58394 7.31855 3.53552 7.82663 3.40428C8.34287 3.27478 8.96236 3.06303 9.78893 2.50246C10.6172 1.94363 11.3954 1.32298 12.012 0.837653C12.621 0.352911 13.0684 0.00291662 13.059 0C12.4349 0.300995 10.8797 0.268912 8.87894 1.10248C7.86221 1.53472 7.29522 2.24521 7.00414 2.80345C6.70956 3.36869 6.69089 3.7811 6.68389 3.78169C6.36482 4.11943 6.06732 4.47293 5.79199 4.841C6.35957 4.40759 6.47565 4.14743 6.70373 3.8511V3.85227Z" fill="white"/>
<path d="M13.9225 26.1199C14.1623 26.3148 14.0094 26.292 14.5438 26.4997C14.339 26.3416 14.1448 26.1794 13.9599 26.0138C13.9826 26.0009 13.6997 24.9708 12.5791 24.0229C11.4988 23.0522 11.031 22.5261 10.9791 22.1475C10.9651 22.2146 10.4208 23.2838 11.2002 24.5228C12.0664 25.8102 13.5171 25.7711 13.9225 26.1199Z" fill="white"/>
<path d="M10.5138 25.9001C10.8346 25.8435 11.1519 25.7758 11.4646 25.6983C10.7191 25.546 10.8515 25.7414 10.5482 25.7933C9.96543 25.8657 9.0257 25.0951 7.39647 24.9038C5.74684 24.6745 4.73768 25.266 4.73535 25.2882C5.20901 25.2981 6.08866 25.9701 7.88763 26.3942C9.7111 26.7757 10.5243 25.8768 10.5138 25.9001Z" fill="white"/>
<path d="M10.4342 25.1126C10.583 25.3547 10.4587 25.2981 10.8548 25.6195C10.7271 25.4206 10.6086 25.2199 10.4984 25.0187C10.5194 25.0111 10.5929 23.957 9.87832 22.784C9.19992 21.5975 8.90709 20.9786 8.96717 20.6006C8.93742 20.6578 8.14468 21.5631 8.49935 22.9438C8.91526 24.3875 10.1904 24.6839 10.4342 25.1126Z" fill="white"/>
<path d="M7.48607 24.1111C7.79232 24.1315 8.09623 24.1409 8.39839 24.1385C7.77482 23.8183 7.83548 24.037 7.54732 24.016C7.00016 23.9495 6.36726 22.9859 4.89261 22.4136C3.40747 21.7988 2.29099 22.1284 2.28516 22.1494C2.73023 22.2725 3.39755 23.1341 4.9457 23.97C6.52125 24.7691 7.49715 24.0907 7.4849 24.1111H7.48607Z" fill="white"/>
<path d="M7.77471 20.956C7.46613 19.6488 7.33955 18.9786 7.49413 18.6274C7.45621 18.6717 6.47331 19.3583 6.44531 20.7828C6.4564 22.2778 7.53904 22.8635 7.63763 23.3337C7.70354 23.602 7.60788 23.5186 7.87329 23.9211C7.81554 23.6994 7.76479 23.4783 7.72221 23.2584C7.74087 23.2555 8.11537 22.2574 7.77471 20.956Z" fill="white"/>
<path d="M2.82081 20.9244C4.11695 22.0765 5.20135 21.6524 5.18735 21.6693C5.4691 21.7621 5.75142 21.8432 6.03375 21.9132C5.53676 21.4552 5.53443 21.681 5.27018 21.5923C4.77436 21.3975 4.4302 20.3143 3.15447 19.4037C1.87757 18.4494 0.716758 18.4978 0.708008 18.517C1.10758 18.744 1.55324 19.7426 2.82081 20.9244Z" fill="white"/>
<path d="M5.60208 21.5774C5.60616 21.3493 5.61725 21.1235 5.63416 20.9007C5.65108 20.9024 6.27057 20.0275 6.27115 18.6846C6.30032 17.3436 6.32949 16.6617 6.56223 16.3584C6.51907 16.3904 5.40958 16.8186 5.04034 18.1964C4.69151 19.6495 5.56591 20.4755 5.535 20.9532C5.52683 21.2285 5.45975 21.1247 5.60208 21.5774Z" fill="white"/>
<path d="M3.61661 18.752C3.8651 18.9101 4.11593 19.0571 4.36909 19.193C4.0051 18.6289 3.94677 18.8477 3.71461 18.6978C3.28528 18.3892 3.21236 17.2552 2.1793 16.06C1.15381 14.8222 0.0122498 14.5865 0 14.6034C0.337744 14.9213 0.554741 16.0016 1.50906 17.4564C2.49546 18.8891 3.63236 18.7386 3.61661 18.752Z" fill="white"/>
<path d="M4.0364 18.7631C4.0959 18.5432 4.16006 18.3268 4.23006 18.1144C4.24465 18.1197 5.0543 17.4214 5.36346 16.1177C5.69829 14.8216 5.87387 14.1648 6.16728 13.9268C6.11945 13.9472 4.94755 14.0936 4.28023 15.3442C3.61641 16.6719 4.26623 17.6851 4.12157 18.1413C4.04748 18.4061 4.0084 18.29 4.0364 18.7631Z" fill="white"/>
<path d="M2.77463 15.5393C2.98054 15.7534 3.19112 15.957 3.4052 16.1507C3.18004 15.5143 3.07329 15.7126 2.88196 15.5102C2.53488 15.1059 2.71513 13.9854 1.96847 12.5714C1.23932 11.1172 0.178252 10.6103 0.163086 10.6243C0.422082 11.0157 0.401082 12.1199 1.01241 13.7678C1.65756 15.4017 2.79213 15.53 2.77463 15.5393Z" fill="white"/>
<path d="M5.05468 13.4014C5.6625 12.222 5.97516 11.6252 6.31233 11.4648C6.26158 11.473 5.08851 11.3301 4.16861 12.3859C3.23529 13.5169 3.6442 14.6603 3.40096 15.0686C3.27029 15.3083 3.25804 15.1852 3.17871 15.6519C3.28604 15.4524 3.39687 15.2576 3.51179 15.0686C3.52462 15.0773 4.46902 14.5949 5.05468 13.4014Z" fill="white"/>
<path d="M1.33026 10.0555C1.60326 11.8025 2.68007 12.2039 2.66082 12.2091C2.81482 12.4675 2.97524 12.7166 3.14207 12.9569C3.06099 12.2832 2.91399 12.45 2.77166 12.2068C2.52141 11.729 2.93849 10.682 2.52199 9.12449C2.13233 7.5326 1.21593 6.78128 1.19727 6.79061C1.36176 7.23394 1.09343 8.30317 1.33026 10.0555Z" fill="white"/>
<path d="M5.34471 10.683C6.19345 9.6832 6.63269 9.17862 6.99785 9.10454C6.94594 9.09987 5.83412 8.67638 4.70539 9.47903C3.54749 10.3523 3.69916 11.565 3.37366 11.9033C3.19458 12.1046 3.20916 11.9821 3.03125 12.4172C3.17883 12.2492 3.32874 12.0871 3.48216 11.9302C3.49266 11.9418 4.51523 11.7021 5.34471 10.683Z" fill="white"/>
<path d="M3.2763 8.93996C3.36905 9.22871 3.47055 9.51045 3.58022 9.78462C3.64905 9.10913 3.46997 9.23571 3.3848 8.96446C3.24772 8.43889 3.88296 7.52132 3.84038 5.90668C3.83396 4.26521 3.12464 3.31322 3.10247 3.31789C3.15497 3.78863 2.63173 4.76045 2.46315 6.52209C2.33365 8.28722 3.2973 8.93996 3.2763 8.93996Z" fill="white"/>
<path d="M3.59082 9.23307C3.77165 9.10532 3.95365 8.98399 4.13739 8.86907C4.14614 8.88307 5.19146 8.89824 6.23269 8.109C7.28968 7.3431 7.84675 6.96161 8.22241 6.9791C8.17341 6.96161 7.18293 6.27912 5.88912 6.78369C4.55214 7.3501 4.42964 8.56633 4.03823 8.81657C3.8189 8.96882 3.86032 8.85332 3.59082 9.23307Z" fill="white"/>
<path d="M4.61961 5.91133C4.64236 6.21466 4.67502 6.51274 4.71819 6.80615C4.94277 6.16624 4.73861 6.24616 4.71936 5.96208C4.71002 5.41842 5.54651 4.68168 5.92217 3.10671C6.34333 1.51482 5.9035 0.421089 5.87842 0.419922C5.80317 0.888331 5.0151 1.69973 4.41019 3.36629C3.8467 5.04685 4.64295 5.91658 4.61961 5.91133Z" fill="white"/>
<path d="M7.71862 4.45714C6.24807 4.67822 5.83507 5.82912 5.39291 5.9767C5.14267 6.0712 5.21033 5.96912 4.85742 6.27245C5.06392 6.19253 5.27042 6.11903 5.4775 6.05195C5.48391 6.0677 6.49714 6.33661 7.71746 5.82562C8.9506 5.34146 9.61559 5.10988 9.98484 5.21897C9.94342 5.19097 9.13435 4.28565 7.71862 4.45714Z" fill="white"/>
<path d="M16.5981 10.896C16.5911 10.9082 16.5841 10.9217 16.5771 10.9362L16.5981 10.896Z" fill="white"/>
<path d="M16.7812 10.5434C16.6797 10.796 16.7736 10.5621 16.5986 10.8957C16.6925 10.7312 16.8063 10.7301 16.8891 10.5306C16.8687 10.5277 18.0091 9.97872 17.8936 8.19841C17.7758 6.38136 17.1872 6.48694 17.5611 4.91313C17.5401 4.90555 16.885 5.91762 16.7351 7.56667C16.5525 9.18423 17.259 9.35748 16.7812 10.5434Z" fill="white"/>
<path d="M15.0098 8.59639C15.5371 9.4043 16.2785 9.70237 16.2872 9.69596C16.4173 9.86221 16.5544 10.1265 16.6757 10.3055C16.5678 9.89312 16.4582 9.85754 16.3549 9.69712C16.1659 9.40488 16.3806 8.59698 15.5954 7.84274C14.8243 7.14042 13.9557 7.29966 13.9189 7.29675C14.1844 7.39241 14.4661 7.7984 15.0098 8.59639Z" fill="white"/>
<path d="M14.6895 10.9546C14.6947 10.9681 14.7005 10.9815 14.7075 10.9961L14.6895 10.9546Z" fill="white"/>
<path d="M10.612 6.47266C10.5928 6.48432 10.976 7.62764 12.1712 8.7727C13.3221 9.92418 13.8979 9.47911 14.5279 10.5921C14.662 10.8289 14.5378 10.6096 14.6894 10.9549C14.6194 10.7793 14.6894 10.6895 14.585 10.4999C14.5699 10.5139 14.8516 9.28019 13.3881 8.26054C11.8942 7.21989 11.6095 7.74605 10.612 6.47266Z" fill="white"/>
<path d="M11.9018 10.763C12.8625 10.854 13.5578 10.4603 13.5584 10.4498C13.7696 10.4521 14.0618 10.5093 14.2771 10.5262C13.8874 10.3535 13.7912 10.4171 13.6016 10.3978C13.2551 10.3634 12.7575 9.69201 11.6784 9.83551C10.6482 10.0006 10.2311 10.7787 10.2061 10.8056C10.4464 10.658 10.9387 10.6901 11.9018 10.763Z" fill="white"/>
<path d="M10.2698 13.0918C11.8874 12.9098 11.899 12.1818 13.1614 12.3836C13.4303 12.4268 13.1812 12.3865 13.5458 12.4834C13.3649 12.4285 13.3381 12.3177 13.1252 12.2816C13.1269 12.302 12.3377 11.3127 10.628 11.8213C8.88267 12.3405 9.11659 12.8905 7.49903 12.8771C7.49611 12.8993 8.62893 13.3129 10.2698 13.0918Z" fill="white"/>
<path d="M13.5459 12.4834C13.5593 12.4874 13.5739 12.4915 13.5896 12.495L13.5459 12.4834Z" fill="white"/>
<path d="M12.9536 12.5392C12.5756 12.7363 12.5651 12.8507 12.4321 12.9877C12.1894 13.2368 11.3535 13.2076 10.7935 14.1404C10.2802 15.0486 10.629 15.86 10.6343 15.8962C10.6687 15.6162 11.0006 15.251 11.658 14.5435C12.3283 13.8493 12.4537 13.0601 12.4461 13.0531C12.5797 12.8892 12.806 12.6973 12.9536 12.5392Z" fill="white"/>
<path d="M14.0273 14.3305C14.039 14.3224 14.0513 14.3136 14.0635 14.3037L14.0273 14.3305Z" fill="white"/>
<path d="M10.5654 19.3034C10.5812 19.3192 11.6107 18.6915 12.4606 17.2711C13.3269 15.8927 12.7651 15.4301 13.7101 14.5686C13.9114 14.3848 13.7253 14.5551 14.028 14.3306C13.8723 14.4379 13.769 14.3895 13.608 14.5336C13.625 14.5452 12.3597 14.5452 11.6912 16.199C11.0093 17.8871 11.5845 18.0475 10.5654 19.3034Z" fill="white"/>
<path d="M14.4621 17.0919C14.3372 16.1352 13.7988 15.5449 13.7878 15.5466C13.7428 15.3401 13.7335 15.0426 13.702 14.8291C13.6203 15.248 13.7038 15.3273 13.7277 15.5163C13.7708 15.8616 13.2272 16.4963 13.6075 17.5165C13.9978 18.4837 14.8494 18.717 14.8809 18.7357C14.6832 18.5344 14.605 18.0468 14.4621 17.0919Z" fill="white"/>
<path d="M17.0952 18.1641C16.558 16.6276 15.8458 16.7787 15.7612 15.5024C15.7431 15.23 15.76 15.4832 15.7728 15.104C15.76 15.2936 15.6573 15.3443 15.6696 15.5602C15.6894 15.5537 14.9002 16.5436 15.7769 18.097C16.6717 19.6831 17.1559 19.3325 17.5024 20.9122C17.5246 20.9098 17.6756 19.714 17.0952 18.1641Z" fill="white"/>
<path d="M15.7725 15.1047C15.7736 15.0907 15.7742 15.0762 15.7736 15.061L15.7725 15.1047Z" fill="white"/>
<path d="M16.5732 16.0513C16.3836 15.9579 16.1456 15.7794 15.959 15.6709C16.2355 15.9959 16.3492 15.9801 16.512 16.0799C16.8089 16.2613 16.9664 17.082 18.0006 17.4209C19.0004 17.719 19.7138 17.1987 19.7483 17.1853C19.4677 17.2138 19.0378 16.9718 18.2019 16.4882C17.3759 15.9894 16.5785 16.0419 16.5732 16.0513Z" fill="white"/>
<path d="M20.6821 15.0983C19.1456 14.5605 18.8195 15.2115 17.7695 14.4817C17.5455 14.3266 17.7532 14.47 17.4668 14.2251C17.6062 14.3534 17.5817 14.4642 17.7585 14.5896C17.766 14.5704 18.0472 15.8041 19.8088 16.0876C21.6066 16.3769 21.6346 15.7796 23.086 16.4936C23.0982 16.4749 22.2565 15.611 20.6821 15.0983Z" fill="white"/>
<path d="M17.4661 14.225C17.4556 14.2151 17.4439 14.2057 17.4316 14.1958L17.4661 14.225Z" fill="white"/>
<path d="M20.6661 13.9257C21.5224 13.3302 21.5603 12.4482 21.5714 12.4126C21.4192 12.65 20.9613 12.8349 20.0624 13.1873C19.157 13.5221 18.702 14.1783 18.7061 14.1882C18.5148 14.2781 18.2272 14.3527 18.0254 14.4315C18.4518 14.4181 18.5107 14.3189 18.6898 14.2536C19.017 14.1346 19.7567 14.5231 20.6661 13.9257Z" fill="white"/>
<path d="M17.0966 11.2154C16.7991 11.4207 16.6632 11.4347 16.4024 11.615C16.3925 11.5292 16.3744 11.4429 16.3476 11.3566C16.0052 10.2967 15.1681 9.78505 15.0859 9.43213C15.0806 9.43097 15.2848 10.3159 15.2504 10.7633C15.2253 11.1238 15.1512 11.2393 15.1302 11.5555C15.0567 11.51 14.978 11.4697 14.894 11.4371C13.8516 11.0439 12.9299 11.3793 12.6027 11.2236C12.598 11.2271 13.4176 11.6191 13.746 11.9247C14.012 12.1691 14.0563 12.2986 14.2902 12.5127C14.2085 12.5419 14.1281 12.5786 14.0505 12.6235C13.0932 13.1934 12.7812 14.1233 12.4551 14.2819C12.4551 14.2878 13.2723 13.8911 13.7162 13.8252C14.0732 13.7698 14.2021 13.8159 14.5154 13.7663C14.4874 13.8479 14.4658 13.9337 14.4524 14.0229C14.3013 15.1266 14.8333 15.9502 14.7545 16.3037C14.7586 16.3072 14.9587 15.4212 15.1839 15.0327C15.3629 14.7188 15.4796 14.6471 15.6359 14.3712C15.6826 14.4441 15.7357 14.5147 15.7975 14.5806C16.5658 15.3867 17.5422 15.4842 17.7692 15.7665C17.7744 15.7653 17.2062 15.0566 17.0429 14.6383C16.9093 14.3023 16.9257 14.167 16.8073 13.8724C16.8936 13.8818 16.9817 13.8835 17.0715 13.8765C18.181 13.7785 18.8658 13.0762 19.2281 13.0744C19.2304 13.0692 18.3221 13.0721 17.8934 12.9385C17.5475 12.8335 17.4518 12.7361 17.1479 12.6451C17.2086 12.5833 17.2652 12.5156 17.3159 12.441C17.9307 11.5123 17.8088 10.5393 18.0334 10.2547C18.0311 10.2494 17.4664 10.9611 17.0954 11.2136L17.0966 11.2154Z" fill="white"/>
<path d="M17.8322 12.3516C17.8182 12.3539 17.8042 12.3563 17.7891 12.3598L17.8322 12.3516Z" fill="white"/>
<path d="M20.5215 10.3814C19.1432 11.2471 19.4488 11.908 18.2238 12.2743C17.9625 12.3525 18.2052 12.2801 17.833 12.3513C18.0208 12.3215 18.0926 12.4102 18.3008 12.3501C18.2903 12.332 19.4307 12.8815 20.7502 11.6811C22.0971 10.4561 21.6474 10.0617 23.1109 9.37226C23.1039 9.35126 21.904 9.47026 20.5215 10.3814Z" fill="white"/>
<path d="M18.6181 11.4133C18.7289 11.0837 19.4943 10.7471 19.594 9.6633C19.664 8.59582 18.9611 8.01308 18.9751 8.01074C19.0667 8.2779 18.9261 8.75098 18.6403 9.67496C18.3375 10.5914 18.5668 11.3567 18.5773 11.3596C18.5283 11.5649 18.4075 11.8368 18.3428 12.0433C18.5977 11.7014 18.5574 11.5947 18.6181 11.4133Z" fill="white"/>
<path d="M47.4736 19.0002V8.81836H51.2918C52.074 8.81836 52.7303 8.95425 53.2606 9.22603C53.7942 9.49781 54.1969 9.87897 54.4687 10.3695C54.7438 10.8567 54.8813 11.4251 54.8813 12.0748C54.8813 12.7277 54.7421 13.2944 54.4637 13.775C54.1886 14.2523 53.7826 14.6219 53.2456 14.8837C52.7087 15.1422 52.0492 15.2715 51.267 15.2715H48.5475V13.7402H51.0184C51.4758 13.7402 51.8503 13.6773 52.142 13.5513C52.4336 13.4221 52.6491 13.2348 52.7883 12.9895C52.9308 12.7409 53.002 12.436 53.002 12.0748C53.002 11.7135 52.9308 11.4052 52.7883 11.15C52.6457 10.8915 52.4287 10.696 52.137 10.5634C51.8453 10.4275 51.4691 10.3596 51.0084 10.3596H49.3181V19.0002H47.4736ZM52.7336 14.3865L55.2542 19.0002H53.1959L50.7201 14.3865H52.7336Z" fill="white"/>
<path d="M57.5866 8.81836H59.6697L62.1605 13.3226H62.2599L64.7507 8.81836H66.8338L63.1299 15.2019V19.0002H61.2904V15.2019L57.5866 8.81836Z" fill="white"/>
<path d="M75.7734 11.6174C75.727 11.1832 75.5315 10.8451 75.1868 10.6032C74.8454 10.3612 74.4013 10.2402 73.8544 10.2402C73.4699 10.2402 73.1401 10.2982 72.865 10.4142C72.5899 10.5302 72.3795 10.6877 72.2336 10.8865C72.0878 11.0854 72.0132 11.3124 72.0099 11.5676C72.0099 11.7798 72.058 11.9637 72.1541 12.1195C72.2535 12.2753 72.3878 12.4078 72.5568 12.5172C72.7258 12.6233 72.9131 12.7128 73.1186 12.7857C73.3241 12.8586 73.5312 12.9199 73.74 12.9696L74.6946 13.2083C75.0791 13.2978 75.4486 13.4187 75.8033 13.5712C76.1612 13.7237 76.481 13.9159 76.7628 14.1479C77.0478 14.3799 77.2732 14.66 77.4389 14.9881C77.6046 15.3162 77.6875 15.7007 77.6875 16.1415C77.6875 16.7381 77.535 17.2634 77.2301 17.7175C76.9252 18.1683 76.4844 18.5212 75.9077 18.7765C75.3343 19.0284 74.6399 19.1543 73.8246 19.1543C73.0324 19.1543 72.3447 19.0317 71.7613 18.7864C71.1813 18.5411 70.7273 18.1832 70.3991 17.7125C70.0743 17.2419 69.8987 16.6685 69.8721 15.9924H71.6868C71.7133 16.347 71.8227 16.642 72.0149 16.8773C72.2071 17.1126 72.4574 17.2883 72.7656 17.4043C73.0772 17.5203 73.4252 17.5783 73.8096 17.5783C74.2107 17.5783 74.562 17.5186 74.8636 17.3993C75.1685 17.2767 75.4072 17.1077 75.5795 16.8922C75.7519 16.6735 75.8397 16.4183 75.843 16.1266C75.8397 15.8614 75.7618 15.6427 75.6094 15.4703C75.4569 15.2947 75.2431 15.1489 74.968 15.0328C74.6962 14.9135 74.3781 14.8075 74.0135 14.7147L72.8551 14.4164C72.0166 14.2009 71.3537 13.8745 70.8665 13.437C70.3826 12.9962 70.1406 12.4112 70.1406 11.682C70.1406 11.0821 70.303 10.5568 70.6278 10.106C70.9559 9.65528 71.4017 9.30562 71.9652 9.05704C72.5286 8.80514 73.1667 8.6792 73.8792 8.6792C74.6018 8.6792 75.2348 8.80514 75.7784 9.05704C76.3253 9.30562 76.7545 9.65197 77.066 10.0961C77.3776 10.5369 77.5383 11.044 77.5483 11.6174H75.7734Z" fill="white"/>
<path d="M82.5753 19.0002H80.6066L84.1911 8.81836H86.4681L90.0575 19.0002H88.0888L85.3693 10.9064H85.2898L82.5753 19.0002ZM82.6399 15.008H88.0093V16.4895H82.6399V15.008Z" fill="white"/>
<path d="M101.866 8.81836V19.0002H100.225L95.4276 12.0648H95.3431V19.0002H93.4986V8.81836H95.1492L99.9418 15.7587H100.031V8.81836H101.866Z" fill="white"/>
<path d="M107.283 19.0002H105.314L108.899 8.81836H111.176L114.765 19.0002H112.797L110.077 10.9064H109.998L107.283 19.0002ZM107.348 15.008H112.717V16.4895H107.348V15.008Z" fill="white"/>
</g>
<defs>
<clipPath id="clip0_212_151">
<rect width="115" height="28" fill="white"/>
</clipPath>
</defs>
</svg>
