<svg width="138" height="30" viewBox="0 0 138 30" fill="none" xmlns="http://www.w3.org/2000/svg">
<path d="M9.4837 23.1522C14.481 23.1522 17.7935 20.4728 17.7935 16.4384C17.7935 13.3678 15.8967 11.3505 12.1332 10.1757L7.67754 8.79076C6.23188 8.33967 5.44928 7.55707 5.44928 6.50272C5.44928 5.11775 6.80435 4.06431 8.85145 4.06431C11.26 4.06431 13.0661 5.38949 13.8188 7.52627L17.7328 5.69022C16.529 2.37862 13.1567 0 8.85145 0C4.00453 0 0.782609 2.67935 0.782609 6.68388C0.782609 9.66395 2.58877 11.8315 6.41304 13.0362L10.9891 14.481C12.3134 14.9031 13.1268 15.5353 13.1268 16.7092C13.1268 18.0335 11.7717 19.0879 9.4837 19.0879C7.25543 19.0879 4.99728 17.6422 3.91395 15.0236L0 16.8596C1.2346 20.6531 5.02808 23.1522 9.4837 23.1522Z" fill="white"/>
<path d="M27.185 5.99097C23.6922 5.99097 20.8625 7.73734 19.8997 10.4466L23.7828 12.3134C24.2647 10.8388 25.589 9.90492 27.185 9.90492C28.6904 9.90492 29.714 10.7183 29.714 11.952V12.4946L24.5654 13.5779C21.2239 14.2709 19.2973 15.866 19.2973 18.3053C19.2973 21.0444 21.6451 23.1522 25.3788 23.1522C27.2756 23.1522 28.781 22.5797 30.0147 21.2854V22.7908H34.2303V11.952C34.2303 8.43028 31.3698 5.99097 27.185 5.99097ZM26.0709 19.8406C24.7765 19.8406 23.964 19.2382 23.964 18.2446C23.964 17.4919 24.4449 16.9203 25.3788 16.7093L29.714 15.7455V16.529C29.714 18.3651 28.118 19.8406 26.0709 19.8406Z" fill="white"/>
<path d="M55.062 5.99097C52.8347 5.99097 50.9977 7.01452 50.0647 8.51995C49.0113 6.86416 47.2649 5.99097 45.1571 5.99097C43.1707 5.99097 41.6345 6.77358 40.8519 8.3397V6.35238H36.6372V22.7908H41.1535V13.1866C41.1535 11.1694 42.2368 10.0553 43.8329 10.0553C45.428 10.0553 46.5122 11.1694 46.5122 13.1866V22.7908H51.0285V13.1866C51.0285 11.1694 52.1118 10.0553 53.7079 10.0553C55.303 10.0553 56.3872 11.1694 56.3872 13.1866V22.7908H60.9035V12.2238C60.9035 8.43028 58.495 5.99097 55.062 5.99097Z" fill="white"/>
<path d="M79.1759 14.0897C79.1759 9.5435 75.6233 5.99097 71.0165 5.99097C66.3199 5.99097 62.7076 9.63408 62.7076 14.5417C62.7076 19.298 66.1098 23.1522 71.3181 23.1522C74.6895 23.1522 77.3996 21.5562 78.3933 19.1477L74.78 17.4321C74.1478 18.5453 72.9739 19.2382 71.3779 19.2382C69.1505 19.2382 67.675 17.9131 67.4041 15.8361H78.9648C79.1152 15.3841 79.1759 14.7518 79.1759 14.0897ZM67.4947 12.5245C67.9458 10.6277 69.2402 9.60419 71.0165 9.60419C72.8833 9.60419 74.2085 10.7781 74.3887 12.5245H67.4947Z" fill="white"/>
<path d="M93.1439 0.36145V7.73736C92.0298 6.62323 90.374 5.99098 88.4175 5.99098C83.7508 5.99098 80.0778 9.75457 80.0778 14.5716C80.0778 19.3587 83.6602 23.1522 88.4474 23.1522C90.4646 23.1522 92.2708 22.4901 93.4447 21.2256V22.7908H97.6602V0.36145H93.1439ZM88.9891 19.0879C86.5208 19.0879 84.7445 17.2211 84.7445 14.5716C84.7445 11.952 86.5208 10.0553 88.9891 10.0553C91.4275 10.0553 93.1439 11.9221 93.1439 14.5716C93.1439 17.2509 91.4275 19.0879 88.9891 19.0879Z" fill="white"/>
<path d="M107.654 5.99097C104.161 5.99097 101.331 7.73734 100.368 10.4466L104.252 12.3134C104.734 10.8388 106.058 9.90492 107.654 9.90492C109.159 9.90492 110.183 10.7183 110.183 11.952V12.4946L105.034 13.5779C101.693 14.2709 99.7661 15.866 99.7661 18.3053C99.7661 21.0444 102.114 23.1522 105.848 23.1522C107.744 23.1522 109.25 22.5797 110.484 21.2854V22.7908H114.699V11.952C114.699 8.43028 111.839 5.99097 107.654 5.99097ZM106.54 19.8406C105.245 19.8406 104.433 19.2382 104.433 18.2446C104.433 17.4919 104.914 16.9203 105.848 16.7093L110.183 15.7455V16.529C110.183 18.3651 108.587 19.8406 106.54 19.8406Z" fill="white"/>
<path d="M128.185 6.35242L124.302 17.01L120.418 6.35242H115.601L122.044 22.7908L121.622 23.7238C121.23 24.597 120.718 25.5906 118.912 25.5906C118.25 25.5906 117.438 25.4702 116.865 25.2899V28.9928C117.557 29.3542 118.491 29.5046 119.454 29.5046C123.88 29.5046 125.265 26.1631 125.867 24.597L133.002 6.35242H128.185Z" fill="white"/>
<path d="M133.897 16.642C132.077 16.642 130.602 18.1175 130.602 19.9373C130.602 21.757 132.077 23.2316 133.897 23.2316C135.717 23.2316 137.191 21.757 137.191 19.9373C137.191 18.1175 135.717 16.642 133.897 16.642Z" fill="#A3A3A3"/>
</svg>
