<svg width="330" height="40" viewBox="0 0 330 40" fill="none" xmlns="http://www.w3.org/2000/svg">
<g clip-path="url(#clip0_4_52)">
<path d="M0.169034 36.845C2.01645 37.8548 3.99904 38.5947 6.05636 39.0421C8.23805 39.6065 10.4792 39.9091 12.7324 39.9436C15.4982 40.002 18.2475 39.5039 20.8169 38.4788C22.9232 37.6561 24.7643 36.2728 26.1409 34.4788C27.3771 32.7991 28.03 30.7612 28 28.6759C28.0206 26.788 27.4384 24.9427 26.3381 23.4083C25.2258 21.8453 23.8651 20.4751 22.3099 19.352C20.4061 17.9988 18.4315 16.7482 16.3944 15.6055L14.3662 14.4788C13.3608 13.9733 12.3913 13.3992 11.4648 12.7604C11.2087 12.6015 10.9952 12.3824 10.8431 12.1223C10.6909 11.8621 10.6045 11.5686 10.5916 11.2675C10.5966 10.8876 10.6941 10.5146 10.8757 10.1808C11.0573 9.84703 11.3175 9.56255 11.6338 9.352C12.4326 8.79465 13.3933 8.51732 14.3662 8.56327C15.5485 8.55399 16.7285 8.66727 17.8873 8.90129C19.4417 9.26684 20.9745 9.71823 22.4789 10.2534L25.5211 3.32383C23.8997 2.27784 22.1214 1.49802 20.2535 1.01397C18.3007 0.463696 16.2824 0.179444 14.2535 0.168901C11.6852 0.113665 9.13353 0.593309 6.76058 1.57735C4.76939 2.39784 3.04384 3.75293 1.77467 5.49284C0.598661 7.14472 -0.0227188 9.12722 1.95748e-05 11.1548C-0.0226984 13.0736 0.569603 14.9492 1.69016 16.5069C2.73632 18.0036 4.03222 19.309 5.52115 20.3661C6.94838 21.3614 8.93899 22.6102 11.493 24.1126L13.2395 25.1266C14.7042 25.9905 15.7653 26.6572 16.4226 27.1266C16.6898 27.2698 16.9188 27.475 17.0903 27.725C17.2619 27.975 17.371 28.2624 17.4085 28.5633C17.3729 28.9917 17.2306 29.4044 16.9943 29.7637C16.7581 30.1229 16.4357 30.4172 16.0564 30.6196C14.9766 31.2881 13.7191 31.6123 12.4507 31.5492C10.8553 31.5113 9.27258 31.2554 7.7465 30.7886C6.28375 30.4114 4.8738 29.8531 3.54932 29.1266L0.169034 36.845ZM61.7465 3.32383C60.1251 2.27784 58.3467 1.49802 56.4789 1.01397C54.526 0.463696 52.5078 0.179444 50.4789 0.168901C46.9406 0.113661 43.451 0.998215 40.3662 2.73228C37.4112 4.40976 34.9823 6.87769 33.3521 9.85904C31.6278 13.0382 30.7545 16.6091 30.8169 20.2252C30.7447 23.7896 31.5679 27.3151 33.2113 30.4788C34.7836 33.4217 37.1826 35.8403 40.1127 37.4365C43.3688 39.1692 47.0169 40.0327 50.7042 39.9436C52.7649 39.9349 54.817 39.6796 56.8169 39.183C58.6826 38.7615 60.4763 38.0687 62.1409 37.1266L58.2535 29.4647C56.0683 30.8136 53.5539 31.5347 50.9859 31.5492C49.3371 31.5394 47.725 31.0606 46.338 30.1689C44.806 29.1955 43.569 27.8222 42.7606 26.1971C41.8264 24.3275 41.3623 22.2583 41.4085 20.1689C41.371 18.0835 41.8245 16.0185 42.7324 14.1407C43.51 12.5002 44.6928 11.0848 46.169 10.0281C47.455 9.09174 49.0009 8.57971 50.5916 8.56327C51.7738 8.55399 52.9538 8.66727 54.1127 8.90129C55.667 9.26684 57.1999 9.71823 58.7042 10.2534L61.7465 3.32383ZM84.169 0.112562C80.6036 0.0547092 77.0861 0.93895 73.9719 2.67594C70.9991 4.35231 68.5586 6.83192 66.9296 9.83087C65.2073 13.021 64.3342 16.6004 64.3944 20.2252C64.3489 23.7181 65.1819 27.1665 66.8169 30.2534C68.4038 33.229 70.7952 35.6986 73.7183 37.3802C76.9027 39.1778 80.5132 40.0828 84.169 39.9999C87.7713 40.067 91.3275 39.1828 94.4789 37.4365C97.4476 35.7643 99.8801 33.283 101.493 30.2816C103.202 27.0672 104.065 23.4707 104 19.8309C104.046 16.3413 103.223 12.8951 101.606 9.8027C100.039 6.82883 97.6542 4.36558 94.7324 2.70411C91.5048 0.915313 87.8581 0.0206582 84.169 0.112562ZM74.9296 20.1689C74.8902 18.0985 75.3238 16.0464 76.1972 14.1689C76.9434 12.5403 78.1102 11.1402 79.5775 10.1126C80.9607 9.16177 82.6033 8.66015 84.2817 8.67594C85.5622 8.63377 86.8346 8.89506 87.9948 9.43847C89.1551 9.98188 90.1704 10.792 90.9578 11.8027C92.7006 14.1063 93.5871 16.9448 93.4648 19.8309C93.6669 22.9182 92.7354 25.9731 90.8451 28.4224C90.0208 29.3976 88.9877 30.1748 87.8223 30.6965C86.6569 31.2183 85.3891 31.4712 84.1127 31.4365C82.8196 31.49 81.5327 31.2313 80.3608 30.6821C79.1889 30.1329 78.1666 29.3095 77.3803 28.2816C75.6688 25.9327 74.8048 23.0726 74.9296 20.1689ZM110.197 39.2112H120.451V27.1548H127.268L133.465 39.2112H145.352L136.901 24.1126C138.495 23.0473 139.801 21.6057 140.704 19.9154C141.654 18.0808 142.129 16.0372 142.085 13.9717C142.21 12.0973 141.869 10.221 141.092 8.51041C140.316 6.79984 139.128 5.30826 137.634 4.1689C134.312 1.88339 130.339 0.73683 126.31 0.901294H110.197V39.2112ZM125.972 8.95763C127.443 8.86199 128.898 9.31344 130.056 10.2252C130.556 10.7063 130.943 11.2913 131.191 11.9387C131.44 12.5861 131.543 13.2801 131.493 13.9717C131.516 14.6595 131.392 15.3443 131.13 15.9805C130.867 16.6167 130.473 17.1899 129.972 17.6619C128.917 18.6355 127.519 19.1519 126.085 19.0985H120.451V8.95763H125.972ZM170.986 27.6619L176.169 20.6759V39.2112H186.423V0.901294H179.606L169.014 15.4928L157.465 0.901294H150.423V39.2112H160.676V20.6759L166.873 28.2252L170.986 27.6619ZM223.042 39.2112V0.901294H218.592V18.0844H200.62V0.619605L196.169 0.901294V39.2112H200.62V21.69H218.592V39.2112H223.042ZM256.62 39.2112L256.056 35.6619H237.972V21.2957H251.718L251.211 17.9717H237.972V4.22524H254.93L254.423 0.901294H233.521V39.2112H256.62ZM262.986 39.2112H267.437V23.4928H272.845C274.182 23.4916 275.517 23.4164 276.845 23.2675L285.634 39.2112H290.535L280.789 22.0844C282.748 21.3036 284.447 19.9854 285.69 18.2816C286.942 16.45 287.591 14.2741 287.549 12.0562C287.674 10.439 287.388 8.81644 286.719 7.33912C286.049 5.86179 285.017 4.57755 283.718 3.60552C280.645 1.65774 277.042 0.712794 273.409 0.901294H262.986V39.2112ZM273.465 4.67594C275.924 4.52917 278.373 5.10701 280.507 6.33791C281.387 7.02708 282.077 7.92954 282.511 8.95981C282.945 9.99009 283.108 11.1141 282.986 12.2252C283.066 13.3554 282.851 14.487 282.362 15.5091C281.873 16.5312 281.127 17.4089 280.197 18.0562C278.025 19.3309 275.53 19.9474 273.014 19.8309H267.437V4.67594H273.465ZM311.606 -0.000113847C308.309 0.0275255 305.087 0.984339 302.31 2.76045C299.553 4.54296 297.325 7.03351 295.859 9.97172C294.268 13.1524 293.466 16.6693 293.521 20.2252C293.462 23.7604 294.254 27.2579 295.831 30.4224C297.265 33.3105 299.468 35.7473 302.197 37.4647C304.953 39.1694 308.14 40.0492 311.38 39.9999C314.691 40.0043 317.935 39.0664 320.732 37.2957C323.521 35.5207 325.771 33.0173 327.239 30.0562C328.828 26.8648 329.63 23.3393 329.578 19.7745C329.637 16.2394 328.845 12.7419 327.268 9.57735C325.824 6.67792 323.6 4.23899 320.845 2.5351C318.066 0.834566 314.863 -0.0444074 311.606 -0.000113847ZM298.197 20.1689C298.148 17.2848 298.745 14.4262 299.944 11.8027C301 9.47171 302.664 7.46753 304.761 5.99989C306.805 4.59201 309.236 3.85378 311.718 3.88721C314.122 3.85274 316.476 4.57183 318.451 5.94355C320.483 7.38799 322.089 9.35367 323.099 11.6337C324.258 14.2087 324.835 17.0075 324.789 19.8309C324.836 22.7239 324.24 25.5912 323.042 28.2252C321.996 30.5627 320.33 32.5694 318.225 34.0281C316.174 35.4183 313.746 36.1458 311.268 36.1126C308.864 36.147 306.51 35.4279 304.535 34.0562C302.503 32.6118 300.897 30.6461 299.887 28.3661C298.728 25.7911 298.151 22.9923 298.197 20.1689Z" fill="white"/>
</g>
<defs>
<clipPath id="clip0_4_52">
<rect width="329.577" height="40" fill="white"/>
</clipPath>
</defs>
</svg>
