<svg width="231" height="30" viewBox="0 0 231 30" fill="none" xmlns="http://www.w3.org/2000/svg">
<g clip-path="url(#clip0_206_157)">
<path d="M213.7 25.84V16.46H228.29V12.71H213.7V4.18H230.79V0.42H209.54V29.59H231.2V25.84H213.7ZM203.7 8.34C203.7 3.75 199.95 0.42 194.53 0.42H182.03V29.59H186.19V17.92H196.18C198.47 17.92 199.1 18.55 199.1 20.84V29.59H203.26V19.79C203.26 16.87 202.22 15.71 198.88 15.71C201.61 14.87 203.7 12.08 203.7 8.34ZM199.53 8.95C199.53 11.87 197.44 14.15 193.91 14.15H186.2V4.16H193.91C197.45 4.16 199.53 5.83 199.53 8.95ZM155.69 29.59H177.35V25.84H159.85V16.46H174.44V12.71H159.85V4.18H176.94V0.42H155.69V29.59ZM144.8 29.64H148.96V20.69H125.84V29.64H130V24.93H144.8V29.64ZM148.97 16.53V0.38H144.81V12.28H130.01V0.38H125.85V16.52H148.97V16.53ZM114.93 29.59L122.01 0.42H117.68L112.18 25.26L106.39 0.42H100.94L94.97 25.05L89.26 0.42H84.93L92.01 29.59H97.63L103.46 5.21L109.31 29.59H114.93ZM83.17 15C83.17 5.62 77.34 0 69.41 0C61.49 0 55.65 5.62 55.65 15C55.65 24.38 61.48 30 69.41 30C77.34 30 83.17 24.38 83.17 15ZM79.01 15C79.01 22.08 75.05 26.25 69.63 26.25H69.21C63.79 26.25 59.83 22.09 59.83 15C59.83 7.92 63.79 3.75 69.21 3.75H69.63C75.05 3.75 79.01 7.92 79.01 15ZM46.54 29.59H50.7V13.44H27.58V29.58H31.74V17.68H46.54V29.59ZM50.72 9.37V0.42H46.56V5.13H31.76V0.42H27.6V9.37H50.72ZM18.58 9.17H22.74C22.53 3.55 18.42 0 11.95 0C5.65002 0 1.53002 3.75 1.53002 8.34C1.53002 12.96 4.23002 15.58 8.91002 16.54L13.58 17.5C16.66 18.13 18.17 19.51 18.17 21.88C18.17 24.3 16.05 26.25 12.12 26.25H11.7C7.32002 26.25 4.24002 24.16 4.24002 20.2H0.0800171C0.300017 26.67 4.68002 30 11.54 30C18 30 22.33 26.83 22.33 21.71C22.33 16.95 19.41 14.28 14.37 13.29L9.70002 12.38C7.24002 11.88 5.70002 10.54 5.70002 8.3C5.70002 5.71 8.12002 3.76 11.75 3.76H12.16C15.71 3.75 18.38 5.83 18.58 9.17Z" fill="white"/>
</g>
<defs>
<clipPath id="clip0_206_157">
<rect width="231" height="30" fill="white"/>
</clipPath>
</defs>
</svg>
