<svg width="315" height="40" viewBox="0 0 315 40" fill="none" xmlns="http://www.w3.org/2000/svg">
<g clip-path="url(#clip0_4_2)">
<path d="M16.1393 0C7.82733 0 2.05467 3.92 2.05467 10.8387C2.05467 18.034 8.624 20.5253 14.5587 22.4853C19.5227 24.1693 24.1407 25.3913 24.1407 28.7813C24.1407 31.376 21.4507 33.324 17.214 33.324C11.81 33.324 8.02333 30.6373 6.638 25.8413L0 28.6773C2.17133 35.5373 8.15133 40 17.0973 40C26.046 40 32.0373 35.6413 32.0373 28.354C32.0373 21.0673 25.7353 18.3573 19.8467 16.454C14.6633 14.702 9.79067 13.5953 9.79067 10.4247C9.79067 8.09533 12.3767 6.458 16.094 6.458C18.0781 6.3733 20.0457 6.85122 21.7699 7.83664C23.4941 8.82205 24.9046 10.2748 25.8387 12.0273L31.668 9.09867C29.2793 2.74533 22.928 0 16.1393 0ZM298.768 0C290.455 0 284.683 3.92 284.683 10.8387C284.683 18.034 291.252 20.5253 297.186 22.4853C302.151 24.1693 306.769 25.3913 306.769 28.7813C306.769 31.376 304.079 33.324 299.843 33.324C294.439 33.324 290.664 30.6373 289.267 25.8413L282.627 28.6773C284.798 35.5373 290.78 40 299.727 40C308.675 40 314.667 35.6413 314.667 28.354C314.667 21.0673 308.362 18.3573 302.486 16.454C297.291 14.702 292.418 13.5953 292.418 10.4247C292.418 8.09533 295.015 6.458 298.721 6.458C300.705 6.37346 302.673 6.85145 304.397 7.83685C306.121 8.82225 307.532 10.2749 308.466 12.0273L314.297 9.09867C311.907 2.74533 305.557 0 298.768 0ZM170.881 1.142L164.313 1.16533L151.82 39.3653H159.903L160.387 38.0407L170.873 1.174L181.561 38.7093L181.792 39.344H189.874L178.305 1.16533H170.875L170.881 1.142ZM44.8293 1.16533V39.3653H52.2427V1.16533H44.8293ZM108.735 1.16533L119.643 39.3653H135.195L145.967 1.16533H138.151L127.345 39.1013L116.538 1.16533H108.735ZM196.004 1.16533V7.82933H208.773V39.3667H216.197V7.82933H228.955V1.16533H196.004ZM240.083 1.16533V23.65C240.083 33.75 246.215 40 256.34 40C266.465 40 272.503 33.7513 272.503 23.65V1.16533H265.079V23.65C265.079 29.254 262.389 33.22 256.293 33.22C250.197 33.22 247.496 29.2533 247.496 23.65V1.16533H240.083ZM67.9793 1.19867V39.4013H75.4027V24.7567H81.798C82.4727 24.7633 82.8387 24.8387 83.3007 24.892C83.9693 24.9873 84.674 25.1967 85.2527 25.3773L92.9053 39.4127H101.345L91.5427 21.5627L91.6927 21.5053C94.0943 20.6361 96.1298 18.9774 97.466 16.8007C98.3687 15.2093 98.8308 13.406 98.8047 11.5767C98.8047 3.11333 90.8033 1.19933 83.8647 1.19933L67.9793 1.19867ZM75.4027 7.82933H82.6533C86.3013 7.82933 91.1273 8.15267 91.1273 12.9033C91.1273 17.654 86.3013 18.2993 82.654 18.2993L75.4027 18.3007V7.82933Z" fill="white"/>
</g>
<defs>
<clipPath id="clip0_4_2">
<rect width="314.667" height="40" fill="white"/>
</clipPath>
</defs>
</svg>
