<svg width="123" height="40" viewBox="0 0 123 40" fill="none" xmlns="http://www.w3.org/2000/svg">
<g clip-path="url(#clip0_391_13)">
<mask id="mask0_391_13" style="mask-type:luminance" maskUnits="userSpaceOnUse" x="0" y="0" width="123" height="40">
<path d="M122.205 0H0V40H122.205V0Z" fill="white"/>
</mask>
<g mask="url(#mask0_391_13)">
<path d="M10.5627 38.468C10.4104 38.1021 10.3754 37.7697 10.371 37.5445C10.3586 35.4221 10.3455 33.3003 10.3331 31.1786C10.3265 30.0955 9.87464 29.4017 9.33091 28.7661C8.98251 28.3594 8.26385 27.691 6.3156 27.2296C5.10642 26.9432 2.89578 26.6116 0.000732422 27.2763C0.218662 27.4177 0.712103 27.7814 0.9898 28.449C1.1414 28.8135 1.17639 29.1444 1.18076 29.3696C1.18076 29.3696 1.18076 29.3703 1.18076 29.371C1.19898 31.4352 1.2172 33.4993 1.23616 35.5635C1.25583 36.1254 1.3812 37.2581 2.18659 38.2092C2.5554 38.6451 3.24855 39.2573 5.23616 39.6837C6.50948 39.9571 8.707 40.2391 11.5518 39.6371C11.3346 39.4964 10.8411 39.1342 10.5634 38.4665" fill="white"/>
<path d="M26.7945 11.5793C26.6422 11.2134 26.6072 10.8811 26.6028 10.6558C26.5904 8.5334 26.5773 6.41168 26.5649 4.28996C26.5583 3.20687 26.1064 2.51299 25.562 1.87742C25.2136 1.47071 24.4949 0.802348 22.5467 0.340977C21.3375 0.0545342 19.1261 -0.277098 16.2311 0.387625C16.449 0.529024 16.9424 0.892727 17.2201 1.56037C17.3717 1.9248 17.4075 2.2557 17.4118 2.48092C17.4118 2.48092 17.4118 2.48165 17.4118 2.48238C17.4308 4.54652 17.449 6.61066 17.4672 8.6748C17.4869 9.23675 17.6123 10.3694 18.4177 11.3206C18.7865 11.7564 19.4796 12.3687 21.4672 12.7951C22.7406 13.0684 24.9381 13.3505 27.7821 12.7484C27.5649 12.6077 27.0715 12.2455 26.7938 11.5779" fill="white"/>
<path d="M26.9606 38.7716C26.7267 38.241 26.7135 37.7702 26.7157 37.5486C26.7303 36.3452 26.7172 35.026 26.6931 33.8518C26.7289 32.2038 26.7726 30.5165 26.7245 29.4466C26.7004 28.9167 26.6239 27.4108 26.1181 25.8904C24.0437 19.6521 15.7966 16.2979 12.2449 12.5697C11.8039 12.1069 11.1538 11.3431 10.734 10.2228C10.3447 9.18343 10.3382 8.33285 10.317 7.60544C10.2296 4.61637 10.1815 2.97498 9.77622 2.11492C9.3338 1.17541 8.06121 0.312439 4.77622 0.129495C3.54226 0.015792 1.98759 0.0085034 0.0218506 0.167396C0.270393 0.371477 0.63774 0.729349 0.878265 1.27454C1.11223 1.80588 1.12535 2.276 1.12316 2.49757C1.10859 3.70092 1.1217 5.02017 1.14503 6.19436C1.10931 7.84232 1.06558 9.52964 1.11369 10.5989C1.13774 11.1295 1.21427 12.6346 1.7201 14.1557C3.79517 20.3933 12.0415 23.7483 15.5933 27.4764C16.0342 27.9393 16.6844 28.7031 17.1042 29.8234C17.4934 30.8627 17.5 31.7133 17.5211 32.4407C17.6086 35.4298 17.6567 37.0712 18.0619 37.9312C18.5044 38.8707 19.777 39.7345 23.0619 39.9167C24.2966 40.0304 25.8506 40.0377 27.8163 39.878C27.5678 39.674 27.2004 39.3161 26.9599 38.7709" fill="white"/>
<path d="M115.456 31.2508C117.481 31.2508 119.674 32.3353 120.036 32.4316H120.156V29.202H120.036C119.674 29.2982 117.481 30.3827 115.456 30.3827H114.01V23.3448H117.36C119.409 23.3448 121.626 26.261 122.036 26.4542H122.132V22.3565H109.768V22.4527C109.84 22.7661 110.394 24.5015 110.394 26.116V35.9498C110.394 37.5649 109.84 39.2996 109.768 39.613V39.7093H122.204V35.6123H122.108C121.698 35.8055 119.481 38.7216 117.432 38.7216H114.009V31.2501H115.456L115.456 31.2508ZM101.376 22.4534V22.3572H96.5314V22.4534C96.6035 22.7668 97.1582 24.5023 97.1582 26.1167V35.9505C97.1582 37.5657 96.6035 39.3004 96.5314 39.6138V39.71H108.317V35.2515H108.221C107.811 35.4928 105.594 38.7224 103.545 38.7224H100.773V26.1167C100.773 24.5015 101.328 22.7661 101.376 22.4534ZM80.1254 27.1291H80.2216C80.6072 26.8638 82.8003 23.417 84.801 23.417H85.8375V35.9505C85.8375 37.5657 85.2835 39.3004 85.2107 39.6138V39.71H90.0795V39.6138C90.0073 39.3004 89.4526 37.5649 89.4526 35.9505V23.417H90.465C92.4898 23.417 94.683 26.8638 95.0445 27.1291H95.1647V22.3572H80.1247V27.1291H80.1254ZM72.7362 40.0001C76.1101 40.0001 79.2435 38.3368 79.2435 34.8179C79.2435 32.8652 78.183 30.7683 74.3025 29.202C71.6028 28.1655 69.3134 27.2734 69.3134 25.4899C69.3134 24.2851 70.3499 23.1998 72.0612 23.1998C74.3513 23.1998 76.785 25.7304 78.4002 27.3215H78.5204V23.4891C77.0744 22.8864 74.8083 22.1152 72.5671 22.1152C68.3491 22.1152 66.0838 24.6218 66.0838 27.2493C66.0838 29.8769 68.301 31.323 71.2901 32.3835C73.9417 33.3477 75.9658 34.2872 75.9658 36.312C75.9658 37.9753 74.64 38.8907 73.0977 38.8907C70.5671 38.8907 68.2289 36.288 66.4942 34.5044H66.3251V38.4571C68.6873 39.4454 70.9286 40.0001 72.7362 40.0001ZM57.2413 40.0001C60.6881 40.0001 63.484 37.9753 63.484 33.3477V27.804C63.484 25.4418 64.5685 22.9352 64.6647 22.4775V22.3572H61.1698V22.4775C61.2901 22.9352 62.3747 25.4418 62.3747 27.804V33.2508C62.3747 36.8419 60.422 38.3849 58.1086 38.3849C55.6021 38.3849 53.9869 36.6014 53.9869 33.0824V26.1174C53.9869 24.5023 54.5416 22.7668 54.6137 22.4542V22.3579H49.769V22.4542C49.8171 22.7676 50.3717 24.503 50.3717 26.1174V32.7457C50.3717 38.0722 53.9388 40.0001 57.2405 40.0001M37.4096 39.6145C37.3615 39.3011 36.8069 37.5657 36.8069 35.9512V31.5409H43.6035V35.9512C43.6035 37.5664 43.0488 39.3011 42.9767 39.6145V39.7107H47.8455V39.6145C47.7733 39.3011 47.2187 37.5657 47.2187 35.9512V26.1174C47.2187 24.5023 47.7726 22.7668 47.8455 22.4542V22.3579H42.9767V22.4542C43.0488 22.7676 43.6035 24.503 43.6035 26.1174V30.4556H36.8069V26.1174C36.8069 24.5023 37.3615 22.7668 37.4096 22.4542V22.3579H32.5649V22.4542C32.637 22.7676 33.1917 24.503 33.1917 26.1174V35.9512C33.1917 37.5664 32.637 39.3011 32.5649 39.6145V39.7107H37.4096V39.6145Z" fill="white"/>
<path d="M110.031 0.337464V0.241254H105.187V0.337464C105.259 0.650875 105.813 2.3863 105.813 4.00073V13.8345C105.813 15.4497 105.259 17.1851 105.187 17.4978V17.594H116.972V13.1348H116.876C116.466 13.3761 114.249 16.6057 112.2 16.6057H109.429V4.00073C109.429 2.38557 109.983 0.650146 110.031 0.337464ZM91.4723 10.629L94.172 3.08455L96.992 10.629H91.4723ZM87.4475 17.5219V17.594H90.8943V17.4738C90.7981 17.0641 89.9541 14.895 90.653 12.9184L91.0867 11.7136H97.4016L98.1246 13.6662C98.7514 15.3294 98.2689 17.137 98.1968 17.4985V17.5948H103.885V17.5226C103.234 16.5583 102.656 15.3535 102.029 13.6902L96.9679 0.241254H92.6778V0.313411C92.75 0.530612 93.4249 1.92857 92.9672 3.18149L89.5685 12.6297C88.8214 14.7507 87.9533 16.6305 87.4475 17.5226M86.0882 17.4985C86.0401 17.1851 85.4854 15.4497 85.4854 13.8353V4.00073C85.4854 2.38557 86.0401 0.650146 86.0882 0.337464V0.241254H81.2434V0.337464C81.3156 0.650875 81.8702 2.3863 81.8702 4.00073V13.8345C81.8702 15.4497 81.3156 17.1851 81.2434 17.4978V17.594H86.0882V17.4978V17.4985ZM73.0393 17.8841C75.0153 17.8841 76.9439 17.4264 78.9446 16.7996V12.5335H78.7995C77.3535 14.7026 75.4497 16.7996 73.5452 16.7996C71.0386 16.7996 68.8214 13.4497 68.8214 8.91837C68.8214 4.38703 70.8943 1.0605 73.5452 1.0605C75.6662 1.0605 77.5947 3.47085 78.7995 5.30248H78.9446V1.0605C76.8477 0.409621 74.8229 0 73.1596 0C68.3637 0 64.7726 3.59111 64.7726 8.94242C64.7726 14.2937 68.4118 17.8841 73.0393 17.8841ZM55.1268 16.8717C52.3549 16.8717 50.957 12.4614 50.957 8.91837C50.957 5.37536 52.3549 0.988338 55.1268 0.988338C57.8987 0.988338 59.3207 5.32653 59.3207 8.84548C59.3207 12.3644 57.8987 16.8717 55.1268 16.8717ZM55.1268 17.8601C59.6822 17.8601 63.3695 14.1727 63.3695 8.86953C63.3695 3.56633 59.6822 0 55.1268 0C50.5714 0 46.9082 3.59111 46.9082 8.86953C46.9082 14.148 50.5474 17.8601 55.1268 17.8601ZM39.024 17.8841C42.3979 17.8841 45.5321 16.2208 45.5321 12.7019C45.5321 10.7493 44.4716 8.65233 40.5911 7.08601C37.8914 6.04956 35.602 5.15743 35.602 3.37391C35.602 2.1691 36.6385 1.08455 38.3498 1.08455C40.6392 1.08455 43.0736 3.61516 44.6888 5.20627H44.809V1.37391C43.363 0.771137 41.0969 0 38.8557 0C34.6377 0 32.3724 2.50656 32.3724 5.13411C32.3724 7.76166 34.5896 9.20773 37.5787 10.2682C40.2303 11.2325 42.2544 12.172 42.2544 14.1968C42.2544 15.8601 40.9286 16.7755 39.3863 16.7755C36.8557 16.7755 34.5175 14.1727 32.7821 12.3885H32.613V16.3411C34.9752 17.3294 37.2165 17.8834 39.024 17.8834" fill="white"/>
</g>
</g>
<defs>
<clipPath id="clip0_391_13">
<rect width="122.205" height="40" fill="white"/>
</clipPath>
</defs>
</svg>
