<svg width="40" height="40" viewBox="0 0 40 40" fill="none" xmlns="http://www.w3.org/2000/svg">
<g clip-path="url(#clip0_437_4)">
<path d="M0.533325 0.533203H39.4667V39.4665H0.533325V0.533203Z" stroke="white" stroke-width="4"/>
<path d="M9.18401 12.6613C8.03201 12.6613 7.00801 12.2645 6.07361 11.3941L6.67521 10.6645C7.41761 11.3557 8.18561 11.7781 9.19681 11.7781C10.272 11.7781 10.9888 11.1253 10.9888 10.2677V10.2549C10.9888 9.51251 10.6304 9.03891 9.00481 8.46291C7.14881 7.77171 6.41921 7.10611 6.41921 5.83891V5.81331C6.41921 4.46931 7.54561 3.44531 9.12001 3.44531C10.1568 3.44531 11.0144 3.76531 11.808 4.45651L11.232 5.19891C10.5664 4.62291 9.86241 4.32851 9.08161 4.32851C8.05761 4.32851 7.39201 4.95571 7.39201 5.72371V5.74931C7.39201 6.53011 7.78881 6.97811 9.47841 7.59251C11.296 8.27091 11.9616 9.00051 11.9616 10.1909V10.2165C11.9616 11.6501 10.784 12.6613 9.18401 12.6613Z" fill="white"/>
<path d="M6.67517 36V27.04H12.1408V27.9232H7.63516V31.0464H11.68V31.9168H7.63516V35.1168H12.2048V36H6.67517Z" fill="#949BAD"/>
<path d="M30.5173 36.1281C29.3653 36.1281 28.3413 35.7313 27.4069 34.8609L28.0085 34.1313C28.7509 34.8225 29.5189 35.2449 30.5301 35.2449C31.6053 35.2449 32.3221 34.5921 32.3221 33.7345V33.7217C32.3221 32.9793 31.9637 32.5057 30.3381 31.9297C28.4821 31.2385 27.7525 30.5729 27.7525 29.3057V29.2801C27.7525 27.9361 28.8789 26.9121 30.4533 26.9121C31.4901 26.9121 32.3477 27.2321 33.1413 27.9233L32.5653 28.6657C31.8997 28.0897 31.1957 27.7953 30.4149 27.7953C29.3909 27.7953 28.7253 28.4225 28.7253 29.1905V29.2161C28.7253 29.9969 29.1221 30.4449 30.8117 31.0593C32.6293 31.7377 33.2949 32.4673 33.2949 33.6577V33.6833C33.2949 35.1169 32.1173 36.1281 30.5173 36.1281Z" fill="#949BAD"/>
<path d="M19.8506 36.1281C18.6986 36.1281 17.6746 35.7313 16.7402 34.8609L17.3418 34.1313C18.0842 34.8225 18.8522 35.2449 19.8634 35.2449C20.9386 35.2449 21.6554 34.5921 21.6554 33.7345V33.7217C21.6554 32.9793 21.297 32.5057 19.6714 31.9297C17.8154 31.2385 17.0858 30.5729 17.0858 29.3057V29.2801C17.0858 27.9361 18.2122 26.9121 19.7866 26.9121C20.8234 26.9121 21.681 27.2321 22.4746 27.9233L21.8986 28.6657C21.233 28.0897 20.529 27.7953 19.7482 27.7953C18.7242 27.7953 18.0586 28.4225 18.0586 29.1905V29.2161C18.0586 29.9969 18.4554 30.4449 20.145 31.0593C21.9626 31.7377 22.6282 32.4673 22.6282 33.6577V33.6833C22.6282 35.1169 21.4506 36.1281 19.8506 36.1281Z" fill="#949BAD"/>
<path d="M27.2085 24.2666V15.3066H28.1173L32.8021 22.3594V15.3066H33.7493V24.2666H32.9429L28.1429 17.0474V24.2666H27.2085Z" fill="#949BAD"/>
<path d="M17.0751 24.2666V15.3066H22.5407V16.1898H18.0351V19.313H22.0799V20.1834H18.0351V23.3834H22.6047V24.2666H17.0751Z" fill="white"/>
<path d="M19.6395 12.674C17.7323 12.674 16.4395 11.4452 16.4395 9.19244V3.57324H17.3994V9.16684C17.3994 10.8564 18.2571 11.7908 19.6651 11.7908C21.0347 11.7908 21.905 10.9076 21.905 9.20524V3.57324H22.8651V9.14124C22.8651 11.4452 21.5723 12.674 19.6395 12.674Z" fill="white"/>
<path d="M29.9648 12.5332V3.57324H30.9248V12.5332H29.9648Z" fill="white"/>
<path d="M8.59516 24.2666V16.2026H6.08636V15.3066H12.0768V16.2026H9.55516V24.2666H8.59516Z" fill="white"/>
</g>
<defs>
<clipPath id="clip0_437_4">
<rect width="40" height="40" fill="white"/>
</clipPath>
</defs>
</svg>
