<svg width="157" height="40" viewBox="0 0 157 40" fill="none" xmlns="http://www.w3.org/2000/svg">
<path d="M30.6175 0H5.71429C2.55837 0 0 2.55837 0 5.71429V30.6175C0 33.7734 2.55837 36.3318 5.71429 36.3318H30.6175C33.7734 36.3318 36.3318 33.7734 36.3318 30.6175V5.71429C36.3318 2.55837 33.7734 0 30.6175 0Z" fill="white"/>
<path fill-rule="evenodd" clip-rule="evenodd" d="M23.9493 4.70508V5.7925C23.9493 9.20582 22.5552 12.2994 20.3148 14.5293L12.1902 22.616L7.58038 17.9846L15.7051 9.89792C16.7668 8.84114 17.4148 7.39355 17.4148 5.7925V4.70508H23.9493Z" fill="black"/>
<path fill-rule="evenodd" clip-rule="evenodd" d="M16.0926 21.8562L24.2173 13.8584L28.8014 18.5152L20.6767 26.513C19.6184 27.5549 18.9798 28.9737 18.9798 30.5352V31.6107H12.4453V30.5352C12.4453 27.1375 13.8487 24.0651 16.0926 21.8562Z" fill="black"/>
<path d="M60.6754 16.6764L55.5779 15.736C54.5274 15.5367 54.0763 15.3805 53.0753 14.9517C52.0345 14.4066 51.4846 13.4215 51.4846 12.1018C51.4846 9.67248 53.4898 8.22196 56.8499 8.22196C60.4427 8.22196 62.3156 9.72827 62.4129 12.6979C62.4129 12.7408 62.4496 12.7743 62.4926 12.7743H66.7486C66.7692 12.7743 66.7899 12.7664 66.8059 12.7504C66.8202 12.7362 66.8298 12.7154 66.8282 12.6931C66.7772 7.79317 62.9548 4.74707 56.8499 4.74707C50.7449 4.74707 47.0198 7.73579 47.0198 12.548C47.0198 16.2891 49.3566 18.6147 53.9648 19.4564L59.5071 20.4956C61.7609 20.9372 62.8576 22.0768 62.8576 23.9816C62.8576 26.6277 60.7233 28.2074 57.1464 28.2074C53.3766 28.2074 50.941 26.2962 50.941 23.3376C50.941 23.2931 50.9059 23.258 50.8612 23.258H46.6054C46.5607 23.258 46.5257 23.2931 46.5257 23.3376C46.5257 28.4368 50.6955 31.7316 57.148 31.7316C63.6004 31.7316 67.5216 28.6663 67.5216 23.733C67.5216 19.8485 65.2183 17.475 60.6754 16.6764Z" fill="white"/>
<path d="M104.215 5.2428H99.7106C99.6739 5.2428 99.642 5.26671 99.634 5.30337L96.0699 19.1646L94.401 26.7234H94.2799L88.9989 5.30337C88.9895 5.26831 88.9576 5.2428 88.9209 5.2428H83.7245C83.6879 5.2428 83.656 5.26831 83.6464 5.30497L78.6125 26.8221H78.3943L76.7237 19.0116L73.1117 5.30178C73.1021 5.26671 73.0703 5.2428 73.0353 5.2428H68.3824C68.3569 5.2428 68.3346 5.25395 68.3186 5.27468C68.3043 5.2938 68.2979 5.3209 68.3059 5.34481L75.5809 31.18C75.5904 31.2151 75.6223 31.2375 75.6573 31.2375H81.3495C81.3861 31.2375 81.418 31.2119 81.4275 31.1769L84.5948 17.9118L86.1649 10.6496H86.3338L88.0027 17.915L91.3183 31.1786C91.3278 31.2135 91.3596 31.2391 91.3947 31.2391H96.988C97.0231 31.2391 97.055 31.2151 97.0646 31.18L104.292 5.34322C104.298 5.31931 104.293 5.2938 104.279 5.27308C104.265 5.25395 104.241 5.24121 104.215 5.24121V5.2428Z" fill="white"/>
<path d="M129.447 5.24281H125.536C125.495 5.24281 125.459 5.27468 125.457 5.31612L125.066 9.89564H124.894C123.461 6.66941 120.153 4.74707 116.034 4.74707C112.643 4.74707 109.892 6.00632 107.856 8.48816C105.808 10.9859 104.77 14.2663 104.77 18.2386C104.77 22.2108 105.792 25.582 107.808 28.0399C109.858 30.4899 112.576 31.7316 115.887 31.7316C119.983 31.7316 123.514 29.6547 124.897 26.4364H125.062V31.1578C125.062 31.2024 125.096 31.2375 125.142 31.2375H129.447C129.491 31.2375 129.526 31.2024 129.526 31.1578V5.3225C129.526 5.27787 129.491 5.24281 129.447 5.24281ZM125.062 16.6063V19.9218C125.062 22.2474 124.304 24.1586 122.809 25.606C121.275 27.09 119.416 27.8104 117.123 27.8104C112.276 27.8104 109.383 24.2319 109.383 18.2386C109.383 15.1956 110.148 12.7138 111.597 11.0592C112.939 9.52742 114.833 8.71769 117.074 8.71769C119.315 8.71769 121.263 9.47642 122.758 10.9716C124.307 12.521 125.062 14.3652 125.062 16.6063Z" fill="white"/>
<path d="M155.85 5.27627C155.835 5.25555 155.81 5.2428 155.785 5.2428H151.182C151.146 5.2428 151.117 5.26512 151.105 5.29699L146.998 17.8193L144.539 25.7318H144.359L141.753 17.8161L137.298 5.29381C137.287 5.26193 137.256 5.24121 137.223 5.24121H132.521C132.494 5.24121 132.47 5.25395 132.455 5.27627C132.441 5.29859 132.438 5.32569 132.448 5.3496L142.237 30.4644L141.702 31.9213C140.687 34.6789 138.847 36.0768 136.233 36.0768C135.498 36.0768 134.855 36.0273 134.318 35.9302C134.294 35.927 134.27 35.9318 134.251 35.9477C134.234 35.9621 134.223 35.986 134.223 36.0083V39.6712C134.223 39.7079 134.249 39.7398 134.286 39.7493C134.778 39.8625 135.576 39.9996 136.581 39.9996C141.272 39.9996 144.627 37.1671 146.554 31.5817L155.859 5.348C155.867 5.32409 155.865 5.29699 155.85 5.27468V5.27627Z" fill="white"/>
</svg>
