<svg width="105" height="39" viewBox="0 0 105 39" fill="none" xmlns="http://www.w3.org/2000/svg">
<g clip-path="url(#clip0_212_238)">
<path fill-rule="evenodd" clip-rule="evenodd" d="M17.5957 6.81706C20.975 6.81706 23.7535 9.38822 24.0805 12.6804H35.1915V2.52049C35.1915 1.36739 34.2589 0.432617 33.1086 0.432617H2.08286C0.932527 0.432617 0 1.36739 0 2.52049V21.2869H13.4726L13.9787 18.7518C12.2302 17.5835 11.0788 15.5921 11.0788 13.3318C11.0788 9.73381 13.9965 6.81706 17.5957 6.81706ZM35.1915 14.9357H23.9137C23.5129 16.518 22.5331 17.8695 21.2128 18.7518L23.07 28.0551H12.1215L13.0224 23.5423H0.185089C0.833019 27.3517 3.14629 30.7227 6.5589 32.6776L17.5957 38.9999L28.6325 32.6776C32.6884 30.3542 35.1915 26.0306 35.1915 21.3479V14.9357Z" fill="white"/>
<path d="M16.2921 17.6057C14.3972 17.0742 13.0074 15.3305 13.0074 13.2613C13.0074 10.77 15.0221 8.75049 17.5074 8.75049C19.9927 8.75049 22.0074 10.77 22.0074 13.2613C22.0074 15.219 20.7633 16.8854 19.0244 17.5094L20.7217 25.8272H14.6145L16.2921 17.6057Z" fill="white"/>
<path fill-rule="evenodd" clip-rule="evenodd" d="M90.371 13.4772C89.9662 12.7492 89.4067 12.1854 88.6924 11.7856C87.9781 11.3858 87.1805 11.186 86.2995 11.186C85.5376 11.186 84.8501 11.3441 84.237 11.6603C83.624 11.9765 83.121 12.439 82.7281 13.0476V7.39111H81.4603V20.673H82.6745V18.8114C83.0555 19.4439 83.5585 19.9272 84.1835 20.2613C84.8085 20.5954 85.5138 20.7625 86.2995 20.7625C87.1805 20.7625 87.9781 20.5596 88.6924 20.1539C89.4067 19.7482 89.9662 19.1813 90.371 18.4534C90.7757 17.7255 90.9781 16.8961 90.9781 15.9653C90.9781 15.0345 90.7757 14.2051 90.371 13.4772ZM42.7984 19.1515C43.2627 19.6408 43.9204 20.0346 44.7716 20.333C45.6228 20.6313 46.5127 20.7805 47.4413 20.7805C48.4651 20.7805 49.3282 20.6283 50.0306 20.324C50.7329 20.0197 51.2538 19.608 51.5931 19.0889C51.9323 18.5698 52.102 17.994 52.102 17.3615C52.102 16.5978 51.9056 15.9922 51.5127 15.5447C51.1198 15.0972 50.6407 14.763 50.0752 14.5423C49.5097 14.3215 48.7687 14.0978 47.852 13.871C47.0782 13.6801 46.4621 13.5041 46.0038 13.343C45.5454 13.1819 45.1645 12.9492 44.8609 12.6449C44.5573 12.3406 44.4056 11.9378 44.4056 11.4366C44.4056 10.7683 44.6823 10.2224 45.2359 9.79871C45.7895 9.37507 46.6139 9.16326 47.7091 9.16326C48.2806 9.16326 48.8639 9.24977 49.4591 9.42281C50.0544 9.59584 50.6139 9.85539 51.1377 10.2015L51.5841 9.14536C51.0841 8.79929 50.4919 8.5278 49.8073 8.3309C49.1228 8.134 48.4234 8.03555 47.7091 8.03555C46.6853 8.03555 45.8282 8.19068 45.1377 8.50095C44.4472 8.81122 43.9353 9.2259 43.602 9.74501C43.2687 10.2641 43.102 10.8399 43.102 11.4724C43.102 12.2481 43.3014 12.8626 43.7002 13.3161C44.099 13.7696 44.5782 14.1067 45.1377 14.3275C45.6972 14.5482 46.4472 14.778 47.3877 15.0166C48.1734 15.2076 48.7865 15.3836 49.227 15.5447C49.6675 15.7058 50.0395 15.9355 50.3431 16.2338C50.6466 16.5322 50.7984 16.9319 50.7984 17.4331C50.7984 18.0895 50.5187 18.6235 49.9591 19.0352C49.3996 19.4469 48.5603 19.6527 47.4413 19.6527C46.6437 19.6527 45.8698 19.5125 45.1198 19.2321C44.3698 18.9517 43.7687 18.5847 43.3163 18.1312L42.7984 19.1515ZM57.1619 21.8007L61.8583 11.2576H60.6083L57.0726 19.2589L53.5369 11.2576H52.2155L56.4119 20.6551L56.0012 21.568C55.7393 22.1408 55.4565 22.5466 55.153 22.7852C54.8494 23.0239 54.4833 23.1432 54.0547 23.1432C53.3881 23.1432 52.8167 22.9046 52.3405 22.4272L51.7512 23.3759C52.0369 23.6624 52.3762 23.8771 52.769 24.0204C53.1619 24.1636 53.5845 24.2352 54.0369 24.2352C54.7393 24.2352 55.3405 24.0502 55.8405 23.6802C56.3405 23.3103 56.7809 22.6838 57.1619 21.8007ZM77.57 12.2063C78.2426 12.8865 78.5789 13.8889 78.5789 15.2135V20.673H77.3111V15.3388C77.3111 14.3602 77.076 13.6144 76.6057 13.1013C76.1355 12.5881 75.4718 12.3316 74.6146 12.3316C73.6385 12.3316 72.8706 12.6329 72.3111 13.2355C71.7515 13.8382 71.4718 14.6705 71.4718 15.7326V20.673H70.2039V15.3388C70.2039 14.3602 69.9688 13.6144 69.4986 13.1013C69.0283 12.5881 68.3587 12.3316 67.4896 12.3316C66.5254 12.3316 65.7605 12.6329 65.195 13.2355C64.6295 13.8382 64.3468 14.6705 64.3468 15.7326V20.673H63.0789V11.2576H64.2932V12.976C64.6266 12.4032 65.0908 11.9616 65.6861 11.6514C66.2813 11.3411 66.9658 11.186 67.7396 11.186C68.5254 11.186 69.2069 11.353 69.7843 11.6872C70.3617 12.0213 70.7932 12.5165 71.0789 13.1729C71.4242 12.5523 71.9212 12.066 72.57 11.714C73.2188 11.362 73.9599 11.186 74.7932 11.186C75.9718 11.186 76.8974 11.5261 77.57 12.2063ZM87.996 19.1784C88.5317 18.8741 88.9513 18.4415 89.2549 17.8806C89.5585 17.3198 89.7103 16.6813 89.7103 15.9653C89.7103 15.2493 89.5585 14.6109 89.2549 14.05C88.9513 13.4891 88.5317 13.0566 87.996 12.7523C87.4603 12.4479 86.865 12.2958 86.2103 12.2958C85.5436 12.2958 84.9454 12.4479 84.4156 12.7523C83.8859 13.0566 83.4692 13.4891 83.1656 14.05C82.862 14.6109 82.7103 15.2493 82.7103 15.9653C82.7103 16.6813 82.862 17.3198 83.1656 17.8806C83.4692 18.4415 83.8859 18.8741 84.4156 19.1784C84.9454 19.4827 85.5436 19.6348 86.2103 19.6348C86.865 19.6348 87.4603 19.4827 87.996 19.1784ZM92.6809 18.4355C93.0975 19.1634 93.669 19.7333 94.3952 20.145C95.1214 20.5567 95.9368 20.7625 96.8416 20.7625C97.7464 20.7625 98.5618 20.5567 99.288 20.145C100.014 19.7333 100.583 19.1634 100.993 18.4355C101.404 17.7076 101.609 16.8842 101.609 15.9653C101.609 15.0464 101.404 14.223 100.993 13.4951C100.583 12.7671 100.014 12.2003 99.288 11.7946C98.5618 11.3888 97.7464 11.186 96.8416 11.186C95.9368 11.186 95.1214 11.3888 94.3952 11.7946C93.669 12.2003 93.0975 12.7671 92.6809 13.4951C92.2642 14.223 92.0559 15.0464 92.0559 15.9653C92.0559 16.8842 92.2642 17.7076 92.6809 18.4355ZM98.6362 19.1784C99.166 18.8741 99.5797 18.4415 99.8773 17.8806C100.175 17.3198 100.324 16.6813 100.324 15.9653C100.324 15.2493 100.175 14.6109 99.8773 14.05C99.5797 13.4891 99.166 13.0566 98.6362 12.7523C98.1065 12.4479 97.5083 12.2958 96.8416 12.2958C96.1749 12.2958 95.5767 12.4479 95.0469 12.7523C94.5172 13.0566 94.1005 13.4891 93.7969 14.05C93.4934 14.6109 93.3416 15.2493 93.3416 15.9653C93.3416 16.6813 93.4934 17.3198 93.7969 17.8806C94.1005 18.4415 94.5172 18.8741 95.0469 19.1784C95.5767 19.4827 96.1749 19.6348 96.8416 19.6348C97.5083 19.6348 98.1065 19.4827 98.6362 19.1784ZM104.901 7.39111H103.634V20.673H104.901V7.39111Z" fill="white"/>
<path fill-rule="evenodd" clip-rule="evenodd" d="M44.0198 32.2028C43.5032 32.0524 43.0882 31.8569 42.7748 31.6164L43.3248 30.3934C43.6248 30.6139 43.9815 30.791 44.3948 30.9247C44.8082 31.0583 45.2215 31.1252 45.6348 31.1252C46.0948 31.1252 46.4348 31.0567 46.6548 30.9197C46.8748 30.7827 46.9848 30.6006 46.9848 30.3734C46.9848 30.2063 46.9198 30.0676 46.7898 29.9574C46.6598 29.8471 46.4932 29.7586 46.2898 29.6917C46.0865 29.6249 45.8115 29.5514 45.4648 29.4712C44.9315 29.3442 44.4948 29.2173 44.1548 29.0903C43.8148 28.9633 43.5232 28.7595 43.2798 28.4788C43.0365 28.1981 42.9148 27.8239 42.9148 27.3561C42.9148 26.9485 43.0248 26.5793 43.2448 26.2485C43.4648 25.9177 43.7965 25.6554 44.2398 25.4616C44.6832 25.2678 45.2248 25.1709 45.8648 25.1709C46.3115 25.1709 46.7482 25.2243 47.1748 25.3313C47.6015 25.4382 47.9748 25.5919 48.2948 25.7924L47.7948 27.0253C47.1482 26.6578 46.5015 26.474 45.8548 26.474C45.4015 26.474 45.0665 26.5475 44.8498 26.6945C44.6332 26.8416 44.5248 27.0354 44.5248 27.2759C44.5248 27.5165 44.6498 27.6953 44.8998 27.8122C45.1498 27.9292 45.5315 28.0444 46.0448 28.1581C46.5782 28.285 47.0148 28.412 47.3548 28.539C47.6948 28.6659 47.9865 28.8664 48.2298 29.1404C48.4732 29.4144 48.5948 29.7853 48.5948 30.2531C48.5948 30.654 48.4832 31.0199 48.2598 31.3507C48.0365 31.6815 47.7015 31.9438 47.2548 32.1376C46.8082 32.3314 46.2648 32.4283 45.6248 32.4283C45.0715 32.4283 44.5365 32.3531 44.0198 32.2028ZM56.623 31.0047V32.3079H51.203V25.291H56.493V26.5941H52.813V28.1178H56.063V29.3808H52.813V31.0047H56.623ZM59.4463 30.6691C59.7763 31.2204 60.2296 31.6514 60.8063 31.9622C61.3829 32.2729 62.0279 32.4283 62.7413 32.4283C63.3479 32.4283 63.8979 32.3214 64.3913 32.1075C64.8846 31.8937 65.2979 31.5829 65.6313 31.1753L64.5913 30.213C64.1179 30.7677 63.5313 31.045 62.8313 31.045C62.3979 31.045 62.0113 30.9498 61.6713 30.7593C61.3313 30.5688 61.0663 30.3032 60.8763 29.9624C60.6863 29.6216 60.5913 29.234 60.5913 28.7996C60.5913 28.3652 60.6863 27.9776 60.8763 27.6368C61.0663 27.296 61.3313 27.0303 61.6713 26.8399C62.0113 26.6494 62.3979 26.5542 62.8313 26.5542C63.5313 26.5542 64.1179 26.8282 64.5913 27.3762L65.6313 26.4139C65.2979 26.0129 64.8863 25.7055 64.3963 25.4917C63.9063 25.2778 63.3579 25.1709 62.7513 25.1709C62.0313 25.1709 61.3829 25.3263 60.8063 25.637C60.2296 25.9477 59.7763 26.3788 59.4463 26.9301C59.1163 27.4814 58.9513 28.1046 58.9513 28.7996C58.9513 29.4946 59.1163 30.1178 59.4463 30.6691ZM68.9345 31.5961C68.3778 31.0415 68.0995 30.2496 68.0995 29.2204V25.291H69.7195V29.1603C69.7195 30.4167 70.2395 31.0448 71.2795 31.0448C71.7862 31.0448 72.1728 30.8928 72.4395 30.5887C72.7062 30.2847 72.8395 29.8085 72.8395 29.1603V25.291H74.4395V29.2204C74.4395 30.2496 74.1612 31.0415 73.6045 31.5961C73.0478 32.1508 72.2695 32.4281 71.2695 32.4281C70.2695 32.4281 69.4912 32.1508 68.9345 31.5961ZM80.6477 30.3532L81.9977 32.3079H83.7377L82.1677 30.0524C82.6277 29.852 82.9827 29.5629 83.2327 29.1854C83.4827 28.8078 83.6077 28.3584 83.6077 27.8371C83.6077 27.3159 83.4844 26.8648 83.2377 26.4839C82.991 26.103 82.6394 25.8089 82.1827 25.6018C81.726 25.3946 81.1877 25.291 80.5677 25.291H77.5377V32.3079H79.1577V30.3532H80.6477ZM81.5877 26.9301C81.3344 26.7196 80.9644 26.6144 80.4777 26.6144H79.1577V29.0602H80.4777C80.9644 29.0602 81.3344 28.9533 81.5877 28.7395C81.841 28.5256 81.9677 28.2249 81.9677 27.8373C81.9677 27.443 81.841 27.1406 81.5877 26.9301ZM88.0059 25.291H86.3859V32.3079H88.0059V25.291ZM92.6141 26.6142H90.3741V25.291H96.4741V26.6142H94.2341V32.3079H92.6141V26.6142ZM102.202 32.3079V29.8219L104.922 25.291H103.332L101.462 28.4085L99.5923 25.291H97.8723L100.582 29.8018V32.3079H102.202Z" fill="white"/>
</g>
<defs>
<clipPath id="clip0_212_238">
<rect width="105" height="39" fill="white"/>
</clipPath>
</defs>
</svg>
