<svg width="136" height="40" viewBox="0 0 136 40" fill="none" xmlns="http://www.w3.org/2000/svg">
<path d="M25.697 17.0729C24.9378 16.4232 18.7053 14.6622 13.5244 13.4401C13.4846 17.44 13.7297 21.7871 14.2586 22.5437C15.0166 23.1934 21.2528 24.9544 26.4337 26.1777C26.4736 22.1791 26.2296 17.8308 25.697 17.0729Z" fill="white"/>
<path d="M19.9994 7.08897e-07C8.95429 7.08897e-07 0 8.95554 0 20.0006C0 31.0457 8.95429 40 19.9994 40C31.0469 40 40 31.0457 40 20.0006C40 8.95554 31.0469 7.08897e-07 19.9994 7.08897e-07ZM33.4812 27.4067C32.9672 27.5859 29.9418 27.0048 26.4335 26.1784C26.3987 29.617 26.1523 32.8005 25.6968 33.2224C24.4249 33.6667 7.74711 29.4477 6.47397 28.3588C5.48956 26.9525 5.48956 13.1222 6.47646 12.21C6.99045 12.032 10.0146 12.6132 13.5242 13.4408C13.559 9.99969 13.8042 6.81622 14.2609 6.39557C15.5328 5.95252 32.2068 10.1689 33.4812 11.2567C34.4719 12.6692 34.4694 26.4982 33.4812 27.4067Z" fill="white"/>
<path d="M73.7398 8.66511C68.8687 8.66511 65.002 11.2923 65.002 18.1409V21.6541C65.002 28.5027 68.8687 31.1299 73.7398 31.1299C78.612 31.1299 82.4775 28.5027 82.4775 21.6541V18.1409C82.4775 11.2923 78.612 8.66511 73.7398 8.66511ZM77.3999 21.6541C77.3999 25.196 76.2201 26.7019 73.7398 26.7019C71.2619 26.7019 70.1095 25.196 70.1095 21.6541V18.1409C70.1095 14.599 71.2619 13.0943 73.7398 13.0943C76.2201 13.0943 77.3999 14.599 77.3999 18.1409V21.6541Z" fill="white"/>
<path d="M63.2316 8.9309H48.5898C48.265 8.9309 47.9999 9.16611 47.9999 9.49218V12.5313C47.9999 12.8573 48.265 13.0938 48.5898 13.0938H53.4011V30.2731C53.4011 30.5992 53.6675 30.8643 53.991 30.8643H57.859C58.1826 30.8643 58.4489 30.5992 58.4489 30.2731V13.0938H63.2316C63.5564 13.0938 63.8513 12.8573 63.8513 12.5313V9.49218C63.8513 9.16611 63.5564 8.9309 63.2316 8.9309Z" fill="white"/>
<path d="M98.86 8.9309H84.2182C83.8946 8.9309 83.6271 9.16611 83.6271 9.49218V12.5313C83.6271 12.8573 83.8946 13.0938 84.2182 13.0938H89.0308V30.2731C89.0308 30.5992 89.2958 30.8643 89.6207 30.8643H93.4874C93.8122 30.8643 94.0773 30.5992 94.0773 30.2731V13.0938H98.86C99.1835 13.0938 99.4797 12.8573 99.4797 12.5313V9.49218C99.4797 9.16611 99.1835 8.9309 98.86 8.9309Z" fill="white"/>
<path d="M119.14 8.93118H115.009C114.714 8.93118 114.506 9.16639 114.449 9.46258L110.757 26.4963C110.698 26.8199 110.609 26.9368 110.343 26.9368C110.077 26.9368 109.991 26.8199 109.93 26.4963L106.24 9.46258C106.181 9.16639 105.945 8.93118 105.651 8.93118H101.547C101.252 8.93118 101.015 9.13776 101.015 9.40285C101.015 9.46258 101.044 9.49245 101.044 9.55094L105.443 27.8528C106.123 30.6878 108.307 31.1309 110.343 31.1309C112.381 31.1309 114.536 30.6878 115.215 27.8528L119.613 9.55094C119.613 9.49245 119.643 9.43271 119.643 9.40285C119.643 9.1079 119.435 8.93118 119.14 8.93118Z" fill="white"/>
<path d="M132.009 18.6732L128.23 16.636C126.637 15.7797 126.254 15.3964 126.254 14.5688C126.254 13.5073 126.874 13.0057 128.556 13.0057C130.563 13.0057 133.989 13.272 134.815 13.3305H134.874C135.257 13.3305 135.375 13.0953 135.375 12.829V9.84714C135.375 9.52232 135.167 9.37422 134.932 9.31573C133.811 9.02078 130.829 8.66609 128.676 8.66609C122.946 8.66609 121.119 11.175 121.119 14.4232C121.119 16.5775 121.856 18.438 124.601 20.0609L128.676 22.4815C130.208 23.3962 130.622 23.8679 130.622 24.7253C130.622 26.1416 130.032 26.7912 127.995 26.7912C126.844 26.7912 123.597 26.5548 122.389 26.4378H122.299C122.003 26.4378 121.768 26.5846 121.768 26.9978V29.8913C121.768 30.2149 122.063 30.3929 122.358 30.4812C123.863 30.8645 125.606 31.1309 127.938 31.1309C133.929 31.1309 135.995 27.7956 135.995 24.6656C135.995 22.2749 135.08 20.326 132.009 18.6732Z" fill="white"/>
</svg>
