<svg width="105" height="28" viewBox="0 0 105 28" fill="none" xmlns="http://www.w3.org/2000/svg">
<g clip-path="url(#clip0_207_164)">
<path d="M44.12 21C43.9867 21 43.8733 20.9533 43.78 20.86C43.6867 20.7667 43.64 20.6533 43.64 20.52V9.46H39.94C39.8067 9.46 39.6933 9.41333 39.6 9.32C39.5067 9.22667 39.46 9.11333 39.46 8.98V7.5C39.46 7.35333 39.5067 7.23333 39.6 7.14C39.6933 7.04667 39.8067 7 39.94 7H50.14C50.2867 7 50.4067 7.04667 50.5 7.14C50.5933 7.23333 50.64 7.35333 50.64 7.5V8.98C50.64 9.11333 50.5933 9.22667 50.5 9.32C50.4067 9.41333 50.2867 9.46 50.14 9.46H46.46V20.52C46.46 20.6533 46.4133 20.7667 46.32 20.86C46.2267 20.9533 46.1067 21 45.96 21H44.12ZM51.5813 21C51.4479 21 51.3346 20.9533 51.2413 20.86C51.1479 20.7667 51.1012 20.6533 51.1012 20.52V11.1C51.1012 10.9533 51.1479 10.8333 51.2413 10.74C51.3346 10.6467 51.4479 10.6 51.5813 10.6H53.2013C53.3346 10.6 53.4479 10.6467 53.5413 10.74C53.6479 10.8333 53.7013 10.9533 53.7013 11.1V11.92C54.0079 11.4933 54.4013 11.1667 54.8813 10.94C55.3746 10.7133 55.9413 10.6 56.5813 10.6H57.4013C57.5479 10.6 57.6613 10.6467 57.7413 10.74C57.8346 10.8333 57.8813 10.9467 57.8813 11.08V12.52C57.8813 12.6533 57.8346 12.7667 57.7413 12.86C57.6613 12.9533 57.5479 13 57.4013 13H55.8413C55.2013 13 54.7013 13.18 54.3413 13.54C53.9946 13.9 53.8213 14.3933 53.8213 15.02V20.52C53.8213 20.6533 53.7746 20.7667 53.6813 20.86C53.5879 20.9533 53.4679 21 53.3213 21H51.5813ZM62.3048 21.2C61.6115 21.2 60.9848 21.0667 60.4248 20.8C59.8648 20.52 59.4182 20.1533 59.0848 19.7C58.7648 19.2333 58.6048 18.7133 58.6048 18.14C58.6048 17.2067 58.9782 16.4667 59.7248 15.92C60.4848 15.36 61.4848 14.9867 62.7248 14.8L65.4648 14.4V13.98C65.4648 13.42 65.3248 12.9867 65.0448 12.68C64.7648 12.3733 64.2848 12.22 63.6048 12.22C63.1248 12.22 62.7315 12.32 62.4248 12.52C62.1315 12.7067 61.9115 12.96 61.7648 13.28C61.6582 13.4533 61.5048 13.54 61.3048 13.54H59.7248C59.5782 13.54 59.4648 13.5 59.3848 13.42C59.3182 13.34 59.2848 13.2333 59.2848 13.1C59.2982 12.8867 59.3848 12.6267 59.5448 12.32C59.7048 12.0133 59.9582 11.72 60.3048 11.44C60.6515 11.1467 61.0982 10.9 61.6448 10.7C62.1915 10.5 62.8515 10.4 63.6248 10.4C64.4648 10.4 65.1715 10.5067 65.7448 10.72C66.3315 10.92 66.7982 11.1933 67.1448 11.54C67.4915 11.8867 67.7448 12.2933 67.9048 12.76C68.0648 13.2267 68.1448 13.72 68.1448 14.24V20.52C68.1448 20.6533 68.0982 20.7667 68.0048 20.86C67.9115 20.9533 67.7982 21 67.6648 21H66.0448C65.8982 21 65.7782 20.9533 65.6848 20.86C65.6048 20.7667 65.5648 20.6533 65.5648 20.52V19.74C65.3915 19.9933 65.1582 20.2333 64.8648 20.46C64.5715 20.6733 64.2115 20.8533 63.7848 21C63.3715 21.1333 62.8782 21.2 62.3048 21.2ZM62.9848 19.3C63.4515 19.3 63.8715 19.2 64.2448 19C64.6315 18.8 64.9315 18.4933 65.1448 18.08C65.3715 17.6533 65.4848 17.12 65.4848 16.48V16.06L63.4848 16.38C62.6982 16.5 62.1115 16.6933 61.7248 16.96C61.3382 17.2267 61.1448 17.5533 61.1448 17.94C61.1448 18.2333 61.2315 18.4867 61.4048 18.7C61.5915 18.9 61.8248 19.0533 62.1048 19.16C62.3848 19.2533 62.6782 19.3 62.9848 19.3ZM71.1906 21C71.0573 21 70.944 20.9533 70.8506 20.86C70.7573 20.7667 70.7106 20.6533 70.7106 20.52V11.08C70.7106 10.9467 70.7573 10.8333 70.8506 10.74C70.944 10.6467 71.0573 10.6 71.1906 10.6H72.8306C72.964 10.6 73.0773 10.6467 73.1706 10.74C73.264 10.8333 73.3106 10.9467 73.3106 11.08V11.9C73.6573 11.4733 74.0973 11.12 74.6306 10.84C75.1773 10.5467 75.8506 10.4 76.6506 10.4C77.464 10.4 78.1706 10.5867 78.7706 10.96C79.3706 11.32 79.8306 11.8333 80.1506 12.5C80.484 13.1667 80.6506 13.9667 80.6506 14.9V20.52C80.6506 20.6533 80.604 20.7667 80.5106 20.86C80.4173 20.9533 80.304 21 80.1706 21H78.4106C78.2773 21 78.164 20.9533 78.0706 20.86C77.9773 20.7667 77.9306 20.6533 77.9306 20.52V15.02C77.9306 14.2467 77.7373 13.64 77.3506 13.2C76.9773 12.76 76.4306 12.54 75.7106 12.54C75.0173 12.54 74.464 12.76 74.0506 13.2C73.6373 13.64 73.4306 14.2467 73.4306 15.02V20.52C73.4306 20.6533 73.384 20.7667 73.2906 20.86C73.1973 20.9533 73.084 21 72.9506 21H71.1906ZM87.6911 21.2C86.7311 21.2 85.8844 21.02 85.1511 20.66C84.4311 20.3 83.8644 19.78 83.4511 19.1C83.0511 18.4067 82.8311 17.5733 82.7911 16.6C82.7778 16.4 82.7711 16.14 82.7711 15.82C82.7711 15.4867 82.7778 15.2133 82.7911 15C82.8311 14.0267 83.0511 13.2 83.4511 12.52C83.8644 11.8267 84.4311 11.3 85.1511 10.94C85.8844 10.58 86.7311 10.4 87.6911 10.4C88.5444 10.4 89.2711 10.52 89.8711 10.76C90.4711 11 90.9644 11.3 91.3511 11.66C91.7378 12.02 92.0244 12.4 92.2111 12.8C92.4111 13.1867 92.5178 13.54 92.5311 13.86C92.5444 14.0067 92.4978 14.1267 92.3911 14.22C92.2978 14.3 92.1844 14.34 92.0511 14.34H90.2911C90.1578 14.34 90.0511 14.3067 89.9711 14.24C89.9044 14.1733 89.8378 14.0733 89.7711 13.94C89.5711 13.4067 89.3044 13.0333 88.9711 12.82C88.6511 12.5933 88.2378 12.48 87.7311 12.48C87.0644 12.48 86.5311 12.6933 86.1311 13.12C85.7444 13.5333 85.5378 14.1933 85.5111 15.1C85.4844 15.6067 85.4844 16.0733 85.5111 16.5C85.5378 17.42 85.7444 18.0867 86.1311 18.5C86.5311 18.9133 87.0644 19.12 87.7311 19.12C88.2511 19.12 88.6711 19.0133 88.9911 18.8C89.3111 18.5733 89.5711 18.1933 89.7711 17.66C89.8378 17.5267 89.9044 17.4267 89.9711 17.36C90.0511 17.2933 90.1578 17.26 90.2911 17.26H92.0511C92.1844 17.26 92.2978 17.3067 92.3911 17.4C92.4978 17.48 92.5444 17.5933 92.5311 17.74C92.5178 17.98 92.4511 18.2533 92.3311 18.56C92.2244 18.8533 92.0444 19.16 91.7911 19.48C91.5511 19.7867 91.2444 20.0733 90.8711 20.34C90.4978 20.5933 90.0444 20.8 89.5111 20.96C88.9911 21.12 88.3844 21.2 87.6911 21.2ZM96.1648 24.8C96.0582 24.8 95.9648 24.76 95.8848 24.68C95.8048 24.6 95.7648 24.5067 95.7648 24.4C95.7648 24.3467 95.7648 24.2933 95.7648 24.24C95.7782 24.2 95.8048 24.1467 95.8448 24.08L97.4048 20.38L93.5648 11.32C93.5115 11.1867 93.4848 11.0933 93.4848 11.04C93.4982 10.92 93.5448 10.82 93.6248 10.74C93.7048 10.6467 93.8048 10.6 93.9248 10.6H95.5448C95.7048 10.6 95.8248 10.64 95.9048 10.72C95.9848 10.8 96.0448 10.8867 96.0848 10.98L98.7448 17.52L101.485 10.98C101.525 10.8733 101.585 10.7867 101.665 10.72C101.745 10.64 101.865 10.6 102.025 10.6H103.625C103.732 10.6 103.825 10.64 103.905 10.72C103.998 10.8 104.045 10.8933 104.045 11C104.045 11.08 104.018 11.1867 103.965 11.32L98.3048 24.42C98.2515 24.5267 98.1848 24.6133 98.1048 24.68C98.0248 24.76 97.9048 24.8 97.7448 24.8H96.1648Z" fill="white" fill-opacity="0.9"/>
<path d="M30.8 2.37004C30.8 1.66413 30.2293 1.08904 29.5235 1.10227C23.7461 1.21054 19.0538 2.26906 15.6063 3.51123C12.5827 4.60067 10.3944 5.9917 9.05785 7.18959C8.00483 8.13339 7.67983 9.56374 7.69758 10.9777L7.75502 15.552L7.67053 24.0796C8.83761 20.113 13.0418 17.4392 22.5518 16.1423C24.4116 15.8886 27.1028 15.6171 29.5095 15.5482C30.2209 15.5278 30.8 14.953 30.8 14.2414V2.37004Z" fill="white"/>
<path d="M7.67053 24.0799C7.67053 29.3859 20.5993 29.3652 22.4851 23.6548C22.5328 23.5101 22.5518 23.3563 22.5518 23.2039V16.1426C13.0418 17.4395 8.83761 20.1133 7.67053 24.0799Z" fill="#DDDDDD"/>
<path d="M7.69757 10.9777C7.67982 9.56373 8.00482 8.13338 9.05784 7.18958C10.3944 5.99169 12.5827 4.60066 15.6063 3.51122C9.0789 0.888168 3.20384 0.117526 0.977772 0.0128601C0.339821 -0.017135 0.0290285 0.368922 0.0250347 1.00757C0.0106232 3.31209 -0.0201366 9.24145 0.0194433 12.6881C0.0248013 13.1547 0.404957 13.5333 0.867468 13.5951C3.2526 13.9135 7.75501 15.2654 7.75501 15.552L7.69757 10.9777Z" fill="#CCCCCC"/>
</g>
<defs>
<clipPath id="clip0_207_164">
<rect width="105" height="28" fill="white"/>
</clipPath>
</defs>
</svg>
