<svg width="134" height="40" viewBox="0 0 134 40" fill="none" xmlns="http://www.w3.org/2000/svg">
<path d="M16.876 38.9109C16.8632 38.9109 16.854 38.9018 16.854 38.889C16.854 38.889 16.8632 10.5087 16.876 10.5087C16.876 10.5087 29.2296 7.15946 29.2296 7.17044L29.2204 15.4281C29.2204 15.4409 23.7153 17.1155 23.7153 17.1283V35.5782C23.7171 35.5892 16.876 38.9109 16.876 38.9109Z" fill="white"/>
<path d="M7.06079 35.5781V17.1283C7.06079 17.1155 1.55566 15.4409 1.55566 15.428L1.54834 6.98734C1.54834 6.97453 13.9019 10.5086 13.9019 10.5086C13.9147 10.5086 13.9239 38.8889 13.9239 38.8889C13.9239 38.9017 13.9147 38.9108 13.9019 38.9108C13.9019 38.9108 7.06079 35.5891 7.06079 35.5781Z" fill="white"/>
<path d="M3.03625 5.41908L15.1666 2.18701L27.7617 5.41908L15.1977 8.70055L3.03625 5.41908Z" fill="white"/>
<path d="M37.4835 35.2504V21.4547H33.9989V20.082H42.4652V21.4547H39.0007V35.2504H37.4835Z" fill="white"/>
<path d="M60.1336 20.082H61.6508V29.6959C61.6508 33.5282 59.4162 35.5176 56.4861 35.5176C53.5962 35.5176 51.3214 33.5904 51.3214 29.6556V20.0839H52.8385V29.738C52.8385 32.7925 54.4784 34.145 56.4879 34.145C58.2302 34.145 60.1372 33.0579 60.1372 29.7581V20.082H60.1336Z" fill="white"/>
<path d="M79.978 35.2504L74.8334 28.3836H76.3085C78.9934 28.3836 80.5929 27.011 80.5929 24.9393C80.5929 23.5044 79.7108 21.4547 76.2262 21.4547H73.3364V35.2504H71.8192V20.082H76.3909C80.3477 20.082 82.1101 22.4191 82.1101 24.9814C82.1101 27.4411 80.2653 29.3884 77.6006 29.5934L81.885 35.2504H79.978Z" fill="white"/>
<path d="M99.5937 35.2504L94.4491 28.3836H95.9242C98.6091 28.3836 100.209 27.011 100.209 24.9393C100.209 23.5044 99.3265 21.4547 95.8418 21.4547H92.9539V35.2504H91.4366V20.082H96.0084C99.9652 20.082 101.728 22.4191 101.728 24.9814C101.728 27.4411 99.8828 29.3884 97.2181 29.5934L101.503 35.2504H99.5937Z" fill="white"/>
<path d="M111.177 35.2504V20.082H112.694V35.2504H111.177Z" fill="white"/>
<path d="M129.237 23.9366C129.237 22.3791 127.967 21.1895 126.552 21.1895C124.995 21.1895 123.805 22.3572 123.805 23.8341C123.805 25.1262 124.585 25.9241 126.737 26.4787C130.016 27.3187 131.124 29.0208 131.124 31.0706C131.124 33.5504 129.094 35.5178 126.552 35.5178C123.867 35.5178 121.92 33.7133 121.878 31.0083H123.395C123.497 32.9556 124.727 34.1452 126.552 34.1452C128.274 34.1452 129.607 32.7927 129.607 31.1328C129.607 29.493 128.519 28.5706 126.532 27.9959C124.359 27.381 122.29 26.6635 122.29 23.8963C122.29 21.4988 124.217 19.8169 126.554 19.8169C128.911 19.8169 130.756 21.5995 130.756 23.9366H129.237Z" fill="white"/>
</svg>
