<svg width="216" height="40" viewBox="0 0 216 40" fill="none" xmlns="http://www.w3.org/2000/svg">
<g clip-path="url(#clip0_418_2)">
<path d="M18.6922 0.254883H27.0056V19.8721C27.0056 22.2046 26.4474 24.2232 25.331 25.9277C24.2245 27.6223 22.6795 28.9331 20.6958 29.8601C18.7122 30.7772 16.4095 31.2358 13.7879 31.2358C11.1463 31.2358 8.83377 30.7772 6.85009 29.8601C4.86644 28.9331 3.32138 27.6223 2.21493 25.9277C1.11844 24.2232 0.57019 22.2046 0.57019 19.8721V0.254883H8.88359V19.1544C8.88359 20.1014 9.09293 20.9487 9.51159 21.6963C9.93026 22.4339 10.5084 23.012 11.2461 23.4307C11.9936 23.8494 12.8409 24.0587 13.7879 24.0587C14.7449 24.0587 15.5922 23.8494 16.3298 23.4307C17.0674 23.012 17.6456 22.4339 18.0642 21.6963C18.4829 20.9487 18.6922 20.1014 18.6922 19.1544V0.254883ZM38.6983 17.9582V30.8769H30.4447V7.91037H38.2797V12.2764H38.5189C39.0173 10.8211 39.8945 9.6797 41.1505 8.8524C42.4164 8.02503 43.8917 7.61135 45.5763 7.61135C47.2011 7.61135 48.6116 7.98517 49.8078 8.73275C51.0139 9.47037 51.9459 10.4871 52.6038 11.783C53.2717 13.0789 53.6006 14.5591 53.5907 16.2238V30.8769H45.3371V17.9582C45.347 16.8219 45.058 15.9297 44.4698 15.2818C43.8917 14.6339 43.0843 14.3099 42.0476 14.3099C41.3698 14.3099 40.7766 14.4594 40.2683 14.7584C39.7699 15.0476 39.3861 15.4662 39.117 16.0144C38.8479 16.5528 38.7083 17.2007 38.6983 17.9582ZM64.4498 25.4343L64.5096 15.6257H65.5862L71.1481 7.91037H80.419L71.0884 19.9319H68.756L64.4498 25.4343ZM57.0336 30.8769V0.254883H65.2872V30.8769H57.0336ZM71.2084 30.8769L65.9451 21.786L71.3277 15.9248L80.6583 30.8769H71.2084ZM91.9958 31.2956C89.5432 31.2956 87.4302 30.8271 85.6562 29.8901C83.8912 28.9431 82.5305 27.5874 81.574 25.8231C80.6267 24.0488 80.1537 21.9255 80.1537 19.4535C80.1537 17.081 80.6323 15.0077 81.5888 13.2334C82.546 11.459 83.8962 10.0784 85.6407 9.09163C87.3853 8.10475 89.4435 7.61135 91.8162 7.61135C93.5509 7.61135 95.1207 7.88047 96.5263 8.41879C97.9312 8.95703 99.1326 9.73956 100.13 10.7662C101.126 11.783 101.894 13.0191 102.432 14.4744C102.971 15.9297 103.239 17.5695 103.239 19.3937V21.3075H82.7249V16.7621H95.6442C95.6337 16.1042 95.4646 15.526 95.1354 15.0276C94.8169 14.5192 94.3832 14.1255 93.8344 13.8464C93.2962 13.5573 92.6835 13.4128 91.9958 13.4128C91.3277 13.4128 90.7144 13.5573 90.1565 13.8464C89.5979 14.1255 89.1495 14.5142 88.8105 15.0127C88.4821 15.5111 88.3074 16.0942 88.2877 16.7621V21.6664C88.2877 22.404 88.4421 23.0619 88.7509 23.6401C89.0597 24.2182 89.5039 24.6718 90.0814 25.0007C90.6597 25.3297 91.3579 25.4941 92.1748 25.4941C92.7432 25.4941 93.2618 25.4144 93.7298 25.2549C94.2084 25.0954 94.6169 24.8662 94.9558 24.5671C95.2948 24.2581 95.5446 23.8892 95.7039 23.4606H103.239C102.98 25.0555 102.368 26.4411 101.401 27.6173C100.434 28.7836 99.153 29.6907 97.5579 30.3386C95.9727 30.9765 94.1186 31.2956 91.9958 31.2956ZM110.425 39.4893C109.477 39.4893 108.575 39.4146 107.718 39.265C106.86 39.1255 106.108 38.9311 105.46 38.6819L107.254 32.8207C107.932 33.0599 108.55 33.2144 109.109 33.2842C109.677 33.3539 110.16 33.3141 110.559 33.1645C110.968 33.0151 111.262 32.7309 111.441 32.3123L111.62 31.8937L103.546 7.91037H112.159L115.867 23.8195H116.106L119.874 7.91037H128.546L120.173 32.7908C119.754 34.0567 119.147 35.1931 118.349 36.1998C117.561 37.2166 116.525 38.0191 115.239 38.6071C113.953 39.1953 112.348 39.4893 110.425 39.4893ZM133.309 31.3553C132.152 31.3553 131.161 30.9516 130.333 30.1443C129.516 29.3269 129.112 28.335 129.122 27.1688C129.112 26.0324 129.516 25.0605 130.333 24.2531C131.161 23.4457 132.152 23.0419 133.309 23.0419C134.405 23.0419 135.372 23.4457 136.209 24.2531C137.057 25.0605 137.486 26.0324 137.495 27.1688C137.486 27.9463 137.281 28.654 136.882 29.292C136.493 29.92 135.985 30.4233 135.357 30.8022C134.729 31.1709 134.046 31.3553 133.309 31.3553ZM149.662 31.1759C148.028 31.1759 146.523 30.7473 145.147 29.8901C143.782 29.0328 142.685 27.732 141.858 25.9876C141.04 24.2431 140.632 22.0452 140.632 19.3937C140.632 16.6225 141.06 14.3697 141.917 12.6353C142.785 10.9008 143.901 9.62988 145.267 8.82244C146.642 8.01507 148.088 7.61135 149.603 7.61135C150.739 7.61135 151.736 7.81072 152.594 8.20945C153.451 8.59816 154.168 9.12152 154.747 9.77942C155.325 10.4273 155.764 11.1401 156.062 11.9176H156.182V0.254883H164.436V30.8769H156.241V27.109H156.062C155.743 27.8864 155.285 28.5843 154.686 29.2022C154.098 29.8103 153.381 30.2937 152.533 30.6526C151.696 31.0015 150.739 31.1759 149.662 31.1759ZM152.713 24.8362C153.471 24.8362 154.119 24.6169 154.657 24.1783C155.205 23.7297 155.624 23.1018 155.913 22.2944C156.212 21.477 156.361 20.5101 156.361 19.3937C156.361 18.2572 156.212 17.2854 155.913 16.4779C155.624 15.6606 155.205 15.0376 154.657 14.609C154.119 14.1704 153.471 13.9511 152.713 13.9511C151.955 13.9511 151.307 14.1704 150.769 14.609C150.241 15.0376 149.832 15.6606 149.543 16.4779C149.264 17.2854 149.124 18.2572 149.124 19.3937C149.124 20.53 149.264 21.5069 149.543 22.3243C149.832 23.1317 150.241 23.7547 150.769 24.1933C151.307 24.6219 151.955 24.8362 152.713 24.8362ZM178.86 31.2956C176.408 31.2956 174.295 30.8271 172.521 29.8901C170.757 28.9431 169.396 27.5874 168.439 25.8231C167.492 24.0488 167.018 21.9255 167.018 19.4535C167.018 17.081 167.497 15.0077 168.454 13.2334C169.411 11.459 170.761 10.0784 172.506 9.09163C174.251 8.10475 176.309 7.61135 178.681 7.61135C180.415 7.61135 181.986 7.88047 183.391 8.41879C184.797 8.95703 185.998 9.73956 186.994 10.7662C187.992 11.783 188.759 13.0191 189.298 14.4744C189.836 15.9297 190.105 17.5695 190.105 19.3937V21.3075H169.59V16.7621H182.509C182.499 16.1042 182.33 15.526 182.001 15.0276C181.681 14.5192 181.248 14.1255 180.7 13.8464C180.161 13.5573 179.549 13.4128 178.86 13.4128C178.193 13.4128 177.58 13.5573 177.022 13.8464C176.463 14.1255 176.015 14.5142 175.676 15.0127C175.347 15.5111 175.173 16.0942 175.152 16.7621V21.6664C175.152 22.404 175.307 23.0619 175.616 23.6401C175.925 24.2182 176.368 24.6718 176.947 25.0007C177.525 25.3297 178.222 25.4941 179.04 25.4941C179.608 25.4941 180.126 25.4144 180.595 25.2549C181.074 25.0954 181.482 24.8662 181.821 24.5671C182.16 24.2581 182.409 23.8892 182.569 23.4606H190.105C189.846 25.0555 189.232 26.4411 188.265 27.6173C187.299 28.7836 186.018 29.6907 184.423 30.3386C182.838 30.9765 180.984 31.2956 178.86 31.2956ZM215.411 7.91037L207.696 30.8769H198.127L190.411 7.91037H199.084L202.792 23.1018H203.031L206.739 7.91037H215.411Z" fill="white"/>
</g>
<defs>
<clipPath id="clip0_418_2">
<rect width="215.439" height="40" fill="white"/>
</clipPath>
</defs>
</svg>
