<svg width="67" height="40" viewBox="0 0 67 40" fill="none" xmlns="http://www.w3.org/2000/svg">
<g clip-path="url(#clip0_343_296)">
<path d="M21.1475 15.7543L16.7049 26.4264L5.65574 0.0166016H0L16.7049 40.0002L29.0164 10.5084C25.5738 10.492 22.459 12.574 21.1475 15.7543Z" fill="white"/>
<path d="M30.2623 34.7545L40.377 10.4922C36.9508 10.4922 33.8524 12.5578 32.541 15.7217L22.4262 40.0004H33.541C39.9836 40.0004 41.6721 34.7545 41.6721 34.7545H30.2623Z" fill="white"/>
<path d="M56.2787 15.1475L66.3934 5.26229H64.6557C60.9672 5.26229 57.4262 6.70492 54.7869 9.27869L50.6229 13.3443L56.1967 0H33.6066C27.1639 0 25.4754 5.2459 25.4754 5.2459H48.3279L38.1639 29.4918C40.5902 29.4918 42.6721 28.5082 44.4098 26.7377L52.1967 19.1148L60.9836 39.9836H66.6393L56.2787 15.1475Z" fill="white"/>
</g>
<defs>
<clipPath id="clip0_343_296">
<rect width="66.6393" height="40" fill="white"/>
</clipPath>
</defs>
</svg>
