<svg width="138" height="40" viewBox="0 0 138 40" fill="none" xmlns="http://www.w3.org/2000/svg">
<g clip-path="url(#clip0_343_320)">
<path d="M69.7494 10.2002H73.1161C73.6161 10.2002 73.8494 10.5002 73.6827 11.0002L65.6161 32.7669C65.4827 33.1669 65.1827 33.3335 64.7827 33.3335H60.6494C60.2494 33.3335 59.9494 33.1669 59.8161 32.7669L51.7494 11.0002C51.5827 10.5002 51.8161 10.2002 52.3161 10.2002H55.6827C56.0827 10.2002 56.3494 10.3669 56.4827 10.8002L62.7161 28.7002L68.9494 10.8002C69.0827 10.3669 69.3494 10.2002 69.7494 10.2002Z" fill="white"/>
<path d="M79.8939 33.3335H76.9606C76.5272 33.3335 76.2606 33.0669 76.2606 32.6002V10.9002C76.2606 10.4335 76.5272 10.2002 76.9606 10.2002H79.8939C80.3272 10.2002 80.5939 10.4335 80.5939 10.9002V32.6002C80.5939 33.0669 80.3272 33.3335 79.8939 33.3335Z" fill="white"/>
<path d="M97.0955 16.8662H100.096C100.629 16.8662 100.862 17.1662 100.629 17.6995L90.4622 39.4662C90.2955 39.7995 90.0289 39.9995 89.6289 39.9995H86.6622C86.0955 39.9995 85.8955 39.6329 86.1289 39.1329L89.9289 31.5662L83.1622 17.6995C82.9289 17.1662 83.1622 16.8662 83.6955 16.8662H86.7622C87.1622 16.8662 87.4622 16.9995 87.5955 17.3995L91.9955 27.2662L96.2622 17.4329C96.3955 17.0329 96.6955 16.8662 97.0955 16.8662Z" fill="white"/>
<path d="M109.066 33.6332C105.166 33.6332 102.333 31.7665 101.866 29.0332C101.766 28.5332 102.066 28.2999 102.566 28.2999H105.366C105.766 28.2999 105.966 28.4665 106.066 28.6665C106.466 29.8665 107.566 30.5665 109.033 30.5665C110.666 30.5665 111.766 29.7665 111.766 28.6332C111.766 27.1332 109.733 26.7332 107.433 26.2665C104.999 25.8332 102.133 24.7999 102.133 21.5665C102.133 18.6332 104.899 16.5332 108.866 16.5332C112.499 16.5332 115.166 18.3332 115.599 21.0332C115.699 21.4999 115.365 21.7665 114.899 21.7665H112.333C111.933 21.7665 111.733 21.5665 111.566 21.2999C111.266 20.1665 110.299 19.4999 108.899 19.4999C107.399 19.4999 106.366 20.2665 106.366 21.3665C106.366 22.8999 108.066 23.1999 110.333 23.6332C112.733 24.0999 116.166 24.9665 116.166 28.4999C116.166 31.5332 113.199 33.6332 109.066 33.6332Z" fill="white"/>
<path d="M126.057 33.6332C122.157 33.6332 119.324 31.7665 118.857 29.0332C118.757 28.5332 119.057 28.2999 119.557 28.2999H122.357C122.757 28.2999 122.957 28.4665 123.057 28.6665C123.457 29.8665 124.557 30.5665 126.024 30.5665C127.657 30.5665 128.757 29.7665 128.757 28.6332C128.757 27.1332 126.724 26.7332 124.424 26.2665C121.991 25.8332 119.124 24.7999 119.124 21.5665C119.124 18.6332 121.891 16.5332 125.857 16.5332C129.491 16.5332 132.156 18.3332 132.59 21.0332C132.69 21.4999 132.356 21.7665 131.89 21.7665H129.323C128.923 21.7665 128.723 21.5665 128.556 21.2999C128.256 20.1665 127.29 19.4999 125.89 19.4999C124.39 19.4999 123.356 20.2665 123.356 21.3665C123.356 22.8999 125.056 23.1999 127.323 23.6332C129.723 24.0999 133.156 24.9665 133.156 28.4999C133.156 31.5332 130.19 33.6332 126.057 33.6332Z" fill="white"/>
<path d="M3.23047 18.1896C3.23047 16.6104 3.23047 15.8208 3.47273 15.1254C3.68695 14.5106 4.03642 13.9518 4.49537 13.4899C5.0144 12.9676 5.72425 12.6219 7.14394 11.9304L20.5463 5.40234V6.73984C20.5463 9.31156 20.5463 10.5974 20.147 11.7251C19.794 12.7221 19.2184 13.6256 18.464 14.3669C17.6108 15.2054 16.4454 15.7489 14.1146 16.8357L3.23047 21.9111V18.1896Z" fill="white"/>
<path d="M42.1291 18.1896C42.1291 16.6104 42.1291 15.8208 41.8868 15.1254C41.6725 14.5106 41.3231 13.9518 40.8642 13.4899C40.3451 12.9676 39.6353 12.6219 38.2156 11.9304L24.8132 5.40234V6.73984C24.8132 9.31156 24.8132 10.5974 25.2125 11.7251C25.5655 12.7221 26.1412 13.6256 26.8955 14.3669C27.7487 15.2054 28.9142 15.7489 31.245 16.8357L42.1291 21.9111V18.1896Z" fill="white"/>
<path d="M20.5463 34.2892C20.5463 32.71 20.5463 31.9205 20.304 31.2252C20.0899 30.6103 19.7403 30.0514 19.2815 29.5895C18.7624 29.0672 18.0525 28.7215 16.6328 28.03L3.23048 21.502L3.23047 22.8395C3.23045 25.4113 3.23045 26.6971 3.62978 27.8248C3.98283 28.8217 4.55839 29.7253 5.31276 30.4666C6.16604 31.3051 7.33142 31.8485 9.6622 32.9354L20.5463 38.0107V34.2892Z" fill="white"/>
<path d="M24.8132 34.2892C24.8132 32.71 24.8132 31.9205 25.0555 31.2252C25.2698 30.6103 25.6192 30.0514 26.0782 29.5895C26.5971 29.0672 27.307 28.7215 28.7267 28.03L42.1291 21.502V22.8395C42.1291 25.4113 42.1291 26.6971 41.7298 27.8248C41.3768 28.8217 40.8012 29.7253 40.0468 30.4666C39.1936 31.3051 38.0282 31.8485 35.6974 32.9354L24.8132 38.0107V34.2892Z" fill="white"/>
</g>
<defs>
<clipPath id="clip0_343_320">
<rect width="137.931" height="40" fill="white"/>
</clipPath>
</defs>
</svg>
