<svg width="137" height="40" viewBox="0 0 137 40" fill="none" xmlns="http://www.w3.org/2000/svg">
<mask id="mask0_1_252" style="mask-type:luminance" maskUnits="userSpaceOnUse" x="0" y="0" width="48" height="40">
<path d="M0 0.0523682H47.2445V39.9006H0V0.0523682Z" fill="white"/>
</mask>
<g mask="url(#mask0_1_252)">
<path d="M36.14 0.100519C27.8098 0.100519 24.2398 6.30546 24.2398 12.5104L24.3862 12.6202L24.5329 12.7301C25.7044 11.998 27.096 11.4123 28.9084 11.4123C32.8444 11.4123 35.4075 14.1213 35.4075 19.8139C35.4075 24.7739 33.5036 29.4417 31.9109 30.9789C30.739 32.0774 28.1945 32.5898 25.4113 32.5898C21.4753 32.5898 18.9855 30.6128 18.9855 26.0188C18.9855 21.4244 21.9698 13.9746 21.9698 9.28895C21.9698 4.32849 18.6924 0.0822754 12.1199 0.0822754C2.48974 0.10052 0 8.42876 0 12.071L0.146341 12.1808L0.29307 12.2907C1.02516 11.8517 2.41676 11.3389 4.0828 11.3389C6.71888 11.3389 7.9455 12.8035 7.9455 14.9815C7.9455 18.6971 5.3824 24.902 5.3824 29.588C5.3824 38.136 11.6623 39.8746 17.2096 39.8746C23.3427 39.8746 29.9153 38.0444 33.1193 32.8642C43.1885 28.1235 47.2165 18.8434 47.2165 12.0527C47.2348 6.89121 44.6165 0.100519 36.14 0.100519Z" fill="white"/>
</g>
<mask id="mask1_1_252" style="mask-type:luminance" maskUnits="userSpaceOnUse" x="89" y="0" width="48" height="40">
<path d="M89.4776 0.0523682H136.761V39.9006H89.4776V0.0523682Z" fill="white"/>
</mask>
<g mask="url(#mask1_1_252)">
<path d="M136.615 27.7943L136.541 27.7392L136.486 27.6845C135.754 28.1235 134.362 28.6363 132.696 28.6363C130.06 28.6363 128.834 27.1717 128.834 24.9936C128.834 21.2781 131.397 15.0731 131.397 10.3871C131.397 3.21213 126.966 0.832635 122.261 0.246882C121.364 0.13703 120.467 0.0819092 119.57 0.0819092C113.436 0.0819092 106.864 1.91253 103.66 7.0923C93.5907 11.8331 89.5626 21.1131 89.5626 27.9042C89.5626 33.0839 92.1991 39.8746 100.657 39.8746C109.116 39.8746 112.558 33.6697 112.558 27.4648L112.411 27.3549L112.32 27.2998L112.265 27.245C111.386 27.7943 110.397 28.2516 109.171 28.453C108.768 28.5264 108.347 28.5629 107.889 28.5629C103.953 28.5629 101.39 25.8538 101.39 20.1613C101.39 17.7453 101.848 15.4209 102.488 13.4805C103.166 11.4123 104.081 9.78311 104.905 8.9959C106.077 7.89776 108.622 7.38537 111.404 7.38537C115.34 7.38537 117.831 9.36233 117.831 13.9564C117.831 18.5508 114.791 26.0188 114.791 30.6862C114.791 35.6467 118.087 39.8746 124.641 39.8746C134.271 39.8746 136.761 31.5464 136.761 27.9042L136.615 27.7943Z" fill="white"/>
</g>
<mask id="mask2_1_252" style="mask-type:luminance" maskUnits="userSpaceOnUse" x="46" y="0" width="44" height="40">
<path d="M46.847 0H89.8751V40H46.847V0Z" fill="white"/>
</mask>
<g mask="url(#mask2_1_252)">
<path d="M77.095 0.0272217C70.8885 0.0272217 65.9272 3.59647 64.0232 6.89127V6.90952C54.2832 8.11751 47.3078 16.8487 46.9417 26.4579C46.6486 35.2255 52.5625 39.9663 59.6474 39.9663C65.8539 39.9663 70.8155 36.397 72.7195 33.1022V33.084C82.4595 31.876 89.4346 23.1452 89.801 13.5356C90.0937 4.76797 84.1803 0.0272217 77.095 0.0272217ZM72.8658 30.6129C71.2549 31.4183 69.2958 31.9307 67.3184 31.9307C62.4302 31.9307 60.0138 29.7344 60.0138 23.8956C60.0138 18.0567 61.6247 12.675 63.8951 9.36238C65.5061 8.55692 67.4652 8.04415 69.4421 8.04415C74.3304 8.04415 76.7471 10.2408 76.7471 16.0797C76.7471 21.9186 75.1362 27.3185 72.8658 30.6129Z" fill="white"/>
</g>
</svg>
