<svg width="134" height="40" viewBox="0 0 134 40" fill="none" xmlns="http://www.w3.org/2000/svg">
<g clip-path="url(#clip0_391_145)">
<path d="M0 8.84645V11.6047C0.261533 11.6047 0.520645 11.5853 0.7846 11.5853C3.52187 11.5819 6.24086 12.0311 8.83158 12.9147V10.0306C8.8318 9.90946 8.86392 9.79049 8.92469 9.68568C8.98547 9.58087 9.07277 9.4939 9.17781 9.43353C9.28286 9.37315 9.40194 9.34149 9.5231 9.34173C9.64426 9.34197 9.76322 9.37411 9.86802 9.4349L23.7583 17.4528C25.6991 15.2102 27.2244 12.6393 28.2625 9.86111L13.2486 1.19661C7.36166 -2.20332 0 2.0466 0 8.84645Z" fill="#CCCCCC"/>
<path d="M8.83157 29.9697V12.9144C6.24267 12.0296 3.52534 11.5788 0.789429 11.5801C0.525474 11.5801 0.266365 11.5922 0.0048324 11.5995V31.149C-0.0033554 32.6348 0.367496 34.0982 1.08233 35.4007C1.79716 36.7032 2.83236 37.802 4.09007 38.593C5.15486 35.5515 6.79965 32.7455 8.93328 30.3305C8.86638 30.2221 8.83115 30.0971 8.83157 29.9697Z" fill="white"/>
<path d="M32.5633 12.3498L28.2504 9.86035C27.2123 12.6386 25.687 15.2094 23.7462 17.4521L27.122 19.4015C27.2271 19.462 27.3144 19.5491 27.3751 19.6541C27.4358 19.7591 27.4678 19.8783 27.4678 19.9996C27.4678 20.1209 27.4358 20.24 27.3751 20.3451C27.3144 20.4501 27.2271 20.5372 27.122 20.5977L24.5284 22.0943L22.0632 23.5182C23.6371 26.0779 24.7332 28.9021 25.2985 31.8533L32.5633 27.6494C34.2349 26.6967 35.5444 25.2178 36.2877 23.4431C37.1276 21.458 37.2125 19.2344 36.5264 17.1911C35.8404 15.1477 34.4309 13.4258 32.5633 12.3498Z" fill="white"/>
<path d="M9.86319 30.5654C9.70855 30.6549 9.52525 30.6809 9.35183 30.638C9.1784 30.5951 9.02838 30.4866 8.93329 30.3354C6.79967 32.7504 5.15487 35.5564 4.09009 38.5979C5.44916 39.4759 7.02504 39.96 8.64265 39.9963C10.2603 40.0326 11.8563 39.6198 13.2534 38.8037L25.2985 31.8537C24.7385 28.9036 23.648 26.0795 22.0802 23.5186L9.86319 30.5654Z" fill="#CCCCCC"/>
<path d="M71.0038 9.28223L63.3782 30.8078H56.8229L49.1973 9.28223H54.7669L60.0945 25.5336L65.4607 9.28223H71.0038Z" fill="white"/>
<path d="M76.5638 29.6236C74.8938 28.6972 73.5069 27.3345 72.5512 25.6812C71.5764 23.9469 71.0643 21.9908 71.0643 20.0013C71.0643 18.0118 71.5764 16.0558 72.5512 14.3215C73.5103 12.6751 74.8967 11.3188 76.5638 10.396C78.2701 9.46963 80.1809 8.98437 82.1226 8.98438C84.0642 8.98437 85.975 9.46963 87.6813 10.396C89.3428 11.3152 90.7199 12.6731 91.6624 14.3215C92.6197 16.062 93.1204 18.0168 93.1179 20.0032C93.1153 21.9896 92.6096 23.9431 91.6479 25.6812C90.7031 27.333 89.3259 28.696 87.6644 29.6236C85.9609 30.5493 84.0529 31.0343 82.1141 31.0343C80.1753 31.0343 78.2673 30.5493 76.5638 29.6236ZM86.2502 24.5382C87.2818 23.3952 87.7976 21.8825 87.7976 20.0001C87.7976 18.1177 87.2818 16.6002 86.2502 15.4475C85.2186 14.3174 83.8463 13.7524 82.1334 13.7524C80.4206 13.7524 79.037 14.3174 77.9828 15.4475C76.9512 16.5776 76.4362 18.1 76.4378 20.0146C76.4394 21.9293 76.9504 23.4372 77.9707 24.5382C79.0023 25.6683 80.3859 26.2333 82.1213 26.2333C83.8568 26.2333 85.2299 25.6626 86.2405 24.5212L86.2502 24.5382Z" fill="white"/>
<path d="M110.132 16.0893C109.756 15.3858 109.174 14.8138 108.464 14.4499C107.67 14.0561 106.792 13.8616 105.906 13.8832C104.211 13.8832 102.853 14.441 101.833 15.5565C100.813 16.6721 100.303 18.1589 100.303 20.0171C100.303 22.0012 100.839 23.5502 101.911 24.6642C102.983 25.7781 104.457 26.3343 106.335 26.3326C107.499 26.375 108.645 26.0348 109.597 25.364C110.523 24.6502 111.2 23.6632 111.534 22.5428H104.896V18.6683H116.278V23.543C115.857 24.9302 115.15 26.2141 114.204 27.3122C113.257 28.4102 112.091 29.2982 110.781 29.919C109.268 30.6334 107.611 30.9905 105.938 30.9628C103.954 30.9979 101.995 30.5164 100.254 29.5655C98.6195 28.6652 97.2716 27.3223 96.3652 25.6909C95.4504 23.937 94.9727 21.988 94.9727 20.0098C94.9727 18.0317 95.4504 16.0827 96.3652 14.3288C97.2648 12.6922 98.6077 11.3426 100.24 10.4348C101.975 9.48449 103.928 9.00368 105.906 9.04C108.481 9.04 110.651 9.66316 112.416 10.9095C114.178 12.1509 115.425 13.9942 115.922 16.0917L110.132 16.0893Z" fill="white"/>
<path d="M124.066 26.5168H133.316V30.8078H118.123V26.8219L127.313 13.5757H118.123V9.28223H133.316V13.2682L124.066 26.5168Z" fill="white"/>
</g>
<defs>
<clipPath id="clip0_391_145">
<rect width="133.314" height="40" fill="white"/>
</clipPath>
</defs>
</svg>
