<svg width="207" height="40" viewBox="0 0 207 40" fill="none" xmlns="http://www.w3.org/2000/svg">
<g clip-path="url(#clip0_415_202)">
<path d="M87.3298 20.9966V14.5195C87.7508 14.5195 88.6046 14.5195 88.9708 14.5195C90.9038 14.5195 91.7901 15.3259 91.7901 16.5002C91.7901 18.9854 87.3298 20.9966 87.3298 20.9966ZM95.2309 16.2129C95.2309 12.899 92.1482 11.5342 88.1701 11.5342H83.8885V28.9482H87.3298V24.779C87.8723 24.3857 88.8989 23.7624 89.8821 23.1044L92.8388 28.9482H96.458L92.5545 21.0612C94.0367 19.7119 95.2309 18.0838 95.2309 16.2129Z" fill="white"/>
<path d="M131.534 20.9966V14.5195C131.954 14.5195 132.808 14.5195 133.174 14.5195C135.107 14.5195 135.994 15.3259 135.994 16.5002C135.994 18.9854 131.534 20.9966 131.534 20.9966ZM139.434 16.2129C139.434 12.899 136.352 11.5342 132.374 11.5342H128.092V28.9482H131.534V24.779C132.076 24.3857 133.102 23.7624 134.086 23.1044L137.042 28.9482H140.661L136.758 21.0612C138.24 19.7119 139.434 18.0838 139.434 16.2129Z" fill="white"/>
<path d="M165.508 20.9966V14.5195C165.929 14.5195 166.783 14.5195 167.149 14.5195C169.082 14.5195 169.968 15.3259 169.968 16.5002C169.968 18.9854 165.508 20.9966 165.508 20.9966ZM173.409 16.2129C173.409 12.899 170.327 11.5342 166.348 11.5342H162.067V28.9482H165.508V24.779C166.051 24.3857 167.077 23.7624 168.06 23.1044L171.017 28.9482H174.636L170.733 21.0612C172.215 19.7119 173.409 18.0838 173.409 16.2129Z" fill="white"/>
<path d="M64.0557 28.9482L68.5408 11.5342H65.0751L62.3989 23.4751H62.2968L59.4682 11.5342H56.6134L53.7588 23.4751H53.6569L51.0315 11.5342H47.4888L51.9748 28.9482H55.2372L57.9897 17.5045H58.0661L60.8185 28.9482H64.0557Z" fill="white"/>
<path d="M73.0142 22.3554L74.8218 15.5139H74.9001L76.7347 22.3554H73.0142ZM73.0142 11.5342L67.6617 28.9482H71.2796L72.3765 24.9686H77.3724L78.4665 28.9482H82.0628L76.7861 11.5342H73.0142Z" fill="white"/>
<path d="M107.833 22.1068L101.157 11.5343H98.2758V28.9482H101.717V18.3757H101.844L108.522 28.9482H111.401V11.5342H107.961V22.1068L107.833 22.1068Z" fill="white"/>
<path d="M125.545 25.8386H118.41V21.4852H123.762V18.624H118.41V14.644H125.291V11.5343H114.969V28.9482H125.545V25.8386Z" fill="white"/>
<path d="M182.073 14.2728C184.624 14.2728 185.37 17.2949 185.37 20.2434C185.37 23.1893 184.624 26.2137 182.073 26.2137C179.526 26.2137 178.78 23.1893 178.78 20.2434C178.78 17.2949 179.526 14.2728 182.073 14.2728ZM182.073 29.3232C186.661 29.3232 188.809 25.0854 188.809 20.2435C188.809 15.4066 186.661 11.1611 182.073 11.1611C177.486 11.1611 175.338 15.4066 175.338 20.2435C175.338 25.0854 177.486 29.3232 182.073 29.3232Z" fill="white"/>
<path d="M196.764 18.8735C195.362 18.0029 193.946 17.3813 193.946 15.8885C193.946 14.8929 194.852 14.1468 195.872 14.1468C197.018 14.1468 198.18 14.8929 198.561 15.5151L200.728 13.5245C199.708 12.1561 197.911 11.1611 195.744 11.1611C192.558 11.1611 190.506 13.0267 190.506 15.8885C190.506 18.998 192.813 20.3663 194.673 21.4114C196.126 22.2319 197.542 22.8547 197.542 24.347C197.542 25.5915 196.381 26.3376 195.107 26.3376C193.832 26.3376 192.545 25.5915 191.78 24.4714L189.741 26.4621C190.888 28.2031 193.196 29.3232 195.235 29.3232C198.421 29.3232 200.983 27.3326 200.983 24.347C200.983 21.2375 198.599 19.9936 196.764 18.8735Z" fill="white"/>
<path d="M204.281 25.4669C203.134 25.4669 202.369 26.3375 202.369 27.3325C202.369 28.3277 203.134 29.1982 204.281 29.1982C205.428 29.1982 206.193 28.3277 206.193 27.3325C206.193 26.3375 205.428 25.4669 204.281 25.4669Z" fill="white"/>
<path d="M151.083 25.864V22.2369C152.207 21.7996 153.451 21.2306 154.592 20.5305C155.126 20.8791 156.311 21.7966 156.311 23.0819C156.311 24.7816 154.718 25.7948 151.083 25.864ZM151.083 14.442C151.508 14.442 152.314 14.442 152.754 14.442C154.333 14.442 155.143 14.8462 155.143 15.7184C155.143 17.2881 151.765 18.6895 151.083 18.9565V14.442ZM156.9 18.721C157.823 17.7518 158.426 16.6297 158.426 15.3549C158.426 12.8618 156.245 11.5657 153.116 11.5342H147.641V28.9482H151.083C156.685 28.7875 159.573 26.5724 159.573 23.211C159.573 20.7179 157.423 19.082 156.9 18.721Z" fill="white"/>
<path d="M38.7879 13.0381C38.5258 14.9054 37.6413 21.0643 33.1204 27.0921C28.534 33.3165 22.5389 36.3305 20.7043 37.2477C18.9025 36.3305 12.8747 33.3165 8.28829 27.0921C3.80017 21.097 2.91564 14.9382 2.65356 13.0381L5.37265 11.5639V9.53276L8.09173 8.05855V6.02743C11.8264 4.22563 15.9541 3.07903 20.7043 2.42383C25.4545 3.04627 29.5823 4.22563 33.317 6.02743V8.05855L36.036 9.53276V11.5639L38.7879 13.0381Z" fill="black"/>
<path d="M38.493 10.1229V8.09173L35.774 6.61753V4.48812L34.398 3.83292C30.4341 1.9656 26.077 0.720721 21.0319 0.03276L20.7043 0L20.3767 0.03276C15.3645 0.720721 10.9746 1.9656 7.04341 3.86568L5.66749 4.52088V6.65029L2.9484 8.09173V10.1229L0 11.6953L0.22932 13.3661C1.01556 19.0008 3.07944 24.1114 6.35545 28.534C9.66421 33.0221 14.1196 36.6912 19.6233 39.4431L20.7043 40L21.7854 39.4431C27.2891 36.6912 31.7445 33.0221 35.0532 28.534C38.3292 24.1114 40.3931 19.0008 41.1794 13.3661L41.4087 11.6953L38.493 10.1229ZM38.7879 13.0385C38.5258 14.9058 37.6413 21.0647 33.1204 27.0925C28.534 33.317 22.5389 36.3309 20.7043 37.2482C18.9025 36.3309 12.8747 33.317 8.28829 27.0925C3.80016 21.0975 2.91564 14.9386 2.65356 13.0385L5.37265 11.5643V9.53317L8.09173 8.05897V6.02785C11.8264 4.22604 15.9541 3.07944 20.7043 2.42424C25.4545 3.04668 29.5823 4.22604 33.317 6.02785V8.05897L36.036 9.53317V11.5643L38.7879 13.0385Z" fill="white"/>
<path d="M16.6748 7.33808L16.8059 23.8819L16.6748 23.9474C14.9386 19.5248 13.8902 14.0211 13.5626 8.48468C12.7109 8.8778 11.7936 9.33644 10.8436 9.92612C11.2367 14.9384 12.0884 19.3283 13.6282 23.5215L12.7436 24.0129C10.4177 20.7697 8.91071 16.8385 7.89515 12.1538C7.17443 12.809 6.48647 13.5297 5.76575 14.316C7.10891 19.9179 9.27107 24.1767 12.3833 27.6165L14.7748 26.1751C15.9541 28.6321 17.5921 31.0563 19.4267 32.9892V6.84668C18.5094 6.94496 17.5921 7.10876 16.6748 7.33808ZM32.1376 15.8884C33.1204 14.8074 33.3169 14.0211 33.3169 13.0711C33.3169 11.7279 32.2031 10.5158 30.5651 9.46748C29.5823 8.84504 28.0753 8.09156 25.8804 7.46912C24.6355 7.14152 23.2924 6.9122 21.9492 6.87944V33.0547C27.4529 30.2373 33.9721 22.4732 34.0049 18.5093C34.0704 17.2971 33.448 16.5109 32.1376 15.8884ZM24.701 9.99164C26.0442 9.99164 30.4341 11.3676 30.4341 13.1366C30.4341 13.759 29.8771 14.6763 28.1409 15.5936L24.701 17.4282V9.99164ZM28.1081 24.5043C27.3218 25.3889 26.077 26.7648 24.701 27.8131V20.3111C24.701 20.3111 29.6806 17.5264 29.8444 17.3954C31.3186 17.7885 31.2531 18.8696 31.2531 18.9679C31.2531 20.3438 29.8444 22.4732 28.1081 24.5043Z" fill="white"/>
</g>
<defs>
<clipPath id="clip0_415_202">
<rect width="206.193" height="40" fill="white"/>
</clipPath>
</defs>
</svg>
