<svg width="123" height="30" viewBox="0 0 123 30" fill="none" xmlns="http://www.w3.org/2000/svg">
<g clip-path="url(#clip0_1_103)">
<mask id="mask0_1_103" style="mask-type:luminance" maskUnits="userSpaceOnUse" x="0" y="0" width="123" height="30">
<path d="M122.702 0H0V30H122.702V0Z" fill="white"/>
</mask>
<g mask="url(#mask0_1_103)">
<path d="M15.9427 15L19.6557 1.14279C19.8837 0.291956 20.7624 -0.220074 21.586 0.0924667C23.1952 0.703184 24.6978 1.57071 26.0313 2.65899C26.7138 3.21593 26.7097 4.23296 26.0868 4.85582L15.9427 15Z" fill="white"/>
<path d="M15.9427 15L29.7987 11.2872C30.6491 11.0594 31.5314 11.5635 31.6742 12.4322C31.9604 14.171 31.9502 15.9027 31.6766 17.5701C31.5344 18.4381 30.6524 18.9415 29.8027 18.7138L15.9427 15Z" fill="white"/>
<path d="M15.9427 15L26.0889 25.1462C26.711 25.7683 26.7161 26.7838 26.0355 27.3411C24.7282 28.4115 23.2336 29.2862 21.5847 29.9079C20.7611 30.2186 19.8832 29.7063 19.6554 28.856L15.9427 15Z" fill="white"/>
<path d="M15.9427 15L12.2297 28.8572C12.0017 29.708 11.1229 30.2201 10.2994 29.9075C8.69015 29.2968 7.18755 28.4292 5.85405 27.341C5.17161 26.784 5.17566 25.767 5.79852 25.1441L15.9427 15Z" fill="white"/>
<path d="M15.9427 15L2.08662 18.7127C1.23634 18.9405 0.353804 18.4364 0.210959 17.5678C-0.0750096 15.8289 -0.0648005 14.0972 0.208553 12.4299C0.350876 11.5618 1.2329 11.0585 2.08261 11.2862L15.9427 15Z" fill="white"/>
<path d="M12.23 1.1439L15.9427 15L5.79642 4.85367C5.17437 4.23165 5.16924 3.21615 5.84988 2.65885C7.15713 1.58846 8.65172 0.713768 10.3006 0.0919838C11.1243 -0.218609 12.0021 0.293626 12.23 1.1439Z" fill="white"/>
<path d="M39.8548 4.5H44.7049L48.181 19.0913H48.3553L52.1902 4.5H56.3431L60.1678 19.122H60.3523L63.8284 4.5H68.6785L62.6698 25.5H58.3426L54.3436 11.77H54.1795L50.1907 25.5H45.8635L39.8548 4.5Z" fill="white"/>
<path fill-rule="evenodd" clip-rule="evenodd" d="M66.9356 25.5H71.6936L73.2514 20.7114H80.8335L82.3883 25.5H87.146L79.907 4.5H74.1851L66.9356 25.5ZM79.7083 17.2456L77.1281 9.29882H76.964L74.3788 17.2456H79.7083Z" fill="white"/>
<path fill-rule="evenodd" clip-rule="evenodd" d="M88.8075 4.5H97.0925C98.6786 4.5 100.032 4.78368 101.153 5.35107C102.281 5.91162 103.139 6.708 103.727 7.74024C104.322 8.76563 104.619 9.97217 104.619 11.3598C104.619 12.7544 104.318 13.9541 103.717 14.959C103.115 15.957 102.244 16.7226 101.102 17.2558C101.039 17.2852 100.976 17.3138 100.912 17.3416L105.367 25.5H100.466L96.4885 18.0556H93.2475V25.5H88.8075V4.5ZM96.2621 14.4873H93.2475V8.12988H96.2414C97.0961 8.12988 97.8036 8.25636 98.3643 8.50929C98.9315 8.75537 99.3518 9.11768 99.6254 9.59618C99.9056 10.0747 100.046 10.6626 100.046 11.3598C100.046 12.0503 99.9056 12.6279 99.6254 13.0928C99.3518 13.5576 98.9349 13.9062 98.3744 14.1386C97.8138 14.3711 97.1097 14.4873 96.2621 14.4873Z" fill="white"/>
<path fill-rule="evenodd" clip-rule="evenodd" d="M115.175 4.5H106.89V25.5H111.33V18.6914H115.063C116.676 18.6914 118.05 18.394 119.185 17.7993C120.326 17.2046 121.198 16.374 121.799 15.3076C122.401 14.2412 122.702 13.0107 122.702 11.6162C122.702 10.2217 122.405 8.9912 121.81 7.9248C121.222 6.85155 120.367 6.01416 119.246 5.4126C118.125 4.8042 116.768 4.5 115.175 4.5ZM111.33 15.1333H114.345C115.199 15.1333 115.904 14.9863 116.457 14.6924C117.018 14.3916 117.435 13.978 117.708 13.4516C117.989 12.9184 118.129 12.3066 118.129 11.6162C118.129 10.9189 117.989 10.3105 117.708 9.791C117.435 9.26465 117.018 8.85791 116.457 8.57078C115.897 8.27685 115.186 8.12988 114.324 8.12988H111.33V15.1333Z" fill="white"/>
</g>
</g>
<defs>
<clipPath id="clip0_1_103">
<rect width="123" height="30" fill="white"/>
</clipPath>
</defs>
</svg>
