<svg width="150" height="29" viewBox="0 0 150 29" fill="none" xmlns="http://www.w3.org/2000/svg">
<g clip-path="url(#clip0_203_51)">
<path d="M13.367 18.571H34.399V28.445H-0.000976562V18.571H9.67001L22.986 11.435H-0.000976562V1.56104H34.399V11.435L13.367 18.571Z" fill="white"/>
<path d="M22.871 1.56104H0V11.435H22.871V1.56104Z" fill="#DDDDDD"/>
<path d="M34.404 18.5708H13.474V28.4448H34.404V18.5708Z" fill="#CCCCCC"/>
<path d="M44.7639 25.7482V21.9022L51.7539 13.8762C52.9013 12.5649 53.7503 11.6339 54.3009 11.0832C53.7269 11.1185 52.9719 11.1422 52.0359 11.1542L45.4499 11.1892V7.09717H60.8709V10.5972L53.7399 18.8172L51.2289 21.5392C52.5989 21.4572 53.4479 21.4162 53.7759 21.4162H61.4159V25.7542L44.7639 25.7482Z" fill="white"/>
<path d="M73.3769 19.8111L78.2949 20.6372C77.7676 22.297 76.7173 23.7417 75.3009 24.7551C73.7806 25.7426 71.9925 26.2364 70.1809 26.1692C66.9375 26.1692 64.5376 25.1095 62.9809 22.9902C61.6939 21.1002 61.0475 18.847 61.1369 16.5622C60.9819 13.92 61.8499 11.3195 63.5609 9.30016C64.3328 8.44646 65.2801 7.76978 66.338 7.31652C67.396 6.86326 68.5394 6.64412 69.6899 6.67416C70.9204 6.61484 72.1486 6.83085 73.285 7.30642C74.4214 7.78199 75.4374 8.50512 76.2589 9.42315C77.8629 11.2558 78.6296 14.0628 78.5589 17.8442H66.1929C66.1497 19.0921 66.5757 20.3109 67.3869 21.2602C67.7463 21.6552 68.1861 21.9687 68.6769 22.1793C69.1677 22.3899 69.698 22.4929 70.2319 22.4812C70.9357 22.504 71.6253 22.2805 72.1819 21.8492C72.7811 21.3095 73.1985 20.5976 73.3769 19.8111ZM73.6579 14.8232C73.7089 13.637 73.3139 12.4747 72.5509 11.5651C72.227 11.2082 71.8308 10.9241 71.3888 10.7319C70.9467 10.5397 70.4689 10.4436 69.9869 10.4502C69.4827 10.4379 68.982 10.5371 68.5205 10.7405C68.0589 10.9439 67.648 11.2467 67.3169 11.6272C66.576 12.5226 66.2053 13.6674 66.2809 14.8272L73.6579 14.8232Z" fill="white"/>
<path d="M84.1099 12.786L79.6319 11.978C80.0015 10.3805 80.922 8.9643 82.2319 7.97802C83.8855 7.00144 85.7959 6.54821 87.7119 6.678C89.3882 6.58631 91.0647 6.85291 92.6299 7.46002C93.5776 7.86638 94.3732 8.56089 94.9039 9.445C95.4478 10.8504 95.6729 12.3591 95.5629 13.862L95.5099 19.623C95.4787 20.8367 95.5581 22.0507 95.7469 23.25C95.9364 24.1173 96.2345 24.9572 96.6339 25.75H91.7509C91.6222 25.422 91.4642 24.936 91.2769 24.292C91.1949 24 91.1362 23.807 91.1009 23.713C90.3225 24.4891 89.4071 25.1143 88.4009 25.557C87.4292 25.9692 86.3834 26.1785 85.3279 26.172C83.6684 26.2647 82.0387 25.7036 80.7879 24.609C80.2462 24.1061 79.818 23.4935 79.5317 22.812C79.2455 22.1305 79.1078 21.3959 79.1279 20.657C79.1111 19.6652 79.3726 18.6886 79.8829 17.838C80.3866 17.0105 81.1229 16.3496 81.9999 15.938C83.2555 15.3933 84.574 15.0067 85.9249 14.787C87.5571 14.5314 89.1623 14.1257 90.7199 13.575V13.083C90.7573 12.7143 90.7141 12.3418 90.5932 11.9915C90.4723 11.6411 90.2767 11.3212 90.0199 11.054C89.2273 10.5641 88.2946 10.351 87.3679 10.448C86.646 10.4063 85.9287 10.587 85.3129 10.966C84.7333 11.4336 84.313 12.0695 84.1099 12.786ZM90.7099 16.786C89.7232 17.0877 88.7219 17.3397 87.7099 17.541C86.7748 17.6854 85.8681 17.9756 85.0229 18.401C84.7281 18.5857 84.4849 18.842 84.3159 19.1461C84.147 19.4502 84.0579 19.7921 84.0569 20.14C84.0543 20.4759 84.1217 20.8085 84.2548 21.1169C84.3879 21.4253 84.5837 21.7025 84.8299 21.931C85.0904 22.1823 85.3988 22.3786 85.7367 22.5083C86.0746 22.638 86.4352 22.6984 86.7969 22.686C87.7184 22.6758 88.6119 22.3678 89.3439 21.808C89.9076 21.4104 90.3219 20.8355 90.5209 20.175C90.6846 19.3841 90.7494 18.5759 90.7139 17.769L90.7099 16.786Z" fill="white"/>
<path d="M98.0569 25.748V0H102.992V9.27301C103.644 8.46473 104.467 7.81195 105.403 7.36218C106.339 6.91241 107.364 6.67697 108.402 6.673C109.465 6.64721 110.521 6.85484 111.495 7.28125C112.469 7.70766 113.338 8.3425 114.04 9.14102C115.527 10.7864 116.271 13.1487 116.271 16.228C116.271 19.4133 115.513 21.8663 113.997 23.587C113.326 24.4007 112.482 25.0546 111.526 25.5012C110.571 25.9478 109.528 26.176 108.473 26.169C107.373 26.1602 106.291 25.8858 105.32 25.369C104.251 24.8076 103.332 23.9976 102.642 23.007V25.747L98.0569 25.748ZM102.957 16.018C102.853 17.5041 103.169 18.9894 103.87 20.304C104.213 20.9044 104.709 21.4029 105.307 21.7486C105.906 22.0942 106.586 22.2745 107.277 22.271C107.818 22.2692 108.351 22.1418 108.834 21.8989C109.317 21.6559 109.737 21.304 110.061 20.871C110.933 19.5774 111.338 18.0257 111.211 16.471C111.351 14.848 110.943 13.2249 110.052 11.861C109.701 11.4107 109.25 11.0484 108.735 10.803C108.22 10.5575 107.655 10.4356 107.084 10.447C106.52 10.4379 105.961 10.5573 105.449 10.7962C104.938 11.0352 104.488 11.3873 104.133 11.826C103.258 13.0401 102.841 14.5249 102.957 16.017V16.018Z" fill="white"/>
<path d="M130.358 25.7481V22.9561C129.677 23.9533 128.756 24.7629 127.68 25.3101C126.6 25.877 125.399 26.1725 124.18 26.1711C123.004 26.1899 121.842 25.9055 120.808 25.3451C119.849 24.8349 119.089 24.019 118.647 23.0271C118.146 21.7111 117.919 20.3068 117.98 18.9001V7.1001H122.915V15.6711C122.842 17.2831 122.933 18.8985 123.187 20.4921C123.351 21.0585 123.7 21.5533 124.179 21.8971C124.717 22.2598 125.357 22.4412 126.005 22.4151C126.814 22.4256 127.606 22.1829 128.271 21.7211C128.899 21.308 129.379 20.7051 129.641 20.0001C129.976 18.3451 130.1 16.6543 130.01 14.9681V7.1001H134.945V25.7521L130.358 25.7481Z" fill="white"/>
<path d="M142.619 25.7478H137.684V7.09578H142.268V9.74779C142.795 8.78555 143.516 7.94259 144.384 7.27178C145.022 6.8692 145.763 6.66077 146.518 6.6718C147.666 6.67859 148.79 7.00064 149.767 7.6028L148.239 11.9028C147.56 11.4157 146.755 11.1351 145.921 11.0948C145.287 11.0761 144.667 11.2779 144.165 11.6658C143.584 12.2206 143.188 12.9415 143.032 13.7298C142.671 15.793 142.533 17.889 142.619 19.9818V25.7478Z" fill="white"/>
</g>
<defs>
<clipPath id="clip0_203_51">
<rect width="149.767" height="28.445" fill="white"/>
</clipPath>
</defs>
</svg>
