<svg width="564" height="115" viewBox="0 0 564 115" fill="none" xmlns="http://www.w3.org/2000/svg">
<mask id="path-1-inside-1_29_401" fill="white">
<path d="M17.8788 112H0.918756V-7.62939e-06H75.6388V14.24H17.8788V47.84H72.7588V62.08H17.8788V112ZM121.739 114.56C99.0188 114.56 83.0188 98.4 83.0188 73.28C83.0188 48.64 99.0188 32 121.739 32C144.299 32 160.459 48.64 160.459 73.28C160.459 98.4 144.299 114.56 121.739 114.56ZM121.739 102.08C135.499 102.08 144.139 90.88 144.139 73.28C144.139 55.68 135.179 44.64 121.739 44.64C108.299 44.64 99.3388 55.68 99.3388 73.28C99.3388 90.88 107.979 102.08 121.739 102.08ZM190.615 112H174.775V34.56H190.615V38.88C190.615 41.92 190.615 44.96 190.455 47.84C194.295 39.04 202.295 32 214.135 32C215.255 32 216.535 32 217.815 32.16V47.84C216.695 47.52 215.255 47.36 213.015 47.36C199.255 47.36 190.615 54.88 190.615 72V112ZM253.741 112H234.701L226.701 34.56H242.541L246.541 89.6L247.021 96.96C247.981 94.72 249.101 92.32 250.221 89.6L277.421 34.56H297.421L301.421 89.6L301.901 96.64C302.861 94.24 303.821 92.16 305.101 89.6L331.981 34.56H348.461L307.981 112H289.421L285.261 55.68L284.781 48.48C283.821 51.2 282.701 53.44 281.581 55.68L253.741 112ZM380.97 114.56C360.65 114.56 345.45 100.16 345.45 73.28C345.45 48.32 360.81 32 381.29 32C393.93 32 402.09 38.72 405.93 45.28C405.61 43.04 405.61 40.64 405.61 38.4V34.56H421.61V112H405.61V108.16C405.61 105.76 405.61 103.52 405.93 101.44C402.25 108.16 393.61 114.56 380.97 114.56ZM384.33 102.08C397.29 102.08 406.57 90.88 406.57 73.28C406.57 55.68 397.29 44.64 384.33 44.64C371.21 44.64 361.77 56.16 361.77 73.28C361.77 90.72 371.05 102.08 384.33 102.08ZM456.484 112H440.644V34.56H456.484V38.88C456.484 41.92 456.484 44.96 456.324 47.84C460.164 39.04 468.164 32 480.004 32C481.124 32 482.404 32 483.684 32.16V47.84C482.564 47.52 481.124 47.36 478.884 47.36C465.124 47.36 456.484 54.88 456.484 72V112ZM523.007 114.56C502.687 114.56 487.487 100.16 487.487 73.44C487.487 48.32 502.847 32 523.327 32C535.967 32 544.127 38.72 547.967 45.28C547.647 42.88 547.647 40.64 547.647 38.4V-7.62939e-06H563.647V112H547.647V108C547.647 105.6 547.647 103.36 547.967 101.28C544.287 108 535.647 114.56 523.007 114.56ZM526.367 102.08C539.327 102.08 548.767 90.72 548.767 73.28C548.767 55.68 539.327 44.64 526.367 44.64C513.247 44.64 503.807 56.16 503.807 73.28C503.807 90.72 513.087 102.08 526.367 102.08Z"/>
</mask>
<path d="M17.8788 112H0.918756V-7.62939e-06H75.6388V14.24H17.8788V47.84H72.7588V62.08H17.8788V112ZM121.739 114.56C99.0188 114.56 83.0188 98.4 83.0188 73.28C83.0188 48.64 99.0188 32 121.739 32C144.299 32 160.459 48.64 160.459 73.28C160.459 98.4 144.299 114.56 121.739 114.56ZM121.739 102.08C135.499 102.08 144.139 90.88 144.139 73.28C144.139 55.68 135.179 44.64 121.739 44.64C108.299 44.64 99.3388 55.68 99.3388 73.28C99.3388 90.88 107.979 102.08 121.739 102.08ZM190.615 112H174.775V34.56H190.615V38.88C190.615 41.92 190.615 44.96 190.455 47.84C194.295 39.04 202.295 32 214.135 32C215.255 32 216.535 32 217.815 32.16V47.84C216.695 47.52 215.255 47.36 213.015 47.36C199.255 47.36 190.615 54.88 190.615 72V112ZM253.741 112H234.701L226.701 34.56H242.541L246.541 89.6L247.021 96.96C247.981 94.72 249.101 92.32 250.221 89.6L277.421 34.56H297.421L301.421 89.6L301.901 96.64C302.861 94.24 303.821 92.16 305.101 89.6L331.981 34.56H348.461L307.981 112H289.421L285.261 55.68L284.781 48.48C283.821 51.2 282.701 53.44 281.581 55.68L253.741 112ZM380.97 114.56C360.65 114.56 345.45 100.16 345.45 73.28C345.45 48.32 360.81 32 381.29 32C393.93 32 402.09 38.72 405.93 45.28C405.61 43.04 405.61 40.64 405.61 38.4V34.56H421.61V112H405.61V108.16C405.61 105.76 405.61 103.52 405.93 101.44C402.25 108.16 393.61 114.56 380.97 114.56ZM384.33 102.08C397.29 102.08 406.57 90.88 406.57 73.28C406.57 55.68 397.29 44.64 384.33 44.64C371.21 44.64 361.77 56.16 361.77 73.28C361.77 90.72 371.05 102.08 384.33 102.08ZM456.484 112H440.644V34.56H456.484V38.88C456.484 41.92 456.484 44.96 456.324 47.84C460.164 39.04 468.164 32 480.004 32C481.124 32 482.404 32 483.684 32.16V47.84C482.564 47.52 481.124 47.36 478.884 47.36C465.124 47.36 456.484 54.88 456.484 72V112ZM523.007 114.56C502.687 114.56 487.487 100.16 487.487 73.44C487.487 48.32 502.847 32 523.327 32C535.967 32 544.127 38.72 547.967 45.28C547.647 42.88 547.647 40.64 547.647 38.4V-7.62939e-06H563.647V112H547.647V108C547.647 105.6 547.647 103.36 547.967 101.28C544.287 108 535.647 114.56 523.007 114.56ZM526.367 102.08C539.327 102.08 548.767 90.72 548.767 73.28C548.767 55.68 539.327 44.64 526.367 44.64C513.247 44.64 503.807 56.16 503.807 73.28C503.807 90.72 513.087 102.08 526.367 102.08Z" fill="url(#paint0_linear_29_401)"/>
<path d="M17.8788 112V113H18.8788V112H17.8788ZM0.918756 112H-0.0812435V113H0.918756V112ZM0.918756 -7.62939e-06V-1.00001H-0.0812435V-7.62939e-06H0.918756ZM75.6388 -7.62939e-06H76.6388V-1.00001H75.6388V-7.62939e-06ZM75.6388 14.24V15.24H76.6388V14.24H75.6388ZM17.8788 14.24V13.24H16.8788V14.24H17.8788ZM17.8788 47.84H16.8788V48.84H17.8788V47.84ZM72.7588 47.84H73.7588V46.84H72.7588V47.84ZM72.7588 62.08V63.08H73.7588V62.08H72.7588ZM17.8788 62.08V61.08H16.8788V62.08H17.8788ZM17.8788 111H0.918756V113H17.8788V111ZM1.91876 112V-7.62939e-06H-0.0812435V112H1.91876ZM0.918756 0.999992H75.6388V-1.00001H0.918756V0.999992ZM74.6388 -7.62939e-06V14.24H76.6388V-7.62939e-06H74.6388ZM75.6388 13.24H17.8788V15.24H75.6388V13.24ZM16.8788 14.24V47.84H18.8788V14.24H16.8788ZM17.8788 48.84H72.7588V46.84H17.8788V48.84ZM71.7588 47.84V62.08H73.7588V47.84H71.7588ZM72.7588 61.08H17.8788V63.08H72.7588V61.08ZM16.8788 62.08V112H18.8788V62.08H16.8788ZM121.739 113.56C110.624 113.56 101.216 109.613 94.5828 102.65C87.9471 95.6847 84.0188 85.6254 84.0188 73.28H82.0188C82.0188 86.0546 86.0905 96.6353 93.1347 104.03C100.182 111.427 110.133 115.56 121.739 115.56V113.56ZM84.0188 73.28C84.0188 61.1786 87.9448 51.116 94.5857 44.0867C101.223 37.0614 110.633 33 121.739 33V31C110.125 31 100.175 35.2586 93.1319 42.7133C86.0927 50.164 82.0188 60.7414 82.0188 73.28H84.0188ZM121.739 33C132.763 33 142.174 37.0605 148.833 44.0878C155.494 51.1184 159.459 61.1813 159.459 73.28H161.459C161.459 60.7387 157.343 50.1616 150.285 42.7122C143.223 35.2595 133.274 31 121.739 31V33ZM159.459 73.28C159.459 85.6227 155.492 95.6823 148.836 102.649C142.182 109.614 132.772 113.56 121.739 113.56V115.56C133.266 115.56 143.216 111.426 150.282 104.031C157.345 96.6377 161.459 86.0573 161.459 73.28H159.459ZM121.739 103.08C128.919 103.08 134.814 100.144 138.889 94.8931C142.943 89.669 145.139 82.2312 145.139 73.28H143.139C143.139 81.9287 141.015 88.891 137.309 93.6669C133.623 98.4162 128.318 101.08 121.739 101.08V103.08ZM145.139 73.28C145.139 64.3206 142.859 56.9219 138.763 51.7399C134.65 46.5358 128.759 43.64 121.739 43.64V45.64C128.158 45.64 133.467 48.2642 137.194 52.98C140.939 57.7181 143.139 64.6394 143.139 73.28H145.139ZM121.739 43.64C114.718 43.64 108.827 46.5358 104.714 51.7399C100.619 56.9219 98.3388 64.3206 98.3388 73.28H100.339C100.339 64.6394 102.539 57.7181 106.283 52.98C110.01 48.2642 115.319 45.64 121.739 45.64V43.64ZM98.3388 73.28C98.3388 82.2312 100.535 89.669 104.589 94.8931C108.663 100.144 114.558 103.08 121.739 103.08V101.08C115.159 101.08 109.854 98.4162 106.169 93.6669C102.463 88.891 100.339 81.9287 100.339 73.28H98.3388ZM190.615 112V113H191.615V112H190.615ZM174.775 112H173.775V113H174.775V112ZM174.775 34.56V33.56H173.775V34.56H174.775ZM190.615 34.56H191.615V33.56H190.615V34.56ZM190.455 47.84L189.457 47.7845L191.372 48.2399L190.455 47.84ZM217.815 32.16H218.815V31.2772L217.939 31.1677L217.815 32.16ZM217.815 47.84L217.54 48.8015L218.815 49.1657V47.84H217.815ZM190.615 111H174.775V113H190.615V111ZM175.775 112V34.56H173.775V112H175.775ZM174.775 35.56H190.615V33.56H174.775V35.56ZM189.615 34.56V38.88H191.615V34.56H189.615ZM189.615 38.88C189.615 41.9257 189.615 44.9372 189.457 47.7845L191.453 47.8955C191.615 44.9828 191.615 41.9143 191.615 38.88H189.615ZM191.372 48.2399C195.083 39.7352 202.763 33 214.135 33V31C201.827 31 193.507 38.3448 189.538 47.4401L191.372 48.2399ZM214.135 33C215.263 33 216.482 33.0012 217.691 33.1523L217.939 31.1677C216.588 30.9988 215.247 31 214.135 31V33ZM216.815 32.16V47.84H218.815V32.16H216.815ZM218.09 46.8785C216.839 46.5211 215.292 46.36 213.015 46.36V48.36C215.218 48.36 216.551 48.5189 217.54 48.8015L218.09 46.8785ZM213.015 46.36C205.958 46.36 200.061 48.2912 195.935 52.5655C191.815 56.8344 189.615 63.283 189.615 72H191.615C191.615 63.597 193.735 57.7256 197.375 53.9545C201.009 50.1888 206.312 48.36 213.015 48.36V46.36ZM189.615 72V112H191.615V72H189.615ZM253.741 112V113H254.362L254.638 112.443L253.741 112ZM234.701 112L233.707 112.103L233.799 113H234.701V112ZM226.701 34.56V33.56H225.593L225.707 34.6628L226.701 34.56ZM242.541 34.56L243.539 34.4875L243.471 33.56H242.541V34.56ZM246.541 89.6L247.539 89.5349L247.539 89.5275L246.541 89.6ZM247.021 96.96L246.023 97.0251L247.94 97.3539L247.021 96.96ZM250.221 89.6L249.325 89.157L249.31 89.1876L249.297 89.2193L250.221 89.6ZM277.421 34.56V33.56H276.8L276.525 34.117L277.421 34.56ZM297.421 34.56L298.419 34.4875L298.351 33.56H297.421V34.56ZM301.421 89.6L302.419 89.532L302.419 89.5275L301.421 89.6ZM301.901 96.64L300.904 96.708L302.83 97.0114L301.901 96.64ZM305.101 89.6L305.996 90.0472L306 90.0388L305.101 89.6ZM331.981 34.56V33.56H331.357L331.083 34.1212L331.981 34.56ZM348.461 34.56L349.347 35.0233L350.112 33.56H348.461V34.56ZM307.981 112V113H308.587L308.867 112.463L307.981 112ZM289.421 112L288.424 112.074L288.492 113H289.421V112ZM285.261 55.68L284.263 55.7465L284.264 55.7537L285.261 55.68ZM284.781 48.48L285.779 48.4135L283.838 48.1472L284.781 48.48ZM281.581 55.68L280.687 55.2328L280.685 55.2369L281.581 55.68ZM253.741 111H234.701V113H253.741V111ZM235.696 111.897L227.696 34.4572L225.707 34.6628L233.707 112.103L235.696 111.897ZM226.701 35.56H242.541V33.56H226.701V35.56ZM241.544 34.6325L245.544 89.6725L247.539 89.5275L243.539 34.4875L241.544 34.6325ZM245.543 89.6651L246.023 97.0251L248.019 96.8949L247.539 89.5349L245.543 89.6651ZM247.94 97.3539C248.879 95.1636 250.027 92.6975 251.146 89.9808L249.297 89.2193C248.175 91.9425 247.083 94.2764 246.102 96.5661L247.94 97.3539ZM251.118 90.043L278.318 35.003L276.525 34.117L249.325 89.157L251.118 90.043ZM277.421 35.56H297.421V33.56H277.421V35.56ZM296.424 34.6325L300.424 89.6725L302.419 89.5275L298.419 34.4875L296.424 34.6325ZM300.424 89.668L300.904 96.708L302.899 96.572L302.419 89.532L300.424 89.668ZM302.83 97.0114C303.777 94.6439 304.724 92.5899 305.996 90.0472L304.207 89.1528C302.918 91.7301 301.946 93.8361 300.973 96.2686L302.83 97.0114ZM306 90.0388L332.88 34.9988L331.083 34.1212L304.203 89.1612L306 90.0388ZM331.981 35.56H348.461V33.56H331.981V35.56ZM347.575 34.0967L307.095 111.537L308.867 112.463L349.347 35.0233L347.575 34.0967ZM307.981 111H289.421V113H307.981V111ZM290.419 111.926L286.259 55.6063L284.264 55.7537L288.424 112.074L290.419 111.926ZM286.259 55.6135L285.779 48.4135L283.783 48.5465L284.263 55.7465L286.259 55.6135ZM283.838 48.1472C282.902 50.8009 281.809 52.9894 280.687 55.2328L282.476 56.1272C283.594 53.8906 284.741 51.5991 285.724 48.8128L283.838 48.1472ZM280.685 55.2369L252.845 111.557L254.638 112.443L282.478 56.1231L280.685 55.2369ZM405.93 45.28L405.067 45.7852L406.92 45.1386L405.93 45.28ZM405.61 34.56V33.56H404.61V34.56H405.61ZM421.61 34.56H422.61V33.56H421.61V34.56ZM421.61 112V113H422.61V112H421.61ZM405.61 112H404.61V113H405.61V112ZM405.93 101.44L406.918 101.592L405.053 100.96L405.93 101.44ZM380.97 113.56C371.055 113.56 362.457 110.053 356.329 103.327C350.195 96.5927 346.45 86.5341 346.45 73.28H344.45C344.45 86.9059 348.305 97.4873 354.851 104.673C361.403 111.867 370.565 115.56 380.97 115.56V113.56ZM346.45 73.28C346.45 61.0045 350.225 50.9332 356.437 43.9444C362.644 36.962 371.33 33 381.29 33V31C370.77 31 361.536 35.198 354.943 42.6156C348.355 50.0268 344.45 60.5955 344.45 73.28H346.45ZM381.29 33C393.534 33 401.385 39.4951 405.067 45.7852L406.793 44.7748C402.795 37.9449 394.326 31 381.29 31V33ZM406.92 45.1386C406.612 42.9813 406.61 40.6539 406.61 38.4H404.61C404.61 40.6261 404.608 43.0987 404.94 45.4214L406.92 45.1386ZM406.61 38.4V34.56H404.61V38.4H406.61ZM405.61 35.56H421.61V33.56H405.61V35.56ZM420.61 34.56V112H422.61V34.56H420.61ZM421.61 111H405.61V113H421.61V111ZM406.61 112V108.16H404.61V112H406.61ZM406.61 108.16C406.61 105.742 406.612 103.582 406.918 101.592L404.942 101.288C404.608 103.458 404.61 105.778 404.61 108.16H406.61ZM405.053 100.96C401.555 107.348 393.258 113.56 380.97 113.56V115.56C393.962 115.56 402.945 108.972 406.807 101.92L405.053 100.96ZM384.33 103.08C391.125 103.08 396.971 100.133 401.095 94.8989C405.206 89.6824 407.57 82.2475 407.57 73.28H405.57C405.57 81.9125 403.294 88.8776 399.525 93.6611C395.769 98.427 390.495 101.08 384.33 101.08V103.08ZM407.57 73.28C407.57 64.3124 405.206 56.9157 401.093 51.738C396.966 46.5427 391.12 43.64 384.33 43.64V45.64C390.5 45.64 395.774 48.2572 399.527 52.982C403.294 57.7243 405.57 64.6476 405.57 73.28H407.57ZM384.33 43.64C377.452 43.64 371.529 46.6698 367.348 51.9168C363.179 57.1491 360.77 64.5431 360.77 73.28H362.77C362.77 64.8969 365.081 57.9709 368.912 53.1632C372.731 48.3702 378.088 45.64 384.33 45.64V43.64ZM360.77 73.28C360.77 82.1691 363.135 89.6048 367.286 94.8413C371.452 100.096 377.378 103.08 384.33 103.08V101.08C378.002 101.08 372.648 98.3844 368.854 93.5987C365.045 88.7952 362.77 81.8309 362.77 73.28H360.77ZM456.484 112V113H457.484V112H456.484ZM440.644 112H439.644V113H440.644V112ZM440.644 34.56V33.56H439.644V34.56H440.644ZM456.484 34.56H457.484V33.56H456.484V34.56ZM456.324 47.84L455.325 47.7845L457.24 48.2399L456.324 47.84ZM483.684 32.16H484.684V31.2772L483.808 31.1677L483.684 32.16ZM483.684 47.84L483.409 48.8015L484.684 49.1657V47.84H483.684ZM456.484 111H440.644V113H456.484V111ZM441.644 112V34.56H439.644V112H441.644ZM440.644 35.56H456.484V33.56H440.644V35.56ZM455.484 34.56V38.88H457.484V34.56H455.484ZM455.484 38.88C455.484 41.9257 455.483 44.9372 455.325 47.7845L457.322 47.8955C457.484 44.9828 457.484 41.9143 457.484 38.88H455.484ZM457.24 48.2399C460.951 39.7352 468.632 33 480.004 33V31C467.696 31 459.376 38.3448 455.407 47.4401L457.24 48.2399ZM480.004 33C481.132 33 482.351 33.0012 483.56 33.1523L483.808 31.1677C482.457 30.9988 481.116 31 480.004 31V33ZM482.684 32.16V47.84H484.684V32.16H482.684ZM483.958 46.8785C482.708 46.5211 481.16 46.36 478.884 46.36V48.36C481.087 48.36 482.42 48.5189 483.409 48.8015L483.958 46.8785ZM478.884 46.36C471.827 46.36 465.93 48.2912 461.804 52.5655C457.684 56.8344 455.484 63.283 455.484 72H457.484C457.484 63.597 459.603 57.7256 463.243 53.9545C466.878 50.1888 472.18 48.36 478.884 48.36V46.36ZM455.484 72V112H457.484V72H455.484ZM547.967 45.28L547.104 45.7852L548.959 45.1478L547.967 45.28ZM547.648 -7.62939e-06V-1.00001H546.648V-7.62939e-06H547.648ZM563.648 -7.62939e-06H564.648V-1.00001H563.648V-7.62939e-06ZM563.648 112V113H564.648V112H563.648ZM547.648 112H546.648V113H547.648V112ZM547.967 101.28L548.956 101.432L547.09 100.8L547.967 101.28ZM523.008 113.56C513.093 113.56 504.494 110.053 498.366 103.346C492.232 96.6311 488.487 86.6127 488.487 73.44H486.487C486.487 86.9873 490.343 97.5289 496.889 104.694C503.441 111.867 512.602 115.56 523.008 115.56V113.56ZM488.487 73.44C488.487 61.083 492.264 50.9716 498.476 43.9633C504.682 36.9619 513.368 33 523.328 33V31C512.807 31 503.573 35.1981 496.979 42.6367C490.391 50.0684 486.487 60.677 486.487 73.44H488.487ZM523.328 33C535.572 33 543.422 39.4951 547.104 45.7852L548.831 44.7748C544.833 37.9449 536.363 31 523.328 31V33ZM548.959 45.1478C548.649 42.8233 548.648 40.6473 548.648 38.4H546.648C546.648 40.6327 546.646 42.9367 546.976 45.4122L548.959 45.1478ZM548.648 38.4V-7.62939e-06H546.648V38.4H548.648ZM547.648 0.999992H563.648V-1.00001H547.648V0.999992ZM562.648 -7.62939e-06V112H564.648V-7.62939e-06H562.648ZM563.648 111H547.648V113H563.648V111ZM548.648 112V108H546.648V112H548.648ZM548.648 108C548.648 105.582 548.65 103.422 548.956 101.432L546.979 101.128C546.645 103.298 546.648 105.618 546.648 108H548.648ZM547.09 100.8C543.587 107.197 535.284 113.56 523.008 113.56V115.56C536.01 115.56 544.988 108.803 548.845 101.76L547.09 100.8ZM526.367 103.08C533.165 103.08 539.049 100.09 543.211 94.8413C547.361 89.6074 549.768 82.1732 549.768 73.28H547.768C547.768 81.8268 545.454 88.7926 541.644 93.5987C537.846 98.3896 532.53 101.08 526.367 101.08V103.08ZM549.768 73.28C549.768 64.3085 547.361 56.9109 543.207 51.7341C539.041 46.5415 533.156 43.64 526.367 43.64V45.64C532.539 45.64 537.854 48.2585 541.648 52.9858C545.454 57.7291 547.768 64.6515 547.768 73.28H549.768ZM526.367 43.64C519.489 43.64 513.566 46.6698 509.385 51.9168C505.216 57.1491 502.807 64.5431 502.807 73.28H504.807C504.807 64.8969 507.119 57.9709 510.95 53.1632C514.769 48.3702 520.126 45.64 526.367 45.64V43.64ZM502.807 73.28C502.807 82.1691 505.172 89.6048 509.324 94.8413C513.49 100.096 519.416 103.08 526.367 103.08V101.08C520.039 101.08 514.685 98.3844 510.891 93.5987C507.083 88.7952 504.807 81.8309 504.807 73.28H502.807Z" fill="#282828" mask="url(#path-1-inside-1_29_401)"/>
<defs>
<linearGradient id="paint0_linear_29_401" x1="281" y1="2" x2="281" y2="123" gradientUnits="userSpaceOnUse">
<stop stop-color="#181818"/>
<stop offset="1" stop-color="#494949"/>
</linearGradient>
</defs>
</svg>
