<svg width="32" height="32" viewBox="0 0 32 32" fill="none" xmlns="http://www.w3.org/2000/svg">
<rect x="0.375" y="0.375" width="31.25" height="31.25" rx="15.625" fill="url(#paint0_linear_255_151)"/>
<path d="M12.875 13.5V13.125H12.5H9.5H9.125V13.5V22V22.375H9.5H12.5H12.875V22V13.5ZM18.5 22.375H18.875V22V17.296C18.875 16.8071 19.0327 16.4751 19.2366 16.267C19.4435 16.0559 19.7202 15.949 20 15.949C20.2798 15.949 20.5565 16.0559 20.7634 16.267C20.9673 16.4751 21.125 16.8071 21.125 17.296V22V22.375H21.5H24.4998H24.8748V22V17C24.8748 15.5813 24.48 14.4794 23.7727 13.7298C23.0638 12.9785 22.0825 12.625 21 12.625C20.1667 12.625 19.5583 12.8776 19.104 13.228C19.0223 13.291 18.9461 13.3568 18.875 13.4241V13.125H18.5H15.5H15.125V13.5V22V22.375H15.5H18.5ZM11 12.375C12.0355 12.375 12.875 11.5355 12.875 10.5C12.875 9.46447 12.0355 8.625 11 8.625C9.96447 8.625 9.125 9.46447 9.125 10.5C9.125 11.5355 9.96447 12.375 11 12.375Z" fill="url(#paint1_linear_255_151)" stroke="url(#paint2_linear_255_151)" stroke-width="0.75"/>
<rect x="0.375" y="0.375" width="31.25" height="31.25" rx="15.625" stroke="url(#paint3_linear_255_151)" stroke-width="0.75"/>
<defs>
<linearGradient id="paint0_linear_255_151" x1="31.7037" y1="32" x2="-0.296307" y2="8.83063e-09" gradientUnits="userSpaceOnUse">
<stop stop-color="white" stop-opacity="0.15"/>
<stop offset="1" stop-opacity="0"/>
</linearGradient>
<linearGradient id="paint1_linear_255_151" x1="34.1426" y1="0.613839" x2="13.4109" y2="22.0555" gradientUnits="userSpaceOnUse">
<stop stop-color="white" stop-opacity="0"/>
<stop offset="0.333333" stop-color="white" stop-opacity="0"/>
<stop offset="0.666667" stop-color="white" stop-opacity="0"/>
<stop offset="1" stop-color="white" stop-opacity="0.3"/>
</linearGradient>
<linearGradient id="paint2_linear_255_151" x1="24.7499" y1="9.21667" x2="11.8819" y2="24.0643" gradientUnits="userSpaceOnUse">
<stop stop-color="white"/>
<stop offset="1" stop-color="white" stop-opacity="0.6"/>
</linearGradient>
<linearGradient id="paint3_linear_255_151" x1="31.7037" y1="-4.23526e-07" x2="16" y2="32" gradientUnits="userSpaceOnUse">
<stop stop-color="white" stop-opacity="0.3"/>
<stop offset="1" stop-color="white" stop-opacity="0"/>
</linearGradient>
</defs>
</svg>
