<svg width="32" height="32" viewBox="0 0 32 32" fill="none" xmlns="http://www.w3.org/2000/svg">
<g clip-path="url(#clip0_1111_297)">
<path d="M31.625 16C31.625 7.37055 24.6294 0.375 16 0.375C7.37055 0.375 0.375 7.37055 0.375 16C0.375 24.6294 7.37055 31.625 16 31.625C24.6294 31.625 31.625 24.6294 31.625 16Z" fill="url(#paint0_linear_1111_297)"/>
<path d="M31.625 16C31.625 7.37055 24.6294 0.375 16 0.375C7.37055 0.375 0.375 7.37055 0.375 16C0.375 24.6294 7.37055 31.625 16 31.625C24.6294 31.625 31.625 24.6294 31.625 16Z" stroke="url(#paint1_linear_1111_297)" stroke-width="0.75"/>
<path d="M22.711 10.8783L22.6525 10.792L22.5579 10.7483C21.411 10.2185 20.2003 9.84267 18.9565 9.63035L18.6944 9.5856L18.5654 9.81817C18.44 10.0444 18.3233 10.2753 18.2155 10.5105C17.0752 10.3623 15.9207 10.3623 14.7803 10.5105C14.6726 10.2754 14.5559 10.0444 14.4305 9.81824L14.3015 9.58527L14.039 9.63043C12.7946 9.84451 11.5833 10.2212 10.4355 10.7509L10.3398 10.7951L10.2811 10.8827C8.01002 14.273 7.39047 17.5915 7.69885 20.8565L7.71452 21.0223L7.84806 21.1218C9.18238 22.1165 10.676 22.8731 12.264 23.3586L12.518 23.4363L12.6755 23.2225C13.0363 22.7329 13.3555 22.2136 13.6297 21.6701L13.7169 21.4972C14.6209 21.7484 15.5569 21.8768 16.5 21.8768C17.4421 21.8768 18.377 21.7486 19.2801 21.498L19.3675 21.6713C19.6415 22.2148 19.9608 22.7338 20.322 23.2228L20.4793 23.4359L20.7328 23.3588C22.3223 22.8752 23.8173 22.1189 25.152 21.1231L25.2852 21.0237L25.301 20.8582C25.663 17.0708 24.6802 13.7833 22.711 10.8783ZM13.676 18.4873C13.0821 18.4873 12.52 17.927 12.52 17.1503C12.52 16.367 13.0639 15.8065 13.6733 15.8065C14.2888 15.8065 14.8427 16.3728 14.8307 17.1444C14.8184 17.9346 14.2784 18.4873 13.676 18.4873ZM19.3239 18.4873C18.7293 18.4873 18.1693 17.9277 18.1693 17.1503C18.1693 16.3672 18.7129 15.8065 19.3239 15.8065C19.9394 15.8065 20.4893 16.3712 20.4773 17.1444C20.465 17.935 19.926 18.4873 19.3239 18.4873Z" fill="url(#paint2_linear_1111_297)" stroke="url(#paint3_linear_1111_297)" stroke-width="0.75"/>
<path d="M13.676 18.8624C12.8376 18.8624 12.145 18.0948 12.145 17.1504C12.145 16.206 12.8136 15.4316 13.6733 15.4316C14.5331 15.4316 15.2204 16.206 15.2057 17.1504C15.1909 18.0948 14.5304 18.8624 13.676 18.8624ZM19.3239 18.8624C18.4842 18.8624 17.7943 18.0948 17.7943 17.1504C17.7943 16.206 18.4628 15.4316 19.3239 15.4316C20.185 15.4316 20.867 16.206 20.8523 17.1504C20.8375 18.0948 20.1784 18.8624 19.3239 18.8624Z" fill="white"/>
</g>
<defs>
<linearGradient id="paint0_linear_1111_297" x1="31.7037" y1="32" x2="-0.296307" y2="3.61703e-08" gradientUnits="userSpaceOnUse">
<stop stop-color="white" stop-opacity="0.15"/>
<stop offset="1" stop-opacity="0"/>
</linearGradient>
<linearGradient id="paint1_linear_1111_297" x1="31.7037" y1="1.54362e-07" x2="16" y2="32" gradientUnits="userSpaceOnUse">
<stop stop-color="white" stop-opacity="0.3"/>
<stop offset="1" stop-color="white" stop-opacity="0"/>
</linearGradient>
<linearGradient id="paint2_linear_1111_297" x1="35.9286" y1="1.61384" x2="15.4441" y2="25.6249" gradientUnits="userSpaceOnUse">
<stop stop-color="white" stop-opacity="0"/>
<stop offset="0.333333" stop-color="white" stop-opacity="0"/>
<stop offset="0.666667" stop-color="white" stop-opacity="0"/>
<stop offset="1" stop-color="white" stop-opacity="0.3"/>
</linearGradient>
<linearGradient id="paint3_linear_1111_297" x1="25.2834" y1="10.2167" x2="12.7375" y2="26.6228" gradientUnits="userSpaceOnUse">
<stop stop-color="white"/>
<stop offset="1" stop-color="white" stop-opacity="0.6"/>
</linearGradient>
<clipPath id="clip0_1111_297">
<rect width="32" height="32" fill="white"/>
</clipPath>
</defs>
</svg>
