<svg width="32" height="32" viewBox="0 0 32 32" fill="none" xmlns="http://www.w3.org/2000/svg">
<rect x="0.375" y="0.375" width="31.25" height="31.25" rx="15.625" fill="url(#paint0_linear_8_3737)"/>
<path d="M24 17.64C24 18.7033 23.8933 19.83 23.4167 20.8067C22.1533 23.36 18.68 23.3 16.1933 23.3C13.6667 23.3 9.98667 23.39 8.67333 20.8067C8.18667 19.84 8 18.7033 8 17.64C8 16.2433 8.46333 14.9233 9.38333 13.8533C9.21 13.3267 9.12667 12.7733 9.12667 12.2267C9.12667 11.51 9.29 11.15 9.61333 10.5C11.1233 10.5 12.09 10.8 13.24 11.7C14.2067 11.47 15.2 11.3667 16.1967 11.3667C17.0967 11.3667 18.0033 11.4633 18.8767 11.6733C20.01 10.7833 20.9767 10.5 22.47 10.5C22.7967 11.15 22.9567 11.51 22.9567 12.2267C22.9567 12.7733 22.87 13.3167 22.7 13.8333C23.6167 14.9133 24 16.2433 24 17.64Z" fill="url(#paint1_linear_8_3737)"/>
<path fill-rule="evenodd" clip-rule="evenodd" d="M24.0889 21.1393L24.0907 21.1356C24.6433 20.0033 24.75 18.7378 24.75 17.64C24.75 16.2355 24.3956 14.8487 23.5276 13.6711C23.6465 13.1999 23.7067 12.7143 23.7067 12.2267C23.7067 11.3335 23.4837 10.8468 23.1401 10.1632L22.9325 9.75H22.47C21.6769 9.75 20.9786 9.82495 20.3101 10.0385C19.7422 10.2199 19.2239 10.4923 18.7027 10.8661C17.8764 10.6952 17.0315 10.6167 16.1967 10.6167C15.2661 10.6167 14.3325 10.7023 13.4141 10.893C12.8881 10.515 12.3666 10.2364 11.7945 10.0496C11.1213 9.82971 10.4176 9.75 9.61333 9.75H9.14874L8.94183 10.166C8.60433 10.8444 8.37667 11.3321 8.37667 12.2267C8.37667 12.7126 8.43446 13.2051 8.5549 13.6864C7.68538 14.8371 7.25 16.2087 7.25 17.64C7.25 18.7807 7.44874 20.0421 8.00343 21.1439L8.00477 21.1466C8.80809 22.7267 10.3174 23.4328 11.821 23.7554C13.213 24.0541 14.7322 24.0519 15.9333 24.0502L16.1933 24.05L16.3822 24.0501C17.5729 24.051 19.0673 24.0522 20.4301 23.7421C21.8813 23.412 23.3173 22.6987 24.0889 21.1393ZM22.9567 12.2267C22.9567 12.7733 22.87 13.3167 22.7 13.8333C23.6167 14.9133 24 16.2433 24 17.64C24 18.7033 23.8933 19.83 23.4167 20.8067C22.6901 22.2752 21.2325 22.8792 19.652 23.1275C19.967 23.0378 20.272 22.9245 20.5591 22.7819C21.1372 22.4947 21.6605 22.08 22.0354 21.4882C22.4111 20.8952 22.6067 20.1733 22.6067 19.3232C22.6067 18.4463 22.3407 17.5808 21.7949 16.9201C21.2372 16.2449 20.4139 15.8198 19.4067 15.8198C18.8479 15.8198 18.2963 15.9013 17.7984 15.9748C17.6748 15.9931 17.5546 16.0108 17.4383 16.0267L17.4383 16.0266L17.4256 16.0286C16.9746 16.0982 16.5172 16.1265 16.0367 16.1265C15.5598 16.1265 15.102 16.0983 14.647 16.0285L14.647 16.0284L14.6366 16.027C14.5281 16.0119 14.4155 15.9951 14.2997 15.9779L14.2997 15.9779C13.7988 15.9035 13.2364 15.8198 12.6667 15.8198C11.6595 15.8198 10.8362 16.2449 10.2784 16.9201C9.73265 17.5808 9.46667 18.4463 9.46667 19.3232C9.46667 20.1729 9.66262 20.8943 10.0385 21.4871C10.4135 22.0785 10.9367 22.4932 11.5143 22.7805C11.7514 22.8984 12.0007 22.9964 12.2577 23.0775C10.7459 22.8011 9.37339 22.1837 8.67333 20.8067C8.18667 19.84 8 18.7033 8 17.64C8 16.2433 8.46333 14.9233 9.38333 13.8533C9.21 13.3267 9.12667 12.7733 9.12667 12.2267C9.12667 11.51 9.29 11.15 9.61333 10.5C11.1233 10.5 12.09 10.8 13.24 11.7C14.2067 11.47 15.2 11.3667 16.1967 11.3667C17.0967 11.3667 18.0033 11.4633 18.8767 11.6733C20.01 10.7833 20.9767 10.5 22.47 10.5C22.7967 11.15 22.9567 11.51 22.9567 12.2267ZM17.9346 16.7131C17.8041 16.7323 17.6727 16.7517 17.54 16.7698C17.0433 16.8465 16.5467 16.8765 16.0367 16.8765C15.53 16.8765 15.0333 16.8465 14.5333 16.7698C14.4106 16.7528 14.2883 16.7347 14.1663 16.7166C13.6688 16.6429 13.1753 16.5698 12.6667 16.5698C11.1067 16.5698 10.2167 17.8598 10.2167 19.3232C10.2167 22.2498 12.8967 22.6998 15.23 22.6998H16.8367C19.18 22.6998 21.8567 22.2532 21.8567 19.3232C21.8567 17.8598 20.9667 16.5698 19.4067 16.5698C18.9087 16.5698 18.4273 16.6406 17.9347 16.7131L17.9347 16.7131L17.9346 16.7131Z" fill="url(#paint2_linear_8_3737)"/>
<path d="M12.98 21.1601C13.84 21.1601 14.2034 20.0201 14.2034 19.3235C14.2034 18.6268 13.84 17.4868 12.98 17.4868C12.12 17.4868 11.7567 18.6268 11.7567 19.3235C11.7567 20.0201 12.12 21.1601 12.98 21.1601Z" fill="white"/>
<path d="M17.88 19.3235C17.88 18.6268 18.2433 17.4868 19.1033 17.4868C19.9633 17.4868 20.3267 18.6268 20.3267 19.3235C20.3267 20.0201 19.9633 21.1601 19.1033 21.1601C18.2433 21.1601 17.88 20.0201 17.88 19.3235Z" fill="white"/>
<rect x="0.375" y="0.375" width="31.25" height="31.25" rx="15.625" stroke="url(#paint3_linear_8_3737)" stroke-width="0.75"/>
<defs>
<linearGradient id="paint0_linear_8_3737" x1="31.7037" y1="32" x2="-0.296307" y2="8.83063e-09" gradientUnits="userSpaceOnUse">
<stop stop-color="white" stop-opacity="0.15"/>
<stop offset="1" stop-opacity="0"/>
</linearGradient>
<linearGradient id="paint1_linear_8_3737" x1="34.2857" y1="2.24261" x2="13.9921" y2="24.9798" gradientUnits="userSpaceOnUse">
<stop stop-color="white" stop-opacity="0"/>
<stop offset="0.333333" stop-color="white" stop-opacity="0"/>
<stop offset="0.666667" stop-color="white" stop-opacity="0"/>
<stop offset="1" stop-color="white" stop-opacity="0.3"/>
</linearGradient>
<linearGradient id="paint2_linear_8_3737" x1="25.0417" y1="9.98834" x2="11.0278" y2="27.1376" gradientUnits="userSpaceOnUse">
<stop stop-color="white"/>
<stop offset="1" stop-color="white" stop-opacity="0.6"/>
</linearGradient>
<linearGradient id="paint3_linear_8_3737" x1="31.7037" y1="-4.23526e-07" x2="16" y2="32" gradientUnits="userSpaceOnUse">
<stop stop-color="white" stop-opacity="0.3"/>
<stop offset="1" stop-color="white" stop-opacity="0"/>
</linearGradient>
</defs>
</svg>
