<svg width="32" height="32" viewBox="0 0 32 32" fill="none" xmlns="http://www.w3.org/2000/svg">
<g clip-path="url(#clip0_67_6)">
<path d="M31.625 16C31.625 7.37055 24.6294 0.375 16 0.375C7.37055 0.375 0.375 7.37055 0.375 16C0.375 24.6294 7.37055 31.625 16 31.625C24.6294 31.625 31.625 24.6294 31.625 16Z" fill="url(#paint0_linear_67_6)"/>
<path d="M13.0455 11H11L19 21.5H21.4545L13.0455 11Z" fill="url(#paint1_linear_67_6)"/>
<path d="M19.7383 10H21.7317L17.3767 15.0831L22.5 22H18.4885L15.3465 17.8049L11.7513 22H9.75671L14.4148 16.5631L9.5 10H13.6134L16.4535 13.8345L19.7383 10ZM19.0386 20.7815H20.1432L13.0132 11.1545H11.8279L19.0386 20.7815Z" fill="url(#paint2_linear_67_6)"/>
<path d="M19.7383 10H21.7317L17.3767 15.0831L22.5 22H18.4885L15.3465 17.8049L11.7513 22H9.75671L14.4148 16.5631L9.5 10H13.6134L16.4535 13.8345L19.7383 10ZM19.0386 20.7815H20.1432L13.0132 11.1545H11.8279L19.0386 20.7815Z" fill="url(#paint3_linear_67_6)"/>
<path d="M31.625 16C31.625 7.37055 24.6294 0.375 16 0.375C7.37055 0.375 0.375 7.37055 0.375 16C0.375 24.6294 7.37055 31.625 16 31.625C24.6294 31.625 31.625 24.6294 31.625 16Z" stroke="url(#paint4_linear_67_6)" stroke-width="0.75"/>
</g>
<defs>
<linearGradient id="paint0_linear_67_6" x1="31.7037" y1="32" x2="-0.296307" y2="3.61703e-08" gradientUnits="userSpaceOnUse">
<stop stop-color="white" stop-opacity="0.15"/>
<stop offset="1" stop-opacity="0"/>
</linearGradient>
<linearGradient id="paint1_linear_67_6" x1="26.3341" y1="4.59107" x2="10.4502" y2="16.3809" gradientUnits="userSpaceOnUse">
<stop stop-color="white" stop-opacity="0"/>
<stop offset="0.333333" stop-color="white" stop-opacity="0"/>
<stop offset="0.666667" stop-color="white" stop-opacity="0"/>
<stop offset="1" stop-color="white" stop-opacity="0.3"/>
</linearGradient>
<linearGradient id="paint2_linear_67_6" x1="30.2048" y1="3.00844" x2="12.1042" y2="20.7976" gradientUnits="userSpaceOnUse">
<stop stop-color="white" stop-opacity="0"/>
<stop offset="0.333333" stop-color="white" stop-opacity="0"/>
<stop offset="0.666667" stop-color="white" stop-opacity="0"/>
<stop offset="1" stop-color="white" stop-opacity="0.3"/>
</linearGradient>
<linearGradient id="paint3_linear_67_6" x1="22.4153" y1="10.5164" x2="11.1178" y2="22.9034" gradientUnits="userSpaceOnUse">
<stop stop-color="white"/>
<stop offset="1" stop-color="white" stop-opacity="0.6"/>
</linearGradient>
<linearGradient id="paint4_linear_67_6" x1="31.7037" y1="1.54362e-07" x2="16" y2="32" gradientUnits="userSpaceOnUse">
<stop stop-color="white" stop-opacity="0.3"/>
<stop offset="1" stop-color="white" stop-opacity="0"/>
</linearGradient>
<clipPath id="clip0_67_6">
<rect width="32" height="32" fill="white"/>
</clipPath>
</defs>
</svg>
